<svg width="669" height="351" viewBox="0 0 669 351" fill="none" xmlns="http://www.w3.org/2000/svg">
<g clip-path="url(#clip0_93_704)">
<path fill-rule="evenodd" clip-rule="evenodd" d="M0 16C0 7.16344 7.16344 0 16 0H653C661.837 0 669 7.16344 669 16V335C669 343.837 661.837 351 653 351H16C7.16345 351 0 343.837 0 335V16Z" fill="white"/>
<g clip-path="url(#clip1_93_704)">
<path fill-rule="evenodd" clip-rule="evenodd" d="M32 48C32 39.1634 39.1634 32 48 32C56.8366 32 64 39.1634 64 48C64 56.8366 56.8366 64 48 64C39.1634 64 32 56.8366 32 48Z" fill="#EAF3FF"/>
<mask id="mask0_93_704" style="mask-type:luminance" maskUnits="userSpaceOnUse" x="32" y="32" width="32" height="32">
<path fill-rule="evenodd" clip-rule="evenodd" d="M32 48C32 39.1634 39.1634 32 48 32C56.8366 32 64 39.1634 64 48C64 56.8366 56.8366 64 48 64C39.1634 64 32 56.8366 32 48Z" fill="white"/>
</mask>
<g mask="url(#mask0_93_704)">
<path fill-rule="evenodd" clip-rule="evenodd" d="M48.0002 41.3335C44.3202 41.3335 41.3335 44.3202 41.3335 48.0002C41.3335 51.6802 44.3202 54.6668 48.0002 54.6668C51.6802 54.6668 54.6668 51.6802 54.6668 48.0002C54.6668 44.3202 51.6802 41.3335 48.0002 41.3335Z" stroke="#168AFF" stroke-linejoin="round"/>
<path d="M47.9115 51.3333C48.177 51.3333 48.3922 51.1181 48.3922 50.8526V49.6626H49.5448C49.7175 49.6626 49.8575 49.5226 49.8575 49.35C49.8575 49.1773 49.7175 49.0373 49.5448 49.0373H48.3922V48.328H49.5402C49.7154 48.328 49.8575 48.1859 49.8575 48.0106C49.8575 47.8354 49.7154 47.6933 49.5402 47.6933H48.6908L50.0452 45.5488C50.2352 45.2481 50.0191 44.856 49.6634 44.856C49.5007 44.856 49.3506 44.9434 49.2704 45.0849L47.9722 47.376H47.9068L46.6229 45.0953C46.5397 44.9474 46.3832 44.856 46.2135 44.856C45.845 44.856 45.6199 45.2609 45.8145 45.5739L47.1322 47.6933H46.3015C46.1262 47.6933 45.9842 47.8354 45.9842 48.0106C45.9842 48.1859 46.1262 48.328 46.3015 48.328H47.4308V49.0373H46.2968C46.1241 49.0373 45.9842 49.1773 45.9842 49.35C45.9842 49.5226 46.1241 49.6626 46.2968 49.6626H47.4308V50.8526C47.4308 51.1181 47.646 51.3333 47.9115 51.3333Z" fill="#168AFF"/>
</g>
</g>
<path d="M84.838 46.676H90.796V48.224H84.838V46.676ZM84.586 55.118H90.796V56.63H84.586V55.118ZM83.902 50.006H91.624V57.53H89.878V51.518H85.558V57.548H83.902V50.006ZM88.42 41.384C88.768 42.128 89.206 42.86 89.734 43.58C90.274 44.3 90.862 44.96 91.498 45.56C92.146 46.16 92.806 46.646 93.478 47.018C93.346 47.126 93.202 47.264 93.046 47.432C92.902 47.6 92.758 47.774 92.614 47.954C92.47 48.122 92.35 48.278 92.254 48.422C91.57 47.966 90.904 47.39 90.256 46.694C89.62 45.998 89.026 45.236 88.474 44.408C87.934 43.568 87.478 42.71 87.106 41.834L88.42 41.384ZM87.25 40.808L88.852 41.258C88.312 42.746 87.574 44.126 86.638 45.398C85.714 46.658 84.622 47.732 83.362 48.62C83.278 48.488 83.164 48.344 83.02 48.188C82.876 48.032 82.726 47.882 82.57 47.738C82.414 47.582 82.27 47.456 82.138 47.36C82.918 46.844 83.638 46.238 84.298 45.542C84.958 44.846 85.54 44.096 86.044 43.292C86.548 42.476 86.95 41.648 87.25 40.808ZM78.142 42.446H82.192V52.76H78.142V51.176H80.608V44.012H78.142V42.446ZM77.26 42.446H78.826V54.434H77.26V42.446ZM95.008 46.712H111.01V48.206H95.008V46.712ZM107.734 40.754L109.156 41.69C108.364 42.23 107.47 42.728 106.474 43.184C105.49 43.628 104.446 44.036 103.342 44.408C102.238 44.78 101.122 45.116 99.994 45.416C98.866 45.704 97.774 45.956 96.718 46.172C96.634 46.04 96.52 45.884 96.376 45.704C96.244 45.524 96.106 45.35 95.962 45.182C95.818 45.002 95.686 44.858 95.566 44.75C96.682 44.582 97.81 44.366 98.95 44.102C100.102 43.838 101.212 43.538 102.28 43.202C103.36 42.854 104.362 42.476 105.286 42.068C106.222 41.66 107.038 41.222 107.734 40.754ZM102.802 48.584H104.458V57.512H102.802V48.584ZM97.996 50.24H108.634V51.752H99.688V56.522H97.996V50.24ZM107.878 50.24H109.588V54.668C109.588 55.076 109.534 55.394 109.426 55.622C109.33 55.838 109.132 56.012 108.832 56.144C108.544 56.252 108.172 56.318 107.716 56.342C107.26 56.378 106.708 56.396 106.06 56.396C106.024 56.156 105.952 55.904 105.844 55.64C105.748 55.364 105.646 55.124 105.538 54.92C105.994 54.932 106.408 54.938 106.78 54.938C107.164 54.938 107.422 54.938 107.554 54.938C107.674 54.938 107.758 54.92 107.806 54.884C107.854 54.836 107.878 54.758 107.878 54.65V50.24ZM96.736 42.086L97.906 41.06C98.854 41.288 99.868 41.564 100.948 41.888C102.028 42.2 103.108 42.536 104.188 42.896C105.268 43.256 106.282 43.622 107.23 43.994C108.19 44.366 109.024 44.72 109.732 45.056L108.436 46.262C107.788 45.938 107.002 45.584 106.078 45.2C105.166 44.816 104.176 44.438 103.108 44.066C102.04 43.682 100.954 43.322 99.85 42.986C98.758 42.638 97.72 42.338 96.736 42.086ZM101.182 44.588L102.91 45.056C102.454 46.208 101.878 47.324 101.182 48.404C100.486 49.484 99.676 50.48 98.752 51.392C97.84 52.292 96.814 53.066 95.674 53.714C95.578 53.582 95.464 53.438 95.332 53.282C95.2 53.114 95.062 52.958 94.918 52.814C94.774 52.658 94.648 52.526 94.54 52.418C95.62 51.842 96.592 51.14 97.456 50.312C98.332 49.472 99.082 48.56 99.706 47.576C100.342 46.592 100.834 45.596 101.182 44.588ZM117.976 42.554H128.848V44.03H117.976V42.554ZM117.184 55.622H129.316V57.08H117.184V55.622ZM118.84 45.524H127.804V55.964H126.238V46.82H120.37V55.964H118.84V45.524ZM119.938 48.098H126.562V49.322H119.938V48.098ZM119.902 50.618H126.922V51.806H119.902V50.618ZM119.884 53.12H126.598V54.344H119.884V53.12ZM122.674 40.826L124.474 40.898C124.378 41.498 124.264 42.116 124.132 42.752C124.012 43.388 123.88 44 123.736 44.588C123.604 45.164 123.472 45.668 123.34 46.1L121.864 45.956C121.972 45.5 122.08 44.972 122.188 44.372C122.296 43.772 122.392 43.16 122.476 42.536C122.572 41.912 122.638 41.342 122.674 40.826ZM116.536 40.844L118.102 41.33C117.73 42.35 117.298 43.364 116.806 44.372C116.314 45.368 115.774 46.316 115.186 47.216C114.61 48.104 114.016 48.89 113.404 49.574C113.356 49.442 113.272 49.268 113.152 49.052C113.044 48.824 112.93 48.602 112.81 48.386C112.69 48.158 112.582 47.978 112.486 47.846C113.026 47.27 113.542 46.61 114.034 45.866C114.538 45.11 115.006 44.306 115.438 43.454C115.87 42.602 116.236 41.732 116.536 40.844ZM114.7 45.686L116.266 44.066L116.284 44.084V57.512H114.7V45.686ZM130.792 44.156H136.282V45.722H130.792V44.156ZM133.042 40.808H134.59V57.494H133.042V40.808ZM132.988 45.254L133.96 45.596C133.852 46.304 133.708 47.036 133.528 47.792C133.348 48.548 133.144 49.292 132.916 50.024C132.688 50.744 132.442 51.422 132.178 52.058C131.914 52.682 131.638 53.222 131.35 53.678C131.302 53.498 131.23 53.306 131.134 53.102C131.038 52.898 130.936 52.7 130.828 52.508C130.732 52.304 130.636 52.124 130.54 51.968C130.804 51.596 131.056 51.146 131.296 50.618C131.548 50.09 131.782 49.526 131.998 48.926C132.226 48.314 132.424 47.696 132.592 47.072C132.76 46.436 132.892 45.83 132.988 45.254ZM134.518 46.316C134.626 46.448 134.776 46.664 134.968 46.964C135.172 47.264 135.388 47.594 135.616 47.954C135.844 48.302 136.054 48.626 136.246 48.926C136.438 49.226 136.57 49.442 136.642 49.574L135.634 50.744C135.55 50.516 135.424 50.228 135.256 49.88C135.088 49.532 134.908 49.172 134.716 48.8C134.524 48.416 134.338 48.062 134.158 47.738C133.99 47.402 133.846 47.138 133.726 46.946L134.518 46.316ZM141.88 41.384C142.18 41.816 142.546 42.26 142.978 42.716C143.41 43.172 143.878 43.622 144.382 44.066C144.886 44.51 145.408 44.924 145.948 45.308C146.488 45.68 147.01 46.004 147.514 46.28C147.406 46.412 147.298 46.574 147.19 46.766C147.082 46.958 146.98 47.156 146.884 47.36C146.8 47.552 146.728 47.726 146.668 47.882C145.96 47.414 145.228 46.868 144.472 46.244C143.716 45.608 143.002 44.942 142.33 44.246C141.67 43.538 141.106 42.86 140.638 42.212L141.88 41.384ZM141.106 40.646L142.582 41.186C142.114 42.098 141.55 42.986 140.89 43.85C140.23 44.702 139.522 45.494 138.766 46.226C138.022 46.946 137.26 47.576 136.48 48.116C136.42 47.996 136.33 47.852 136.21 47.684C136.09 47.504 135.964 47.324 135.832 47.144C135.7 46.964 135.586 46.82 135.49 46.712C136.234 46.256 136.954 45.71 137.65 45.074C138.358 44.438 139.006 43.742 139.594 42.986C140.194 42.23 140.698 41.45 141.106 40.646ZM138.406 46.352H144.634V47.81H138.406V46.352ZM137.11 49.664L138.424 49.322C138.604 49.778 138.766 50.264 138.91 50.78C139.054 51.296 139.186 51.806 139.306 52.31C139.438 52.802 139.528 53.24 139.576 53.624L138.19 54.02C138.142 53.624 138.058 53.18 137.938 52.688C137.83 52.184 137.704 51.668 137.56 51.14C137.416 50.612 137.266 50.12 137.11 49.664ZM140.566 49.16L141.898 48.98C142.018 49.424 142.126 49.904 142.222 50.42C142.33 50.936 142.426 51.44 142.51 51.932C142.594 52.412 142.648 52.85 142.672 53.246L141.268 53.462C141.244 53.078 141.196 52.64 141.124 52.148C141.064 51.644 140.98 51.134 140.872 50.618C140.776 50.09 140.674 49.604 140.566 49.16ZM145.012 48.98L146.506 49.34C146.23 50.06 145.918 50.816 145.57 51.608C145.234 52.4 144.886 53.162 144.526 53.894C144.178 54.626 143.836 55.268 143.5 55.82L142.294 55.442C142.534 55.022 142.78 54.548 143.032 54.02C143.284 53.48 143.53 52.916 143.77 52.328C144.022 51.74 144.25 51.158 144.454 50.582C144.67 50.006 144.856 49.472 145.012 48.98ZM136.192 55.208H146.902V56.72H136.192V55.208ZM154.048 49.196H155.524C155.524 49.196 155.524 49.28 155.524 49.448C155.524 49.604 155.518 49.736 155.506 49.844C155.41 51.356 155.314 52.58 155.218 53.516C155.134 54.452 155.026 55.172 154.894 55.676C154.774 56.168 154.624 56.516 154.444 56.72C154.276 56.924 154.09 57.062 153.886 57.134C153.694 57.218 153.46 57.278 153.184 57.314C152.944 57.338 152.626 57.344 152.23 57.332C151.846 57.332 151.438 57.32 151.006 57.296C150.994 57.092 150.946 56.858 150.862 56.594C150.79 56.33 150.688 56.102 150.556 55.91C150.988 55.946 151.384 55.97 151.744 55.982C152.116 55.994 152.38 56 152.536 56C152.692 56 152.818 55.988 152.914 55.964C153.01 55.94 153.1 55.88 153.184 55.784C153.304 55.64 153.418 55.346 153.526 54.902C153.634 54.458 153.73 53.798 153.814 52.922C153.898 52.034 153.976 50.876 154.048 49.448V49.196ZM148.468 53.174C149.092 53.054 149.818 52.898 150.646 52.706C151.474 52.502 152.326 52.292 153.202 52.076L153.346 53.372C152.554 53.576 151.762 53.786 150.97 54.002C150.19 54.206 149.464 54.392 148.792 54.56L148.468 53.174ZM149.008 41.546H153.742V43.004H149.008V41.546ZM153.292 41.546H154.732C154.708 42.206 154.666 42.896 154.606 43.616C154.546 44.336 154.486 45.056 154.426 45.776C154.378 46.496 154.324 47.18 154.264 47.828C154.204 48.464 154.144 49.028 154.084 49.52L152.626 49.556C152.698 49.04 152.764 48.458 152.824 47.81C152.896 47.15 152.962 46.46 153.022 45.74C153.082 45.008 153.136 44.288 153.184 43.58C153.232 42.86 153.268 42.182 153.292 41.546ZM149.746 44.282L151.204 44.354C151.168 45.026 151.12 45.746 151.06 46.514C151 47.27 150.934 48.002 150.862 48.71C150.802 49.418 150.736 50.03 150.664 50.546H149.224C149.296 50.006 149.368 49.376 149.44 48.656C149.512 47.924 149.572 47.174 149.62 46.406C149.68 45.638 149.722 44.93 149.746 44.282ZM149.728 49.196H154.246V50.546H149.728V49.196ZM160.474 41.33C160.846 41.906 161.314 42.506 161.878 43.13C162.442 43.742 163.048 44.318 163.696 44.858C164.356 45.398 164.992 45.86 165.604 46.244C165.52 46.376 165.424 46.544 165.316 46.748C165.208 46.94 165.106 47.138 165.01 47.342C164.926 47.534 164.86 47.714 164.812 47.882C164.14 47.402 163.456 46.844 162.76 46.208C162.064 45.572 161.41 44.9 160.798 44.192C160.186 43.484 159.664 42.806 159.232 42.158L160.474 41.33ZM159.88 40.646L161.374 41.15C160.942 42.062 160.42 42.938 159.808 43.778C159.196 44.606 158.536 45.374 157.828 46.082C157.12 46.79 156.388 47.402 155.632 47.918C155.572 47.81 155.482 47.672 155.362 47.504C155.242 47.324 155.116 47.15 154.984 46.982C154.852 46.802 154.738 46.658 154.642 46.55C155.362 46.106 156.046 45.578 156.694 44.966C157.354 44.354 157.96 43.682 158.512 42.95C159.064 42.218 159.52 41.45 159.88 40.646ZM157.558 46.352H163.03V47.81H157.558V46.352ZM156.352 49.574L157.666 49.25C157.834 49.694 157.996 50.174 158.152 50.69C158.308 51.206 158.44 51.71 158.548 52.202C158.668 52.682 158.758 53.12 158.818 53.516L157.432 53.894C157.384 53.51 157.3 53.072 157.18 52.58C157.072 52.076 156.946 51.566 156.802 51.05C156.67 50.522 156.52 50.03 156.352 49.574ZM159.52 49.106L160.834 48.926C160.942 49.37 161.05 49.85 161.158 50.366C161.266 50.882 161.356 51.386 161.428 51.878C161.512 52.358 161.566 52.796 161.59 53.192L160.222 53.408C160.198 53.024 160.144 52.586 160.06 52.094C159.988 51.59 159.904 51.08 159.808 50.564C159.712 50.048 159.616 49.562 159.52 49.106ZM163.516 49.106L165.046 49.466C164.782 50.174 164.494 50.918 164.182 51.698C163.87 52.466 163.552 53.21 163.228 53.93C162.904 54.65 162.592 55.28 162.292 55.82L161.05 55.442C161.266 55.034 161.488 54.566 161.716 54.038C161.944 53.51 162.172 52.964 162.4 52.4C162.628 51.824 162.838 51.254 163.03 50.69C163.222 50.126 163.384 49.598 163.516 49.106ZM155.848 55.208H165.1V56.666H155.848V55.208Z" fill="#168AFF"/>
<path d="M31.207 260H637.793" stroke="#F1F2F4"/>
<path d="M31.207 81.2842H637.793" stroke="#F1F2F4"/>
<g clip-path="url(#clip2_93_704)">
<path fill-rule="evenodd" clip-rule="evenodd" d="M31 152C31 143.163 38.1634 136 47 136H621.586C630.423 136 637.586 143.163 637.586 152V201.284C637.586 210.121 630.423 217.284 621.586 217.284H47C38.1634 217.284 31 210.121 31 201.284V152Z" fill="#FAFAFA"/>
<path d="M319.665 164.16C312.932 164.16 307.475 169.756 307.475 176.66C307.475 183.564 312.932 189.16 319.665 189.16C326.398 189.16 331.855 183.564 331.855 176.66C331.855 169.756 326.398 164.16 319.665 164.16ZM325.76 177.91H320.884V182.91H318.446V177.91H313.57V175.41H318.446V170.41H320.884V175.41H325.76V177.91Z" fill="#A0AEC0"/>
</g>
<g clip-path="url(#clip3_93_704)">
<path fill-rule="evenodd" clip-rule="evenodd" d="M525 284.895C525 278.267 530.373 272.895 537 272.895H625C631.627 272.895 637 278.267 637 284.895V308.895C637 315.522 631.627 320.895 625 320.895H537C530.373 320.895 525 315.522 525 308.895V284.895Z" fill="#168AFF"/>
<path d="M556.144 288.295H558.096V293.863H556.144V288.295ZM553.488 294.791V296.855H560.832V294.791H553.488ZM551.648 293.015H562.8V298.631H551.648V293.015ZM557.056 289.719H563.856V291.511H557.056V289.719ZM554.304 299.847L556.128 299.671C556.213 300.023 556.288 300.407 556.352 300.823C556.416 301.228 556.469 301.617 556.512 301.991C556.555 302.364 556.576 302.695 556.576 302.983L554.64 303.223C554.64 302.945 554.624 302.609 554.592 302.215C554.571 301.831 554.533 301.431 554.48 301.015C554.437 300.599 554.379 300.209 554.304 299.847ZM557.6 299.863L559.36 299.463C559.52 299.804 559.68 300.172 559.84 300.567C560.011 300.951 560.16 301.324 560.288 301.687C560.416 302.049 560.512 302.375 560.576 302.663L558.704 303.143C558.651 302.865 558.565 302.535 558.448 302.151C558.341 301.767 558.213 301.377 558.064 300.983C557.915 300.577 557.76 300.204 557.6 299.863ZM560.864 299.767L562.576 299.143C562.843 299.473 563.109 299.841 563.376 300.247C563.653 300.652 563.909 301.052 564.144 301.447C564.379 301.831 564.56 302.183 564.688 302.503L562.832 303.223C562.715 302.913 562.549 302.556 562.336 302.151C562.123 301.756 561.883 301.351 561.616 300.935C561.36 300.508 561.109 300.119 560.864 299.767ZM551.68 299.255L553.52 299.735C553.296 300.364 552.997 301.004 552.624 301.655C552.251 302.305 551.856 302.844 551.44 303.271L549.664 302.407C550.059 302.055 550.437 301.591 550.8 301.015C551.163 300.439 551.456 299.852 551.68 299.255ZM567.352 290.535H579.576V292.423H567.352V290.535ZM566.2 294.279H580.632V296.199H566.2V294.279ZM572.472 288.311H574.52V301.959H572.472V288.311ZM577.304 297.111H579.304V303.335H577.304V297.111ZM567.528 297.143H569.576V300.727H578.696V302.599H567.528V297.143ZM582.208 291.191H587.104V292.967H582.208V291.191ZM584.096 288.295H585.84V303.319H584.096V288.295ZM584.048 292.503L585.088 292.903C584.992 293.521 584.869 294.167 584.72 294.839C584.581 295.5 584.416 296.151 584.224 296.791C584.032 297.431 583.824 298.028 583.6 298.583C583.376 299.137 583.141 299.612 582.896 300.007C582.832 299.815 582.747 299.601 582.64 299.367C582.544 299.132 582.443 298.897 582.336 298.663C582.229 298.428 582.128 298.225 582.032 298.055C582.245 297.735 582.453 297.356 582.656 296.919C582.869 296.471 583.067 296.001 583.248 295.511C583.429 295.009 583.589 294.503 583.728 293.991C583.867 293.468 583.973 292.972 584.048 292.503ZM585.76 293.399C585.856 293.505 585.989 293.687 586.16 293.943C586.341 294.199 586.533 294.481 586.736 294.791C586.949 295.089 587.141 295.367 587.312 295.623C587.483 295.879 587.6 296.071 587.664 296.199L586.56 297.479C586.475 297.255 586.363 296.988 586.224 296.679C586.085 296.369 585.936 296.055 585.776 295.735C585.616 295.404 585.456 295.095 585.296 294.807C585.147 294.508 585.019 294.263 584.912 294.071L585.76 293.399ZM592.256 288.791C592.533 289.143 592.864 289.511 593.248 289.895C593.632 290.268 594.048 290.641 594.496 291.015C594.955 291.377 595.424 291.713 595.904 292.023C596.384 292.332 596.848 292.593 597.296 292.807C597.189 292.967 597.077 293.159 596.96 293.383C596.843 293.607 596.736 293.836 596.64 294.071C596.544 294.295 596.464 294.492 596.4 294.663C595.739 294.257 595.067 293.783 594.384 293.239C593.701 292.684 593.051 292.103 592.432 291.495C591.824 290.876 591.301 290.289 590.864 289.735L592.256 288.791ZM591.344 288.119L592.992 288.743C592.555 289.543 592.032 290.327 591.424 291.095C590.827 291.852 590.181 292.561 589.488 293.223C588.805 293.873 588.123 294.439 587.44 294.919C587.365 294.791 587.264 294.631 587.136 294.439C587.008 294.236 586.869 294.033 586.72 293.831C586.581 293.628 586.453 293.463 586.336 293.335C586.987 292.94 587.621 292.471 588.24 291.927C588.869 291.372 589.451 290.769 589.984 290.119C590.517 289.468 590.971 288.801 591.344 288.119ZM589.056 293.191H594.736V294.807H589.056V293.191ZM587.872 296.343L589.36 295.959C589.488 296.353 589.611 296.78 589.728 297.239C589.856 297.697 589.968 298.145 590.064 298.583C590.171 299.02 590.251 299.409 590.304 299.751L588.736 300.183C588.704 299.831 588.64 299.436 588.544 298.999C588.459 298.561 588.357 298.113 588.24 297.655C588.123 297.185 588 296.748 587.872 296.343ZM590.928 295.863L592.4 295.671C592.507 296.065 592.603 296.492 592.688 296.951C592.784 297.399 592.864 297.841 592.928 298.279C593.003 298.705 593.056 299.089 593.088 299.431L591.536 299.671C591.515 299.329 591.472 298.94 591.408 298.503C591.344 298.055 591.269 297.607 591.184 297.159C591.109 296.7 591.024 296.268 590.928 295.863ZM594.784 295.655L596.448 296.023C596.203 296.663 595.931 297.329 595.632 298.023C595.344 298.705 595.045 299.361 594.736 299.991C594.437 300.609 594.149 301.159 593.872 301.639L592.512 301.255C592.715 300.881 592.923 300.465 593.136 300.007C593.349 299.537 593.557 299.052 593.76 298.551C593.973 298.039 594.165 297.537 594.336 297.047C594.507 296.545 594.656 296.081 594.784 295.655ZM587.12 300.999H596.656V302.679H587.12V300.999ZM602.952 295.719H604.584C604.584 295.719 604.579 295.809 604.568 295.991C604.568 296.161 604.563 296.3 604.552 296.407C604.488 297.74 604.419 298.823 604.344 299.655C604.269 300.487 604.179 301.127 604.072 301.575C603.965 302.023 603.832 302.343 603.672 302.535C603.501 302.737 603.32 302.881 603.128 302.967C602.947 303.052 602.723 303.111 602.456 303.143C602.243 303.164 601.96 303.175 601.608 303.175C601.256 303.185 600.888 303.18 600.504 303.159C600.493 302.924 600.44 302.663 600.344 302.375C600.259 302.087 600.152 301.836 600.024 301.623C600.376 301.655 600.707 301.676 601.016 301.687C601.325 301.697 601.555 301.703 601.704 301.703C601.832 301.703 601.939 301.692 602.024 301.671C602.109 301.639 602.189 301.585 602.264 301.511C602.371 301.383 602.461 301.127 602.536 300.743C602.621 300.348 602.696 299.767 602.76 298.999C602.824 298.231 602.888 297.228 602.952 295.991V295.719ZM598.12 299.207C598.653 299.111 599.283 298.988 600.008 298.839C600.744 298.679 601.496 298.519 602.264 298.359L602.408 299.767C601.725 299.927 601.037 300.092 600.344 300.263C599.661 300.423 599.027 300.572 598.44 300.711L598.12 299.207ZM598.536 288.887H602.728V290.503H598.536V288.887ZM602.232 288.887H603.848C603.816 289.484 603.779 290.108 603.736 290.759C603.693 291.399 603.645 292.044 603.592 292.695C603.549 293.335 603.501 293.948 603.448 294.535C603.405 295.111 603.357 295.628 603.304 296.087L601.72 296.071C601.773 295.601 601.827 295.073 601.88 294.487C601.944 293.9 601.997 293.287 602.04 292.647C602.093 291.996 602.136 291.351 602.168 290.711C602.2 290.071 602.221 289.463 602.232 288.887ZM599.16 291.559L600.792 291.655C600.76 292.252 600.717 292.897 600.664 293.591C600.621 294.273 600.568 294.935 600.504 295.575C600.451 296.204 600.397 296.753 600.344 297.223H598.728C598.803 296.732 598.867 296.161 598.92 295.511C598.973 294.86 599.021 294.193 599.064 293.511C599.107 292.817 599.139 292.167 599.16 291.559ZM599.288 295.735H603.128V297.223H599.288V295.735ZM608.92 288.743C609.251 289.201 609.667 289.687 610.168 290.199C610.68 290.711 611.229 291.191 611.816 291.639C612.403 292.087 612.979 292.46 613.544 292.759C613.437 292.919 613.325 293.116 613.208 293.351C613.101 293.585 613 293.82 612.904 294.055C612.819 294.279 612.744 294.481 612.68 294.663C612.061 294.247 611.432 293.761 610.792 293.207C610.152 292.641 609.549 292.055 608.984 291.447C608.419 290.828 607.928 290.236 607.512 289.671L608.92 288.743ZM608.232 288.119L609.896 288.695C609.501 289.495 609.021 290.268 608.456 291.015C607.891 291.751 607.283 292.433 606.632 293.063C605.992 293.692 605.336 294.241 604.664 294.711C604.6 294.572 604.499 294.407 604.36 294.215C604.232 294.012 604.093 293.815 603.944 293.623C603.805 293.431 603.683 293.271 603.576 293.143C604.205 292.759 604.808 292.305 605.384 291.783C605.971 291.26 606.509 290.689 607 290.071C607.491 289.441 607.901 288.791 608.232 288.119ZM606.264 293.191H611.224V294.807H606.264V293.191ZM605.176 296.311L606.632 295.927C606.771 296.321 606.899 296.748 607.016 297.207C607.144 297.655 607.256 298.092 607.352 298.519C607.448 298.945 607.523 299.329 607.576 299.671L606.024 300.119C605.981 299.767 605.917 299.372 605.832 298.935C605.747 298.497 605.645 298.049 605.528 297.591C605.411 297.132 605.293 296.705 605.176 296.311ZM607.944 295.863L609.416 295.655C609.512 296.06 609.603 296.492 609.688 296.951C609.784 297.399 609.864 297.836 609.928 298.263C610.003 298.689 610.056 299.073 610.088 299.415L608.552 299.671C608.531 299.319 608.488 298.924 608.424 298.487C608.36 298.049 608.285 297.601 608.2 297.143C608.125 296.684 608.04 296.257 607.944 295.863ZM611.416 295.751L613.144 296.119C612.92 296.748 612.68 297.404 612.424 298.087C612.168 298.769 611.907 299.42 611.64 300.039C611.373 300.657 611.117 301.201 610.872 301.671L609.48 301.287C609.651 300.913 609.827 300.503 610.008 300.055C610.2 299.596 610.381 299.116 610.552 298.615C610.733 298.113 610.899 297.617 611.048 297.127C611.197 296.636 611.32 296.177 611.416 295.751ZM604.776 300.999H613.112V302.631H604.776V300.999Z" fill="white"/>
</g>
<g clip-path="url(#clip4_93_704)">
<path d="M414.765 273.395H503.89C510.241 273.395 515.39 278.543 515.39 284.895V308.895C515.39 315.246 510.241 320.395 503.89 320.395H414.765C408.414 320.395 403.265 315.246 403.265 308.895V284.895C403.265 278.543 408.414 273.395 414.765 273.395Z" fill="white" stroke="#168AFF"/>
<path d="M422.321 294.861L423.469 293.783C423.814 294.147 424.155 294.543 424.491 294.973C424.836 295.393 425.149 295.813 425.429 296.233C425.718 296.653 425.952 297.031 426.129 297.367L424.869 298.599C424.701 298.253 424.482 297.861 424.211 297.423C423.94 296.984 423.637 296.541 423.301 296.093C422.974 295.645 422.648 295.234 422.321 294.861ZM428.859 293.433C428.971 294.021 429.12 294.641 429.307 295.295C429.503 295.939 429.741 296.578 430.021 297.213C430.31 297.847 430.651 298.435 431.043 298.977C431.444 299.518 431.902 299.971 432.415 300.335C432.294 300.437 432.149 300.582 431.981 300.769C431.822 300.955 431.668 301.147 431.519 301.343C431.37 301.548 431.248 301.73 431.155 301.889C430.623 301.441 430.152 300.909 429.741 300.293C429.34 299.667 428.99 299.005 428.691 298.305C428.402 297.595 428.159 296.886 427.963 296.177C427.767 295.467 427.604 294.795 427.473 294.161L428.859 293.433ZM422.041 289.205L423.889 289.261C423.824 291.109 423.688 292.835 423.483 294.441C423.278 296.037 422.96 297.479 422.531 298.767C422.111 300.045 421.523 301.147 420.767 302.071C420.664 301.968 420.51 301.842 420.305 301.693C420.1 301.543 419.885 301.394 419.661 301.245C419.437 301.095 419.25 300.979 419.101 300.895C419.848 300.12 420.422 299.145 420.823 297.969C421.234 296.793 421.523 295.463 421.691 293.979C421.868 292.495 421.985 290.903 422.041 289.205ZM427.473 289.191L429.335 289.275C429.26 290.703 429.148 292.051 428.999 293.321C428.85 294.581 428.635 295.752 428.355 296.835C428.084 297.908 427.725 298.883 427.277 299.761C426.838 300.638 426.288 301.403 425.625 302.057C425.532 301.963 425.382 301.842 425.177 301.693C424.972 301.543 424.757 301.389 424.533 301.231C424.309 301.081 424.122 300.965 423.973 300.881C424.841 300.134 425.513 299.187 425.989 298.039C426.474 296.881 426.824 295.561 427.039 294.077C427.263 292.583 427.408 290.955 427.473 289.191ZM442.653 292.145L444.389 292.607C443.829 294.315 443.092 295.789 442.177 297.031C441.262 298.263 440.156 299.294 438.859 300.125C437.562 300.955 436.054 301.623 434.337 302.127C434.281 301.987 434.192 301.819 434.071 301.623C433.95 301.427 433.819 301.231 433.679 301.035C433.548 300.839 433.427 300.675 433.315 300.545C434.976 300.134 436.418 299.569 437.641 298.851C438.864 298.132 439.886 297.222 440.707 296.121C441.538 295.019 442.186 293.694 442.653 292.145ZM437.235 292.243C437.72 293.605 438.388 294.837 439.237 295.939C440.086 297.04 441.127 297.978 442.359 298.753C443.6 299.518 445.038 300.087 446.671 300.461C446.55 300.582 446.414 300.736 446.265 300.923C446.125 301.119 445.99 301.315 445.859 301.511C445.728 301.707 445.621 301.879 445.537 302.029C443.82 301.571 442.331 300.918 441.071 300.069C439.82 299.219 438.756 298.179 437.879 296.947C437.002 295.715 436.269 294.305 435.681 292.719L437.235 292.243ZM433.581 291.361H446.405V292.999H433.581V291.361ZM438.733 289.387L440.525 288.855C440.721 289.181 440.908 289.545 441.085 289.947C441.272 290.348 441.407 290.693 441.491 290.983L439.587 291.585C439.522 291.295 439.405 290.945 439.237 290.535C439.078 290.115 438.91 289.732 438.733 289.387ZM455.383 289.177H457.091V302.141H455.383V289.177ZM453.003 289.779L454.627 290.101C454.496 290.735 454.338 291.365 454.151 291.991C453.964 292.616 453.754 293.204 453.521 293.755C453.297 294.296 453.059 294.772 452.807 295.183C452.704 295.099 452.56 295.005 452.373 294.903C452.196 294.8 452.014 294.702 451.827 294.609C451.65 294.506 451.491 294.431 451.351 294.385C451.603 294.011 451.836 293.577 452.051 293.083C452.266 292.579 452.452 292.047 452.611 291.487C452.77 290.917 452.9 290.348 453.003 289.779ZM453.549 291.711H460.031V293.363H453.129L453.549 291.711ZM451.589 295.785H460.689V297.423H451.589V295.785ZM450.553 289.051L452.149 289.555C451.85 290.339 451.5 291.132 451.099 291.935C450.698 292.728 450.259 293.479 449.783 294.189C449.316 294.898 448.831 295.523 448.327 296.065C448.271 295.925 448.192 295.747 448.089 295.533C447.986 295.309 447.874 295.085 447.753 294.861C447.632 294.637 447.52 294.455 447.417 294.315C447.837 293.885 448.238 293.391 448.621 292.831C449.013 292.271 449.372 291.669 449.699 291.025C450.035 290.381 450.32 289.723 450.553 289.051ZM449.167 292.929L450.763 291.333V291.347V302.127H449.167V292.929ZM462.597 291.431H474.161V298.459H472.397V293.083H464.277V298.529H462.597V291.431ZM463.465 296.107H473.377V297.759H463.465V296.107ZM467.441 288.995H469.219V302.141H467.441V288.995ZM480.003 293.797H488.991V295.253H480.003V293.797ZM481.669 290.759H488.417V292.173H481.669V290.759ZM483.825 289.079H485.491V294.357H483.825V289.079ZM481.473 289.429L483.055 289.779C482.859 290.497 482.588 291.193 482.243 291.865C481.907 292.527 481.548 293.087 481.165 293.545C481.062 293.451 480.927 293.349 480.759 293.237C480.591 293.125 480.418 293.013 480.241 292.901C480.073 292.789 479.924 292.705 479.793 292.649C480.176 292.257 480.512 291.776 480.801 291.207C481.09 290.628 481.314 290.035 481.473 289.429ZM484.903 294.651H486.569V297.703C486.569 297.899 486.583 298.025 486.611 298.081C486.639 298.127 486.709 298.151 486.821 298.151C486.849 298.151 486.886 298.151 486.933 298.151C486.989 298.151 487.045 298.151 487.101 298.151C487.166 298.151 487.227 298.151 487.283 298.151C487.339 298.151 487.381 298.151 487.409 298.151C487.484 298.151 487.54 298.118 487.577 298.053C487.624 297.987 487.656 297.852 487.675 297.647C487.703 297.432 487.722 297.115 487.731 296.695C487.834 296.779 487.969 296.863 488.137 296.947C488.314 297.031 488.496 297.105 488.683 297.171C488.879 297.236 489.052 297.292 489.201 297.339C489.145 297.964 489.056 298.445 488.935 298.781C488.814 299.117 488.646 299.355 488.431 299.495C488.216 299.625 487.936 299.691 487.591 299.691C487.526 299.691 487.446 299.691 487.353 299.691C487.26 299.691 487.162 299.691 487.059 299.691C486.956 299.691 486.858 299.691 486.765 299.691C486.672 299.691 486.592 299.691 486.527 299.691C486.079 299.691 485.738 299.63 485.505 299.509C485.281 299.378 485.122 299.173 485.029 298.893C484.945 298.603 484.903 298.211 484.903 297.717V294.651ZM482.383 294.609H484.077C484.021 295.178 483.932 295.719 483.811 296.233C483.699 296.746 483.526 297.222 483.293 297.661C483.06 298.09 482.733 298.487 482.313 298.851C481.902 299.215 481.375 299.527 480.731 299.789C480.666 299.649 480.577 299.495 480.465 299.327C480.353 299.149 480.227 298.977 480.087 298.809C479.956 298.641 479.83 298.505 479.709 298.403C480.26 298.207 480.698 297.978 481.025 297.717C481.361 297.455 481.618 297.166 481.795 296.849C481.982 296.522 482.117 296.172 482.201 295.799C482.285 295.416 482.346 295.019 482.383 294.609ZM476.181 290.339L477.455 289.401C477.726 289.615 478.001 289.853 478.281 290.115C478.561 290.367 478.822 290.623 479.065 290.885C479.317 291.146 479.518 291.393 479.667 291.627L478.281 292.677C478.15 292.453 477.968 292.205 477.735 291.935C477.502 291.655 477.25 291.375 476.979 291.095C476.708 290.815 476.442 290.563 476.181 290.339ZM479.373 294.399V299.719H477.763V295.953H476.209V294.399H479.373ZM479.205 299.089C479.429 299.089 479.648 299.168 479.863 299.327C480.078 299.485 480.358 299.672 480.703 299.887C481.142 300.148 481.66 300.316 482.257 300.391C482.854 300.465 483.517 300.503 484.245 300.503C484.712 300.503 485.244 300.489 485.841 300.461C486.438 300.433 487.031 300.395 487.619 300.349C488.207 300.302 488.725 300.246 489.173 300.181C489.126 300.33 489.066 300.512 488.991 300.727C488.926 300.941 488.865 301.156 488.809 301.371C488.762 301.585 488.734 301.767 488.725 301.917C488.464 301.935 488.146 301.949 487.773 301.959C487.409 301.977 487.012 301.991 486.583 302.001C486.163 302.019 485.748 302.033 485.337 302.043C484.926 302.052 484.548 302.057 484.203 302.057C483.372 302.057 482.663 302.005 482.075 301.903C481.496 301.8 480.969 301.618 480.493 301.357C480.213 301.179 479.961 301.011 479.737 300.853C479.522 300.685 479.336 300.601 479.177 300.601C479.009 300.601 478.813 300.68 478.589 300.839C478.365 300.997 478.127 301.203 477.875 301.455C477.632 301.716 477.385 301.996 477.133 302.295L476.013 300.825C476.368 300.507 476.732 300.218 477.105 299.957C477.488 299.686 477.856 299.476 478.211 299.327C478.575 299.168 478.906 299.089 479.205 299.089ZM490.129 296.079C490.726 295.939 491.44 295.761 492.271 295.547C493.102 295.323 493.942 295.099 494.791 294.875L495.001 296.387C494.226 296.611 493.442 296.839 492.649 297.073C491.865 297.297 491.146 297.502 490.493 297.689L490.129 296.079ZM490.325 291.641H495.015V293.181H490.325V291.641ZM491.907 289.009H493.531V300.349C493.531 300.75 493.489 301.063 493.405 301.287C493.33 301.52 493.181 301.702 492.957 301.833C492.733 301.963 492.458 302.047 492.131 302.085C491.814 302.131 491.422 302.155 490.955 302.155C490.936 301.931 490.88 301.665 490.787 301.357C490.703 301.058 490.61 300.797 490.507 300.573C490.759 300.582 490.992 300.591 491.207 300.601C491.431 300.601 491.585 300.596 491.669 300.587C491.828 300.587 491.907 300.507 491.907 300.349V289.009ZM495.365 289.569H501.455V291.039H495.365V289.569ZM501.133 289.569H501.413L501.679 289.499L502.687 290.031C502.36 290.749 501.94 291.407 501.427 292.005C500.923 292.602 500.354 293.139 499.719 293.615C499.084 294.091 498.408 294.506 497.689 294.861C496.97 295.215 496.233 295.509 495.477 295.743C495.393 295.547 495.267 295.313 495.099 295.043C494.931 294.772 494.768 294.562 494.609 294.413C495.309 294.226 495.995 293.988 496.667 293.699C497.339 293.4 497.964 293.055 498.543 292.663C499.131 292.261 499.644 291.823 500.083 291.347C500.531 290.861 500.881 290.348 501.133 289.807V289.569ZM497.339 290.297C497.712 290.959 498.202 291.561 498.809 292.103C499.425 292.635 500.134 293.097 500.937 293.489C501.749 293.871 502.631 294.165 503.583 294.371C503.471 294.473 503.345 294.613 503.205 294.791C503.074 294.959 502.953 295.131 502.841 295.309C502.729 295.477 502.636 295.631 502.561 295.771C501.581 295.491 500.68 295.117 499.859 294.651C499.047 294.184 498.319 293.624 497.675 292.971C497.04 292.317 496.499 291.58 496.051 290.759L497.339 290.297ZM495.547 296.177H502.351V297.647H495.547V296.177ZM494.847 298.613H503.233V300.097H494.847V298.613ZM498.151 295.071H499.831V302.155H498.151V295.071Z" fill="#168AFF"/>
</g>
</g>
<defs>
<clipPath id="clip0_93_704">
<rect width="669" height="351" fill="white"/>
</clipPath>
<clipPath id="clip1_93_704">
<rect width="32" height="32" fill="white" transform="translate(32 32)"/>
</clipPath>
<clipPath id="clip2_93_704">
<rect width="606.586" height="81.2842" fill="white" transform="translate(31 136)"/>
</clipPath>
<clipPath id="clip3_93_704">
<rect width="112" height="48" fill="white" transform="translate(525 272.895)"/>
</clipPath>
<clipPath id="clip4_93_704">
<rect width="113.125" height="48" fill="white" transform="translate(402.765 272.895)"/>
</clipPath>
</defs>
</svg>
