<svg width="46" height="16" viewBox="0 0 46 16" fill="none" xmlns="http://www.w3.org/2000/svg">
<path d="M8.95312 6.57812C8.59219 6.57812 8.3125 6.85781 8.3125 7.20312C8.3125 7.54844 8.59219 7.82812 8.95312 7.82812C9.28281 7.82812 9.5625 7.54844 9.5625 7.20312C9.5625 6.85781 9.28281 6.57812 8.95312 6.57812ZM4.57812 6.57812C4.21719 6.57812 3.9375 6.85781 3.9375 7.20312C3.9375 7.54844 4.21719 7.82812 4.57812 7.82812C4.90781 7.82812 5.1875 7.54844 5.1875 7.20312C5.1875 6.85781 4.90781 6.57812 4.57812 6.57812Z" fill="#8F95B2"/>
<path d="M13.9689 5.39084C13.2173 4.35959 12.1673 3.67052 11.0158 3.35959V3.36115C10.7486 3.06427 10.447 2.79084 10.1095 2.54709C7.55172 0.687711 3.9611 1.2549 2.09391 3.81271C0.58922 5.89084 0.653283 8.68615 2.18766 10.6721L2.20016 12.744C2.20016 12.794 2.20797 12.844 2.2236 12.8908C2.30641 13.1549 2.58766 13.3002 2.85016 13.2174L4.82828 12.594C5.35172 12.7799 5.89235 12.8861 6.42985 12.9158L6.42203 12.9221C7.81422 13.9361 9.63922 14.2408 11.3127 13.6877L13.2986 14.3346C13.3486 14.3502 13.4002 14.3596 13.4533 14.3596C13.7298 14.3596 13.9533 14.1361 13.9533 13.8596V11.7658C15.3298 9.89709 15.3658 7.31427 13.9689 5.39084ZM5.04703 11.4846L4.85953 11.4065L3.31266 11.8908L3.29703 10.2658L3.17203 10.1252C1.85016 8.51271 1.76266 6.18927 3.00016 4.48459C4.50641 2.41896 7.39391 1.96271 9.45328 3.45334C11.5189 4.9549 11.9767 7.83771 10.4845 9.89084C9.23297 11.608 6.99235 12.2424 5.04703 11.4846ZM12.9377 11.219L12.8127 11.3752L12.8283 13.0002L11.297 12.4846L11.1095 12.5627C10.2345 12.8877 9.30172 12.9143 8.43766 12.6721L8.43453 12.6705C9.58922 12.3158 10.6361 11.5971 11.3908 10.5627C12.5845 8.9174 12.7783 6.85021 12.0845 5.08771L12.0939 5.09396C12.4533 5.35177 12.783 5.67365 13.0627 6.06271C14.197 7.61896 14.133 9.73771 12.9377 11.219Z" fill="#8F95B2"/>
<path d="M6.76562 6.57812C6.40469 6.57812 6.125 6.85781 6.125 7.20312C6.125 7.54844 6.40469 7.82812 6.76562 7.82812C7.09531 7.82812 7.375 7.54844 7.375 7.20312C7.375 6.85781 7.09531 6.57812 6.76562 6.57812Z" fill="#8F95B2"/>
<path d="M25.96 8.824V9.676H33.52V8.824H25.96ZM26.296 3.532V4.396H32.992V3.532H26.296ZM29.236 3.736V13.96H30.148V3.736H29.236ZM31.912 5.044C31.744 5.956 31.396 7.276 31.096 8.08L31.816 8.296C32.14 7.516 32.5 6.28 32.8 5.26L31.912 5.044ZM26.704 5.26C27.028 6.208 27.304 7.42 27.388 8.236L28.192 8.02C28.108 7.216 27.82 6.004 27.46 5.056L26.704 5.26ZM23.164 3.868C23.788 4.432 24.592 5.236 24.964 5.74L25.564 5.104C25.18 4.612 24.376 3.856 23.74 3.316L23.164 3.868ZM24.052 13.72C24.22 13.48 24.544 13.252 26.524 11.716C26.416 11.536 26.272 11.188 26.2 10.96L24.112 12.52L23.884 12.892L24.052 13.72ZM22.516 6.688V7.564H24.676V6.688H22.516ZM24.052 13.72C24.052 13.384 25.012 12.772 25.012 12.772V6.688H24.172V11.992C24.172 12.508 23.836 12.832 23.62 12.964C23.776 13.144 23.98 13.504 24.052 13.72ZM42.136 3.376L41.38 3.664C42.244 5.284 43.756 6.988 45.076 7.912C45.232 7.696 45.52 7.372 45.724 7.204C44.428 6.424 42.928 4.828 42.136 3.376ZM41.464 2.908C40.864 4.336 39.628 6.1 37.768 7.348C37.972 7.48 38.248 7.804 38.392 8.02C40.36 6.628 41.656 4.756 42.424 3.076L41.464 2.908ZM39.508 7.348V12.268C39.508 13.36 39.868 13.648 41.176 13.648C41.44 13.648 43.384 13.648 43.66 13.648C44.824 13.648 45.088 13.192 45.208 11.512C44.968 11.464 44.596 11.32 44.38 11.164C44.32 12.58 44.212 12.832 43.612 12.832C43.192 12.832 41.56 12.832 41.236 12.832C40.528 12.832 40.408 12.736 40.408 12.268V7.348H39.508ZM43.672 7.888C42.628 8.632 40.912 9.58 39.724 10.096L40.204 10.768C41.428 10.252 43.084 9.4 44.26 8.644L43.672 7.888ZM35.284 3.784C36.004 4.384 36.928 5.248 37.36 5.788L37.972 5.104C37.516 4.576 36.58 3.76 35.848 3.184L35.284 3.784ZM36.268 13.72C36.448 13.468 36.76 13.204 38.74 11.608C38.644 11.44 38.5 11.104 38.416 10.852L36.328 12.472L36.1 12.868L36.268 13.72ZM34.48 6.7V7.564H36.832V6.7H34.48ZM36.268 13.732C36.268 13.372 37.216 12.568 37.216 12.568V6.7H36.352V11.908C36.352 12.496 35.98 12.904 35.776 13.072C35.92 13.216 36.172 13.54 36.268 13.732Z" fill="#8F95B2"/>
</svg>
