<svg width="46" height="16" viewBox="0 0 46 16" fill="none" xmlns="http://www.w3.org/2000/svg">
<path d="M10.535 2.27922C10.4757 2.22363 10.4015 2.18659 10.3214 2.17267C10.2413 2.15874 10.1589 2.16854 10.0844 2.20084C10.0098 2.23315 9.94628 2.28657 9.90168 2.35451C9.85708 2.42245 9.83332 2.50195 9.83333 2.58322V4.40722C9.714 4.40989 9.575 4.41722 9.42 4.43122C8.90833 4.47855 8.21467 4.60655 7.49467 4.93289C6.02733 5.59789 4.51933 7.05755 4.16933 10.1196C4.1598 10.2034 4.17594 10.2881 4.21561 10.3626C4.25529 10.437 4.31663 10.4977 4.39152 10.5365C4.46641 10.5754 4.55133 10.5905 4.63504 10.5801C4.71875 10.5696 4.79731 10.534 4.86033 10.4779C6.30533 9.19322 7.65933 8.64022 8.639 8.40489C9.03038 8.30871 9.43058 8.25287 9.83333 8.23822V10.0832C9.83332 10.1645 9.85708 10.244 9.90168 10.3119C9.94628 10.3799 10.0098 10.4333 10.0844 10.4656C10.1589 10.4979 10.2413 10.5077 10.3214 10.4938C10.4015 10.4798 10.4757 10.4428 10.535 10.3872L14.535 6.63722C14.5766 6.59825 14.6097 6.55116 14.6324 6.49887C14.655 6.44659 14.6667 6.39021 14.6667 6.33322C14.6667 6.27623 14.655 6.21985 14.6324 6.16756C14.6097 6.11528 14.5766 6.06819 14.535 6.02922L10.535 2.27922ZM10.202 5.24722L10.2087 5.24789H10.2093H10.209C10.2669 5.25361 10.3253 5.24715 10.3806 5.22891C10.4358 5.21068 10.4867 5.18108 10.5298 5.14202C10.5729 5.10296 10.6073 5.0553 10.6309 5.00211C10.6545 4.94893 10.6667 4.8914 10.6667 4.83322V3.54489L13.6407 6.33322L10.6667 9.12155V7.83322C10.6667 7.62322 10.5153 7.44655 10.3017 7.41989H10.3007L10.2993 7.41955L10.296 7.41922L10.2867 7.41822C10.2412 7.41375 10.1956 7.41041 10.15 7.40822C10.0603 7.40355 9.93267 7.40089 9.772 7.40622C9.32427 7.42479 8.87951 7.488 8.44433 7.59489C7.551 7.80922 6.41133 8.25189 5.185 9.14589C5.68033 7.11922 6.806 6.15989 7.83833 5.69189C8.452 5.41389 9.05 5.30255 9.49667 5.26122C9.71933 5.24055 9.902 5.23789 10.027 5.23989C10.0854 5.24072 10.1437 5.24316 10.202 5.24722ZM4.08333 2.66655C3.5308 2.66655 3.00089 2.88605 2.61019 3.27675C2.21949 3.66745 2 4.19735 2 4.74989V11.9166C2 12.4691 2.21949 12.999 2.61019 13.3897C3.00089 13.7804 3.5308 13.9999 4.08333 13.9999H11.25C11.8025 13.9999 12.3324 13.7804 12.7231 13.3897C13.1138 12.999 13.3333 12.4691 13.3333 11.9166V11.1666C13.3333 11.056 13.2894 10.9501 13.2113 10.8719C13.1332 10.7938 13.0272 10.7499 12.9167 10.7499C12.8062 10.7499 12.7002 10.7938 12.622 10.8719C12.5439 10.9501 12.5 11.056 12.5 11.1666V11.9166C12.5 12.2481 12.3683 12.566 12.1339 12.8004C11.8995 13.0349 11.5815 13.1666 11.25 13.1666H4.08333C3.75181 13.1666 3.43387 13.0349 3.19945 12.8004C2.96503 12.566 2.83333 12.2481 2.83333 11.9166V4.74989C2.83333 4.41837 2.96503 4.10042 3.19945 3.866C3.43387 3.63158 3.75181 3.49989 4.08333 3.49989H6.83333C6.94384 3.49989 7.04982 3.45599 7.12796 3.37785C7.2061 3.29971 7.25 3.19373 7.25 3.08322C7.25 2.97271 7.2061 2.86673 7.12796 2.78859C7.04982 2.71045 6.94384 2.66655 6.83333 2.66655H4.08333Z" fill="#8F95B2"/>
<path d="M24.244 7.468V8.356H31.108V7.468H24.244ZM30.808 7.468V7.636C30.652 11.164 30.472 12.508 30.16 12.832C30.028 12.952 29.896 12.988 29.644 12.988C29.356 12.988 28.624 12.976 27.832 12.904C28 13.156 28.108 13.54 28.132 13.804C28.888 13.852 29.632 13.864 30.028 13.828C30.448 13.804 30.712 13.708 30.964 13.408C31.384 12.952 31.552 11.572 31.72 7.9C31.732 7.78 31.744 7.468 31.744 7.468H30.808ZM25.888 3.172C25.18 4.996 23.956 6.676 22.516 7.708C22.744 7.864 23.128 8.212 23.296 8.392C24.712 7.252 26.032 5.452 26.836 3.436L25.888 3.172ZM30.076 3.148L29.236 3.472C30.1 5.248 31.54 7.204 32.8 8.284C32.968 8.044 33.292 7.708 33.532 7.528C32.284 6.592 30.82 4.768 30.076 3.148ZM26.62 7.708C26.392 9.976 25.912 12.208 22.768 13.24C22.972 13.42 23.224 13.768 23.332 13.996C26.668 12.796 27.304 10.336 27.568 7.708H26.62ZM34.648 10.864V11.656H45.364V10.864H34.648ZM35.776 8.68V9.412H43.348V8.68H35.776ZM39.508 10.144V13.024C39.508 13.192 39.436 13.24 39.22 13.252C39.016 13.264 38.188 13.264 37.372 13.24C37.492 13.456 37.636 13.756 37.684 13.984C38.764 13.984 39.46 13.996 39.88 13.876C40.3 13.756 40.444 13.54 40.444 13.048V10.144H39.508ZM43.144 8.68V8.86C42.352 9.34 40.816 9.856 39.508 10.144C39.64 10.276 39.856 10.504 39.964 10.672C41.44 10.348 43.048 9.796 44.2 9.148L43.588 8.632L43.396 8.68H43.144ZM37.168 6.196H42.844V7.276H37.168V6.196ZM36.28 5.524V7.948H43.78V5.524H36.28ZM34.756 3.976V4.756H45.208V3.976H34.756ZM39.172 3.016C39.412 3.484 39.664 4.108 39.772 4.504L40.708 4.3C40.612 3.904 40.336 3.292 40.072 2.836L39.172 3.016Z" fill="#8F95B2"/>
</svg>
