<svg width="186" height="268" viewBox="0 0 186 268" fill="none" xmlns="http://www.w3.org/2000/svg">
<g filter="url(#filter0_d_140_3160)">
<rect x="16" y="8" width="154" height="236" rx="16" fill="white"/>
</g>
<path d="M17 23C17 14.1634 24.1634 7 33 7H155C163.837 7 171 14.1634 171 23V47H17V23Z" fill="#E6E8F0"/>
<path d="M50.02 28.116H59.974V30.114H50.02V28.116ZM55.924 26.082L57.382 25.074C57.646 25.266 57.91 25.488 58.174 25.74C58.45 25.98 58.702 26.226 58.93 26.478C59.17 26.73 59.35 26.97 59.47 27.198L57.922 28.296C57.73 27.972 57.442 27.606 57.058 27.198C56.686 26.778 56.308 26.406 55.924 26.082ZM55.708 29.268C56.044 30.756 56.584 32.082 57.328 33.246C58.072 34.398 59.08 35.244 60.352 35.784C60.196 35.916 60.028 36.084 59.848 36.288C59.68 36.492 59.518 36.702 59.362 36.918C59.206 37.146 59.08 37.356 58.984 37.548C58.072 37.056 57.292 36.426 56.644 35.658C56.008 34.878 55.474 33.978 55.042 32.958C54.622 31.938 54.28 30.81 54.016 29.574L55.708 29.268ZM44.008 21.96H60.028V23.886H44.008V21.96ZM47.878 20.7H50.02V25.092H47.878V20.7ZM54.052 20.7H56.212V24.912H54.052V20.7ZM53.728 25.254H55.744V28.044C55.744 28.788 55.69 29.58 55.582 30.42C55.474 31.248 55.252 32.088 54.916 32.94C54.592 33.78 54.112 34.608 53.476 35.424C52.852 36.228 52.018 36.972 50.974 37.656C50.794 37.428 50.548 37.182 50.236 36.918C49.924 36.654 49.642 36.432 49.39 36.252C50.35 35.616 51.118 34.944 51.694 34.236C52.282 33.528 52.72 32.814 53.008 32.094C53.296 31.362 53.488 30.654 53.584 29.97C53.68 29.274 53.728 28.626 53.728 28.026V25.254ZM44.422 26.01L45.826 24.894C46.69 25.422 47.386 25.974 47.914 26.55C48.442 27.126 48.838 27.726 49.102 28.35C49.378 28.962 49.558 29.598 49.642 30.258C49.738 30.906 49.786 31.566 49.786 32.238C49.786 33.234 49.708 34.128 49.552 34.92C49.408 35.712 49.126 36.33 48.706 36.774C48.442 37.086 48.088 37.284 47.644 37.368C47.296 37.44 46.942 37.482 46.582 37.494C46.222 37.506 45.826 37.506 45.394 37.494C45.382 37.182 45.322 36.858 45.214 36.522C45.118 36.198 44.98 35.904 44.8 35.64C45.7 35.7 46.342 35.7 46.726 35.64C46.858 35.628 46.966 35.598 47.05 35.55C47.134 35.502 47.212 35.436 47.284 35.352C47.464 35.112 47.59 34.722 47.662 34.182C47.746 33.63 47.788 32.934 47.788 32.094C47.788 31.302 47.698 30.546 47.518 29.826C47.338 29.106 47.002 28.428 46.51 27.792C46.018 27.156 45.322 26.562 44.422 26.01ZM47.536 29.628L48.994 30.528C48.682 30.972 48.292 31.434 47.824 31.914C47.356 32.382 46.852 32.826 46.312 33.246C45.784 33.666 45.268 34.026 44.764 34.326C44.632 34.074 44.446 33.798 44.206 33.498C43.966 33.198 43.738 32.952 43.522 32.76C44.002 32.544 44.5 32.274 45.016 31.95C45.532 31.614 46.012 31.242 46.456 30.834C46.9 30.426 47.26 30.024 47.536 29.628ZM48.436 25.146L50.182 26.1C49.726 26.616 49.204 27.114 48.616 27.594C48.04 28.074 47.422 28.512 46.762 28.908C46.102 29.304 45.448 29.658 44.8 29.97C44.656 29.754 44.458 29.508 44.206 29.232C43.954 28.944 43.726 28.71 43.522 28.53C44.158 28.266 44.782 27.954 45.394 27.594C46.006 27.222 46.57 26.826 47.086 26.406C47.614 25.986 48.064 25.566 48.436 25.146ZM70.18 22.59H76.606V24.624H70.18V22.59ZM75.976 22.59H76.318L76.678 22.518L78.028 22.878C77.776 25.35 77.344 27.534 76.732 29.43C76.12 31.314 75.328 32.928 74.356 34.272C73.396 35.616 72.256 36.738 70.936 37.638C70.78 37.374 70.57 37.08 70.306 36.756C70.054 36.444 69.814 36.198 69.586 36.018C70.738 35.322 71.752 34.356 72.628 33.12C73.516 31.872 74.242 30.396 74.806 28.692C75.382 26.988 75.772 25.104 75.976 23.04V22.59ZM72.628 24.138C72.892 25.842 73.276 27.45 73.78 28.962C74.284 30.474 74.932 31.818 75.724 32.994C76.516 34.17 77.482 35.112 78.622 35.82C78.478 35.94 78.31 36.096 78.118 36.288C77.938 36.492 77.758 36.696 77.578 36.9C77.41 37.116 77.272 37.314 77.164 37.494C75.94 36.654 74.908 35.592 74.068 34.308C73.24 33.012 72.562 31.536 72.034 29.88C71.518 28.224 71.092 26.412 70.756 24.444L72.628 24.138ZM61.81 21.42H70.054V23.346H61.81V21.42ZM63.952 25.2H68.326V27.036H63.952V25.2ZM63.934 28.998H68.434V30.834H63.934V28.998ZM62.8 22.554H64.87V33.966L62.8 34.182V22.554ZM61.612 33.318C62.344 33.234 63.19 33.132 64.15 33.012C65.11 32.88 66.124 32.736 67.192 32.58C68.272 32.412 69.34 32.256 70.396 32.112L70.504 33.912C69.52 34.092 68.524 34.272 67.516 34.452C66.508 34.632 65.536 34.8 64.6 34.956C63.676 35.112 62.824 35.256 62.044 35.388L61.612 33.318ZM66.886 22.518H68.992V37.584H66.886V22.518ZM78.928 36L83.194 22.662H86.344L90.61 36H87.802L85.912 29.052C85.708 28.356 85.51 27.636 85.318 26.892C85.138 26.136 84.946 25.404 84.742 24.696H84.67C84.502 25.416 84.316 26.148 84.112 26.892C83.92 27.636 83.728 28.356 83.536 29.052L81.628 36H78.928ZM81.574 32.58V30.51H87.91V32.58H81.574ZM92.1693 36V22.662H94.8333V36H92.1693ZM102.485 24.534H113.537V26.136H102.485V24.534ZM103.259 29.538H112.745V31.05H103.259V29.538ZM102.557 31.95H113.321V33.588H102.557V31.95ZM106.499 20.718H108.551V34.812H106.499V20.718ZM103.457 22.05H112.547V28.674H103.367V27.036H110.639V23.67H103.457V22.05ZM97.4807 21.69H101.567V23.58H97.4807V21.69ZM98.9927 26.838H101.549V28.71H98.9387L98.9927 26.838ZM100.793 26.838H101.171L101.549 26.784L102.755 27.072C102.515 29.76 102.035 31.968 101.315 33.696C100.607 35.424 99.6587 36.732 98.4707 37.62C98.3747 37.476 98.2307 37.308 98.0387 37.116C97.8467 36.936 97.6487 36.762 97.4447 36.594C97.2407 36.426 97.0667 36.294 96.9227 36.198C98.0507 35.43 98.9327 34.308 99.5687 32.832C100.205 31.356 100.613 29.478 100.793 27.198V26.838ZM99.0647 29.736C99.4127 30.936 99.8687 31.908 100.433 32.652C100.997 33.384 101.657 33.948 102.413 34.344C103.169 34.728 104.009 34.992 104.933 35.136C105.857 35.268 106.853 35.334 107.921 35.334C108.125 35.334 108.419 35.334 108.803 35.334C109.199 35.334 109.637 35.334 110.117 35.334C110.597 35.334 111.083 35.334 111.575 35.334C112.067 35.322 112.517 35.316 112.925 35.316C113.345 35.304 113.681 35.298 113.933 35.298C113.837 35.442 113.735 35.634 113.627 35.874C113.531 36.102 113.441 36.336 113.357 36.576C113.273 36.828 113.207 37.056 113.159 37.26H112.205H107.849C106.565 37.26 105.383 37.17 104.303 36.99C103.235 36.81 102.269 36.474 101.405 35.982C100.541 35.49 99.7787 34.788 99.1187 33.876C98.4707 32.952 97.9247 31.752 97.4807 30.276L99.0647 29.736ZM98.1107 29.52C98.0627 29.388 97.9847 29.22 97.8767 29.016C97.7807 28.8 97.6787 28.59 97.5707 28.386C97.4627 28.17 97.3607 27.996 97.2647 27.864C97.4567 27.816 97.6667 27.678 97.8947 27.45C98.1347 27.222 98.3447 26.958 98.5247 26.658C98.6567 26.454 98.8547 26.106 99.1187 25.614C99.3947 25.11 99.6827 24.528 99.9827 23.868C100.295 23.196 100.565 22.512 100.793 21.816V21.726L101.549 21.42L102.845 22.284C102.353 23.46 101.813 24.588 101.225 25.668C100.637 26.748 100.073 27.678 99.5327 28.458V28.494C99.5327 28.494 99.4607 28.53 99.3167 28.602C99.1727 28.662 99.0047 28.746 98.8127 28.854C98.6207 28.962 98.4527 29.076 98.3087 29.196C98.1767 29.316 98.1107 29.424 98.1107 29.52ZM122.897 22.086C123.269 24.294 123.815 26.31 124.535 28.134C125.267 29.946 126.257 31.506 127.505 32.814C128.753 34.11 130.325 35.106 132.221 35.802C132.065 35.946 131.885 36.132 131.681 36.36C131.489 36.588 131.303 36.816 131.123 37.044C130.955 37.284 130.817 37.506 130.709 37.71C129.197 37.086 127.895 36.294 126.803 35.334C125.711 34.362 124.787 33.234 124.031 31.95C123.275 30.654 122.645 29.214 122.141 27.63C121.637 26.034 121.223 24.294 120.899 22.41L122.897 22.086ZM123.959 21.546L125.795 20.826C126.023 21.246 126.245 21.696 126.461 22.176C126.677 22.644 126.869 23.106 127.037 23.562C127.205 24.018 127.325 24.426 127.397 24.786L125.399 25.614C125.351 25.254 125.249 24.846 125.093 24.39C124.937 23.922 124.763 23.442 124.571 22.95C124.379 22.446 124.175 21.978 123.959 21.546ZM128.927 21.942L131.141 22.284C130.865 23.952 130.499 25.56 130.043 27.108C129.599 28.656 129.005 30.102 128.261 31.446C127.529 32.778 126.599 33.99 125.471 35.082C124.355 36.162 122.981 37.08 121.349 37.836C121.265 37.656 121.145 37.452 120.989 37.224C120.845 37.008 120.695 36.792 120.539 36.576C120.383 36.36 120.233 36.174 120.089 36.018C121.601 35.382 122.873 34.578 123.905 33.606C124.937 32.634 125.783 31.536 126.443 30.312C127.103 29.076 127.625 27.756 128.009 26.352C128.405 24.936 128.711 23.466 128.927 21.942ZM116.093 22.14L117.659 21.024C117.911 21.312 118.175 21.636 118.451 21.996C118.739 22.344 119.003 22.692 119.243 23.04C119.495 23.376 119.687 23.682 119.819 23.958L118.163 25.218C118.031 24.942 117.851 24.624 117.623 24.264C117.395 23.904 117.143 23.538 116.867 23.166C116.603 22.794 116.345 22.452 116.093 22.14ZM117.569 37.296L117.119 35.334L117.569 34.65L121.295 32.004C121.367 32.304 121.469 32.64 121.601 33.012C121.733 33.372 121.847 33.66 121.943 33.876C121.079 34.5 120.377 35.01 119.837 35.406C119.309 35.802 118.895 36.12 118.595 36.36C118.295 36.6 118.067 36.786 117.911 36.918C117.767 37.062 117.653 37.188 117.569 37.296ZM115.157 26.244H119.135V28.314H115.157V26.244ZM117.569 37.296C117.497 37.14 117.389 36.966 117.245 36.774C117.101 36.594 116.951 36.414 116.795 36.234C116.639 36.054 116.501 35.91 116.381 35.802C116.585 35.622 116.789 35.352 116.993 34.992C117.209 34.632 117.317 34.2 117.317 33.696V26.244H119.423V34.812C119.423 34.812 119.357 34.872 119.225 34.992C119.105 35.112 118.949 35.268 118.757 35.46C118.577 35.652 118.391 35.856 118.199 36.072C118.019 36.3 117.869 36.516 117.749 36.72C117.629 36.936 117.569 37.128 117.569 37.296Z" fill="#081735"/>
<path fill-rule="evenodd" clip-rule="evenodd" d="M59.3124 72.4277C59.3427 72.3149 59.2125 72.2197 59.076 72.255L56.1913 73.0009C56.0527 73.0367 56.0118 73.1798 56.1179 73.2573L56.8854 73.8179C56.2721 74.0862 56.028 74.6116 55.8457 75.0041L55.8457 75.0042C55.8272 75.0439 55.8094 75.0824 55.7918 75.119C55.5765 75.569 55.3638 75.9254 54.8138 76.1337C54.5244 76.2433 54.1846 76.2162 53.7278 76.0502C53.295 75.8928 52.8361 75.6409 52.3112 75.3528L52.3112 75.3528L52.1714 75.2761C51.613 74.9702 50.9842 74.6339 50.3403 74.4372C49.6795 74.2352 48.9667 74.1686 48.2658 74.4341C47.5547 74.7034 47.1643 75.2197 46.9412 75.7864C46.722 76.3432 46.6491 76.9874 46.5996 77.5713C46.5903 77.6814 46.5817 77.7888 46.5735 77.8936L46.5734 77.8936C46.5358 78.3689 46.5026 78.7885 46.417 79.14C46.3109 79.5754 46.1563 79.758 45.9835 79.8235C45.6499 79.9498 45.4027 79.9814 45.2034 79.9785C44.9962 79.9756 44.8126 79.9361 44.5678 79.8805L44.5453 79.8754C44.3133 79.8226 44.0211 79.756 43.685 79.7493C43.3285 79.7421 42.9478 79.8013 42.51 79.9671C41.5765 80.3207 41.076 81.0979 40.8097 81.7143C40.6731 82.0305 40.5891 82.3254 40.539 82.5411C40.5139 82.6494 40.497 82.7388 40.4863 82.8024C40.481 82.8343 40.4771 82.8597 40.4746 82.8779L40.4716 82.8996L40.4708 82.9062L40.4705 82.9084L40.4704 82.9093L40.4703 82.9096C40.4703 82.9098 40.4703 82.9099 40.9678 83.0002L40.4703 82.9099C40.4405 83.1622 40.653 83.4096 40.9449 83.4625C41.2366 83.5155 41.4973 83.354 41.5272 83.1019L41.5272 83.1017L41.5274 83.1003L41.5291 83.0878C41.5308 83.076 41.5336 83.0573 41.5378 83.0325C41.5461 82.9828 41.5599 82.9091 41.5811 82.8181C41.6235 82.6352 41.6946 82.3866 41.8084 82.1232C42.0428 81.5804 42.424 81.0542 43.0142 80.8307C43.3382 80.708 43.5781 80.6786 43.7726 80.6825C43.9765 80.6866 44.1576 80.7265 44.4056 80.7829L44.4154 80.7851L44.4154 80.7851C44.6007 80.8273 44.8236 80.8779 45.0778 80.9004C45.1487 80.9067 45.2222 80.9108 45.2979 80.9118C45.6577 80.917 46.0432 80.8554 46.4876 80.6871C47.0928 80.4579 47.3355 79.9244 47.4571 79.4251C47.5591 79.0065 47.5982 78.5075 47.6355 78.0307C47.6433 77.9316 47.651 77.8334 47.6591 77.7372C47.7088 77.1523 47.7762 76.612 47.9495 76.1718C48.119 75.7414 48.3732 75.4479 48.7699 75.2977C49.1768 75.1436 49.604 75.1676 50.0883 75.3157C50.5896 75.4689 51.1108 75.7419 51.6802 76.0539L51.8333 76.1379C52.3361 76.4144 52.8822 76.7147 53.4128 76.9076C54.0118 77.1254 54.6782 77.2396 55.318 76.9973C56.2157 76.6573 56.5454 76.0415 56.7782 75.555L56.802 75.5051C57.0357 75.016 57.1541 74.7683 57.4729 74.6476C57.5902 74.6032 57.6741 74.5227 57.7177 74.4258L58.3623 74.8966C58.4684 74.9742 58.6412 74.9274 58.672 74.8129L59.3124 72.4277Z" fill="#3F8CFF"/>
<path d="M71.914 71.166H80.104V72.622H71.914V71.166ZM71.424 76.388H80.566V77.886H71.424V76.388ZM72.432 78.712H79.67V83.808H77.99V80.154H74.028V83.85H72.432V78.712ZM73.272 81.946H78.718V83.388H73.272V81.946ZM74.644 71.726L76.324 71.894C76.212 72.482 76.086 73.112 75.946 73.784C75.8153 74.4467 75.68 75.086 75.54 75.702C75.4093 76.318 75.2833 76.8547 75.162 77.312H73.44C73.5427 76.948 73.6453 76.5373 73.748 76.08C73.86 75.6227 73.972 75.1467 74.084 74.652C74.196 74.148 74.2987 73.6487 74.392 73.154C74.4853 72.65 74.5693 72.174 74.644 71.726ZM72.39 73.686H78.074V75.114H72.39V73.686ZM77.654 73.686H77.822L78.074 73.616L79.25 73.7C79.2313 74.2973 79.194 74.904 79.138 75.52C79.082 76.1267 79.026 76.6867 78.97 77.2L77.402 77.088C77.4393 76.7333 77.4767 76.3553 77.514 75.954C77.5513 75.5527 77.5793 75.17 77.598 74.806C77.626 74.4327 77.6447 74.1153 77.654 73.854V73.686ZM68.078 71.936L69.156 70.914C69.408 71.1193 69.6787 71.3527 69.968 71.614C70.2667 71.866 70.5467 72.118 70.808 72.37C71.0693 72.622 71.2747 72.8507 71.424 73.056L70.276 74.218C70.1267 74.0033 69.9307 73.7653 69.688 73.504C69.4453 73.2333 69.1793 72.9627 68.89 72.692C68.61 72.412 68.3393 72.16 68.078 71.936ZM67.49 75.002H70.038V76.612H67.49V75.002ZM69.352 83.668L69.044 82.17L69.422 81.638L72.096 79.86C72.1427 80.084 72.2033 80.3407 72.278 80.63C72.362 80.91 72.4367 81.134 72.502 81.302C71.8953 81.7313 71.396 82.086 71.004 82.366C70.6213 82.6367 70.318 82.8513 70.094 83.01C69.8793 83.178 69.716 83.3087 69.604 83.402C69.5013 83.5047 69.4173 83.5933 69.352 83.668ZM69.352 83.668C69.3053 83.5373 69.2307 83.3787 69.128 83.192C69.0347 83.0053 68.932 82.8233 68.82 82.646C68.708 82.478 68.6053 82.338 68.512 82.226C68.652 82.114 68.792 81.946 68.932 81.722C69.0813 81.498 69.156 81.232 69.156 80.924V75.002H70.724V82.128C70.724 82.128 70.654 82.1793 70.514 82.282C70.374 82.3847 70.2153 82.5153 70.038 82.674C69.8607 82.842 69.702 83.01 69.562 83.178C69.422 83.3553 69.352 83.5187 69.352 83.668ZM84.542 81.988H91.584V83.36H84.542V81.988ZM83.59 77.032H92.536V78.348H83.59V77.032ZM83.59 74.834H92.536V76.164H83.59V74.834ZM81.644 72.608H94.398V74.022H81.644V72.608ZM83.422 79.314H92.69V83.808H90.954V80.714H85.074V83.85H83.422V79.314ZM86.516 71.054L88.196 70.634C88.4387 70.942 88.6767 71.2873 88.91 71.67C89.1433 72.0527 89.316 72.3933 89.428 72.692L87.636 73.14C87.552 72.8693 87.4027 72.538 87.188 72.146C86.9733 71.7447 86.7493 71.3807 86.516 71.054ZM99.984 76.276H108.244V77.802H99.984V76.276ZM98.458 74.792L100.054 75.324C99.7553 75.9213 99.41 76.5187 99.018 77.116C98.6353 77.704 98.22 78.2593 97.772 78.782C97.3333 79.2953 96.89 79.7433 96.442 80.126C96.3767 80.0047 96.2787 79.8553 96.148 79.678C96.0173 79.4913 95.882 79.3047 95.742 79.118C95.602 78.9313 95.476 78.782 95.364 78.67C95.7653 78.362 96.1573 78.0027 96.54 77.592C96.9227 77.172 97.2773 76.724 97.604 76.248C97.94 75.772 98.2247 75.2867 98.458 74.792ZM104.996 74.932H106.648V81.988C106.648 82.436 106.592 82.7767 106.48 83.01C106.368 83.2527 106.163 83.4393 105.864 83.57C105.565 83.6913 105.192 83.766 104.744 83.794C104.296 83.8313 103.764 83.85 103.148 83.85C103.12 83.6073 103.05 83.3273 102.938 83.01C102.835 82.702 102.728 82.4407 102.616 82.226C102.896 82.2353 103.176 82.2447 103.456 82.254C103.736 82.254 103.983 82.254 104.198 82.254C104.413 82.254 104.562 82.254 104.646 82.254C104.777 82.2447 104.865 82.2213 104.912 82.184C104.968 82.1467 104.996 82.072 104.996 81.96V74.932ZM97.422 71.908H101.762V73.308H97.422V71.908ZM102.952 71.908H108.272V73.308H102.952V71.908ZM97.408 70.634L99.018 71.054C98.8407 71.558 98.626 72.062 98.374 72.566C98.122 73.07 97.856 73.5413 97.576 73.98C97.296 74.4187 97.0113 74.8013 96.722 75.128C96.6193 75.044 96.4793 74.946 96.302 74.834C96.134 74.7127 95.9613 74.596 95.784 74.484C95.6067 74.372 95.448 74.2833 95.308 74.218C95.7467 73.7887 96.1527 73.252 96.526 72.608C96.8993 71.964 97.1933 71.306 97.408 70.634ZM103.106 70.634L104.702 71.026C104.441 71.8007 104.1 72.5427 103.68 73.252C103.26 73.9613 102.821 74.554 102.364 75.03C102.252 74.946 102.112 74.848 101.944 74.736C101.776 74.6147 101.603 74.498 101.426 74.386C101.249 74.2647 101.095 74.1713 100.964 74.106C101.431 73.6953 101.851 73.182 102.224 72.566C102.607 71.95 102.901 71.306 103.106 70.634ZM98.066 73.028L99.48 72.594C99.6573 72.8927 99.8533 73.2333 100.068 73.616C100.283 73.9893 100.446 74.3067 100.558 74.568L99.074 75.086C98.9713 74.8247 98.822 74.498 98.626 74.106C98.43 73.714 98.2433 73.3547 98.066 73.028ZM104.1 73.028L105.486 72.496C105.682 72.7667 105.897 73.0747 106.13 73.42C106.373 73.756 106.564 74.0407 106.704 74.274L105.234 74.876C105.113 74.6333 104.94 74.3393 104.716 73.994C104.492 73.6393 104.287 73.3173 104.1 73.028ZM100.418 79.034L101.748 78.292C101.944 78.5627 102.154 78.8567 102.378 79.174C102.611 79.482 102.831 79.7853 103.036 80.084C103.241 80.3733 103.409 80.63 103.54 80.854L102.14 81.722C102.019 81.4887 101.86 81.218 101.664 80.91C101.468 80.602 101.258 80.2847 101.034 79.958C100.81 79.622 100.605 79.314 100.418 79.034ZM97.548 77.424L99.13 75.842L99.158 75.856V83.85H97.548V77.424ZM113.088 72.664V73.966H118.8V72.664H113.088ZM111.408 71.194H120.592V75.422H111.408V71.194ZM109.742 76.304H122.202V77.83H109.742V76.304ZM112.5 78.866H119.346V80.392H112.5V78.866ZM118.842 78.866H120.662C120.662 78.866 120.657 78.9127 120.648 79.006C120.639 79.09 120.625 79.188 120.606 79.3C120.597 79.4027 120.587 79.4913 120.578 79.566C120.485 80.2847 120.382 80.8913 120.27 81.386C120.167 81.8807 120.046 82.2773 119.906 82.576C119.775 82.8747 119.626 83.1033 119.458 83.262C119.253 83.458 119.029 83.5887 118.786 83.654C118.543 83.7287 118.254 83.7753 117.918 83.794C117.647 83.8033 117.297 83.808 116.868 83.808C116.439 83.8173 115.981 83.808 115.496 83.78C115.477 83.5373 115.412 83.2667 115.3 82.968C115.197 82.6693 115.067 82.408 114.908 82.184C115.384 82.2213 115.851 82.2493 116.308 82.268C116.765 82.2773 117.101 82.282 117.316 82.282C117.475 82.282 117.605 82.2773 117.708 82.268C117.811 82.2493 117.904 82.212 117.988 82.156C118.119 82.0627 118.231 81.8947 118.324 81.652C118.427 81.4093 118.52 81.078 118.604 80.658C118.688 80.2287 118.767 79.706 118.842 79.09V78.866ZM112.654 76.892L114.46 77.144C114.357 77.508 114.241 77.8907 114.11 78.292C113.989 78.684 113.867 79.062 113.746 79.426C113.625 79.79 113.508 80.112 113.396 80.392H111.464C111.595 80.084 111.73 79.7293 111.87 79.328C112.01 78.9267 112.145 78.516 112.276 78.096C112.416 77.676 112.542 77.2747 112.654 76.892Z" fill="#3F8CFF"/>
<path fill-rule="evenodd" clip-rule="evenodd" d="M59.3124 108.673C59.3427 108.56 59.2125 108.465 59.076 108.501L56.1913 109.246C56.0527 109.282 56.0118 109.425 56.1179 109.503L56.8854 110.064C56.2721 110.332 56.028 110.857 55.8457 111.25L55.8457 111.25C55.8272 111.29 55.8094 111.328 55.7918 111.365C55.5765 111.815 55.3638 112.171 54.8138 112.379C54.5244 112.489 54.1846 112.462 53.7278 112.296C53.295 112.138 52.8361 111.887 52.3112 111.598L52.3112 111.598L52.1714 111.522C51.613 111.216 50.9842 110.88 50.3403 110.683C49.6795 110.481 48.9667 110.414 48.2658 110.68C47.5547 110.949 47.1643 111.465 46.9412 112.032C46.722 112.589 46.6491 113.233 46.5996 113.817C46.5903 113.927 46.5817 114.034 46.5735 114.139L46.5734 114.139C46.5358 114.615 46.5026 115.034 46.417 115.386C46.3109 115.821 46.1563 116.004 45.9835 116.069C45.6499 116.195 45.4027 116.227 45.2034 116.224C44.9962 116.221 44.8126 116.182 44.5678 116.126L44.5453 116.121C44.3133 116.068 44.0211 116.002 43.685 115.995C43.3285 115.988 42.9478 116.047 42.51 116.213C41.5765 116.566 41.076 117.344 40.8097 117.96C40.6731 118.276 40.5891 118.571 40.539 118.787C40.5139 118.895 40.497 118.984 40.4863 119.048C40.481 119.08 40.4771 119.105 40.4746 119.123L40.4716 119.145L40.4708 119.152L40.4705 119.154L40.4704 119.155L40.4703 119.155C40.4703 119.155 40.4703 119.156 40.9678 119.246L40.4703 119.156C40.4405 119.408 40.653 119.655 40.9449 119.708C41.2366 119.761 41.4973 119.6 41.5272 119.348L41.5272 119.347L41.5274 119.346L41.5291 119.333C41.5308 119.322 41.5336 119.303 41.5378 119.278C41.5461 119.228 41.5599 119.155 41.5811 119.064C41.6235 118.881 41.6946 118.632 41.8084 118.369C42.0428 117.826 42.424 117.3 43.0142 117.076C43.3382 116.954 43.5781 116.924 43.7726 116.928C43.9765 116.932 44.1576 116.972 44.4056 117.028L44.4154 117.031L44.4154 117.031C44.6007 117.073 44.8236 117.124 45.0778 117.146C45.1487 117.152 45.2222 117.156 45.2979 117.157C45.6577 117.163 46.0432 117.101 46.4876 116.933C47.0928 116.703 47.3355 116.17 47.4571 115.671C47.5591 115.252 47.5982 114.753 47.6355 114.276C47.6433 114.177 47.651 114.079 47.6591 113.983C47.7088 113.398 47.7762 112.858 47.9495 112.417C48.119 111.987 48.3732 111.694 48.7699 111.543C49.1768 111.389 49.604 111.413 50.0883 111.561C50.5896 111.714 51.1108 111.988 51.6802 112.299L51.8333 112.384C52.3361 112.66 52.8822 112.96 53.4128 113.153C54.0118 113.371 54.6782 113.485 55.318 113.243C56.2157 112.903 56.5454 112.287 56.7782 111.801L56.802 111.751C57.0357 111.262 57.1541 111.014 57.4729 110.893C57.5902 110.849 57.6741 110.768 57.7177 110.671L58.3623 111.142C58.4684 111.22 58.6412 111.173 58.672 111.058L59.3124 108.673Z" fill="#6C5DD3"/>
<path d="M76.8 112.606H78.536V120.082H76.8V112.606ZM72.964 112.634H74.672V114.566C74.672 114.986 74.644 115.439 74.588 115.924C74.532 116.409 74.42 116.904 74.252 117.408C74.084 117.912 73.8413 118.402 73.524 118.878C73.2067 119.363 72.7913 119.811 72.278 120.222C72.1473 120.035 71.9607 119.825 71.718 119.592C71.4753 119.368 71.2467 119.186 71.032 119.046C71.48 118.719 71.83 118.36 72.082 117.968C72.3433 117.576 72.5347 117.175 72.656 116.764C72.7867 116.353 72.8707 115.957 72.908 115.574C72.9453 115.191 72.964 114.851 72.964 114.552V112.634ZM76.38 107.468C76.6693 108.037 77.0427 108.602 77.5 109.162C77.9573 109.713 78.4613 110.221 79.012 110.688C79.572 111.145 80.1413 111.528 80.72 111.836C80.5987 111.939 80.4633 112.069 80.314 112.228C80.174 112.387 80.034 112.555 79.894 112.732C79.7633 112.9 79.6513 113.054 79.558 113.194C78.942 112.821 78.3493 112.363 77.78 111.822C77.2107 111.281 76.6833 110.683 76.198 110.03C75.722 109.367 75.3067 108.681 74.952 107.972L76.38 107.468ZM75.106 106.922L76.87 107.216C76.562 108 76.17 108.765 75.694 109.512C75.2273 110.249 74.6533 110.945 73.972 111.598C73.2907 112.251 72.4787 112.844 71.536 113.376C71.48 113.236 71.3913 113.077 71.27 112.9C71.158 112.723 71.032 112.555 70.892 112.396C70.7613 112.228 70.64 112.093 70.528 111.99C71.368 111.551 72.0867 111.057 72.684 110.506C73.2907 109.955 73.79 109.372 74.182 108.756C74.574 108.14 74.882 107.529 75.106 106.922ZM70.444 106.964L72.026 107.454C71.7273 108.247 71.3773 109.045 70.976 109.848C70.584 110.641 70.1547 111.393 69.688 112.102C69.2213 112.811 68.736 113.437 68.232 113.978C68.1853 113.838 68.106 113.661 67.994 113.446C67.8913 113.222 67.7793 112.998 67.658 112.774C67.5367 112.55 67.4293 112.368 67.336 112.228C67.7467 111.799 68.1433 111.304 68.526 110.744C68.918 110.184 69.2773 109.582 69.604 108.938C69.9307 108.294 70.2107 107.636 70.444 106.964ZM68.988 110.884L70.668 109.204L70.682 109.218V120.096H68.988V110.884ZM85.69 108.238H94.23V109.666H85.69V108.238ZM85.074 118.43H94.552V119.844H85.074V118.43ZM86.292 110.632H93.474V118.696H91.934V111.864H87.762V118.696H86.292V110.632ZM87.398 112.62H92.2V113.782H87.398V112.62ZM87.356 114.566H92.578V115.7H87.356V114.566ZM87.328 116.484H92.228V117.632H87.328V116.484ZM89.19 106.978L90.968 107.034C90.8933 107.529 90.8047 108.033 90.702 108.546C90.5993 109.05 90.4967 109.531 90.394 109.988C90.2913 110.445 90.1887 110.847 90.086 111.192L88.63 111.08C88.714 110.707 88.7933 110.282 88.868 109.806C88.9427 109.33 89.008 108.845 89.064 108.35C89.1293 107.855 89.1713 107.398 89.19 106.978ZM84.304 106.992L85.858 107.496C85.5687 108.28 85.228 109.073 84.836 109.876C84.444 110.669 84.0193 111.421 83.562 112.13C83.114 112.839 82.6473 113.465 82.162 114.006C82.1153 113.866 82.036 113.689 81.924 113.474C81.8213 113.25 81.714 113.026 81.602 112.802C81.49 112.578 81.3827 112.396 81.28 112.256C81.6813 111.836 82.0687 111.346 82.442 110.786C82.8247 110.217 83.1747 109.61 83.492 108.966C83.8093 108.322 84.08 107.664 84.304 106.992ZM82.932 110.884L84.472 109.302L84.486 109.316V120.096H82.932V110.884ZM101.3 107.58H108.034V115.042H106.382V109.05H102.896V115.042H101.3V107.58ZM104.422 115.042H105.976V118.164C105.976 118.351 105.999 118.477 106.046 118.542C106.102 118.607 106.195 118.64 106.326 118.64H106.9C107.003 118.64 107.087 118.584 107.152 118.472C107.217 118.351 107.259 118.131 107.278 117.814C107.306 117.487 107.329 117.021 107.348 116.414C107.535 116.563 107.749 116.689 107.992 116.792C108.235 116.895 108.454 116.969 108.65 117.016C108.603 117.744 108.533 118.318 108.44 118.738C108.347 119.149 108.183 119.438 107.95 119.606C107.717 119.783 107.362 119.872 106.886 119.872H105.99C105.439 119.872 105.038 119.765 104.786 119.55C104.543 119.335 104.422 118.934 104.422 118.346V115.042ZM103.834 109.904H105.402V112.13C105.402 112.755 105.341 113.427 105.22 114.146C105.108 114.855 104.893 115.574 104.576 116.302C104.268 117.03 103.82 117.721 103.232 118.374C102.644 119.018 101.879 119.592 100.936 120.096C100.871 119.975 100.773 119.835 100.642 119.676C100.521 119.527 100.39 119.377 100.25 119.228C100.11 119.079 99.984 118.967 99.872 118.892C100.768 118.425 101.477 117.912 102 117.352C102.532 116.792 102.929 116.213 103.19 115.616C103.451 115.009 103.624 114.407 103.708 113.81C103.792 113.203 103.834 112.634 103.834 112.102V109.904ZM95.644 107.986H99.83V109.596H95.644V107.986ZM99.27 107.986H99.55L99.844 107.93L100.922 108.266C100.745 109.965 100.46 111.533 100.068 112.97C99.676 114.398 99.1813 115.672 98.584 116.792C97.996 117.912 97.2913 118.864 96.47 119.648C96.386 119.517 96.274 119.368 96.134 119.2C95.994 119.041 95.8447 118.887 95.686 118.738C95.5273 118.589 95.378 118.463 95.238 118.36C95.7793 117.893 96.2693 117.305 96.708 116.596C97.156 115.887 97.5527 115.093 97.898 114.216C98.2433 113.339 98.5327 112.405 98.766 111.416C98.9993 110.427 99.1673 109.414 99.27 108.378V107.986ZM95.658 111.458L96.876 110.604C97.2587 111.099 97.6553 111.626 98.066 112.186C98.4767 112.746 98.8687 113.311 99.242 113.88C99.6153 114.449 99.956 115 100.264 115.532C100.572 116.055 100.819 116.535 101.006 116.974L99.62 118.024C99.452 117.576 99.2233 117.081 98.934 116.54C98.6447 115.999 98.318 115.434 97.954 114.846C97.59 114.258 97.2073 113.675 96.806 113.096C96.414 112.517 96.0313 111.971 95.658 111.458ZM111.352 111.822H119.108V113.25H111.352V111.822ZM118.716 111.822H119.066L119.332 111.766L120.452 112.466C120.247 112.802 119.99 113.152 119.682 113.516C119.374 113.871 119.047 114.216 118.702 114.552C118.366 114.879 118.039 115.168 117.722 115.42C117.563 115.289 117.358 115.145 117.106 114.986C116.863 114.818 116.653 114.683 116.476 114.58C116.765 114.356 117.055 114.099 117.344 113.81C117.643 113.511 117.913 113.213 118.156 112.914C118.399 112.615 118.585 112.354 118.716 112.13V111.822ZM116.434 107.356C116.77 107.673 117.176 107.986 117.652 108.294C118.128 108.602 118.641 108.896 119.192 109.176C119.752 109.456 120.326 109.708 120.914 109.932C121.502 110.156 122.076 110.347 122.636 110.506C122.505 110.618 122.37 110.758 122.23 110.926C122.09 111.094 121.955 111.267 121.824 111.444C121.693 111.621 121.586 111.78 121.502 111.92C120.951 111.733 120.382 111.5 119.794 111.22C119.215 110.94 118.641 110.632 118.072 110.296C117.503 109.96 116.961 109.605 116.448 109.232C115.944 108.859 115.491 108.471 115.09 108.07L116.434 107.356ZM114.502 110.52L115.51 109.596C115.865 109.783 116.229 110.011 116.602 110.282C116.975 110.553 117.26 110.809 117.456 111.052L116.378 112.06C116.191 111.817 115.921 111.551 115.566 111.262C115.211 110.963 114.857 110.716 114.502 110.52ZM112.584 115.098H114.25V117.73C114.25 117.954 114.301 118.099 114.404 118.164C114.516 118.22 114.768 118.248 115.16 118.248C115.225 118.248 115.333 118.248 115.482 118.248C115.641 118.248 115.813 118.248 116 118.248C116.187 118.248 116.373 118.248 116.56 118.248C116.756 118.248 116.933 118.248 117.092 118.248C117.251 118.248 117.377 118.248 117.47 118.248C117.685 118.248 117.848 118.211 117.96 118.136C118.072 118.061 118.151 117.907 118.198 117.674C118.245 117.441 118.282 117.086 118.31 116.61C118.431 116.703 118.581 116.792 118.758 116.876C118.935 116.951 119.117 117.021 119.304 117.086C119.5 117.142 119.673 117.189 119.822 117.226C119.757 117.889 119.649 118.407 119.5 118.78C119.351 119.144 119.127 119.391 118.828 119.522C118.529 119.662 118.119 119.732 117.596 119.732C117.521 119.732 117.395 119.732 117.218 119.732C117.041 119.732 116.84 119.732 116.616 119.732C116.401 119.732 116.182 119.732 115.958 119.732C115.734 119.732 115.533 119.732 115.356 119.732C115.188 119.732 115.067 119.732 114.992 119.732C114.357 119.732 113.863 119.671 113.508 119.55C113.163 119.429 112.92 119.223 112.78 118.934C112.649 118.645 112.584 118.248 112.584 117.744V115.098ZM113.83 114.678L115.062 113.782C115.361 114.015 115.673 114.281 116 114.58C116.336 114.869 116.649 115.163 116.938 115.462C117.237 115.751 117.47 116.017 117.638 116.26L116.322 117.254C116.163 117.002 115.949 116.727 115.678 116.428C115.407 116.12 115.109 115.812 114.782 115.504C114.465 115.196 114.147 114.921 113.83 114.678ZM119.192 115.602L120.592 115.042C120.853 115.397 121.115 115.789 121.376 116.218C121.637 116.638 121.875 117.053 122.09 117.464C122.314 117.875 122.487 118.248 122.608 118.584L121.082 119.242C120.989 118.925 120.839 118.556 120.634 118.136C120.429 117.707 120.2 117.273 119.948 116.834C119.696 116.386 119.444 115.975 119.192 115.602ZM110.652 115.182L112.15 115.686C112.066 116.097 111.959 116.531 111.828 116.988C111.697 117.445 111.553 117.889 111.394 118.318C111.245 118.738 111.072 119.116 110.876 119.452L109.35 118.682C109.546 118.383 109.728 118.038 109.896 117.646C110.064 117.254 110.213 116.848 110.344 116.428C110.475 115.999 110.577 115.583 110.652 115.182ZM115.44 106.726L117.008 107.314C116.504 108.042 115.893 108.705 115.174 109.302C114.465 109.899 113.69 110.427 112.85 110.884C112.01 111.341 111.142 111.729 110.246 112.046C110.19 111.915 110.106 111.757 109.994 111.57C109.891 111.374 109.775 111.183 109.644 110.996C109.523 110.809 109.415 110.66 109.322 110.548C110.162 110.305 110.969 110.002 111.744 109.638C112.519 109.265 113.228 108.835 113.872 108.35C114.516 107.855 115.039 107.314 115.44 106.726Z" fill="#6C5DD3"/>
<path fill-rule="evenodd" clip-rule="evenodd" d="M59.3124 144.919C59.3427 144.806 59.2125 144.711 59.076 144.746L56.1913 145.492C56.0527 145.528 56.0118 145.671 56.1179 145.749L56.8854 146.309C56.2721 146.577 56.028 147.103 55.8457 147.495L55.8457 147.495C55.8272 147.535 55.8094 147.574 55.7918 147.61C55.5765 148.06 55.3638 148.417 54.8138 148.625C54.5244 148.735 54.1846 148.707 53.7278 148.541C53.295 148.384 52.8361 148.132 52.3112 147.844L52.3112 147.844L52.1714 147.767C51.613 147.461 50.9842 147.125 50.3403 146.928C49.6795 146.726 48.9667 146.66 48.2658 146.925C47.5547 147.195 47.1643 147.711 46.9412 148.278C46.722 148.834 46.6491 149.479 46.5996 150.063C46.5903 150.173 46.5817 150.28 46.5735 150.385L46.5734 150.385C46.5358 150.86 46.5026 151.28 46.417 151.631C46.3109 152.067 46.1563 152.249 45.9835 152.315C45.6499 152.441 45.4027 152.473 45.2034 152.47C44.9962 152.467 44.8126 152.427 44.5678 152.372L44.5453 152.367C44.3133 152.314 44.0211 152.247 43.685 152.241C43.3285 152.233 42.9478 152.293 42.51 152.458C41.5765 152.812 41.076 153.589 40.8097 154.206C40.6731 154.522 40.5891 154.817 40.539 155.032C40.5139 155.141 40.497 155.23 40.4863 155.294C40.481 155.325 40.4771 155.351 40.4746 155.369L40.4716 155.391L40.4708 155.397L40.4705 155.4L40.4704 155.4L40.4703 155.401C40.4703 155.401 40.4703 155.401 40.9678 155.491L40.4703 155.401C40.4405 155.653 40.653 155.901 40.9449 155.954C41.2366 156.007 41.4973 155.845 41.5272 155.593L41.5272 155.593L41.5274 155.591L41.5291 155.579C41.5308 155.567 41.5336 155.548 41.5378 155.524C41.5461 155.474 41.5599 155.4 41.5811 155.309C41.6235 155.126 41.6946 154.878 41.8084 154.614C42.0428 154.072 42.424 153.545 43.0142 153.322C43.3382 153.199 43.5781 153.17 43.7726 153.174C43.9765 153.178 44.1576 153.218 44.4056 153.274L44.4154 153.276L44.4154 153.276C44.6007 153.318 44.8236 153.369 45.0778 153.392C45.1487 153.398 45.2222 153.402 45.2979 153.403C45.6577 153.408 46.0432 153.347 46.4876 153.178C47.0928 152.949 47.3355 152.416 47.4571 151.916C47.5591 151.498 47.5982 150.999 47.6355 150.522C47.6433 150.423 47.651 150.325 47.6591 150.228C47.7088 149.644 47.7762 149.103 47.9495 148.663C48.119 148.233 48.3732 147.939 48.7699 147.789C49.1768 147.635 49.604 147.659 50.0883 147.807C50.5896 147.96 51.1108 148.233 51.6802 148.545L51.8333 148.629C52.3361 148.906 52.8822 149.206 53.4128 149.399C54.0118 149.617 54.6782 149.731 55.318 149.489C56.2157 149.149 56.5454 148.533 56.7782 148.046L56.802 147.996C57.0357 147.507 57.1541 147.26 57.4729 147.139C57.5902 147.094 57.6741 147.014 57.7177 146.917L58.3623 147.388C58.4684 147.465 58.6412 147.419 58.672 147.304L59.3124 144.919Z" fill="#0049C6"/>
<path d="M67.63 145.547H71.9V147.059H67.63V145.547ZM69.464 150.293L71.102 148.333V156.341H69.464V150.293ZM71.032 148.837C71.144 148.921 71.298 149.057 71.494 149.243C71.6993 149.421 71.914 149.617 72.138 149.831C72.362 150.037 72.5673 150.233 72.754 150.419C72.9407 150.606 73.076 150.741 73.16 150.825L72.124 152.211C72.012 152.034 71.8673 151.833 71.69 151.609C71.5127 151.376 71.326 151.138 71.13 150.895C70.934 150.653 70.7427 150.424 70.556 150.209C70.3787 149.995 70.22 149.817 70.08 149.677L71.032 148.837ZM71.41 145.547H71.746L72.04 145.491L72.922 146.121C72.586 146.989 72.1473 147.825 71.606 148.627C71.074 149.43 70.4813 150.158 69.828 150.811C69.184 151.455 68.526 151.992 67.854 152.421C67.8167 152.253 67.7607 152.057 67.686 151.833C67.6113 151.609 67.532 151.39 67.448 151.175C67.364 150.961 67.2847 150.797 67.21 150.685C67.8073 150.359 68.3813 149.939 68.932 149.425C69.4827 148.912 69.9727 148.347 70.402 147.731C70.8407 147.106 71.1767 146.476 71.41 145.841V145.547ZM68.96 143.825L70.276 143.125C70.528 143.387 70.7707 143.685 71.004 144.021C71.2373 144.357 71.4193 144.656 71.55 144.917L70.164 145.729C70.052 145.459 69.8793 145.146 69.646 144.791C69.422 144.437 69.1933 144.115 68.96 143.825ZM72.446 154.255H80.552V155.907H72.446V154.255ZM73.062 147.395H80.216V149.019H73.062V147.395ZM75.82 143.279H77.556V155.053H75.82V143.279ZM82.232 150.139H93.866V151.777H82.232V150.139ZM84.738 147.423H91.304V148.963H84.738V147.423ZM89.442 152.561L90.884 151.819C91.2947 152.183 91.7007 152.575 92.102 152.995C92.5033 153.415 92.872 153.84 93.208 154.269C93.544 154.689 93.8193 155.077 94.034 155.431L92.508 156.341C92.3213 155.987 92.06 155.585 91.724 155.137C91.3973 154.699 91.0333 154.255 90.632 153.807C90.2307 153.35 89.834 152.935 89.442 152.561ZM87.944 143.125L89.47 143.853C88.6487 144.973 87.6453 145.981 86.46 146.877C85.2747 147.773 83.982 148.529 82.582 149.145C82.5073 149.005 82.4 148.842 82.26 148.655C82.12 148.459 81.9707 148.273 81.812 148.095C81.6533 147.909 81.5087 147.759 81.378 147.647C82.274 147.311 83.1373 146.905 83.968 146.429C84.7987 145.953 85.5547 145.435 86.236 144.875C86.9267 144.306 87.496 143.723 87.944 143.125ZM88.336 143.825C88.644 144.152 89.0267 144.493 89.484 144.847C89.9507 145.193 90.464 145.533 91.024 145.869C91.5933 146.205 92.186 146.518 92.802 146.807C93.4273 147.087 94.0527 147.33 94.678 147.535C94.5473 147.638 94.4073 147.778 94.258 147.955C94.1087 148.133 93.964 148.315 93.824 148.501C93.6933 148.688 93.5813 148.856 93.488 149.005C92.8813 148.753 92.2747 148.459 91.668 148.123C91.0613 147.787 90.478 147.423 89.918 147.031C89.3673 146.639 88.8587 146.243 88.392 145.841C87.9347 145.44 87.5427 145.062 87.216 144.707L88.336 143.825ZM83.226 156.103C83.198 155.982 83.1467 155.814 83.072 155.599C83.0067 155.394 82.9367 155.184 82.862 154.969C82.7967 154.745 82.7267 154.554 82.652 154.395C82.8387 154.358 83.016 154.283 83.184 154.171C83.352 154.05 83.548 153.891 83.772 153.695C83.8933 153.611 84.0613 153.467 84.276 153.261C84.4907 153.047 84.7287 152.795 84.99 152.505C85.2607 152.207 85.5313 151.889 85.802 151.553C86.0727 151.208 86.3293 150.853 86.572 150.489L88.126 151.567C87.6033 152.23 87.0153 152.883 86.362 153.527C85.7087 154.171 85.0507 154.731 84.388 155.207V155.263C84.388 155.263 84.3273 155.287 84.206 155.333C84.0847 155.389 83.9493 155.459 83.8 155.543C83.6507 155.637 83.5153 155.73 83.394 155.823C83.282 155.926 83.226 156.019 83.226 156.103ZM83.226 156.103L83.198 154.773L84.276 154.171L92.214 153.723C92.242 153.957 92.2887 154.223 92.354 154.521C92.4193 154.811 92.4753 155.044 92.522 155.221C91.262 155.315 90.17 155.394 89.246 155.459C88.3313 155.534 87.5473 155.595 86.894 155.641C86.25 155.688 85.718 155.73 85.298 155.767C84.878 155.805 84.5373 155.837 84.276 155.865C84.0147 155.903 83.8047 155.935 83.646 155.963C83.4873 156.001 83.3473 156.047 83.226 156.103ZM95.77 145.351H100.866V146.905H95.77V145.351ZM95.49 148.599H101.034V150.195H95.49V148.599ZM97.576 143.335H99.172V147.801C99.172 148.455 99.144 149.15 99.088 149.887C99.032 150.625 98.9153 151.371 98.738 152.127C98.5607 152.883 98.2947 153.611 97.94 154.311C97.5947 155.011 97.128 155.646 96.54 156.215C96.4653 156.103 96.358 155.973 96.218 155.823C96.078 155.674 95.9333 155.529 95.784 155.389C95.6347 155.249 95.49 155.137 95.35 155.053C95.8727 154.587 96.2833 154.05 96.582 153.443C96.89 152.827 97.114 152.188 97.254 151.525C97.394 150.863 97.4827 150.214 97.52 149.579C97.5573 148.935 97.576 148.343 97.576 147.801V143.335ZM98.934 150.349C99.0273 150.433 99.158 150.569 99.326 150.755C99.494 150.933 99.6713 151.133 99.858 151.357C100.054 151.581 100.25 151.805 100.446 152.029C100.642 152.253 100.815 152.454 100.964 152.631C101.113 152.809 101.225 152.944 101.3 153.037L100.152 154.241C100.021 154.027 99.858 153.779 99.662 153.499C99.4753 153.219 99.27 152.93 99.046 152.631C98.8313 152.333 98.6213 152.053 98.416 151.791C98.22 151.53 98.0473 151.311 97.898 151.133L98.934 150.349ZM101.496 143.825H107.992V151.287H106.326V145.281H103.092V151.287H101.496V143.825ZM104.324 150.853H105.794V154.297C105.794 154.475 105.827 154.596 105.892 154.661C105.957 154.727 106.055 154.759 106.186 154.759H106.83C106.951 154.759 107.045 154.708 107.11 154.605C107.175 154.493 107.222 154.283 107.25 153.975C107.278 153.667 107.301 153.229 107.32 152.659C107.497 152.799 107.707 152.925 107.95 153.037C108.202 153.14 108.426 153.215 108.622 153.261C108.575 153.971 108.501 154.531 108.398 154.941C108.295 155.343 108.127 155.623 107.894 155.781C107.661 155.949 107.311 156.033 106.844 156.033H105.878C105.327 156.033 104.931 155.926 104.688 155.711C104.445 155.497 104.324 155.086 104.324 154.479V150.853ZM103.946 146.149H105.5V148.375C105.5 149.001 105.439 149.673 105.318 150.391C105.206 151.101 104.991 151.819 104.674 152.547C104.357 153.266 103.904 153.952 103.316 154.605C102.728 155.249 101.963 155.823 101.02 156.327C100.955 156.215 100.857 156.08 100.726 155.921C100.605 155.772 100.474 155.623 100.334 155.473C100.194 155.324 100.068 155.212 99.956 155.137C100.861 154.671 101.58 154.157 102.112 153.597C102.644 153.037 103.041 152.459 103.302 151.861C103.563 151.255 103.736 150.653 103.82 150.055C103.904 149.449 103.946 148.879 103.946 148.347V146.149ZM115.594 147.409H120.592V149.005H115.594V147.409ZM109.91 154.955C110.227 154.685 110.582 154.363 110.974 153.989C111.366 153.607 111.772 153.201 112.192 152.771C112.612 152.333 113.013 151.894 113.396 151.455L114.32 152.743C113.993 153.145 113.648 153.551 113.284 153.961C112.92 154.372 112.551 154.778 112.178 155.179C111.814 155.581 111.45 155.963 111.086 156.327L109.91 154.955ZM110.484 147.983L111.422 146.877C111.683 147.017 111.973 147.176 112.29 147.353C112.607 147.531 112.915 147.703 113.214 147.871C113.522 148.039 113.774 148.193 113.97 148.333L112.976 149.565C112.799 149.425 112.561 149.262 112.262 149.075C111.963 148.889 111.655 148.702 111.338 148.515C111.03 148.319 110.745 148.142 110.484 147.983ZM109.63 150.531L110.554 149.411C110.815 149.533 111.105 149.682 111.422 149.859C111.739 150.027 112.047 150.195 112.346 150.363C112.654 150.522 112.906 150.667 113.102 150.797L112.136 152.057C111.959 151.917 111.721 151.759 111.422 151.581C111.133 151.404 110.829 151.222 110.512 151.035C110.195 150.849 109.901 150.681 109.63 150.531ZM119.724 147.409H121.418V150.853C121.418 151.245 121.362 151.563 121.25 151.805C121.147 152.039 120.947 152.216 120.648 152.337C120.34 152.468 119.981 152.547 119.57 152.575C119.159 152.594 118.688 152.603 118.156 152.603C118.109 152.37 118.025 152.104 117.904 151.805C117.783 151.497 117.657 151.236 117.526 151.021C117.787 151.031 118.044 151.04 118.296 151.049C118.557 151.049 118.791 151.049 118.996 151.049C119.201 151.049 119.341 151.049 119.416 151.049C119.537 151.049 119.617 151.035 119.654 151.007C119.701 150.97 119.724 150.909 119.724 150.825V147.409ZM114.656 147.409H116.406V153.723C116.406 153.957 116.429 154.134 116.476 154.255C116.523 154.367 116.616 154.442 116.756 154.479C116.905 154.517 117.125 154.535 117.414 154.535C117.489 154.535 117.61 154.535 117.778 154.535C117.955 154.535 118.151 154.535 118.366 154.535C118.59 154.535 118.809 154.535 119.024 154.535C119.248 154.535 119.449 154.535 119.626 154.535C119.803 154.535 119.943 154.535 120.046 154.535C120.298 154.535 120.489 154.493 120.62 154.409C120.751 154.316 120.844 154.148 120.9 153.905C120.965 153.663 121.017 153.303 121.054 152.827C121.25 152.958 121.502 153.089 121.81 153.219C122.127 153.341 122.407 153.425 122.65 153.471C122.575 154.143 122.454 154.675 122.286 155.067C122.118 155.45 121.871 155.721 121.544 155.879C121.217 156.038 120.765 156.117 120.186 156.117C120.093 156.117 119.943 156.117 119.738 156.117C119.542 156.117 119.318 156.117 119.066 156.117C118.823 156.117 118.576 156.117 118.324 156.117C118.081 156.117 117.862 156.117 117.666 156.117C117.47 156.117 117.33 156.117 117.246 156.117C116.583 156.117 116.061 156.047 115.678 155.907C115.305 155.777 115.039 155.539 114.88 155.193C114.731 154.848 114.656 154.367 114.656 153.751V147.409ZM109.672 144.217H122.328V145.771H109.672V144.217ZM112.556 143.195H114.278V146.905H112.556V143.195ZM117.694 143.195H119.444V146.905H117.694V143.195Z" fill="#0049C6"/>
<path fill-rule="evenodd" clip-rule="evenodd" d="M59.8449 178.824C59.8752 178.711 59.7449 178.616 59.6085 178.651L56.7237 179.397C56.5852 179.433 56.5443 179.576 56.6504 179.653L57.4179 180.214C56.8046 180.482 56.5605 181.008 56.3782 181.4L56.3782 181.4C56.3597 181.44 56.3418 181.478 56.3243 181.515C56.109 181.965 55.8963 182.321 55.3463 182.53C55.0568 182.639 54.7171 182.612 54.2603 182.446C53.8274 182.289 53.3685 182.037 52.8437 181.749L52.8437 181.749L52.7038 181.672C52.1455 181.366 51.5166 181.03 50.8728 180.833C50.212 180.631 49.4992 180.565 48.7982 180.83C48.0872 181.099 47.6968 181.616 47.4737 182.182C47.2545 182.739 47.1816 183.383 47.1321 183.967C47.1227 184.077 47.1142 184.185 47.1059 184.29L47.1059 184.29C47.0683 184.765 47.0351 185.184 46.9494 185.536C46.8434 185.971 46.6888 186.154 46.5159 186.219C46.1824 186.346 45.9352 186.377 45.7359 186.375C45.5286 186.372 45.3451 186.332 45.1003 186.276L45.0777 186.271C44.8458 186.219 44.5536 186.152 44.2175 186.145C43.861 186.138 43.4803 186.197 43.0425 186.363C42.109 186.717 41.6085 187.494 41.3422 188.11C41.2056 188.427 41.1215 188.721 41.0715 188.937C41.0463 189.045 41.0295 189.135 41.0188 189.198C41.0134 189.23 41.0096 189.256 41.007 189.274L41.0041 189.296L41.0032 189.302L41.003 189.304L41.0029 189.305L41.0028 189.306C41.0028 189.306 41.0028 189.306 41.5003 189.396L41.0028 189.306C40.973 189.558 41.1855 189.806 41.4773 189.859C41.7691 189.911 42.0298 189.75 42.0597 189.498L42.0597 189.498L42.0599 189.496L42.0616 189.484C42.0633 189.472 42.0661 189.453 42.0703 189.428C42.0786 189.379 42.0924 189.305 42.1135 189.214C42.156 189.031 42.2271 188.783 42.3409 188.519C42.5753 187.976 42.9565 187.45 43.5466 187.227C43.8707 187.104 44.1106 187.075 44.305 187.078C44.5089 187.083 44.6901 187.123 44.938 187.179L44.9479 187.181L44.9479 187.181C45.1332 187.223 45.356 187.274 45.6103 187.296C45.6812 187.303 45.7546 187.307 45.8303 187.308C46.1901 187.313 46.5757 187.251 47.0201 187.083C47.6253 186.854 47.868 186.32 47.9896 185.821C48.0915 185.402 48.1306 184.903 48.168 184.427C48.1758 184.328 48.1835 184.229 48.1916 184.133C48.2412 183.548 48.3087 183.008 48.482 182.568C48.6514 182.137 48.9057 181.844 49.3024 181.694C49.7093 181.54 50.1365 181.564 50.6208 181.712C51.1221 181.865 51.6433 182.138 52.2127 182.45L52.3658 182.534C52.8686 182.81 53.4147 183.111 53.9453 183.304C54.5442 183.521 55.2106 183.636 55.8504 183.393C56.7482 183.053 57.0779 182.437 57.3106 181.951L57.3345 181.901C57.5682 181.412 57.6865 181.164 58.0054 181.044C58.1226 180.999 58.2065 180.919 58.2502 180.822L58.8947 181.293C59.0009 181.37 59.1737 181.323 59.2044 181.209L59.8449 178.824Z" fill="#FF754C"/>
<path d="M68.5265 178.43H80.5245V181.062H78.7745V180.04H70.2065V181.062H68.5265V178.43ZM73.3145 177.408L75.0785 176.932C75.1905 177.165 75.3165 177.431 75.4565 177.73C75.5965 178.019 75.6991 178.267 75.7645 178.472L73.9165 179.018C73.8605 178.803 73.7765 178.547 73.6645 178.248C73.5525 177.94 73.4358 177.66 73.3145 177.408ZM69.3525 181.594H79.7265V188.51H78.0325V183.036H70.9625V188.58H69.3525V181.594ZM70.3885 184.058H78.9005V185.444H70.3885V184.058ZM70.3745 186.48H78.9565V187.936H70.3745V186.48ZM73.6365 180.39H75.3865V190.232H73.6365V180.39ZM82.8345 178.836H94.2305V180.306H82.8345V178.836ZM83.4785 181.02H93.6845V182.434H83.4785V181.02ZM82.6525 185.36H94.6645V186.858H82.6525V185.36ZM82.2325 183.176H94.9725V184.632H82.2325V183.176ZM87.6365 179.76H89.3725V184.352H87.6365V179.76ZM84.5565 177.59L86.0545 177.002C86.2785 177.254 86.4885 177.534 86.6845 177.842C86.8805 178.141 87.0205 178.411 87.1045 178.654L85.5365 179.326C85.4618 179.083 85.3311 178.799 85.1445 178.472C84.9578 178.145 84.7618 177.851 84.5565 177.59ZM90.7865 177.002L92.5925 177.464C92.3591 177.837 92.1165 178.197 91.8645 178.542C91.6218 178.878 91.4025 179.167 91.2065 179.41L89.6805 178.976C89.8111 178.789 89.9465 178.584 90.0865 178.36C90.2265 178.127 90.3571 177.893 90.4785 177.66C90.5998 177.417 90.7025 177.198 90.7865 177.002ZM87.4405 184.338H89.2185C89.1531 184.963 89.0551 185.542 88.9245 186.074C88.8031 186.606 88.6071 187.091 88.3365 187.53C88.0751 187.959 87.7111 188.347 87.2445 188.692C86.7871 189.037 86.1945 189.336 85.4665 189.588C84.7385 189.84 83.8425 190.055 82.7785 190.232C82.7411 190.083 82.6758 189.915 82.5825 189.728C82.4891 189.541 82.3818 189.355 82.2605 189.168C82.1485 188.991 82.0411 188.841 81.9385 188.72C82.8905 188.589 83.6838 188.435 84.3185 188.258C84.9625 188.071 85.4805 187.852 85.8725 187.6C86.2645 187.348 86.5631 187.063 86.7685 186.746C86.9831 186.429 87.1371 186.069 87.2305 185.668C87.3238 185.267 87.3938 184.823 87.4405 184.338ZM89.5825 185.878C90.0025 186.746 90.6698 187.409 91.5845 187.866C92.5085 188.314 93.7171 188.589 95.2105 188.692C95.0985 188.823 94.9725 188.977 94.8325 189.154C94.7018 189.341 94.5805 189.527 94.4685 189.714C94.3565 189.91 94.2678 190.092 94.2025 190.26C93.1011 190.111 92.1585 189.873 91.3745 189.546C90.5905 189.219 89.9278 188.781 89.3865 188.23C88.8451 187.67 88.3925 186.979 88.0285 186.158L89.5825 185.878ZM103.96 177.17H105.668C105.659 178.159 105.636 179.153 105.598 180.152C105.57 181.141 105.491 182.112 105.36 183.064C105.239 184.016 105.038 184.926 104.758 185.794C104.488 186.662 104.114 187.474 103.638 188.23C103.162 188.977 102.551 189.644 101.804 190.232C101.664 190.008 101.473 189.779 101.23 189.546C100.997 189.313 100.764 189.121 100.53 188.972C101.24 188.459 101.814 187.866 102.252 187.194C102.691 186.522 103.027 185.794 103.26 185.01C103.494 184.226 103.657 183.405 103.75 182.546C103.853 181.687 103.909 180.805 103.918 179.9C103.937 178.985 103.951 178.075 103.96 177.17ZM105.556 181.132C105.575 181.412 105.617 181.795 105.682 182.28C105.757 182.756 105.869 183.293 106.018 183.89C106.168 184.478 106.373 185.08 106.634 185.696C106.905 186.312 107.25 186.909 107.67 187.488C108.1 188.057 108.627 188.561 109.252 189C109.019 189.159 108.79 189.35 108.566 189.574C108.352 189.807 108.179 190.036 108.048 190.26C107.395 189.775 106.844 189.21 106.396 188.566C105.948 187.913 105.58 187.231 105.29 186.522C105.01 185.813 104.786 185.122 104.618 184.45C104.45 183.769 104.324 183.148 104.24 182.588C104.166 182.028 104.105 181.585 104.058 181.258L105.556 181.132ZM97.1845 178.332L98.2905 177.268C98.5238 177.473 98.7851 177.702 99.0745 177.954C99.3638 178.197 99.6438 178.439 99.9145 178.682C100.185 178.925 100.404 179.139 100.572 179.326L99.4105 180.53C99.2518 180.334 99.0418 180.11 98.7805 179.858C98.5285 179.597 98.2578 179.335 97.9685 179.074C97.6791 178.803 97.4178 178.556 97.1845 178.332ZM98.1925 190.008L97.8285 188.482L98.1925 187.95L101.062 185.934C101.109 186.158 101.179 186.415 101.272 186.704C101.375 186.984 101.468 187.208 101.552 187.376C100.89 187.852 100.353 188.244 99.9425 188.552C99.5318 188.86 99.2051 189.107 98.9625 189.294C98.7291 189.481 98.5565 189.625 98.4445 189.728C98.3418 189.84 98.2578 189.933 98.1925 190.008ZM96.0785 181.426H99.3965V183.036H96.0785V181.426ZM98.1925 190.008C98.1458 189.887 98.0711 189.751 97.9685 189.602C97.8658 189.462 97.7585 189.317 97.6465 189.168C97.5345 189.028 97.4318 188.916 97.3385 188.832C97.5065 188.701 97.6885 188.505 97.8845 188.244C98.0805 187.973 98.1785 187.647 98.1785 187.264V181.426H99.8025V188.174C99.8025 188.174 99.7465 188.216 99.6345 188.3C99.5318 188.384 99.4011 188.501 99.2425 188.65C99.0838 188.79 98.9205 188.939 98.7525 189.098C98.5938 189.266 98.4585 189.429 98.3465 189.588C98.2438 189.747 98.1925 189.887 98.1925 190.008ZM117.778 187.25H121.614V188.832H117.778V187.25ZM117.036 178.318H122.398V189.644H120.704V179.886H118.66V189.854H117.036V178.318ZM112.654 179.634H114.348V182.322C114.348 182.919 114.306 183.568 114.222 184.268C114.148 184.968 113.989 185.677 113.746 186.396C113.513 187.115 113.177 187.805 112.738 188.468C112.309 189.121 111.744 189.705 111.044 190.218C110.97 190.097 110.858 189.952 110.708 189.784C110.559 189.616 110.405 189.453 110.246 189.294C110.097 189.135 109.962 189.019 109.84 188.944C110.484 188.487 110.993 187.983 111.366 187.432C111.749 186.872 112.029 186.298 112.206 185.71C112.393 185.113 112.514 184.525 112.57 183.946C112.626 183.358 112.654 182.812 112.654 182.308V179.634ZM111.506 178.878H116.322V180.432H111.506V178.878ZM110.05 182.658H116.658V184.24H110.05V182.658ZM113.942 184.618C114.054 184.721 114.208 184.879 114.404 185.094C114.61 185.299 114.829 185.533 115.062 185.794C115.296 186.055 115.529 186.317 115.762 186.578C115.996 186.839 116.201 187.077 116.378 187.292C116.565 187.497 116.7 187.651 116.784 187.754L115.65 189.182C115.52 188.977 115.366 188.748 115.188 188.496C115.011 188.235 114.82 187.969 114.614 187.698C114.409 187.427 114.204 187.161 113.998 186.9C113.793 186.639 113.592 186.396 113.396 186.172C113.21 185.939 113.046 185.738 112.906 185.57L113.942 184.618ZM111.352 177.114L112.962 177.436C112.85 178.052 112.701 178.659 112.514 179.256C112.328 179.844 112.118 180.404 111.884 180.936C111.651 181.459 111.404 181.916 111.142 182.308C111.04 182.215 110.904 182.107 110.736 181.986C110.578 181.865 110.41 181.743 110.232 181.622C110.055 181.501 109.906 181.407 109.784 181.342C110.167 180.829 110.489 180.194 110.75 179.438C111.021 178.682 111.222 177.907 111.352 177.114Z" fill="#FF754C"/>
<circle cx="86.6" cy="224.6" r="1.6" fill="#8F95B2"/>
<circle cx="92.9999" cy="224.6" r="1.6" fill="#8F95B2"/>
<circle cx="99.3998" cy="224.6" r="1.6" fill="#8F95B2"/>
<defs>
<filter id="filter0_d_140_3160" x="0" y="0" width="186" height="268" filterUnits="userSpaceOnUse" color-interpolation-filters="sRGB">
<feFlood flood-opacity="0" result="BackgroundImageFix"/>
<feColorMatrix in="SourceAlpha" type="matrix" values="0 0 0 0 0 0 0 0 0 0 0 0 0 0 0 0 0 0 127 0" result="hardAlpha"/>
<feOffset dy="8"/>
<feGaussianBlur stdDeviation="8"/>
<feComposite in2="hardAlpha" operator="out"/>
<feColorMatrix type="matrix" values="0 0 0 0 0.560784 0 0 0 0 0.584314 0 0 0 0 0.698039 0 0 0 0.15 0"/>
<feBlend mode="normal" in2="BackgroundImageFix" result="effect1_dropShadow_140_3160"/>
<feBlend mode="normal" in="SourceGraphic" in2="effect1_dropShadow_140_3160" result="shape"/>
</filter>
</defs>
</svg>
