<svg width="264" height="86" viewBox="0 0 264 86" fill="none" xmlns="http://www.w3.org/2000/svg">
<path fill-rule="evenodd" clip-rule="evenodd" d="M204.711 85.0678V6.65271C204.711 2.97852 207.689 0 211.364 0C215.038 0 218.016 2.97852 218.016 6.65271V85.0678H204.711Z" fill="#58A4F6"/>
<path fill-rule="evenodd" clip-rule="evenodd" d="M183.316 85.0678V33.5997C183.316 29.9255 186.295 26.947 189.969 26.947C193.643 26.947 196.621 29.9255 196.621 33.5997V85.0678H183.316Z" fill="#FFA2C0"/>
<path fill-rule="evenodd" clip-rule="evenodd" d="M158.882 85.0679V17.7486C158.882 14.0744 161.86 11.0958 165.535 11.0958C169.209 11.0958 172.187 14.0744 172.187 17.7486V85.0679H158.882Z" fill="#58A4F6"/>
<path fill-rule="evenodd" clip-rule="evenodd" d="M137.487 85.0679V49.4509C137.487 45.7767 140.466 42.7982 144.14 42.7982C147.814 42.7982 150.793 45.7767 150.793 49.4509V85.0679H137.487Z" fill="#FFA2C0"/>
<path fill-rule="evenodd" clip-rule="evenodd" d="M113.053 85.0679V28.316C113.053 24.6418 116.031 21.6633 119.705 21.6633C123.38 21.6633 126.358 24.6418 126.358 28.316V85.0679H113.053Z" fill="#58A4F6"/>
<path fill-rule="evenodd" clip-rule="evenodd" d="M91.658 85.0679V44.1672C91.658 40.493 94.6365 37.5145 98.3107 37.5145C101.985 37.5145 104.963 40.493 104.963 44.1672V85.0679H91.658Z" fill="#FFA2C0"/>
<path fill-rule="evenodd" clip-rule="evenodd" d="M67.2238 85.0678V12.4648C67.2238 8.79065 70.2023 5.81212 73.8765 5.81212C77.5507 5.81212 80.5292 8.79064 80.5292 12.4648V85.0678H67.2238Z" fill="#58A4F6"/>
<path fill-rule="evenodd" clip-rule="evenodd" d="M45.829 85.0679V23.0323C45.829 19.3581 48.8075 16.3796 52.4817 16.3796C56.1559 16.3796 59.1344 19.3581 59.1344 23.0323V85.0679H45.829Z" fill="#FFA2C0"/>
<path fill-rule="evenodd" clip-rule="evenodd" d="M250.385 85.0678L250.385 6.80742C250.385 3.04778 253.433 0 257.193 0C260.952 0 264 3.04779 264 6.80742V85.0678H250.385Z" fill="#58A4F6"/>
<path fill-rule="evenodd" clip-rule="evenodd" d="M228.99 85.0679L228.99 49.6056C228.99 45.846 232.038 42.7982 235.798 42.7982C239.557 42.7982 242.605 45.846 242.605 49.6056V85.0679H228.99Z" fill="#FFA2C0"/>
<path fill-rule="evenodd" clip-rule="evenodd" d="M21.3947 85.0679V23.0323C21.3947 19.3581 24.3733 16.3796 28.0474 16.3796C31.7216 16.3796 34.7002 19.3581 34.7002 23.0323V85.0679H21.3947Z" fill="#58A4F6"/>
<path fill-rule="evenodd" clip-rule="evenodd" d="M2.15448e-05 85.0679V49.4509C2.15448e-05 45.7767 2.97854 42.7982 6.65273 42.7982C10.3269 42.7982 13.3054 45.7767 13.3054 49.4509V85.0679H2.15448e-05Z" fill="#FFA2C0"/>
</svg>
