<svg width="440" height="94" viewBox="0 0 440 94" fill="none" xmlns="http://www.w3.org/2000/svg">
<g filter="url(#filter0_d_37_6492)">
<rect x="16" y="8" width="408" height="62" rx="16" fill="white"/>
</g>
<path d="M45 50.9375C45 51.4906 45.4469 51.9375 46 51.9375H54.9375V40.1875H45V50.9375ZM57.0625 51.9375H66C66.5531 51.9375 67 51.4906 67 50.9375V40.1875H57.0625V51.9375ZM67.5 32.6875H62.8875C63.3125 32.0188 63.5625 31.225 63.5625 30.375C63.5625 27.9969 61.6281 26.0625 59.25 26.0625C57.9563 26.0625 56.7906 26.6375 56 27.5437C55.2094 26.6375 54.0437 26.0625 52.75 26.0625C50.3719 26.0625 48.4375 27.9969 48.4375 30.375C48.4375 31.225 48.6844 32.0188 49.1125 32.6875H44.5C43.9469 32.6875 43.5 33.1344 43.5 33.6875V38.0625H54.9375V32.6875H57.0625V38.0625H68.5V33.6875C68.5 33.1344 68.0531 32.6875 67.5 32.6875ZM54.9375 32.5625H52.75C51.5437 32.5625 50.5625 31.5813 50.5625 30.375C50.5625 29.1688 51.5437 28.1875 52.75 28.1875C53.9563 28.1875 54.9375 29.1688 54.9375 30.375V32.5625ZM59.25 32.5625H57.0625V30.375C57.0625 29.1688 58.0437 28.1875 59.25 28.1875C60.4562 28.1875 61.4375 29.1688 61.4375 30.375C61.4375 31.5813 60.4562 32.5625 59.25 32.5625Z" fill="url(#paint0_linear_37_6492)"/>
<path d="M91.612 40.086H93.278C93.278 40.086 93.278 40.1653 93.278 40.324C93.278 40.4733 93.2687 40.5993 93.25 40.702C93.2033 41.7473 93.1473 42.6013 93.082 43.264C93.0167 43.9267 92.9373 44.44 92.844 44.804C92.7507 45.168 92.634 45.4293 92.494 45.588C92.3353 45.7653 92.1627 45.8913 91.976 45.966C91.7987 46.0407 91.5887 46.092 91.346 46.12C91.1407 46.148 90.8747 46.162 90.548 46.162C90.2213 46.1713 89.876 46.1667 89.512 46.148C89.5027 45.924 89.4467 45.672 89.344 45.392C89.2507 45.1213 89.1387 44.888 89.008 44.692C89.3347 44.72 89.638 44.7387 89.918 44.748C90.198 44.748 90.408 44.748 90.548 44.748C90.66 44.7573 90.7533 44.7527 90.828 44.734C90.912 44.706 90.9913 44.6593 91.066 44.594C91.1593 44.5007 91.234 44.3047 91.29 44.006C91.3553 43.698 91.4113 43.2453 91.458 42.648C91.514 42.0507 91.5653 41.276 91.612 40.324V40.086ZM89.428 36.628H90.968C90.9307 37.1787 90.8887 37.7573 90.842 38.364C90.7953 38.9707 90.744 39.554 90.688 40.114C90.632 40.6647 90.5713 41.15 90.506 41.57H88.938C89.0127 41.1407 89.0827 40.646 89.148 40.086C89.2133 39.5167 89.2693 38.9333 89.316 38.336C89.372 37.7387 89.4093 37.1693 89.428 36.628ZM90.044 40.086H92.032V41.584H89.834L90.044 40.086ZM89.988 36.628H91.598V35.018H89.064V33.464H93.194V38.196H89.988V36.628ZM93.348 38.252H101.482V39.848H93.348V38.252ZM99.55 33.66L101.216 34.122C100.945 34.6167 100.623 35.1067 100.25 35.592C99.886 36.0773 99.494 36.5347 99.074 36.964C98.6633 37.384 98.248 37.748 97.828 38.056C97.744 37.9533 97.6227 37.8273 97.464 37.678C97.3147 37.5287 97.156 37.384 96.988 37.244C96.8293 37.0947 96.6893 36.978 96.568 36.894C97.1653 36.5113 97.73 36.0353 98.262 35.466C98.8033 34.8873 99.2327 34.2853 99.55 33.66ZM98.654 39.26C98.822 40.0253 99.046 40.758 99.326 41.458C99.6153 42.1487 99.9653 42.774 100.376 43.334C100.787 43.8847 101.267 44.3373 101.818 44.692C101.622 44.8413 101.412 45.0467 101.188 45.308C100.973 45.5787 100.801 45.8213 100.67 46.036C100.054 45.5973 99.522 45.056 99.074 44.412C98.626 43.7587 98.2433 43.0213 97.926 42.2C97.618 41.3787 97.3613 40.506 97.156 39.582L98.654 39.26ZM94.552 46.302L94.356 44.79L94.902 44.258L97.926 43.11C97.9167 43.2687 97.912 43.4507 97.912 43.656C97.912 43.852 97.9213 44.0433 97.94 44.23C97.9587 44.4167 97.9773 44.5753 97.996 44.706C97.324 44.9953 96.778 45.2287 96.358 45.406C95.938 45.5833 95.6067 45.728 95.364 45.84C95.1307 45.952 94.9533 46.0407 94.832 46.106C94.7107 46.1713 94.6173 46.2367 94.552 46.302ZM94.552 46.302C94.5147 46.1713 94.4587 46.0127 94.384 45.826C94.3093 45.6487 94.23 45.476 94.146 45.308C94.062 45.14 93.9733 45.0047 93.88 44.902C94.0387 44.818 94.1973 44.692 94.356 44.524C94.5147 44.3467 94.594 44.104 94.594 43.796V33.352H96.274V44.902C96.274 44.902 96.2133 44.93 96.092 44.986C95.98 45.042 95.8353 45.1167 95.658 45.21C95.49 45.3127 95.322 45.4247 95.154 45.546C94.986 45.6673 94.8413 45.7933 94.72 45.924C94.608 46.0547 94.552 46.1807 94.552 46.302ZM105.892 37.104L107.152 36.306C107.497 36.5393 107.861 36.81 108.244 37.118C108.636 37.4167 108.939 37.6967 109.154 37.958L107.81 38.826C107.689 38.658 107.516 38.4713 107.292 38.266C107.077 38.0607 106.849 37.8553 106.606 37.65C106.363 37.4447 106.125 37.2627 105.892 37.104ZM111.814 34.248H112.136L112.43 34.178L113.536 34.822C113.079 35.634 112.5 36.3573 111.8 36.992C111.1 37.6173 110.311 38.1633 109.434 38.63C108.557 39.0967 107.628 39.4933 106.648 39.82C105.668 40.1373 104.674 40.394 103.666 40.59C103.582 40.366 103.465 40.1093 103.316 39.82C103.167 39.5213 103.022 39.2833 102.882 39.106C103.815 38.966 104.739 38.7653 105.654 38.504C106.578 38.2333 107.441 37.9067 108.244 37.524C109.047 37.132 109.756 36.684 110.372 36.18C110.988 35.6667 111.469 35.102 111.814 34.486V34.248ZM107.166 34.248H112.066V35.718H107.166V34.248ZM108.118 33.058L109.924 33.478C109.224 34.2433 108.421 34.9573 107.516 35.62C106.611 36.2733 105.561 36.866 104.366 37.398C104.291 37.258 104.189 37.1133 104.058 36.964C103.927 36.8147 103.787 36.67 103.638 36.53C103.489 36.39 103.353 36.278 103.232 36.194C103.988 35.914 104.674 35.6013 105.29 35.256C105.915 34.9107 106.461 34.5513 106.928 34.178C107.404 33.7953 107.801 33.422 108.118 33.058ZM107.698 42.55L109.084 41.752C109.317 41.9107 109.56 42.088 109.812 42.284C110.073 42.48 110.321 42.6853 110.554 42.9C110.797 43.1053 110.993 43.292 111.142 43.46L109.658 44.342C109.527 44.174 109.35 43.9873 109.126 43.782C108.911 43.5673 108.678 43.3527 108.426 43.138C108.174 42.9233 107.931 42.7273 107.698 42.55ZM113.564 39.442H113.914L114.222 39.358L115.384 40.016C114.889 41.0893 114.241 41.9993 113.438 42.746C112.635 43.4833 111.711 44.09 110.666 44.566C109.63 45.042 108.496 45.4153 107.264 45.686C106.032 45.9567 104.744 46.1573 103.4 46.288C103.363 46.1387 103.307 45.9613 103.232 45.756C103.167 45.56 103.092 45.364 103.008 45.168C102.924 44.972 102.835 44.804 102.742 44.664C103.993 44.58 105.187 44.4307 106.326 44.216C107.465 44.0013 108.51 43.698 109.462 43.306C110.423 42.914 111.254 42.424 111.954 41.836C112.654 41.2387 113.191 40.52 113.564 39.68V39.442ZM109.476 39.442H113.984V40.926H109.476V39.442ZM110.428 38.084L112.262 38.49C111.749 39.106 111.165 39.6893 110.512 40.24C109.859 40.7907 109.121 41.2993 108.3 41.766C107.488 42.2233 106.573 42.6433 105.556 43.026C105.491 42.8953 105.397 42.7507 105.276 42.592C105.164 42.424 105.038 42.2607 104.898 42.102C104.767 41.9433 104.646 41.8173 104.534 41.724C105.495 41.416 106.354 41.0707 107.11 40.688C107.866 40.296 108.519 39.876 109.07 39.428C109.63 38.98 110.083 38.532 110.428 38.084ZM117.596 34.318H120.242V42.592H117.596V41.038H118.954V35.858H117.596V34.318ZM116.84 34.318H118.114V43.824H116.84V34.318ZM125.674 33.282L127.088 32.918C127.228 33.2633 127.354 33.6367 127.466 34.038C127.587 34.4393 127.676 34.7893 127.732 35.088L126.234 35.522C126.206 35.214 126.136 34.8547 126.024 34.444C125.921 34.024 125.805 33.6367 125.674 33.282ZM124.232 35.466H129.384V36.922H124.232V35.466ZM124.442 37.664L125.744 37.426C125.837 37.9393 125.921 38.476 125.996 39.036C126.08 39.596 126.145 40.156 126.192 40.716C126.248 41.2667 126.29 41.794 126.318 42.298C126.355 42.7927 126.374 43.2313 126.374 43.614L124.946 43.936C124.955 43.5533 124.946 43.11 124.918 42.606C124.899 42.0927 124.867 41.556 124.82 40.996C124.783 40.4267 124.731 39.862 124.666 39.302C124.601 38.7327 124.526 38.1867 124.442 37.664ZM127.606 37.286L129.174 37.552C129.099 38.1773 129.011 38.8307 128.908 39.512C128.805 40.184 128.698 40.8513 128.586 41.514C128.474 42.1767 128.357 42.8113 128.236 43.418C128.115 44.0153 127.998 44.5473 127.886 45.014L126.598 44.748C126.701 44.2627 126.803 43.712 126.906 43.096C127.009 42.48 127.107 41.836 127.2 41.164C127.293 40.492 127.373 39.8247 127.438 39.162C127.513 38.4993 127.569 37.874 127.606 37.286ZM123.728 44.328H129.58V45.798H123.728V44.328ZM120.62 35.858H123.966V37.328H120.62V35.858ZM120.368 40.198C120.825 40.0673 121.367 39.8993 121.992 39.694C122.627 39.4793 123.271 39.2647 123.924 39.05L124.176 40.408C123.616 40.6413 123.042 40.8747 122.454 41.108C121.875 41.3413 121.329 41.556 120.816 41.752L120.368 40.198ZM121.6 33.142H123.042V44.566C123.042 44.9113 123.005 45.1913 122.93 45.406C122.855 45.63 122.72 45.8073 122.524 45.938C122.328 46.0593 122.09 46.1433 121.81 46.19C121.53 46.2367 121.194 46.2553 120.802 46.246C120.783 46.05 120.727 45.8027 120.634 45.504C120.55 45.2147 120.461 44.972 120.368 44.776C120.592 44.7853 120.797 44.79 120.984 44.79C121.18 44.79 121.315 44.79 121.39 44.79C121.465 44.7807 121.516 44.762 121.544 44.734C121.581 44.706 121.6 44.65 121.6 44.566V33.142Z" fill="#3F8CFF"/>
<path d="M135.342 39.89H143.84V41.612H135.342V39.89ZM138.506 37.888L139.612 36.838C139.901 37.0433 140.219 37.2767 140.564 37.538C140.919 37.7993 141.255 38.0607 141.572 38.322C141.899 38.574 142.16 38.8027 142.356 39.008L141.18 40.226C141.003 40.0113 140.76 39.7687 140.452 39.498C140.144 39.2273 139.817 38.952 139.472 38.672C139.127 38.3827 138.805 38.1213 138.506 37.888ZM140.872 33.702C141.199 34.094 141.591 34.486 142.048 34.878C142.505 35.27 143.005 35.648 143.546 36.012C144.087 36.376 144.638 36.7167 145.198 37.034C145.758 37.3513 146.299 37.622 146.822 37.846C146.682 37.9673 146.523 38.1213 146.346 38.308C146.178 38.4947 146.019 38.686 145.87 38.882C145.721 39.0687 145.599 39.2413 145.506 39.4C144.983 39.1293 144.442 38.8073 143.882 38.434C143.331 38.0607 142.79 37.6547 142.258 37.216C141.726 36.7773 141.217 36.3247 140.732 35.858C140.247 35.382 139.808 34.906 139.416 34.43L140.872 33.702ZM139.892 32.946L141.572 33.73C141.012 34.57 140.368 35.3493 139.64 36.068C138.921 36.7773 138.151 37.426 137.33 38.014C136.518 38.5927 135.683 39.106 134.824 39.554C134.684 39.3113 134.493 39.0453 134.25 38.756C134.007 38.4573 133.765 38.2053 133.522 38C134.343 37.636 135.155 37.202 135.958 36.698C136.761 36.194 137.503 35.6247 138.184 34.99C138.865 34.3553 139.435 33.674 139.892 32.946ZM143.658 39.89H143.952L144.246 39.806L145.576 40.436C145.268 40.8747 144.927 41.3413 144.554 41.836C144.19 42.3307 143.812 42.8347 143.42 43.348C143.028 43.8613 142.631 44.37 142.23 44.874C141.838 45.378 141.455 45.8633 141.082 46.33L139.332 45.532C139.715 45.084 140.107 44.6127 140.508 44.118C140.919 43.614 141.32 43.1147 141.712 42.62C142.113 42.1253 142.477 41.6587 142.804 41.22C143.14 40.7813 143.425 40.3987 143.658 40.072V39.89ZM155.04 39.162C155.479 40.4967 156.179 41.6353 157.14 42.578C158.111 43.5113 159.361 44.1787 160.892 44.58C160.761 44.7013 160.621 44.8553 160.472 45.042C160.323 45.2287 160.183 45.4153 160.052 45.602C159.921 45.798 159.814 45.98 159.73 46.148C158.647 45.7933 157.705 45.3127 156.902 44.706C156.109 44.0993 155.432 43.3667 154.872 42.508C154.312 41.64 153.841 40.66 153.458 39.568L155.04 39.162ZM148.586 34.038H159.73V35.774H148.586V34.038ZM148.068 38.266H160.276V39.988H148.068V38.266ZM153.178 34.626H154.942V37.216C154.942 37.7947 154.9 38.4107 154.816 39.064C154.741 39.708 154.583 40.3613 154.34 41.024C154.107 41.6867 153.761 42.3353 153.304 42.97C152.847 43.6047 152.24 44.1973 151.484 44.748C150.737 45.2893 149.804 45.7653 148.684 46.176C148.609 46.0453 148.507 45.8867 148.376 45.7C148.255 45.5133 148.119 45.3313 147.97 45.154C147.83 44.986 147.699 44.846 147.578 44.734C148.586 44.3887 149.426 43.978 150.098 43.502C150.779 43.026 151.321 42.522 151.722 41.99C152.133 41.4487 152.441 40.9027 152.646 40.352C152.861 39.792 153.001 39.2413 153.066 38.7C153.141 38.1587 153.178 37.6547 153.178 37.188V34.626ZM161.984 39.092H174.388V40.562H161.984V39.092ZM168.256 41.612H173.492V43.068H168.256V41.612ZM167.472 39.848H169.18V45.028H167.472V39.848ZM165.316 42.074C165.577 42.7553 165.941 43.2687 166.408 43.614C166.875 43.95 167.435 44.174 168.088 44.286C168.751 44.398 169.488 44.4587 170.3 44.468C170.459 44.468 170.678 44.468 170.958 44.468C171.247 44.468 171.569 44.468 171.924 44.468C172.279 44.468 172.633 44.468 172.988 44.468C173.352 44.4587 173.693 44.454 174.01 44.454C174.327 44.4447 174.589 44.4353 174.794 44.426C174.71 44.5567 174.631 44.7153 174.556 44.902C174.481 45.0887 174.411 45.28 174.346 45.476C174.29 45.6813 174.248 45.868 174.22 46.036H173.38H170.216C169.404 46.036 168.671 45.9893 168.018 45.896C167.374 45.8027 166.795 45.63 166.282 45.378C165.769 45.1353 165.316 44.7853 164.924 44.328C164.541 43.8613 164.205 43.264 163.916 42.536L165.316 42.074ZM164.098 40.856L165.764 41.094C165.54 42.2513 165.171 43.2687 164.658 44.146C164.154 45.014 163.519 45.7233 162.754 46.274C162.67 46.1713 162.549 46.0453 162.39 45.896C162.241 45.7467 162.082 45.5973 161.914 45.448C161.755 45.2987 161.611 45.182 161.48 45.098C162.199 44.6593 162.773 44.076 163.202 43.348C163.631 42.62 163.93 41.7893 164.098 40.856ZM164.91 36.572V37.272H171.336V36.572H164.91ZM164.91 34.78V35.466H171.336V34.78H164.91ZM163.286 33.576H173.044V38.462H163.286V33.576ZM178.084 35.648H187.828V37.286H178.084V35.648ZM177.496 39.764H187.282V41.388H177.496V39.764ZM175.886 44.216H188.542V45.854H175.886V44.216ZM181.318 33.1H183.082V45.014H181.318V33.1ZM178.084 33.282L179.82 33.674C179.624 34.3927 179.381 35.102 179.092 35.802C178.803 36.502 178.49 37.1553 178.154 37.762C177.818 38.3593 177.468 38.882 177.104 39.33C176.992 39.2273 176.843 39.1153 176.656 38.994C176.479 38.8633 176.292 38.7373 176.096 38.616C175.9 38.4947 175.732 38.3967 175.592 38.322C175.965 37.93 176.306 37.4633 176.614 36.922C176.931 36.3807 177.211 35.7973 177.454 35.172C177.706 34.5467 177.916 33.9167 178.084 33.282ZM191.328 33.954H201.1V46.064H199.294V35.648H193.05V46.092H191.328V33.954ZM192.504 38.658H200.036V40.31H192.504V38.658ZM192.504 43.474H200.05V45.168H192.504V43.474Z" fill="#8F95B2"/>
<path d="M388.94 39.0002L393.8 34.1402C393.909 34.0126 393.966 33.8486 393.96 33.6808C393.953 33.513 393.884 33.3539 393.765 33.2351C393.646 33.1164 393.487 33.0468 393.319 33.0404C393.152 33.0339 392.988 33.091 392.86 33.2002L388 38.0602L383.14 33.1935C383.012 33.0843 382.848 33.0272 382.681 33.0337C382.513 33.0402 382.354 33.1097 382.235 33.2285C382.116 33.3472 382.047 33.5064 382.04 33.6741C382.034 33.8419 382.091 34.006 382.2 34.1335L387.06 39.0002L382.193 43.8602C382.124 43.9199 382.067 43.9935 382.027 44.0762C381.987 44.1589 381.964 44.249 381.961 44.3408C381.957 44.4326 381.973 44.5242 382.006 44.6097C382.04 44.6953 382.091 44.773 382.156 44.8379C382.221 44.9029 382.298 44.9537 382.384 44.9873C382.469 45.0208 382.561 45.0363 382.653 45.0327C382.745 45.0292 382.835 45.0067 382.917 44.9667C383 44.9266 383.074 44.87 383.133 44.8002L388 39.9402L392.86 44.8002C392.988 44.9094 393.152 44.9665 393.319 44.96C393.487 44.9535 393.646 44.8839 393.765 44.7652C393.884 44.6465 393.953 44.4873 393.96 44.3195C393.966 44.1518 393.909 43.9877 393.8 43.8602L388.94 39.0002Z" fill="#8F95B2"/>
<defs>
<filter id="filter0_d_37_6492" x="0" y="0" width="440" height="94" filterUnits="userSpaceOnUse" color-interpolation-filters="sRGB">
<feFlood flood-opacity="0" result="BackgroundImageFix"/>
<feColorMatrix in="SourceAlpha" type="matrix" values="0 0 0 0 0 0 0 0 0 0 0 0 0 0 0 0 0 0 127 0" result="hardAlpha"/>
<feOffset dy="8"/>
<feGaussianBlur stdDeviation="8"/>
<feComposite in2="hardAlpha" operator="out"/>
<feColorMatrix type="matrix" values="0 0 0 0 0.560784 0 0 0 0 0.584314 0 0 0 0 0.698039 0 0 0 0.15 0"/>
<feBlend mode="normal" in2="BackgroundImageFix" result="effect1_dropShadow_37_6492"/>
<feBlend mode="normal" in="SourceGraphic" in2="effect1_dropShadow_37_6492" result="shape"/>
</filter>
<linearGradient id="paint0_linear_37_6492" x1="56" y1="67.7212" x2="24.2073" y2="7.40838" gradientUnits="userSpaceOnUse">
<stop stop-color="#FF754C"/>
<stop offset="1" stop-color="#FFB7F5"/>
</linearGradient>
</defs>
</svg>
