<svg width="452" height="469" viewBox="0 0 452 469" fill="none" xmlns="http://www.w3.org/2000/svg">
<g clip-path="url(#clip0_117_6001)">
<path fill-rule="evenodd" clip-rule="evenodd" d="M0 16C0 7.16344 7.16344 0 16 0H460C468.837 0 476 7.16344 476 16V453C476 461.837 468.837 469 460 469H16C7.16344 469 0 461.837 0 453V16Z" fill="white"/>
<path d="M24.882 25.474H30.642V27.346H24.882V25.474ZM24.468 31.396H31.308V33.304H24.468V31.396ZM27.15 32.296H29.238V39.298C29.238 39.802 29.178 40.204 29.058 40.504C28.95 40.804 28.728 41.038 28.392 41.206C28.056 41.362 27.66 41.464 27.204 41.512C26.748 41.56 26.22 41.584 25.62 41.584C25.572 41.272 25.482 40.918 25.35 40.522C25.23 40.126 25.104 39.79 24.972 39.514C25.356 39.526 25.728 39.532 26.088 39.532C26.46 39.532 26.706 39.532 26.826 39.532C26.958 39.52 27.042 39.496 27.078 39.46C27.126 39.424 27.15 39.358 27.15 39.262V32.296ZM29.976 25.474H30.444L30.822 25.366L32.118 26.266C31.83 26.746 31.5 27.238 31.128 27.742C30.756 28.234 30.372 28.708 29.976 29.164C29.58 29.62 29.19 30.016 28.806 30.352C28.674 30.16 28.488 29.938 28.248 29.686C28.008 29.434 27.804 29.242 27.636 29.11C27.924 28.822 28.218 28.486 28.518 28.102C28.83 27.718 29.118 27.328 29.382 26.932C29.646 26.524 29.844 26.164 29.976 25.852V25.474ZM30.678 31.396H30.966L31.254 31.342L32.586 31.63C32.394 32.386 32.178 33.154 31.938 33.934C31.71 34.714 31.494 35.374 31.29 35.914L29.688 35.572C29.808 35.248 29.922 34.864 30.03 34.42C30.15 33.964 30.27 33.496 30.39 33.016C30.51 32.536 30.606 32.08 30.678 31.648V31.396ZM25.206 29.542L26.34 28.156C26.772 28.396 27.252 28.678 27.78 29.002C28.32 29.314 28.842 29.632 29.346 29.956C29.862 30.268 30.282 30.538 30.606 30.766L29.418 32.368C29.118 32.116 28.722 31.828 28.23 31.504C27.738 31.168 27.222 30.826 26.682 30.478C26.154 30.13 25.662 29.818 25.206 29.542ZM32.208 25.402H41.478V27.292H32.208V25.402ZM35.808 26.392L38.202 26.68C38.022 27.232 37.842 27.778 37.662 28.318C37.482 28.858 37.314 29.32 37.158 29.704L35.322 29.362C35.43 28.93 35.532 28.438 35.628 27.886C35.724 27.334 35.784 26.836 35.808 26.392ZM35.718 31.414H37.734V34.726C37.734 35.314 37.668 35.92 37.536 36.544C37.416 37.168 37.176 37.78 36.816 38.38C36.456 38.968 35.934 39.526 35.25 40.054C34.578 40.594 33.678 41.08 32.55 41.512C32.418 41.296 32.22 41.038 31.956 40.738C31.704 40.438 31.452 40.192 31.2 40C32.208 39.664 33.006 39.28 33.594 38.848C34.194 38.416 34.644 37.96 34.944 37.48C35.256 37 35.46 36.526 35.556 36.058C35.664 35.578 35.718 35.128 35.718 34.708V31.414ZM37.032 38.812L38.418 37.516C38.754 37.78 39.12 38.08 39.516 38.416C39.912 38.74 40.296 39.064 40.668 39.388C41.04 39.7 41.346 39.982 41.586 40.234L40.092 41.692C39.888 41.428 39.606 41.128 39.246 40.792C38.886 40.456 38.508 40.114 38.112 39.766C37.728 39.418 37.368 39.1 37.032 38.812ZM32.784 28.588H40.776V37.21H38.67V30.514H34.782V37.282H32.784V28.588ZM42.864 36.958H59.172V38.686H42.864V36.958ZM47.13 32.044V32.71H55.158V32.044H47.13ZM47.13 33.934V34.6H55.158V33.934H47.13ZM47.13 30.208V30.838H55.158V30.208H47.13ZM44.952 28.912H57.426V35.878H44.952V28.912ZM53.124 35.536H55.374V41.584H53.124V35.536ZM45.06 25.888H50.748V27.58H45.06V25.888ZM52.224 25.888H59.118V27.58H52.224V25.888ZM45.15 24.556L47.148 25.114C46.788 25.918 46.326 26.698 45.762 27.454C45.21 28.21 44.658 28.84 44.106 29.344C43.986 29.224 43.818 29.092 43.602 28.948C43.386 28.792 43.164 28.648 42.936 28.516C42.72 28.372 42.528 28.252 42.36 28.156C42.924 27.724 43.452 27.19 43.944 26.554C44.448 25.906 44.85 25.24 45.15 24.556ZM52.476 24.556L54.528 25.06C54.216 25.852 53.808 26.608 53.304 27.328C52.8 28.048 52.29 28.648 51.774 29.128C51.63 29.02 51.438 28.9 51.198 28.768C50.97 28.636 50.736 28.51 50.496 28.39C50.268 28.27 50.064 28.174 49.884 28.102C50.436 27.682 50.94 27.154 51.396 26.518C51.864 25.882 52.224 25.228 52.476 24.556ZM45.798 27.202L47.562 26.608C47.79 26.884 48.018 27.202 48.246 27.562C48.474 27.91 48.636 28.216 48.732 28.48L46.86 29.146C46.776 28.882 46.626 28.57 46.41 28.21C46.206 27.838 46.002 27.502 45.798 27.202ZM53.718 27.184L55.446 26.464C55.722 26.74 56.016 27.058 56.328 27.418C56.64 27.778 56.88 28.096 57.048 28.372L55.212 29.182C55.08 28.906 54.864 28.582 54.564 28.21C54.276 27.826 53.994 27.484 53.718 27.184ZM47.166 35.518H49.344V37.264C49.344 37.684 49.272 38.104 49.128 38.524C48.984 38.932 48.732 39.322 48.372 39.694C48.024 40.066 47.532 40.414 46.896 40.738C46.26 41.074 45.444 41.368 44.448 41.62C44.316 41.392 44.118 41.116 43.854 40.792C43.59 40.48 43.338 40.228 43.098 40.036C43.974 39.868 44.676 39.676 45.204 39.46C45.744 39.232 46.152 38.992 46.428 38.74C46.716 38.476 46.908 38.218 47.004 37.966C47.112 37.702 47.166 37.45 47.166 37.21V35.518ZM61.8 26.248L63.186 24.934C63.51 25.198 63.858 25.492 64.23 25.816C64.614 26.14 64.968 26.464 65.292 26.788C65.628 27.112 65.898 27.406 66.102 27.67L64.626 29.164C64.434 28.9 64.182 28.594 63.87 28.246C63.558 27.898 63.216 27.55 62.844 27.202C62.484 26.842 62.136 26.524 61.8 26.248ZM62.97 41.368L62.466 39.46L62.844 38.794L66.408 35.788C66.504 36.076 66.63 36.4 66.786 36.76C66.954 37.108 67.098 37.384 67.218 37.588C66.39 38.296 65.712 38.872 65.184 39.316C64.668 39.76 64.26 40.114 63.96 40.378C63.672 40.642 63.45 40.846 63.294 40.99C63.15 41.134 63.042 41.26 62.97 41.368ZM60.63 30.262H63.888V32.332H60.63V30.262ZM68.964 25.294H73.878V27.292H68.964V25.294ZM66.858 32.53H75.066V34.528H66.858V32.53ZM74.418 32.53H74.796L75.156 32.44L76.488 32.998C76.116 34.282 75.612 35.398 74.976 36.346C74.352 37.294 73.614 38.11 72.762 38.794C71.922 39.466 70.98 40.03 69.936 40.486C68.904 40.942 67.794 41.308 66.606 41.584C66.51 41.308 66.366 40.984 66.174 40.612C65.982 40.24 65.796 39.94 65.616 39.712C66.696 39.508 67.704 39.226 68.64 38.866C69.588 38.494 70.44 38.026 71.196 37.462C71.964 36.898 72.618 36.232 73.158 35.464C73.71 34.696 74.13 33.82 74.418 32.836V32.53ZM69.216 34.186C69.684 35.122 70.314 35.962 71.106 36.706C71.898 37.438 72.834 38.062 73.914 38.578C75.006 39.082 76.218 39.46 77.55 39.712C77.394 39.856 77.232 40.042 77.064 40.27C76.908 40.498 76.752 40.732 76.596 40.972C76.452 41.212 76.332 41.434 76.236 41.638C74.136 41.134 72.36 40.306 70.908 39.154C69.456 38.002 68.292 36.55 67.416 34.798L69.216 34.186ZM68.442 25.294H70.458V27.31C70.458 27.91 70.374 28.522 70.206 29.146C70.05 29.77 69.744 30.358 69.288 30.91C68.844 31.462 68.184 31.936 67.308 32.332C67.236 32.188 67.11 32.014 66.93 31.81C66.75 31.594 66.564 31.39 66.372 31.198C66.192 30.994 66.03 30.844 65.886 30.748C66.654 30.424 67.218 30.07 67.578 29.686C67.938 29.302 68.172 28.9 68.28 28.48C68.388 28.06 68.442 27.646 68.442 27.238V25.294ZM72.87 25.294H74.904V29.236C74.904 29.5 74.922 29.686 74.958 29.794C75.006 29.902 75.096 29.956 75.228 29.956C75.288 29.956 75.378 29.956 75.498 29.956C75.618 29.956 75.738 29.956 75.858 29.956C75.99 29.956 76.086 29.956 76.146 29.956C76.29 29.956 76.458 29.95 76.65 29.938C76.842 29.914 76.998 29.884 77.118 29.848C77.142 30.112 77.166 30.412 77.19 30.748C77.214 31.084 77.25 31.378 77.298 31.63C77.154 31.69 76.98 31.732 76.776 31.756C76.584 31.768 76.386 31.774 76.182 31.774C76.086 31.774 75.96 31.774 75.804 31.774C75.66 31.774 75.516 31.774 75.372 31.774C75.228 31.774 75.108 31.774 75.012 31.774C74.424 31.774 73.974 31.684 73.662 31.504C73.35 31.324 73.14 31.048 73.032 30.676C72.924 30.292 72.87 29.8 72.87 29.2V25.294ZM62.97 41.368C62.91 41.188 62.814 40.978 62.682 40.738C62.562 40.51 62.43 40.282 62.286 40.054C62.142 39.838 62.01 39.664 61.89 39.532C62.022 39.436 62.154 39.304 62.286 39.136C62.43 38.968 62.55 38.77 62.646 38.542C62.742 38.302 62.79 38.044 62.79 37.768V30.262H64.86V39.244C64.86 39.244 64.764 39.322 64.572 39.478C64.38 39.622 64.158 39.802 63.906 40.018C63.666 40.234 63.45 40.462 63.258 40.702C63.066 40.954 62.97 41.176 62.97 41.368ZM89.952 26.788V27.832H92.04V26.788H89.952ZM85.938 26.788V27.832H87.99V26.788H85.938ZM81.96 26.788V27.832H83.958V26.788H81.96ZM79.89 25.348H94.218V29.29H79.89V25.348ZM79.17 30.01H94.614V31.594H79.17V30.01ZM85.812 28.858L88.026 28.966C87.954 29.614 87.858 30.298 87.738 31.018C87.618 31.726 87.498 32.344 87.378 32.872H85.362C85.434 32.512 85.5 32.104 85.56 31.648C85.62 31.192 85.668 30.724 85.704 30.244C85.752 29.752 85.788 29.29 85.812 28.858ZM78.918 39.622H95.154V41.134H78.918V39.622ZM82.158 34.258H91.86V35.356H82.158V34.258ZM82.23 36.04H91.842V37.102H82.23V36.04ZM82.284 37.822H91.968V38.92H82.284V37.822ZM81.024 32.296H92.94V40.45H90.816V33.61H83.058V40.45H81.024V32.296Z" fill="#111827"/>
<mask id="mask0_117_6001" style="mask-type:luminance" maskUnits="userSpaceOnUse" x="108" y="22" width="21" height="20">
<path fill-rule="evenodd" clip-rule="evenodd" d="M108.109 22.0593H128.702V41.2413H108.109V22.0593Z" fill="white"/>
</mask>
<g mask="url(#mask0_117_6001)">
<path fill-rule="evenodd" clip-rule="evenodd" d="M118.405 39.323C122.67 39.323 126.128 36.1025 126.128 32.1298C126.128 28.157 122.67 24.9365 118.405 24.9365C114.141 24.9365 110.683 28.157 110.683 32.1298C110.683 36.1025 114.141 39.323 118.405 39.323Z" stroke="#A0AEC0" stroke-width="1.5" stroke-linecap="round" stroke-linejoin="round"/>
<path d="M118.405 28.9329V32.1299" stroke="#A0AEC0" stroke-width="1.5" stroke-linecap="round" stroke-linejoin="round"/>
<path d="M118.406 35.3267H118.414" stroke="#A0AEC0" stroke-width="1.5" stroke-linecap="round" stroke-linejoin="round"/>
</g>
<g clip-path="url(#clip1_117_6001)">
<path d="M25.792 86.664L26.784 85.752C27.072 85.9867 27.376 86.248 27.696 86.536C28.016 86.824 28.32 87.112 28.608 87.4C28.896 87.6773 29.1253 87.928 29.296 88.152L28.256 89.224C28.0853 88.9893 27.8613 88.7227 27.584 88.424C27.3173 88.1253 27.024 87.8213 26.704 87.512C26.3947 87.2027 26.0907 86.92 25.792 86.664ZM26.72 100.072L26.4 98.728L26.736 98.184L29.808 95.784C29.872 95.9867 29.9573 96.216 30.064 96.472C30.1813 96.7173 30.2827 96.9093 30.368 97.048C29.6427 97.624 29.056 98.0933 28.608 98.456C28.16 98.808 27.808 99.0853 27.552 99.288C27.3067 99.4907 27.1253 99.6507 27.008 99.768C26.8907 99.8853 26.7947 99.9867 26.72 100.072ZM24.64 90.472H27.504V91.928H24.64V90.472ZM32.096 86.04H36.352V87.448H32.096V86.04ZM30.128 92.504H37.52V93.928H30.128V92.504ZM37.056 92.504H37.328L37.584 92.456L38.512 92.856C38.1813 93.944 37.7333 94.8987 37.168 95.72C36.6133 96.5413 35.9627 97.2507 35.216 97.848C34.48 98.4453 33.664 98.9467 32.768 99.352C31.8827 99.768 30.9493 100.099 29.968 100.344C29.904 100.141 29.8027 99.9067 29.664 99.64C29.5253 99.384 29.392 99.176 29.264 99.016C30.16 98.8347 31.0187 98.5733 31.84 98.232C32.672 97.88 33.4293 97.448 34.112 96.936C34.7947 96.4133 35.3867 95.8053 35.888 95.112C36.4 94.408 36.7893 93.6187 37.056 92.744V92.504ZM31.952 93.624C32.368 94.5413 32.9333 95.3627 33.648 96.088C34.3733 96.8133 35.2267 97.4267 36.208 97.928C37.1893 98.4293 38.2827 98.7973 39.488 99.032C39.3813 99.1387 39.2693 99.272 39.152 99.432C39.0347 99.592 38.9227 99.752 38.816 99.912C38.7093 100.083 38.624 100.237 38.56 100.376C36.6933 99.928 35.0987 99.1707 33.776 98.104C32.464 97.0267 31.4293 95.6827 30.672 94.072L31.952 93.624ZM31.712 86.04H33.12V87.848C33.12 88.36 33.0453 88.888 32.896 89.432C32.7573 89.9653 32.4853 90.4773 32.08 90.968C31.6747 91.448 31.088 91.8693 30.32 92.232C30.256 92.1253 30.16 92.0027 30.032 91.864C29.9147 91.7147 29.792 91.5707 29.664 91.432C29.536 91.2933 29.424 91.192 29.328 91.128C30.0213 90.8187 30.5333 90.4827 30.864 90.12C31.2053 89.7467 31.4293 89.3627 31.536 88.968C31.6533 88.5733 31.712 88.184 31.712 87.8V86.04ZM35.648 86.04H37.088V89.672C37.088 89.896 37.104 90.056 37.136 90.152C37.168 90.248 37.248 90.296 37.376 90.296C37.44 90.296 37.536 90.296 37.664 90.296C37.792 90.296 37.92 90.296 38.048 90.296C38.1867 90.296 38.288 90.296 38.352 90.296C38.4693 90.296 38.608 90.2907 38.768 90.28C38.928 90.2587 39.056 90.232 39.152 90.2C39.1733 90.392 39.1947 90.6107 39.216 90.856C39.2373 91.1013 39.2587 91.3093 39.28 91.48C39.1733 91.5227 39.0347 91.5493 38.864 91.56C38.704 91.5707 38.544 91.576 38.384 91.576C38.2987 91.576 38.176 91.576 38.016 91.576C37.8667 91.576 37.7173 91.576 37.568 91.576C37.4187 91.576 37.312 91.576 37.248 91.576C36.8107 91.576 36.4747 91.512 36.24 91.384C36.016 91.256 35.8613 91.048 35.776 90.76C35.6907 90.472 35.648 90.0987 35.648 89.64V86.04ZM26.72 100.072C26.688 99.944 26.624 99.8 26.528 99.64C26.4427 99.48 26.3467 99.32 26.24 99.16C26.1333 99 26.032 98.8773 25.936 98.792C26.0533 98.7067 26.1707 98.5947 26.288 98.456C26.416 98.3173 26.5227 98.152 26.608 97.96C26.6933 97.7573 26.736 97.528 26.736 97.272V90.472H28.208V98.44C28.208 98.44 28.1333 98.4987 27.984 98.616C27.8347 98.7227 27.664 98.8613 27.472 99.032C27.28 99.2133 27.104 99.3947 26.944 99.576C26.7947 99.768 26.72 99.9333 26.72 100.072ZM50.812 87.128V88.344H53.132V87.128H50.812ZM47.148 87.128V88.344H49.42V87.128H47.148ZM43.532 87.128V88.344H45.756V87.128H43.532ZM42.092 86.088H54.668V89.4H42.092V86.088ZM41.372 90.216H55.068V91.352H41.372V90.216ZM47.452 89.064L49.004 89.16C48.9293 89.7253 48.828 90.3227 48.7 90.952C48.5827 91.5813 48.4653 92.1253 48.348 92.584H46.94C47.004 92.264 47.068 91.9067 47.132 91.512C47.196 91.1067 47.2547 90.6907 47.308 90.264C47.3613 89.8373 47.4093 89.4373 47.452 89.064ZM41.164 98.792H55.484V99.896H41.164V98.792ZM43.948 93.896H52.636V94.728H43.948V93.896ZM44.012 95.512H52.604V96.328H44.012V95.512ZM44.076 97.144H52.684V97.976H44.076V97.144ZM43.196 92.168H53.372V99.4H51.884V93.128H44.62V99.4H43.196V92.168ZM57.48 86.232H62.648V87.544H57.48V86.232ZM57.128 91.416H63.224V92.776H57.128V91.416ZM59.656 92.04H61.112V98.648C61.112 99.032 61.064 99.3307 60.968 99.544C60.8827 99.768 60.7067 99.9387 60.44 100.056C60.184 100.173 59.864 100.243 59.48 100.264C59.1067 100.296 58.6427 100.312 58.088 100.312C58.0667 100.099 58.008 99.8533 57.912 99.576C57.8267 99.3093 57.7307 99.0747 57.624 98.872C58.008 98.8827 58.3653 98.888 58.696 98.888C59.0267 98.888 59.2453 98.8827 59.352 98.872C59.4693 98.872 59.5493 98.856 59.592 98.824C59.6347 98.792 59.656 98.728 59.656 98.632V92.04ZM62.184 86.232H62.504L62.776 86.152L63.688 86.776C63.432 87.192 63.1387 87.6187 62.808 88.056C62.488 88.4933 62.152 88.9093 61.8 89.304C61.448 89.688 61.1013 90.024 60.76 90.312C60.664 90.1733 60.5307 90.0187 60.36 89.848C60.2 89.6773 60.056 89.5387 59.928 89.432C60.2053 89.176 60.488 88.8827 60.776 88.552C61.064 88.2107 61.3307 87.8587 61.576 87.496C61.832 87.1227 62.0347 86.792 62.184 86.504V86.232ZM62.792 91.416H63L63.208 91.368L64.136 91.608C63.944 92.248 63.736 92.904 63.512 93.576C63.288 94.2373 63.08 94.792 62.888 95.24L61.752 94.968C61.8693 94.6907 61.9867 94.3653 62.104 93.992C62.232 93.608 62.3547 93.2133 62.472 92.808C62.5893 92.392 62.696 91.9973 62.792 91.624V91.416ZM57.864 89.464L58.68 88.488C59.0747 88.7333 59.5067 89.0053 59.976 89.304C60.4453 89.6027 60.8987 89.896 61.336 90.184C61.7733 90.472 62.136 90.728 62.424 90.952L61.576 92.072C61.2987 91.8373 60.9467 91.5707 60.52 91.272C60.0933 90.9627 59.6453 90.648 59.176 90.328C58.7067 90.008 58.2693 89.72 57.864 89.464ZM63.96 86.168H72.024V87.496H63.96V86.168ZM67.352 86.84L69.016 87.048C68.8667 87.528 68.712 88.008 68.552 88.488C68.392 88.9573 68.2373 89.3573 68.088 89.688L66.792 89.432C66.8987 89.0587 67.0053 88.632 67.112 88.152C67.2187 87.6613 67.2987 87.224 67.352 86.84ZM67.192 91.208H68.616V94.296C68.616 94.808 68.5627 95.336 68.456 95.88C68.3493 96.424 68.136 96.9627 67.816 97.496C67.5067 98.0187 67.048 98.5147 66.44 98.984C65.8427 99.4533 65.0373 99.88 64.024 100.264C63.9387 100.104 63.8053 99.9173 63.624 99.704C63.4427 99.5013 63.2667 99.3307 63.096 99.192C64.024 98.8827 64.76 98.5307 65.304 98.136C65.848 97.7307 66.2533 97.3093 66.52 96.872C66.7867 96.424 66.9627 95.9813 67.048 95.544C67.144 95.096 67.192 94.6747 67.192 94.28V91.208ZM68.184 97.736L69.176 96.824C69.496 97.0693 69.8373 97.3467 70.2 97.656C70.5733 97.9547 70.9253 98.2533 71.256 98.552C71.5973 98.84 71.8693 99.096 72.072 99.32L71.032 100.36C70.84 100.125 70.5787 99.8533 70.248 99.544C69.928 99.2453 69.5867 98.936 69.224 98.616C68.8613 98.296 68.5147 98.0027 68.184 97.736ZM64.52 88.904H71.4V96.536H69.928V90.28H65.928V96.584H64.52V88.904ZM73.748 96.456H88.116V97.688H73.748V96.456ZM77.172 91.8V92.584H84.9V91.8H77.172ZM77.172 93.496V94.296H84.9V93.496H77.172ZM77.172 90.136V90.888H84.9V90.136H77.172ZM75.636 89.176H86.484V95.24H75.636V89.176ZM83.012 95H84.564V100.312H83.012V95ZM75.572 86.616H80.676V87.832H75.572V86.616ZM81.812 86.616H88.02V87.832H81.812V86.616ZM75.764 85.4L77.188 85.784C76.868 86.488 76.4733 87.1707 76.004 87.832C75.5347 88.4933 75.06 89.048 74.58 89.496C74.4947 89.4107 74.3773 89.3147 74.228 89.208C74.0787 89.1013 73.924 89 73.764 88.904C73.6147 88.7973 73.476 88.712 73.348 88.648C73.8493 88.2533 74.3133 87.768 74.74 87.192C75.1667 86.6053 75.508 86.008 75.764 85.4ZM82.164 85.4L83.604 85.736C83.3373 86.4293 82.9853 87.0907 82.548 87.72C82.1213 88.3387 81.6787 88.8613 81.22 89.288C81.124 89.2027 80.9907 89.1173 80.82 89.032C80.66 88.936 80.4947 88.8453 80.324 88.76C80.164 88.6747 80.02 88.6053 79.892 88.552C80.372 88.168 80.8147 87.6987 81.22 87.144C81.6253 86.5787 81.94 85.9973 82.164 85.4ZM76.42 87.576L77.684 87.144C77.876 87.3893 78.068 87.672 78.26 87.992C78.4627 88.3013 78.6067 88.5787 78.692 88.824L77.38 89.288C77.2947 89.064 77.1613 88.7867 76.98 88.456C76.7987 88.1253 76.612 87.832 76.42 87.576ZM83.284 87.544L84.5 87.016C84.756 87.2613 85.0173 87.5493 85.284 87.88C85.5613 88.2 85.7747 88.4827 85.924 88.728L84.644 89.304C84.516 89.0587 84.324 88.7707 84.068 88.44C83.812 88.0987 83.5507 87.8 83.284 87.544ZM77.716 94.984H79.236V96.392C79.236 96.744 79.1773 97.1067 79.06 97.48C78.9533 97.8427 78.7453 98.1947 78.436 98.536C78.1373 98.8773 77.7053 99.2027 77.14 99.512C76.5747 99.8213 75.8387 100.104 74.932 100.36C74.8253 100.2 74.6813 100.008 74.5 99.784C74.3187 99.56 74.1427 99.3787 73.972 99.24C74.804 99.048 75.4653 98.84 75.956 98.616C76.4467 98.3813 76.8147 98.136 77.06 97.88C77.316 97.6133 77.4867 97.352 77.572 97.096C77.668 96.8293 77.716 96.5787 77.716 96.344V94.984ZM92.256 91.464H101.184V92.968H92.256V91.464ZM100.688 91.464H102.272C102.272 91.464 102.267 91.512 102.256 91.608C102.256 91.6933 102.256 91.7893 102.256 91.896C102.256 92.0027 102.251 92.088 102.24 92.152C102.187 93.368 102.128 94.408 102.064 95.272C102.011 96.1253 101.947 96.84 101.872 97.416C101.808 97.9813 101.728 98.4293 101.632 98.76C101.536 99.0907 101.413 99.336 101.264 99.496C101.083 99.72 100.885 99.8747 100.672 99.96C100.469 100.056 100.224 100.12 99.936 100.152C99.6587 100.173 99.296 100.184 98.848 100.184C98.4 100.184 97.9307 100.173 97.44 100.152C97.4293 99.928 97.376 99.672 97.28 99.384C97.1947 99.096 97.0827 98.8453 96.944 98.632C97.4347 98.6747 97.888 98.7013 98.304 98.712C98.7307 98.712 99.04 98.712 99.232 98.712C99.5307 98.712 99.7493 98.648 99.888 98.52C100.027 98.3707 100.144 98.056 100.24 97.576C100.336 97.096 100.416 96.3867 100.48 95.448C100.555 94.4987 100.624 93.2613 100.688 91.736V91.464ZM94.272 85.768L95.888 86.216C95.5253 87.1227 95.088 87.9973 94.576 88.84C94.0747 89.672 93.5307 90.44 92.944 91.144C92.3573 91.848 91.7493 92.4613 91.12 92.984C91.024 92.8667 90.896 92.7387 90.736 92.6C90.576 92.4507 90.4107 92.3013 90.24 92.152C90.08 92.0027 89.9413 91.8853 89.824 91.8C90.4533 91.3413 91.0453 90.7973 91.6 90.168C92.1653 89.5387 92.6773 88.8507 93.136 88.104C93.5947 87.3467 93.9733 86.568 94.272 85.768ZM100.08 85.736C100.325 86.2587 100.624 86.7973 100.976 87.352C101.328 87.896 101.707 88.4293 102.112 88.952C102.517 89.4747 102.939 89.96 103.376 90.408C103.813 90.8453 104.24 91.2293 104.656 91.56C104.539 91.656 104.4 91.7787 104.24 91.928C104.08 92.0773 103.931 92.232 103.792 92.392C103.653 92.552 103.536 92.7013 103.44 92.84C103.013 92.4453 102.581 92.0027 102.144 91.512C101.707 91.0107 101.275 90.472 100.848 89.896C100.432 89.3093 100.037 88.712 99.664 88.104C99.2907 87.496 98.96 86.888 98.672 86.28L100.08 85.736ZM95.232 91.896H96.832C96.736 92.7813 96.5973 93.64 96.416 94.472C96.2347 95.304 95.9467 96.0933 95.552 96.84C95.1573 97.5867 94.608 98.264 93.904 98.872C93.2 99.4693 92.2773 99.976 91.136 100.392C91.072 100.253 90.9867 100.104 90.88 99.944C90.7733 99.784 90.656 99.624 90.528 99.464C90.4107 99.3147 90.2933 99.1867 90.176 99.08C91.232 98.728 92.08 98.296 92.72 97.784C93.36 97.272 93.8453 96.7013 94.176 96.072C94.5173 95.432 94.7573 94.76 94.896 94.056C95.0453 93.352 95.1573 92.632 95.232 91.896ZM115.02 91.176H119.676V92.616H115.02V91.176ZM114.3 91.176H115.788V98.008C115.788 98.3173 115.836 98.52 115.932 98.616C116.039 98.7013 116.263 98.744 116.604 98.744C116.679 98.744 116.812 98.744 117.004 98.744C117.207 98.744 117.425 98.744 117.66 98.744C117.895 98.744 118.119 98.744 118.332 98.744C118.545 98.744 118.7 98.744 118.796 98.744C119.02 98.744 119.185 98.68 119.292 98.552C119.409 98.4133 119.489 98.1573 119.532 97.784C119.585 97.4107 119.628 96.8507 119.66 96.104C119.777 96.1893 119.916 96.2747 120.076 96.36C120.236 96.4453 120.401 96.52 120.572 96.584C120.743 96.648 120.897 96.696 121.036 96.728C120.983 97.6133 120.887 98.3067 120.748 98.808C120.609 99.2987 120.396 99.6453 120.108 99.848C119.82 100.061 119.42 100.168 118.908 100.168C118.833 100.168 118.711 100.168 118.54 100.168C118.369 100.168 118.177 100.168 117.964 100.168C117.751 100.168 117.537 100.168 117.324 100.168C117.111 100.168 116.924 100.168 116.764 100.168C116.604 100.168 116.487 100.168 116.412 100.168C115.868 100.168 115.441 100.104 115.132 99.976C114.833 99.8587 114.62 99.64 114.492 99.32C114.364 99.0107 114.3 98.5733 114.3 98.008V91.176ZM114.236 86.216H120.428V93.672H118.956V87.672H114.236V86.216ZM106.668 89.048H113.212V100.056H111.98V90.328H107.852V100.264H106.668V89.048ZM107.292 95.496H112.572V96.584H107.292V95.496ZM107.292 98.008H112.572V99.208H107.292V98.008ZM106.316 86.104H113.548V87.448H106.316V86.104ZM108.556 86.424H109.58V90.008H108.556V86.424ZM110.396 86.424H111.452V90.008H110.396V86.424ZM108.78 89.992H109.548V91.608C109.548 91.9173 109.516 92.2587 109.452 92.632C109.399 92.9947 109.292 93.352 109.132 93.704C108.972 94.056 108.743 94.376 108.444 94.664C108.391 94.5893 108.3 94.4987 108.172 94.392C108.044 94.2747 107.932 94.1947 107.836 94.152C108.113 93.896 108.316 93.624 108.444 93.336C108.572 93.0373 108.657 92.7387 108.7 92.44C108.753 92.1413 108.78 91.8587 108.78 91.592V89.992ZM110.284 89.992H111.052V93.16C111.052 93.256 111.063 93.32 111.084 93.352C111.105 93.3733 111.153 93.384 111.228 93.384C111.249 93.384 111.292 93.384 111.356 93.384C111.42 93.384 111.484 93.384 111.548 93.384C111.612 93.384 111.66 93.384 111.692 93.384C111.82 93.384 111.895 93.368 111.916 93.336C112.001 93.4107 112.108 93.4747 112.236 93.528C112.375 93.5813 112.508 93.624 112.636 93.656C112.583 93.848 112.492 93.9867 112.364 94.072C112.247 94.1573 112.065 94.2 111.82 94.2C111.788 94.2 111.724 94.2 111.628 94.2C111.532 94.2 111.436 94.2 111.34 94.2C111.255 94.2 111.191 94.2 111.148 94.2C110.817 94.2 110.588 94.136 110.46 94.008C110.343 93.8693 110.284 93.5867 110.284 93.16V89.992Z" fill="#111827"/>
<g clip-path="url(#clip2_117_6001)">
<path fill-rule="evenodd" clip-rule="evenodd" d="M24 141C24 134.373 29.3726 129 36 129H88C94.6274 129 100 134.373 100 141V165C100 171.627 94.6274 177 88 177H36C29.3726 177 24 171.627 24 165V141Z" fill="#FAFAFA"/>
<path d="M45.695 150.837H51.35V151.76H45.695V150.837ZM48.88 148.12L49.517 147.756C49.699 147.964 49.8853 148.194 50.076 148.445C50.2667 148.696 50.4443 148.939 50.609 149.173C50.7823 149.407 50.9167 149.615 51.012 149.797L50.323 150.239C50.2363 150.057 50.1107 149.84 49.946 149.589C49.79 149.338 49.6167 149.086 49.426 148.835C49.244 148.575 49.062 148.337 48.88 148.12ZM40.924 148.224V151.435H44.538V148.224H40.924ZM40.157 147.522H45.318V152.15H40.157V147.522ZM41.145 148.887L41.626 148.77C41.7387 149.082 41.834 149.429 41.912 149.81C41.9987 150.183 42.0507 150.499 42.068 150.759L41.548 150.902C41.5393 150.633 41.496 150.313 41.418 149.94C41.3487 149.559 41.2577 149.208 41.145 148.887ZM41.639 156.453L42.263 156.388C42.3237 156.743 42.3713 157.133 42.406 157.558C42.4407 157.974 42.4537 158.334 42.445 158.637L41.769 158.715C41.7863 158.412 41.782 158.052 41.756 157.636C41.73 157.211 41.691 156.817 41.639 156.453ZM42.913 156.453L43.511 156.323C43.6323 156.652 43.7363 157.008 43.823 157.389C43.9097 157.77 43.966 158.095 43.992 158.364L43.329 158.52C43.3203 158.243 43.277 157.909 43.199 157.519C43.121 157.129 43.0257 156.774 42.913 156.453ZM44.226 156.375L44.837 156.18C44.9757 156.431 45.097 156.709 45.201 157.012C45.3137 157.307 45.3873 157.562 45.422 157.779L44.772 158.026C44.7373 157.801 44.668 157.536 44.564 157.233C44.46 156.921 44.3473 156.635 44.226 156.375ZM40.482 156.154L41.132 156.44C41.002 156.795 40.8503 157.198 40.677 157.649C40.5037 158.1 40.3173 158.485 40.118 158.806L39.429 158.481C39.5677 158.273 39.702 158.035 39.832 157.766C39.962 157.489 40.0833 157.211 40.196 156.934C40.3087 156.648 40.404 156.388 40.482 156.154ZM43.823 148.757L44.408 148.978C44.2953 149.316 44.174 149.68 44.044 150.07C43.9227 150.451 43.8057 150.772 43.693 151.032L43.251 150.85C43.3203 150.668 43.3897 150.456 43.459 150.213C43.537 149.962 43.6063 149.706 43.667 149.446C43.7363 149.186 43.7883 148.956 43.823 148.757ZM39.78 155.023C40.2567 154.997 40.8027 154.971 41.418 154.945C42.0333 154.91 42.6877 154.876 43.381 154.841C44.083 154.806 44.785 154.767 45.487 154.724L45.474 155.517C44.4513 155.586 43.4417 155.656 42.445 155.725C41.457 155.786 40.5903 155.842 39.845 155.894L39.78 155.023ZM40.066 153.086H45.292V153.879H40.066V153.086ZM42.458 147.899H43.095V151.864H43.199V155.205H42.341V151.864H42.458V147.899ZM48.672 151.383C48.828 152.371 49.036 153.307 49.296 154.191C49.5647 155.075 49.8983 155.868 50.297 156.57C50.7043 157.263 51.1853 157.818 51.74 158.234C51.6707 158.286 51.5927 158.355 51.506 158.442C51.4193 158.537 51.337 158.628 51.259 158.715C51.181 158.81 51.116 158.901 51.064 158.988C50.5007 158.503 50.0153 157.883 49.608 157.129C49.2007 156.366 48.8627 155.508 48.594 154.555C48.334 153.602 48.1217 152.583 47.957 151.5L48.672 151.383ZM47.879 147.093H48.737V150.044C48.737 150.737 48.7067 151.461 48.646 152.215C48.5853 152.969 48.4597 153.736 48.269 154.516C48.087 155.296 47.814 156.063 47.45 156.817C47.086 157.571 46.5963 158.295 45.981 158.988C45.8943 158.893 45.7773 158.793 45.63 158.689C45.4913 158.585 45.357 158.494 45.227 158.416C45.825 157.757 46.3017 157.073 46.657 156.362C47.0123 155.643 47.2767 154.919 47.45 154.191C47.632 153.463 47.749 152.748 47.801 152.046C47.853 151.335 47.879 150.668 47.879 150.044V147.093ZM60.386 147.093H61.374C61.374 148.02 61.3567 148.948 61.322 149.875C61.296 150.802 61.2267 151.708 61.114 152.592C61.0013 153.476 60.8193 154.317 60.568 155.114C60.3253 155.903 59.9873 156.631 59.554 157.298C59.1207 157.965 58.5617 158.546 57.877 159.04C57.799 158.927 57.6863 158.806 57.539 158.676C57.4003 158.546 57.266 158.442 57.136 158.364C57.7947 157.896 58.3277 157.35 58.735 156.726C59.151 156.102 59.4717 155.417 59.697 154.672C59.9223 153.918 60.0827 153.125 60.178 152.293C60.2733 151.461 60.3297 150.607 60.347 149.732C60.373 148.848 60.386 147.968 60.386 147.093ZM61.257 151.045C61.2917 151.288 61.348 151.63 61.426 152.072C61.504 152.514 61.621 153.017 61.777 153.58C61.933 154.143 62.141 154.72 62.401 155.309C62.6697 155.89 63.0077 156.444 63.415 156.973C63.8223 157.493 64.312 157.939 64.884 158.312C64.754 158.399 64.624 158.507 64.494 158.637C64.364 158.776 64.2557 158.906 64.169 159.027C63.571 158.62 63.064 158.134 62.648 157.571C62.232 157.008 61.8897 156.41 61.621 155.777C61.3523 155.136 61.1357 154.512 60.971 153.905C60.8063 153.298 60.6807 152.752 60.594 152.267C60.5073 151.773 60.438 151.392 60.386 151.123L61.257 151.045ZM54.146 147.925L54.796 147.327C55.0127 147.509 55.2467 147.713 55.498 147.938C55.758 148.163 56.0007 148.384 56.226 148.601C56.4513 148.818 56.6377 149.004 56.785 149.16L56.096 149.875C55.9573 149.71 55.7753 149.515 55.55 149.29C55.3247 149.056 55.0863 148.822 54.835 148.588C54.5923 148.345 54.3627 148.124 54.146 147.925ZM54.926 158.52L54.744 157.61L55.03 157.194L57.656 155.439C57.682 155.569 57.7253 155.716 57.786 155.881C57.8467 156.037 57.8987 156.163 57.942 156.258C57.318 156.691 56.8153 157.042 56.434 157.311C56.0613 157.58 55.771 157.792 55.563 157.948C55.3637 158.104 55.2163 158.221 55.121 158.299C55.0343 158.386 54.9693 158.459 54.926 158.52ZM52.911 151.162H55.745V152.098H52.911V151.162ZM54.926 158.52C54.8913 158.451 54.8437 158.368 54.783 158.273C54.7223 158.186 54.6573 158.1 54.588 158.013C54.5187 157.926 54.4493 157.857 54.38 157.805C54.5187 157.71 54.6703 157.558 54.835 157.35C55.0083 157.133 55.095 156.869 55.095 156.557V151.162H56.044V157.272C56.044 157.272 56.005 157.302 55.927 157.363C55.8577 157.424 55.7667 157.502 55.654 157.597C55.5413 157.692 55.4287 157.801 55.316 157.922C55.2033 158.035 55.108 158.143 55.03 158.247C54.9607 158.351 54.926 158.442 54.926 158.52Z" fill="#111827"/>
<mask id="mask1_117_6001" style="mask-type:luminance" maskUnits="userSpaceOnUse" x="70" y="145" width="15" height="16">
<path fill-rule="evenodd" clip-rule="evenodd" d="M85 145.5L85 160.5L70 160.5L70 145.5L85 145.5Z" fill="white"/>
</mask>
<g mask="url(#mask1_117_6001)">
<path d="M79.375 149.25L74.875 153.75L79.375 158.25" stroke="#A0AEC0" stroke-width="2" stroke-linecap="round" stroke-linejoin="round"/>
</g>
</g>
<g clip-path="url(#clip3_117_6001)">
<path fill-rule="evenodd" clip-rule="evenodd" d="M137 141C137 134.373 142.373 129 149 129H201C207.627 129 213 134.373 213 141V165C213 171.627 207.627 177 201 177H149C142.373 177 137 171.627 137 165V141Z" fill="#FAFAFA"/>
<mask id="mask2_117_6001" style="mask-type:luminance" maskUnits="userSpaceOnUse" x="182" y="145" width="16" height="16">
<path fill-rule="evenodd" clip-rule="evenodd" d="M182.5 145.5H197.5V160.5H182.5V145.5Z" fill="white"/>
</mask>
<g mask="url(#mask2_117_6001)">
<path d="M193 148.875L188.5 153.375L193 157.875" stroke="#A0AEC0" stroke-width="2" stroke-linecap="round" stroke-linejoin="round"/>
</g>
</g>
</g>
<g clip-path="url(#clip4_117_6001)">
<path fill-rule="evenodd" clip-rule="evenodd" d="M285 28C285 21.3726 290.373 16 297 16H413C419.627 16 425 21.3726 425 28V38C425 44.6274 419.627 50 413 50H297C290.373 50 285 44.6274 285 38V28Z" fill="#FAFAFA"/>
<path d="M303.23 39V37.2H305.63V30.495H303.605V29.115C304.165 29.005 304.645 28.875 305.045 28.725C305.455 28.575 305.835 28.395 306.185 28.185H307.82V37.2H309.905V39H303.23ZM315.573 39.21C314.813 39.21 314.148 38.995 313.578 38.565C313.018 38.125 312.583 37.485 312.273 36.645C311.963 35.805 311.808 34.775 311.808 33.555C311.808 32.325 311.963 31.3 312.273 30.48C312.583 29.65 313.018 29.025 313.578 28.605C314.148 28.185 314.813 27.975 315.573 27.975C316.333 27.975 316.993 28.185 317.553 28.605C318.123 29.025 318.563 29.65 318.873 30.48C319.183 31.3 319.338 32.325 319.338 33.555C319.338 34.775 319.183 35.805 318.873 36.645C318.563 37.485 318.123 38.125 317.553 38.565C316.993 38.995 316.333 39.21 315.573 39.21ZM315.573 37.485C315.903 37.485 316.193 37.37 316.443 37.14C316.693 36.9 316.888 36.495 317.028 35.925C317.168 35.345 317.238 34.555 317.238 33.555C317.238 32.545 317.168 31.76 317.028 31.2C316.888 30.64 316.693 30.25 316.443 30.03C316.193 29.81 315.903 29.7 315.573 29.7C315.263 29.7 314.978 29.81 314.718 30.03C314.468 30.25 314.268 30.64 314.118 31.2C313.968 31.76 313.893 32.545 313.893 33.555C313.893 34.555 313.968 35.345 314.118 35.925C314.268 36.495 314.468 36.9 314.718 37.14C314.978 37.37 315.263 37.485 315.573 37.485ZM324.72 39.21C323.96 39.21 323.295 38.995 322.725 38.565C322.165 38.125 321.73 37.485 321.42 36.645C321.11 35.805 320.955 34.775 320.955 33.555C320.955 32.325 321.11 31.3 321.42 30.48C321.73 29.65 322.165 29.025 322.725 28.605C323.295 28.185 323.96 27.975 324.72 27.975C325.48 27.975 326.14 28.185 326.7 28.605C327.27 29.025 327.71 29.65 328.02 30.48C328.33 31.3 328.485 32.325 328.485 33.555C328.485 34.775 328.33 35.805 328.02 36.645C327.71 37.485 327.27 38.125 326.7 38.565C326.14 38.995 325.48 39.21 324.72 39.21ZM324.72 37.485C325.05 37.485 325.34 37.37 325.59 37.14C325.84 36.9 326.035 36.495 326.175 35.925C326.315 35.345 326.385 34.555 326.385 33.555C326.385 32.545 326.315 31.76 326.175 31.2C326.035 30.64 325.84 30.25 325.59 30.03C325.34 29.81 325.05 29.7 324.72 29.7C324.41 29.7 324.125 29.81 323.865 30.03C323.615 30.25 323.415 30.64 323.265 31.2C323.115 31.76 323.04 32.545 323.04 33.555C323.04 34.555 323.115 35.345 323.265 35.925C323.415 36.495 323.615 36.9 323.865 37.14C324.125 37.37 324.41 37.485 324.72 37.485ZM332.023 39L329.863 30.6H332.053L332.983 34.74C333.053 35.16 333.118 35.57 333.178 35.97C333.238 36.37 333.303 36.78 333.373 37.2H333.448C333.538 36.78 333.623 36.37 333.703 35.97C333.783 35.56 333.873 35.15 333.973 34.74L334.993 30.6H336.943L337.993 34.74C338.093 35.16 338.183 35.57 338.263 35.97C338.343 36.37 338.433 36.78 338.533 37.2H338.593C338.673 36.78 338.743 36.37 338.803 35.97C338.873 35.57 338.948 35.16 339.028 34.74L339.913 30.6H341.968L339.898 39H337.303L336.418 35.34C336.328 34.94 336.243 34.545 336.163 34.155C336.093 33.755 336.013 33.33 335.923 32.88H335.848C335.778 33.33 335.708 33.755 335.638 34.155C335.568 34.555 335.488 34.95 335.398 35.34L334.543 39H332.023ZM343.427 35.505V33.915H347.522V35.505H343.427ZM349.189 39V37.725C350.149 36.805 350.989 35.975 351.709 35.235C352.429 34.485 352.989 33.805 353.389 33.195C353.789 32.575 353.989 32 353.989 31.47C353.989 31.1 353.924 30.785 353.794 30.525C353.664 30.265 353.474 30.065 353.224 29.925C352.984 29.785 352.684 29.715 352.324 29.715C351.924 29.715 351.554 29.83 351.214 30.06C350.884 30.29 350.579 30.555 350.299 30.855L349.069 29.655C349.589 29.105 350.119 28.69 350.659 28.41C351.209 28.12 351.859 27.975 352.609 27.975C353.309 27.975 353.919 28.115 354.439 28.395C354.969 28.675 355.379 29.07 355.669 29.58C355.959 30.08 356.104 30.67 356.104 31.35C356.104 31.97 355.929 32.605 355.579 33.255C355.239 33.905 354.784 34.565 354.214 35.235C353.654 35.895 353.039 36.575 352.369 37.275C352.649 37.235 352.959 37.205 353.299 37.185C353.639 37.155 353.939 37.14 354.199 37.14H356.629V39H349.189ZM362.117 39.21C361.357 39.21 360.692 38.995 360.122 38.565C359.562 38.125 359.127 37.485 358.817 36.645C358.507 35.805 358.352 34.775 358.352 33.555C358.352 32.325 358.507 31.3 358.817 30.48C359.127 29.65 359.562 29.025 360.122 28.605C360.692 28.185 361.357 27.975 362.117 27.975C362.877 27.975 363.537 28.185 364.097 28.605C364.667 29.025 365.107 29.65 365.417 30.48C365.727 31.3 365.882 32.325 365.882 33.555C365.882 34.775 365.727 35.805 365.417 36.645C365.107 37.485 364.667 38.125 364.097 38.565C363.537 38.995 362.877 39.21 362.117 39.21ZM362.117 37.485C362.447 37.485 362.737 37.37 362.987 37.14C363.237 36.9 363.432 36.495 363.572 35.925C363.712 35.345 363.782 34.555 363.782 33.555C363.782 32.545 363.712 31.76 363.572 31.2C363.432 30.64 363.237 30.25 362.987 30.03C362.737 29.81 362.447 29.7 362.117 29.7C361.807 29.7 361.522 29.81 361.262 30.03C361.012 30.25 360.812 30.64 360.662 31.2C360.512 31.76 360.437 32.545 360.437 33.555C360.437 34.555 360.512 35.345 360.662 35.925C360.812 36.495 361.012 36.9 361.262 37.14C361.522 37.37 361.807 37.485 362.117 37.485ZM371.264 39.21C370.504 39.21 369.839 38.995 369.269 38.565C368.709 38.125 368.274 37.485 367.964 36.645C367.654 35.805 367.499 34.775 367.499 33.555C367.499 32.325 367.654 31.3 367.964 30.48C368.274 29.65 368.709 29.025 369.269 28.605C369.839 28.185 370.504 27.975 371.264 27.975C372.024 27.975 372.684 28.185 373.244 28.605C373.814 29.025 374.254 29.65 374.564 30.48C374.874 31.3 375.029 32.325 375.029 33.555C375.029 34.775 374.874 35.805 374.564 36.645C374.254 37.485 373.814 38.125 373.244 38.565C372.684 38.995 372.024 39.21 371.264 39.21ZM371.264 37.485C371.594 37.485 371.884 37.37 372.134 37.14C372.384 36.9 372.579 36.495 372.719 35.925C372.859 35.345 372.929 34.555 372.929 33.555C372.929 32.545 372.859 31.76 372.719 31.2C372.579 30.64 372.384 30.25 372.134 30.03C371.884 29.81 371.594 29.7 371.264 29.7C370.954 29.7 370.669 29.81 370.409 30.03C370.159 30.25 369.959 30.64 369.809 31.2C369.659 31.76 369.584 32.545 369.584 33.555C369.584 34.555 369.659 35.345 369.809 35.925C369.959 36.495 370.159 36.9 370.409 37.14C370.669 37.37 370.954 37.485 371.264 37.485ZM378.567 39L376.407 30.6H378.597L379.527 34.74C379.597 35.16 379.662 35.57 379.722 35.97C379.782 36.37 379.847 36.78 379.917 37.2H379.992C380.082 36.78 380.167 36.37 380.247 35.97C380.327 35.56 380.417 35.15 380.517 34.74L381.537 30.6H383.487L384.537 34.74C384.637 35.16 384.727 35.57 384.807 35.97C384.887 36.37 384.977 36.78 385.077 37.2H385.137C385.217 36.78 385.287 36.37 385.347 35.97C385.417 35.57 385.492 35.16 385.572 34.74L386.457 30.6H388.512L386.442 39H383.847L382.962 35.34C382.872 34.94 382.787 34.545 382.707 34.155C382.637 33.755 382.557 33.33 382.467 32.88H382.392C382.322 33.33 382.252 33.755 382.182 34.155C382.112 34.555 382.032 34.95 381.942 35.34L381.087 39H378.567Z" fill="#FAFAFA"/>
<mask id="mask3_117_6001" style="mask-type:luminance" maskUnits="userSpaceOnUse" x="393" y="25" width="15" height="16">
<path fill-rule="evenodd" clip-rule="evenodd" d="M393 25.5H408V40.5H393V25.5Z" fill="white"/>
</mask>
<g mask="url(#mask3_117_6001)">
<path d="M403.5 28.875L399 33.375L403.5 37.875" stroke="#A0AEC0" stroke-width="2" stroke-linecap="round" stroke-linejoin="round"/>
</g>
</g>
<g clip-path="url(#clip5_117_6001)">
<g clip-path="url(#clip6_117_6001)">
<path d="M36 241.5H403C409.351 241.5 414.5 246.649 414.5 253V285C414.5 291.351 409.351 296.5 403 296.5H36C29.6487 296.5 24.5 291.351 24.5 285V253C24.5 246.649 29.6487 241.5 36 241.5Z" fill="white" stroke="#168AFF"/>
</g>
<path d="M24.576 205.57L25.512 204.184C25.848 204.28 26.202 204.406 26.574 204.562C26.958 204.706 27.318 204.856 27.654 205.012C28.002 205.168 28.296 205.324 28.536 205.48L27.546 207.01C27.33 206.854 27.048 206.692 26.7 206.524C26.364 206.344 26.004 206.17 25.62 206.002C25.248 205.834 24.9 205.69 24.576 205.57ZM26.034 203.05L26.934 201.736C27.258 201.832 27.606 201.958 27.978 202.114C28.35 202.258 28.71 202.414 29.058 202.582C29.406 202.738 29.688 202.882 29.904 203.014L28.986 204.472C28.77 204.316 28.494 204.154 28.158 203.986C27.822 203.818 27.468 203.65 27.096 203.482C26.724 203.314 26.37 203.17 26.034 203.05ZM25.062 210.25C25.41 209.938 25.8 209.566 26.232 209.134C26.676 208.702 27.126 208.24 27.582 207.748C28.05 207.256 28.5 206.764 28.932 206.272L30.21 207.658C29.634 208.354 29.034 209.05 28.41 209.746C27.786 210.43 27.18 211.09 26.592 211.726L25.062 210.25ZM24.972 211.996H41.046V213.868H24.972V211.996ZM31.884 210.79H34.08V218.62H31.884V210.79ZM31.218 212.806L32.982 213.58C32.442 214.276 31.788 214.942 31.02 215.578C30.264 216.202 29.448 216.76 28.572 217.252C27.708 217.744 26.832 218.146 25.944 218.458C25.836 218.29 25.692 218.092 25.512 217.864C25.344 217.636 25.17 217.414 24.99 217.198C24.822 216.982 24.654 216.808 24.486 216.676C25.35 216.424 26.208 216.1 27.06 215.704C27.924 215.308 28.716 214.864 29.436 214.372C30.168 213.88 30.762 213.358 31.218 212.806ZM34.728 212.878C35.196 213.382 35.79 213.874 36.51 214.354C37.242 214.822 38.04 215.242 38.904 215.614C39.78 215.974 40.656 216.274 41.532 216.514C41.364 216.646 41.19 216.82 41.01 217.036C40.83 217.264 40.656 217.492 40.488 217.72C40.32 217.948 40.182 218.152 40.074 218.332C39.198 218.032 38.322 217.642 37.446 217.162C36.57 216.694 35.742 216.166 34.962 215.578C34.194 214.978 33.522 214.348 32.946 213.688L34.728 212.878ZM40.56 202.258V203.896H32.622V209.278H40.938V210.934H30.498V202.258H40.56ZM31.974 204.652H39.93V208.432H31.974V207.01H37.806V206.074H31.974V204.652ZM47.616 203.86H59.154V205.606H47.616V203.86ZM52.116 204.652L54.618 204.778C54.438 205.27 54.228 205.75 53.988 206.218C53.76 206.674 53.55 207.064 53.358 207.388L51.612 207.1C51.72 206.716 51.822 206.302 51.918 205.858C52.014 205.402 52.08 205 52.116 204.652ZM55.266 201.7L57.336 202.276C57.048 202.72 56.754 203.152 56.454 203.572C56.166 203.992 55.896 204.346 55.644 204.634L53.934 204.094C54.09 203.878 54.252 203.632 54.42 203.356C54.588 203.068 54.744 202.78 54.888 202.492C55.044 202.204 55.17 201.94 55.266 201.7ZM49.182 202.312L51 201.556C51.228 201.844 51.456 202.168 51.684 202.528C51.912 202.888 52.08 203.2 52.188 203.464L50.28 204.292C50.184 204.028 50.028 203.71 49.812 203.338C49.608 202.966 49.398 202.624 49.182 202.312ZM47.022 208.162V215.452H44.952V210.16H42.81V208.162H47.022ZM42.81 203.446L44.466 202.366C44.778 202.654 45.102 202.978 45.438 203.338C45.774 203.686 46.086 204.034 46.374 204.382C46.674 204.73 46.908 205.048 47.076 205.336L45.294 206.542C45.15 206.254 44.934 205.93 44.646 205.57C44.37 205.21 44.07 204.844 43.746 204.472C43.434 204.088 43.122 203.746 42.81 203.446ZM46.14 214.786C46.464 214.786 46.782 214.888 47.094 215.092C47.406 215.296 47.826 215.53 48.354 215.794C48.954 216.082 49.662 216.274 50.478 216.37C51.306 216.466 52.2 216.514 53.16 216.514C53.772 216.514 54.462 216.496 55.23 216.46C55.998 216.424 56.76 216.376 57.516 216.316C58.272 216.256 58.938 216.19 59.514 216.118C59.442 216.298 59.364 216.514 59.28 216.766C59.196 217.018 59.118 217.27 59.046 217.522C58.986 217.786 58.95 218.014 58.938 218.206C58.638 218.218 58.248 218.236 57.768 218.26C57.3 218.284 56.784 218.302 56.22 218.314C55.656 218.338 55.098 218.356 54.546 218.368C54.006 218.38 53.52 218.386 53.088 218.386C51.996 218.386 51.042 218.32 50.226 218.188C49.422 218.068 48.684 217.846 48.012 217.522C47.592 217.306 47.226 217.096 46.914 216.892C46.614 216.688 46.35 216.586 46.122 216.586C45.918 216.586 45.678 216.688 45.402 216.892C45.138 217.096 44.862 217.354 44.574 217.666C44.298 217.99 44.022 218.326 43.746 218.674L42.45 216.856C43.098 216.256 43.746 215.764 44.394 215.38C45.054 214.984 45.636 214.786 46.14 214.786ZM50.838 210.538V211.51H55.716V210.538H50.838ZM50.838 212.896V213.886H55.716V212.896H50.838ZM50.838 208.198V209.17H55.716V208.198H50.838ZM48.804 206.668H57.84V215.416H48.804V206.668ZM65.706 207.874H77.262V209.746H65.706V207.874ZM67.848 203.968H76.524V205.786H67.848V203.968ZM70.62 201.808H72.762V208.594H70.62V201.808ZM67.596 202.258L69.63 202.708C69.378 203.632 69.03 204.526 68.586 205.39C68.154 206.242 67.692 206.962 67.2 207.55C67.068 207.43 66.894 207.298 66.678 207.154C66.462 207.01 66.24 206.866 66.012 206.722C65.796 206.578 65.604 206.47 65.436 206.398C65.928 205.894 66.36 205.276 66.732 204.544C67.104 203.8 67.392 203.038 67.596 202.258ZM72.006 208.972H74.148V212.896C74.148 213.148 74.166 213.31 74.202 213.382C74.238 213.442 74.328 213.472 74.472 213.472C74.508 213.472 74.556 213.472 74.616 213.472C74.688 213.472 74.76 213.472 74.832 213.472C74.916 213.472 74.994 213.472 75.066 213.472C75.138 213.472 75.192 213.472 75.228 213.472C75.324 213.472 75.396 213.43 75.444 213.346C75.504 213.262 75.546 213.088 75.57 212.824C75.606 212.548 75.63 212.14 75.642 211.6C75.774 211.708 75.948 211.816 76.164 211.924C76.392 212.032 76.626 212.128 76.866 212.212C77.118 212.296 77.34 212.368 77.532 212.428C77.46 213.232 77.346 213.85 77.19 214.282C77.034 214.714 76.818 215.02 76.542 215.2C76.266 215.368 75.906 215.452 75.462 215.452C75.378 215.452 75.276 215.452 75.156 215.452C75.036 215.452 74.91 215.452 74.778 215.452C74.646 215.452 74.52 215.452 74.4 215.452C74.28 215.452 74.178 215.452 74.094 215.452C73.518 215.452 73.08 215.374 72.78 215.218C72.492 215.05 72.288 214.786 72.168 214.426C72.06 214.054 72.006 213.55 72.006 212.914V208.972ZM68.766 208.918H70.944C70.872 209.65 70.758 210.346 70.602 211.006C70.458 211.666 70.236 212.278 69.936 212.842C69.636 213.394 69.216 213.904 68.676 214.372C68.148 214.84 67.47 215.242 66.642 215.578C66.558 215.398 66.444 215.2 66.3 214.984C66.156 214.756 65.994 214.534 65.814 214.318C65.646 214.102 65.484 213.928 65.328 213.796C66.036 213.544 66.6 213.25 67.02 212.914C67.452 212.578 67.782 212.206 68.01 211.798C68.25 211.378 68.424 210.928 68.532 210.448C68.64 209.956 68.718 209.446 68.766 208.918ZM60.792 203.428L62.43 202.222C62.778 202.498 63.132 202.804 63.492 203.14C63.852 203.464 64.188 203.794 64.5 204.13C64.824 204.466 65.082 204.784 65.274 205.084L63.492 206.434C63.324 206.146 63.09 205.828 62.79 205.48C62.49 205.12 62.166 204.76 61.818 204.4C61.47 204.04 61.128 203.716 60.792 203.428ZM64.896 208.648V215.488H62.826V210.646H60.828V208.648H64.896ZM64.68 214.678C64.968 214.678 65.25 214.78 65.526 214.984C65.802 215.188 66.162 215.428 66.606 215.704C67.17 216.04 67.836 216.256 68.604 216.352C69.372 216.448 70.224 216.496 71.16 216.496C71.76 216.496 72.444 216.478 73.212 216.442C73.98 216.406 74.742 216.358 75.498 216.298C76.254 216.238 76.92 216.166 77.496 216.082C77.436 216.274 77.358 216.508 77.262 216.784C77.178 217.06 77.1 217.336 77.028 217.612C76.968 217.888 76.932 218.122 76.92 218.314C76.584 218.338 76.176 218.356 75.696 218.368C75.228 218.392 74.718 218.41 74.166 218.422C73.626 218.446 73.092 218.464 72.564 218.476C72.036 218.488 71.55 218.494 71.106 218.494C70.038 218.494 69.126 218.428 68.37 218.296C67.626 218.164 66.948 217.93 66.336 217.594C65.976 217.366 65.652 217.15 65.364 216.946C65.088 216.73 64.848 216.622 64.644 216.622C64.428 216.622 64.176 216.724 63.888 216.928C63.6 217.132 63.294 217.396 62.97 217.72C62.658 218.056 62.34 218.416 62.016 218.8L60.576 216.91C61.032 216.502 61.5 216.13 61.98 215.794C62.472 215.446 62.946 215.176 63.402 214.984C63.87 214.78 64.296 214.678 64.68 214.678ZM78.468 210.808C79.236 210.628 80.154 210.4 81.222 210.124C82.29 209.836 83.37 209.548 84.462 209.26L84.732 211.204C83.736 211.492 82.728 211.786 81.708 212.086C80.7 212.374 79.776 212.638 78.936 212.878L78.468 210.808ZM78.72 205.102H84.75V207.082H78.72V205.102ZM80.754 201.718H82.842V216.298C82.842 216.814 82.788 217.216 82.68 217.504C82.584 217.804 82.392 218.038 82.104 218.206C81.816 218.374 81.462 218.482 81.042 218.53C80.634 218.59 80.13 218.62 79.53 218.62C79.506 218.332 79.434 217.99 79.314 217.594C79.206 217.21 79.086 216.874 78.954 216.586C79.278 216.598 79.578 216.61 79.854 216.622C80.142 216.622 80.34 216.616 80.448 216.604C80.652 216.604 80.754 216.502 80.754 216.298V201.718ZM85.2 202.438H93.03V204.328H85.2V202.438ZM92.616 202.438H92.976L93.318 202.348L94.614 203.032C94.194 203.956 93.654 204.802 92.994 205.57C92.346 206.338 91.614 207.028 90.798 207.64C89.982 208.252 89.112 208.786 88.188 209.242C87.264 209.698 86.316 210.076 85.344 210.376C85.236 210.124 85.074 209.824 84.858 209.476C84.642 209.128 84.432 208.858 84.228 208.666C85.128 208.426 86.01 208.12 86.874 207.748C87.738 207.364 88.542 206.92 89.286 206.416C90.042 205.9 90.702 205.336 91.266 204.724C91.842 204.1 92.292 203.44 92.616 202.744V202.438ZM87.738 203.374C88.218 204.226 88.848 205 89.628 205.696C90.42 206.38 91.332 206.974 92.364 207.478C93.408 207.97 94.542 208.348 95.766 208.612C95.622 208.744 95.46 208.924 95.28 209.152C95.112 209.368 94.956 209.59 94.812 209.818C94.668 210.034 94.548 210.232 94.452 210.412C93.192 210.052 92.034 209.572 90.978 208.972C89.934 208.372 88.998 207.652 88.17 206.812C87.354 205.972 86.658 205.024 86.082 203.968L87.738 203.374ZM85.434 210.934H94.182V212.824H85.434V210.934ZM84.534 214.066H95.316V215.974H84.534V214.066ZM88.782 209.512H90.942V218.62H88.782V209.512Z" fill="#111827"/>
<mask id="mask4_117_6001" style="mask-type:luminance" maskUnits="userSpaceOnUse" x="99" y="199" width="20" height="20">
<path fill-rule="evenodd" clip-rule="evenodd" d="M99.2598 199.059H118.166V218.241H99.2598V199.059Z" fill="white"/>
</mask>
<g mask="url(#mask4_117_6001)">
<path fill-rule="evenodd" clip-rule="evenodd" d="M108.713 216.323C112.629 216.323 115.803 213.102 115.803 209.13C115.803 205.157 112.629 201.937 108.713 201.937C104.797 201.937 101.623 205.157 101.623 209.13C101.623 213.102 104.797 216.323 108.713 216.323Z" stroke="#A0AEC0" stroke-width="1.5" stroke-linecap="round" stroke-linejoin="round"/>
<path d="M108.713 205.933V209.13" stroke="#A0AEC0" stroke-width="1.5" stroke-linecap="round" stroke-linejoin="round"/>
<path d="M108.713 212.327H108.721" stroke="#A0AEC0" stroke-width="1.5" stroke-linecap="round" stroke-linejoin="round"/>
</g>
</g>
<g clip-path="url(#clip7_117_6001)">
<path d="M36 409.5H403C409.351 409.5 414.5 414.649 414.5 421V453C414.5 459.351 409.351 464.5 403 464.5H36C29.6487 464.5 24.5 459.351 24.5 453V421C24.5 414.649 29.6487 409.5 36 409.5Z" fill="white" stroke="#168AFF"/>
<mask id="mask5_117_6001" style="mask-type:luminance" maskUnits="userSpaceOnUse" x="165" y="427" width="21" height="20">
<path fill-rule="evenodd" clip-rule="evenodd" d="M165.5 427H185.5V447H165.5V427Z" fill="white"/>
</mask>
<g mask="url(#mask5_117_6001)">
<path d="M175.5 431.167L175.6 442.833" stroke="#168AFF" stroke-width="2" stroke-linecap="round" stroke-linejoin="round"/>
<path d="M169.667 437L181.333 437.1" stroke="#168AFF" stroke-width="2" stroke-linecap="round" stroke-linejoin="round"/>
</g>
<path d="M199.936 437.472L201.408 438.048C201.269 438.475 201.104 438.912 200.912 439.36C200.72 439.808 200.496 440.24 200.24 440.656C199.995 441.061 199.707 441.419 199.376 441.728L197.984 440.704C198.293 440.448 198.565 440.144 198.8 439.792C199.045 439.44 199.264 439.067 199.456 438.672C199.659 438.267 199.819 437.867 199.936 437.472ZM203.68 438.224L205.088 437.696C205.259 438.048 205.419 438.421 205.568 438.816C205.728 439.211 205.867 439.6 205.984 439.984C206.101 440.368 206.192 440.709 206.256 441.008L204.752 441.6C204.709 441.291 204.629 440.944 204.512 440.56C204.395 440.176 204.261 439.781 204.112 439.376C203.973 438.96 203.829 438.576 203.68 438.224ZM205.696 437.76L207.184 437.056C207.483 437.461 207.765 437.899 208.032 438.368C208.299 438.827 208.539 439.285 208.752 439.744C208.976 440.192 209.147 440.603 209.264 440.976L207.68 441.792C207.584 441.419 207.429 440.997 207.216 440.528C207.013 440.059 206.779 439.584 206.512 439.104C206.245 438.624 205.973 438.176 205.696 437.76ZM205.6 433.168C205.845 433.616 206.155 434.043 206.528 434.448C206.912 434.843 207.344 435.2 207.824 435.52C208.304 435.84 208.811 436.101 209.344 436.304C209.216 436.421 209.072 436.571 208.912 436.752C208.752 436.923 208.603 437.104 208.464 437.296C208.325 437.477 208.208 437.648 208.112 437.808C207.525 437.541 206.976 437.2 206.464 436.784C205.952 436.368 205.488 435.893 205.072 435.36C204.656 434.827 204.299 434.261 204 433.664L205.6 433.168ZM198.224 432.448H209.024V434.224H198.224V432.448ZM198.992 429.2H208.448V430.976H198.992V429.2ZM201.936 435.776H203.712V441.52C203.712 441.936 203.669 442.272 203.584 442.528C203.499 442.784 203.317 442.981 203.04 443.12C202.763 443.248 202.437 443.328 202.064 443.36C201.701 443.392 201.264 443.408 200.752 443.408C200.731 443.152 200.672 442.864 200.576 442.544C200.48 442.235 200.379 441.952 200.272 441.696C200.571 441.707 200.859 441.712 201.136 441.712C201.413 441.712 201.595 441.712 201.68 441.712C201.787 441.712 201.856 441.696 201.888 441.664C201.92 441.632 201.936 441.573 201.936 441.488V435.776ZM194.8 429.888L195.872 428.496C196.181 428.624 196.501 428.779 196.832 428.96C197.173 429.131 197.493 429.312 197.792 429.504C198.101 429.696 198.347 429.883 198.528 430.064L197.376 431.6C197.205 431.408 196.976 431.211 196.688 431.008C196.4 430.805 196.091 430.608 195.76 430.416C195.429 430.213 195.109 430.037 194.8 429.888ZM194.048 434.24L195.104 432.816C195.413 432.933 195.733 433.077 196.064 433.248C196.405 433.408 196.725 433.579 197.024 433.76C197.333 433.941 197.584 434.117 197.776 434.288L196.64 435.84C196.469 435.669 196.235 435.488 195.936 435.296C195.648 435.093 195.333 434.901 194.992 434.72C194.661 434.528 194.347 434.368 194.048 434.24ZM194.368 442.208C194.592 441.792 194.832 441.307 195.088 440.752C195.355 440.197 195.616 439.611 195.872 438.992C196.139 438.363 196.389 437.739 196.624 437.12L198.16 438.192C197.957 438.747 197.739 439.317 197.504 439.904C197.28 440.48 197.051 441.056 196.816 441.632C196.581 442.197 196.347 442.741 196.112 443.264L194.368 442.208ZM202.32 429.84L204.32 430.112C204.064 431.232 203.712 432.309 203.264 433.344C202.816 434.379 202.229 435.312 201.504 436.144C200.789 436.965 199.899 437.637 198.832 438.16C198.747 438.021 198.635 437.861 198.496 437.68C198.357 437.499 198.213 437.323 198.064 437.152C197.915 436.971 197.776 436.821 197.648 436.704C198.619 436.267 199.419 435.691 200.048 434.976C200.677 434.261 201.173 433.461 201.536 432.576C201.909 431.691 202.171 430.779 202.32 429.84ZM219.608 440.144H223.704V441.984H219.608V440.144ZM210.6 431.28H216.456V433.152H210.6V431.28ZM218.744 430.24H224.568V442.992H222.648V432.096H220.584V443.104H218.744V430.24ZM215.992 431.28H217.848C217.848 431.28 217.848 431.339 217.848 431.456C217.848 431.563 217.848 431.685 217.848 431.824C217.848 431.963 217.843 432.075 217.832 432.16C217.8 433.867 217.763 435.323 217.72 436.528C217.688 437.723 217.645 438.704 217.592 439.472C217.549 440.24 217.485 440.843 217.4 441.28C217.315 441.717 217.208 442.027 217.08 442.208C216.899 442.475 216.712 442.667 216.52 442.784C216.328 442.901 216.099 442.987 215.832 443.04C215.597 443.093 215.309 443.12 214.968 443.12C214.627 443.131 214.269 443.125 213.896 443.104C213.885 442.827 213.832 442.501 213.736 442.128C213.64 441.765 213.512 441.451 213.352 441.184C213.672 441.205 213.965 441.221 214.232 441.232C214.499 441.243 214.707 441.248 214.856 441.248C214.973 441.248 215.075 441.227 215.16 441.184C215.245 441.141 215.325 441.061 215.4 440.944C215.485 440.827 215.56 440.581 215.624 440.208C215.688 439.835 215.741 439.291 215.784 438.576C215.827 437.861 215.864 436.944 215.896 435.824C215.928 434.693 215.96 433.317 215.992 431.696V431.28ZM212.504 428.64H214.392C214.392 430.219 214.365 431.728 214.312 433.168C214.269 434.597 214.163 435.941 213.992 437.2C213.821 438.459 213.539 439.616 213.144 440.672C212.76 441.717 212.221 442.64 211.528 443.44C211.432 443.28 211.304 443.109 211.144 442.928C210.984 442.747 210.813 442.576 210.632 442.416C210.451 442.256 210.28 442.128 210.12 442.032C210.621 441.467 211.021 440.832 211.32 440.128C211.629 439.413 211.864 438.635 212.024 437.792C212.195 436.949 212.312 436.048 212.376 435.088C212.44 434.117 212.477 433.093 212.488 432.016C212.499 430.928 212.504 429.803 212.504 428.64ZM235.504 433.696H241.488V435.472H235.504V433.696ZM226.848 430H234.064V431.552H226.848V430ZM226.704 436.368H234.048V437.984H226.704V436.368ZM226.608 433.568H234.32V435.136H226.608V433.568ZM238.128 434.48H239.984V443.36H238.128V434.48ZM227.696 431.872L229.216 431.504C229.355 431.781 229.477 432.096 229.584 432.448C229.691 432.789 229.765 433.093 229.808 433.36L228.208 433.792C228.187 433.536 228.128 433.227 228.032 432.864C227.947 432.501 227.835 432.171 227.696 431.872ZM231.632 431.488L233.36 431.808C233.189 432.235 233.024 432.651 232.864 433.056C232.704 433.451 232.549 433.787 232.4 434.064L230.848 433.744C230.933 433.531 231.024 433.296 231.12 433.04C231.227 432.773 231.323 432.501 231.408 432.224C231.504 431.947 231.579 431.701 231.632 431.488ZM239.632 428.544L241.12 429.968C240.565 430.181 239.957 430.379 239.296 430.56C238.645 430.741 237.979 430.901 237.296 431.04C236.624 431.168 235.968 431.28 235.328 431.376C235.296 431.173 235.221 430.933 235.104 430.656C234.987 430.368 234.875 430.128 234.768 429.936C235.355 429.819 235.947 429.691 236.544 429.552C237.152 429.413 237.723 429.259 238.256 429.088C238.789 428.907 239.248 428.725 239.632 428.544ZM229.12 428.72L230.832 428.32C230.992 428.651 231.152 429.024 231.312 429.44C231.483 429.856 231.605 430.208 231.68 430.496L229.872 430.976C229.819 430.677 229.717 430.315 229.568 429.888C229.429 429.461 229.28 429.072 229.12 428.72ZM229.664 434.56H231.392V441.424C231.392 441.808 231.349 442.112 231.264 442.336C231.179 442.571 231.013 442.752 230.768 442.88C230.533 442.997 230.251 443.072 229.92 443.104C229.6 443.136 229.221 443.152 228.784 443.152C228.752 442.928 228.688 442.667 228.592 442.368C228.496 442.069 228.389 441.808 228.272 441.584C228.507 441.595 228.736 441.6 228.96 441.6C229.195 441.6 229.355 441.6 229.44 441.6C229.589 441.6 229.664 441.531 229.664 441.392V434.56ZM234.768 429.936H236.544V435.584C236.544 436.171 236.523 436.805 236.48 437.488C236.448 438.16 236.379 438.843 236.272 439.536C236.165 440.229 236.005 440.896 235.792 441.536C235.589 442.165 235.312 442.731 234.96 443.232C234.864 443.115 234.72 442.981 234.528 442.832C234.347 442.683 234.16 442.539 233.968 442.4C233.776 442.261 233.616 442.16 233.488 442.096C233.883 441.499 234.171 440.827 234.352 440.08C234.533 439.333 234.645 438.571 234.688 437.792C234.741 437.013 234.768 436.277 234.768 435.584V429.936ZM231.664 438.944L232.912 438.256C233.168 438.608 233.413 439.003 233.648 439.44C233.893 439.867 234.085 440.235 234.224 440.544L232.912 441.344C232.784 441.024 232.597 440.64 232.352 440.192C232.117 439.733 231.888 439.317 231.664 438.944ZM227.808 438.4L229.296 438.784C229.104 439.317 228.864 439.851 228.576 440.384C228.288 440.907 227.984 441.344 227.664 441.696C227.525 441.568 227.328 441.413 227.072 441.232C226.816 441.04 226.597 440.891 226.416 440.784C226.715 440.475 226.981 440.107 227.216 439.68C227.461 439.253 227.659 438.827 227.808 438.4ZM242.712 431.84L243.544 430.608C243.843 430.693 244.157 430.805 244.488 430.944C244.829 431.072 245.149 431.205 245.448 431.344C245.757 431.483 246.019 431.621 246.232 431.76L245.352 433.12C245.16 432.981 244.909 432.837 244.6 432.688C244.301 432.528 243.981 432.373 243.64 432.224C243.309 432.075 243 431.947 242.712 431.84ZM244.008 429.6L244.808 428.432C245.096 428.517 245.405 428.629 245.736 428.768C246.067 428.896 246.387 429.035 246.696 429.184C247.005 429.323 247.256 429.451 247.448 429.568L246.632 430.864C246.44 430.725 246.195 430.581 245.896 430.432C245.597 430.283 245.283 430.133 244.952 429.984C244.621 429.835 244.307 429.707 244.008 429.6ZM243.144 436C243.453 435.723 243.8 435.392 244.184 435.008C244.579 434.624 244.979 434.213 245.384 433.776C245.8 433.339 246.2 432.901 246.584 432.464L247.72 433.696C247.208 434.315 246.675 434.933 246.12 435.552C245.565 436.16 245.027 436.747 244.504 437.312L243.144 436ZM243.064 437.552H257.352V439.216H243.064V437.552ZM249.208 436.48H251.16V443.44H249.208V436.48ZM248.616 438.272L250.184 438.96C249.704 439.579 249.123 440.171 248.44 440.736C247.768 441.291 247.043 441.787 246.264 442.224C245.496 442.661 244.717 443.019 243.928 443.296C243.832 443.147 243.704 442.971 243.544 442.768C243.395 442.565 243.24 442.368 243.08 442.176C242.931 441.984 242.781 441.829 242.632 441.712C243.4 441.488 244.163 441.2 244.92 440.848C245.688 440.496 246.392 440.101 247.032 439.664C247.683 439.227 248.211 438.763 248.616 438.272ZM251.736 438.336C252.152 438.784 252.68 439.221 253.32 439.648C253.971 440.064 254.68 440.437 255.448 440.768C256.227 441.088 257.005 441.355 257.784 441.568C257.635 441.685 257.48 441.84 257.32 442.032C257.16 442.235 257.005 442.437 256.856 442.64C256.707 442.843 256.584 443.024 256.488 443.184C255.709 442.917 254.931 442.571 254.152 442.144C253.373 441.728 252.637 441.259 251.944 440.736C251.261 440.203 250.664 439.643 250.152 439.056L251.736 438.336ZM256.92 428.896V430.352H249.864V435.136H257.256V436.608H247.976V428.896H256.92ZM249.288 431.024H256.36V434.384H249.288V433.12H254.472V432.288H249.288V431.024ZM263.392 430.32H273.648V431.872H263.392V430.32ZM267.392 431.024L269.616 431.136C269.456 431.573 269.269 432 269.056 432.416C268.853 432.821 268.667 433.168 268.496 433.456L266.944 433.2C267.04 432.859 267.131 432.491 267.216 432.096C267.301 431.691 267.36 431.333 267.392 431.024ZM270.192 428.4L272.032 428.912C271.776 429.307 271.515 429.691 271.248 430.064C270.992 430.437 270.752 430.752 270.528 431.008L269.008 430.528C269.147 430.336 269.291 430.117 269.44 429.872C269.589 429.616 269.728 429.36 269.856 429.104C269.995 428.848 270.107 428.613 270.192 428.4ZM264.784 428.944L266.4 428.272C266.603 428.528 266.805 428.816 267.008 429.136C267.211 429.456 267.36 429.733 267.456 429.968L265.76 430.704C265.675 430.469 265.536 430.187 265.344 429.856C265.163 429.525 264.976 429.221 264.784 428.944ZM262.864 434.144V440.624H261.024V435.92H259.12V434.144H262.864ZM259.12 429.952L260.592 428.992C260.869 429.248 261.157 429.536 261.456 429.856C261.755 430.165 262.032 430.475 262.288 430.784C262.555 431.093 262.763 431.376 262.912 431.632L261.328 432.704C261.2 432.448 261.008 432.16 260.752 431.84C260.507 431.52 260.24 431.195 259.952 430.864C259.675 430.523 259.397 430.219 259.12 429.952ZM262.08 440.032C262.368 440.032 262.651 440.123 262.928 440.304C263.205 440.485 263.579 440.693 264.048 440.928C264.581 441.184 265.211 441.355 265.936 441.44C266.672 441.525 267.467 441.568 268.32 441.568C268.864 441.568 269.477 441.552 270.16 441.52C270.843 441.488 271.52 441.445 272.192 441.392C272.864 441.339 273.456 441.28 273.968 441.216C273.904 441.376 273.835 441.568 273.76 441.792C273.685 442.016 273.616 442.24 273.552 442.464C273.499 442.699 273.467 442.901 273.456 443.072C273.189 443.083 272.843 443.099 272.416 443.12C272 443.141 271.541 443.157 271.04 443.168C270.539 443.189 270.043 443.205 269.552 443.216C269.072 443.227 268.64 443.232 268.256 443.232C267.285 443.232 266.437 443.173 265.712 443.056C264.997 442.949 264.341 442.752 263.744 442.464C263.371 442.272 263.045 442.085 262.768 441.904C262.501 441.723 262.267 441.632 262.064 441.632C261.883 441.632 261.669 441.723 261.424 441.904C261.189 442.085 260.944 442.315 260.688 442.592C260.443 442.88 260.197 443.179 259.952 443.488L258.8 441.872C259.376 441.339 259.952 440.901 260.528 440.56C261.115 440.208 261.632 440.032 262.08 440.032ZM266.256 436.256V437.12H270.592V436.256H266.256ZM266.256 438.352V439.232H270.592V438.352H266.256ZM266.256 434.176V435.04H270.592V434.176H266.256ZM264.448 432.816H272.48V440.592H264.448V432.816Z" fill="#168AFF"/>
</g>
</g>
<defs>
<clipPath id="clip0_117_6001">
<rect width="452" height="469" fill="white"/>
</clipPath>
<clipPath id="clip1_117_6001">
<rect width="391" height="96" fill="white" transform="translate(24 81)"/>
</clipPath>
<clipPath id="clip2_117_6001">
<rect width="76" height="48" fill="white" transform="translate(24 129)"/>
</clipPath>
<clipPath id="clip3_117_6001">
<rect width="76" height="48" fill="white" transform="translate(137 129)"/>
</clipPath>
<clipPath id="clip4_117_6001">
<rect width="140" height="34" fill="white" transform="translate(285 16)"/>
</clipPath>
<clipPath id="clip5_117_6001">
<rect width="391" height="188" fill="white" transform="translate(24 197)"/>
</clipPath>
<clipPath id="clip6_117_6001">
<rect width="391" height="56" fill="white" transform="translate(24 241)"/>
</clipPath>
<clipPath id="clip7_117_6001">
<rect width="391" height="56" fill="white" transform="translate(24 409)"/>
</clipPath>
</defs>
</svg>
