<svg width="15" height="18" viewBox="0 0 15 18" fill="none" xmlns="http://www.w3.org/2000/svg">
<path fill-rule="evenodd" clip-rule="evenodd" d="M10.6103 0C10.9288 0 11.1873 0.272432 11.1873 0.608108L11.1876 1.29552C12.3108 1.37669 13.2436 1.7822 13.9038 2.47954C14.6246 3.24251 15.0038 4.33954 15 5.65549V13.0525C15 15.7541 13.3723 17.4325 10.753 17.4325H4.24691C1.62769 17.4325 0 15.7306 0 12.9909V5.65386C0 3.10564 1.45158 1.46995 3.81898 1.2958L3.81945 0.608108C3.81945 0.272432 4.07791 0 4.39637 0C4.71483 0 4.97329 0.272432 4.97329 0.608108L4.97306 1.28027H10.033L10.0334 0.608108C10.0334 0.272432 10.2919 0 10.6103 0ZM13.8461 7.21946H1.15384V12.9909C1.15384 15.0714 2.2523 16.2163 4.24691 16.2163H10.753C12.7476 16.2163 13.8461 15.0925 13.8461 13.0525L13.8461 7.21946ZM10.924 12.3213C11.2424 12.3213 11.5009 12.5938 11.5009 12.9294C11.5009 13.2651 11.2424 13.5375 10.924 13.5375C10.6055 13.5375 10.344 13.2651 10.344 12.9294C10.344 12.5938 10.5986 12.3213 10.917 12.3213H10.924ZM7.51051 12.3213C7.82897 12.3213 8.08743 12.5938 8.08743 12.9294C8.08743 13.2651 7.82897 13.5375 7.51051 13.5375C7.19205 13.5375 6.93051 13.2651 6.93051 12.9294C6.93051 12.5938 7.18513 12.3213 7.50359 12.3213H7.51051ZM4.08991 12.3213C4.40837 12.3213 4.66683 12.5938 4.66683 12.9294C4.66683 13.2651 4.40837 13.5375 4.08991 13.5375C3.77145 13.5375 3.50914 13.2651 3.50914 12.9294C3.50914 12.5938 3.76452 12.3213 4.08298 12.3213H4.08991ZM10.924 9.16995C11.2424 9.16995 11.5009 9.44238 11.5009 9.77805C11.5009 10.1137 11.2424 10.3862 10.924 10.3862C10.6055 10.3862 10.344 10.1137 10.344 9.77805C10.344 9.44238 10.5986 9.16995 10.917 9.16995H10.924ZM7.51051 9.16995C7.82897 9.16995 8.08743 9.44238 8.08743 9.77805C8.08743 10.1137 7.82897 10.3862 7.51051 10.3862C7.19205 10.3862 6.93051 10.1137 6.93051 9.77805C6.93051 9.44238 7.18513 9.16995 7.50359 9.16995H7.51051ZM4.08991 9.16995C4.40837 9.16995 4.66683 9.44238 4.66683 9.77805C4.66683 10.1137 4.40837 10.3862 4.08991 10.3862C3.77145 10.3862 3.50914 10.1137 3.50914 9.77805C3.50914 9.44238 3.76452 9.16995 4.08298 9.16995H4.08991ZM10.033 2.49649H4.97306L4.97329 3.27649C4.97329 3.61216 4.71483 3.88459 4.39637 3.88459C4.07791 3.88459 3.81945 3.61216 3.81945 3.27649L3.81904 2.51489C2.09579 2.66748 1.15384 3.76853 1.15384 5.65386V6.00324H13.8461L13.8461 5.65386C13.8492 4.65251 13.5938 3.87414 13.0869 3.339C12.6419 2.86857 11.9914 2.58762 11.1879 2.51528L11.1873 3.27649C11.1873 3.61216 10.9288 3.88459 10.6103 3.88459C10.2919 3.88459 10.0334 3.61216 10.0334 3.27649L10.033 2.49649Z" fill="#081735"/>
</svg>
