<svg width="634" height="523" viewBox="0 0 634 523" fill="none" xmlns="http://www.w3.org/2000/svg">
<g style="mix-blend-mode:multiply" opacity="0.907529" filter="url(#filter0_f_37_5264)">
<rect x="86.99" y="86.99" width="459.969" height="349.02" rx="24" fill="#E6E8F0"/>
</g>
<rect x="70.9562" y="66.9888" width="488.028" height="362.021" rx="24" fill="white"/>
<path d="M106.828 98.6146H109.078V111.503H106.828V98.6146ZM99.7894 97.1386H116.314V99.2627H99.7894V97.1386ZM101.319 101.261H113.182V103.385H103.498V109.739H101.319V101.261ZM112.678 101.261H114.928V107.381C114.928 107.909 114.856 108.329 114.712 108.641C114.58 108.953 114.328 109.199 113.956 109.379C113.572 109.535 113.116 109.637 112.588 109.685C112.072 109.721 111.46 109.739 110.752 109.739C110.704 109.415 110.608 109.055 110.464 108.659C110.32 108.251 110.176 107.903 110.032 107.615C110.332 107.627 110.632 107.639 110.932 107.651C111.244 107.651 111.52 107.651 111.76 107.651C112.012 107.651 112.186 107.651 112.282 107.651C112.426 107.651 112.528 107.627 112.588 107.579C112.648 107.531 112.678 107.453 112.678 107.345V101.261ZM106.126 95.1584L108.268 94.4924C108.508 94.9244 108.76 95.4045 109.024 95.9325C109.3 96.4485 109.504 96.8865 109.636 97.2466L107.368 98.0026C107.296 97.7626 107.188 97.4806 107.044 97.1566C106.912 96.8205 106.762 96.4785 106.594 96.1305C106.438 95.7705 106.282 95.4465 106.126 95.1584ZM117.736 98.9927H123.497V101.045H117.736V98.9927ZM119.699 94.9424H121.715V107.021H119.699V94.9424ZM117.484 107.273C117.988 107.129 118.558 106.949 119.194 106.733C119.843 106.517 120.527 106.283 121.247 106.031C121.967 105.767 122.681 105.509 123.389 105.257L123.821 107.219C122.873 107.615 121.901 108.011 120.905 108.407C119.921 108.803 119.014 109.163 118.186 109.487L117.484 107.273ZM123.749 95.5185H131.345V97.5526H123.749V95.5185ZM132.101 100.343H134.279C134.279 100.343 134.273 100.403 134.261 100.523C134.261 100.631 134.255 100.763 134.243 100.919C134.243 101.063 134.237 101.177 134.225 101.261C134.141 102.821 134.051 104.147 133.955 105.239C133.859 106.331 133.757 107.243 133.649 107.975C133.541 108.695 133.421 109.265 133.289 109.685C133.169 110.105 133.025 110.411 132.857 110.603C132.653 110.879 132.431 111.077 132.191 111.197C131.963 111.317 131.699 111.401 131.399 111.449C131.147 111.485 130.835 111.509 130.463 111.521C130.103 111.533 129.707 111.533 129.275 111.521C129.275 111.221 129.221 110.873 129.113 110.477C129.005 110.093 128.861 109.763 128.681 109.487C129.041 109.523 129.365 109.547 129.653 109.559C129.953 109.571 130.181 109.577 130.337 109.577C130.481 109.577 130.601 109.553 130.697 109.505C130.805 109.457 130.901 109.379 130.985 109.271C131.141 109.091 131.285 108.707 131.417 108.119C131.549 107.519 131.669 106.625 131.777 105.437C131.897 104.237 132.005 102.677 132.101 100.757V100.343ZM124.595 102.629C124.547 102.485 124.469 102.287 124.361 102.035C124.253 101.783 124.139 101.531 124.019 101.279C123.911 101.015 123.809 100.799 123.713 100.631C123.977 100.583 124.271 100.475 124.595 100.307C124.931 100.139 125.267 99.9407 125.603 99.7127C125.783 99.5927 126.053 99.4127 126.413 99.1727C126.773 98.9207 127.175 98.6206 127.619 98.2726C128.075 97.9246 128.537 97.5466 129.005 97.1386C129.485 96.7185 129.923 96.2865 130.319 95.8425V95.7165L131.309 95.3385L132.839 96.5625C131.711 97.6066 130.547 98.5666 129.347 99.4427C128.147 100.307 127.025 101.027 125.981 101.603V101.639C125.981 101.639 125.909 101.675 125.765 101.747C125.633 101.807 125.471 101.891 125.279 101.999C125.099 102.107 124.937 102.221 124.793 102.341C124.661 102.449 124.595 102.545 124.595 102.629ZM124.595 102.629V100.901L125.603 100.343H132.839L132.821 102.359H126.215C125.855 102.359 125.513 102.383 125.189 102.431C124.877 102.479 124.679 102.545 124.595 102.629ZM129.617 101.603L131.507 101.963C130.967 104.063 130.205 105.923 129.221 107.543C128.249 109.151 127.073 110.459 125.693 111.467C125.585 111.359 125.429 111.227 125.225 111.071C125.021 110.927 124.817 110.783 124.613 110.639C124.409 110.495 124.223 110.381 124.055 110.297C125.483 109.397 126.653 108.203 127.565 106.715C128.489 105.215 129.173 103.511 129.617 101.603ZM126.629 101.603L128.519 101.963C128.159 103.175 127.643 104.273 126.971 105.257C126.311 106.241 125.567 107.051 124.739 107.687C124.631 107.579 124.475 107.453 124.271 107.309C124.079 107.165 123.881 107.021 123.677 106.877C123.485 106.721 123.311 106.607 123.155 106.535C123.995 105.995 124.709 105.299 125.297 104.447C125.897 103.583 126.341 102.635 126.629 101.603ZM139.284 94.7624L141.318 95.3925C140.946 96.4125 140.502 97.4386 139.986 98.4706C139.482 99.4907 138.93 100.457 138.33 101.369C137.73 102.281 137.112 103.085 136.475 103.781C136.415 103.601 136.313 103.373 136.169 103.097C136.037 102.809 135.893 102.521 135.737 102.233C135.581 101.945 135.437 101.711 135.305 101.531C135.833 100.979 136.343 100.343 136.836 99.6227C137.34 98.9027 137.796 98.1286 138.204 97.3006C138.624 96.4725 138.984 95.6265 139.284 94.7624ZM137.52 99.7667L139.644 97.6426L139.662 97.6606V111.593H137.52V99.7667ZM143.64 95.1945L145.764 95.6445C145.332 97.2406 144.732 98.7287 143.964 100.109C143.208 101.477 142.296 102.611 141.228 103.511C141.156 103.343 141.042 103.133 140.886 102.881C140.742 102.629 140.58 102.377 140.4 102.125C140.232 101.873 140.082 101.675 139.95 101.531C140.85 100.835 141.606 99.9347 142.218 98.8307C142.842 97.7146 143.316 96.5025 143.64 95.1945ZM142.308 101.549H149.148V103.547H142.308V101.549ZM148.5 101.549H150.624C150.624 101.549 150.624 101.603 150.624 101.711C150.624 101.819 150.624 101.945 150.624 102.089C150.624 102.221 150.618 102.335 150.606 102.431C150.558 103.787 150.504 104.945 150.444 105.905C150.396 106.853 150.33 107.645 150.246 108.281C150.174 108.917 150.09 109.421 149.994 109.793C149.898 110.165 149.778 110.441 149.634 110.621C149.43 110.885 149.22 111.071 149.004 111.179C148.788 111.287 148.53 111.365 148.23 111.413C147.978 111.449 147.66 111.473 147.276 111.485C146.892 111.497 146.484 111.491 146.052 111.467C146.04 111.167 145.98 110.825 145.872 110.441C145.764 110.069 145.626 109.751 145.458 109.487C145.818 109.523 146.148 109.547 146.448 109.559C146.76 109.559 147 109.559 147.168 109.559C147.3 109.559 147.414 109.547 147.51 109.523C147.606 109.487 147.696 109.415 147.78 109.307C147.9 109.151 148.002 108.821 148.086 108.317C148.17 107.801 148.248 107.027 148.32 105.995C148.392 104.963 148.452 103.607 148.5 101.927V101.549ZM143.964 103.097L146.106 103.187C145.902 105.263 145.458 106.991 144.774 108.371C144.102 109.739 143.052 110.837 141.624 111.665C141.552 111.521 141.426 111.347 141.246 111.143C141.078 110.939 140.898 110.735 140.706 110.531C140.514 110.339 140.34 110.183 140.184 110.063C141.456 109.427 142.374 108.533 142.938 107.381C143.514 106.229 143.856 104.801 143.964 103.097ZM149.022 95.0504C149.262 96.1065 149.544 97.0246 149.868 97.8046C150.192 98.5846 150.588 99.2687 151.056 99.8567C151.536 100.433 152.112 100.973 152.784 101.477C152.52 101.693 152.25 101.969 151.974 102.305C151.698 102.641 151.488 102.977 151.344 103.313C150.564 102.665 149.898 101.975 149.346 101.243C148.806 100.499 148.356 99.6527 147.996 98.7047C147.636 97.7566 147.324 96.6585 147.06 95.4105L149.022 95.0504ZM162.307 95.7165H170.389V97.5886H162.307V95.7165ZM165.457 96.8685L167.293 97.2826C167.101 97.7866 166.909 98.2726 166.717 98.7407C166.525 99.2087 166.345 99.6167 166.177 99.9647L164.539 99.5507C164.647 99.2987 164.755 99.0167 164.863 98.7047C164.983 98.3926 165.097 98.0746 165.205 97.7506C165.313 97.4266 165.397 97.1326 165.457 96.8685ZM162.451 99.1187H169.831V107.507H167.977V100.757H164.233V107.579H162.451V99.1187ZM165.259 101.405H167.077C167.053 102.845 166.987 104.117 166.879 105.221C166.783 106.325 166.573 107.291 166.249 108.119C165.937 108.935 165.445 109.637 164.773 110.225C164.113 110.813 163.219 111.305 162.091 111.701C161.995 111.461 161.839 111.185 161.623 110.873C161.419 110.573 161.221 110.339 161.029 110.171C162.037 109.835 162.823 109.433 163.387 108.965C163.951 108.485 164.359 107.903 164.611 107.219C164.875 106.535 165.043 105.719 165.115 104.771C165.187 103.811 165.235 102.689 165.259 101.405ZM166.357 108.911L167.455 107.561C167.803 107.813 168.181 108.089 168.589 108.389C169.009 108.689 169.405 108.989 169.777 109.289C170.149 109.577 170.455 109.841 170.695 110.081L169.543 111.593C169.315 111.341 169.015 111.053 168.643 110.729C168.283 110.417 167.899 110.105 167.491 109.793C167.095 109.469 166.717 109.175 166.357 108.911ZM153.792 96.4545H162.019V99.6227H160.075V98.1826H155.647V99.6227H153.792V96.4545ZM155.089 105.869H161.227V111.449H159.265V107.543H156.961V111.449H155.089V105.869ZM155.701 109.307H160.021V110.981H155.701V109.307ZM156.493 98.4346L158.383 98.7947C157.963 99.5747 157.441 100.319 156.817 101.027C156.205 101.735 155.449 102.389 154.549 102.989C154.465 102.833 154.351 102.671 154.206 102.503C154.062 102.323 153.912 102.149 153.756 101.981C153.612 101.813 153.474 101.687 153.342 101.603C154.098 101.159 154.741 100.655 155.269 100.091C155.809 99.5147 156.217 98.9627 156.493 98.4346ZM157.195 99.5867H160.183V101.189H156.385L157.195 99.5867ZM159.877 99.5867H160.309L160.687 99.5327L161.839 100.307C161.371 101.327 160.741 102.239 159.949 103.043C159.169 103.847 158.287 104.537 157.303 105.113C156.331 105.689 155.317 106.145 154.261 106.481C154.224 106.289 154.164 106.061 154.08 105.797C153.996 105.533 153.9 105.281 153.792 105.041C153.696 104.789 153.6 104.591 153.504 104.447C154.453 104.207 155.347 103.871 156.187 103.439C157.027 103.007 157.771 102.497 158.419 101.909C159.067 101.309 159.553 100.643 159.877 99.9107V99.5867ZM156.475 95.1764L158.527 94.7444C158.695 95.1044 158.881 95.5005 159.085 95.9325C159.301 96.3645 159.463 96.7245 159.571 97.0126L157.429 97.5346C157.333 97.2346 157.195 96.8625 157.015 96.4185C156.835 95.9625 156.655 95.5485 156.475 95.1764ZM155.395 102.899L156.799 101.621C157.219 101.825 157.687 102.053 158.203 102.305C158.719 102.545 159.235 102.797 159.751 103.061C160.279 103.313 160.771 103.565 161.227 103.817C161.695 104.069 162.097 104.297 162.433 104.501L160.939 105.959C160.639 105.755 160.261 105.527 159.805 105.275C159.361 105.011 158.881 104.741 158.365 104.465C157.861 104.189 157.351 103.913 156.835 103.637C156.319 103.361 155.839 103.115 155.395 102.899Z" fill="#081735"/>
<path d="M426.627 102.151V103.399H432.784V102.151H426.627ZM426.627 100.219V101.455H432.784V100.219H426.627ZM425.751 99.4987H433.696V104.131H425.751V99.4987ZM424.179 108.523H435.22V109.387H424.179V108.523ZM427.923 104.611H428.776V108.991H427.923V104.611ZM430.552 104.611H431.416V108.991H430.552V104.611ZM433.54 105.031L434.32 105.391C434.064 105.807 433.776 106.235 433.456 106.675C433.144 107.115 432.852 107.499 432.58 107.827L431.884 107.479C432.068 107.263 432.26 107.015 432.46 106.735C432.668 106.447 432.868 106.155 433.06 105.859C433.252 105.563 433.412 105.287 433.54 105.031ZM425.175 105.427L425.895 105.115C426.063 105.371 426.235 105.647 426.411 105.943C426.587 106.231 426.751 106.515 426.903 106.795C427.063 107.067 427.183 107.307 427.263 107.515L426.531 107.875C426.443 107.659 426.323 107.411 426.171 107.131C426.019 106.851 425.859 106.559 425.691 106.255C425.523 105.951 425.351 105.675 425.175 105.427ZM441.232 103.183H442.204V108.775C442.204 109.063 442.16 109.283 442.072 109.435C441.992 109.587 441.844 109.703 441.628 109.783C441.412 109.855 441.124 109.899 440.764 109.915C440.412 109.931 439.968 109.939 439.432 109.939C439.416 109.803 439.376 109.643 439.312 109.459C439.248 109.283 439.18 109.127 439.108 108.991C439.38 108.999 439.64 109.007 439.888 109.015C440.144 109.023 440.364 109.023 440.548 109.015C440.74 109.015 440.872 109.015 440.944 109.015C441.056 109.007 441.132 108.987 441.172 108.955C441.212 108.923 441.232 108.859 441.232 108.763V103.183ZM438.508 104.779L439.432 105.031C439.24 105.519 439.008 105.999 438.736 106.471C438.472 106.943 438.184 107.383 437.872 107.791C437.568 108.199 437.26 108.555 436.948 108.859C436.892 108.803 436.812 108.743 436.708 108.679C436.604 108.607 436.496 108.539 436.384 108.475C436.28 108.403 436.192 108.351 436.12 108.319C436.608 107.895 437.06 107.371 437.476 106.747C437.9 106.115 438.244 105.459 438.508 104.779ZM443.908 105.151L444.736 104.803C445.032 105.171 445.32 105.575 445.601 106.015C445.889 106.455 446.149 106.887 446.381 107.311C446.613 107.735 446.789 108.119 446.909 108.463L446.009 108.871C445.905 108.535 445.741 108.151 445.517 107.719C445.292 107.287 445.04 106.847 444.76 106.399C444.48 105.943 444.196 105.527 443.908 105.151ZM437.488 99.7987H445.937V100.687H437.488V99.7987ZM436.42 102.715H446.993V103.603H436.42V102.715ZM450.701 103.159C450.461 103.159 450.249 103.079 450.065 102.919C449.881 102.759 449.789 102.543 449.789 102.271C449.789 101.991 449.881 101.771 450.065 101.611C450.249 101.443 450.461 101.359 450.701 101.359C450.941 101.359 451.153 101.443 451.337 101.611C451.521 101.771 451.613 101.991 451.613 102.271C451.613 102.543 451.521 102.759 451.337 102.919C451.153 103.079 450.941 103.159 450.701 103.159ZM450.701 109.039C450.461 109.039 450.249 108.959 450.065 108.799C449.881 108.631 449.789 108.411 449.789 108.139C449.789 107.867 449.881 107.651 450.065 107.491C450.249 107.323 450.461 107.239 450.701 107.239C450.941 107.239 451.153 107.323 451.337 107.491C451.521 107.651 451.613 107.867 451.613 108.139C451.613 108.411 451.521 108.631 451.337 108.799C451.153 108.959 450.941 109.039 450.701 109.039Z" fill="#8F95B2"/>
<path d="M466.129 102.151H472.405V102.955H466.129V102.151ZM465.265 107.575H474.109V108.379H465.265V107.575ZM465.769 100.123H474.121V100.939H465.769V100.123ZM472.045 102.151H472.933C472.933 102.151 472.933 102.179 472.933 102.235C472.933 102.291 472.929 102.355 472.921 102.427C472.921 102.499 472.921 102.555 472.921 102.595C472.881 103.795 472.841 104.811 472.801 105.643C472.761 106.475 472.713 107.151 472.657 107.671C472.601 108.191 472.537 108.595 472.465 108.883C472.393 109.171 472.309 109.375 472.213 109.495C472.101 109.647 471.977 109.751 471.841 109.807C471.705 109.871 471.545 109.915 471.361 109.939C471.185 109.947 470.957 109.947 470.677 109.939C470.397 109.939 470.109 109.931 469.813 109.915C469.805 109.811 469.781 109.691 469.741 109.555C469.701 109.419 469.653 109.299 469.597 109.195C469.901 109.219 470.177 109.235 470.425 109.243C470.681 109.251 470.869 109.255 470.989 109.255C471.093 109.255 471.177 109.243 471.241 109.219C471.305 109.195 471.365 109.147 471.421 109.075C471.501 108.987 471.569 108.803 471.625 108.523C471.689 108.243 471.745 107.843 471.793 107.323C471.841 106.803 471.885 106.135 471.925 105.319C471.965 104.503 472.005 103.511 472.045 102.343V102.151ZM465.697 102.151H466.597C466.533 102.647 466.465 103.179 466.393 103.747C466.321 104.307 466.245 104.871 466.165 105.439C466.085 106.007 466.005 106.543 465.925 107.047C465.845 107.543 465.769 107.983 465.697 108.367H464.773C464.853 107.975 464.937 107.527 465.025 107.023C465.113 106.511 465.197 105.971 465.277 105.403C465.365 104.835 465.441 104.271 465.505 103.711C465.577 103.151 465.641 102.631 465.697 102.151ZM466.273 98.8387L467.173 99.1027C466.925 99.6467 466.645 100.183 466.333 100.711C466.021 101.239 465.689 101.735 465.337 102.199C464.993 102.655 464.645 103.059 464.293 103.411C464.237 103.363 464.157 103.307 464.053 103.243C463.957 103.171 463.857 103.103 463.753 103.039C463.657 102.967 463.569 102.911 463.489 102.871C463.865 102.551 464.225 102.175 464.569 101.743C464.913 101.311 465.229 100.847 465.517 100.351C465.813 99.8547 466.065 99.3507 466.273 98.8387ZM467.713 103.495L468.229 102.991C468.485 103.103 468.753 103.235 469.033 103.387C469.313 103.539 469.573 103.695 469.813 103.855C470.061 104.015 470.261 104.171 470.413 104.323L469.873 104.887C469.721 104.735 469.525 104.575 469.285 104.407C469.053 104.239 468.797 104.075 468.517 103.915C468.245 103.755 467.977 103.615 467.713 103.495ZM467.401 106.135L467.905 105.619C468.185 105.747 468.469 105.899 468.757 106.075C469.053 106.251 469.329 106.431 469.585 106.615C469.841 106.791 470.049 106.959 470.209 107.119L469.681 107.695C469.529 107.535 469.325 107.359 469.069 107.167C468.813 106.975 468.541 106.791 468.253 106.615C467.965 106.431 467.681 106.271 467.401 106.135ZM463.537 104.827H465.781V104.851H472.405V104.827H474.529V105.643H472.405V105.631H465.781V105.643H463.537V104.827ZM478.07 99.5467H484.322V100.423H478.07V99.5467ZM478.07 102.439H484.382V103.291H478.07V102.439ZM477.974 105.331H484.322V106.207H477.974V105.331ZM477.506 99.5467H478.418V103.243C478.418 103.763 478.39 104.319 478.334 104.911C478.286 105.503 478.182 106.103 478.022 106.711C477.862 107.311 477.622 107.891 477.302 108.451C476.99 109.011 476.574 109.515 476.053 109.963C476.013 109.899 475.949 109.823 475.861 109.735C475.781 109.647 475.697 109.563 475.609 109.483C475.521 109.411 475.441 109.355 475.369 109.315C475.857 108.883 476.241 108.419 476.522 107.923C476.81 107.419 477.022 106.899 477.158 106.363C477.302 105.827 477.394 105.295 477.434 104.767C477.482 104.231 477.506 103.723 477.506 103.243V99.5467ZM483.926 99.5467H484.874V108.619C484.874 108.939 484.826 109.183 484.73 109.351C484.634 109.519 484.474 109.643 484.25 109.723C484.018 109.803 483.694 109.851 483.278 109.867C482.862 109.891 482.334 109.903 481.694 109.903C481.678 109.807 481.646 109.703 481.598 109.591C481.558 109.479 481.51 109.363 481.454 109.243C481.406 109.131 481.358 109.035 481.31 108.955C481.646 108.963 481.966 108.971 482.27 108.979C482.582 108.979 482.85 108.979 483.074 108.979C483.306 108.971 483.466 108.967 483.554 108.967C483.698 108.959 483.794 108.931 483.842 108.883C483.898 108.827 483.926 108.735 483.926 108.607V99.5467Z" fill="#6C5DD3"/>
<path d="M517.397 106.991L514.359 103.991L520.434 103.991L517.397 106.991Z" fill="#8F95B2"/>
<rect x="99.0153" y="135.993" width="421.889" height="1.00006" fill="#E6E8F0"/>
<path d="M156.19 402.008V401.096H158.158V394.784H156.586V394.088C156.978 394.016 157.318 393.928 157.606 393.824C157.902 393.72 158.17 393.596 158.41 393.452H159.25V401.096H161.014V402.008H156.19ZM165.686 402.008V393.212H167.882C168.786 393.212 169.546 393.384 170.162 393.728C170.778 394.064 171.242 394.556 171.554 395.204C171.866 395.852 172.022 396.644 172.022 397.58C172.022 398.508 171.866 399.304 171.554 399.968C171.242 400.632 170.782 401.14 170.174 401.492C169.566 401.836 168.818 402.008 167.93 402.008H165.686ZM166.79 401.096H167.786C168.474 401.096 169.046 400.96 169.502 400.688C169.966 400.408 170.31 400.004 170.534 399.476C170.766 398.948 170.882 398.316 170.882 397.58C170.882 396.828 170.766 396.196 170.534 395.684C170.31 395.172 169.966 394.784 169.502 394.52C169.046 394.248 168.474 394.112 167.786 394.112H166.79V401.096ZM176.48 402.164C175.896 402.164 175.368 402.028 174.896 401.756C174.424 401.484 174.048 401.096 173.768 400.592C173.496 400.08 173.36 399.468 173.36 398.756C173.36 398.22 173.44 397.744 173.6 397.328C173.76 396.904 173.976 396.544 174.248 396.248C174.528 395.944 174.844 395.716 175.196 395.564C175.548 395.404 175.908 395.324 176.276 395.324C176.836 395.324 177.308 395.448 177.692 395.696C178.076 395.944 178.368 396.3 178.568 396.764C178.776 397.22 178.88 397.76 178.88 398.384C178.88 398.504 178.876 398.616 178.868 398.72C178.86 398.824 178.848 398.92 178.832 399.008H174.44C174.464 399.472 174.568 399.876 174.752 400.22C174.944 400.556 175.196 400.82 175.508 401.012C175.82 401.196 176.184 401.288 176.6 401.288C176.92 401.288 177.208 401.244 177.464 401.156C177.728 401.06 177.984 400.932 178.232 400.772L178.616 401.504C178.336 401.688 178.02 401.844 177.668 401.972C177.316 402.1 176.92 402.164 176.48 402.164ZM174.428 398.228H177.92C177.92 397.572 177.776 397.072 177.488 396.728C177.208 396.376 176.812 396.2 176.3 396.2C175.996 396.2 175.708 396.28 175.436 396.44C175.172 396.6 174.948 396.828 174.764 397.124C174.588 397.42 174.476 397.788 174.428 398.228ZM183.053 402.164C182.477 402.164 181.957 402.032 181.493 401.768C181.037 401.496 180.673 401.108 180.401 400.604C180.137 400.092 180.005 399.476 180.005 398.756C180.005 398.028 180.149 397.412 180.437 396.908C180.725 396.396 181.109 396.004 181.589 395.732C182.069 395.46 182.585 395.324 183.137 395.324C183.561 395.324 183.925 395.4 184.229 395.552C184.541 395.704 184.809 395.884 185.033 396.092L184.481 396.812C184.297 396.644 184.097 396.508 183.881 396.404C183.673 396.3 183.441 396.248 183.185 396.248C182.793 396.248 182.441 396.352 182.129 396.56C181.817 396.768 181.573 397.06 181.397 397.436C181.221 397.812 181.133 398.252 181.133 398.756C181.133 399.252 181.217 399.688 181.385 400.064C181.561 400.44 181.797 400.732 182.093 400.94C182.397 401.148 182.749 401.252 183.149 401.252C183.453 401.252 183.733 401.192 183.989 401.072C184.245 400.944 184.477 400.788 184.685 400.604L185.165 401.348C184.869 401.604 184.541 401.804 184.181 401.948C183.821 402.092 183.445 402.164 183.053 402.164Z" fill="#8F95B2"/>
<path d="M126.402 376.163C125.85 376.163 125.366 375.995 124.95 375.659C124.542 375.323 124.226 374.815 124.002 374.134C123.778 373.454 123.666 372.602 123.666 371.578C123.666 370.554 123.778 369.71 124.002 369.046C124.226 368.374 124.542 367.874 124.95 367.546C125.366 367.218 125.85 367.054 126.402 367.054C126.962 367.054 127.446 367.222 127.854 367.558C128.262 367.886 128.578 368.382 128.802 369.046C129.026 369.71 129.138 370.554 129.138 371.578C129.138 372.602 129.026 373.454 128.802 374.134C128.578 374.815 128.262 375.323 127.854 375.659C127.446 375.995 126.962 376.163 126.402 376.163ZM126.402 375.275C126.738 375.275 127.03 375.147 127.278 374.891C127.534 374.634 127.73 374.234 127.866 373.69C128.01 373.138 128.082 372.434 128.082 371.578C128.082 370.722 128.01 370.026 127.866 369.49C127.73 368.946 127.534 368.55 127.278 368.302C127.03 368.046 126.738 367.918 126.402 367.918C126.074 367.918 125.782 368.046 125.526 368.302C125.27 368.55 125.07 368.946 124.926 369.49C124.79 370.026 124.722 370.722 124.722 371.578C124.722 372.434 124.79 373.138 124.926 373.69C125.07 374.234 125.27 374.634 125.526 374.891C125.782 375.147 126.074 375.275 126.402 375.275Z" fill="#8F95B2"/>
<path d="M126.21 332.16C125.754 332.16 125.35 332.104 124.998 331.992C124.654 331.88 124.35 331.736 124.086 331.56C123.83 331.384 123.598 331.196 123.39 330.996L123.942 330.276C124.11 330.444 124.294 330.604 124.494 330.756C124.702 330.9 124.938 331.02 125.202 331.116C125.466 331.204 125.766 331.248 126.102 331.248C126.446 331.248 126.758 331.168 127.038 331.008C127.326 330.848 127.554 330.624 127.722 330.336C127.89 330.048 127.974 329.704 127.974 329.304C127.974 328.704 127.806 328.24 127.47 327.912C127.142 327.576 126.702 327.408 126.15 327.408C125.862 327.408 125.61 327.456 125.394 327.552C125.178 327.64 124.942 327.768 124.686 327.936L124.098 327.564L124.386 323.448H128.658V324.396H125.346L125.118 326.94C125.31 326.828 125.51 326.744 125.718 326.688C125.934 326.624 126.174 326.592 126.438 326.592C126.926 326.592 127.37 326.688 127.77 326.88C128.17 327.064 128.49 327.356 128.73 327.756C128.97 328.148 129.09 328.652 129.09 329.268C129.09 329.884 128.95 330.408 128.67 330.84C128.398 331.272 128.042 331.6 127.602 331.824C127.162 332.048 126.698 332.16 126.21 332.16ZM133.059 332.16C132.491 332.16 132.003 331.988 131.595 331.644C131.187 331.3 130.871 330.796 130.647 330.132C130.431 329.468 130.323 328.656 130.323 327.696C130.323 326.744 130.431 325.94 130.647 325.284C130.871 324.628 131.187 324.132 131.595 323.796C132.003 323.46 132.491 323.292 133.059 323.292C133.627 323.292 134.115 323.46 134.523 323.796C134.931 324.132 135.243 324.628 135.459 325.284C135.683 325.94 135.795 326.744 135.795 327.696C135.795 328.656 135.683 329.468 135.459 330.132C135.243 330.796 134.931 331.3 134.523 331.644C134.115 331.988 133.627 332.16 133.059 332.16ZM133.059 331.272C133.395 331.272 133.687 331.148 133.935 330.9C134.191 330.652 134.387 330.264 134.523 329.736C134.667 329.208 134.739 328.528 134.739 327.696C134.739 326.864 134.667 326.188 134.523 325.668C134.387 325.148 134.191 324.768 133.935 324.528C133.687 324.288 133.395 324.168 133.059 324.168C132.731 324.168 132.439 324.288 132.183 324.528C131.927 324.768 131.727 325.148 131.583 325.668C131.447 326.188 131.379 326.864 131.379 327.696C131.379 328.528 131.447 329.208 131.583 329.736C131.727 330.264 131.927 330.652 132.183 330.9C132.439 331.148 132.731 331.272 133.059 331.272ZM137.483 332.004V322.451H138.563V328.92H138.611L141.372 325.488H142.596L140.423 328.116L142.884 332.004H141.696L139.787 328.86L138.563 330.288V332.004H137.483Z" fill="#8F95B2"/>
<path d="M120.114 288.002V287.089H122.082V280.777H120.51V280.081C120.902 280.009 121.242 279.921 121.53 279.817C121.826 279.713 122.094 279.589 122.334 279.445H123.174V287.089H124.938V288.002H120.114ZM129.05 288.158C128.482 288.158 127.994 287.986 127.586 287.642C127.178 287.297 126.862 286.793 126.638 286.129C126.422 285.465 126.314 284.653 126.314 283.693C126.314 282.741 126.422 281.937 126.638 281.281C126.862 280.625 127.178 280.129 127.586 279.793C127.994 279.457 128.482 279.289 129.05 279.289C129.618 279.289 130.106 279.457 130.514 279.793C130.922 280.129 131.235 280.625 131.451 281.281C131.675 281.937 131.787 282.741 131.787 283.693C131.787 284.653 131.675 285.465 131.451 286.129C131.235 286.793 130.922 287.297 130.514 287.642C130.106 287.986 129.618 288.158 129.05 288.158ZM129.05 287.269C129.386 287.269 129.678 287.145 129.926 286.897C130.182 286.649 130.378 286.261 130.514 285.733C130.658 285.205 130.73 284.525 130.73 283.693C130.73 282.861 130.658 282.185 130.514 281.665C130.378 281.145 130.182 280.765 129.926 280.525C129.678 280.285 129.386 280.165 129.05 280.165C128.722 280.165 128.43 280.285 128.174 280.525C127.918 280.765 127.718 281.145 127.574 281.665C127.438 282.185 127.37 282.861 127.37 283.693C127.37 284.525 127.438 285.205 127.574 285.733C127.718 286.261 127.918 286.649 128.174 286.897C128.43 287.145 128.722 287.269 129.05 287.269ZM135.707 288.158C135.139 288.158 134.651 287.986 134.243 287.642C133.835 287.297 133.519 286.793 133.295 286.129C133.079 285.465 132.971 284.653 132.971 283.693C132.971 282.741 133.079 281.937 133.295 281.281C133.519 280.625 133.835 280.129 134.243 279.793C134.651 279.457 135.139 279.289 135.707 279.289C136.275 279.289 136.763 279.457 137.171 279.793C137.579 280.129 137.891 280.625 138.107 281.281C138.331 281.937 138.443 282.741 138.443 283.693C138.443 284.653 138.331 285.465 138.107 286.129C137.891 286.793 137.579 287.297 137.171 287.642C136.763 287.986 136.275 288.158 135.707 288.158ZM135.707 287.269C136.043 287.269 136.335 287.145 136.583 286.897C136.839 286.649 137.035 286.261 137.171 285.733C137.315 285.205 137.387 284.525 137.387 283.693C137.387 282.861 137.315 282.185 137.171 281.665C137.035 281.145 136.839 280.765 136.583 280.525C136.335 280.285 136.043 280.165 135.707 280.165C135.379 280.165 135.087 280.285 134.831 280.525C134.575 280.765 134.375 281.145 134.231 281.665C134.095 282.185 134.027 282.861 134.027 283.693C134.027 284.525 134.095 285.205 134.231 285.733C134.375 286.261 134.575 286.649 134.831 286.897C135.087 287.145 135.379 287.269 135.707 287.269ZM140.132 288.002V278.449H141.212V284.917H141.26L144.02 281.485H145.244L143.072 284.113L145.532 288.002H144.344L142.436 284.857L141.212 286.285V288.002H140.132Z" fill="#8F95B2"/>
<path d="M120.114 243.999V243.087H122.082V236.775H120.51V236.079C120.902 236.007 121.242 235.919 121.53 235.815C121.826 235.711 122.094 235.587 122.334 235.443H123.174V243.087H124.938V243.999H120.114ZM128.858 244.155C128.402 244.155 127.998 244.099 127.646 243.987C127.302 243.875 126.998 243.731 126.734 243.555C126.478 243.379 126.246 243.191 126.038 242.991L126.59 242.271C126.758 242.439 126.942 242.599 127.142 242.751C127.35 242.895 127.586 243.015 127.85 243.111C128.114 243.199 128.414 243.243 128.75 243.243C129.094 243.243 129.406 243.163 129.686 243.003C129.974 242.843 130.202 242.619 130.37 242.331C130.538 242.043 130.622 241.699 130.622 241.299C130.622 240.699 130.454 240.235 130.118 239.907C129.79 239.571 129.35 239.403 128.798 239.403C128.51 239.403 128.258 239.451 128.042 239.547C127.826 239.635 127.59 239.763 127.334 239.931L126.746 239.559L127.034 235.443H131.307V236.391H127.994L127.766 238.935C127.958 238.823 128.158 238.739 128.366 238.683C128.582 238.619 128.822 238.587 129.086 238.587C129.574 238.587 130.018 238.683 130.418 238.875C130.818 239.059 131.139 239.351 131.379 239.751C131.619 240.143 131.739 240.647 131.739 241.263C131.739 241.879 131.599 242.403 131.319 242.835C131.046 243.267 130.69 243.595 130.25 243.819C129.81 244.043 129.346 244.155 128.858 244.155ZM135.707 244.155C135.139 244.155 134.651 243.983 134.243 243.639C133.835 243.295 133.519 242.791 133.295 242.127C133.079 241.463 132.971 240.651 132.971 239.691C132.971 238.739 133.079 237.935 133.295 237.279C133.519 236.623 133.835 236.127 134.243 235.791C134.651 235.455 135.139 235.286 135.707 235.286C136.275 235.286 136.763 235.455 137.171 235.791C137.579 236.127 137.891 236.623 138.107 237.279C138.331 237.935 138.443 238.739 138.443 239.691C138.443 240.651 138.331 241.463 138.107 242.127C137.891 242.791 137.579 243.295 137.171 243.639C136.763 243.983 136.275 244.155 135.707 244.155ZM135.707 243.267C136.043 243.267 136.335 243.143 136.583 242.895C136.839 242.647 137.035 242.259 137.171 241.731C137.315 241.203 137.387 240.523 137.387 239.691C137.387 238.859 137.315 238.183 137.171 237.663C137.035 237.143 136.839 236.763 136.583 236.523C136.335 236.283 136.043 236.163 135.707 236.163C135.379 236.163 135.087 236.283 134.831 236.523C134.575 236.763 134.375 237.143 134.231 237.663C134.095 238.183 134.027 238.859 134.027 239.691C134.027 240.523 134.095 241.203 134.231 241.731C134.375 242.259 134.575 242.647 134.831 242.895C135.087 243.143 135.379 243.267 135.707 243.267ZM140.132 243.999V234.446H141.212V240.915H141.26L144.02 237.483H145.244L143.072 240.111L145.532 243.999H144.344L142.436 240.855L141.212 242.283V243.999H140.132Z" fill="#8F95B2"/>
<path d="M119.586 199.996V199.348C120.45 198.492 121.182 197.74 121.782 197.092C122.382 196.436 122.838 195.848 123.15 195.328C123.462 194.8 123.618 194.304 123.618 193.84C123.618 193.512 123.558 193.224 123.438 192.976C123.326 192.72 123.15 192.524 122.91 192.388C122.67 192.244 122.366 192.172 121.998 192.172C121.638 192.172 121.302 192.272 120.99 192.472C120.686 192.672 120.414 192.912 120.174 193.192L119.538 192.58C119.89 192.18 120.27 191.864 120.678 191.632C121.086 191.4 121.57 191.284 122.13 191.284C122.658 191.284 123.11 191.388 123.486 191.596C123.87 191.804 124.166 192.096 124.374 192.472C124.59 192.848 124.698 193.288 124.698 193.792C124.698 194.328 124.546 194.872 124.242 195.424C123.938 195.976 123.522 196.556 122.994 197.164C122.466 197.764 121.866 198.42 121.194 199.132C121.418 199.116 121.658 199.1 121.914 199.084C122.17 199.06 122.41 199.048 122.634 199.048H125.118V199.996H119.586ZM129.05 200.152C128.482 200.152 127.994 199.98 127.586 199.636C127.178 199.292 126.862 198.788 126.638 198.124C126.422 197.46 126.314 196.648 126.314 195.688C126.314 194.736 126.422 193.932 126.638 193.276C126.862 192.62 127.178 192.124 127.586 191.788C127.994 191.452 128.482 191.284 129.05 191.284C129.618 191.284 130.106 191.452 130.514 191.788C130.922 192.124 131.235 192.62 131.451 193.276C131.675 193.932 131.787 194.736 131.787 195.688C131.787 196.648 131.675 197.46 131.451 198.124C131.235 198.788 130.922 199.292 130.514 199.636C130.106 199.98 129.618 200.152 129.05 200.152ZM129.05 199.264C129.386 199.264 129.678 199.14 129.926 198.892C130.182 198.644 130.378 198.256 130.514 197.728C130.658 197.2 130.73 196.52 130.73 195.688C130.73 194.856 130.658 194.18 130.514 193.66C130.378 193.14 130.182 192.76 129.926 192.52C129.678 192.28 129.386 192.16 129.05 192.16C128.722 192.16 128.43 192.28 128.174 192.52C127.918 192.76 127.718 193.14 127.574 193.66C127.438 194.18 127.37 194.856 127.37 195.688C127.37 196.52 127.438 197.2 127.574 197.728C127.718 198.256 127.918 198.644 128.174 198.892C128.43 199.14 128.722 199.264 129.05 199.264ZM135.707 200.152C135.139 200.152 134.651 199.98 134.243 199.636C133.835 199.292 133.519 198.788 133.295 198.124C133.079 197.46 132.971 196.648 132.971 195.688C132.971 194.736 133.079 193.932 133.295 193.276C133.519 192.62 133.835 192.124 134.243 191.788C134.651 191.452 135.139 191.284 135.707 191.284C136.275 191.284 136.763 191.452 137.171 191.788C137.579 192.124 137.891 192.62 138.107 193.276C138.331 193.932 138.443 194.736 138.443 195.688C138.443 196.648 138.331 197.46 138.107 198.124C137.891 198.788 137.579 199.292 137.171 199.636C136.763 199.98 136.275 200.152 135.707 200.152ZM135.707 199.264C136.043 199.264 136.335 199.14 136.583 198.892C136.839 198.644 137.035 198.256 137.171 197.728C137.315 197.2 137.387 196.52 137.387 195.688C137.387 194.856 137.315 194.18 137.171 193.66C137.035 193.14 136.839 192.76 136.583 192.52C136.335 192.28 136.043 192.16 135.707 192.16C135.379 192.16 135.087 192.28 134.831 192.52C134.575 192.76 134.375 193.14 134.231 193.66C134.095 194.18 134.027 194.856 134.027 195.688C134.027 196.52 134.095 197.2 134.231 197.728C134.375 198.256 134.575 198.644 134.831 198.892C135.087 199.14 135.379 199.264 135.707 199.264ZM140.132 199.996V190.444H141.212V196.912H141.26L144.02 193.48H145.244L143.072 196.108L145.532 199.996H144.344L142.436 196.852L141.212 198.28V199.996H140.132Z" fill="#8F95B2"/>
<path d="M410.822 402.164C410.366 402.164 409.962 402.108 409.61 401.996C409.266 401.884 408.962 401.736 408.698 401.552C408.434 401.368 408.206 401.168 408.014 400.952L408.578 400.244C408.834 400.508 409.134 400.744 409.478 400.952C409.83 401.152 410.254 401.252 410.75 401.252C411.102 401.252 411.41 401.188 411.674 401.06C411.946 400.932 412.158 400.752 412.31 400.52C412.462 400.28 412.538 400 412.538 399.68C412.538 399.336 412.45 399.04 412.274 398.792C412.106 398.536 411.822 398.34 411.422 398.204C411.022 398.06 410.482 397.988 409.802 397.988V397.136C410.41 397.136 410.89 397.068 411.242 396.932C411.594 396.788 411.846 396.596 411.998 396.356C412.158 396.108 412.238 395.836 412.238 395.54C412.238 395.124 412.106 394.796 411.842 394.556C411.578 394.308 411.214 394.184 410.75 394.184C410.398 394.184 410.066 394.268 409.754 394.436C409.45 394.596 409.174 394.804 408.926 395.06L408.338 394.364C408.674 394.06 409.038 393.808 409.43 393.608C409.83 393.4 410.282 393.296 410.786 393.296C411.282 393.296 411.722 393.38 412.106 393.548C412.498 393.716 412.802 393.964 413.018 394.292C413.242 394.612 413.354 395 413.354 395.456C413.354 395.976 413.21 396.404 412.922 396.74C412.634 397.076 412.258 397.328 411.794 397.496V397.544C412.138 397.632 412.45 397.772 412.73 397.964C413.01 398.156 413.234 398.4 413.402 398.696C413.57 398.984 413.654 399.328 413.654 399.728C413.654 400.24 413.526 400.676 413.27 401.036C413.014 401.396 412.674 401.676 412.25 401.876C411.826 402.068 411.35 402.164 410.822 402.164ZM415.378 402.008V401.096H417.346V394.784H415.774V394.088C416.166 394.016 416.506 393.928 416.794 393.824C417.09 393.72 417.358 393.596 417.598 393.452H418.438V401.096H420.202V402.008H415.378ZM424.875 402.008V393.212H427.071C427.975 393.212 428.735 393.384 429.351 393.728C429.967 394.064 430.431 394.556 430.743 395.204C431.055 395.852 431.211 396.644 431.211 397.58C431.211 398.508 431.055 399.304 430.743 399.968C430.431 400.632 429.971 401.14 429.363 401.492C428.755 401.836 428.007 402.008 427.119 402.008H424.875ZM425.979 401.096H426.975C427.663 401.096 428.235 400.96 428.691 400.688C429.155 400.408 429.499 400.004 429.723 399.476C429.955 398.948 430.071 398.316 430.071 397.58C430.071 396.828 429.955 396.196 429.723 395.684C429.499 395.172 429.155 394.784 428.691 394.52C428.235 394.248 427.663 394.112 426.975 394.112H425.979V401.096ZM435.669 402.164C435.085 402.164 434.557 402.028 434.085 401.756C433.613 401.484 433.237 401.096 432.957 400.592C432.685 400.08 432.549 399.468 432.549 398.756C432.549 398.22 432.629 397.744 432.789 397.328C432.949 396.904 433.165 396.544 433.437 396.248C433.717 395.944 434.033 395.716 434.385 395.564C434.737 395.404 435.097 395.324 435.465 395.324C436.025 395.324 436.497 395.448 436.881 395.696C437.265 395.944 437.557 396.3 437.757 396.764C437.965 397.22 438.069 397.76 438.069 398.384C438.069 398.504 438.065 398.616 438.057 398.72C438.049 398.824 438.037 398.92 438.021 399.008H433.629C433.653 399.472 433.757 399.876 433.941 400.22C434.133 400.556 434.385 400.82 434.697 401.012C435.009 401.196 435.373 401.288 435.789 401.288C436.109 401.288 436.397 401.244 436.653 401.156C436.917 401.06 437.173 400.932 437.421 400.772L437.805 401.504C437.525 401.688 437.209 401.844 436.857 401.972C436.505 402.1 436.109 402.164 435.669 402.164ZM433.617 398.228H437.109C437.109 397.572 436.965 397.072 436.677 396.728C436.397 396.376 436.001 396.2 435.489 396.2C435.185 396.2 434.897 396.28 434.625 396.44C434.361 396.6 434.137 396.828 433.953 397.124C433.777 397.42 433.665 397.788 433.617 398.228ZM442.242 402.164C441.666 402.164 441.146 402.032 440.682 401.768C440.226 401.496 439.862 401.108 439.59 400.604C439.326 400.092 439.194 399.476 439.194 398.756C439.194 398.028 439.338 397.412 439.626 396.908C439.914 396.396 440.298 396.004 440.778 395.732C441.258 395.46 441.774 395.324 442.326 395.324C442.75 395.324 443.114 395.4 443.418 395.552C443.73 395.704 443.998 395.884 444.222 396.092L443.67 396.812C443.486 396.644 443.286 396.508 443.07 396.404C442.862 396.3 442.63 396.248 442.374 396.248C441.982 396.248 441.63 396.352 441.318 396.56C441.006 396.768 440.762 397.06 440.586 397.436C440.41 397.812 440.322 398.252 440.322 398.756C440.322 399.252 440.406 399.688 440.574 400.064C440.75 400.44 440.986 400.732 441.282 400.94C441.586 401.148 441.938 401.252 442.338 401.252C442.642 401.252 442.922 401.192 443.178 401.072C443.434 400.944 443.666 400.788 443.874 400.604L444.354 401.348C444.058 401.604 443.73 401.804 443.37 401.948C443.01 402.092 442.634 402.164 442.242 402.164Z" fill="#8F95B2"/>
<path d="M494.999 402.164C494.543 402.164 494.139 402.108 493.787 401.996C493.443 401.884 493.139 401.736 492.875 401.552C492.611 401.368 492.383 401.168 492.191 400.952L492.755 400.244C493.011 400.508 493.311 400.744 493.655 400.952C494.007 401.152 494.431 401.252 494.927 401.252C495.279 401.252 495.587 401.188 495.851 401.06C496.123 400.932 496.335 400.752 496.487 400.52C496.639 400.28 496.715 400 496.715 399.68C496.715 399.336 496.627 399.04 496.451 398.792C496.283 398.536 495.999 398.34 495.599 398.204C495.199 398.06 494.659 397.988 493.979 397.988V397.136C494.587 397.136 495.067 397.068 495.419 396.932C495.771 396.788 496.023 396.596 496.175 396.356C496.335 396.108 496.415 395.836 496.415 395.54C496.415 395.124 496.283 394.796 496.019 394.556C495.755 394.308 495.391 394.184 494.927 394.184C494.575 394.184 494.243 394.268 493.931 394.436C493.627 394.596 493.351 394.804 493.103 395.06L492.515 394.364C492.851 394.06 493.215 393.808 493.607 393.608C494.007 393.4 494.459 393.296 494.963 393.296C495.459 393.296 495.899 393.38 496.283 393.548C496.675 393.716 496.979 393.964 497.195 394.292C497.419 394.612 497.531 395 497.531 395.456C497.531 395.976 497.387 396.404 497.099 396.74C496.811 397.076 496.435 397.328 495.971 397.496V397.544C496.315 397.632 496.627 397.772 496.907 397.964C497.187 398.156 497.411 398.4 497.579 398.696C497.747 398.984 497.831 399.328 497.831 399.728C497.831 400.24 497.703 400.676 497.447 401.036C497.191 401.396 496.851 401.676 496.427 401.876C496.003 402.068 495.527 402.164 494.999 402.164ZM499.556 402.008V401.096H501.524V394.784H499.952V394.088C500.344 394.016 500.684 393.928 500.972 393.824C501.268 393.72 501.536 393.596 501.776 393.452H502.616V401.096H504.38V402.008H499.556ZM509.052 402.008V393.212H511.248C512.152 393.212 512.912 393.384 513.528 393.728C514.144 394.064 514.608 394.556 514.92 395.204C515.232 395.852 515.388 396.644 515.388 397.58C515.388 398.508 515.232 399.304 514.92 399.968C514.608 400.632 514.148 401.14 513.54 401.492C512.932 401.836 512.184 402.008 511.296 402.008H509.052ZM510.156 401.096H511.152C511.84 401.096 512.412 400.96 512.868 400.688C513.332 400.408 513.676 400.004 513.9 399.476C514.132 398.948 514.248 398.316 514.248 397.58C514.248 396.828 514.132 396.196 513.9 395.684C513.676 395.172 513.332 394.784 512.868 394.52C512.412 394.248 511.84 394.112 511.152 394.112H510.156V401.096ZM519.846 402.164C519.262 402.164 518.734 402.028 518.262 401.756C517.79 401.484 517.414 401.096 517.134 400.592C516.862 400.08 516.726 399.468 516.726 398.756C516.726 398.22 516.806 397.744 516.966 397.328C517.126 396.904 517.342 396.544 517.614 396.248C517.894 395.944 518.21 395.716 518.562 395.564C518.914 395.404 519.274 395.324 519.642 395.324C520.202 395.324 520.674 395.448 521.058 395.696C521.442 395.944 521.734 396.3 521.934 396.764C522.142 397.22 522.246 397.76 522.246 398.384C522.246 398.504 522.242 398.616 522.234 398.72C522.226 398.824 522.214 398.92 522.198 399.008H517.806C517.83 399.472 517.934 399.876 518.118 400.22C518.31 400.556 518.562 400.82 518.874 401.012C519.186 401.196 519.55 401.288 519.966 401.288C520.286 401.288 520.574 401.244 520.83 401.156C521.094 401.06 521.35 400.932 521.598 400.772L521.982 401.504C521.702 401.688 521.386 401.844 521.034 401.972C520.682 402.1 520.286 402.164 519.846 402.164ZM517.794 398.228H521.286C521.286 397.572 521.142 397.072 520.854 396.728C520.574 396.376 520.178 396.2 519.666 396.2C519.362 396.2 519.074 396.28 518.802 396.44C518.538 396.6 518.314 396.828 518.13 397.124C517.954 397.42 517.842 397.788 517.794 398.228ZM526.419 402.164C525.843 402.164 525.323 402.032 524.859 401.768C524.403 401.496 524.039 401.108 523.767 400.604C523.503 400.092 523.371 399.476 523.371 398.756C523.371 398.028 523.515 397.412 523.803 396.908C524.091 396.396 524.475 396.004 524.955 395.732C525.435 395.46 525.951 395.324 526.503 395.324C526.927 395.324 527.291 395.4 527.595 395.552C527.907 395.704 528.175 395.884 528.399 396.092L527.847 396.812C527.663 396.644 527.463 396.508 527.247 396.404C527.039 396.3 526.807 396.248 526.551 396.248C526.159 396.248 525.807 396.352 525.495 396.56C525.183 396.768 524.939 397.06 524.763 397.436C524.587 397.812 524.499 398.252 524.499 398.756C524.499 399.252 524.583 399.688 524.751 400.064C524.927 400.44 525.163 400.732 525.459 400.94C525.763 401.148 526.115 401.252 526.515 401.252C526.819 401.252 527.099 401.192 527.355 401.072C527.611 400.944 527.843 400.788 528.051 400.604L528.531 401.348C528.235 401.604 527.907 401.804 527.547 401.948C527.187 402.092 526.811 402.164 526.419 402.164Z" fill="#8F95B2"/>
<path d="M242.671 402.164C242.127 402.164 241.643 402.064 241.219 401.864C240.795 401.664 240.463 401.388 240.223 401.036C239.983 400.684 239.863 400.28 239.863 399.824C239.863 399.448 239.939 399.116 240.091 398.828C240.251 398.532 240.455 398.276 240.703 398.06C240.951 397.836 241.207 397.652 241.471 397.508V397.46C241.151 397.236 240.871 396.964 240.631 396.644C240.399 396.316 240.283 395.928 240.283 395.48C240.283 395.04 240.387 394.656 240.595 394.328C240.811 394 241.099 393.748 241.459 393.572C241.827 393.388 242.239 393.296 242.695 393.296C243.199 393.296 243.631 393.392 243.991 393.584C244.351 393.776 244.627 394.044 244.819 394.388C245.011 394.732 245.107 395.124 245.107 395.564C245.107 395.868 245.043 396.152 244.915 396.416C244.795 396.68 244.643 396.916 244.459 397.124C244.283 397.324 244.111 397.492 243.943 397.628V397.676C244.191 397.828 244.427 398.004 244.651 398.204C244.883 398.396 245.067 398.628 245.203 398.9C245.347 399.172 245.419 399.504 245.419 399.896C245.419 400.312 245.303 400.696 245.071 401.048C244.847 401.392 244.527 401.664 244.111 401.864C243.703 402.064 243.223 402.164 242.671 402.164ZM243.271 397.352C243.559 397.088 243.779 396.816 243.931 396.536C244.091 396.248 244.171 395.944 244.171 395.624C244.171 395.344 244.111 395.092 243.991 394.868C243.879 394.636 243.711 394.452 243.487 394.316C243.263 394.18 242.995 394.112 242.683 394.112C242.275 394.112 241.939 394.236 241.675 394.484C241.411 394.732 241.279 395.064 241.279 395.48C241.279 395.824 241.371 396.108 241.555 396.332C241.747 396.556 241.995 396.748 242.299 396.908C242.603 397.06 242.927 397.208 243.271 397.352ZM242.683 401.348C243.027 401.348 243.323 401.284 243.571 401.156C243.827 401.028 244.023 400.852 244.159 400.628C244.303 400.404 244.375 400.148 244.375 399.86C244.375 399.58 244.311 399.34 244.183 399.14C244.055 398.94 243.883 398.768 243.667 398.624C243.459 398.48 243.215 398.348 242.935 398.228C242.655 398.1 242.359 397.976 242.047 397.856C241.695 398.08 241.403 398.348 241.171 398.66C240.947 398.972 240.835 399.328 240.835 399.728C240.835 400.032 240.915 400.308 241.075 400.556C241.235 400.804 241.455 401 241.735 401.144C242.023 401.28 242.339 401.348 242.683 401.348ZM249.863 402.008V393.212H252.059C252.963 393.212 253.724 393.384 254.34 393.728C254.956 394.064 255.42 394.556 255.732 395.204C256.044 395.852 256.2 396.644 256.2 397.58C256.2 398.508 256.044 399.304 255.732 399.968C255.42 400.632 254.96 401.14 254.352 401.492C253.744 401.836 252.995 402.008 252.107 402.008H249.863ZM250.967 401.096H251.963C252.651 401.096 253.224 400.96 253.68 400.688C254.144 400.408 254.488 400.004 254.712 399.476C254.944 398.948 255.06 398.316 255.06 397.58C255.06 396.828 254.944 396.196 254.712 395.684C254.488 395.172 254.144 394.784 253.68 394.52C253.224 394.248 252.651 394.112 251.963 394.112H250.967V401.096ZM260.658 402.164C260.074 402.164 259.546 402.028 259.074 401.756C258.602 401.484 258.226 401.096 257.945 400.592C257.673 400.08 257.537 399.468 257.537 398.756C257.537 398.22 257.617 397.744 257.777 397.328C257.937 396.904 258.154 396.544 258.426 396.248C258.706 395.944 259.022 395.716 259.374 395.564C259.726 395.404 260.086 395.324 260.454 395.324C261.014 395.324 261.486 395.448 261.87 395.696C262.254 395.944 262.546 396.3 262.746 396.764C262.954 397.22 263.058 397.76 263.058 398.384C263.058 398.504 263.054 398.616 263.046 398.72C263.038 398.824 263.026 398.92 263.01 399.008H258.618C258.642 399.472 258.746 399.876 258.93 400.22C259.122 400.556 259.374 400.82 259.686 401.012C259.998 401.196 260.362 401.288 260.778 401.288C261.098 401.288 261.386 401.244 261.642 401.156C261.906 401.06 262.162 400.932 262.41 400.772L262.794 401.504C262.514 401.688 262.198 401.844 261.846 401.972C261.494 402.1 261.098 402.164 260.658 402.164ZM258.606 398.228H262.098C262.098 397.572 261.954 397.072 261.666 396.728C261.386 396.376 260.99 396.2 260.478 396.2C260.174 396.2 259.886 396.28 259.614 396.44C259.35 396.6 259.126 396.828 258.942 397.124C258.766 397.42 258.654 397.788 258.606 398.228ZM267.231 402.164C266.655 402.164 266.134 402.032 265.67 401.768C265.214 401.496 264.85 401.108 264.578 400.604C264.314 400.092 264.182 399.476 264.182 398.756C264.182 398.028 264.326 397.412 264.614 396.908C264.902 396.396 265.286 396.004 265.766 395.732C266.247 395.46 266.763 395.324 267.315 395.324C267.739 395.324 268.103 395.4 268.407 395.552C268.719 395.704 268.987 395.884 269.211 396.092L268.659 396.812C268.475 396.644 268.275 396.508 268.059 396.404C267.851 396.3 267.619 396.248 267.363 396.248C266.971 396.248 266.619 396.352 266.307 396.56C265.994 396.768 265.75 397.06 265.574 397.436C265.398 397.812 265.31 398.252 265.31 398.756C265.31 399.252 265.394 399.688 265.562 400.064C265.738 400.44 265.974 400.732 266.271 400.94C266.575 401.148 266.927 401.252 267.327 401.252C267.631 401.252 267.911 401.192 268.167 401.072C268.423 400.944 268.655 400.788 268.863 400.604L269.343 401.348C269.047 401.604 268.719 401.804 268.359 401.948C267.999 402.092 267.623 402.164 267.231 402.164Z" fill="#8F95B2"/>
<path d="M324.544 402.008V401.096H326.512V394.784H324.94V394.088C325.332 394.016 325.672 393.928 325.96 393.824C326.256 393.72 326.524 393.596 326.764 393.452H327.604V401.096H329.369V402.008H324.544ZM333.745 402.164C333.321 402.164 332.929 402.08 332.569 401.912C332.209 401.744 331.897 401.488 331.633 401.144C331.369 400.8 331.161 400.372 331.009 399.86C330.865 399.34 330.793 398.736 330.793 398.048C330.793 397.192 330.881 396.464 331.057 395.864C331.233 395.256 331.473 394.764 331.777 394.388C332.081 394.004 332.429 393.728 332.821 393.56C333.213 393.384 333.621 393.296 334.045 393.296C334.509 393.296 334.909 393.384 335.245 393.56C335.581 393.728 335.869 393.94 336.109 394.196L335.497 394.88C335.329 394.672 335.117 394.508 334.861 394.388C334.613 394.268 334.357 394.208 334.093 394.208C333.685 394.208 333.309 394.328 332.965 394.568C332.621 394.808 332.345 395.208 332.137 395.768C331.929 396.328 331.825 397.088 331.825 398.048C331.825 398.752 331.901 399.348 332.053 399.836C332.205 400.316 332.421 400.68 332.701 400.928C332.989 401.176 333.333 401.3 333.733 401.3C334.021 401.3 334.277 401.224 334.501 401.072C334.733 400.912 334.913 400.692 335.041 400.412C335.177 400.132 335.245 399.804 335.245 399.428C335.245 399.052 335.185 398.728 335.065 398.456C334.945 398.184 334.765 397.976 334.525 397.832C334.293 397.68 334.001 397.604 333.649 397.604C333.369 397.604 333.065 397.696 332.737 397.88C332.409 398.064 332.097 398.376 331.801 398.816L331.765 397.952C331.949 397.712 332.153 397.504 332.377 397.328C332.601 397.152 332.837 397.02 333.085 396.932C333.341 396.836 333.585 396.788 333.817 396.788C334.313 396.788 334.745 396.888 335.113 397.088C335.481 397.28 335.765 397.572 335.965 397.964C336.165 398.356 336.265 398.844 336.265 399.428C336.265 399.972 336.149 400.452 335.917 400.868C335.693 401.276 335.389 401.596 335.005 401.828C334.621 402.052 334.201 402.164 333.745 402.164ZM340.697 402.008V393.212H342.893C343.797 393.212 344.557 393.384 345.174 393.728C345.79 394.064 346.254 394.556 346.566 395.204C346.878 395.852 347.034 396.644 347.034 397.58C347.034 398.508 346.878 399.304 346.566 399.968C346.254 400.632 345.794 401.14 345.186 401.492C344.577 401.836 343.829 402.008 342.941 402.008H340.697ZM341.801 401.096H342.797C343.485 401.096 344.057 400.96 344.513 400.688C344.978 400.408 345.322 400.004 345.546 399.476C345.778 398.948 345.894 398.316 345.894 397.58C345.894 396.828 345.778 396.196 345.546 395.684C345.322 395.172 344.978 394.784 344.513 394.52C344.057 394.248 343.485 394.112 342.797 394.112H341.801V401.096ZM351.492 402.164C350.908 402.164 350.38 402.028 349.908 401.756C349.435 401.484 349.059 401.096 348.779 400.592C348.507 400.08 348.371 399.468 348.371 398.756C348.371 398.22 348.451 397.744 348.611 397.328C348.771 396.904 348.987 396.544 349.259 396.248C349.539 395.944 349.856 395.716 350.208 395.564C350.56 395.404 350.92 395.324 351.288 395.324C351.848 395.324 352.32 395.448 352.704 395.696C353.088 395.944 353.38 396.3 353.58 396.764C353.788 397.22 353.892 397.76 353.892 398.384C353.892 398.504 353.888 398.616 353.88 398.72C353.872 398.824 353.86 398.92 353.844 399.008H349.451C349.475 399.472 349.579 399.876 349.763 400.22C349.956 400.556 350.208 400.82 350.52 401.012C350.832 401.196 351.196 401.288 351.612 401.288C351.932 401.288 352.22 401.244 352.476 401.156C352.74 401.06 352.996 400.932 353.244 400.772L353.628 401.504C353.348 401.688 353.032 401.844 352.68 401.972C352.328 402.1 351.932 402.164 351.492 402.164ZM349.439 398.228H352.932C352.932 397.572 352.788 397.072 352.5 396.728C352.22 396.376 351.824 396.2 351.312 396.2C351.008 396.2 350.72 396.28 350.448 396.44C350.184 396.6 349.96 396.828 349.776 397.124C349.599 397.42 349.487 397.788 349.439 398.228ZM358.065 402.164C357.488 402.164 356.968 402.032 356.504 401.768C356.048 401.496 355.684 401.108 355.412 400.604C355.148 400.092 355.016 399.476 355.016 398.756C355.016 398.028 355.16 397.412 355.448 396.908C355.736 396.396 356.12 396.004 356.6 395.732C357.08 395.46 357.596 395.324 358.149 395.324C358.573 395.324 358.937 395.4 359.241 395.552C359.553 395.704 359.821 395.884 360.045 396.092L359.493 396.812C359.309 396.644 359.109 396.508 358.893 396.404C358.685 396.3 358.453 396.248 358.197 396.248C357.804 396.248 357.452 396.352 357.14 396.56C356.828 396.768 356.584 397.06 356.408 397.436C356.232 397.812 356.144 398.252 356.144 398.756C356.144 399.252 356.228 399.688 356.396 400.064C356.572 400.44 356.808 400.732 357.104 400.94C357.408 401.148 357.76 401.252 358.161 401.252C358.465 401.252 358.745 401.192 359.001 401.072C359.257 400.944 359.489 400.788 359.697 400.604L360.177 401.348C359.881 401.604 359.553 401.804 359.193 401.948C358.833 402.092 358.457 402.164 358.065 402.164Z" fill="#8F95B2"/>
<line x1="155.134" y1="373.506" x2="520.904" y2="373.506" stroke="#E6E8F0" stroke-miterlimit="16" stroke-dasharray="8 8"/>
<line x1="155.134" y1="329.504" x2="520.904" y2="329.504" stroke="#E6E8F0" stroke-miterlimit="16" stroke-dasharray="8 8"/>
<line x1="155.134" y1="285.501" x2="520.904" y2="285.501" stroke="#E6E8F0" stroke-miterlimit="16" stroke-dasharray="8 8"/>
<line x1="155.134" y1="241.499" x2="520.904" y2="241.499" stroke="#D3D8DD" stroke-miterlimit="16" stroke-dasharray="8 8"/>
<line x1="155.134" y1="197.496" x2="520.904" y2="197.496" stroke="#D3D8DD" stroke-miterlimit="16" stroke-dasharray="8 8"/>
<mask id="mask0_37_5264" style="mask-type:alpha" maskUnits="userSpaceOnUse" x="155" y="197" width="377" height="178">
<rect x="155.634" y="198.496" width="375.794" height="175.01" fill="#C4C4C4" stroke="#FFA2C0"/>
</mask>
<g mask="url(#mask0_37_5264)">
<rect x="407.665" y="197.996" width="38.0802" height="176.01" fill="#6C5DD3" fill-opacity="0.1"/>
<path opacity="0.2" d="M218.145 291.262C186.888 290.444 157.165 328.848 149.121 344.862V374.006H563.995L549.707 247.556C517.956 254.607 484.089 240.504 474.407 240.153C452.574 240.153 420.014 280.358 405.458 301.482C393.507 320.29 378.261 324.31 372.133 323.97C343.633 324.787 321.953 282.743 314.675 261.619C308.239 237.904 300.994 232.998 297.437 232.998C291.469 232.983 282.498 239.949 273.305 263.663C264.112 287.377 249.556 293.987 243.427 294.328C234.854 294.804 224.657 291.261 218.145 291.262Z" fill="url(#paint0_linear_37_5264)" stroke="#6C5DD3" stroke-width="2" stroke-linejoin="round"/>
<path d="M150.123 344.005C158.112 327.827 187.631 289.031 218.674 289.857C225.141 289.857 235.268 293.436 243.782 292.954C249.869 292.61 264.325 285.933 273.455 261.976C282.585 238.02 291.495 230.983 297.422 230.998C300.955 230.998 308.15 235.954 314.541 259.911C321.769 281.251 343.301 323.725 371.605 322.899C377.692 323.244 392.832 319.182 404.702 300.182C419.158 278.842 451.494 238.226 473.178 238.226C482.793 238.581 516.428 252.827 547.961 245.704" stroke="#6C5DD3" stroke-width="2" stroke-linejoin="round"/>
<path d="M425.918 268C428.293 268 430.143 269.832 430.143 272.001C430.143 274.169 428.293 276.001 425.918 276.001C423.543 276.001 421.693 274.169 421.693 272.001C421.693 269.832 423.543 268 425.918 268Z" fill="white" stroke="#6C5DD3" stroke-width="2"/>
</g>
<path d="M136.551 157.944H137.311V162.984C137.311 163.198 137.345 163.361 137.411 163.474C137.485 163.588 137.615 163.668 137.801 163.714C137.995 163.754 138.275 163.774 138.642 163.774C138.742 163.774 138.915 163.774 139.162 163.774C139.408 163.774 139.688 163.774 140.002 163.774C140.322 163.774 140.642 163.774 140.962 163.774C141.288 163.774 141.582 163.774 141.842 163.774C142.108 163.774 142.312 163.774 142.452 163.774C142.725 163.774 142.945 163.748 143.112 163.694C143.285 163.641 143.418 163.544 143.512 163.404C143.605 163.258 143.675 163.058 143.722 162.804C143.775 162.544 143.818 162.214 143.852 161.814C143.918 161.861 143.995 161.904 144.082 161.944C144.175 161.984 144.269 162.021 144.362 162.054C144.455 162.088 144.539 162.111 144.612 162.124C144.565 162.584 144.502 162.968 144.422 163.274C144.342 163.581 144.225 163.824 144.072 164.004C143.925 164.184 143.718 164.314 143.452 164.394C143.192 164.474 142.855 164.514 142.442 164.514C142.375 164.514 142.245 164.514 142.052 164.514C141.865 164.514 141.638 164.514 141.372 164.514C141.112 164.514 140.838 164.514 140.552 164.514C140.265 164.514 139.992 164.514 139.732 164.514C139.472 164.514 139.248 164.514 139.062 164.514C138.875 164.514 138.748 164.514 138.682 164.514C138.141 164.514 137.715 164.471 137.401 164.384C137.088 164.298 136.868 164.144 136.741 163.924C136.615 163.704 136.551 163.388 136.551 162.974V157.944ZM136.961 159.594H142.862V160.334H136.961V159.594ZM136.021 156.214H143.342V160.834H142.562V156.964H136.021V156.214ZM147.472 158.494H152.912V159.184H147.472V158.494ZM145.752 160.334H154.622V161.044H145.752V160.334ZM148.382 160.824H149.192C149.139 161.311 149.052 161.761 148.932 162.174C148.819 162.588 148.645 162.961 148.412 163.294C148.185 163.628 147.875 163.921 147.482 164.174C147.089 164.428 146.589 164.641 145.982 164.814C145.955 164.748 145.915 164.674 145.862 164.594C145.815 164.514 145.762 164.434 145.702 164.354C145.649 164.281 145.592 164.221 145.532 164.174C146.099 164.034 146.559 163.858 146.912 163.644C147.265 163.431 147.542 163.184 147.742 162.904C147.942 162.624 148.089 162.311 148.182 161.964C148.275 161.611 148.342 161.231 148.382 160.824ZM150.912 160.764H151.672V163.584C151.672 163.731 151.699 163.824 151.752 163.864C151.812 163.904 151.946 163.924 152.152 163.924C152.206 163.924 152.292 163.924 152.412 163.924C152.539 163.924 152.679 163.924 152.832 163.924C152.986 163.924 153.129 163.924 153.262 163.924C153.402 163.924 153.502 163.924 153.562 163.924C153.696 163.924 153.792 163.894 153.852 163.834C153.919 163.774 153.966 163.651 153.992 163.464C154.019 163.271 154.039 162.981 154.052 162.594C154.106 162.641 154.172 162.684 154.252 162.724C154.332 162.758 154.416 162.791 154.502 162.824C154.589 162.851 154.666 162.874 154.732 162.894C154.706 163.354 154.656 163.711 154.582 163.964C154.509 164.211 154.399 164.381 154.252 164.474C154.106 164.568 153.896 164.614 153.622 164.614C153.576 164.614 153.479 164.614 153.332 164.614C153.186 164.614 153.026 164.614 152.852 164.614C152.679 164.614 152.519 164.614 152.372 164.614C152.226 164.614 152.129 164.614 152.082 164.614C151.769 164.614 151.529 164.584 151.362 164.524C151.196 164.471 151.079 164.368 151.012 164.214C150.946 164.068 150.912 163.861 150.912 163.594V160.764ZM149.772 155.594H150.562V157.184H149.772V155.594ZM145.992 156.664H154.402V158.784H153.602V157.384H146.752V158.784H145.992V156.664ZM157.003 159.344H159.483V160.044H157.003V159.344ZM159.193 159.344H159.923C159.923 159.344 159.923 159.364 159.923 159.404C159.923 159.437 159.919 159.481 159.913 159.534C159.913 159.587 159.913 159.631 159.913 159.664C159.899 160.411 159.879 161.018 159.853 161.484C159.833 161.944 159.803 162.294 159.763 162.534C159.729 162.774 159.676 162.941 159.603 163.034C159.523 163.128 159.436 163.194 159.343 163.234C159.256 163.274 159.143 163.304 159.003 163.324C158.869 163.338 158.696 163.344 158.483 163.344C158.269 163.338 158.039 163.328 157.793 163.314C157.786 163.208 157.763 163.091 157.723 162.964C157.689 162.831 157.643 162.714 157.583 162.614C157.809 162.641 158.023 162.658 158.223 162.664C158.423 162.664 158.563 162.664 158.643 162.664C158.716 162.664 158.776 162.658 158.823 162.644C158.876 162.631 158.923 162.601 158.963 162.554C159.009 162.494 159.046 162.361 159.073 162.154C159.106 161.941 159.129 161.621 159.143 161.194C159.163 160.761 159.179 160.184 159.193 159.464V159.344ZM162.003 156.094L162.453 155.634C162.666 155.734 162.886 155.854 163.113 155.994C163.346 156.127 163.563 156.264 163.763 156.404C163.963 156.537 164.13 156.661 164.263 156.774L163.793 157.294C163.666 157.174 163.503 157.044 163.303 156.904C163.103 156.757 162.89 156.614 162.663 156.474C162.436 156.334 162.216 156.207 162.003 156.094ZM163.443 158.804L164.193 158.994C163.766 160.301 163.183 161.434 162.443 162.394C161.703 163.354 160.823 164.138 159.803 164.744C159.763 164.691 159.709 164.624 159.643 164.544C159.576 164.471 159.506 164.394 159.433 164.314C159.366 164.241 159.306 164.178 159.253 164.124C160.266 163.591 161.123 162.874 161.823 161.974C162.523 161.068 163.063 160.011 163.443 158.804ZM157.063 157.294H164.803V158.024H157.063V157.294ZM156.573 157.294H157.353V160.114C157.353 160.468 157.339 160.851 157.313 161.264C157.286 161.678 157.236 162.098 157.163 162.524C157.089 162.951 156.983 163.368 156.843 163.774C156.703 164.174 156.516 164.538 156.283 164.864C156.243 164.811 156.183 164.751 156.103 164.684C156.029 164.618 155.949 164.554 155.863 164.494C155.783 164.434 155.712 164.391 155.652 164.364C155.933 163.951 156.136 163.498 156.263 163.004C156.396 162.511 156.479 162.014 156.513 161.514C156.553 161.008 156.573 160.538 156.573 160.104V157.294ZM160.733 155.604H161.513C161.506 156.531 161.54 157.411 161.613 158.244C161.686 159.077 161.79 159.844 161.923 160.544C162.056 161.238 162.216 161.841 162.403 162.354C162.596 162.861 162.806 163.254 163.033 163.534C163.266 163.814 163.51 163.954 163.763 163.954C163.91 163.954 164.016 163.814 164.083 163.534C164.156 163.248 164.206 162.771 164.233 162.104C164.32 162.184 164.423 162.264 164.543 162.344C164.67 162.424 164.783 162.481 164.883 162.514C164.836 163.088 164.77 163.534 164.683 163.854C164.603 164.174 164.483 164.398 164.323 164.524C164.17 164.658 163.963 164.724 163.703 164.724C163.37 164.724 163.063 164.611 162.783 164.384C162.503 164.158 162.253 163.838 162.033 163.424C161.82 163.011 161.633 162.524 161.473 161.964C161.313 161.398 161.176 160.774 161.063 160.094C160.956 159.414 160.876 158.697 160.823 157.944C160.769 157.184 160.739 156.404 160.733 155.604ZM171.843 159.654L172.633 159.884C172.273 160.811 171.79 161.594 171.183 162.234C170.577 162.874 169.86 163.404 169.033 163.824C168.213 164.238 167.293 164.574 166.273 164.834C166.246 164.768 166.203 164.688 166.143 164.594C166.09 164.508 166.03 164.421 165.963 164.334C165.903 164.248 165.846 164.174 165.793 164.114C166.8 163.908 167.7 163.618 168.493 163.244C169.293 162.864 169.973 162.384 170.533 161.804C171.1 161.218 171.537 160.501 171.843 159.654ZM168.573 157.934L169.343 158.224C169.103 158.544 168.827 158.857 168.513 159.164C168.207 159.471 167.88 159.761 167.533 160.034C167.193 160.301 166.863 160.534 166.543 160.734C166.503 160.681 166.446 160.618 166.373 160.544C166.3 160.464 166.223 160.388 166.143 160.314C166.063 160.241 165.993 160.181 165.933 160.134C166.26 159.961 166.586 159.757 166.913 159.524C167.24 159.291 167.547 159.041 167.833 158.774C168.127 158.501 168.373 158.221 168.573 157.934ZM168.983 159.714C169.45 160.894 170.187 161.854 171.193 162.594C172.207 163.328 173.487 163.824 175.034 164.084C174.98 164.138 174.92 164.208 174.854 164.294C174.794 164.381 174.734 164.468 174.674 164.554C174.62 164.648 174.574 164.728 174.534 164.794C173.474 164.588 172.54 164.274 171.733 163.854C170.927 163.428 170.237 162.888 169.663 162.234C169.097 161.581 168.633 160.814 168.273 159.934L168.983 159.714ZM166.003 156.894H174.784V157.634H166.003V156.894ZM169.993 155.584H170.753V157.364H169.993V155.584ZM171.573 158.354L172.183 157.904C172.503 158.111 172.833 158.344 173.174 158.604C173.514 158.864 173.834 159.127 174.134 159.394C174.44 159.654 174.69 159.894 174.884 160.114L174.224 160.644C174.05 160.418 173.817 160.171 173.524 159.904C173.23 159.631 172.91 159.361 172.563 159.094C172.223 158.821 171.893 158.574 171.573 158.354ZM178.094 158.264V159.264H183.034V158.264H178.094ZM178.094 156.684V157.664H183.034V156.684H178.094ZM177.354 156.054H183.784V159.894H177.354V156.054ZM177.914 160.744H183.904V161.424H177.914V160.744ZM183.714 160.744H184.474C184.474 160.744 184.471 160.764 184.464 160.804C184.464 160.844 184.461 160.891 184.454 160.944C184.454 160.998 184.451 161.044 184.444 161.084C184.384 161.831 184.317 162.438 184.244 162.904C184.177 163.371 184.104 163.731 184.024 163.984C183.944 164.231 183.854 164.408 183.754 164.514C183.661 164.614 183.557 164.684 183.444 164.724C183.337 164.764 183.211 164.788 183.064 164.794C182.937 164.808 182.761 164.811 182.534 164.804C182.314 164.804 182.077 164.798 181.824 164.784C181.817 164.691 181.797 164.581 181.764 164.454C181.731 164.328 181.684 164.218 181.624 164.124C181.871 164.151 182.097 164.168 182.304 164.174C182.517 164.181 182.667 164.184 182.754 164.184C182.847 164.184 182.921 164.178 182.974 164.164C183.027 164.151 183.077 164.118 183.124 164.064C183.204 163.991 183.277 163.841 183.344 163.614C183.411 163.381 183.474 163.044 183.534 162.604C183.601 162.158 183.661 161.578 183.714 160.864V160.744ZM178.664 159.574L179.394 159.804C179.154 160.198 178.874 160.574 178.554 160.934C178.234 161.294 177.897 161.628 177.544 161.934C177.19 162.241 176.834 162.508 176.474 162.734C176.434 162.688 176.377 162.631 176.304 162.564C176.23 162.491 176.157 162.421 176.084 162.354C176.01 162.288 175.944 162.238 175.884 162.204C176.43 161.891 176.954 161.504 177.454 161.044C177.954 160.584 178.357 160.094 178.664 159.574ZM179.754 160.954L180.464 161.164C180.224 161.638 179.934 162.084 179.594 162.504C179.254 162.924 178.89 163.311 178.504 163.664C178.117 164.018 177.717 164.328 177.304 164.594C177.27 164.548 177.217 164.488 177.144 164.414C177.07 164.348 176.997 164.281 176.924 164.214C176.85 164.148 176.787 164.094 176.734 164.054C177.354 163.701 177.93 163.254 178.464 162.714C178.997 162.168 179.427 161.581 179.754 160.954ZM181.824 161.004L182.544 161.174C182.277 161.928 181.931 162.624 181.504 163.264C181.084 163.898 180.617 164.424 180.104 164.844C180.064 164.804 180.007 164.754 179.934 164.694C179.861 164.634 179.784 164.574 179.704 164.514C179.631 164.461 179.567 164.414 179.514 164.374C180.021 163.988 180.474 163.501 180.874 162.914C181.274 162.328 181.591 161.691 181.824 161.004Z" fill="#081735"/>
<path d="M123.066 157.994C124.729 157.994 126.075 159.339 126.075 160.994C126.075 162.649 124.729 163.994 123.066 163.994C121.402 163.994 120.058 162.649 120.058 160.994C120.058 159.339 121.402 157.994 123.066 157.994Z" stroke="#6C5DD3" stroke-width="2"/>
<path d="M421.646 258L424.232 260.586C425.013 261.367 426.279 261.367 427.06 260.586L429.646 258H421.646Z" fill="#081735"/>
<rect x="397.644" y="227.998" width="58.0033" height="30.0017" rx="6" fill="#081735"/>
<path d="M416.351 248.999H418.27V238.639H415.791L411.941 244.911V246.325H419.502V244.743H413.943L415.539 242.167C415.833 241.607 416.113 241.033 416.379 240.473H416.435C416.407 241.089 416.351 242.027 416.351 242.629V248.999ZM424.036 249.195C426.136 249.195 427.536 247.361 427.536 243.777C427.536 240.207 426.136 238.457 424.036 238.457C421.922 238.457 420.521 240.207 420.521 243.777C420.521 247.361 421.922 249.195 424.036 249.195ZM424.036 247.585C423.14 247.585 422.468 246.689 422.468 243.777C422.468 240.879 423.14 240.039 424.036 240.039C424.932 240.039 425.59 240.879 425.59 243.777C425.59 246.689 424.932 247.585 424.036 247.585ZM431.132 245.023C432.616 245.023 433.666 243.791 433.666 241.719C433.666 239.647 432.616 238.457 431.132 238.457C429.648 238.457 428.598 239.647 428.598 241.719C428.598 243.791 429.648 245.023 431.132 245.023ZM431.132 243.861C430.516 243.861 430.054 243.231 430.054 241.719C430.054 240.193 430.516 239.619 431.132 239.619C431.734 239.619 432.196 240.193 432.196 241.719C432.196 243.231 431.734 243.861 431.132 243.861ZM431.468 249.195H432.686L438.328 238.457H437.096L431.468 249.195ZM438.664 249.195C440.134 249.195 441.184 247.977 441.184 245.891C441.184 243.819 440.134 242.615 438.664 242.615C437.194 242.615 436.144 243.819 436.144 245.891C436.144 247.977 437.194 249.195 438.664 249.195ZM438.664 248.033C438.062 248.033 437.586 247.417 437.586 245.891C437.586 244.365 438.062 243.791 438.664 243.791C439.266 243.791 439.742 244.365 439.742 245.891C439.742 247.417 439.266 248.033 438.664 248.033Z" fill="white"/>
<defs>
<filter id="filter0_f_37_5264" x="0" y="-3.05193e-05" width="633.949" height="523" filterUnits="userSpaceOnUse" color-interpolation-filters="sRGB">
<feFlood flood-opacity="0" result="BackgroundImageFix"/>
<feBlend mode="normal" in="SourceGraphic" in2="BackgroundImageFix" result="shape"/>
<feGaussianBlur stdDeviation="43.4925" result="effect1_foregroundBlur_37_5264"/>
</filter>
<linearGradient id="paint0_linear_37_5264" x1="356.558" y1="232.998" x2="356.14" y2="374.007" gradientUnits="userSpaceOnUse">
<stop stop-color="#6C5DD3"/>
<stop offset="1" stop-color="#FF754C" stop-opacity="0.2"/>
</linearGradient>
</defs>
</svg>
