<svg width="57" height="16" viewBox="0 0 57 16" fill="none" xmlns="http://www.w3.org/2000/svg">
<path d="M4.66663 7.3335H5.99996V8.66683H4.66663V7.3335ZM4.66663 10.0002H5.99996V11.3335H4.66663V10.0002ZM7.33329 7.3335H8.66663V8.66683H7.33329V7.3335ZM7.33329 10.0002H8.66663V11.3335H7.33329V10.0002ZM9.99996 7.3335H11.3333V8.66683H9.99996V7.3335ZM9.99996 10.0002H11.3333V11.3335H9.99996V10.0002Z" fill="#8F95B2"/>
<path d="M3.33333 14.6668H12.6667C13.402 14.6668 14 14.0688 14 13.3335V4.00016C14 3.26483 13.402 2.66683 12.6667 2.66683H11.3333V1.3335H10V2.66683H6V1.3335H4.66667V2.66683H3.33333C2.598 2.66683 2 3.26483 2 4.00016V13.3335C2 14.0688 2.598 14.6668 3.33333 14.6668ZM12.6667 5.3335L12.6673 13.3335H3.33333V5.3335H12.6667Z" fill="#8F95B2"/>
<path d="M22.048 13L25.024 4.204H26.26L29.248 13H28.072L26.536 8.08C26.376 7.576 26.224 7.084 26.08 6.604C25.936 6.116 25.792 5.616 25.648 5.104H25.6C25.464 5.616 25.32 6.116 25.168 6.604C25.024 7.084 24.876 7.576 24.724 8.08L23.164 13H22.048ZM23.596 10.312V9.436H27.652V10.312H23.596ZM30.5128 13V4.204H31.6168V13H30.5128ZM41.9244 10.432L42.6084 10.036C42.8484 10.3 43.0804 10.588 43.3044 10.9C43.5364 11.212 43.7404 11.52 43.9164 11.824C44.1004 12.128 44.2324 12.408 44.3124 12.664L43.5804 13.12C43.4924 12.872 43.3604 12.592 43.1844 12.28C43.0164 11.968 42.8204 11.652 42.5964 11.332C42.3804 11.012 42.1564 10.712 41.9244 10.432ZM37.7604 9.772L38.3964 9.268C38.6684 9.436 38.9404 9.636 39.2124 9.868C39.4924 10.092 39.7524 10.32 39.9924 10.552C40.2404 10.776 40.4364 10.984 40.5804 11.176L39.9084 11.752C39.7644 11.552 39.5724 11.336 39.3324 11.104C39.1004 10.864 38.8444 10.628 38.5644 10.396C38.2924 10.156 38.0244 9.948 37.7604 9.772ZM36.1884 10.108H37.1364V12.58C37.1364 12.756 37.1884 12.872 37.2924 12.928C37.4044 12.984 37.6524 13.012 38.0364 13.012C38.1084 13.012 38.2244 13.012 38.3844 13.012C38.5524 13.012 38.7444 13.012 38.9604 13.012C39.1764 13.012 39.3924 13.012 39.6084 13.012C39.8244 13.012 40.0244 13.012 40.2084 13.012C40.3924 13.012 40.5284 13.012 40.6164 13.012C40.8164 13.012 40.9644 12.984 41.0604 12.928C41.1644 12.872 41.2364 12.756 41.2764 12.58C41.3164 12.404 41.3484 12.14 41.3724 11.788C41.4364 11.836 41.5204 11.88 41.6244 11.92C41.7284 11.96 41.8324 12 41.9364 12.04C42.0404 12.072 42.1364 12.096 42.2244 12.112C42.1764 12.568 42.1044 12.92 42.0084 13.168C41.9124 13.424 41.7604 13.596 41.5524 13.684C41.3444 13.78 41.0564 13.828 40.6884 13.828C40.6244 13.828 40.5004 13.828 40.3164 13.828C40.1404 13.828 39.9324 13.828 39.6924 13.828C39.4524 13.828 39.2124 13.828 38.9724 13.828C38.7324 13.828 38.5204 13.828 38.3364 13.828C38.1604 13.828 38.0444 13.828 37.9884 13.828C37.5164 13.828 37.1484 13.792 36.8844 13.72C36.6284 13.648 36.4484 13.52 36.3444 13.336C36.2404 13.16 36.1884 12.912 36.1884 12.592V10.108ZM34.4604 10.3L35.3124 10.456C35.2084 10.944 35.0564 11.448 34.8564 11.968C34.6644 12.488 34.4324 12.928 34.1604 13.288L33.3324 12.892C33.5004 12.692 33.6564 12.448 33.8004 12.16C33.9444 11.872 34.0724 11.568 34.1844 11.248C34.2964 10.92 34.3884 10.604 34.4604 10.3ZM35.9004 3.328L36.6684 2.968C36.9404 3.28 37.1964 3.624 37.4364 4C37.6764 4.368 37.8524 4.696 37.9644 4.984L37.1364 5.404C37.0724 5.212 36.9764 4.996 36.8484 4.756C36.7204 4.516 36.5724 4.272 36.4044 4.024C36.2444 3.768 36.0764 3.536 35.9004 3.328ZM41.0244 2.932L41.9484 3.304C41.6844 3.76 41.4084 4.224 41.1204 4.696C40.8324 5.168 40.5564 5.576 40.2924 5.92L39.5604 5.56C39.7284 5.328 39.9004 5.06 40.0764 4.756C40.2604 4.444 40.4364 4.128 40.6044 3.808C40.7724 3.488 40.9124 3.196 41.0244 2.932ZM35.9964 6.196V8.308H41.6604V6.196H35.9964ZM35.0484 5.344H42.6564V9.172H35.0484V5.344ZM45.5724 10.792C45.5644 10.728 45.5404 10.644 45.5004 10.54C45.4604 10.428 45.4204 10.316 45.3804 10.204C45.3484 10.092 45.3124 9.996 45.2724 9.916C45.4084 9.892 45.5524 9.812 45.7044 9.676C45.8564 9.532 46.0284 9.352 46.2204 9.136C46.3244 9.032 46.4764 8.856 46.6764 8.608C46.8844 8.36 47.1124 8.068 47.3604 7.732C47.6084 7.396 47.8604 7.032 48.1164 6.64C48.3724 6.248 48.6084 5.852 48.8244 5.452L49.6524 5.956C49.1404 6.756 48.5884 7.536 47.9964 8.296C47.4044 9.056 46.8084 9.724 46.2084 10.3V10.324C46.2084 10.324 46.1764 10.34 46.1124 10.372C46.0484 10.396 45.9724 10.432 45.8844 10.48C45.8044 10.528 45.7324 10.58 45.6684 10.636C45.6044 10.692 45.5724 10.744 45.5724 10.792ZM45.5724 10.792L45.5364 10.036L46.0044 9.724L49.5924 9.136C49.5844 9.256 49.5844 9.396 49.5924 9.556C49.6084 9.708 49.6244 9.832 49.6404 9.928C48.8004 10.08 48.1244 10.204 47.6124 10.3C47.1084 10.396 46.7204 10.472 46.4484 10.528C46.1844 10.584 45.9884 10.632 45.8604 10.672C45.7404 10.712 45.6444 10.752 45.5724 10.792ZM45.4884 7.876C45.4724 7.812 45.4444 7.724 45.4044 7.612C45.3724 7.5 45.3364 7.388 45.2964 7.276C45.2564 7.156 45.2164 7.056 45.1764 6.976C45.2884 6.952 45.4004 6.876 45.5124 6.748C45.6244 6.62 45.7404 6.46 45.8604 6.268C45.9324 6.172 46.0324 6.016 46.1604 5.8C46.2884 5.576 46.4324 5.312 46.5924 5.008C46.7524 4.704 46.9084 4.38 47.0604 4.036C47.2204 3.692 47.3604 3.344 47.4804 2.992L48.4044 3.376C48.1964 3.856 47.9644 4.336 47.7084 4.816C47.4604 5.288 47.2004 5.744 46.9284 6.184C46.6564 6.616 46.3804 7.008 46.1004 7.36V7.384C46.1004 7.384 46.0684 7.4 46.0044 7.432C45.9484 7.464 45.8764 7.508 45.7884 7.564C45.7084 7.612 45.6364 7.664 45.5724 7.72C45.5164 7.776 45.4884 7.828 45.4884 7.876ZM45.4884 7.876L45.4764 7.204L45.9324 6.916L48.4644 6.7C48.4404 6.812 48.4204 6.94 48.4044 7.084C48.3884 7.228 48.3804 7.348 48.3804 7.444C47.8124 7.508 47.3484 7.564 46.9884 7.612C46.6284 7.652 46.3484 7.688 46.1484 7.72C45.9564 7.752 45.8124 7.78 45.7164 7.804C45.6204 7.828 45.5444 7.852 45.4884 7.876ZM45.2364 12.364C45.6124 12.3 46.0364 12.224 46.5084 12.136C46.9884 12.04 47.4924 11.94 48.0204 11.836C48.5564 11.724 49.0884 11.616 49.6164 11.512L49.6884 12.34C48.9364 12.516 48.1804 12.684 47.4204 12.844C46.6684 13.004 45.9924 13.152 45.3924 13.288L45.2364 12.364ZM49.7124 4.528H56.1324V5.392H49.7124V4.528ZM50.0124 7.264H55.9284V8.128H50.0124V7.264ZM50.8164 12.616H55.1604V13.432H50.8164V12.616ZM52.4844 2.908H53.4084V7.708H52.4844V2.908ZM50.3244 9.352H55.6284V13.9H54.7284V10.168H51.2004V13.948H50.3244V9.352Z" fill="#8F95B2"/>
</svg>
