<svg width="46" height="16" viewBox="0 0 46 16" fill="none" xmlns="http://www.w3.org/2000/svg">
<path d="M14.4219 4.43126C14.2124 3.94632 13.9104 3.50687 13.5328 3.13751C13.1549 2.76705 12.7093 2.47265 12.2203 2.27032C11.7132 2.05969 11.1694 1.95187 10.6203 1.95314C9.85 1.95314 9.09844 2.16407 8.44531 2.56251C8.28906 2.65782 8.14062 2.76251 8 2.87657C7.85938 2.76251 7.71094 2.65782 7.55469 2.56251C6.90156 2.16407 6.15 1.95314 5.37969 1.95314C4.825 1.95314 4.2875 2.05939 3.77969 2.27032C3.28906 2.47345 2.84687 2.76564 2.46719 3.13751C2.08906 3.50645 1.787 3.94601 1.57812 4.43126C1.36094 4.93595 1.25 5.47189 1.25 6.02345C1.25 6.54376 1.35625 7.08595 1.56719 7.63751C1.74375 8.09845 1.99687 8.57657 2.32031 9.05939C2.83281 9.82345 3.5375 10.6203 4.4125 11.4281C5.8625 12.7672 7.29844 13.6922 7.35938 13.7297L7.72969 13.9672C7.89375 14.0719 8.10469 14.0719 8.26875 13.9672L8.63906 13.7297C8.7 13.6906 10.1344 12.7672 11.5859 11.4281C12.4609 10.6203 13.1656 9.82345 13.6781 9.05939C14.0016 8.57657 14.2562 8.09845 14.4312 7.63751C14.6422 7.08595 14.7484 6.54376 14.7484 6.02345C14.75 5.47189 14.6391 4.93595 14.4219 4.43126ZM8 12.7313C8 12.7313 2.4375 9.1672 2.4375 6.02345C2.4375 4.43126 3.75469 3.14064 5.37969 3.14064C6.52187 3.14064 7.5125 3.77814 8 4.70939C8.4875 3.77814 9.47813 3.14064 10.6203 3.14064C12.2453 3.14064 13.5625 4.43126 13.5625 6.02345C13.5625 9.1672 8 12.7313 8 12.7313Z" fill="#8F95B2"/>
<path d="M28.588 5.26H33.472V6.112H28.588V5.26ZM28.924 2.92L29.848 3.064C29.712 3.84 29.536 4.588 29.32 5.308C29.104 6.028 28.852 6.696 28.564 7.312C28.276 7.928 27.94 8.472 27.556 8.944C27.516 8.88 27.456 8.8 27.376 8.704C27.304 8.608 27.224 8.512 27.136 8.416C27.056 8.32 26.98 8.244 26.908 8.188C27.26 7.78 27.564 7.3 27.82 6.748C28.076 6.188 28.296 5.584 28.48 4.936C28.664 4.288 28.812 3.616 28.924 2.92ZM31.732 5.68L32.62 5.8C32.404 7.144 32.096 8.332 31.696 9.364C31.296 10.396 30.772 11.292 30.124 12.052C29.476 12.804 28.668 13.444 27.7 13.972C27.668 13.908 27.616 13.828 27.544 13.732C27.472 13.644 27.4 13.552 27.328 13.456C27.256 13.368 27.184 13.292 27.112 13.228C28.048 12.772 28.824 12.196 29.44 11.5C30.056 10.804 30.544 9.972 30.904 9.004C31.272 8.036 31.548 6.928 31.732 5.68ZM28.924 6.016C29.18 7.072 29.516 8.072 29.932 9.016C30.348 9.96 30.856 10.792 31.456 11.512C32.064 12.224 32.768 12.78 33.568 13.18C33.504 13.236 33.428 13.304 33.34 13.384C33.26 13.472 33.184 13.56 33.112 13.648C33.048 13.744 32.992 13.832 32.944 13.912C32.12 13.456 31.4 12.844 30.784 12.076C30.176 11.308 29.66 10.424 29.236 9.424C28.812 8.416 28.464 7.332 28.192 6.172L28.924 6.016ZM25.888 3.1H26.776V13.972H25.888V3.1ZM23.104 11.8L23.02 10.948L23.428 10.576L26.296 9.628C26.32 9.756 26.352 9.896 26.392 10.048C26.44 10.192 26.48 10.312 26.512 10.408C25.824 10.656 25.268 10.86 24.844 11.02C24.42 11.18 24.092 11.308 23.86 11.404C23.636 11.5 23.468 11.576 23.356 11.632C23.252 11.688 23.168 11.744 23.104 11.8ZM23.104 11.8C23.08 11.72 23.048 11.632 23.008 11.536C22.968 11.432 22.924 11.328 22.876 11.224C22.828 11.12 22.78 11.036 22.732 10.972C22.82 10.916 22.912 10.828 23.008 10.708C23.104 10.58 23.152 10.396 23.152 10.156V4.252H24.04V10.96C24.04 10.96 23.992 10.988 23.896 11.044C23.8 11.1 23.692 11.172 23.572 11.26C23.452 11.348 23.344 11.44 23.248 11.536C23.152 11.632 23.104 11.72 23.104 11.8ZM34.72 3.76H45.304V4.528H34.72V3.76ZM37.132 5.824H45.424V6.604H37.132V5.824ZM35.404 7.936H37.06V8.68H35.404V7.936ZM34.492 9.676H37.012V10.444H34.492V9.676ZM38.428 11.944H41.8V12.568H38.428V11.944ZM37.576 2.92H38.464V5.368H37.576V2.92ZM41.5 2.92H42.388V5.392H41.5V2.92ZM39.784 7.696H40.444V9.148H39.784V7.696ZM35.032 5.884H35.728V9.064H35.032V5.884ZM39.784 10.744H40.444V12.22H39.784V10.744ZM38.512 8.824H41.692V11.068H38.512V10.468H41.02V9.412H38.512V8.824ZM38.116 7.36H41.692V7.984H38.788V13.288H38.116V7.36ZM36.724 5.824H37.504V9.148C37.504 9.636 37.484 10.168 37.444 10.744C37.404 11.32 37.32 11.892 37.192 12.46C37.072 13.02 36.884 13.528 36.628 13.984C36.588 13.944 36.524 13.896 36.436 13.84C36.356 13.792 36.272 13.744 36.184 13.696C36.096 13.648 36.02 13.616 35.956 13.6C36.188 13.16 36.36 12.684 36.472 12.172C36.584 11.652 36.652 11.132 36.676 10.612C36.708 10.084 36.724 9.596 36.724 9.148V5.824ZM41.896 5.044H42.724C42.732 6.42 42.788 7.62 42.892 8.644C43.004 9.66 43.148 10.504 43.324 11.176C43.5 11.848 43.692 12.352 43.9 12.688C44.108 13.016 44.32 13.18 44.536 13.18C44.624 13.172 44.692 13.124 44.74 13.036C44.796 12.956 44.844 12.808 44.884 12.592C44.924 12.368 44.952 12.06 44.968 11.668C45.056 11.748 45.16 11.828 45.28 11.908C45.4 11.98 45.508 12.032 45.604 12.064C45.564 12.6 45.496 13.004 45.4 13.276C45.312 13.556 45.192 13.74 45.04 13.828C44.896 13.924 44.708 13.972 44.476 13.972C44.092 13.972 43.748 13.776 43.444 13.384C43.14 12.992 42.88 12.416 42.664 11.656C42.448 10.896 42.276 9.964 42.148 8.86C42.02 7.748 41.936 6.476 41.896 5.044ZM43.252 5.056L43.792 4.648C44.008 4.768 44.228 4.916 44.452 5.092C44.684 5.26 44.856 5.42 44.968 5.572L44.404 6.028C44.292 5.876 44.124 5.708 43.9 5.524C43.684 5.34 43.468 5.184 43.252 5.056ZM44.008 7.348L44.824 7.492C44.512 8.932 44.056 10.2 43.456 11.296C42.864 12.384 42.108 13.28 41.188 13.984C41.148 13.928 41.088 13.864 41.008 13.792C40.928 13.728 40.844 13.66 40.756 13.588C40.668 13.524 40.588 13.472 40.516 13.432C41.444 12.792 42.192 11.956 42.76 10.924C43.328 9.892 43.744 8.7 44.008 7.348ZM35.164 9.952H35.836V10.996C35.836 11.284 35.816 11.604 35.776 11.956C35.736 12.3 35.652 12.648 35.524 13C35.404 13.352 35.22 13.672 34.972 13.96C34.9 13.896 34.808 13.828 34.696 13.756C34.584 13.684 34.488 13.624 34.408 13.576C34.624 13.312 34.784 13.028 34.888 12.724C35 12.412 35.072 12.104 35.104 11.8C35.144 11.496 35.164 11.22 35.164 10.972V9.952Z" fill="#8F95B2"/>
</svg>
