<svg width="391" height="72" viewBox="0 0 391 72" fill="none" xmlns="http://www.w3.org/2000/svg">
<g clip-path="url(#clip0_117_6058)">
<g clip-path="url(#clip1_117_6058)">
<g clip-path="url(#clip2_117_6058)">
<path fill-rule="evenodd" clip-rule="evenodd" d="M0 8C0 3.58172 3.58172 0 8 0H117C121.418 0 125 3.58172 125 8V24C125 28.4183 121.418 32 117 32H8C3.58172 32 0 28.4183 0 24V8Z" fill="#FAFAFA"/>
<path d="M42.612 11.504H50.704V13.016H47.526V21.5H45.776V13.016H42.612V11.504ZM51.6808 11.504H53.2768V13.016H51.6808V11.504ZM51.6808 14.262H53.2768V21.5H51.6808V14.262ZM55.0578 11.504H56.6538V17.188L59.5378 14.262H61.4978L58.7258 16.922L61.7638 21.5H59.8178L57.6058 17.986L56.6538 18.91V21.5H55.0578V11.504ZM61.8073 14.262H63.0113V12.092H64.6073V14.262H66.0493V15.452H64.6073V19.316C64.6073 19.484 64.612 19.6287 64.6213 19.75C64.64 19.8713 64.6726 19.974 64.7193 20.058C64.7753 20.142 64.8546 20.2073 64.9573 20.254C65.06 20.2913 65.2 20.31 65.3773 20.31C65.4893 20.31 65.6013 20.31 65.7133 20.31C65.8253 20.3007 65.9373 20.282 66.0493 20.254V21.486C65.872 21.5047 65.6993 21.5233 65.5313 21.542C65.3633 21.5607 65.1906 21.57 65.0133 21.57C64.5933 21.57 64.2526 21.5327 63.9913 21.458C63.7393 21.374 63.5386 21.2573 63.3893 21.108C63.2493 20.9493 63.1513 20.7533 63.0953 20.52C63.0486 20.2867 63.0206 20.0207 63.0113 19.722V15.452H61.8073V14.262ZM70.5154 21.696C69.9368 21.696 69.4188 21.6027 68.9614 21.416C68.5134 21.22 68.1308 20.954 67.8134 20.618C67.5054 20.282 67.2674 19.8807 67.0994 19.414C66.9408 18.9473 66.8614 18.434 66.8614 17.874C66.8614 17.3233 66.9408 16.8147 67.0994 16.348C67.2674 15.8813 67.5054 15.48 67.8134 15.144C68.1308 14.808 68.5134 14.5467 68.9614 14.36C69.4188 14.164 69.9368 14.066 70.5154 14.066C71.0941 14.066 71.6074 14.164 72.0554 14.36C72.5128 14.5467 72.8954 14.808 73.2034 15.144C73.5208 15.48 73.7588 15.8813 73.9174 16.348C74.0854 16.8147 74.1694 17.3233 74.1694 17.874C74.1694 18.434 74.0854 18.9473 73.9174 19.414C73.7588 19.8807 73.5208 20.282 73.2034 20.618C72.8954 20.954 72.5128 21.22 72.0554 21.416C71.6074 21.6027 71.0941 21.696 70.5154 21.696ZM70.5154 20.436C70.8701 20.436 71.1781 20.3613 71.4394 20.212C71.7008 20.0627 71.9154 19.8667 72.0834 19.624C72.2514 19.3813 72.3728 19.1107 72.4474 18.812C72.5314 18.504 72.5734 18.1913 72.5734 17.874C72.5734 17.566 72.5314 17.258 72.4474 16.95C72.3728 16.642 72.2514 16.3713 72.0834 16.138C71.9154 15.8953 71.7008 15.6993 71.4394 15.55C71.1781 15.4007 70.8701 15.326 70.5154 15.326C70.1608 15.326 69.8528 15.4007 69.5914 15.55C69.3301 15.6993 69.1154 15.8953 68.9474 16.138C68.7794 16.3713 68.6534 16.642 68.5694 16.95C68.4948 17.258 68.4574 17.566 68.4574 17.874C68.4574 18.1913 68.4948 18.504 68.5694 18.812C68.6534 19.1107 68.7794 19.3813 68.9474 19.624C69.1154 19.8667 69.3301 20.0627 69.5914 20.212C69.8528 20.3613 70.1608 20.436 70.5154 20.436ZM75.5383 11.504H77.1343V17.188L80.0183 14.262H81.9783L79.2063 16.922L82.2443 21.5H80.2983L78.0863 17.986L77.1343 18.91V21.5H75.5383V11.504Z" fill="#111827"/>
</g>
<g clip-path="url(#clip3_117_6058)">
<path fill-rule="evenodd" clip-rule="evenodd" d="M266 8C266 3.58172 269.582 0 274 0H383C387.418 0 391 3.58172 391 8V24C391 28.4183 387.418 32 383 32H274C269.582 32 266 28.4183 266 24V8Z" fill="#FAFAFA"/>
<path d="M303.064 11.504H304.814V21.5H303.064V11.504ZM306.736 14.262H308.248V15.326L308.276 15.354C308.519 14.9527 308.836 14.64 309.228 14.416C309.62 14.1827 310.054 14.066 310.53 14.066C311.324 14.066 311.949 14.2713 312.406 14.682C312.864 15.0927 313.092 15.7087 313.092 16.53V21.5H311.496V16.95C311.478 16.3807 311.356 15.97 311.132 15.718C310.908 15.4567 310.558 15.326 310.082 15.326C309.812 15.326 309.569 15.3773 309.354 15.48C309.14 15.5733 308.958 15.7087 308.808 15.886C308.659 16.054 308.542 16.2547 308.458 16.488C308.374 16.7213 308.332 16.9687 308.332 17.23V21.5H306.736V14.262ZM315.98 19.176C316.026 19.6427 316.204 19.9693 316.512 20.156C316.82 20.3427 317.188 20.436 317.618 20.436C317.767 20.436 317.935 20.4267 318.122 20.408C318.318 20.38 318.5 20.3333 318.668 20.268C318.836 20.2027 318.971 20.1093 319.074 19.988C319.186 19.8573 319.237 19.6893 319.228 19.484C319.218 19.2787 319.144 19.1107 319.004 18.98C318.864 18.8493 318.682 18.7467 318.458 18.672C318.243 18.588 317.996 18.518 317.716 18.462C317.436 18.406 317.151 18.3453 316.862 18.28C316.563 18.2147 316.274 18.1353 315.994 18.042C315.723 17.9487 315.476 17.8227 315.252 17.664C315.037 17.5053 314.864 17.3047 314.734 17.062C314.603 16.81 314.538 16.502 314.538 16.138C314.538 15.746 314.631 15.4193 314.818 15.158C315.014 14.8873 315.256 14.6727 315.546 14.514C315.844 14.346 316.171 14.2293 316.526 14.164C316.89 14.0987 317.235 14.066 317.562 14.066C317.935 14.066 318.29 14.108 318.626 14.192C318.971 14.2667 319.279 14.3927 319.55 14.57C319.83 14.7473 320.058 14.9807 320.236 15.27C320.422 15.55 320.539 15.8907 320.586 16.292H318.92C318.845 15.9093 318.668 15.6527 318.388 15.522C318.117 15.3913 317.804 15.326 317.45 15.326C317.338 15.326 317.202 15.3353 317.044 15.354C316.894 15.3727 316.75 15.41 316.61 15.466C316.479 15.5127 316.367 15.5873 316.274 15.69C316.18 15.7833 316.134 15.9093 316.134 16.068C316.134 16.264 316.199 16.4227 316.33 16.544C316.47 16.6653 316.647 16.768 316.862 16.852C317.086 16.9267 317.338 16.992 317.618 17.048C317.898 17.104 318.187 17.1647 318.486 17.23C318.775 17.2953 319.06 17.3747 319.34 17.468C319.62 17.5613 319.867 17.6873 320.082 17.846C320.306 18.0047 320.483 18.2053 320.614 18.448C320.754 18.6907 320.824 18.9893 320.824 19.344C320.824 19.7733 320.726 20.1373 320.53 20.436C320.334 20.7347 320.077 20.9773 319.76 21.164C319.452 21.3507 319.106 21.486 318.724 21.57C318.341 21.654 317.963 21.696 317.59 21.696C317.132 21.696 316.708 21.6447 316.316 21.542C315.933 21.4393 315.597 21.2853 315.308 21.08C315.028 20.8653 314.804 20.604 314.636 20.296C314.477 19.9787 314.393 19.6053 314.384 19.176H315.98ZM328.727 21.122C328.727 22.214 328.419 23.026 327.803 23.558C327.197 24.0993 326.319 24.37 325.171 24.37C324.807 24.37 324.439 24.3327 324.065 24.258C323.701 24.1833 323.365 24.0573 323.057 23.88C322.759 23.7027 322.507 23.4693 322.301 23.18C322.096 22.8907 321.975 22.536 321.937 22.116H323.533C323.58 22.34 323.659 22.522 323.771 22.662C323.883 22.802 324.014 22.9093 324.163 22.984C324.322 23.068 324.495 23.1193 324.681 23.138C324.868 23.166 325.064 23.18 325.269 23.18C325.913 23.18 326.385 23.0213 326.683 22.704C326.982 22.3867 327.131 21.9293 327.131 21.332V20.226H327.103C326.879 20.6273 326.571 20.94 326.179 21.164C325.797 21.388 325.381 21.5 324.933 21.5C324.355 21.5 323.86 21.402 323.449 21.206C323.048 21.0007 322.712 20.7253 322.441 20.38C322.18 20.0253 321.989 19.6193 321.867 19.162C321.746 18.7047 321.685 18.2147 321.685 17.692C321.685 17.2067 321.76 16.7447 321.909 16.306C322.059 15.8673 322.273 15.4847 322.553 15.158C322.833 14.822 323.174 14.556 323.575 14.36C323.986 14.164 324.448 14.066 324.961 14.066C325.419 14.066 325.839 14.164 326.221 14.36C326.604 14.5467 326.898 14.8453 327.103 15.256H327.131V14.262H328.727V21.122ZM325.185 20.24C325.54 20.24 325.839 20.17 326.081 20.03C326.333 19.8807 326.534 19.6893 326.683 19.456C326.842 19.2133 326.954 18.9427 327.019 18.644C327.094 18.336 327.131 18.028 327.131 17.72C327.131 17.412 327.094 17.1133 327.019 16.824C326.945 16.5347 326.828 16.278 326.669 16.054C326.52 15.83 326.319 15.6527 326.067 15.522C325.825 15.3913 325.531 15.326 325.185 15.326C324.831 15.326 324.532 15.4007 324.289 15.55C324.047 15.6993 323.851 15.8953 323.701 16.138C323.552 16.3713 323.445 16.642 323.379 16.95C323.314 17.2487 323.281 17.5473 323.281 17.846C323.281 18.1447 323.319 18.4387 323.393 18.728C323.468 19.008 323.58 19.26 323.729 19.484C323.888 19.708 324.084 19.89 324.317 20.03C324.56 20.17 324.849 20.24 325.185 20.24ZM330.334 14.262H331.832V15.662H331.86C331.907 15.466 331.995 15.2747 332.126 15.088C332.266 14.9013 332.429 14.7333 332.616 14.584C332.812 14.4253 333.027 14.2993 333.26 14.206C333.493 14.1127 333.731 14.066 333.974 14.066C334.161 14.066 334.287 14.0707 334.352 14.08C334.427 14.0893 334.501 14.0987 334.576 14.108V15.648C334.464 15.6293 334.347 15.6153 334.226 15.606C334.114 15.5873 334.002 15.578 333.89 15.578C333.619 15.578 333.363 15.634 333.12 15.746C332.887 15.8487 332.681 16.0073 332.504 16.222C332.327 16.4273 332.187 16.684 332.084 16.992C331.981 17.3 331.93 17.6547 331.93 18.056V21.5H330.334V14.262ZM341.318 19.89C341.318 20.086 341.341 20.226 341.388 20.31C341.444 20.394 341.547 20.436 341.696 20.436C341.743 20.436 341.799 20.436 341.864 20.436C341.929 20.436 342.004 20.4267 342.088 20.408V21.514C342.032 21.5327 341.957 21.5513 341.864 21.57C341.78 21.598 341.691 21.6213 341.598 21.64C341.505 21.6587 341.411 21.6727 341.318 21.682C341.225 21.6913 341.145 21.696 341.08 21.696C340.753 21.696 340.483 21.6307 340.268 21.5C340.053 21.3693 339.913 21.1407 339.848 20.814C339.531 21.122 339.139 21.346 338.672 21.486C338.215 21.626 337.771 21.696 337.342 21.696C337.015 21.696 336.703 21.6493 336.404 21.556C336.105 21.472 335.839 21.346 335.606 21.178C335.382 21.0007 335.2 20.7813 335.06 20.52C334.929 20.2493 334.864 19.9367 334.864 19.582C334.864 19.134 334.943 18.77 335.102 18.49C335.27 18.21 335.485 17.9907 335.746 17.832C336.017 17.6733 336.315 17.5613 336.642 17.496C336.978 17.4213 337.314 17.3653 337.65 17.328C337.939 17.272 338.215 17.2347 338.476 17.216C338.737 17.188 338.966 17.146 339.162 17.09C339.367 17.034 339.526 16.95 339.638 16.838C339.759 16.7167 339.82 16.5393 339.82 16.306C339.82 16.1007 339.769 15.9327 339.666 15.802C339.573 15.6713 339.451 15.5733 339.302 15.508C339.162 15.4333 339.003 15.3867 338.826 15.368C338.649 15.34 338.481 15.326 338.322 15.326C337.874 15.326 337.505 15.4193 337.216 15.606C336.927 15.7927 336.763 16.082 336.726 16.474H335.13C335.158 16.0073 335.27 15.62 335.466 15.312C335.662 15.004 335.909 14.7567 336.208 14.57C336.516 14.3833 336.861 14.2527 337.244 14.178C337.627 14.1033 338.019 14.066 338.42 14.066C338.775 14.066 339.125 14.1033 339.47 14.178C339.815 14.2527 340.123 14.374 340.394 14.542C340.674 14.71 340.898 14.9293 341.066 15.2C341.234 15.4613 341.318 15.7833 341.318 16.166V19.89ZM339.722 17.874C339.479 18.0327 339.181 18.1307 338.826 18.168C338.471 18.196 338.117 18.2427 337.762 18.308C337.594 18.336 337.431 18.378 337.272 18.434C337.113 18.4807 336.973 18.5507 336.852 18.644C336.731 18.728 336.633 18.8447 336.558 18.994C336.493 19.134 336.46 19.3067 336.46 19.512C336.46 19.6893 336.511 19.8387 336.614 19.96C336.717 20.0813 336.838 20.1793 336.978 20.254C337.127 20.3193 337.286 20.366 337.454 20.394C337.631 20.422 337.79 20.436 337.93 20.436C338.107 20.436 338.299 20.4127 338.504 20.366C338.709 20.3193 338.901 20.24 339.078 20.128C339.265 20.016 339.419 19.876 339.54 19.708C339.661 19.5307 339.722 19.316 339.722 19.064V17.874ZM343.035 14.262H344.547V15.27H344.589C344.711 15.0927 344.841 14.9293 344.981 14.78C345.121 14.6307 345.275 14.5047 345.443 14.402C345.621 14.2993 345.821 14.22 346.045 14.164C346.269 14.0987 346.526 14.066 346.815 14.066C347.254 14.066 347.66 14.164 348.033 14.36C348.416 14.556 348.687 14.8593 348.845 15.27C349.116 14.8967 349.429 14.6027 349.783 14.388C350.138 14.1733 350.581 14.066 351.113 14.066C351.879 14.066 352.471 14.2527 352.891 14.626C353.321 14.9993 353.535 15.6247 353.535 16.502V21.5H351.939V17.272C351.939 16.9827 351.93 16.7213 351.911 16.488C351.893 16.2453 351.837 16.04 351.743 15.872C351.659 15.6947 351.529 15.5593 351.351 15.466C351.174 15.3727 350.931 15.326 350.623 15.326C350.082 15.326 349.69 15.494 349.447 15.83C349.205 16.166 349.083 16.642 349.083 17.258V21.5H347.487V16.852C347.487 16.348 347.394 15.97 347.207 15.718C347.03 15.4567 346.699 15.326 346.213 15.326C346.008 15.326 345.807 15.368 345.611 15.452C345.425 15.536 345.257 15.6573 345.107 15.816C344.967 15.9747 344.851 16.1707 344.757 16.404C344.673 16.6373 344.631 16.9033 344.631 17.202V21.5H343.035V14.262Z" fill="#111827"/>
</g>
<g clip-path="url(#clip4_117_6058)">
<path fill-rule="evenodd" clip-rule="evenodd" d="M133 8C133 3.58172 136.582 0 141 0H250C254.418 0 258 3.58172 258 8V24C258 28.4183 254.418 32 250 32H141C136.582 32 133 28.4183 133 24V8Z" fill="#FAFAFA"/>
<path d="M172.712 18.168C172.712 18.5507 172.777 18.8773 172.908 19.148C173.039 19.4187 173.221 19.6427 173.454 19.82C173.687 19.988 173.953 20.114 174.252 20.198C174.56 20.2727 174.891 20.31 175.246 20.31C175.629 20.31 175.955 20.268 176.226 20.184C176.497 20.0907 176.716 19.974 176.884 19.834C177.052 19.694 177.173 19.5353 177.248 19.358C177.323 19.1713 177.36 18.9847 177.36 18.798C177.36 18.4153 177.271 18.1353 177.094 17.958C176.926 17.7713 176.739 17.6407 176.534 17.566C176.179 17.4353 175.764 17.314 175.288 17.202C174.821 17.0807 174.243 16.9267 173.552 16.74C173.123 16.628 172.763 16.4833 172.474 16.306C172.194 16.1193 171.97 15.914 171.802 15.69C171.634 15.466 171.513 15.228 171.438 14.976C171.373 14.724 171.34 14.4673 171.34 14.206C171.34 13.702 171.443 13.268 171.648 12.904C171.863 12.5307 172.143 12.2227 172.488 11.98C172.833 11.7373 173.225 11.56 173.664 11.448C174.103 11.3267 174.546 11.266 174.994 11.266C175.517 11.266 176.007 11.336 176.464 11.476C176.931 11.6067 177.337 11.8073 177.682 12.078C178.037 12.3487 178.317 12.6847 178.522 13.086C178.727 13.478 178.83 13.9353 178.83 14.458H177.08C177.033 13.814 176.814 13.3613 176.422 13.1C176.03 12.8293 175.531 12.694 174.924 12.694C174.719 12.694 174.509 12.7173 174.294 12.764C174.079 12.8013 173.883 12.8713 173.706 12.974C173.529 13.0673 173.379 13.198 173.258 13.366C173.146 13.534 173.09 13.744 173.09 13.996C173.09 14.3507 173.197 14.6307 173.412 14.836C173.636 15.032 173.925 15.1813 174.28 15.284C174.317 15.2933 174.462 15.3353 174.714 15.41C174.975 15.4753 175.265 15.55 175.582 15.634C175.899 15.718 176.207 15.802 176.506 15.886C176.814 15.9607 177.033 16.0167 177.164 16.054C177.491 16.1567 177.775 16.2967 178.018 16.474C178.261 16.6513 178.461 16.8567 178.62 17.09C178.788 17.314 178.909 17.5567 178.984 17.818C179.068 18.0793 179.11 18.3407 179.11 18.602C179.11 19.162 178.993 19.6427 178.76 20.044C178.536 20.436 178.237 20.758 177.864 21.01C177.491 21.262 177.066 21.444 176.59 21.556C176.114 21.6773 175.629 21.738 175.134 21.738C174.565 21.738 174.028 21.668 173.524 21.528C173.02 21.388 172.581 21.1733 172.208 20.884C171.835 20.5947 171.536 20.226 171.312 19.778C171.088 19.3207 170.971 18.784 170.962 18.168H172.712ZM180.418 11.504H182.014V15.214H182.042C182.238 14.8873 182.527 14.6167 182.91 14.402C183.302 14.178 183.736 14.066 184.212 14.066C185.005 14.066 185.631 14.2713 186.088 14.682C186.545 15.0927 186.774 15.7087 186.774 16.53V21.5H185.178V16.95C185.159 16.3807 185.038 15.97 184.814 15.718C184.59 15.4567 184.24 15.326 183.764 15.326C183.493 15.326 183.251 15.3773 183.036 15.48C182.821 15.5733 182.639 15.7087 182.49 15.886C182.341 16.054 182.224 16.2547 182.14 16.488C182.056 16.7213 182.014 16.9687 182.014 17.23V21.5H180.418V11.504ZM191.775 21.696C191.197 21.696 190.679 21.6027 190.221 21.416C189.773 21.22 189.391 20.954 189.073 20.618C188.765 20.282 188.527 19.8807 188.359 19.414C188.201 18.9473 188.121 18.434 188.121 17.874C188.121 17.3233 188.201 16.8147 188.359 16.348C188.527 15.8813 188.765 15.48 189.073 15.144C189.391 14.808 189.773 14.5467 190.221 14.36C190.679 14.164 191.197 14.066 191.775 14.066C192.354 14.066 192.867 14.164 193.315 14.36C193.773 14.5467 194.155 14.808 194.463 15.144C194.781 15.48 195.019 15.8813 195.177 16.348C195.345 16.8147 195.429 17.3233 195.429 17.874C195.429 18.434 195.345 18.9473 195.177 19.414C195.019 19.8807 194.781 20.282 194.463 20.618C194.155 20.954 193.773 21.22 193.315 21.416C192.867 21.6027 192.354 21.696 191.775 21.696ZM191.775 20.436C192.13 20.436 192.438 20.3613 192.699 20.212C192.961 20.0627 193.175 19.8667 193.343 19.624C193.511 19.3813 193.633 19.1107 193.707 18.812C193.791 18.504 193.833 18.1913 193.833 17.874C193.833 17.566 193.791 17.258 193.707 16.95C193.633 16.642 193.511 16.3713 193.343 16.138C193.175 15.8953 192.961 15.6993 192.699 15.55C192.438 15.4007 192.13 15.326 191.775 15.326C191.421 15.326 191.113 15.4007 190.851 15.55C190.59 15.6993 190.375 15.8953 190.207 16.138C190.039 16.3713 189.913 16.642 189.829 16.95C189.755 17.258 189.717 17.566 189.717 17.874C189.717 18.1913 189.755 18.504 189.829 18.812C189.913 19.1107 190.039 19.3813 190.207 19.624C190.375 19.8667 190.59 20.0627 190.851 20.212C191.113 20.3613 191.421 20.436 191.775 20.436ZM196.798 14.262H198.31V15.242H198.338C198.562 14.822 198.875 14.5233 199.276 14.346C199.677 14.1593 200.111 14.066 200.578 14.066C201.147 14.066 201.642 14.1687 202.062 14.374C202.491 14.57 202.846 14.8453 203.126 15.2C203.406 15.5453 203.616 15.9513 203.756 16.418C203.896 16.8847 203.966 17.384 203.966 17.916C203.966 18.4013 203.901 18.8727 203.77 19.33C203.649 19.7873 203.457 20.1933 203.196 20.548C202.944 20.8933 202.622 21.1733 202.23 21.388C201.838 21.5933 201.376 21.696 200.844 21.696C200.611 21.696 200.377 21.6727 200.144 21.626C199.911 21.5887 199.687 21.5233 199.472 21.43C199.257 21.3367 199.057 21.22 198.87 21.08C198.693 20.9307 198.543 20.758 198.422 20.562H198.394V24.174H196.798V14.262ZM202.37 17.888C202.37 17.5613 202.328 17.244 202.244 16.936C202.16 16.628 202.034 16.3573 201.866 16.124C201.698 15.8813 201.488 15.69 201.236 15.55C200.984 15.4007 200.695 15.326 200.368 15.326C199.696 15.326 199.187 15.5593 198.842 16.026C198.506 16.4927 198.338 17.1133 198.338 17.888C198.338 18.252 198.38 18.5927 198.464 18.91C198.557 19.218 198.693 19.484 198.87 19.708C199.047 19.932 199.257 20.1093 199.5 20.24C199.752 20.3707 200.041 20.436 200.368 20.436C200.732 20.436 201.04 20.3613 201.292 20.212C201.544 20.0627 201.749 19.8713 201.908 19.638C202.076 19.3953 202.193 19.1247 202.258 18.826C202.333 18.518 202.37 18.2053 202.37 17.888ZM210.285 17.244C210.266 16.992 210.21 16.7493 210.117 16.516C210.033 16.2827 209.911 16.082 209.753 15.914C209.603 15.7367 209.417 15.5967 209.193 15.494C208.978 15.382 208.735 15.326 208.465 15.326C208.185 15.326 207.928 15.3773 207.695 15.48C207.471 15.5733 207.275 15.7087 207.107 15.886C206.948 16.054 206.817 16.2547 206.715 16.488C206.621 16.7213 206.57 16.9733 206.561 17.244H210.285ZM206.561 18.294C206.561 18.574 206.598 18.8447 206.673 19.106C206.757 19.3673 206.878 19.596 207.037 19.792C207.195 19.988 207.396 20.1467 207.639 20.268C207.881 20.38 208.171 20.436 208.507 20.436C208.973 20.436 209.347 20.338 209.627 20.142C209.916 19.9367 210.131 19.6333 210.271 19.232H211.783C211.699 19.624 211.554 19.974 211.349 20.282C211.143 20.59 210.896 20.8513 210.607 21.066C210.317 21.2713 209.991 21.4253 209.627 21.528C209.272 21.64 208.899 21.696 208.507 21.696C207.937 21.696 207.433 21.6027 206.995 21.416C206.556 21.2293 206.183 20.968 205.875 20.632C205.576 20.296 205.347 19.8947 205.189 19.428C205.039 18.9613 204.965 18.448 204.965 17.888C204.965 17.3747 205.044 16.8893 205.203 16.432C205.371 15.9653 205.604 15.5593 205.903 15.214C206.211 14.8593 206.579 14.5793 207.009 14.374C207.438 14.1687 207.923 14.066 208.465 14.066C209.034 14.066 209.543 14.1873 209.991 14.43C210.448 14.6633 210.826 14.976 211.125 15.368C211.423 15.76 211.638 16.2127 211.769 16.726C211.909 17.23 211.946 17.7527 211.881 18.294H206.561ZM218.064 17.244C218.045 16.992 217.989 16.7493 217.896 16.516C217.812 16.2827 217.691 16.082 217.532 15.914C217.383 15.7367 217.196 15.5967 216.972 15.494C216.757 15.382 216.515 15.326 216.244 15.326C215.964 15.326 215.707 15.3773 215.474 15.48C215.25 15.5733 215.054 15.7087 214.886 15.886C214.727 16.054 214.597 16.2547 214.494 16.488C214.401 16.7213 214.349 16.9733 214.34 17.244H218.064ZM214.34 18.294C214.34 18.574 214.377 18.8447 214.452 19.106C214.536 19.3673 214.657 19.596 214.816 19.792C214.975 19.988 215.175 20.1467 215.418 20.268C215.661 20.38 215.95 20.436 216.286 20.436C216.753 20.436 217.126 20.338 217.406 20.142C217.695 19.9367 217.91 19.6333 218.05 19.232H219.562C219.478 19.624 219.333 19.974 219.128 20.282C218.923 20.59 218.675 20.8513 218.386 21.066C218.097 21.2713 217.77 21.4253 217.406 21.528C217.051 21.64 216.678 21.696 216.286 21.696C215.717 21.696 215.213 21.6027 214.774 21.416C214.335 21.2293 213.962 20.968 213.654 20.632C213.355 20.296 213.127 19.8947 212.968 19.428C212.819 18.9613 212.744 18.448 212.744 17.888C212.744 17.3747 212.823 16.8893 212.982 16.432C213.15 15.9653 213.383 15.5593 213.682 15.214C213.99 14.8593 214.359 14.5793 214.788 14.374C215.217 14.1687 215.703 14.066 216.244 14.066C216.813 14.066 217.322 14.1873 217.77 14.43C218.227 14.6633 218.605 14.976 218.904 15.368C219.203 15.76 219.417 16.2127 219.548 16.726C219.688 17.23 219.725 17.7527 219.66 18.294H214.34Z" fill="#111827"/>
</g>
</g>
<g clip-path="url(#clip5_117_6058)">
<g clip-path="url(#clip6_117_6058)">
<path fill-rule="evenodd" clip-rule="evenodd" d="M0 48C0 43.5817 3.58172 40 8 40H117C121.418 40 125 43.5817 125 48V64C125 68.4183 121.418 72 117 72H8C3.58172 72 0 68.4183 0 64V48Z" fill="#FAFAFA"/>
<path d="M57.696 51.504H59.782L62.05 55.032L64.416 51.504H66.376L63.072 56.32L66.614 61.5H64.486L61.994 57.678L59.46 61.5H57.458L61 56.32L57.696 51.504Z" fill="#111827"/>
</g>
<g clip-path="url(#clip7_117_6058)">
<path fill-rule="evenodd" clip-rule="evenodd" d="M266 48C266 43.5817 269.582 40 274 40H383C387.418 40 391 43.5817 391 48V64C391 68.4183 387.418 72 383 72H274C269.582 72 266 68.4183 266 64V48Z" fill="#FAFAFA"/>
<path d="M305.168 57.58L301.416 51.504H303.446L306.092 55.984L308.696 51.504H310.656L306.918 57.58V61.5H305.168V57.58ZM313.451 61.696C312.872 61.696 312.354 61.6027 311.897 61.416C311.449 61.22 311.066 60.954 310.749 60.618C310.441 60.282 310.203 59.8807 310.035 59.414C309.876 58.9473 309.797 58.434 309.797 57.874C309.797 57.3233 309.876 56.8147 310.035 56.348C310.203 55.8813 310.441 55.48 310.749 55.144C311.066 54.808 311.449 54.5467 311.897 54.36C312.354 54.164 312.872 54.066 313.451 54.066C314.03 54.066 314.543 54.164 314.991 54.36C315.448 54.5467 315.831 54.808 316.139 55.144C316.456 55.48 316.694 55.8813 316.853 56.348C317.021 56.8147 317.105 57.3233 317.105 57.874C317.105 58.434 317.021 58.9473 316.853 59.414C316.694 59.8807 316.456 60.282 316.139 60.618C315.831 60.954 315.448 61.22 314.991 61.416C314.543 61.6027 314.03 61.696 313.451 61.696ZM313.451 60.436C313.806 60.436 314.114 60.3613 314.375 60.212C314.636 60.0627 314.851 59.8667 315.019 59.624C315.187 59.3813 315.308 59.1107 315.383 58.812C315.467 58.504 315.509 58.1913 315.509 57.874C315.509 57.566 315.467 57.258 315.383 56.95C315.308 56.642 315.187 56.3713 315.019 56.138C314.851 55.8953 314.636 55.6993 314.375 55.55C314.114 55.4007 313.806 55.326 313.451 55.326C313.096 55.326 312.788 55.4007 312.527 55.55C312.266 55.6993 312.051 55.8953 311.883 56.138C311.715 56.3713 311.589 56.642 311.505 56.95C311.43 57.258 311.393 57.566 311.393 57.874C311.393 58.1913 311.43 58.504 311.505 58.812C311.589 59.1107 311.715 59.3813 311.883 59.624C312.051 59.8667 312.266 60.0627 312.527 60.212C312.788 60.3613 313.096 60.436 313.451 60.436ZM324.788 61.5H323.22V60.492H323.192C322.996 60.856 322.702 61.15 322.31 61.374C321.927 61.5887 321.535 61.696 321.134 61.696C320.182 61.696 319.491 61.4627 319.062 60.996C318.642 60.52 318.432 59.806 318.432 58.854V54.262H320.028V58.7C320.028 59.3347 320.149 59.7827 320.392 60.044C320.634 60.3053 320.975 60.436 321.414 60.436C321.75 60.436 322.03 60.3847 322.254 60.282C322.478 60.1793 322.66 60.044 322.8 59.876C322.94 59.6987 323.038 59.4887 323.094 59.246C323.159 59.0033 323.192 58.742 323.192 58.462V54.262H324.788V61.5ZM325.743 54.262H326.947V52.092H328.543V54.262H329.985V55.452H328.543V59.316C328.543 59.484 328.548 59.6287 328.557 59.75C328.576 59.8713 328.608 59.974 328.655 60.058C328.711 60.142 328.79 60.2073 328.893 60.254C328.996 60.2913 329.136 60.31 329.313 60.31C329.425 60.31 329.537 60.31 329.649 60.31C329.761 60.3007 329.873 60.282 329.985 60.254V61.486C329.808 61.5047 329.635 61.5233 329.467 61.542C329.299 61.5607 329.126 61.57 328.949 61.57C328.529 61.57 328.188 61.5327 327.927 61.458C327.675 61.374 327.474 61.2573 327.325 61.108C327.185 60.9493 327.087 60.7533 327.031 60.52C326.984 60.2867 326.956 60.0207 326.947 59.722V55.452H325.743V54.262ZM337.489 61.5H335.921V60.492H335.893C335.697 60.856 335.403 61.15 335.011 61.374C334.628 61.5887 334.236 61.696 333.835 61.696C332.883 61.696 332.192 61.4627 331.763 60.996C331.343 60.52 331.133 59.806 331.133 58.854V54.262H332.729V58.7C332.729 59.3347 332.85 59.7827 333.093 60.044C333.336 60.3053 333.676 60.436 334.115 60.436C334.451 60.436 334.731 60.3847 334.955 60.282C335.179 60.1793 335.361 60.044 335.501 59.876C335.641 59.6987 335.739 59.4887 335.795 59.246C335.86 59.0033 335.893 58.742 335.893 58.462V54.262H337.489V61.5ZM339.214 51.504H340.81V55.2H340.838C340.95 55.0227 341.085 54.864 341.244 54.724C341.403 54.584 341.575 54.4673 341.762 54.374C341.958 54.2713 342.159 54.1967 342.364 54.15C342.579 54.094 342.789 54.066 342.994 54.066C343.563 54.066 344.058 54.1687 344.478 54.374C344.907 54.57 345.262 54.8453 345.542 55.2C345.822 55.5453 346.032 55.9513 346.172 56.418C346.312 56.8847 346.382 57.384 346.382 57.916C346.382 58.4013 346.317 58.8727 346.186 59.33C346.065 59.7873 345.873 60.1933 345.612 60.548C345.36 60.8933 345.038 61.1733 344.646 61.388C344.254 61.5933 343.792 61.696 343.26 61.696C343.017 61.696 342.77 61.6773 342.518 61.64C342.275 61.612 342.042 61.5513 341.818 61.458C341.594 61.3647 341.389 61.2433 341.202 61.094C341.025 60.9447 340.875 60.7487 340.754 60.506H340.726V61.5H339.214V51.504ZM344.786 57.888C344.786 57.5613 344.744 57.244 344.66 56.936C344.576 56.628 344.45 56.3573 344.282 56.124C344.114 55.8813 343.904 55.69 343.652 55.55C343.4 55.4007 343.111 55.326 342.784 55.326C342.112 55.326 341.603 55.5593 341.258 56.026C340.922 56.4927 340.754 57.1133 340.754 57.888C340.754 58.252 340.796 58.5927 340.88 58.91C340.973 59.218 341.109 59.484 341.286 59.708C341.463 59.932 341.673 60.1093 341.916 60.24C342.168 60.3707 342.457 60.436 342.784 60.436C343.148 60.436 343.456 60.3613 343.708 60.212C343.96 60.0627 344.165 59.8713 344.324 59.638C344.492 59.3953 344.609 59.1247 344.674 58.826C344.749 58.518 344.786 58.2053 344.786 57.888ZM352.701 57.244C352.682 56.992 352.626 56.7493 352.533 56.516C352.449 56.2827 352.327 56.082 352.169 55.914C352.019 55.7367 351.833 55.5967 351.609 55.494C351.394 55.382 351.151 55.326 350.881 55.326C350.601 55.326 350.344 55.3773 350.111 55.48C349.887 55.5733 349.691 55.7087 349.523 55.886C349.364 56.054 349.233 56.2547 349.131 56.488C349.037 56.7213 348.986 56.9733 348.977 57.244H352.701ZM348.977 58.294C348.977 58.574 349.014 58.8447 349.089 59.106C349.173 59.3673 349.294 59.596 349.453 59.792C349.611 59.988 349.812 60.1467 350.055 60.268C350.297 60.38 350.587 60.436 350.923 60.436C351.389 60.436 351.763 60.338 352.043 60.142C352.332 59.9367 352.547 59.6333 352.687 59.232H354.199C354.115 59.624 353.97 59.974 353.765 60.282C353.559 60.59 353.312 60.8513 353.023 61.066C352.733 61.2713 352.407 61.4253 352.043 61.528C351.688 61.64 351.315 61.696 350.923 61.696C350.353 61.696 349.849 61.6027 349.411 61.416C348.972 61.2293 348.599 60.968 348.291 60.632C347.992 60.296 347.763 59.8947 347.605 59.428C347.455 58.9613 347.381 58.448 347.381 57.888C347.381 57.3747 347.46 56.8893 347.619 56.432C347.787 55.9653 348.02 55.5593 348.319 55.214C348.627 54.8593 348.995 54.5793 349.425 54.374C349.854 54.1687 350.339 54.066 350.881 54.066C351.45 54.066 351.959 54.1873 352.407 54.43C352.864 54.6633 353.242 54.976 353.541 55.368C353.839 55.76 354.054 56.2127 354.185 56.726C354.325 57.23 354.362 57.7527 354.297 58.294H348.977Z" fill="#111827"/>
</g>
<g clip-path="url(#clip8_117_6058)">
<path fill-rule="evenodd" clip-rule="evenodd" d="M133 48C133 43.5817 136.582 40 141 40H250C254.418 40 258 43.5817 258 48V64C258 68.4183 254.418 72 250 72H141C136.582 72 133 68.4183 133 64V48Z" fill="#FAFAFA"/>
<path d="M172.738 51.504H174.6L178.45 61.5H176.574L175.636 58.854H171.646L170.708 61.5H168.902L172.738 51.504ZM172.122 57.524H175.174L173.676 53.226H173.634L172.122 57.524ZM179.178 54.262H180.69V55.27H180.732C180.853 55.0927 180.984 54.9293 181.124 54.78C181.264 54.6307 181.418 54.5047 181.586 54.402C181.763 54.2993 181.964 54.22 182.188 54.164C182.412 54.0987 182.669 54.066 182.958 54.066C183.397 54.066 183.803 54.164 184.176 54.36C184.559 54.556 184.829 54.8593 184.988 55.27C185.259 54.8967 185.571 54.6027 185.926 54.388C186.281 54.1733 186.724 54.066 187.256 54.066C188.021 54.066 188.614 54.2527 189.034 54.626C189.463 54.9993 189.678 55.6247 189.678 56.502V61.5H188.082V57.272C188.082 56.9827 188.073 56.7213 188.054 56.488C188.035 56.2453 187.979 56.04 187.886 55.872C187.802 55.6947 187.671 55.5593 187.494 55.466C187.317 55.3727 187.074 55.326 186.766 55.326C186.225 55.326 185.833 55.494 185.59 55.83C185.347 56.166 185.226 56.642 185.226 57.258V61.5H183.63V56.852C183.63 56.348 183.537 55.97 183.35 55.718C183.173 55.4567 182.841 55.326 182.356 55.326C182.151 55.326 181.95 55.368 181.754 55.452C181.567 55.536 181.399 55.6573 181.25 55.816C181.11 55.9747 180.993 56.1707 180.9 56.404C180.816 56.6373 180.774 56.9033 180.774 57.202V61.5H179.178V54.262ZM197.422 59.89C197.422 60.086 197.445 60.226 197.492 60.31C197.548 60.394 197.65 60.436 197.8 60.436C197.846 60.436 197.902 60.436 197.968 60.436C198.033 60.436 198.108 60.4267 198.192 60.408V61.514C198.136 61.5327 198.061 61.5513 197.968 61.57C197.884 61.598 197.795 61.6213 197.702 61.64C197.608 61.6587 197.515 61.6727 197.422 61.682C197.328 61.6913 197.249 61.696 197.184 61.696C196.857 61.696 196.586 61.6307 196.372 61.5C196.157 61.3693 196.017 61.1407 195.952 60.814C195.634 61.122 195.242 61.346 194.776 61.486C194.318 61.626 193.875 61.696 193.446 61.696C193.119 61.696 192.806 61.6493 192.508 61.556C192.209 61.472 191.943 61.346 191.71 61.178C191.486 61.0007 191.304 60.7813 191.164 60.52C191.033 60.2493 190.968 59.9367 190.968 59.582C190.968 59.134 191.047 58.77 191.206 58.49C191.374 58.21 191.588 57.9907 191.85 57.832C192.12 57.6733 192.419 57.5613 192.746 57.496C193.082 57.4213 193.418 57.3653 193.754 57.328C194.043 57.272 194.318 57.2347 194.58 57.216C194.841 57.188 195.07 57.146 195.266 57.09C195.471 57.034 195.63 56.95 195.742 56.838C195.863 56.7167 195.924 56.5393 195.924 56.306C195.924 56.1007 195.872 55.9327 195.77 55.802C195.676 55.6713 195.555 55.5733 195.406 55.508C195.266 55.4333 195.107 55.3867 194.93 55.368C194.752 55.34 194.584 55.326 194.426 55.326C193.978 55.326 193.609 55.4193 193.32 55.606C193.03 55.7927 192.867 56.082 192.83 56.474H191.234C191.262 56.0073 191.374 55.62 191.57 55.312C191.766 55.004 192.013 54.7567 192.312 54.57C192.62 54.3833 192.965 54.2527 193.348 54.178C193.73 54.1033 194.122 54.066 194.524 54.066C194.878 54.066 195.228 54.1033 195.574 54.178C195.919 54.2527 196.227 54.374 196.498 54.542C196.778 54.71 197.002 54.9293 197.17 55.2C197.338 55.4613 197.422 55.7833 197.422 56.166V59.89ZM195.826 57.874C195.583 58.0327 195.284 58.1307 194.93 58.168C194.575 58.196 194.22 58.2427 193.866 58.308C193.698 58.336 193.534 58.378 193.376 58.434C193.217 58.4807 193.077 58.5507 192.956 58.644C192.834 58.728 192.736 58.8447 192.662 58.994C192.596 59.134 192.564 59.3067 192.564 59.512C192.564 59.6893 192.615 59.8387 192.718 59.96C192.82 60.0813 192.942 60.1793 193.082 60.254C193.231 60.3193 193.39 60.366 193.558 60.394C193.735 60.422 193.894 60.436 194.034 60.436C194.211 60.436 194.402 60.4127 194.608 60.366C194.813 60.3193 195.004 60.24 195.182 60.128C195.368 60.016 195.522 59.876 195.644 59.708C195.765 59.5307 195.826 59.316 195.826 59.064V57.874ZM198.887 54.262H204.767V55.382L200.623 60.24H204.977V61.5H198.607V60.38L202.611 55.522H198.887V54.262ZM209.457 61.696C208.878 61.696 208.36 61.6027 207.903 61.416C207.455 61.22 207.072 60.954 206.755 60.618C206.447 60.282 206.209 59.8807 206.041 59.414C205.882 58.9473 205.803 58.434 205.803 57.874C205.803 57.3233 205.882 56.8147 206.041 56.348C206.209 55.8813 206.447 55.48 206.755 55.144C207.072 54.808 207.455 54.5467 207.903 54.36C208.36 54.164 208.878 54.066 209.457 54.066C210.035 54.066 210.549 54.164 210.997 54.36C211.454 54.5467 211.837 54.808 212.145 55.144C212.462 55.48 212.7 55.8813 212.859 56.348C213.027 56.8147 213.111 57.3233 213.111 57.874C213.111 58.434 213.027 58.9473 212.859 59.414C212.7 59.8807 212.462 60.282 212.145 60.618C211.837 60.954 211.454 61.22 210.997 61.416C210.549 61.6027 210.035 61.696 209.457 61.696ZM209.457 60.436C209.811 60.436 210.119 60.3613 210.381 60.212C210.642 60.0627 210.857 59.8667 211.025 59.624C211.193 59.3813 211.314 59.1107 211.389 58.812C211.473 58.504 211.515 58.1913 211.515 57.874C211.515 57.566 211.473 57.258 211.389 56.95C211.314 56.642 211.193 56.3713 211.025 56.138C210.857 55.8953 210.642 55.6993 210.381 55.55C210.119 55.4007 209.811 55.326 209.457 55.326C209.102 55.326 208.794 55.4007 208.533 55.55C208.271 55.6993 208.057 55.8953 207.889 56.138C207.721 56.3713 207.595 56.642 207.511 56.95C207.436 57.258 207.399 57.566 207.399 57.874C207.399 58.1913 207.436 58.504 207.511 58.812C207.595 59.1107 207.721 59.3813 207.889 59.624C208.057 59.8667 208.271 60.0627 208.533 60.212C208.794 60.3613 209.102 60.436 209.457 60.436ZM214.438 54.262H215.95V55.326L215.978 55.354C216.22 54.9527 216.538 54.64 216.93 54.416C217.322 54.1827 217.756 54.066 218.232 54.066C219.025 54.066 219.65 54.2713 220.108 54.682C220.565 55.0927 220.794 55.7087 220.794 56.53V61.5H219.198V56.95C219.179 56.3807 219.058 55.97 218.834 55.718C218.61 55.4567 218.26 55.326 217.784 55.326C217.513 55.326 217.27 55.3773 217.056 55.48C216.841 55.5733 216.659 55.7087 216.51 55.886C216.36 56.054 216.244 56.2547 216.16 56.488C216.076 56.7213 216.034 56.9687 216.034 57.23V61.5H214.438V54.262Z" fill="#111827"/>
</g>
</g>
</g>
<defs>
<clipPath id="clip0_117_6058">
<rect width="391" height="72" fill="white"/>
</clipPath>
<clipPath id="clip1_117_6058">
<rect width="391" height="32" fill="white"/>
</clipPath>
<clipPath id="clip2_117_6058">
<rect width="125" height="32" fill="white"/>
</clipPath>
<clipPath id="clip3_117_6058">
<rect width="125" height="32" fill="white" transform="translate(266)"/>
</clipPath>
<clipPath id="clip4_117_6058">
<rect width="125" height="32" fill="white" transform="translate(133)"/>
</clipPath>
<clipPath id="clip5_117_6058">
<rect width="391" height="32" fill="white" transform="translate(0 40)"/>
</clipPath>
<clipPath id="clip6_117_6058">
<rect width="125" height="32" fill="white" transform="translate(0 40)"/>
</clipPath>
<clipPath id="clip7_117_6058">
<rect width="125" height="32" fill="white" transform="translate(266 40)"/>
</clipPath>
<clipPath id="clip8_117_6058">
<rect width="125" height="32" fill="white" transform="translate(133 40)"/>
</clipPath>
</defs>
</svg>
