<svg width="395" height="130" viewBox="0 0 395 130" fill="none" xmlns="http://www.w3.org/2000/svg">
<path d="M16.0406 75.2192C10.1591 67.7719 2.89622 68.1443 0 69.2614V129.955H395V23.8325C386.98 25.1978 374.744 29.7312 354.23 23.8325C333.511 17.8749 332.174 26.4392 327.496 38.3547C323.249 49.1701 312.792 39.8443 292.073 52.1321C275.415 62.011 267.745 21.5985 264.002 11.1722C261.328 3.72491 251.303 1.86327 248.629 11.1722C245.956 23.8325 244.218 48.5574 242.614 52.1321C240.108 57.7177 234.822 58.3928 230.584 56.2283C222.563 52.1321 223.9 37.6857 223.9 27.5563C223.9 17.8749 213.567 17.8749 211.87 23.8325C205.186 47.2916 204.518 83.0151 193.156 83.4108C184.601 83.7087 181.794 74.4741 177.115 65.538C175.36 62.1861 169.095 59.8781 161.074 65.538C151.049 72.6129 147.707 66.2828 147.039 63.6754C146.371 61.0679 143.101 47.3303 142.36 20.1101C141.692 -4.46578 125.479 -3.34892 124.315 6.70469C120.305 41.3346 125.031 88.2513 106.269 88.2513C95.5753 88.2513 95.5753 75.9354 95.5753 65.9095C95.5753 57.7176 86.8866 56.9728 84.2132 63.6754C81.5398 70.3779 79.5347 78.1983 70.846 78.1983C60.7321 78.1983 57.4788 68.5161 57.4788 61.0688C57.4788 53.6216 56.1352 44.7092 50.7953 44.3125C40.7699 43.5678 42.1066 70.0055 38.7648 78.1983C36.1154 84.6938 23.3926 84.5283 16.0406 75.2192Z" fill="url(#paint0_linear_117_5942)" fill-opacity="0.4"/>
<defs>
<linearGradient id="paint0_linear_117_5942" x1="197.5" y1="0" x2="197.5" y2="129.955" gradientUnits="userSpaceOnUse">
<stop stop-color="white"/>
<stop offset="0.515" stop-color="#E4D1FC" stop-opacity="0.886"/>
<stop offset="1" stop-color="#700FEF" stop-opacity="0.4"/>
</linearGradient>
</defs>
</svg>
