<svg width="396" height="196" viewBox="0 0 396 196" fill="none" xmlns="http://www.w3.org/2000/svg">
<path d="M16.773 139.493C10.8873 132.04 3.61936 132.413 0.721097 133.531V194.267H396V88.07C387.974 89.4363 375.73 93.9728 355.201 88.07C334.468 82.1082 333.13 90.6786 328.448 102.602C324.199 113.425 313.734 104.093 293 116.39C276.331 126.275 268.655 85.8344 264.909 75.4007C262.234 67.9482 252.201 66.0852 249.526 75.4007C246.851 88.07 245.112 112.812 243.507 116.39C240.998 121.979 235.709 122.655 231.468 120.489C223.442 116.39 224.779 101.933 224.779 91.7964C224.779 82.1082 214.439 82.1082 212.74 88.07C206.052 111.546 205.383 147.294 194.013 147.69C185.452 147.988 182.643 138.747 177.961 129.805C176.205 126.451 169.935 124.141 161.909 129.805C151.877 136.885 148.533 130.55 147.864 127.941C147.195 125.332 143.923 111.584 143.182 84.345C142.513 59.7517 126.289 60.8694 125.124 70.9301C121.111 105.584 125.84 152.534 107.065 152.534C96.3639 152.534 96.3639 140.21 96.3639 130.177C96.3639 121.979 87.6691 121.234 84.9937 127.941C82.3184 134.648 80.3119 142.474 71.6171 142.474C61.4961 142.474 58.2405 132.785 58.2405 125.333C58.2405 117.88 56.8959 108.961 51.5522 108.564C41.5198 107.819 42.8574 134.276 39.5133 142.474C36.862 148.974 24.1302 148.809 16.773 139.493Z" fill="url(#paint0_linear_117_5941)" fill-opacity="0.4"/>
<path d="M0.721097 134.783C3.61136 133.645 10.8592 133.265 16.7287 140.852C24.0655 150.336 36.7621 150.505 39.4061 143.888C42.741 135.541 41.4071 108.607 51.4118 109.365C56.7407 109.769 58.0816 118.849 58.0816 126.436C58.0816 134.023 61.3282 143.888 71.4213 143.888C80.0921 143.888 82.093 135.92 84.7609 129.092C87.4289 122.263 96.0996 123.022 96.0996 131.368C96.0996 141.582 96.0996 154.129 106.771 154.129C125.494 154.129 120.778 106.332 124.78 71.0513C125.942 60.8088 142.121 59.671 142.788 84.7085C143.527 112.44 146.79 126.435 147.457 129.092C148.124 131.748 151.459 138.197 161.464 130.989C169.468 125.223 175.72 127.575 177.472 130.989C182.14 140.093 184.942 149.501 193.479 149.198C204.818 148.795 205.485 112.4 212.155 88.5007C213.849 82.4312 224.16 82.4312 224.16 92.2945C224.16 102.614 222.826 117.332 230.83 121.505C235.06 123.71 240.335 123.022 242.836 117.332C244.437 113.69 246.171 88.5007 248.839 75.6026C251.507 66.1189 261.511 68.0155 264.179 75.6026C267.915 86.2248 275.57 127.396 292.193 117.332C312.869 104.813 323.305 114.314 327.543 103.296C332.212 91.1564 333.546 82.4312 354.222 88.5007C374.694 94.5102 386.904 89.8917 394.908 88.5007" stroke="#9747FF" stroke-width="1.43957" stroke-linecap="round" stroke-linejoin="round"/>
<path d="M149.923 41.8094L148.059 43.6736C147.496 44.2366 147.496 45.1495 148.059 45.7126L149.923 47.5767V41.8094Z" fill="#9747FF"/>
<rect x="149.923" y="35.3213" width="37.4873" height="18.7437" rx="4.31871" fill="#9747FF"/>
<path d="M160.665 47.9399H164.239V46.9864H163.125V42.0106H162.251C161.867 42.243 161.466 42.3952 160.865 42.5074V43.2365H161.947V46.9864H160.665V47.9399ZM166.954 48.052C168.043 48.052 169.029 47.2908 169.029 45.9768C169.029 44.6788 168.196 44.0938 167.202 44.0938C166.93 44.0938 166.721 44.1499 166.489 44.2541L166.601 42.9961H168.756V42.0106H165.583L165.415 44.8871L165.96 45.2396C166.305 45.0153 166.497 44.9271 166.849 44.9271C167.442 44.9271 167.843 45.3118 167.843 46.0008C167.843 46.7059 167.418 47.0985 166.793 47.0985C166.248 47.0985 165.824 46.8261 165.495 46.4976L164.942 47.2428C165.391 47.6835 166.016 48.052 166.954 48.052ZM172.16 47.9399H173.258V42.0106H171.84L169.637 45.6002V46.4095H173.963V45.5041H170.782L171.696 44.0297C171.864 43.7092 172.024 43.3807 172.176 43.0602H172.209C172.193 43.4128 172.16 43.9496 172.16 44.2942V47.9399ZM176.558 48.052C177.76 48.052 178.561 47.0024 178.561 44.9512C178.561 42.908 177.76 41.9064 176.558 41.9064C175.348 41.9064 174.547 42.908 174.547 44.9512C174.547 47.0024 175.348 48.052 176.558 48.052ZM176.558 47.1306C176.045 47.1306 175.661 46.6178 175.661 44.9512C175.661 43.2926 176.045 42.8118 176.558 42.8118C177.071 42.8118 177.447 43.2926 177.447 44.9512C177.447 46.6178 177.071 47.1306 176.558 47.1306Z" fill="white"/>
<g filter="url(#filter0_d_117_5941)">
<ellipse cx="131.753" cy="64.2203" rx="5.45965" ry="8.02756" fill="#9747FF"/>
<path d="M131.753 55.4719C133.57 55.4719 135.132 56.555 136.209 58.1382C137.288 59.7253 137.933 61.8779 137.933 64.2199C137.933 66.562 137.289 68.7145 136.209 70.3017C135.132 71.8851 133.57 72.9689 131.753 72.9689C129.936 72.9689 128.373 71.8851 127.296 70.3017C126.216 68.7145 125.572 66.5618 125.572 64.2199C125.572 61.8779 126.216 59.7253 127.296 58.1382C128.373 56.5548 129.936 55.4719 131.753 55.4719Z" stroke="white" stroke-width="1.43957"/>
</g>
<defs>
<filter id="filter0_d_117_5941" x="101.782" y="43.2165" width="59.941" height="65.077" filterUnits="userSpaceOnUse" color-interpolation-filters="sRGB">
<feFlood flood-opacity="0" result="BackgroundImageFix"/>
<feColorMatrix in="SourceAlpha" type="matrix" values="0 0 0 0 0 0 0 0 0 0 0 0 0 0 0 0 0 0 127 0" result="hardAlpha"/>
<feOffset dy="11.5165"/>
<feGaussianBlur stdDeviation="11.5165"/>
<feComposite in2="hardAlpha" operator="out"/>
<feColorMatrix type="matrix" values="0 0 0 0 0.592157 0 0 0 0 0.278431 0 0 0 0 1 0 0 0 1 0"/>
<feBlend mode="normal" in2="BackgroundImageFix" result="effect1_dropShadow_117_5941"/>
<feBlend mode="normal" in="SourceGraphic" in2="effect1_dropShadow_117_5941" result="shape"/>
</filter>
<linearGradient id="paint0_linear_117_5941" x1="198.361" y1="64.2207" x2="198.361" y2="194.267" gradientUnits="userSpaceOnUse">
<stop stop-color="white"/>
<stop offset="0.515" stop-color="#E4D1FC" stop-opacity="0.886"/>
<stop offset="1" stop-color="#700FEF" stop-opacity="0.4"/>
</linearGradient>
</defs>
</svg>
