<svg width="867" height="160" viewBox="0 0 867 160" fill="none" xmlns="http://www.w3.org/2000/svg">
<path d="M748.198 108.922C793.17 100.581 845.862 112.398 866.586 119.348V160H0.304237V0.948185C43.8256 5.71954 71.8035 44.9507 78.7981 69.8677C84.5028 90.1902 84.7564 104.681 115.066 108.922C145.538 113.186 181.665 99.618 212.234 81.2395C236.689 66.5367 273.198 75.1134 288.396 81.2395C315.338 91.9014 359.718 99.132 395.364 88.2463C439.922 74.6391 464.532 78.5268 520.747 88.2463C576.962 97.9657 571.263 104.151 618.152 119.348C665.041 134.546 691.983 119.348 748.198 108.922Z" fill="url(#paint0_linear_36_6781)"/>
<path d="M866.586 119.556C845.862 112.593 793.17 100.756 748.198 109.112C691.983 119.556 665.041 134.781 618.152 119.556C571.263 104.332 576.962 98.1361 520.747 88.3996C464.532 78.6631 439.922 74.7685 395.364 88.3996C359.718 99.3045 315.338 92.0612 288.396 81.3806C273.198 75.2436 236.689 66.6519 212.234 81.3806C181.665 99.7914 145.538 113.383 115.066 109.112C84.7564 104.863 84.5028 90.347 78.7981 69.9888C71.8036 45.028 43.8256 5.72792 0.304215 0.948185" stroke="#3F8CFF" stroke-width="1.90714"/>
<path d="M117.923 91.8177C73.243 83.4813 20.8938 95.2912 0.304176 102.238V160H866.586V23.3132C823.348 28.0819 786.618 26.8453 779.669 51.7486C774.001 72.0598 773.749 86.5426 743.637 90.7814C713.363 95.0429 695.766 70.117 665.396 51.7486C641.1 37.0539 600.182 56.1756 585.083 62.2984C558.317 72.9544 497.469 49.7045 471.099 31.4284C433.445 5.33224 383.928 2.94539 346.531 31.4284C309.134 59.9115 272.04 36.5594 225.456 51.7486C178.872 66.9378 173.772 102.238 117.923 91.8177Z" fill="url(#paint1_linear_36_6781)" fill-opacity="0.54"/>
<path d="M0.304176 101.981C20.8938 95.0536 73.243 83.277 117.923 91.5899C173.772 101.981 178.872 66.7801 225.456 51.6337C272.04 36.4872 309.134 59.7736 346.531 31.3708C383.928 2.96794 433.445 5.34807 471.099 31.3708C497.469 49.5954 558.317 72.7797 585.083 62.1537C600.182 56.0482 641.1 36.9804 665.396 51.6337C695.766 69.9503 713.363 94.806 743.637 90.5565C773.749 86.3297 774.001 71.8877 779.669 51.6337C786.618 26.8005 823.348 28.0336 866.586 23.2784" stroke="#6C5DD3" stroke-width="1.90714"/>
<defs>
<linearGradient id="paint0_linear_36_6781" x1="433.445" y1="0.948185" x2="433.445" y2="160" gradientUnits="userSpaceOnUse">
<stop stop-color="#6C5DD3" stop-opacity="0.56"/>
<stop offset="1" stop-color="#FFEBF6" stop-opacity="0.22"/>
</linearGradient>
<linearGradient id="paint1_linear_36_6781" x1="433.445" y1="10.9514" x2="433.445" y2="160" gradientUnits="userSpaceOnUse">
<stop stop-color="#CDF4FF"/>
<stop offset="1" stop-color="#3F8CFF" stop-opacity="0.34"/>
</linearGradient>
</defs>
</svg>
