<svg width="396" height="92" viewBox="0 0 396 92" fill="none" xmlns="http://www.w3.org/2000/svg">
<path d="M0.721773 71.3532C3.61474 70.2141 10.8694 69.8344 16.7444 77.4286C24.0881 86.9214 36.7966 87.0902 39.4431 80.4666C42.7811 72.112 41.4459 45.1525 51.46 45.912C56.7939 46.3165 58.1361 55.4047 58.1361 62.999C58.1361 70.5932 61.3857 80.4666 71.4882 80.4666C80.1672 80.4666 82.17 72.4918 84.8404 65.657C87.5108 58.8221 96.1898 59.5816 96.1898 67.9352C96.1898 78.159 96.1898 90.7179 106.871 90.7179C125.612 90.7179 120.891 42.8753 124.897 7.56196C126.06 -2.69006 142.255 -3.82896 142.922 21.232C143.662 48.9893 146.928 62.9981 147.596 65.657C148.263 68.3158 151.601 74.7709 161.615 67.5564C169.627 61.7848 175.885 64.1383 177.638 67.5564C182.311 76.6688 185.115 86.0856 193.661 85.7819C205.01 85.3784 205.678 48.9498 212.354 25.0278C214.049 18.9526 224.371 18.9526 224.371 28.8251C224.371 39.1544 223.035 53.8859 231.047 58.0629C235.28 60.2701 240.56 59.5817 243.064 53.8859C244.666 50.2407 246.402 25.0278 249.072 12.1176C251.742 2.625 261.757 4.52338 264.427 12.1176C268.166 22.7497 275.828 63.9597 292.467 53.8859C313.162 41.3556 323.608 50.8654 327.85 39.8366C332.523 27.686 333.858 18.9526 354.554 25.0278C375.045 31.0429 387.267 26.4201 395.278 25.0278" stroke="#9747FF" stroke-width="1.43957" stroke-linecap="round" stroke-linejoin="round"/>
</svg>
