<svg width="172" height="114" viewBox="0 0 172 114" fill="none" xmlns="http://www.w3.org/2000/svg">
<path d="M81 110L84.2322 113.232C85.2085 114.209 86.7915 114.209 87.7678 113.232L91 110H81Z" fill="#081735"/>
<rect width="172" height="110" rx="6" fill="#081735"/>
<path d="M34.2131 49H40.4571V47.334H38.5111V38.64H36.9851C36.3131 39.046 35.6131 39.312 34.5631 39.508V40.782H36.4531V47.334H34.2131V49ZM45.7469 49.196C47.5109 49.196 49.0089 47.866 49.0089 45.738C49.0089 43.512 47.7629 42.49 46.0269 42.49C45.3269 42.49 44.3609 42.938 43.8149 43.708L43.8989 45.108C44.4169 44.254 45.0749 43.946 45.6489 43.946C46.5309 43.946 47.1189 44.506 47.1189 45.738C47.1189 46.998 46.4889 47.642 45.7189 47.642C44.6969 47.642 43.9129 46.648 43.9129 43.96C43.9129 41.076 44.9069 40.11 46.1669 40.11C46.7549 40.11 47.3989 40.446 47.7489 40.852L48.8549 39.634C48.2249 38.976 47.3009 38.458 46.0409 38.458C43.9409 38.458 42.0229 40.11 42.0229 43.96C42.0229 47.614 43.7869 49.196 45.7469 49.196ZM50.7567 51.996C52.4647 51.436 53.4027 50.19 53.4027 48.538C53.4027 47.278 52.8707 46.522 51.9327 46.522C51.1907 46.522 50.5887 46.998 50.5887 47.74C50.5887 48.51 51.2047 48.958 51.8767 48.958C52.1847 48.958 52.4647 48.86 52.6747 48.65L51.9467 47.446L52.0167 48.902C52.0307 49.728 51.4287 50.47 50.3367 50.876L50.7567 51.996ZM58.8515 49H60.7695V38.64H58.2915L54.4415 44.912V46.326H62.0015V44.744H56.4435L58.0395 42.168C58.3335 41.608 58.6135 41.034 58.8795 40.474H58.9355C58.9075 41.09 58.8515 42.028 58.8515 42.63V49ZM66.5213 49.196C68.6073 49.196 70.0073 48.006 70.0073 46.438C70.0073 45.01 69.2233 44.184 68.2713 43.666V43.596C68.9433 43.106 69.6013 42.252 69.6013 41.216C69.6013 39.564 68.4253 38.472 66.5913 38.472C64.7853 38.472 63.4553 39.536 63.4553 41.202C63.4553 42.294 64.0433 43.092 64.8273 43.666V43.722C63.8753 44.226 63.0633 45.108 63.0633 46.438C63.0633 48.062 64.5333 49.196 66.5213 49.196ZM67.1793 43.092C66.0873 42.658 65.2753 42.168 65.2753 41.202C65.2753 40.376 65.8353 39.914 66.5493 39.914C67.4033 39.914 67.9213 40.502 67.9213 41.356C67.9213 41.972 67.6833 42.56 67.1793 43.092ZM66.5633 47.74C65.5973 47.74 64.8273 47.138 64.8273 46.2C64.8273 45.43 65.2193 44.73 65.7933 44.282C67.1233 44.842 68.0893 45.276 68.0893 46.354C68.0893 47.25 67.4593 47.74 66.5633 47.74ZM75.0731 49.196C76.8371 49.196 78.3351 47.866 78.3351 45.738C78.3351 43.512 77.0891 42.49 75.3531 42.49C74.6531 42.49 73.6871 42.938 73.1411 43.708L73.2251 45.108C73.7431 44.254 74.4011 43.946 74.9751 43.946C75.8571 43.946 76.4451 44.506 76.4451 45.738C76.4451 46.998 75.8151 47.642 75.0451 47.642C74.0231 47.642 73.2391 46.648 73.2391 43.96C73.2391 41.076 74.2331 40.11 75.4931 40.11C76.0811 40.11 76.7251 40.446 77.0751 40.852L78.1811 39.634C77.5511 38.976 76.6271 38.458 75.3671 38.458C73.2671 38.458 71.3491 40.11 71.3491 43.96C71.3491 47.614 73.1131 49.196 75.0731 49.196Z" fill="white"/>
<circle cx="18" cy="21" r="5" fill="#6C5DD3"/>
<path d="M41.948 16.76C43.052 17.456 44.372 18.512 44.984 19.232L45.728 18.692C45.08 17.96 43.736 16.952 42.644 16.28L41.948 16.76ZM35.624 19.796V20.612H46.388V19.796H35.624ZM41.576 21.2C40.748 21.764 39.236 22.316 38.048 22.604C38.264 22.772 38.48 23.048 38.624 23.24C39.848 22.892 41.36 22.292 42.32 21.596L41.576 21.2ZM42.608 22.592C41.564 23.372 39.572 24.008 37.856 24.32C38.048 24.512 38.252 24.812 38.372 25.016C40.184 24.62 42.164 23.924 43.376 22.964L42.608 22.592ZM44.12 23.876C42.776 25.184 40.052 25.904 37.112 26.204C37.28 26.42 37.46 26.744 37.544 26.996C40.64 26.6 43.424 25.796 44.948 24.284L44.12 23.876ZM39.956 18.416C39.164 20.516 37.544 22.076 35.468 22.976C35.672 23.144 36.02 23.504 36.152 23.684C38.228 22.652 39.944 20.972 40.868 18.632L39.956 18.416ZM42.812 19.988L42.044 20.3C42.92 21.68 44.492 22.952 45.98 23.612C46.112 23.384 46.388 23.048 46.592 22.88C45.14 22.34 43.604 21.188 42.812 19.988ZM37.136 18.908C37.136 18.728 37.736 18.5 37.736 18.5V18.476C38.804 17.972 39.944 17.192 40.988 16.316L40.16 15.86C39.308 16.712 38.108 17.48 37.736 17.696C37.4 17.888 37.112 18.032 36.872 18.056C36.98 18.296 37.1 18.728 37.136 18.908ZM37.136 18.908C37.556 18.764 38.192 18.74 44.54 18.452C44.48 18.284 44.408 17.96 44.384 17.732L37.736 17.972L37.136 18.284V18.908ZM49.712 20.612V21.452H56.996V20.612H49.712ZM50.312 17.588V18.452H57.512V17.588H50.312ZM47.684 23.144V24.02H55.16V23.144H47.684ZM56.756 20.612V20.756C56.456 23.996 56.12 25.436 55.652 25.82C55.496 25.952 55.328 25.964 55.028 25.964C54.668 25.964 53.732 25.964 52.796 25.88C52.988 26.12 53.12 26.504 53.144 26.768C53.996 26.828 54.848 26.84 55.292 26.816C55.796 26.792 56.108 26.708 56.432 26.396C56.972 25.868 57.296 24.476 57.644 21.044C57.668 20.912 57.692 20.612 57.692 20.612H56.756ZM50.12 16.184C49.832 17.84 49.34 20.108 48.968 21.452H49.916C50.252 20.168 50.72 17.96 51.032 16.28L50.12 16.184ZM60.572 17.852V18.656H63.38V24.884H60.572V25.7H64.22V17.852H60.572ZM60.032 17.852V26.66H60.872V17.852H60.032ZM60.512 21.188V21.992H63.824V21.188H60.512ZM61.868 15.896C61.772 16.52 61.544 17.432 61.34 18.008L62.06 18.188C62.3 17.648 62.6 16.82 62.84 16.076L61.868 15.896ZM65.924 17.816V18.656H69.608V17.816H65.924ZM69.296 17.816V18.008C69.128 23.3 68.936 25.292 68.54 25.724C68.408 25.88 68.264 25.916 68.024 25.916C67.748 25.916 67.028 25.904 66.248 25.844C66.416 26.084 66.524 26.456 66.548 26.72C67.22 26.756 67.928 26.78 68.336 26.732C68.756 26.696 69.032 26.588 69.296 26.24C69.776 25.652 69.944 23.792 70.136 18.284C70.136 18.152 70.136 17.816 70.136 17.816H69.296ZM66.176 15.872C65.792 17.54 65.132 19.196 64.316 20.252C64.532 20.372 64.904 20.624 65.06 20.768C65.888 19.628 66.596 17.864 67.04 16.076L66.176 15.872ZM65.624 20.936C66.284 21.812 67.088 23 67.448 23.732L68.216 23.252C67.832 22.544 67.004 21.38 66.32 20.528L65.624 20.936ZM71.864 19.388V21.836H72.704V20.192H81.26V21.836H82.136V19.388H71.864ZM73.316 21.548V22.388H80.024V21.548H73.316ZM80.828 15.884C78.776 16.316 75.08 16.628 71.972 16.772C72.056 16.976 72.164 17.312 72.188 17.54C75.308 17.42 79.052 17.108 81.464 16.604L80.828 15.884ZM72.98 17.792C73.304 18.308 73.652 18.992 73.796 19.424L74.612 19.16C74.468 18.728 74.108 18.056 73.76 17.564L72.98 17.792ZM76.172 17.54C76.448 18.104 76.7 18.848 76.772 19.316L77.624 19.112C77.552 18.644 77.264 17.912 76.988 17.36L76.172 17.54ZM80.276 17.336C79.988 18.008 79.46 18.968 79.04 19.568L79.76 19.82C80.192 19.256 80.756 18.368 81.188 17.6L80.276 17.336ZM79.7 21.548V21.704C78.452 24.356 75.212 25.628 71.612 26.12C71.792 26.312 72.044 26.708 72.14 26.936C75.8 26.324 79.196 24.932 80.672 21.884L80.072 21.512L79.904 21.548H79.7ZM74.492 22.1L73.7 22.436C75.272 24.932 78.164 26.396 81.824 26.924C81.932 26.672 82.184 26.288 82.364 26.084C78.752 25.652 75.86 24.308 74.492 22.1ZM86.168 22.676C87.02 23.36 88.016 24.356 88.508 24.98L89.144 24.32C88.652 23.72 87.632 22.796 86.744 22.112L86.168 22.676ZM91.268 21.752L90.572 22.184C91.004 23.732 91.988 25.808 93.752 26.84C93.896 26.612 94.184 26.24 94.388 26.06C92.648 25.172 91.676 23.24 91.268 21.752ZM86.312 20.228C86 22.964 85.244 25.064 83.588 26.324C83.804 26.444 84.212 26.732 84.368 26.888C86.012 25.472 86.852 23.288 87.224 20.324L86.312 20.228ZM90.644 20.3C90.38 23.096 89.648 25.16 87.932 26.396C88.16 26.516 88.556 26.816 88.712 26.96C90.404 25.58 91.22 23.432 91.556 20.396L90.644 20.3ZM89.36 16.604L88.64 16.88C89.732 18.716 91.736 20.288 93.884 20.984C94.028 20.732 94.316 20.36 94.52 20.168C92.384 19.604 90.344 18.164 89.36 16.604ZM88.916 15.848C87.932 17.912 85.928 19.436 83.564 20.216C83.804 20.432 84.068 20.792 84.2 21.056C86.672 20.096 88.676 18.44 89.792 16.208L88.916 15.848Z" fill="#E6E8F0"/>
<path d="M36.6349 97H38.7209C38.9029 92.954 39.2109 90.826 41.6189 87.886V86.64H34.7449V88.362H39.4069C37.4189 91.106 36.8309 93.416 36.6349 97ZM43.4647 99.996C45.1727 99.436 46.1107 98.19 46.1107 96.538C46.1107 95.278 45.5787 94.522 44.6407 94.522C43.8987 94.522 43.2967 94.998 43.2967 95.74C43.2967 96.51 43.9127 96.958 44.5847 96.958C44.8927 96.958 45.1727 96.86 45.3827 96.65L44.6547 95.446L44.7247 96.902C44.7387 97.728 44.1367 98.47 43.0447 98.876L43.4647 99.996ZM51.5595 97H53.4775V86.64H50.9995L47.1495 92.912V94.326H54.7095V92.744H49.1515L50.7475 90.168C51.0415 89.608 51.3215 89.034 51.5875 88.474H51.6435C51.6155 89.09 51.5595 90.028 51.5595 90.63V97ZM57.7033 97H59.7893C59.9713 92.954 60.2793 90.826 62.6873 87.886V86.64H55.8133V88.362H60.4753C58.4873 91.106 57.8993 93.416 57.7033 97ZM67.1931 97.196C69.1811 97.196 70.8471 96.104 70.8471 94.2C70.8471 92.828 69.9511 91.974 68.7751 91.638V91.568C69.8811 91.148 70.4971 90.322 70.4971 89.216C70.4971 87.438 69.1391 86.458 67.1371 86.458C65.9331 86.458 64.9391 86.948 64.0431 87.718L65.0931 88.992C65.7091 88.418 66.3111 88.068 67.0531 88.068C67.9351 88.068 68.4391 88.558 68.4391 89.37C68.4391 90.294 67.8231 90.938 65.9191 90.938V92.422C68.1731 92.422 68.7751 93.052 68.7751 94.074C68.7751 94.998 68.0611 95.53 66.9971 95.53C66.0591 95.53 65.3171 95.054 64.7011 94.452L63.7211 95.754C64.4491 96.594 65.5551 97.196 67.1931 97.196ZM73.8969 97.196C74.6249 97.196 75.1849 96.622 75.1849 95.852C75.1849 95.082 74.6249 94.522 73.8969 94.522C73.1549 94.522 72.6229 95.082 72.6229 95.852C72.6229 96.622 73.1549 97.196 73.8969 97.196ZM80.2976 97.196C82.3836 97.196 83.7836 96.006 83.7836 94.438C83.7836 93.01 82.9996 92.184 82.0476 91.666V91.596C82.7196 91.106 83.3776 90.252 83.3776 89.216C83.3776 87.564 82.2016 86.472 80.3676 86.472C78.5616 86.472 77.2316 87.536 77.2316 89.202C77.2316 90.294 77.8196 91.092 78.6036 91.666V91.722C77.6516 92.226 76.8396 93.108 76.8396 94.438C76.8396 96.062 78.3096 97.196 80.2976 97.196ZM80.9556 91.092C79.8636 90.658 79.0516 90.168 79.0516 89.202C79.0516 88.376 79.6116 87.914 80.3256 87.914C81.1796 87.914 81.6976 88.502 81.6976 89.356C81.6976 89.972 81.4596 90.56 80.9556 91.092ZM80.3396 95.74C79.3736 95.74 78.6036 95.138 78.6036 94.2C78.6036 93.43 78.9956 92.73 79.5696 92.282C80.8996 92.842 81.8656 93.276 81.8656 94.354C81.8656 95.25 81.2356 95.74 80.3396 95.74ZM87.0295 97H89.1155C89.2975 92.954 89.6055 90.826 92.0135 87.886V86.64H85.1395V88.362H89.8015C87.8135 91.106 87.2255 93.416 87.0295 97ZM97.4013 97H99.3193V86.64H96.8413L92.9913 92.912V94.326H100.551V92.744H94.9933L96.5893 90.168C96.8833 89.608 97.1633 89.034 97.4293 88.474H97.4853C97.4573 89.09 97.4013 90.028 97.4013 90.63V97Z" fill="white"/>
<circle cx="18" cy="69" r="5" fill="#3F8CFF"/>
<path d="M35.876 64.58V65.42H46.22V64.58H35.876ZM40.496 65.012C40.34 65.624 40.004 66.512 39.74 67.076L40.532 67.244C40.844 66.704 41.216 65.9 41.528 65.168L40.496 65.012ZM40.556 68.456V70.628C40.556 71.912 40.052 73.34 35.6 74.24C35.792 74.42 36.044 74.78 36.14 74.96C40.808 73.964 41.492 72.296 41.492 70.652V68.456H40.556ZM41.54 72.692C42.932 73.328 44.732 74.324 45.608 74.996L46.172 74.288C45.248 73.628 43.424 72.668 42.056 72.08L41.54 72.692ZM37.052 66.872V72.464H37.964V67.7H44.108V72.452H45.068V66.872H37.052ZM51.26 69.26V70.004H54.548V69.26H51.26ZM51.26 71.348V72.092H54.584V71.348H51.26ZM48.788 73.496V74.336H57.26V73.496H48.788ZM48.236 67.088V74.972H49.112V67.928H56.84V74.972H57.752V67.088H48.236ZM50.84 67.616V73.88H51.656V67.616H50.84ZM54.2 67.616V73.844H55.028V67.616H54.2ZM52.4 65.12C52.316 65.816 52.076 66.812 51.884 67.46L52.7 67.688C52.94 67.088 53.192 66.164 53.444 65.36L52.4 65.12ZM47.696 64.724V65.588H58.328V64.724H47.696ZM60.668 68.156V69.032H64.46V68.156H60.668ZM69.056 64.772V71.912C69.056 72.104 69.008 72.164 68.816 72.164C68.612 72.164 67.952 72.176 67.22 72.152C67.364 72.404 67.52 72.848 67.568 73.112C68.468 73.112 69.092 73.1 69.476 72.932C69.86 72.764 69.968 72.452 69.968 71.936V64.772H69.056ZM65.396 64.772V74.948H66.296V65.66H69.56V64.772H65.396ZM63.74 64.16C62.912 64.592 61.484 65.024 60.224 65.324C60.332 65.528 60.464 65.84 60.524 66.044C61.832 65.768 63.368 65.36 64.46 64.88L63.74 64.16ZM60.224 65.324V71.816C60.224 72.284 59.924 72.512 59.708 72.62C59.864 72.848 60.044 73.328 60.116 73.556L61.148 72.716V65.324H60.224ZM60.116 73.556C60.416 73.376 60.872 73.22 64.472 72.296C64.448 72.092 64.412 71.72 64.424 71.456L60.548 72.392L60.056 72.74L60.116 73.556ZM75.188 69.392C77.876 70.988 78.164 73.244 77.24 73.844C77 74.024 76.7 74.048 76.388 74.048C76.112 74.048 75.68 74.036 75.248 73.988C75.392 74.228 75.476 74.576 75.5 74.816C75.896 74.84 76.256 74.852 76.544 74.852C77.06 74.84 77.408 74.768 77.816 74.48C79.172 73.628 78.884 70.712 75.776 68.924L75.188 69.392ZM76.472 70.04C75.512 70.808 73.652 71.552 72.164 71.876C72.332 72.032 72.56 72.332 72.68 72.524C74.168 72.116 76.064 71.264 77.108 70.364L76.472 70.04ZM77.36 71.192C76.172 72.224 73.88 73.208 71.996 73.64C72.176 73.808 72.416 74.12 72.536 74.324C74.396 73.796 76.724 72.716 78.02 71.54L77.36 71.192ZM74.756 64.724V65.444H78.296V64.724H74.756ZM77.168 66.584C76.316 68.588 74.264 69.716 71.768 70.292C71.912 70.448 72.14 70.784 72.224 70.952C74.768 70.244 76.928 69.032 77.912 66.812L77.168 66.584ZM80.6 69.248C79.808 69.836 78.476 70.64 77.504 71.084L78.068 71.564C79.052 71.132 80.36 70.436 81.32 69.788L80.6 69.248ZM73.76 67.076H80.3V68.372H73.76V67.076ZM72.908 66.38V69.068H81.188V66.38H72.908ZM75.092 63.884C74.432 64.868 73.22 66.056 71.612 66.92C71.816 67.052 72.092 67.34 72.224 67.544C73.916 66.548 75.152 65.288 76.028 64.076L75.092 63.884ZM77.96 64.724V64.904C77.72 65.396 77.192 66.14 76.712 66.572C76.916 66.68 77.204 66.872 77.372 66.992C77.9 66.524 78.524 65.756 78.908 65.084L78.308 64.688L78.164 64.724H77.96ZM79.436 70.328L78.752 70.748C79.196 71.948 80.252 73.568 81.824 74.348C81.944 74.108 82.232 73.748 82.424 73.58C80.864 72.92 79.844 71.468 79.436 70.328Z" fill="#E6E8F0"/>
</svg>
