<svg width="577" height="401" viewBox="0 0 577 401" fill="none" xmlns="http://www.w3.org/2000/svg">
<g filter="url(#filter0_d_37_5457)">
<g clip-path="url(#clip0_37_5457)">
<rect x="16" y="8" width="545" height="360.049" rx="24" fill="white"/>
<path d="M41.764 36.7226H56.272V38.5766H41.764V36.7226ZM40.936 40.2146H57.082V41.9606H40.936V40.2146ZM51.556 38.5586L53.734 39.0086C53.518 39.5246 53.302 40.0166 53.086 40.4846C52.87 40.9406 52.666 41.3366 52.474 41.6726L50.53 41.2406C50.71 40.8566 50.896 40.4186 51.088 39.9266C51.292 39.4226 51.448 38.9666 51.556 38.5586ZM44.266 39.0806L46.282 38.5406C46.486 38.8646 46.666 39.2246 46.822 39.6206C46.978 40.0046 47.086 40.3406 47.146 40.6286L45.022 41.2586C44.974 40.9706 44.878 40.6226 44.734 40.2146C44.602 39.7946 44.446 39.4166 44.266 39.0806ZM47.596 35.9126L49.738 35.4806C49.894 35.7686 50.038 36.0926 50.17 36.4526C50.314 36.8126 50.41 37.1306 50.458 37.4066L48.208 37.9106C48.172 37.6466 48.094 37.3286 47.974 36.9566C47.866 36.5726 47.74 36.2246 47.596 35.9126ZM45.256 44.3546V45.8666H52.654V44.3546H45.256ZM43.168 42.6086H54.886V47.6126H43.168V42.6086ZM49.81 46.7486H51.97V49.7186C51.97 49.9706 52.012 50.1326 52.096 50.2046C52.18 50.2646 52.39 50.2946 52.726 50.2946C52.798 50.2946 52.912 50.2946 53.068 50.2946C53.236 50.2946 53.416 50.2946 53.608 50.2946C53.812 50.2946 53.998 50.2946 54.166 50.2946C54.346 50.2946 54.484 50.2946 54.58 50.2946C54.772 50.2946 54.916 50.2526 55.012 50.1686C55.12 50.0726 55.192 49.8806 55.228 49.5926C55.276 49.2926 55.312 48.8366 55.336 48.2246C55.48 48.3326 55.66 48.4406 55.876 48.5486C56.104 48.6566 56.338 48.7526 56.578 48.8366C56.83 48.9086 57.052 48.9686 57.244 49.0166C57.172 49.8566 57.046 50.5046 56.866 50.9606C56.698 51.4286 56.446 51.7466 56.11 51.9146C55.786 52.0946 55.342 52.1846 54.778 52.1846C54.67 52.1846 54.508 52.1846 54.292 52.1846C54.076 52.1846 53.842 52.1846 53.59 52.1846C53.338 52.1846 53.104 52.1846 52.888 52.1846C52.684 52.1846 52.528 52.1846 52.42 52.1846C51.724 52.1846 51.184 52.1066 50.8 51.9506C50.428 51.8066 50.17 51.5546 50.026 51.1946C49.882 50.8466 49.81 50.3606 49.81 49.7366V46.7486ZM46.03 46.8566H48.208C48.1 47.6006 47.932 48.2666 47.704 48.8546C47.488 49.4426 47.146 49.9706 46.678 50.4386C46.21 50.8946 45.574 51.2906 44.77 51.6266C43.966 51.9746 42.928 52.2626 41.656 52.4906C41.596 52.3106 41.5 52.1066 41.368 51.8786C41.248 51.6506 41.116 51.4226 40.972 51.1946C40.828 50.9786 40.69 50.7926 40.558 50.6366C41.662 50.4926 42.556 50.3126 43.24 50.0966C43.936 49.8686 44.464 49.6046 44.824 49.3046C45.196 48.9926 45.466 48.6386 45.634 48.2426C45.814 47.8346 45.946 47.3726 46.03 46.8566ZM63.832 38.3606V40.7726H70.168V38.3606H63.832ZM61.744 36.2906H72.364V42.8246H61.744V36.2906ZM59.26 44.3366H66.154V52.3826H63.994V46.4066H61.312V52.4906H59.26V44.3366ZM67.666 44.3366H74.794V52.4006H72.634V46.4066H69.736V52.4906H67.666V44.3366ZM60.16 49.5026H64.894V51.5726H60.16V49.5026ZM68.656 49.5026H73.696V51.5726H68.656V49.5026ZM79.51 42.1946H89.248V44.3186H79.51V42.1946ZM88.528 42.1946H90.796C90.796 42.1946 90.796 42.2546 90.796 42.3746C90.796 42.4826 90.796 42.6146 90.796 42.7706C90.796 42.9146 90.79 43.0346 90.778 43.1306C90.73 44.4626 90.676 45.6086 90.616 46.5686C90.556 47.5286 90.484 48.3326 90.4 48.9806C90.328 49.6166 90.238 50.1266 90.13 50.5106C90.022 50.8946 89.89 51.1826 89.734 51.3746C89.506 51.6626 89.26 51.8606 88.996 51.9686C88.732 52.0886 88.432 52.1726 88.096 52.2206C87.784 52.2686 87.382 52.2926 86.89 52.2926C86.41 52.3046 85.9 52.2986 85.36 52.2746C85.336 51.9506 85.258 51.5786 85.126 51.1586C85.006 50.7506 84.85 50.3966 84.658 50.0966C85.15 50.1446 85.612 50.1746 86.044 50.1866C86.476 50.1866 86.806 50.1866 87.034 50.1866C87.358 50.1866 87.598 50.1086 87.754 49.9526C87.898 49.7966 88.018 49.4546 88.114 48.9266C88.21 48.3866 88.288 47.6006 88.348 46.5686C88.42 45.5366 88.48 44.2046 88.528 42.5726V42.1946ZM81.526 35.8046L83.866 36.4706C83.446 37.5026 82.948 38.5046 82.372 39.4766C81.796 40.4366 81.172 41.3306 80.5 42.1586C79.828 42.9746 79.132 43.6826 78.412 44.2826C78.292 44.1266 78.118 43.9406 77.89 43.7246C77.662 43.5086 77.428 43.2986 77.188 43.0946C76.96 42.8786 76.756 42.7046 76.576 42.5726C77.272 42.0686 77.932 41.4626 78.556 40.7546C79.192 40.0346 79.762 39.2546 80.266 38.4146C80.782 37.5746 81.202 36.7046 81.526 35.8046ZM88.384 35.7686C88.672 36.3446 89.008 36.9386 89.392 37.5506C89.776 38.1506 90.196 38.7386 90.652 39.3146C91.12 39.8906 91.594 40.4306 92.074 40.9346C92.566 41.4386 93.046 41.8886 93.514 42.2846C93.334 42.4166 93.13 42.5906 92.902 42.8066C92.686 43.0226 92.476 43.2446 92.272 43.4726C92.068 43.7006 91.9 43.9166 91.768 44.1206C91.288 43.6526 90.796 43.1306 90.292 42.5546C89.8 41.9666 89.32 41.3426 88.852 40.6826C88.384 40.0106 87.934 39.3266 87.502 38.6306C87.082 37.9346 86.704 37.2446 86.368 36.5606L88.384 35.7686ZM82.57 42.8066H84.856C84.76 43.8146 84.616 44.7926 84.424 45.7406C84.232 46.6886 83.914 47.5886 83.47 48.4406C83.038 49.2806 82.414 50.0486 81.598 50.7446C80.782 51.4406 79.714 52.0406 78.394 52.5446C78.31 52.3406 78.19 52.1186 78.034 51.8786C77.89 51.6506 77.728 51.4226 77.548 51.1946C77.368 50.9666 77.194 50.7746 77.026 50.6186C78.226 50.2346 79.18 49.7606 79.888 49.1966C80.596 48.6326 81.13 48.0086 81.49 47.3246C81.85 46.6406 82.102 45.9146 82.246 45.1466C82.39 44.3786 82.498 43.5986 82.57 42.8066ZM103.612 41.6546H111.442V43.6886H103.612V41.6546ZM108.652 35.7686L110.488 37.4606C109.792 37.7486 109.036 38.0126 108.22 38.2526C107.404 38.4926 106.57 38.7026 105.718 38.8826C104.878 39.0626 104.062 39.2186 103.27 39.3506C103.222 39.0986 103.126 38.7986 102.982 38.4506C102.85 38.0906 102.712 37.7966 102.568 37.5686C103.312 37.4246 104.056 37.2626 104.8 37.0826C105.544 36.8906 106.246 36.6806 106.906 36.4526C107.578 36.2246 108.16 35.9966 108.652 35.7686ZM106.978 42.2846H109.12V52.4726H106.978V42.2846ZM94.864 39.2966H101.848V41.3306H94.864V39.2966ZM97.294 35.5706H99.364V52.4726H97.294V35.5706ZM97.204 40.6826L98.482 41.1146C98.338 41.8466 98.158 42.5966 97.942 43.3646C97.738 44.1326 97.504 44.8886 97.24 45.6326C96.976 46.3766 96.688 47.0726 96.376 47.7206C96.064 48.3566 95.734 48.9086 95.386 49.3766C95.278 49.0646 95.122 48.7166 94.918 48.3326C94.714 47.9486 94.528 47.6246 94.36 47.3606C94.672 46.9646 94.972 46.5026 95.26 45.9746C95.56 45.4466 95.83 44.8886 96.07 44.3006C96.322 43.7006 96.544 43.0946 96.736 42.4826C96.928 41.8586 97.084 41.2586 97.204 40.6826ZM99.13 41.7266C99.25 41.8586 99.43 42.0866 99.67 42.4106C99.922 42.7346 100.192 43.0886 100.48 43.4726C100.768 43.8566 101.026 44.2106 101.254 44.5346C101.494 44.8586 101.662 45.0866 101.758 45.2186L100.498 46.9286C100.378 46.6406 100.216 46.3046 100.012 45.9206C99.808 45.5366 99.592 45.1406 99.364 44.7326C99.136 44.3246 98.914 43.9466 98.698 43.5986C98.482 43.2386 98.296 42.9446 98.14 42.7166L99.13 41.7266ZM102.568 37.5686H104.62V42.9146C104.62 43.6226 104.59 44.3966 104.53 45.2366C104.482 46.0646 104.386 46.9106 104.242 47.7746C104.098 48.6266 103.894 49.4546 103.63 50.2586C103.366 51.0626 103.012 51.7886 102.568 52.4366C102.436 52.3286 102.262 52.2026 102.046 52.0586C101.83 51.9146 101.602 51.7766 101.362 51.6446C101.134 51.5126 100.936 51.4166 100.768 51.3566C101.188 50.7566 101.518 50.1026 101.758 49.3946C101.998 48.6746 102.172 47.9426 102.28 47.1986C102.4 46.4426 102.478 45.6986 102.514 44.9666C102.55 44.2346 102.568 43.5506 102.568 42.9146V37.5686Z" fill="#081735"/>
<ellipse cx="522.6" cy="45.3973" rx="1.6" ry="1.59137" fill="#8F95B2"/>
<ellipse cx="529" cy="45.3973" rx="1.6" ry="1.59137" fill="#8F95B2"/>
<ellipse cx="535.4" cy="45.3973" rx="1.6" ry="1.59137" fill="#8F95B2"/>
<rect x="16" y="71.655" width="545" height="39.7844" fill="#F9FAFC"/>
<line x1="16" y1="71.155" x2="561" y2="71.1551" stroke="#E6E8F0"/>
<line x1="16" y1="110.939" x2="561" y2="110.939" stroke="#E6E8F0"/>
<path d="M160.496 87.42V92.16H161.468V87.42H160.496ZM156.44 88.284C157.076 89.124 157.736 90.288 158 91.068L158.852 90.684C158.576 89.928 157.928 88.788 157.256 87.948L156.44 88.284ZM164.612 87.852C164.252 88.764 163.592 90.048 163.064 90.84L163.844 91.152C164.384 90.372 165.068 89.196 165.572 88.176L164.612 87.852ZM156.608 91.668V92.568H164.468V98.472H165.416V91.668H156.608ZM157.016 94.308V95.184H164.828V94.308H157.016ZM156.38 97.056V97.944H164.948V97.056H156.38ZM167.636 89.316V90.156H178.364V89.316H167.636ZM168.872 93.18V93.888H172.232V93.18H168.872ZM168.872 95.1V95.808H172.232V95.1H168.872ZM174.236 91.332V96.264H175.088V91.332H174.236ZM171.908 91.224V97.416C171.908 97.572 171.86 97.62 171.692 97.632C171.524 97.644 170.972 97.644 170.372 97.62C170.492 97.848 170.624 98.184 170.672 98.412C171.488 98.412 172.016 98.412 172.34 98.268C172.676 98.124 172.784 97.884 172.784 97.428V91.224H171.908ZM176.672 90.972V97.344C176.672 97.512 176.612 97.56 176.42 97.572C176.216 97.584 175.568 97.584 174.836 97.56C174.968 97.8 175.112 98.184 175.16 98.424C176.096 98.424 176.696 98.4 177.068 98.268C177.44 98.124 177.56 97.872 177.56 97.344V90.972H176.672ZM169.496 87.72C169.952 88.236 170.444 88.968 170.636 89.424L171.524 89.1C171.296 88.632 170.792 87.924 170.324 87.408L169.496 87.72ZM175.664 87.372C175.364 88.02 174.824 88.944 174.392 89.52L175.184 89.82C175.628 89.256 176.168 88.428 176.624 87.684L175.664 87.372ZM168.392 91.224V98.4H169.244V92.004H172.196V91.224H168.392ZM180.08 88.296C180.8 88.728 181.676 89.364 182.12 89.808L182.696 89.136C182.252 88.704 181.352 88.104 180.644 87.696L180.08 88.296ZM179.492 91.608C180.236 91.992 181.148 92.58 181.604 92.988L182.156 92.28C181.688 91.884 180.752 91.332 180.032 90.984L179.492 91.608ZM179.744 97.62L180.524 98.232C181.184 97.152 181.952 95.724 182.552 94.512L181.88 93.924C181.22 95.232 180.344 96.732 179.744 97.62ZM190.184 88.128H183.14V97.86H190.436V96.96H184.064V89.004H190.184V88.128ZM196.52 94.092V98.46H197.468V94.092H196.52ZM191.612 95.088V95.928H202.388V95.088H191.612ZM191.852 88.512V89.328H202.292V88.512H191.852ZM200.936 89.784C200.528 90.264 199.772 90.936 199.232 91.332L199.892 91.764C200.456 91.38 201.152 90.804 201.692 90.24L200.936 89.784ZM197.612 92.196C198.152 92.82 198.728 93.708 198.956 94.26L199.676 93.948C199.424 93.384 198.824 92.532 198.272 91.908L197.612 92.196ZM191.672 93.456L192.116 94.188C192.92 93.792 193.892 93.276 194.816 92.772L194.636 92.1C193.544 92.616 192.416 93.144 191.672 93.456ZM192.02 90.324C192.668 90.72 193.46 91.332 193.832 91.728L194.48 91.176C194.072 90.78 193.268 90.204 192.632 89.832L192.02 90.324ZM199.112 92.616C199.952 93.108 200.984 93.84 201.488 94.32L202.16 93.78C201.62 93.288 200.564 92.592 199.76 92.124L199.112 92.616ZM195.056 91.704C195.056 91.524 195.572 91.296 195.572 91.296V91.272C196.184 90.72 196.856 89.892 197.384 89.04L196.604 88.728C196.196 89.52 195.524 90.348 195.332 90.552C195.14 90.768 194.96 90.912 194.792 90.948C194.888 91.152 195.008 91.536 195.056 91.704ZM195.056 91.704C195.248 91.62 195.596 91.56 197.672 91.416C197.696 91.224 197.768 90.9 197.828 90.684L195.488 90.828L195.044 91.08L195.056 91.704ZM194.816 94.104C194.816 93.936 195.356 93.708 195.356 93.708V93.684C196.64 92.784 197.972 91.5 199.136 90.12L198.416 89.7C197.42 91.032 195.992 92.364 195.536 92.712C195.14 93.048 194.828 93.288 194.552 93.324C194.648 93.54 194.768 93.936 194.816 94.104ZM194.816 94.104C195.08 93.996 195.5 93.924 198.92 93.6C198.896 93.432 198.908 93.12 198.932 92.904L195.26 93.204L194.792 93.48L194.816 94.104ZM196.208 87.564C196.496 87.984 196.832 88.56 196.964 88.932L197.876 88.644C197.72 88.284 197.396 87.744 197.096 87.336L196.208 87.564Z" fill="#8F95B2"/>
<path d="M236.704 98.5H238.622V88.14H236.144L232.294 94.412V95.826H239.854V94.244H234.296L235.892 91.668C236.186 91.108 236.466 90.534 236.732 89.974H236.788C236.76 90.59 236.704 91.528 236.704 92.13V98.5ZM242.526 98.696C243.254 98.696 243.814 98.122 243.814 97.352C243.814 96.582 243.254 96.022 242.526 96.022C241.784 96.022 241.252 96.582 241.252 97.352C241.252 98.122 241.784 98.696 242.526 98.696ZM248.633 98.696C250.621 98.696 252.287 97.604 252.287 95.7C252.287 94.328 251.391 93.474 250.215 93.138V93.068C251.321 92.648 251.937 91.822 251.937 90.716C251.937 88.938 250.579 87.958 248.577 87.958C247.373 87.958 246.379 88.448 245.483 89.218L246.533 90.492C247.149 89.918 247.751 89.568 248.493 89.568C249.375 89.568 249.879 90.058 249.879 90.87C249.879 91.794 249.263 92.438 247.359 92.438V93.922C249.613 93.922 250.215 94.552 250.215 95.574C250.215 96.498 249.501 97.03 248.437 97.03C247.499 97.03 246.757 96.554 246.141 95.952L245.161 97.254C245.889 98.094 246.995 98.696 248.633 98.696ZM256.036 94.524C257.52 94.524 258.57 93.292 258.57 91.22C258.57 89.148 257.52 87.958 256.036 87.958C254.552 87.958 253.502 89.148 253.502 91.22C253.502 93.292 254.552 94.524 256.036 94.524ZM256.036 93.362C255.42 93.362 254.958 92.732 254.958 91.22C254.958 89.694 255.42 89.12 256.036 89.12C256.638 89.12 257.1 89.694 257.1 91.22C257.1 92.732 256.638 93.362 256.036 93.362ZM256.372 98.696H257.59L263.232 87.958H262L256.372 98.696ZM263.568 98.696C265.038 98.696 266.088 97.478 266.088 95.392C266.088 93.32 265.038 92.116 263.568 92.116C262.098 92.116 261.048 93.32 261.048 95.392C261.048 97.478 262.098 98.696 263.568 98.696ZM263.568 97.534C262.966 97.534 262.49 96.918 262.49 95.392C262.49 93.866 262.966 93.292 263.568 93.292C264.17 93.292 264.646 93.866 264.646 95.392C264.646 96.918 264.17 97.534 263.568 97.534Z" fill="#244CB2"/>
<circle cx="281" cy="92.5" r="6" fill="#FF9A7B"/>
<path d="M279 93.5L281 91.5L283 93.5" stroke="white" stroke-width="2" stroke-linecap="round" stroke-linejoin="round"/>
<line x1="311.5" y1="79" x2="311.5" y2="106" stroke="#E6E8F0"/>
<path d="M337.508 91.008V91.86H344.456V91.008H337.508ZM337.508 93.852V94.704H344.456V93.852H337.508ZM337.508 96.708V97.584H344.456V96.708H337.508ZM336.884 88.164V98.4H337.784V89.052H344.096V98.4H345.032V88.164H336.884ZM352.58 88.344V89.184H357.824V88.344H352.58ZM352.064 91.212V92.052H358.46V91.212H352.064ZM354.62 91.62V97.296C354.62 97.452 354.572 97.488 354.404 97.5C354.236 97.512 353.672 97.512 353.06 97.488C353.18 97.764 353.3 98.148 353.336 98.412C354.176 98.412 354.728 98.4 355.088 98.244C355.436 98.088 355.532 97.824 355.532 97.308V91.62H354.62ZM356.348 93.612C356.912 94.8 357.464 96.36 357.656 97.308L358.484 97.008C358.28 96.06 357.692 94.536 357.116 93.372L356.348 93.612ZM352.892 93.396C352.568 94.668 352.028 95.964 351.368 96.816C351.56 96.924 351.932 97.164 352.088 97.296C352.736 96.372 353.348 94.968 353.708 93.588L352.892 93.396ZM347.588 89.964V90.816H351.884V89.964H347.588ZM349.424 87.42V98.448H350.312V87.42H349.424ZM349.304 90.468C348.944 92.028 348.116 93.948 347.276 94.932C347.444 95.148 347.684 95.532 347.78 95.772C348.68 94.644 349.52 92.436 349.916 90.66L349.304 90.468ZM350.252 91.068L349.796 91.476C350.156 91.92 351.104 93.324 351.404 93.9L351.944 93.18C351.692 92.844 350.54 91.38 350.252 91.068ZM359.588 91.044V91.884H365.3V91.044H359.588ZM366.104 88.848V95.484H366.98V88.848H366.104ZM362.108 88.44V98.448H362.996V88.44H362.108ZM369.056 87.648V97.272C369.056 97.5 368.96 97.572 368.732 97.572C368.504 97.584 367.76 97.584 366.896 97.56C367.04 97.824 367.184 98.22 367.232 98.472C368.336 98.484 369.008 98.46 369.404 98.304C369.788 98.16 369.944 97.884 369.944 97.26V87.648H369.056ZM364.496 87.492C363.368 87.996 361.28 88.404 359.504 88.656C359.612 88.848 359.744 89.16 359.78 89.376C361.604 89.136 363.776 88.74 365.168 88.188L364.496 87.492ZM362.072 91.428C361.544 93.036 360.38 94.944 359.324 95.952C359.48 96.18 359.708 96.54 359.816 96.804C360.932 95.664 362.108 93.516 362.72 91.692L362.072 91.428ZM362.876 92.664L362.384 93.144C362.936 93.612 364.244 94.872 364.736 95.424L365.264 94.668C364.88 94.332 363.332 92.988 362.876 92.664ZM376.52 94.092V98.46H377.468V94.092H376.52ZM371.612 95.088V95.928H382.388V95.088H371.612ZM371.852 88.512V89.328H382.292V88.512H371.852ZM380.936 89.784C380.528 90.264 379.772 90.936 379.232 91.332L379.892 91.764C380.456 91.38 381.152 90.804 381.692 90.24L380.936 89.784ZM377.612 92.196C378.152 92.82 378.728 93.708 378.956 94.26L379.676 93.948C379.424 93.384 378.824 92.532 378.272 91.908L377.612 92.196ZM371.672 93.456L372.116 94.188C372.92 93.792 373.892 93.276 374.816 92.772L374.636 92.1C373.544 92.616 372.416 93.144 371.672 93.456ZM372.02 90.324C372.668 90.72 373.46 91.332 373.832 91.728L374.48 91.176C374.072 90.78 373.268 90.204 372.632 89.832L372.02 90.324ZM379.112 92.616C379.952 93.108 380.984 93.84 381.488 94.32L382.16 93.78C381.62 93.288 380.564 92.592 379.76 92.124L379.112 92.616ZM375.056 91.704C375.056 91.524 375.572 91.296 375.572 91.296V91.272C376.184 90.72 376.856 89.892 377.384 89.04L376.604 88.728C376.196 89.52 375.524 90.348 375.332 90.552C375.14 90.768 374.96 90.912 374.792 90.948C374.888 91.152 375.008 91.536 375.056 91.704ZM375.056 91.704C375.248 91.62 375.596 91.56 377.672 91.416C377.696 91.224 377.768 90.9 377.828 90.684L375.488 90.828L375.044 91.08L375.056 91.704ZM374.816 94.104C374.816 93.936 375.356 93.708 375.356 93.708V93.684C376.64 92.784 377.972 91.5 379.136 90.12L378.416 89.7C377.42 91.032 375.992 92.364 375.536 92.712C375.14 93.048 374.828 93.288 374.552 93.324C374.648 93.54 374.768 93.936 374.816 94.104ZM374.816 94.104C375.08 93.996 375.5 93.924 378.92 93.6C378.896 93.432 378.908 93.12 378.932 92.904L375.26 93.204L374.792 93.48L374.816 94.104ZM376.208 87.564C376.496 87.984 376.832 88.56 376.964 88.932L377.876 88.644C377.72 88.284 377.396 87.744 377.096 87.336L376.208 87.564Z" fill="#8F95B2"/>
<path d="M395.116 98.696C397.202 98.696 398.602 97.506 398.602 95.938C398.602 94.51 397.818 93.684 396.866 93.166V93.096C397.538 92.606 398.196 91.752 398.196 90.716C398.196 89.064 397.02 87.972 395.186 87.972C393.38 87.972 392.05 89.036 392.05 90.702C392.05 91.794 392.638 92.592 393.422 93.166V93.222C392.47 93.726 391.658 94.608 391.658 95.938C391.658 97.562 393.128 98.696 395.116 98.696ZM395.774 92.592C394.682 92.158 393.87 91.668 393.87 90.702C393.87 89.876 394.43 89.414 395.144 89.414C395.998 89.414 396.516 90.002 396.516 90.856C396.516 91.472 396.278 92.06 395.774 92.592ZM395.158 97.24C394.192 97.24 393.422 96.638 393.422 95.7C393.422 94.93 393.814 94.23 394.388 93.782C395.718 94.342 396.684 94.776 396.684 95.854C396.684 96.75 396.054 97.24 395.158 97.24ZM402.226 94.524C403.71 94.524 404.76 93.292 404.76 91.22C404.76 89.148 403.71 87.958 402.226 87.958C400.742 87.958 399.692 89.148 399.692 91.22C399.692 93.292 400.742 94.524 402.226 94.524ZM402.226 93.362C401.61 93.362 401.148 92.732 401.148 91.22C401.148 89.694 401.61 89.12 402.226 89.12C402.828 89.12 403.29 89.694 403.29 91.22C403.29 92.732 402.828 93.362 402.226 93.362ZM402.562 98.696H403.78L409.422 87.958H408.19L402.562 98.696ZM409.758 98.696C411.228 98.696 412.278 97.478 412.278 95.392C412.278 93.32 411.228 92.116 409.758 92.116C408.288 92.116 407.238 93.32 407.238 95.392C407.238 97.478 408.288 98.696 409.758 98.696ZM409.758 97.534C409.156 97.534 408.68 96.918 408.68 95.392C408.68 93.866 409.156 93.292 409.758 93.292C410.36 93.292 410.836 93.866 410.836 95.392C410.836 96.918 410.36 97.534 409.758 97.534Z" fill="#244CB2"/>
<circle cx="38" cy="146" r="6" fill="#3F8CFF"/>
<path d="M52.91 143.194H65.118V144.258H52.91V143.194ZM55.164 149.438H62.808V150.502H55.164V149.438ZM58.44 140.254H59.546V153.12H58.44V140.254ZM57.418 143.544L58.37 143.838C58.0247 144.809 57.586 145.742 57.054 146.638C56.5313 147.525 55.9527 148.337 55.318 149.074C54.6833 149.802 54.0113 150.409 53.302 150.894C53.246 150.81 53.1713 150.717 53.078 150.614C52.9847 150.502 52.8867 150.399 52.784 150.306C52.6907 150.203 52.602 150.115 52.518 150.04C53.2087 149.62 53.8667 149.069 54.492 148.388C55.1173 147.707 55.682 146.951 56.186 146.12C56.69 145.28 57.1007 144.421 57.418 143.544ZM60.526 143.586C60.8433 144.454 61.254 145.299 61.758 146.12C62.2713 146.941 62.8453 147.683 63.48 148.346C64.124 149.009 64.8007 149.545 65.51 149.956C65.426 150.021 65.328 150.11 65.216 150.222C65.1133 150.325 65.0153 150.432 64.922 150.544C64.8287 150.656 64.7493 150.763 64.684 150.866C63.9653 150.39 63.284 149.793 62.64 149.074C61.996 148.346 61.4127 147.539 60.89 146.652C60.3673 145.756 59.9333 144.827 59.588 143.866L60.526 143.586ZM70.228 141.836V144.496H75.814V141.836H70.228ZM69.206 140.842H76.892V145.504H69.206V140.842ZM67.162 147.002H72.146V152.994H71.096V147.996H68.17V153.12H67.162V147.002ZM73.686 147.002H78.95V153.036H77.886V147.996H74.694V153.12H73.686V147.002ZM67.624 151.342H71.53V152.364H67.624V151.342ZM74.19 151.342H78.348V152.364H74.19V151.342ZM85.516 149.284H93.398V150.194H85.516V149.284ZM90.22 147.324H91.214V153.106H90.22V147.324ZM88.862 140.198L90.038 140.422C89.87 140.739 89.688 141.061 89.492 141.388C89.3053 141.715 89.1373 141.99 88.988 142.214L88.134 141.99C88.2647 141.729 88.3953 141.43 88.526 141.094C88.666 140.758 88.778 140.459 88.862 140.198ZM89.1 142.116H90.01V144.384C90.01 144.804 89.968 145.233 89.884 145.672C89.8093 146.111 89.6553 146.54 89.422 146.96C89.198 147.38 88.8667 147.781 88.428 148.164C87.9987 148.537 87.434 148.878 86.734 149.186C86.678 149.121 86.608 149.051 86.524 148.976C86.44 148.901 86.3513 148.831 86.258 148.766C86.174 148.691 86.0993 148.631 86.034 148.584C86.6967 148.304 87.2287 147.991 87.63 147.646C88.0407 147.301 88.3487 146.946 88.554 146.582C88.7687 146.209 88.9133 145.835 88.988 145.462C89.0627 145.089 89.1 144.725 89.1 144.37V142.116ZM81.862 144.09H85.782V145H81.862V144.09ZM83.696 140.254H84.634V144.65H83.696V140.254ZM81.918 147.058H85.068V153.106H84.116V147.968H81.918V147.058ZM81.414 140.52H82.338V145.896C82.338 146.456 82.324 147.049 82.296 147.674C82.2773 148.29 82.2353 148.92 82.17 149.564C82.1047 150.199 82.0067 150.824 81.876 151.44C81.7547 152.047 81.5913 152.616 81.386 153.148C81.3207 153.101 81.232 153.055 81.12 153.008C81.0173 152.971 80.91 152.933 80.798 152.896C80.686 152.859 80.5833 152.826 80.49 152.798C80.6953 152.294 80.8587 151.748 80.98 151.16C81.1013 150.572 81.1947 149.97 81.26 149.354C81.3253 148.738 81.3673 148.136 81.386 147.548C81.4047 146.951 81.414 146.4 81.414 145.896V140.52ZM87.07 144.678V146.162H92.04V144.678H87.07ZM87.07 142.41V143.88H92.04V142.41H87.07ZM86.118 141.584H93.006V146.988H86.118V141.584Z" fill="#8F95B2"/>
<circle cx="132" cy="146" r="6" fill="#A0D7E7"/>
<path d="M146.056 152L149.528 141.738H150.97L154.456 152H153.084L151.292 146.26C151.105 145.672 150.928 145.098 150.76 144.538C150.592 143.969 150.424 143.385 150.256 142.788H150.2C150.041 143.385 149.873 143.969 149.696 144.538C149.528 145.098 149.355 145.672 149.178 146.26L147.358 152H146.056ZM147.862 148.864V147.842H152.594V148.864H147.862ZM158.746 141.836V144.496H164.332V141.836H158.746ZM157.724 140.842H165.41V145.504H157.724V140.842ZM155.68 147.002H160.664V152.994H159.614V147.996H156.688V153.12H155.68V147.002ZM162.204 147.002H167.468V153.036H166.404V147.996H163.212V153.12H162.204V147.002ZM156.142 151.342H160.048V152.364H156.142V151.342ZM162.708 151.342H166.866V152.364H162.708V151.342ZM174.034 149.284H181.916V150.194H174.034V149.284ZM178.738 147.324H179.732V153.106H178.738V147.324ZM177.38 140.198L178.556 140.422C178.388 140.739 178.206 141.061 178.01 141.388C177.823 141.715 177.655 141.99 177.506 142.214L176.652 141.99C176.782 141.729 176.913 141.43 177.044 141.094C177.184 140.758 177.296 140.459 177.38 140.198ZM177.618 142.116H178.528V144.384C178.528 144.804 178.486 145.233 178.402 145.672C178.327 146.111 178.173 146.54 177.94 146.96C177.716 147.38 177.384 147.781 176.946 148.164C176.516 148.537 175.952 148.878 175.252 149.186C175.196 149.121 175.126 149.051 175.042 148.976C174.958 148.901 174.869 148.831 174.776 148.766C174.692 148.691 174.617 148.631 174.552 148.584C175.214 148.304 175.746 147.991 176.148 147.646C176.558 147.301 176.866 146.946 177.072 146.582C177.286 146.209 177.431 145.835 177.506 145.462C177.58 145.089 177.618 144.725 177.618 144.37V142.116ZM170.38 144.09H174.3V145H170.38V144.09ZM172.214 140.254H173.152V144.65H172.214V140.254ZM170.436 147.058H173.586V153.106H172.634V147.968H170.436V147.058ZM169.932 140.52H170.856V145.896C170.856 146.456 170.842 147.049 170.814 147.674C170.795 148.29 170.753 148.92 170.688 149.564C170.622 150.199 170.524 150.824 170.394 151.44C170.272 152.047 170.109 152.616 169.904 153.148C169.838 153.101 169.75 153.055 169.638 153.008C169.535 152.971 169.428 152.933 169.316 152.896C169.204 152.859 169.101 152.826 169.008 152.798C169.213 152.294 169.376 151.748 169.498 151.16C169.619 150.572 169.712 149.97 169.778 149.354C169.843 148.738 169.885 148.136 169.904 147.548C169.922 146.951 169.932 146.4 169.932 145.896V140.52ZM175.588 144.678V146.162H180.558V144.678H175.588ZM175.588 142.41V143.88H180.558V142.41H175.588ZM174.636 141.584H181.524V146.988H174.636V141.584Z" fill="#8F95B2"/>
<circle cx="226" cy="146" r="6" fill="#FFB7F5"/>
<path d="M241.414 152V141.738H244.452C245.152 141.738 245.763 141.822 246.286 141.99C246.818 142.158 247.233 142.424 247.532 142.788C247.831 143.152 247.98 143.637 247.98 144.244C247.98 144.58 247.919 144.902 247.798 145.21C247.686 145.509 247.518 145.77 247.294 145.994C247.07 146.209 246.799 146.367 246.482 146.47V146.54C247.089 146.652 247.588 146.913 247.98 147.324C248.372 147.735 248.568 148.29 248.568 148.99C248.568 149.662 248.4 150.222 248.064 150.67C247.737 151.109 247.28 151.44 246.692 151.664C246.113 151.888 245.441 152 244.676 152H241.414ZM242.702 146.092H244.228C245.115 146.092 245.749 145.943 246.132 145.644C246.515 145.345 246.706 144.935 246.706 144.412C246.706 143.805 246.501 143.381 246.09 143.138C245.689 142.886 245.087 142.76 244.284 142.76H242.702V146.092ZM242.702 150.964H244.494C245.371 150.964 246.057 150.801 246.552 150.474C247.047 150.147 247.294 149.639 247.294 148.948C247.294 148.304 247.051 147.837 246.566 147.548C246.081 147.249 245.39 147.1 244.494 147.1H242.702V150.964ZM253.429 141.836V144.496H259.015V141.836H253.429ZM252.407 140.842H260.093V145.504H252.407V140.842ZM250.363 147.002H255.347V152.994H254.297V147.996H251.371V153.12H250.363V147.002ZM256.887 147.002H262.151V153.036H261.087V147.996H257.895V153.12H256.887V147.002ZM250.825 151.342H254.731V152.364H250.825V151.342ZM257.391 151.342H261.549V152.364H257.391V151.342ZM268.717 149.284H276.599V150.194H268.717V149.284ZM273.421 147.324H274.415V153.106H273.421V147.324ZM272.063 140.198L273.239 140.422C273.071 140.739 272.889 141.061 272.693 141.388C272.507 141.715 272.339 141.99 272.189 142.214L271.335 141.99C271.466 141.729 271.597 141.43 271.727 141.094C271.867 140.758 271.979 140.459 272.063 140.198ZM272.301 142.116H273.211V144.384C273.211 144.804 273.169 145.233 273.085 145.672C273.011 146.111 272.857 146.54 272.623 146.96C272.399 147.38 272.068 147.781 271.629 148.164C271.2 148.537 270.635 148.878 269.935 149.186C269.879 149.121 269.809 149.051 269.725 148.976C269.641 148.901 269.553 148.831 269.459 148.766C269.375 148.691 269.301 148.631 269.235 148.584C269.898 148.304 270.43 147.991 270.831 147.646C271.242 147.301 271.55 146.946 271.755 146.582C271.97 146.209 272.115 145.835 272.189 145.462C272.264 145.089 272.301 144.725 272.301 144.37V142.116ZM265.063 144.09H268.983V145H265.063V144.09ZM266.897 140.254H267.835V144.65H266.897V140.254ZM265.119 147.058H268.269V153.106H267.317V147.968H265.119V147.058ZM264.615 140.52H265.539V145.896C265.539 146.456 265.525 147.049 265.497 147.674C265.479 148.29 265.437 148.92 265.371 149.564C265.306 150.199 265.208 150.824 265.077 151.44C264.956 152.047 264.793 152.616 264.587 153.148C264.522 153.101 264.433 153.055 264.321 153.008C264.219 152.971 264.111 152.933 263.999 152.896C263.887 152.859 263.785 152.826 263.691 152.798C263.897 152.294 264.06 151.748 264.181 151.16C264.303 150.572 264.396 149.97 264.461 149.354C264.527 148.738 264.569 148.136 264.587 147.548C264.606 146.951 264.615 146.4 264.615 145.896V140.52ZM270.271 144.678V146.162H275.241V144.678H270.271ZM270.271 142.41V143.88H275.241V142.41H270.271ZM269.319 141.584H276.207V146.988H269.319V141.584Z" fill="#8F95B2"/>
<circle cx="320" cy="146" r="6" fill="#6C5DD3"/>
<path d="M339.278 152.182C338.643 152.182 338.051 152.065 337.5 151.832C336.959 151.589 336.487 151.239 336.086 150.782C335.685 150.325 335.372 149.769 335.148 149.116C334.924 148.453 334.812 147.707 334.812 146.876C334.812 146.045 334.924 145.303 335.148 144.65C335.381 143.987 335.703 143.427 336.114 142.97C336.525 142.513 337.005 142.163 337.556 141.92C338.107 141.677 338.709 141.556 339.362 141.556C339.987 141.556 340.538 141.687 341.014 141.948C341.49 142.2 341.877 142.489 342.176 142.816L341.476 143.656C341.205 143.367 340.897 143.133 340.552 142.956C340.207 142.779 339.815 142.69 339.376 142.69C338.732 142.69 338.167 142.858 337.682 143.194C337.197 143.53 336.819 144.011 336.548 144.636C336.277 145.252 336.142 145.985 336.142 146.834C336.142 147.702 336.273 148.453 336.534 149.088C336.795 149.713 337.164 150.199 337.64 150.544C338.116 150.88 338.681 151.048 339.334 151.048C339.819 151.048 340.253 150.945 340.636 150.74C341.028 150.535 341.387 150.25 341.714 149.886L342.428 150.712C342.027 151.179 341.569 151.543 341.056 151.804C340.543 152.056 339.95 152.182 339.278 152.182ZM347.156 141.836V144.496H352.742V141.836H347.156ZM346.134 140.842H353.82V145.504H346.134V140.842ZM344.09 147.002H349.074V152.994H348.024V147.996H345.098V153.12H344.09V147.002ZM350.614 147.002H355.878V153.036H354.814V147.996H351.622V153.12H350.614V147.002ZM344.552 151.342H348.458V152.364H344.552V151.342ZM351.118 151.342H355.276V152.364H351.118V151.342ZM362.444 149.284H370.326V150.194H362.444V149.284ZM367.148 147.324H368.142V153.106H367.148V147.324ZM365.79 140.198L366.966 140.422C366.798 140.739 366.616 141.061 366.42 141.388C366.233 141.715 366.065 141.99 365.916 142.214L365.062 141.99C365.192 141.729 365.323 141.43 365.454 141.094C365.594 140.758 365.706 140.459 365.79 140.198ZM366.028 142.116H366.938V144.384C366.938 144.804 366.896 145.233 366.812 145.672C366.737 146.111 366.583 146.54 366.35 146.96C366.126 147.38 365.794 147.781 365.356 148.164C364.926 148.537 364.362 148.878 363.662 149.186C363.606 149.121 363.536 149.051 363.452 148.976C363.368 148.901 363.279 148.831 363.186 148.766C363.102 148.691 363.027 148.631 362.962 148.584C363.624 148.304 364.156 147.991 364.558 147.646C364.968 147.301 365.276 146.946 365.482 146.582C365.696 146.209 365.841 145.835 365.916 145.462C365.99 145.089 366.028 144.725 366.028 144.37V142.116ZM358.79 144.09H362.71V145H358.79V144.09ZM360.624 140.254H361.562V144.65H360.624V140.254ZM358.846 147.058H361.996V153.106H361.044V147.968H358.846V147.058ZM358.342 140.52H359.266V145.896C359.266 146.456 359.252 147.049 359.224 147.674C359.205 148.29 359.163 148.92 359.098 149.564C359.032 150.199 358.934 150.824 358.804 151.44C358.682 152.047 358.519 152.616 358.314 153.148C358.248 153.101 358.16 153.055 358.048 153.008C357.945 152.971 357.838 152.933 357.726 152.896C357.614 152.859 357.511 152.826 357.418 152.798C357.623 152.294 357.786 151.748 357.908 151.16C358.029 150.572 358.122 149.97 358.188 149.354C358.253 148.738 358.295 148.136 358.314 147.548C358.332 146.951 358.342 146.4 358.342 145.896V140.52ZM363.998 144.678V146.162H368.968V144.678H363.998ZM363.998 142.41V143.88H368.968V142.41H363.998ZM363.046 141.584H369.934V146.988H363.046V141.584Z" fill="#8F95B2"/>
<line x1="131.5" y1="187" x2="131.5" y2="327" stroke="#E6E8F0"/>
<line x1="195.5" y1="187" x2="195.5" y2="327" stroke="#E6E8F0"/>
<line x1="259.5" y1="187" x2="259.5" y2="327" stroke="#E6E8F0"/>
<line x1="323.5" y1="187" x2="323.5" y2="327" stroke="#E6E8F0"/>
<line x1="387.5" y1="187" x2="387.5" y2="327" stroke="#E6E8F0"/>
<line x1="451.5" y1="187" x2="451.5" y2="327" stroke="#E6E8F0"/>
<line x1="515.5" y1="187" x2="515.5" y2="327" stroke="#E6E8F0"/>
<rect opacity="0.5" x="132" y="186" width="234" height="8" rx="4" fill="#E4E4E4"/>
<rect x="132" y="186" width="373" height="8" rx="4" fill="#6C5DD3"/>
<rect x="132" y="186" width="294" height="8" rx="4" fill="#FFB7F5"/>
<rect x="132" y="186" width="215" height="8" rx="4" fill="#A0D7E7"/>
<rect x="132" y="186" width="143" height="8" rx="4" fill="#3F8CFF"/>
<path d="M54.492 184.282L55.402 184.548C55.234 185.052 55.024 185.551 54.772 186.046C54.5293 186.531 54.2633 186.993 53.974 187.432C53.6847 187.861 53.3767 188.244 53.05 188.58C53.022 188.505 52.9753 188.407 52.91 188.286C52.854 188.165 52.7887 188.043 52.714 187.922C52.6487 187.801 52.5833 187.707 52.518 187.642C52.938 187.222 53.3207 186.718 53.666 186.13C54.0113 185.542 54.2867 184.926 54.492 184.282ZM54.156 185.92H57.74V186.914H53.96L54.156 185.92ZM54.716 196.938L54.576 196L54.94 195.58L57.46 194.264C57.4787 194.404 57.5067 194.563 57.544 194.74C57.5813 194.908 57.6187 195.048 57.656 195.16C57.068 195.496 56.592 195.767 56.228 195.972C55.864 196.168 55.5793 196.327 55.374 196.448C55.178 196.579 55.0333 196.677 54.94 196.742C54.8467 196.817 54.772 196.882 54.716 196.938ZM53.484 188.342H57.502V189.294H53.484V188.342ZM52.868 191.184H57.81V192.15H52.868V191.184ZM54.716 196.938C54.688 196.854 54.6413 196.756 54.576 196.644C54.52 196.541 54.4593 196.434 54.394 196.322C54.338 196.21 54.2773 196.121 54.212 196.056C54.3333 195.981 54.4733 195.851 54.632 195.664C54.8 195.468 54.884 195.221 54.884 194.922V188.608H55.85V195.818C55.85 195.818 55.7893 195.86 55.668 195.944C55.556 196.019 55.4253 196.117 55.276 196.238C55.1267 196.359 54.996 196.481 54.884 196.602C54.772 196.733 54.716 196.845 54.716 196.938ZM58.944 190.722H64.446V191.632H58.944V190.722ZM58.944 193.158H64.46V194.054H58.944V193.158ZM58.328 188.244H64.418V189.224H59.28V197.12H58.328V188.244ZM63.97 188.23H64.936V195.804C64.936 196.075 64.8987 196.289 64.824 196.448C64.7493 196.607 64.614 196.728 64.418 196.812C64.222 196.896 63.956 196.947 63.62 196.966C63.2933 196.985 62.8593 196.994 62.318 196.994C62.2993 196.863 62.2573 196.705 62.192 196.518C62.136 196.331 62.0707 196.173 61.996 196.042C62.388 196.051 62.7427 196.056 63.06 196.056C63.3867 196.056 63.6013 196.051 63.704 196.042C63.7973 196.042 63.8627 196.023 63.9 195.986C63.9467 195.949 63.97 195.883 63.97 195.79V188.23ZM61.184 184.226H62.164V188.902H61.184V184.226ZM58.132 185.122L58.958 184.73C59.1447 184.991 59.3267 185.276 59.504 185.584C59.6907 185.883 59.8587 186.181 60.008 186.48C60.1573 186.769 60.2693 187.031 60.344 187.264L59.462 187.712C59.3967 187.479 59.2893 187.213 59.14 186.914C59 186.615 58.8413 186.312 58.664 186.004C58.496 185.687 58.3187 185.393 58.132 185.122ZM64.418 184.632L65.342 185.038C65.0993 185.495 64.838 185.967 64.558 186.452C64.278 186.928 64.012 187.334 63.76 187.67L62.962 187.292C63.1207 187.059 63.2887 186.788 63.466 186.48C63.6527 186.172 63.83 185.855 63.998 185.528C64.166 185.201 64.306 184.903 64.418 184.632ZM72.524 184.506L73.476 184.226C73.6627 184.506 73.8447 184.823 74.022 185.178C74.1993 185.523 74.3253 185.822 74.4 186.074L73.392 186.41C73.3173 186.158 73.196 185.855 73.028 185.5C72.8693 185.136 72.7013 184.805 72.524 184.506ZM69.01 195.608H77.032V196.476H69.01V195.608ZM69.024 187.53H77.634V188.286H69.024V187.53ZM69.024 189.252H77.676V189.994H69.024V189.252ZM68.436 192.878H77.802V197.148H76.724V193.76H69.472V197.148H68.436V192.878ZM69.5 184.212L70.48 184.52C70.2187 185.099 69.9107 185.673 69.556 186.242C69.2013 186.802 68.8187 187.329 68.408 187.824C68.0067 188.319 67.6007 188.753 67.19 189.126C67.1433 189.07 67.0733 188.991 66.98 188.888C66.896 188.785 66.8027 188.683 66.7 188.58C66.6067 188.477 66.5227 188.398 66.448 188.342C66.8493 188.006 67.2413 187.619 67.624 187.18C68.0067 186.741 68.3567 186.27 68.674 185.766C69.0007 185.253 69.276 184.735 69.5 184.212ZM73.084 186.172H74.106V191.52H73.084V186.172ZM69.486 185.78H78.306V186.578H69.486V192.43H68.45V186.62L69.29 185.78H69.486ZM68.968 191.044H78.628V191.87H68.968V191.044ZM87.21 185.08H93.342V186.004H87.21V185.08ZM89.898 185.612L90.808 185.836C90.6773 186.2 90.542 186.569 90.402 186.942C90.262 187.315 90.1267 187.637 89.996 187.908L89.184 187.684C89.268 187.497 89.352 187.283 89.436 187.04C89.5293 186.788 89.618 186.536 89.702 186.284C89.786 186.032 89.8513 185.808 89.898 185.612ZM87.434 187.46H92.824V194.04H91.9V188.314H88.33V194.068H87.434V187.46ZM89.702 189.098H90.626C90.6073 190.255 90.556 191.273 90.472 192.15C90.3973 193.027 90.2387 193.788 89.996 194.432C89.7533 195.067 89.3893 195.608 88.904 196.056C88.428 196.504 87.7747 196.877 86.944 197.176C86.8973 197.064 86.818 196.933 86.706 196.784C86.6033 196.635 86.5053 196.518 86.412 196.434C87.168 196.163 87.7653 195.832 88.204 195.44C88.6427 195.048 88.9647 194.567 89.17 193.998C89.3847 193.419 89.5247 192.729 89.59 191.926C89.6553 191.123 89.6927 190.181 89.702 189.098ZM90.332 194.824L90.892 194.18C91.2 194.395 91.5267 194.633 91.872 194.894C92.2173 195.155 92.544 195.412 92.852 195.664C93.16 195.916 93.412 196.14 93.608 196.336L93.02 197.078C92.824 196.873 92.572 196.635 92.264 196.364C91.9653 196.103 91.6433 195.837 91.298 195.566C90.962 195.295 90.64 195.048 90.332 194.824ZM80.854 185.584H86.958V187.698H86.006V186.452H81.778V187.698H80.854V185.584ZM81.764 192.738H86.146V196.994H85.166V193.592H82.716V197.022H81.764V192.738ZM82.128 195.706H85.6V196.56H82.128V195.706ZM82.982 186.914L83.934 187.082C83.654 187.67 83.2947 188.258 82.856 188.846C82.4173 189.434 81.8573 189.966 81.176 190.442C81.1387 190.377 81.0827 190.302 81.008 190.218C80.9333 190.125 80.8587 190.041 80.784 189.966C80.7093 189.882 80.6347 189.821 80.56 189.784C81.1667 189.383 81.6707 188.921 82.072 188.398C82.4827 187.875 82.786 187.381 82.982 186.914ZM83.108 187.894H85.642V188.72H82.702L83.108 187.894ZM85.446 187.894H85.656L85.852 187.852L86.426 188.23C86.0807 188.995 85.6187 189.681 85.04 190.288C84.4707 190.895 83.836 191.422 83.136 191.87C82.436 192.318 81.7173 192.682 80.98 192.962C80.952 192.869 80.91 192.761 80.854 192.64C80.8073 192.519 80.756 192.402 80.7 192.29C80.6533 192.178 80.602 192.089 80.546 192.024C81.2367 191.791 81.904 191.487 82.548 191.114C83.192 190.731 83.766 190.283 84.27 189.77C84.7833 189.257 85.1753 188.692 85.446 188.076V187.894ZM82.996 184.506L83.948 184.282C84.0973 184.534 84.2513 184.809 84.41 185.108C84.578 185.407 84.7087 185.663 84.802 185.878L83.794 186.158C83.7193 185.943 83.6027 185.682 83.444 185.374C83.2947 185.057 83.1453 184.767 82.996 184.506ZM82.086 190.176L82.758 189.546C83.1033 189.714 83.472 189.901 83.864 190.106C84.256 190.311 84.6433 190.521 85.026 190.736C85.418 190.941 85.7867 191.147 86.132 191.352C86.4773 191.548 86.7713 191.73 87.014 191.898L86.3 192.626C86.0667 192.467 85.782 192.285 85.446 192.08C85.1193 191.865 84.76 191.651 84.368 191.436C83.9853 191.212 83.5933 190.993 83.192 190.778C82.8 190.554 82.4313 190.353 82.086 190.176Z" fill="#8F95B2"/>
<rect opacity="0.5" x="132" y="230" width="234" height="8" rx="4" fill="#E4E4E4"/>
<rect x="132" y="230" width="318" height="8" rx="4" fill="#6C5DD3"/>
<rect x="132" y="230" width="264" height="8" rx="4" fill="#FFB7F5"/>
<rect x="132" y="230" width="187" height="8" rx="4" fill="#A0D7E7"/>
<rect x="132" y="230" width="108" height="8" rx="4" fill="#3F8CFF"/>
<path d="M53.596 229.192L54.31 228.52C54.562 228.753 54.8233 229.005 55.094 229.276C55.374 229.547 55.6353 229.813 55.878 230.074C56.1207 230.335 56.3167 230.573 56.466 230.788L55.724 231.53C55.584 231.325 55.3927 231.087 55.15 230.816C54.9073 230.536 54.6507 230.256 54.38 229.976C54.1093 229.687 53.848 229.425 53.596 229.192ZM52.7 232.636H55.836V233.644H52.7V232.636ZM57.544 229.416H65.44V230.466H57.544V229.416ZM61.842 229.78H62.948V239.58C62.948 239.935 62.8967 240.205 62.794 240.392C62.7007 240.588 62.5233 240.737 62.262 240.84C62.01 240.924 61.66 240.98 61.212 241.008C60.7733 241.036 60.2227 241.05 59.56 241.05C59.5413 240.938 59.504 240.812 59.448 240.672C59.4013 240.541 59.35 240.406 59.294 240.266C59.238 240.126 59.1773 240.005 59.112 239.902C59.4667 239.921 59.8027 239.93 60.12 239.93C60.4467 239.93 60.7267 239.93 60.96 239.93C61.2027 239.93 61.3753 239.93 61.478 239.93C61.6087 239.921 61.702 239.893 61.758 239.846C61.814 239.79 61.842 239.697 61.842 239.566V229.78ZM54.87 240.77L54.688 239.748L55.01 239.286L58.146 237.214C58.1647 237.317 58.188 237.429 58.216 237.55C58.2533 237.662 58.2907 237.774 58.328 237.886C58.3747 237.989 58.4167 238.077 58.454 238.152C57.7167 238.665 57.124 239.081 56.676 239.398C56.228 239.706 55.8827 239.944 55.64 240.112C55.3973 240.289 55.22 240.425 55.108 240.518C55.0053 240.621 54.926 240.705 54.87 240.77ZM54.87 240.77C54.842 240.686 54.7953 240.588 54.73 240.476C54.674 240.364 54.6087 240.252 54.534 240.14C54.4687 240.037 54.4033 239.949 54.338 239.874C54.4687 239.79 54.6227 239.645 54.8 239.44C54.9867 239.225 55.08 238.964 55.08 238.656V232.636H56.102V239.566C56.102 239.566 56.06 239.594 55.976 239.65C55.892 239.706 55.7893 239.781 55.668 239.874C55.5467 239.967 55.4253 240.065 55.304 240.168C55.1827 240.28 55.08 240.387 54.996 240.49C54.912 240.593 54.87 240.686 54.87 240.77ZM70.844 233.77V235.436H75.058V233.77H70.844ZM69.892 232.916H76.038V236.304H69.892V232.916ZM71.502 236.01H72.44C72.3747 236.663 72.2487 237.256 72.062 237.788C71.8847 238.311 71.6 238.773 71.208 239.174C70.8253 239.566 70.2933 239.902 69.612 240.182C69.5747 240.098 69.5233 240.009 69.458 239.916C69.3927 239.813 69.3227 239.715 69.248 239.622C69.1733 239.519 69.0987 239.445 69.024 239.398C69.6307 239.183 70.102 238.917 70.438 238.6C70.7833 238.273 71.0307 237.895 71.18 237.466C71.3387 237.027 71.446 236.542 71.502 236.01ZM74.624 230.634L75.646 230.886C75.4033 231.315 75.1467 231.749 74.876 232.188C74.6147 232.617 74.3673 232.991 74.134 233.308L73.238 233.042C73.406 232.827 73.574 232.58 73.742 232.3C73.9193 232.011 74.0827 231.721 74.232 231.432C74.3907 231.133 74.5213 230.867 74.624 230.634ZM70.424 231.054L71.25 230.662C71.4927 230.951 71.7213 231.269 71.936 231.614C72.16 231.959 72.3187 232.267 72.412 232.538L71.558 232.958C71.4647 232.697 71.3107 232.389 71.096 232.034C70.8907 231.67 70.6667 231.343 70.424 231.054ZM77.718 229.024H78.726V239.818C78.726 240.098 78.6887 240.317 78.614 240.476C78.5487 240.635 78.4273 240.761 78.25 240.854C78.0633 240.938 77.816 240.989 77.508 241.008C77.2093 241.027 76.836 241.036 76.388 241.036C76.3693 240.896 76.3273 240.728 76.262 240.532C76.206 240.345 76.1407 240.187 76.066 240.056C76.374 240.065 76.6587 240.07 76.92 240.07C77.1907 240.079 77.3727 240.079 77.466 240.07C77.5687 240.061 77.634 240.037 77.662 240C77.6993 239.972 77.718 239.911 77.718 239.818V229.024ZM67.274 231.39H68.296V241.12H67.274V231.39ZM67.484 228.926L68.282 228.408C68.4873 228.595 68.6973 228.8 68.912 229.024C69.1267 229.248 69.3273 229.472 69.514 229.696C69.7007 229.911 69.85 230.107 69.962 230.284L69.108 230.872C69.0053 230.685 68.8653 230.48 68.688 230.256C68.5107 230.032 68.3147 229.803 68.1 229.57C67.8947 229.327 67.6893 229.113 67.484 228.926ZM70.928 229.024H78.306V229.962H70.928V229.024ZM73.448 235.996H74.386V238.628C74.386 238.768 74.4047 238.861 74.442 238.908C74.4887 238.945 74.5913 238.964 74.75 238.964C74.7967 238.964 74.89 238.964 75.03 238.964C75.17 238.964 75.3147 238.964 75.464 238.964C75.6227 238.964 75.73 238.964 75.786 238.964C75.8793 238.964 75.9493 238.936 75.996 238.88C76.052 238.824 76.0893 238.712 76.108 238.544C76.136 238.376 76.1547 238.11 76.164 237.746C76.2573 237.821 76.3833 237.891 76.542 237.956C76.7007 238.021 76.8453 238.073 76.976 238.11C76.948 238.558 76.8967 238.908 76.822 239.16C76.7473 239.403 76.6353 239.571 76.486 239.664C76.346 239.757 76.15 239.804 75.898 239.804C75.8513 239.804 75.7673 239.804 75.646 239.804C75.534 239.804 75.4033 239.804 75.254 239.804C75.114 239.804 74.9833 239.804 74.862 239.804C74.75 239.804 74.6707 239.804 74.624 239.804C74.316 239.804 74.0733 239.771 73.896 239.706C73.728 239.631 73.6113 239.51 73.546 239.342C73.4807 239.165 73.448 238.927 73.448 238.628V235.996ZM83.5 230.69V231.46H90.458V230.69H83.5ZM83.5 229.318V230.074H90.458V229.318H83.5ZM82.478 228.688H91.508V232.09H82.478V228.688ZM83.22 236.178V236.99H90.878V236.178H83.22ZM83.22 234.778V235.562H90.878V234.778H83.22ZM82.226 234.12H91.914V237.634H82.226V234.12ZM86.468 234.358H87.49V240.378H86.468V234.358ZM80.728 232.692H93.286V233.49H80.728V232.692ZM81.834 238.404H92.222V239.146H81.834V238.404ZM80.658 239.958H93.37V240.77H80.658V239.958Z" fill="#8F95B2"/>
<rect opacity="0.5" x="132" y="274" width="234" height="8" rx="4" fill="#E4E4E4"/>
<rect x="132" y="274" width="355" height="8" rx="4" fill="#6C5DD3"/>
<rect x="132" y="274" width="298" height="8" rx="4" fill="#FFB7F5"/>
<rect x="132" y="274" width="250" height="8" rx="4" fill="#A0D7E7"/>
<rect x="132" y="274" width="182" height="8" rx="4" fill="#3F8CFF"/>
<path d="M53.582 273.206H56.354V282.362H53.582V281.41H55.486V274.158H53.582V273.206ZM53.554 277.266H55.948V278.204H53.554V277.266ZM53.036 273.206H53.904V283.496H53.036V273.206ZM58.51 274.928V275.754H63.466V274.928H58.51ZM58.51 273.416V274.256H63.466V273.416H58.51ZM57.544 272.716H64.474V276.482H57.544V272.716ZM56.802 279.114H65.342V279.898H56.802V279.114ZM57.236 277.336H64.922V278.106H57.236V277.336ZM63.004 279.478C63.1907 279.73 63.4193 279.982 63.69 280.234C63.97 280.486 64.2687 280.719 64.586 280.934C64.9033 281.139 65.2067 281.307 65.496 281.438C65.412 281.513 65.3093 281.615 65.188 281.746C65.076 281.867 64.9827 281.979 64.908 282.082C64.6093 281.923 64.2967 281.718 63.97 281.466C63.6527 281.205 63.3493 280.929 63.06 280.64C62.78 280.341 62.542 280.047 62.346 279.758L63.004 279.478ZM56.62 283.846C57.1333 283.659 57.7587 283.426 58.496 283.146C59.2427 282.857 59.9987 282.563 60.764 282.264L60.918 282.964C60.2367 283.263 59.5507 283.557 58.86 283.846C58.1787 284.135 57.5533 284.392 56.984 284.616L56.62 283.846ZM58.93 276.342H59.84V279.45H58.93V276.342ZM62.304 276.342H63.228V279.45H62.304V276.342ZM60.526 280.29H61.45V284.168C61.45 284.401 61.4173 284.579 61.352 284.7C61.296 284.831 61.184 284.929 61.016 284.994C60.8387 285.059 60.6053 285.097 60.316 285.106C60.036 285.115 59.6813 285.12 59.252 285.12C59.2333 285.008 59.196 284.877 59.14 284.728C59.084 284.588 59.0233 284.462 58.958 284.35C59.2753 284.359 59.5553 284.364 59.798 284.364C60.05 284.364 60.218 284.359 60.302 284.35C60.3953 284.341 60.456 284.322 60.484 284.294C60.512 284.275 60.526 284.229 60.526 284.154V280.29ZM59.14 279.478L59.854 279.772C59.6393 280.061 59.3687 280.351 59.042 280.64C58.7153 280.929 58.37 281.195 58.006 281.438C57.642 281.681 57.2827 281.877 56.928 282.026C56.8627 281.923 56.774 281.811 56.662 281.69C56.55 281.559 56.4473 281.457 56.354 281.382C56.6993 281.251 57.0447 281.088 57.39 280.892C57.7447 280.696 58.076 280.477 58.384 280.234C58.692 279.982 58.944 279.73 59.14 279.478ZM60.75 282.95L61.254 282.32C61.6647 282.46 62.094 282.628 62.542 282.824C62.99 283.011 63.4193 283.202 63.83 283.398C64.2407 283.594 64.5813 283.776 64.852 283.944L64.348 284.616C64.068 284.439 63.7227 284.247 63.312 284.042C62.9107 283.846 62.486 283.65 62.038 283.454C61.59 283.249 61.1607 283.081 60.75 282.95ZM58.286 281.606L58.902 281.186C59.1073 281.326 59.308 281.503 59.504 281.718C59.7 281.923 59.8493 282.105 59.952 282.264L59.294 282.74C59.2007 282.572 59.056 282.381 58.86 282.166C58.6733 281.951 58.482 281.765 58.286 281.606ZM63.06 281.158L63.76 281.578C63.508 281.839 63.2467 282.096 62.976 282.348C62.7053 282.591 62.4533 282.801 62.22 282.978L61.66 282.614C61.8093 282.483 61.968 282.334 62.136 282.166C62.3133 281.989 62.4813 281.811 62.64 281.634C62.808 281.457 62.948 281.298 63.06 281.158ZM74.218 278.33H75.268V283.552C75.268 283.776 75.3053 283.925 75.38 284C75.464 284.065 75.646 284.098 75.926 284.098C75.9913 284.098 76.1033 284.098 76.262 284.098C76.43 284.098 76.612 284.098 76.808 284.098C77.0133 284.098 77.2 284.098 77.368 284.098C77.5453 284.098 77.676 284.098 77.76 284.098C77.9467 284.098 78.0867 284.042 78.18 283.93C78.2733 283.818 78.3387 283.594 78.376 283.258C78.4133 282.922 78.4413 282.418 78.46 281.746C78.5347 281.811 78.628 281.872 78.74 281.928C78.8613 281.984 78.9827 282.035 79.104 282.082C79.2347 282.129 79.3467 282.166 79.44 282.194C79.3933 282.95 79.3233 283.543 79.23 283.972C79.1367 284.392 78.978 284.681 78.754 284.84C78.5393 285.008 78.236 285.092 77.844 285.092C77.7787 285.092 77.648 285.092 77.452 285.092C77.256 285.092 77.0413 285.092 76.808 285.092C76.584 285.092 76.3787 285.092 76.192 285.092C76.0053 285.092 75.8793 285.092 75.814 285.092C75.394 285.092 75.0673 285.045 74.834 284.952C74.6007 284.868 74.4373 284.714 74.344 284.49C74.26 284.266 74.218 283.953 74.218 283.552V278.33ZM70.522 278.4H71.628C71.572 279.193 71.4693 279.935 71.32 280.626C71.18 281.317 70.9513 281.947 70.634 282.516C70.326 283.076 69.8873 283.575 69.318 284.014C68.758 284.453 68.03 284.821 67.134 285.12C67.0967 285.027 67.0407 284.924 66.966 284.812C66.8913 284.7 66.812 284.588 66.728 284.476C66.644 284.373 66.56 284.289 66.476 284.224C67.316 283.972 67.988 283.655 68.492 283.272C69.0053 282.889 69.3973 282.455 69.668 281.97C69.948 281.475 70.144 280.929 70.256 280.332C70.3773 279.735 70.466 279.091 70.522 278.4ZM67.932 273.276L68.884 272.926C69.1173 273.281 69.3507 273.668 69.584 274.088C69.8173 274.499 70.0227 274.905 70.2 275.306C70.3867 275.707 70.522 276.067 70.606 276.384L69.584 276.776C69.5093 276.468 69.3833 276.113 69.206 275.712C69.038 275.301 68.842 274.886 68.618 274.466C68.4033 274.037 68.1747 273.64 67.932 273.276ZM77.13 272.772L78.222 273.164C78.026 273.565 77.816 273.985 77.592 274.424C77.368 274.863 77.1393 275.283 76.906 275.684C76.682 276.085 76.4673 276.435 76.262 276.734L75.366 276.384C75.5713 276.067 75.7813 275.698 75.996 275.278C76.22 274.858 76.43 274.429 76.626 273.99C76.8313 273.542 76.9993 273.136 77.13 272.772ZM66.77 277.588H79.272V278.582H66.77V277.588ZM72.426 272.24H73.49V277.994H72.426V272.24ZM83.5 274.69V275.46H90.458V274.69H83.5ZM83.5 273.318V274.074H90.458V273.318H83.5ZM82.478 272.688H91.508V276.09H82.478V272.688ZM83.22 280.178V280.99H90.878V280.178H83.22ZM83.22 278.778V279.562H90.878V278.778H83.22ZM82.226 278.12H91.914V281.634H82.226V278.12ZM86.468 278.358H87.49V284.378H86.468V278.358ZM80.728 276.692H93.286V277.49H80.728V276.692ZM81.834 282.404H92.222V283.146H81.834V282.404ZM80.658 283.958H93.37V284.77H80.658V283.958Z" fill="#8F95B2"/>
<rect opacity="0.5" x="132" y="318" width="234" height="8" rx="4" fill="#E4E4E4"/>
<rect x="132" y="318" width="367" height="8" rx="4" fill="#6C5DD3"/>
<rect x="132" y="318" width="335" height="8" rx="4" fill="#FFB7F5"/>
<rect x="132" y="318" width="234" height="8" rx="4" fill="#A0D7E7"/>
<rect x="132" y="318" width="209" height="8" rx="4" fill="#3F8CFF"/>
<path d="M56.956 319.11H57.138L57.32 319.068L57.978 319.236C57.8193 321.019 57.5253 322.554 57.096 323.842C56.6667 325.121 56.1113 326.189 55.43 327.048C54.7487 327.897 53.946 328.583 53.022 329.106C52.9847 329.013 52.924 328.915 52.84 328.812C52.7653 328.709 52.686 328.607 52.602 328.504C52.518 328.411 52.4387 328.331 52.364 328.266C53.204 327.846 53.9413 327.239 54.576 326.446C55.22 325.643 55.7427 324.654 56.144 323.478C56.5453 322.293 56.816 320.911 56.956 319.334V319.11ZM58.636 317.276H64.152V318.242H58.636V317.276ZM58.006 322.19H65.44V323.184H58.006V322.19ZM61.254 320.566H62.332V327.874C62.332 328.173 62.2853 328.406 62.192 328.574C62.108 328.742 61.954 328.868 61.73 328.952C61.5153 329.027 61.2307 329.073 60.876 329.092C60.5213 329.12 60.0687 329.129 59.518 329.12C59.49 328.98 59.4387 328.812 59.364 328.616C59.2893 328.429 59.2147 328.266 59.14 328.126C59.42 328.126 59.6813 328.126 59.924 328.126C60.176 328.135 60.3907 328.14 60.568 328.14C60.7547 328.14 60.8853 328.14 60.96 328.14C61.072 328.131 61.1467 328.103 61.184 328.056C61.2307 328.019 61.254 327.953 61.254 327.86V320.566ZM63.774 317.276H64.04L64.292 317.206L65.02 317.724C64.7587 318.125 64.4553 318.541 64.11 318.97C63.7647 319.39 63.4007 319.791 63.018 320.174C62.6447 320.557 62.2667 320.893 61.884 321.182C61.8187 321.089 61.7207 320.981 61.59 320.86C61.4687 320.739 61.3567 320.641 61.254 320.566C61.5713 320.305 61.8887 319.997 62.206 319.642C62.5233 319.287 62.8173 318.923 63.088 318.55C63.368 318.167 63.5967 317.822 63.774 317.514V317.276ZM52.574 319.11H57.25V320.09H52.574V319.11ZM52.896 323.912L53.54 323.156C53.9693 323.436 54.4033 323.735 54.842 324.052C55.29 324.369 55.724 324.701 56.144 325.046C56.564 325.391 56.942 325.727 57.278 326.054C57.6233 326.381 57.9033 326.689 58.118 326.978L57.404 327.86C57.1893 327.571 56.914 327.258 56.578 326.922C56.242 326.577 55.8687 326.227 55.458 325.872C55.0473 325.517 54.6227 325.172 54.184 324.836C53.7453 324.5 53.316 324.192 52.896 323.912ZM52.896 323.912C53.0547 323.436 53.2133 322.885 53.372 322.26C53.54 321.635 53.694 320.977 53.834 320.286C53.9833 319.586 54.1187 318.891 54.24 318.2C54.3613 317.509 54.4593 316.856 54.534 316.24L55.57 316.31C55.486 316.954 55.3787 317.635 55.248 318.354C55.1173 319.063 54.9727 319.777 54.814 320.496C54.6553 321.205 54.492 321.887 54.324 322.54C54.156 323.184 53.9927 323.763 53.834 324.276L52.896 323.912ZM70.62 323.114H79.454V324.122H70.62V323.114ZM71.012 316.954H78.824V317.948H71.012V316.954ZM74.442 317.192H75.506V329.106H74.442V317.192ZM77.564 318.704L78.6 318.956C78.488 319.357 78.3667 319.773 78.236 320.202C78.1053 320.631 77.9747 321.047 77.844 321.448C77.7133 321.849 77.5873 322.199 77.466 322.498L76.626 322.26C76.738 321.943 76.8547 321.579 76.976 321.168C77.0973 320.748 77.2093 320.323 77.312 319.894C77.424 319.455 77.508 319.059 77.564 318.704ZM71.488 318.956L72.384 318.718C72.524 319.091 72.65 319.488 72.762 319.908C72.8833 320.319 72.986 320.725 73.07 321.126C73.154 321.518 73.21 321.868 73.238 322.176L72.286 322.442C72.258 322.125 72.202 321.765 72.118 321.364C72.0433 320.963 71.95 320.552 71.838 320.132C71.7353 319.712 71.6187 319.32 71.488 318.956ZM67.358 317.332L68.03 316.702C68.282 316.907 68.5433 317.136 68.814 317.388C69.0847 317.64 69.3413 317.887 69.584 318.13C69.8267 318.373 70.018 318.592 70.158 318.788L69.458 319.53C69.318 319.325 69.1267 319.096 68.884 318.844C68.6507 318.592 68.3987 318.335 68.128 318.074C67.8667 317.803 67.61 317.556 67.358 317.332ZM68.408 328.84L68.198 327.874L68.478 327.426L70.9 325.606C70.9373 325.746 70.9933 325.905 71.068 326.082C71.152 326.25 71.2267 326.385 71.292 326.488C70.7133 326.945 70.242 327.314 69.878 327.594C69.5233 327.865 69.2433 328.075 69.038 328.224C68.842 328.383 68.6973 328.504 68.604 328.588C68.52 328.681 68.4547 328.765 68.408 328.84ZM66.602 320.636H69.122V321.644H66.602V320.636ZM68.408 328.84C68.3707 328.756 68.324 328.658 68.268 328.546C68.2213 328.434 68.1607 328.322 68.086 328.21C68.0207 328.098 67.9553 328.009 67.89 327.944C68.0207 327.869 68.1607 327.739 68.31 327.552C68.4687 327.365 68.548 327.123 68.548 326.824V320.622H69.528V327.72C69.528 327.72 69.472 327.762 69.36 327.846C69.248 327.921 69.1173 328.014 68.968 328.126C68.8187 328.247 68.688 328.369 68.576 328.49C68.464 328.621 68.408 328.737 68.408 328.84ZM80.98 323.478H86.356V324.36H80.98V323.478ZM80.7 318.844H87.434V319.712H80.7V318.844ZM86.202 316.506L87.084 316.898C86.888 317.215 86.678 317.537 86.454 317.864C86.23 318.191 86.0247 318.471 85.838 318.704L85.152 318.368C85.2733 318.2 85.3947 318.009 85.516 317.794C85.6467 317.57 85.7727 317.346 85.894 317.122C86.0153 316.889 86.118 316.683 86.202 316.506ZM83.598 316.226H84.578V322.344H83.598V316.226ZM81.232 316.898L82.002 316.59C82.198 316.87 82.38 317.178 82.548 317.514C82.7253 317.85 82.842 318.144 82.898 318.396L82.1 318.746C82.044 318.503 81.932 318.209 81.764 317.864C81.596 317.509 81.4187 317.187 81.232 316.898ZM83.612 319.208L84.326 319.628C84.102 320.011 83.8127 320.398 83.458 320.79C83.1127 321.182 82.7347 321.546 82.324 321.882C81.9227 322.209 81.5213 322.484 81.12 322.708C81.0547 322.587 80.966 322.447 80.854 322.288C80.7513 322.129 80.6487 322.003 80.546 321.91C80.938 321.733 81.33 321.504 81.722 321.224C82.114 320.944 82.478 320.627 82.814 320.272C83.15 319.917 83.416 319.563 83.612 319.208ZM84.424 319.502C84.5547 319.567 84.7413 319.679 84.984 319.838C85.2267 319.987 85.488 320.151 85.768 320.328C86.0573 320.505 86.3187 320.669 86.552 320.818C86.7853 320.967 86.9487 321.079 87.042 321.154L86.454 321.91C86.3327 321.798 86.16 321.653 85.936 321.476C85.7213 321.299 85.4833 321.112 85.222 320.916C84.9607 320.72 84.7133 320.538 84.48 320.37C84.2467 320.193 84.0553 320.057 83.906 319.964L84.424 319.502ZM88.568 318.956H93.272V319.936H88.568V318.956ZM88.806 316.352L89.772 316.506C89.632 317.402 89.4593 318.265 89.254 319.096C89.0487 319.917 88.8013 320.687 88.512 321.406C88.232 322.115 87.9053 322.741 87.532 323.282C87.4853 323.226 87.4107 323.156 87.308 323.072C87.2147 322.988 87.112 322.909 87 322.834C86.8973 322.75 86.8087 322.685 86.734 322.638C87.098 322.143 87.4107 321.565 87.672 320.902C87.9427 320.239 88.1713 319.521 88.358 318.746C88.5447 317.971 88.694 317.173 88.806 316.352ZM91.382 319.516L92.362 319.614C92.1473 321.191 91.83 322.587 91.41 323.8C90.99 325.004 90.416 326.049 89.688 326.936C88.96 327.813 88.0313 328.555 86.902 329.162C86.8647 329.087 86.8133 328.994 86.748 328.882C86.6827 328.779 86.608 328.672 86.524 328.56C86.4493 328.457 86.3793 328.373 86.314 328.308C87.3873 327.785 88.2647 327.123 88.946 326.32C89.6273 325.508 90.1593 324.537 90.542 323.408C90.9247 322.279 91.2047 320.981 91.382 319.516ZM89.058 319.838C89.2727 321.079 89.5713 322.251 89.954 323.352C90.346 324.453 90.8407 325.419 91.438 326.25C92.0353 327.071 92.7587 327.711 93.608 328.168C93.4867 328.261 93.356 328.387 93.216 328.546C93.0853 328.714 92.978 328.863 92.894 328.994C92.0167 328.462 91.27 327.753 90.654 326.866C90.0473 325.979 89.5433 324.953 89.142 323.786C88.75 322.61 88.4327 321.345 88.19 319.992L89.058 319.838ZM81.54 325.858L82.198 325.228C82.6833 325.415 83.192 325.634 83.724 325.886C84.256 326.138 84.76 326.395 85.236 326.656C85.712 326.917 86.1133 327.165 86.44 327.398L85.768 328.084C85.46 327.851 85.068 327.599 84.592 327.328C84.116 327.048 83.612 326.782 83.08 326.53C82.548 326.269 82.0347 326.045 81.54 325.858ZM86.006 323.478H86.188L86.356 323.436L86.93 323.674C86.6407 324.682 86.2067 325.541 85.628 326.25C85.0493 326.95 84.368 327.524 83.584 327.972C82.8093 328.411 81.974 328.756 81.078 329.008C81.022 328.887 80.9473 328.742 80.854 328.574C80.7607 328.415 80.6673 328.289 80.574 328.196C81.4047 328 82.184 327.711 82.912 327.328C83.6493 326.936 84.284 326.437 84.816 325.83C85.3573 325.214 85.754 324.481 86.006 323.632V323.478ZM81.54 325.858C81.7453 325.569 81.9553 325.237 82.17 324.864C82.3847 324.491 82.5853 324.108 82.772 323.716C82.968 323.315 83.1313 322.937 83.262 322.582L84.2 322.75C84.0507 323.133 83.878 323.525 83.682 323.926C83.486 324.327 83.2853 324.71 83.08 325.074C82.8747 325.438 82.6787 325.76 82.492 326.04L81.54 325.858Z" fill="#8F95B2"/>
<path d="M16 342H561V363C561 371.837 553.837 379 545 379H32C23.1634 379 16 371.837 16 363V342Z" fill="#F9FAFC"/>
<path d="M254.522 363.92H259.268V364.634H254.522V363.92ZM254.522 362.156H259.268V362.856H254.522V362.156ZM252.87 361.05V365.74H261.018V361.05H252.87ZM250.728 356.682V358.124H263.272V356.682H250.728ZM256.104 355.114V360.658H257.77V355.114H256.104ZM255.334 357.13C254.326 358.614 252.352 359.986 250.322 360.63C250.672 360.952 251.162 361.568 251.4 361.974C253.542 361.134 255.53 359.538 256.734 357.662L255.334 357.13ZM258.47 357.116L257.112 357.634C258.344 359.496 260.374 361.078 262.53 361.876C262.768 361.456 263.258 360.812 263.622 360.504C261.536 359.888 259.492 358.572 258.47 357.116ZM250.854 366.384V367.868H263.16V366.384H250.854ZM267.542 361.302V368.302H269.152V362.576H274.22V368.302H275.914V361.302H267.542ZM264.756 359.398V360.714H277.23V359.398H264.756ZM265.736 357.522V358.796H276.46V357.522H265.736ZM268.634 363.164V364.228H274.906V363.164H268.634ZM268.634 364.83V365.88H274.906V364.83H268.634ZM268.438 366.524V367.798H274.906V366.524H268.438ZM275.438 355.156C273.072 355.548 269.012 355.716 265.582 355.716C265.722 356.052 265.876 356.612 265.904 356.976C269.376 357.004 273.548 356.836 276.418 356.36L275.438 355.156ZM269.474 356.318C268.816 359.342 267.276 362.422 264.308 364.018C264.644 364.34 265.134 364.97 265.358 365.348C268.592 363.486 270.272 360.154 271.224 356.668L269.474 356.318ZM279.176 356.374C279.96 357.018 280.996 357.956 281.458 358.558L282.592 357.34C282.088 356.752 281.024 355.884 280.24 355.282L279.176 356.374ZM280.478 368.162C280.716 367.826 281.164 367.462 283.586 365.544C283.404 365.208 283.166 364.564 283.04 364.102L280.436 366.09L280.1 366.636L280.478 368.162ZM278.434 359.426V361.036H281.57V359.426H278.434ZM280.478 368.176C280.478 367.574 281.92 366.356 281.92 366.356V359.426H280.324V365.46C280.324 366.216 279.932 366.734 279.624 367C279.89 367.238 280.338 367.826 280.478 368.176ZM283.6 357.718V359.244H291.244V357.718H283.6ZM284.02 360.616V362.128H290.824V360.616H284.02ZM283.278 363.514V365.068H291.482V363.514H283.278ZM286.652 358.292V368.246H288.346V358.292H286.652ZM284.258 355.674C284.678 356.388 285.14 357.326 285.294 357.928L286.876 357.34C286.694 356.724 286.204 355.828 285.756 355.142L284.258 355.674ZM289.228 355.044C288.976 356.01 288.444 357.284 287.996 358.11L289.452 358.586C289.914 357.844 290.474 356.668 290.95 355.562L289.228 355.044ZM298.468 363.178V364.368H303.312V363.178H298.468ZM296.746 356.066V357.27H305.104V356.066H296.746ZM297.124 357.83V358.964H304.712V357.83H297.124ZM296.312 359.552V360.756H305.538V359.552H296.312ZM298.482 364.998V366.16H303.34V364.998H298.482ZM297.25 361.302V368.274H298.804V362.52H303.242V361.302H297.25ZM303.004 361.302V366.622C303.004 366.79 302.934 366.846 302.752 366.846C302.556 366.86 301.884 366.86 301.324 366.832C301.506 367.224 301.716 367.84 301.772 368.26C302.752 368.26 303.438 368.246 303.942 368.008C304.446 367.784 304.586 367.378 304.586 366.65V361.302H303.004ZM300.036 355.114V359.944H301.702V355.114H300.036ZM294.016 355.114V368.26H295.528V355.114H294.016ZM292.812 357.886C292.728 359.02 292.532 360.588 292.224 361.554L293.456 361.974C293.736 360.882 293.96 359.202 293.988 358.026L292.812 357.886ZM295.304 357.452C295.584 358.124 295.92 359.006 296.06 359.552L297.152 359.034C296.998 358.516 296.634 357.662 296.34 357.018L295.304 357.452Z" fill="#244CB2"/>
<path d="M314 357L318 361L314 365" stroke="#244CB2" stroke-width="2" stroke-linecap="round" stroke-linejoin="round"/>
</g>
</g>
<defs>
<filter id="filter0_d_37_5457" x="0" y="0" width="577" height="401" filterUnits="userSpaceOnUse" color-interpolation-filters="sRGB">
<feFlood flood-opacity="0" result="BackgroundImageFix"/>
<feColorMatrix in="SourceAlpha" type="matrix" values="0 0 0 0 0 0 0 0 0 0 0 0 0 0 0 0 0 0 127 0" result="hardAlpha"/>
<feOffset dy="8"/>
<feGaussianBlur stdDeviation="8"/>
<feComposite in2="hardAlpha" operator="out"/>
<feColorMatrix type="matrix" values="0 0 0 0 0.560784 0 0 0 0 0.584314 0 0 0 0 0.698039 0 0 0 0.15 0"/>
<feBlend mode="normal" in2="BackgroundImageFix" result="effect1_dropShadow_37_5457"/>
<feBlend mode="normal" in="SourceGraphic" in2="effect1_dropShadow_37_5457" result="shape"/>
</filter>
<clipPath id="clip0_37_5457">
<rect x="16" y="8" width="545" height="369" rx="16" fill="white"/>
</clipPath>
</defs>
</svg>
