<svg width="23" height="17" viewBox="0 0 23 17" fill="none" xmlns="http://www.w3.org/2000/svg">
<path fill-rule="evenodd" clip-rule="evenodd" d="M22.9951 0.249899C23.0287 0.0948463 22.8818 -0.0383638 22.7307 0.0101213L19.1622 1.15558C19.0112 1.20407 18.9693 1.39788 19.0868 1.50445L20.0015 2.33398C19.5597 2.57554 19.2733 2.92859 19.0709 3.28338C18.895 3.59183 18.7612 3.94497 18.6499 4.23856C18.631 4.28849 18.6127 4.33669 18.595 4.38265C18.3301 5.07016 18.0915 5.53726 17.5084 5.81142C17.2448 5.93538 16.8963 5.92659 16.3409 5.67591C15.822 5.44172 15.2695 5.06522 14.6305 4.62972L14.6305 4.6297L14.4627 4.51546C13.7877 4.05641 13.0185 3.545 12.2261 3.24433C11.4138 2.93608 10.4908 2.81639 9.56518 3.25163C8.6228 3.69476 8.12907 4.53395 7.85637 5.39398C7.58704 6.24342 7.49862 7.2206 7.4387 8.09776C7.42733 8.26427 7.41696 8.42664 7.40687 8.58474V8.58475C7.3612 9.30055 7.32112 9.92853 7.21804 10.454C7.08526 11.1309 6.90314 11.3183 6.79657 11.3684C6.42095 11.545 6.15379 11.5848 5.94436 11.5811C5.71834 11.5771 5.51408 11.5238 5.21384 11.4391L5.18204 11.4301L5.18203 11.4301C4.90373 11.3514 4.53314 11.2466 4.1038 11.2359C3.63893 11.2243 3.14391 11.321 2.58302 11.5847C1.36641 12.1568 0.740807 13.3952 0.419346 14.3191C0.2515 14.8015 0.148637 15.25 0.087516 15.5769C0.0567998 15.7412 0.0362314 15.8768 0.0231526 15.9733C0.0166058 16.0217 0.0119152 16.0603 0.00875524 16.088L0.00511726 16.1212L0.00407982 16.1313L0.00374337 16.1347L0.00361874 16.136L0.00356723 16.1366C0.00354486 16.1368 0.00352365 16.137 0.733898 16.2065L0.00352296 16.137C-0.0368753 16.5619 0.274811 16.9391 0.699694 16.9795C1.12444 17.0199 1.50153 16.7084 1.54212 16.2837L1.54216 16.2833L1.54235 16.2816L1.54436 16.2633C1.54636 16.2458 1.54972 16.2179 1.55473 16.1809C1.56477 16.1068 1.58135 15.9969 1.60676 15.861C1.6579 15.5875 1.74322 15.2175 1.87909 14.827C2.16504 14.0051 2.60895 13.2805 3.2407 12.9834C3.60399 12.8126 3.8618 12.7759 4.06533 12.781C4.2878 12.7865 4.48921 12.8405 4.79402 12.9266L4.81153 12.9315C5.04058 12.9962 5.33057 13.0781 5.66634 13.1116C5.74729 13.1196 5.83089 13.1249 5.91695 13.1264C6.38571 13.1347 6.88609 13.0342 7.45425 12.7671C8.29147 12.3734 8.59136 11.4823 8.73471 10.7515C8.85917 10.117 8.90684 9.36161 8.95213 8.64365C8.96153 8.49471 8.97083 8.34739 8.98068 8.2031C9.04101 7.31998 9.12285 6.51338 9.32966 5.86112C9.53312 5.21946 9.82142 4.83906 10.2229 4.6503C10.641 4.45366 11.1011 4.47051 11.6778 4.68937C12.2745 4.91581 12.9004 5.32209 13.5935 5.79347L13.7799 5.92055C14.3883 6.33599 15.0552 6.79131 15.7051 7.08465C16.4304 7.41201 17.3025 7.61615 18.1661 7.21009C19.3393 6.65843 19.7587 5.66127 20.0372 4.93838C20.0605 4.87786 20.0825 4.82023 20.1035 4.76518C20.2175 4.4665 20.3024 4.2439 20.4136 4.049C20.5308 3.84346 20.6427 3.73587 20.7802 3.6712C20.931 3.60031 21.0481 3.48695 21.1242 3.35211L21.863 4.02212C21.9805 4.12869 22.1693 4.06808 22.2029 3.91303L22.9951 0.249899Z" fill="url(#paint0_linear_37_5326)"/>
<defs>
<linearGradient id="paint0_linear_37_5326" x1="11.5" y1="27.3427" x2="-5.16662" y2="-16.9755" gradientUnits="userSpaceOnUse">
<stop stop-color="#FF754C"/>
<stop offset="1" stop-color="#FFB7F5"/>
</linearGradient>
</defs>
</svg>
