<svg width="58" height="67" viewBox="0 0 58 67" fill="none" xmlns="http://www.w3.org/2000/svg">
<path fill-rule="evenodd" clip-rule="evenodd" d="M24.0367 0C22.6976 0 21.6121 1.08685 21.6121 2.42754C21.6121 3.76823 22.6976 4.85507 24.0367 4.85507C39.8375 4.85507 52.6466 17.6798 52.6466 33.5C52.6466 49.3202 39.8375 62.1449 24.0367 62.1449C16.4936 62.1449 9.41819 59.2126 4.11318 54.0576C3.15228 53.1238 1.6173 53.1468 0.684705 54.1089C-0.247888 55.071 -0.22494 56.6078 0.73596 57.5416C6.93697 63.5673 15.2198 67 24.0367 67C42.5156 67 57.4957 52.0015 57.4957 33.5C57.4957 14.9985 42.5156 0 24.0367 0Z" fill="url(#paint0_linear_37_5336)"/>
<defs>
<linearGradient id="paint0_linear_37_5336" x1="82.2276" y1="73.675" x2="-13.5176" y2="94.0897" gradientUnits="userSpaceOnUse">
<stop stop-color="#0049C6"/>
<stop offset="1" stop-color="#CDF4FF"/>
</linearGradient>
</defs>
</svg>
