<svg width="206" height="268" viewBox="0 0 206 268" fill="none" xmlns="http://www.w3.org/2000/svg">
<g filter="url(#filter0_d_140_3184)">
<rect x="16" y="8" width="174" height="236" rx="16" fill="white"/>
</g>
<path d="M17 23C17 14.1634 24.1634 7 33 7H174C182.837 7 190 14.1634 190 23V47H17V23Z" fill="#E6E8F0"/>
<path d="M44.188 29.88H60.28V31.932H44.188V29.88ZM54.25 28.386H56.464V35.082C56.464 35.646 56.392 36.084 56.248 36.396C56.104 36.72 55.834 36.972 55.438 37.152C55.042 37.308 54.556 37.404 53.98 37.44C53.416 37.488 52.738 37.506 51.946 37.494C51.91 37.17 51.82 36.804 51.676 36.396C51.544 35.988 51.406 35.628 51.262 35.316C51.598 35.328 51.94 35.34 52.288 35.352C52.636 35.364 52.948 35.37 53.224 35.37C53.512 35.358 53.71 35.352 53.818 35.352C54.106 35.352 54.25 35.25 54.25 35.046V28.386ZM47.014 32.58L48.688 31.572C49.18 32.004 49.66 32.49 50.128 33.03C50.596 33.558 50.956 34.038 51.208 34.47L49.426 35.658C49.294 35.37 49.096 35.046 48.832 34.686C48.568 34.314 48.274 33.948 47.95 33.588C47.638 33.216 47.326 32.88 47.014 32.58ZM45.826 21.474H57.958V28.62H45.754V27.018H55.69V23.094H45.826V21.474ZM46.42 24.174H56.86V25.848H46.42V24.174ZM61.468 29.844C62.032 29.724 62.662 29.586 63.358 29.43C64.066 29.274 64.81 29.1 65.59 28.908C66.382 28.704 67.162 28.506 67.93 28.314L68.182 30.294C67.126 30.582 66.058 30.87 64.978 31.158C63.898 31.446 62.914 31.698 62.026 31.914L61.468 29.844ZM61.702 24.138H68.002V26.136H61.702V24.138ZM63.952 20.7H66.058V35.19C66.058 35.706 65.998 36.108 65.878 36.396C65.77 36.696 65.56 36.924 65.248 37.08C64.948 37.236 64.57 37.338 64.114 37.386C63.67 37.446 63.13 37.476 62.494 37.476C62.47 37.2 62.398 36.87 62.278 36.486C62.158 36.114 62.032 35.79 61.9 35.514C62.26 35.526 62.602 35.532 62.926 35.532C63.25 35.532 63.472 35.532 63.592 35.532C63.724 35.532 63.814 35.508 63.862 35.46C63.922 35.4 63.952 35.31 63.952 35.19V20.7ZM68.182 25.506L78.046 24.552L78.244 26.55L68.398 27.558L68.182 25.506ZM73.114 21.942L74.752 20.88C75.028 21.144 75.316 21.432 75.616 21.744C75.928 22.056 76.222 22.368 76.498 22.68C76.786 22.98 77.02 23.25 77.2 23.49L75.454 24.696C75.298 24.456 75.082 24.174 74.806 23.85C74.542 23.526 74.26 23.196 73.96 22.86C73.66 22.524 73.378 22.218 73.114 21.942ZM70.234 20.79H72.43C72.466 22.35 72.532 23.826 72.628 25.218C72.736 26.61 72.88 27.882 73.06 29.034C73.252 30.174 73.486 31.17 73.762 32.022C74.038 32.874 74.362 33.546 74.734 34.038C75.106 34.53 75.526 34.812 75.994 34.884C76.21 34.908 76.372 34.692 76.48 34.236C76.6 33.78 76.696 33.072 76.768 32.112C76.912 32.268 77.098 32.43 77.326 32.598C77.554 32.766 77.782 32.922 78.01 33.066C78.238 33.198 78.424 33.3 78.568 33.372C78.412 34.488 78.208 35.352 77.956 35.964C77.704 36.564 77.416 36.972 77.092 37.188C76.78 37.404 76.45 37.494 76.102 37.458C75.214 37.374 74.452 37.056 73.816 36.504C73.18 35.952 72.646 35.196 72.214 34.236C71.782 33.276 71.428 32.124 71.152 30.78C70.888 29.436 70.684 27.924 70.54 26.244C70.396 24.564 70.294 22.746 70.234 20.79ZM75.706 27.252L77.47 28.35C76.93 29.538 76.228 30.69 75.364 31.806C74.512 32.91 73.552 33.918 72.484 34.83C71.416 35.73 70.294 36.462 69.118 37.026C68.926 36.738 68.668 36.438 68.344 36.126C68.02 35.826 67.702 35.568 67.39 35.352C68.302 34.992 69.178 34.53 70.018 33.966C70.858 33.402 71.638 32.766 72.358 32.058C73.078 31.338 73.72 30.57 74.284 29.754C74.86 28.938 75.334 28.104 75.706 27.252ZM83.518 26.514H92.536V28.512H83.518V26.514ZM83.284 34.794H92.59V36.792H83.284V34.794ZM82.33 30.06H94.012V37.512H91.69V31.95H84.544V37.584H82.33V30.06ZM88.162 20.628L90.088 21.618C89.356 22.674 88.51 23.658 87.55 24.57C86.59 25.47 85.558 26.292 84.454 27.036C83.35 27.768 82.228 28.398 81.088 28.926C80.92 28.614 80.692 28.278 80.404 27.918C80.116 27.546 79.816 27.222 79.504 26.946C80.62 26.514 81.718 25.986 82.798 25.362C83.89 24.726 84.898 24.012 85.822 23.22C86.746 22.416 87.526 21.552 88.162 20.628ZM88.9 21.87C90.148 23.118 91.42 24.114 92.716 24.858C94.012 25.602 95.32 26.208 96.64 26.676C96.364 26.928 96.082 27.24 95.794 27.612C95.518 27.972 95.308 28.326 95.164 28.674C94.252 28.242 93.352 27.774 92.464 27.27C91.588 26.754 90.7 26.136 89.8 25.416C88.912 24.696 87.994 23.826 87.046 22.806L88.9 21.87ZM101.77 27.162V34.452H99.7V29.16H97.54V27.162H101.77ZM97.792 22.446L99.376 21.24C99.7 21.504 100.036 21.804 100.384 22.14C100.744 22.476 101.074 22.812 101.374 23.148C101.686 23.484 101.938 23.79 102.13 24.066L100.438 25.434C100.27 25.146 100.036 24.828 99.736 24.48C99.448 24.132 99.13 23.778 98.782 23.418C98.446 23.058 98.116 22.734 97.792 22.446ZM101.122 33.588C101.446 33.588 101.764 33.696 102.076 33.912C102.388 34.116 102.808 34.344 103.336 34.596C103.948 34.896 104.662 35.094 105.478 35.19C106.294 35.274 107.182 35.316 108.142 35.316C108.754 35.316 109.444 35.298 110.212 35.262C110.98 35.226 111.742 35.184 112.498 35.136C113.254 35.076 113.926 35.004 114.514 34.92C114.442 35.1 114.364 35.322 114.28 35.586C114.196 35.838 114.118 36.09 114.046 36.342C113.986 36.606 113.95 36.834 113.938 37.026C113.626 37.05 113.23 37.074 112.75 37.098C112.282 37.122 111.772 37.14 111.22 37.152C110.668 37.176 110.116 37.194 109.564 37.206C109.012 37.218 108.52 37.224 108.088 37.224C106.996 37.224 106.042 37.158 105.226 37.026C104.422 36.906 103.678 36.678 102.994 36.342C102.574 36.138 102.208 35.94 101.896 35.748C101.596 35.544 101.332 35.442 101.104 35.442C100.888 35.442 100.648 35.544 100.384 35.748C100.12 35.94 99.85 36.198 99.574 36.522C99.298 36.846 99.022 37.176 98.746 37.512L97.414 35.658C98.062 35.058 98.716 34.566 99.376 34.182C100.036 33.786 100.618 33.588 101.122 33.588ZM112.228 20.736L113.254 22.518C112.606 22.674 111.898 22.818 111.13 22.95C110.374 23.07 109.588 23.172 108.772 23.256C107.956 23.34 107.134 23.412 106.306 23.472C105.49 23.52 104.704 23.562 103.948 23.598C103.912 23.346 103.84 23.058 103.732 22.734C103.636 22.398 103.534 22.116 103.426 21.888C104.194 21.84 104.974 21.786 105.766 21.726C106.57 21.654 107.356 21.57 108.124 21.474C108.904 21.366 109.642 21.252 110.338 21.132C111.034 21.012 111.664 20.88 112.228 20.736ZM107.44 22.644H109.636V29.52H107.44V22.644ZM102.688 24.894H114.298V26.766H102.688V24.894ZM106.018 30.168V32.346H111.022V30.168H106.018ZM103.984 28.458H113.2V34.038H103.984V28.458ZM117.574 23.634H123.1V35.748H117.574V33.858H121.156V25.506H117.574V23.634ZM116.314 23.634H118.276V37.08H116.314V23.634ZM117.502 28.44H122.092V30.312H117.502V28.44ZM118.888 20.7L121.228 21.042C121.036 21.654 120.826 22.26 120.598 22.86C120.382 23.46 120.184 23.97 120.004 24.39L118.276 23.994C118.36 23.682 118.438 23.334 118.51 22.95C118.594 22.566 118.672 22.176 118.744 21.78C118.816 21.384 118.864 21.024 118.888 20.7ZM125.476 23.49H130.75V25.47H125.476V23.49ZM129.994 23.49H131.992C131.992 23.49 131.992 23.556 131.992 23.688C131.992 23.808 131.992 23.946 131.992 24.102C131.992 24.258 131.986 24.378 131.974 24.462C131.926 26.49 131.866 28.212 131.794 29.628C131.734 31.032 131.656 32.196 131.56 33.12C131.476 34.032 131.374 34.746 131.254 35.262C131.134 35.778 130.978 36.156 130.786 36.396C130.546 36.744 130.288 36.984 130.012 37.116C129.736 37.248 129.418 37.344 129.058 37.404C128.71 37.452 128.278 37.47 127.762 37.458C127.258 37.458 126.742 37.452 126.214 37.44C126.202 37.14 126.13 36.786 125.998 36.378C125.866 35.982 125.704 35.634 125.512 35.334C126.088 35.382 126.622 35.412 127.114 35.424C127.618 35.436 127.984 35.442 128.212 35.442C128.392 35.442 128.536 35.424 128.644 35.388C128.764 35.34 128.878 35.256 128.986 35.136C129.142 34.98 129.268 34.662 129.364 34.182C129.472 33.69 129.562 33 129.634 32.112C129.706 31.224 129.772 30.102 129.832 28.746C129.892 27.39 129.946 25.776 129.994 23.904V23.49ZM125.53 20.718L127.618 21.204C127.39 22.08 127.108 22.956 126.772 23.832C126.448 24.708 126.088 25.536 125.692 26.316C125.308 27.084 124.912 27.756 124.504 28.332C124.384 28.212 124.21 28.074 123.982 27.918C123.766 27.75 123.544 27.588 123.316 27.432C123.1 27.276 122.908 27.156 122.74 27.072C123.136 26.556 123.508 25.962 123.856 25.29C124.216 24.606 124.534 23.874 124.81 23.094C125.098 22.302 125.338 21.51 125.53 20.718ZM124.648 28.692L126.34 27.738C126.64 28.146 126.958 28.596 127.294 29.088C127.63 29.58 127.948 30.06 128.248 30.528C128.548 30.996 128.794 31.41 128.986 31.77L127.15 32.886C126.982 32.514 126.754 32.088 126.466 31.608C126.19 31.128 125.89 30.636 125.566 30.132C125.254 29.616 124.948 29.136 124.648 28.692ZM135.322 21.15H141.766V22.968H135.322V21.15ZM134.44 21.15H136.33V28.368C136.33 29.076 136.312 29.844 136.276 30.672C136.24 31.488 136.174 32.322 136.078 33.174C135.982 34.026 135.844 34.848 135.664 35.64C135.484 36.42 135.244 37.128 134.944 37.764C134.836 37.644 134.68 37.506 134.476 37.35C134.284 37.194 134.086 37.044 133.882 36.9C133.678 36.768 133.504 36.672 133.36 36.612C133.696 35.844 133.942 34.986 134.098 34.038C134.254 33.078 134.35 32.106 134.386 31.122C134.422 30.138 134.44 29.226 134.44 28.386V21.15ZM140.02 24.498H141.694V30.366C141.694 30.714 141.658 31.008 141.586 31.248C141.514 31.476 141.364 31.662 141.136 31.806C140.932 31.938 140.686 32.022 140.398 32.058C140.11 32.082 139.774 32.094 139.39 32.094C139.378 31.866 139.33 31.602 139.246 31.302C139.174 31.002 139.084 30.744 138.976 30.528C139.168 30.528 139.342 30.528 139.498 30.528C139.666 30.528 139.78 30.528 139.84 30.528C139.912 30.516 139.96 30.498 139.984 30.474C140.008 30.45 140.02 30.402 140.02 30.33V24.498ZM137.986 24.498H140.992V26.244H137.986V24.498ZM136.942 37.26L136.654 35.496L137.302 34.83L141.37 33.138C141.394 33.402 141.436 33.702 141.496 34.038C141.556 34.374 141.622 34.638 141.694 34.83C140.77 35.262 140.014 35.616 139.426 35.892C138.838 36.156 138.376 36.372 138.04 36.54C137.716 36.72 137.476 36.864 137.32 36.972C137.164 37.08 137.038 37.176 136.942 37.26ZM136.942 37.26C136.894 37.008 136.81 36.696 136.69 36.324C136.57 35.952 136.438 35.658 136.294 35.442C136.462 35.37 136.618 35.268 136.762 35.136C136.906 34.992 136.978 34.758 136.978 34.434V24.498H138.76V35.964C138.76 35.964 138.67 36 138.49 36.072C138.31 36.156 138.094 36.258 137.842 36.378C137.602 36.498 137.392 36.63 137.212 36.774C137.032 36.93 136.942 37.092 136.942 37.26ZM142.234 21.186H150.244V23.004H142.234V21.186ZM145.348 22.176L147.4 22.428C147.184 22.908 146.962 23.382 146.734 23.85C146.506 24.318 146.296 24.714 146.104 25.038L144.556 24.732C144.652 24.48 144.748 24.21 144.844 23.922C144.952 23.622 145.048 23.322 145.132 23.022C145.216 22.71 145.288 22.428 145.348 22.176ZM142.594 24.156H149.83V33.3H147.94V25.776H144.394V33.3H142.594V24.156ZM145.258 26.64H147.058V30.744C147.058 31.368 146.998 31.998 146.878 32.634C146.77 33.27 146.56 33.894 146.248 34.506C145.948 35.106 145.498 35.67 144.898 36.198C144.31 36.738 143.542 37.218 142.594 37.638C142.474 37.434 142.294 37.194 142.054 36.918C141.826 36.654 141.61 36.432 141.406 36.252C142.246 35.928 142.918 35.55 143.422 35.118C143.938 34.674 144.328 34.2 144.592 33.696C144.856 33.192 145.03 32.688 145.114 32.184C145.21 31.68 145.258 31.194 145.258 30.726V26.64ZM146.212 34.632L147.328 33.462C147.7 33.726 148.09 34.026 148.498 34.362C148.906 34.698 149.29 35.034 149.65 35.37C150.01 35.694 150.298 35.988 150.514 36.252L149.326 37.566C149.122 37.29 148.84 36.978 148.48 36.63C148.132 36.294 147.76 35.952 147.364 35.604C146.968 35.244 146.584 34.92 146.212 34.632ZM152.332 25.038H154.474V37.584H152.332V25.038ZM152.476 21.87L154.024 20.826C154.324 21.126 154.648 21.462 154.996 21.834C155.344 22.206 155.68 22.566 156.004 22.914C156.34 23.262 156.61 23.568 156.814 23.832L155.158 25.02C154.966 24.744 154.714 24.426 154.402 24.066C154.102 23.706 153.778 23.334 153.43 22.95C153.082 22.554 152.764 22.194 152.476 21.87ZM157.228 21.6H167.038V23.598H157.228V21.6ZM165.526 21.6H167.668V35.028C167.668 35.616 167.596 36.066 167.452 36.378C167.32 36.702 167.074 36.96 166.714 37.152C166.354 37.308 165.904 37.41 165.364 37.458C164.836 37.506 164.188 37.524 163.42 37.512C163.384 37.212 163.3 36.852 163.168 36.432C163.036 36.012 162.898 35.664 162.754 35.388C163.054 35.4 163.366 35.412 163.69 35.424C164.014 35.436 164.302 35.442 164.554 35.442C164.818 35.442 164.998 35.442 165.094 35.442C165.262 35.43 165.376 35.394 165.436 35.334C165.496 35.262 165.526 35.148 165.526 34.992V21.6ZM157.624 26.262H163.33V33.12H157.624V31.194H161.224V28.188H157.624V26.262ZM156.544 26.262H158.488V34.146H156.544V26.262Z" fill="#081735"/>
<path fill-rule="evenodd" clip-rule="evenodd" d="M59.3126 72.4277C59.3429 72.3149 59.2127 72.2197 59.0763 72.255L56.1915 73.0009C56.0529 73.0367 56.012 73.1798 56.1182 73.2573L56.8857 73.8179C56.2723 74.0862 56.0283 74.6116 55.8459 75.0041L55.8459 75.0042C55.8274 75.0439 55.8096 75.0824 55.7921 75.119C55.5768 75.569 55.364 75.9254 54.814 76.1337C54.5246 76.2433 54.1849 76.2162 53.728 76.0502C53.2952 75.8928 52.8363 75.6409 52.3115 75.3528L52.3114 75.3528L52.1716 75.2761C51.6132 74.9702 50.9844 74.6339 50.3406 74.4372C49.6798 74.2352 48.9669 74.1686 48.266 74.4341C47.555 74.7034 47.1645 75.2197 46.9414 75.7864C46.7222 76.3432 46.6494 76.9874 46.5998 77.5713C46.5905 77.6814 46.582 77.7888 46.5737 77.8936L46.5737 77.8936C46.5361 78.3689 46.5028 78.7885 46.4172 79.14C46.3112 79.5754 46.1565 79.758 45.9837 79.8235C45.6501 79.9498 45.4029 79.9814 45.2036 79.9785C44.9964 79.9756 44.8129 79.9361 44.5681 79.8805L44.5455 79.8754C44.3136 79.8226 44.0214 79.756 43.6853 79.7493C43.3287 79.7421 42.9481 79.8013 42.5102 79.9671C41.5767 80.3207 41.0762 81.0979 40.81 81.7143C40.6734 82.0305 40.5893 82.3254 40.5392 82.5411C40.5141 82.6494 40.4973 82.7388 40.4866 82.8024C40.4812 82.8343 40.4774 82.8597 40.4748 82.8779L40.4718 82.8996L40.471 82.9062L40.4707 82.9084L40.4706 82.9093L40.4706 82.9096C40.4706 82.9098 40.4706 82.9099 40.968 83.0002L40.4706 82.9099C40.4408 83.1622 40.6532 83.4096 40.9451 83.4625C41.2369 83.5155 41.4975 83.354 41.5275 83.1019L41.5275 83.1017L41.5277 83.1003L41.5294 83.0878C41.531 83.076 41.5339 83.0573 41.538 83.0325C41.5464 82.9828 41.5602 82.9091 41.5813 82.8181C41.6238 82.6352 41.6949 82.3866 41.8086 82.1232C42.0431 81.5804 42.4242 81.0542 43.0144 80.8307C43.3385 80.708 43.5784 80.6786 43.7728 80.6825C43.9767 80.6866 44.1578 80.7265 44.4058 80.7829L44.4157 80.7851L44.4157 80.7851C44.601 80.8273 44.8238 80.8779 45.078 80.9004C45.149 80.9067 45.2224 80.9108 45.2981 80.9118C45.6579 80.917 46.0434 80.8554 46.4879 80.6871C47.093 80.4579 47.3357 79.9244 47.4573 79.4251C47.5593 79.0065 47.5984 78.5075 47.6358 78.0307C47.6435 77.9316 47.6512 77.8334 47.6594 77.7372C47.709 77.1523 47.7765 76.612 47.9498 76.1718C48.1192 75.7414 48.3735 75.4479 48.7702 75.2977C49.177 75.1436 49.6043 75.1676 50.0886 75.3157C50.5898 75.4689 51.1111 75.7419 51.6805 76.0539L51.8335 76.1379C52.3364 76.4144 52.8824 76.7147 53.413 76.9076C54.012 77.1254 54.6784 77.2396 55.3182 76.9973C56.216 76.6573 56.5457 76.0415 56.7784 75.555L56.8022 75.5051C57.0359 75.016 57.1543 74.7683 57.4732 74.6476C57.5904 74.6032 57.6743 74.5227 57.7179 74.4258L58.3625 74.8966C58.4687 74.9742 58.6414 74.9274 58.6722 74.8129L59.3126 72.4277Z" fill="#3F8CFF"/>
<path d="M78.396 76.794H80.118C80.118 76.794 80.1133 76.8407 80.104 76.934C80.104 77.018 80.0993 77.116 80.09 77.228C80.09 77.34 80.0807 77.4287 80.062 77.494C79.9593 78.7073 79.8473 79.7013 79.726 80.476C79.614 81.2507 79.488 81.8573 79.348 82.296C79.208 82.7253 79.04 83.038 78.844 83.234C78.6573 83.4393 78.452 83.584 78.228 83.668C78.0133 83.752 77.7567 83.808 77.458 83.836C77.2153 83.864 76.898 83.878 76.506 83.878C76.114 83.878 75.7033 83.8733 75.274 83.864C75.2647 83.6213 75.2087 83.346 75.106 83.038C75.0033 82.73 74.8773 82.4687 74.728 82.254C75.148 82.2913 75.5447 82.3147 75.918 82.324C76.3007 82.3333 76.5853 82.338 76.772 82.338C76.912 82.338 77.0287 82.3287 77.122 82.31C77.2247 82.282 77.318 82.2307 77.402 82.156C77.5513 82.0347 77.682 81.7827 77.794 81.4C77.9153 81.008 78.0227 80.4573 78.116 79.748C78.2187 79.0387 78.312 78.1427 78.396 77.06V76.794ZM68.736 71.432H76.842V73.07H68.736V71.432ZM69.926 73.728L71.62 73.84C71.5827 74.3347 71.536 74.862 71.48 75.422C71.424 75.9727 71.368 76.5047 71.312 77.018C71.256 77.522 71.1953 77.97 71.13 78.362H69.436C69.5107 77.9513 69.576 77.4847 69.632 76.962C69.688 76.43 69.744 75.884 69.8 75.324C69.856 74.764 69.898 74.232 69.926 73.728ZM69.94 76.794H78.9V78.362H69.94V76.794ZM67.742 79.636H77.01V81.246H67.742V79.636ZM76.506 71.432H76.688L76.968 71.376L78.214 71.474C78.186 71.9593 78.144 72.468 78.088 73C78.0413 73.532 77.99 74.078 77.934 74.638C77.878 75.1887 77.8173 75.7347 77.752 76.276C77.6867 76.8173 77.626 77.3353 77.57 77.83L75.89 77.704C75.9647 77.2093 76.03 76.682 76.086 76.122C76.1513 75.5527 76.212 74.9927 76.268 74.442C76.324 73.882 76.3707 73.3593 76.408 72.874C76.4547 72.3887 76.4873 71.9687 76.506 71.614V71.432ZM81.714 76.822H94.3V78.432H81.714V76.822ZM82.372 72.23H93.754V73.84H82.372V72.23ZM87.118 70.704H88.896V83.85H87.118V70.704ZM91.276 73.798L93.04 74.316C92.872 74.6333 92.6993 74.9507 92.522 75.268C92.3447 75.5853 92.172 75.884 92.004 76.164C91.836 76.444 91.6773 76.6913 91.528 76.906L90.072 76.416C90.212 76.1827 90.3567 75.9167 90.506 75.618C90.6647 75.31 90.8093 74.9973 90.94 74.68C91.08 74.3627 91.192 74.0687 91.276 73.798ZM83.31 74.4L84.808 73.826C84.9853 74.078 85.1533 74.3533 85.312 74.652C85.4707 74.9413 85.6107 75.2307 85.732 75.52C85.8627 75.8 85.956 76.0567 86.012 76.29L84.402 76.934C84.3553 76.7007 84.276 76.4393 84.164 76.15C84.0613 75.8607 83.9353 75.562 83.786 75.254C83.6367 74.9367 83.478 74.652 83.31 74.4ZM86.838 77.48L88.196 78.026C87.8693 78.5767 87.4913 79.1133 87.062 79.636C86.642 80.1493 86.18 80.6393 85.676 81.106C85.1813 81.5633 84.668 81.988 84.136 82.38C83.604 82.7627 83.0627 83.0893 82.512 83.36C82.428 83.22 82.316 83.0613 82.176 82.884C82.036 82.7067 81.8913 82.534 81.742 82.366C81.5927 82.198 81.4527 82.0627 81.322 81.96C81.8633 81.7267 82.4 81.4513 82.932 81.134C83.464 80.8073 83.9727 80.448 84.458 80.056C84.9433 79.6547 85.3867 79.2393 85.788 78.81C86.1987 78.3713 86.5487 77.928 86.838 77.48ZM89.232 77.494C89.512 77.942 89.848 78.3853 90.24 78.824C90.6413 79.2627 91.08 79.678 91.556 80.07C92.0413 80.462 92.5453 80.8213 93.068 81.148C93.6 81.4747 94.132 81.75 94.664 81.974C94.5427 82.086 94.4027 82.226 94.244 82.394C94.0947 82.562 93.95 82.7347 93.81 82.912C93.6793 83.0893 93.572 83.248 93.488 83.388C92.9373 83.1173 92.396 82.7907 91.864 82.408C91.3413 82.0253 90.8327 81.6007 90.338 81.134C89.8527 80.6673 89.4 80.1727 88.98 79.65C88.56 79.1273 88.1867 78.5907 87.86 78.04L89.232 77.494ZM97.352 81.456H106.774V83.01H97.352V81.456ZM96.4 74.61H107.782V83.78H106.074V76.164H98.024V83.808H96.4V74.61ZM95.686 71.474H108.272V73.098H95.686V71.474ZM99.704 72.482H101.202V75.688C101.202 76.22 101.137 76.7613 101.006 77.312C100.885 77.8627 100.633 78.3807 100.25 78.866C99.8767 79.3513 99.3213 79.762 98.584 80.098C98.528 79.986 98.4347 79.8553 98.304 79.706C98.1827 79.5473 98.052 79.398 97.912 79.258C97.7813 79.1087 97.6693 78.9967 97.576 78.922C98.22 78.642 98.6913 78.3247 98.99 77.97C99.298 77.6153 99.494 77.242 99.578 76.85C99.662 76.458 99.704 76.0567 99.704 75.646V72.482ZM102.686 72.482H104.282V77.648C104.282 77.8813 104.305 78.026 104.352 78.082C104.399 78.138 104.52 78.166 104.716 78.166C104.753 78.166 104.819 78.166 104.912 78.166C105.015 78.166 105.127 78.166 105.248 78.166C105.369 78.166 105.481 78.166 105.584 78.166C105.696 78.166 105.775 78.166 105.822 78.166C105.953 78.166 106.037 78.1567 106.074 78.138C106.121 78.11 106.158 78.0773 106.186 78.04C106.345 78.1613 106.559 78.278 106.83 78.39C107.11 78.502 107.367 78.586 107.6 78.642C107.488 79.0527 107.306 79.3373 107.054 79.496C106.811 79.6453 106.457 79.72 105.99 79.72C105.915 79.72 105.808 79.72 105.668 79.72C105.528 79.72 105.379 79.72 105.22 79.72C105.061 79.72 104.912 79.72 104.772 79.72C104.641 79.72 104.539 79.72 104.464 79.72C103.979 79.72 103.605 79.6593 103.344 79.538C103.092 79.4167 102.919 79.2067 102.826 78.908C102.733 78.6 102.686 78.18 102.686 77.648V72.482ZM109.448 81.554H122.51V83.164H109.448V81.554ZM113.298 72.188H115.132V82.688H113.298V72.188ZM116.742 72.188H118.59V82.786H116.742V72.188ZM120.256 74.582L121.922 75.114C121.745 75.6927 121.549 76.2807 121.334 76.878C121.129 77.466 120.914 78.0307 120.69 78.572C120.475 79.1133 120.27 79.594 120.074 80.014L118.562 79.496C118.767 79.0667 118.977 78.572 119.192 78.012C119.407 77.452 119.607 76.8733 119.794 76.276C119.99 75.6787 120.144 75.114 120.256 74.582ZM109.952 75.156L111.436 74.61C111.651 75.1233 111.875 75.6787 112.108 76.276C112.351 76.8733 112.57 77.452 112.766 78.012C112.971 78.572 113.13 79.062 113.242 79.482L111.618 80.168C111.515 79.7387 111.371 79.2393 111.184 78.67C111.007 78.0913 110.806 77.494 110.582 76.878C110.367 76.262 110.157 75.688 109.952 75.156ZM109.938 71.488H122.132V73.154H109.938V71.488ZM123.7 74.792H136.202V76.402H123.7V74.792ZM124.862 71.992H135.194V73.602H124.862V71.992ZM127.48 77.578H134.228V79.132H127.48V77.578ZM133.668 77.578H133.976L134.256 77.48L135.544 78.236C135.143 78.6653 134.699 79.1273 134.214 79.622C133.729 80.1073 133.229 80.602 132.716 81.106C132.212 81.61 131.717 82.0907 131.232 82.548L129.72 81.666C130.187 81.2367 130.667 80.784 131.162 80.308C131.666 79.8227 132.137 79.356 132.576 78.908C133.024 78.4507 133.388 78.068 133.668 77.76V77.578ZM126.444 81.386L127.34 80.126C127.881 80.2473 128.465 80.4013 129.09 80.588C129.715 80.7653 130.341 80.9613 130.966 81.176C131.591 81.3907 132.179 81.61 132.73 81.834C133.281 82.058 133.757 82.2727 134.158 82.478L133.164 83.948C132.809 83.7333 132.361 83.5093 131.82 83.276C131.288 83.0427 130.714 82.8093 130.098 82.576C129.482 82.3427 128.857 82.1233 128.222 81.918C127.597 81.7127 127.004 81.5353 126.444 81.386ZM128.544 70.62L130.294 70.844C130.117 71.5347 129.925 72.258 129.72 73.014C129.524 73.77 129.319 74.5213 129.104 75.268C128.889 76.0053 128.679 76.7053 128.474 77.368C128.278 78.0307 128.096 78.6187 127.928 79.132L126.136 79.118C126.332 78.5767 126.533 77.9607 126.738 77.27C126.953 76.57 127.167 75.842 127.382 75.086C127.606 74.3207 127.816 73.56 128.012 72.804C128.208 72.0387 128.385 71.3107 128.544 70.62ZM147.052 73.378L148.634 74.022C148.037 75.002 147.341 75.94 146.548 76.836C145.764 77.7227 144.929 78.5393 144.042 79.286C143.165 80.0327 142.278 80.6813 141.382 81.232C141.289 81.12 141.163 80.9847 141.004 80.826C140.855 80.658 140.696 80.4947 140.528 80.336C140.36 80.1773 140.215 80.0467 140.094 79.944C141.018 79.4587 141.909 78.8753 142.768 78.194C143.627 77.5127 144.425 76.7613 145.162 75.94C145.899 75.1187 146.529 74.2647 147.052 73.378ZM140.682 74.834L141.844 73.812C142.432 74.2693 143.062 74.764 143.734 75.296C144.406 75.8187 145.078 76.36 145.75 76.92C146.422 77.4707 147.047 78.0073 147.626 78.53C148.214 79.0527 148.704 79.5333 149.096 79.972L147.78 81.218C147.416 80.7793 146.954 80.294 146.394 79.762C145.843 79.2207 145.237 78.6653 144.574 78.096C143.921 77.5173 143.258 76.948 142.586 76.388C141.923 75.828 141.289 75.31 140.682 74.834ZM150.034 71.32V72.93H139.8V81.848H150.412V83.458H138.148V71.32H150.034Z" fill="#3F8CFF"/>
<path fill-rule="evenodd" clip-rule="evenodd" d="M59.3126 108.673C59.3429 108.56 59.2127 108.465 59.0763 108.501L56.1915 109.246C56.0529 109.282 56.012 109.425 56.1182 109.503L56.8857 110.064C56.2723 110.332 56.0283 110.857 55.8459 111.25L55.8459 111.25C55.8274 111.29 55.8096 111.328 55.7921 111.365C55.5768 111.815 55.364 112.171 54.814 112.379C54.5246 112.489 54.1849 112.462 53.728 112.296C53.2952 112.138 52.8363 111.887 52.3115 111.598L52.3114 111.598L52.1716 111.522C51.6132 111.216 50.9844 110.88 50.3406 110.683C49.6798 110.481 48.9669 110.414 48.266 110.68C47.555 110.949 47.1645 111.465 46.9414 112.032C46.7222 112.589 46.6494 113.233 46.5998 113.817C46.5905 113.927 46.582 114.034 46.5737 114.139L46.5737 114.139C46.5361 114.615 46.5028 115.034 46.4172 115.386C46.3112 115.821 46.1565 116.004 45.9837 116.069C45.6501 116.195 45.4029 116.227 45.2036 116.224C44.9964 116.221 44.8129 116.182 44.5681 116.126L44.5455 116.121C44.3136 116.068 44.0214 116.002 43.6853 115.995C43.3287 115.988 42.9481 116.047 42.5102 116.213C41.5767 116.566 41.0762 117.344 40.81 117.96C40.6734 118.276 40.5893 118.571 40.5392 118.787C40.5141 118.895 40.4973 118.984 40.4866 119.048C40.4812 119.08 40.4774 119.105 40.4748 119.123L40.4718 119.145L40.471 119.152L40.4707 119.154L40.4706 119.155L40.4706 119.155C40.4706 119.155 40.4706 119.156 40.968 119.246L40.4706 119.156C40.4408 119.408 40.6532 119.655 40.9451 119.708C41.2369 119.761 41.4975 119.6 41.5275 119.348L41.5275 119.347L41.5277 119.346L41.5294 119.333C41.531 119.322 41.5339 119.303 41.538 119.278C41.5464 119.228 41.5602 119.155 41.5813 119.064C41.6238 118.881 41.6949 118.632 41.8086 118.369C42.0431 117.826 42.4242 117.3 43.0144 117.076C43.3385 116.954 43.5784 116.924 43.7728 116.928C43.9767 116.932 44.1578 116.972 44.4058 117.028L44.4157 117.031L44.4157 117.031C44.601 117.073 44.8238 117.124 45.078 117.146C45.149 117.152 45.2224 117.156 45.2981 117.157C45.6579 117.163 46.0434 117.101 46.4879 116.933C47.093 116.703 47.3357 116.17 47.4573 115.671C47.5593 115.252 47.5984 114.753 47.6358 114.276C47.6435 114.177 47.6512 114.079 47.6594 113.983C47.709 113.398 47.7765 112.858 47.9498 112.417C48.1192 111.987 48.3735 111.694 48.7702 111.543C49.177 111.389 49.6043 111.413 50.0886 111.561C50.5898 111.714 51.1111 111.988 51.6805 112.299L51.8335 112.384C52.3364 112.66 52.8824 112.96 53.413 113.153C54.012 113.371 54.6784 113.485 55.3182 113.243C56.216 112.903 56.5457 112.287 56.7784 111.801L56.8022 111.751C57.0359 111.262 57.1543 111.014 57.4732 110.893C57.5904 110.849 57.6743 110.768 57.7179 110.671L58.3625 111.142C58.4687 111.22 58.6414 111.173 58.6722 111.058L59.3126 108.673Z" fill="#6C5DD3"/>
<path d="M75.316 111.584H80.552V113.138H75.316V111.584ZM67.742 108.35H74.056V109.708H67.742V108.35ZM67.616 113.922H74.042V115.336H67.616V113.922ZM67.532 111.472H74.28V112.844H67.532V111.472ZM77.612 112.27H79.236V120.04H77.612V112.27ZM68.484 109.988L69.814 109.666C69.9353 109.909 70.0427 110.184 70.136 110.492C70.2293 110.791 70.2947 111.057 70.332 111.29L68.932 111.668C68.9133 111.444 68.862 111.173 68.778 110.856C68.7033 110.539 68.6053 110.249 68.484 109.988ZM71.928 109.652L73.44 109.932C73.2907 110.305 73.146 110.669 73.006 111.024C72.866 111.369 72.7307 111.663 72.6 111.906L71.242 111.626C71.3167 111.439 71.396 111.234 71.48 111.01C71.5733 110.777 71.6573 110.539 71.732 110.296C71.816 110.053 71.8813 109.839 71.928 109.652ZM78.928 107.076L80.23 108.322C79.7447 108.509 79.2127 108.681 78.634 108.84C78.0647 108.999 77.4813 109.139 76.884 109.26C76.296 109.372 75.722 109.47 75.162 109.554C75.134 109.377 75.0687 109.167 74.966 108.924C74.8633 108.672 74.7653 108.462 74.672 108.294C75.1853 108.191 75.7033 108.079 76.226 107.958C76.758 107.837 77.2573 107.701 77.724 107.552C78.1907 107.393 78.592 107.235 78.928 107.076ZM69.73 107.23L71.228 106.88C71.368 107.169 71.508 107.496 71.648 107.86C71.7973 108.224 71.9047 108.532 71.97 108.784L70.388 109.204C70.3413 108.943 70.2527 108.625 70.122 108.252C70.0007 107.879 69.87 107.538 69.73 107.23ZM70.206 112.34H71.718V118.346C71.718 118.682 71.6807 118.948 71.606 119.144C71.5313 119.349 71.3867 119.508 71.172 119.62C70.9667 119.723 70.7193 119.788 70.43 119.816C70.15 119.844 69.8187 119.858 69.436 119.858C69.408 119.662 69.352 119.433 69.268 119.172C69.184 118.911 69.0907 118.682 68.988 118.486C69.1933 118.495 69.394 118.5 69.59 118.5C69.7953 118.5 69.9353 118.5 70.01 118.5C70.1407 118.5 70.206 118.439 70.206 118.318V112.34ZM74.672 108.294H76.226V113.236C76.226 113.749 76.2073 114.305 76.17 114.902C76.142 115.49 76.0813 116.087 75.988 116.694C75.8947 117.301 75.7547 117.884 75.568 118.444C75.3907 118.995 75.148 119.489 74.84 119.928C74.756 119.825 74.63 119.709 74.462 119.578C74.3033 119.447 74.14 119.321 73.972 119.2C73.804 119.079 73.664 118.99 73.552 118.934C73.8973 118.411 74.1493 117.823 74.308 117.17C74.4667 116.517 74.5647 115.849 74.602 115.168C74.6487 114.487 74.672 113.843 74.672 113.236V108.294ZM71.956 116.176L73.048 115.574C73.272 115.882 73.4867 116.227 73.692 116.61C73.9067 116.983 74.0747 117.305 74.196 117.576L73.048 118.276C72.936 117.996 72.7727 117.66 72.558 117.268C72.3527 116.867 72.152 116.503 71.956 116.176ZM68.582 115.7L69.884 116.036C69.716 116.503 69.506 116.969 69.254 117.436C69.002 117.893 68.736 118.276 68.456 118.584C68.3347 118.472 68.162 118.337 67.938 118.178C67.714 118.01 67.5227 117.879 67.364 117.786C67.6253 117.515 67.8587 117.193 68.064 116.82C68.2787 116.447 68.4513 116.073 68.582 115.7ZM89.582 117.226H93.166V118.836H89.582V117.226ZM81.7 109.47H86.824V111.108H81.7V109.47ZM88.826 108.56H93.922V119.718H92.242V110.184H90.436V119.816H88.826V108.56ZM86.418 109.47H88.042C88.042 109.47 88.042 109.521 88.042 109.624C88.042 109.717 88.042 109.825 88.042 109.946C88.042 110.067 88.0373 110.165 88.028 110.24C88 111.733 87.9673 113.007 87.93 114.062C87.902 115.107 87.8647 115.966 87.818 116.638C87.7807 117.31 87.7247 117.837 87.65 118.22C87.5753 118.603 87.482 118.873 87.37 119.032C87.2113 119.265 87.048 119.433 86.88 119.536C86.712 119.639 86.5113 119.713 86.278 119.76C86.0727 119.807 85.8207 119.83 85.522 119.83C85.2233 119.839 84.9107 119.835 84.584 119.816C84.5747 119.573 84.528 119.289 84.444 118.962C84.36 118.645 84.248 118.369 84.108 118.136C84.388 118.155 84.6447 118.169 84.878 118.178C85.1113 118.187 85.2933 118.192 85.424 118.192C85.5267 118.192 85.6153 118.173 85.69 118.136C85.7647 118.099 85.8347 118.029 85.9 117.926C85.9747 117.823 86.04 117.609 86.096 117.282C86.152 116.955 86.1987 116.479 86.236 115.854C86.2733 115.229 86.306 114.426 86.334 113.446C86.362 112.457 86.39 111.253 86.418 109.834V109.47ZM83.366 107.16H85.018C85.018 108.541 84.9947 109.862 84.948 111.122C84.9107 112.373 84.8173 113.549 84.668 114.65C84.5187 115.751 84.2713 116.764 83.926 117.688C83.59 118.603 83.1187 119.41 82.512 120.11C82.428 119.97 82.316 119.821 82.176 119.662C82.036 119.503 81.8867 119.354 81.728 119.214C81.5693 119.074 81.42 118.962 81.28 118.878C81.7187 118.383 82.0687 117.828 82.33 117.212C82.6007 116.587 82.806 115.905 82.946 115.168C83.0953 114.431 83.198 113.642 83.254 112.802C83.31 111.953 83.3427 111.057 83.352 110.114C83.3613 109.162 83.366 108.177 83.366 107.16ZM101.314 108.854H107.362V110.394H101.314V108.854ZM106.844 108.854H107.096L107.348 108.798L108.58 109.036C108.459 109.577 108.314 110.128 108.146 110.688C107.978 111.239 107.815 111.71 107.656 112.102L106.186 111.78C106.298 111.435 106.415 111.01 106.536 110.506C106.667 109.993 106.769 109.512 106.844 109.064V108.854ZM103.512 106.95H105.136V113.082H103.512V106.95ZM100.446 108.854H102.042V112.606C102.042 113.166 102.014 113.773 101.958 114.426C101.902 115.079 101.799 115.747 101.65 116.428C101.501 117.1 101.277 117.749 100.978 118.374C100.689 118.99 100.306 119.545 99.83 120.04C99.746 119.928 99.6247 119.797 99.466 119.648C99.3167 119.508 99.158 119.373 98.99 119.242C98.8313 119.111 98.696 119.013 98.584 118.948C99.004 118.509 99.34 118.024 99.592 117.492C99.844 116.96 100.031 116.409 100.152 115.84C100.273 115.271 100.353 114.711 100.39 114.16C100.427 113.609 100.446 113.087 100.446 112.592V108.854ZM101.468 112.354H106.704V113.824H101.468V112.354ZM106.452 112.354H106.76L107.04 112.312L108.09 112.676C107.81 113.973 107.39 115.103 106.83 116.064C106.27 117.016 105.589 117.823 104.786 118.486C103.983 119.139 103.083 119.667 102.084 120.068C101.981 119.872 101.837 119.639 101.65 119.368C101.473 119.097 101.305 118.883 101.146 118.724C101.799 118.5 102.411 118.201 102.98 117.828C103.559 117.455 104.077 117.011 104.534 116.498C105.001 115.975 105.393 115.392 105.71 114.748C106.037 114.095 106.284 113.39 106.452 112.634V112.354ZM103.134 113.348C103.563 114.636 104.24 115.742 105.164 116.666C106.088 117.59 107.273 118.253 108.72 118.654C108.608 118.775 108.482 118.915 108.342 119.074C108.202 119.242 108.071 119.415 107.95 119.592C107.838 119.779 107.74 119.947 107.656 120.096C106.135 119.573 104.898 118.771 103.946 117.688C102.994 116.596 102.257 115.261 101.734 113.684L103.134 113.348ZM95.546 110.198H100.068V111.794H95.546V110.198ZM97.058 107.146H98.626V116.428H97.058V107.146ZM95.336 116.204C95.7093 116.073 96.1387 115.91 96.624 115.714C97.1093 115.518 97.6273 115.308 98.178 115.084C98.7287 114.851 99.2747 114.622 99.816 114.398L100.18 115.84C99.4707 116.195 98.7473 116.545 98.01 116.89C97.282 117.235 96.6053 117.553 95.98 117.842L95.336 116.204ZM109.7 111.038H122.202V112.648H109.7V111.038ZM110.862 108.238H121.194V109.848H110.862V108.238ZM113.48 113.824H120.228V115.378H113.48V113.824ZM119.668 113.824H119.976L120.256 113.726L121.544 114.482C121.143 114.911 120.699 115.373 120.214 115.868C119.729 116.353 119.229 116.848 118.716 117.352C118.212 117.856 117.717 118.337 117.232 118.794L115.72 117.912C116.187 117.483 116.667 117.03 117.162 116.554C117.666 116.069 118.137 115.602 118.576 115.154C119.024 114.697 119.388 114.314 119.668 114.006V113.824ZM112.444 117.632L113.34 116.372C113.881 116.493 114.465 116.647 115.09 116.834C115.715 117.011 116.341 117.207 116.966 117.422C117.591 117.637 118.179 117.856 118.73 118.08C119.281 118.304 119.757 118.519 120.158 118.724L119.164 120.194C118.809 119.979 118.361 119.755 117.82 119.522C117.288 119.289 116.714 119.055 116.098 118.822C115.482 118.589 114.857 118.369 114.222 118.164C113.597 117.959 113.004 117.781 112.444 117.632ZM114.544 106.866L116.294 107.09C116.117 107.781 115.925 108.504 115.72 109.26C115.524 110.016 115.319 110.767 115.104 111.514C114.889 112.251 114.679 112.951 114.474 113.614C114.278 114.277 114.096 114.865 113.928 115.378L112.136 115.364C112.332 114.823 112.533 114.207 112.738 113.516C112.953 112.816 113.167 112.088 113.382 111.332C113.606 110.567 113.816 109.806 114.012 109.05C114.208 108.285 114.385 107.557 114.544 106.866ZM133.052 109.624L134.634 110.268C134.037 111.248 133.341 112.186 132.548 113.082C131.764 113.969 130.929 114.785 130.042 115.532C129.165 116.279 128.278 116.927 127.382 117.478C127.289 117.366 127.163 117.231 127.004 117.072C126.855 116.904 126.696 116.741 126.528 116.582C126.36 116.423 126.215 116.293 126.094 116.19C127.018 115.705 127.909 115.121 128.768 114.44C129.627 113.759 130.425 113.007 131.162 112.186C131.899 111.365 132.529 110.511 133.052 109.624ZM126.682 111.08L127.844 110.058C128.432 110.515 129.062 111.01 129.734 111.542C130.406 112.065 131.078 112.606 131.75 113.166C132.422 113.717 133.047 114.253 133.626 114.776C134.214 115.299 134.704 115.779 135.096 116.218L133.78 117.464C133.416 117.025 132.954 116.54 132.394 116.008C131.843 115.467 131.237 114.911 130.574 114.342C129.921 113.763 129.258 113.194 128.586 112.634C127.923 112.074 127.289 111.556 126.682 111.08ZM136.034 107.566V109.176H125.8V118.094H136.412V119.704H124.148V107.566H136.034Z" fill="#6C5DD3"/>
<path fill-rule="evenodd" clip-rule="evenodd" d="M59.3126 144.919C59.3429 144.806 59.2127 144.711 59.0763 144.746L56.1915 145.492C56.0529 145.528 56.012 145.671 56.1182 145.749L56.8857 146.309C56.2723 146.577 56.0283 147.103 55.8459 147.495L55.8459 147.495C55.8274 147.535 55.8096 147.574 55.7921 147.61C55.5768 148.06 55.364 148.417 54.814 148.625C54.5246 148.735 54.1849 148.707 53.728 148.541C53.2952 148.384 52.8363 148.132 52.3115 147.844L52.3114 147.844L52.1716 147.767C51.6132 147.461 50.9844 147.125 50.3406 146.928C49.6798 146.726 48.9669 146.66 48.266 146.925C47.555 147.195 47.1645 147.711 46.9414 148.278C46.7222 148.834 46.6494 149.479 46.5998 150.063C46.5905 150.173 46.582 150.28 46.5737 150.385L46.5737 150.385C46.5361 150.86 46.5028 151.28 46.4172 151.631C46.3112 152.067 46.1565 152.249 45.9837 152.315C45.6501 152.441 45.4029 152.473 45.2036 152.47C44.9964 152.467 44.8129 152.427 44.5681 152.372L44.5455 152.367C44.3136 152.314 44.0214 152.247 43.6853 152.241C43.3287 152.233 42.9481 152.293 42.5102 152.458C41.5767 152.812 41.0762 153.589 40.81 154.206C40.6734 154.522 40.5893 154.817 40.5392 155.032C40.5141 155.141 40.4973 155.23 40.4866 155.294C40.4812 155.325 40.4774 155.351 40.4748 155.369L40.4718 155.391L40.471 155.397L40.4707 155.4L40.4706 155.4L40.4706 155.401C40.4706 155.401 40.4706 155.401 40.968 155.491L40.4706 155.401C40.4408 155.653 40.6532 155.901 40.9451 155.954C41.2369 156.007 41.4975 155.845 41.5275 155.593L41.5275 155.593L41.5277 155.591L41.5294 155.579C41.531 155.567 41.5339 155.548 41.538 155.524C41.5464 155.474 41.5602 155.4 41.5813 155.309C41.6238 155.126 41.6949 154.878 41.8086 154.614C42.0431 154.072 42.4242 153.545 43.0144 153.322C43.3385 153.199 43.5784 153.17 43.7728 153.174C43.9767 153.178 44.1578 153.218 44.4058 153.274L44.4157 153.276L44.4157 153.276C44.601 153.318 44.8238 153.369 45.078 153.392C45.149 153.398 45.2224 153.402 45.2981 153.403C45.6579 153.408 46.0434 153.347 46.4879 153.178C47.093 152.949 47.3357 152.416 47.4573 151.916C47.5593 151.498 47.5984 150.999 47.6358 150.522C47.6435 150.423 47.6512 150.325 47.6594 150.228C47.709 149.644 47.7765 149.103 47.9498 148.663C48.1192 148.233 48.3735 147.939 48.7702 147.789C49.177 147.635 49.6043 147.659 50.0886 147.807C50.5898 147.96 51.1111 148.233 51.6805 148.545L51.8335 148.629C52.3364 148.906 52.8824 149.206 53.413 149.399C54.012 149.617 54.6784 149.731 55.3182 149.489C56.216 149.149 56.5457 148.533 56.7784 148.046L56.8022 147.996C57.0359 147.507 57.1543 147.26 57.4732 147.139C57.5904 147.094 57.6743 147.014 57.7179 146.917L58.3625 147.388C58.4687 147.465 58.6414 147.419 58.6722 147.304L59.3126 144.919Z" fill="#0049C6"/>
<path d="M69.1 147.941H73.44V149.565H69.1V147.941ZM78.284 144.161H79.978V152.421C79.978 152.813 79.9313 153.149 79.838 153.429C79.754 153.7 79.5767 153.905 79.306 154.045C79.0447 154.195 78.732 154.293 78.368 154.339C78.004 154.377 77.5887 154.395 77.122 154.395C77.094 154.227 77.0473 154.036 76.982 153.821C76.9167 153.597 76.8373 153.378 76.744 153.163C76.66 152.949 76.5713 152.767 76.478 152.617C76.8047 152.627 77.1173 152.636 77.416 152.645C77.7147 152.645 77.9153 152.645 78.018 152.645C78.1207 152.636 78.1907 152.613 78.228 152.575C78.2653 152.538 78.284 152.468 78.284 152.365V144.161ZM74.238 144.161H79.208V145.827H75.932V156.327H74.238V144.161ZM72.39 143.531L73.664 144.889C73.188 145.076 72.6747 145.253 72.124 145.421C71.5733 145.58 71.018 145.725 70.458 145.855C69.898 145.986 69.352 146.098 68.82 146.191C68.7827 146.014 68.708 145.795 68.596 145.533C68.4933 145.263 68.3953 145.039 68.302 144.861C68.7873 144.74 69.282 144.609 69.786 144.469C70.29 144.329 70.766 144.18 71.214 144.021C71.662 143.853 72.054 143.69 72.39 143.531ZM68.302 144.861H70.024V153.471L68.246 154.801C68.218 154.661 68.1667 154.479 68.092 154.255C68.0173 154.031 67.9333 153.807 67.84 153.583C67.756 153.359 67.6673 153.173 67.574 153.023C67.742 152.949 67.9053 152.832 68.064 152.673C68.2227 152.515 68.302 152.3 68.302 152.029V144.861ZM68.246 154.801L68.12 153.303L68.918 152.729L73.412 151.819C73.412 152.071 73.4213 152.351 73.44 152.659C73.4587 152.958 73.482 153.205 73.51 153.401C72.6887 153.588 71.9933 153.751 71.424 153.891C70.8547 154.022 70.3833 154.134 70.01 154.227C69.6367 154.321 69.3333 154.4 69.1 154.465C68.876 154.531 68.6987 154.591 68.568 154.647C68.4467 154.694 68.3393 154.745 68.246 154.801ZM84.514 147.213H94.23V148.543H84.514V147.213ZM84.612 151.301H92.298V152.603H84.612V151.301ZM86.404 146.289H87.986V149.467H90.562V146.289H92.2V150.741H86.404V146.289ZM91.878 151.301H92.2L92.494 151.231L93.544 151.763C93.1613 152.501 92.662 153.131 92.046 153.653C91.4393 154.167 90.744 154.601 89.96 154.955C89.1853 155.301 88.3453 155.576 87.44 155.781C86.544 155.987 85.6013 156.145 84.612 156.257C84.556 156.061 84.458 155.823 84.318 155.543C84.1873 155.263 84.0567 155.035 83.926 154.857C84.822 154.792 85.6853 154.68 86.516 154.521C87.3467 154.363 88.112 154.153 88.812 153.891C89.512 153.621 90.1233 153.289 90.646 152.897C91.1687 152.505 91.5793 152.039 91.878 151.497V151.301ZM86.992 152.281C87.4493 152.795 88.0513 153.233 88.798 153.597C89.554 153.952 90.422 154.237 91.402 154.451C92.3913 154.657 93.46 154.801 94.608 154.885C94.4867 154.997 94.3653 155.142 94.244 155.319C94.1227 155.497 94.006 155.674 93.894 155.851C93.782 156.029 93.6933 156.192 93.628 156.341C92.4333 156.22 91.3273 156.015 90.31 155.725C89.302 155.445 88.3967 155.067 87.594 154.591C86.8007 154.106 86.1193 153.518 85.55 152.827L86.992 152.281ZM83.338 144.413H94.37V145.967H83.338V144.413ZM82.554 144.413H84.22V148.151C84.22 148.739 84.2013 149.388 84.164 150.097C84.136 150.797 84.0753 151.521 83.982 152.267C83.8887 153.005 83.7533 153.723 83.576 154.423C83.3987 155.114 83.1653 155.749 82.876 156.327C82.764 156.234 82.6147 156.141 82.428 156.047C82.2413 155.954 82.05 155.865 81.854 155.781C81.658 155.697 81.4853 155.637 81.336 155.599C81.616 155.058 81.84 154.47 82.008 153.835C82.176 153.201 82.2973 152.547 82.372 151.875C82.4467 151.203 82.4933 150.55 82.512 149.915C82.54 149.281 82.554 148.693 82.554 148.151V144.413ZM87.482 143.475L89.19 143.097C89.33 143.396 89.4653 143.727 89.596 144.091C89.736 144.446 89.8293 144.754 89.876 145.015L88.07 145.435C88.0327 145.183 87.958 144.871 87.846 144.497C87.734 144.115 87.6127 143.774 87.482 143.475ZM97.1 143.811H98.794V147.857C98.794 148.473 98.7753 149.15 98.738 149.887C98.7007 150.625 98.6213 151.381 98.5 152.155C98.388 152.921 98.22 153.663 97.996 154.381C97.7813 155.1 97.4967 155.753 97.142 156.341C97.0393 156.248 96.8947 156.145 96.708 156.033C96.5307 155.921 96.344 155.814 96.148 155.711C95.952 155.618 95.7793 155.543 95.63 155.487C95.9753 154.937 96.2413 154.339 96.428 153.695C96.624 153.051 96.7687 152.389 96.862 151.707C96.9553 151.017 97.016 150.345 97.044 149.691C97.0813 149.029 97.1 148.417 97.1 147.857V143.811ZM98.262 143.811H107.18V148.347H98.262V146.821H105.472V145.323H98.262V143.811ZM99.844 148.921H101.538V153.583C101.538 153.779 101.561 153.929 101.608 154.031C101.664 154.125 101.771 154.19 101.93 154.227C102.089 154.255 102.331 154.269 102.658 154.269C102.742 154.269 102.877 154.269 103.064 154.269C103.251 154.269 103.461 154.269 103.694 154.269C103.927 154.269 104.161 154.269 104.394 154.269C104.627 154.269 104.842 154.269 105.038 154.269C105.243 154.269 105.402 154.269 105.514 154.269C105.785 154.269 105.99 154.227 106.13 154.143C106.27 154.059 106.368 153.891 106.424 153.639C106.48 153.387 106.527 153.014 106.564 152.519C106.695 152.603 106.849 152.692 107.026 152.785C107.213 152.869 107.404 152.944 107.6 153.009C107.805 153.075 107.987 153.121 108.146 153.149C108.071 153.859 107.95 154.409 107.782 154.801C107.614 155.184 107.362 155.45 107.026 155.599C106.69 155.758 106.223 155.837 105.626 155.837C105.533 155.837 105.379 155.837 105.164 155.837C104.959 155.837 104.725 155.837 104.464 155.837C104.203 155.837 103.937 155.837 103.666 155.837C103.405 155.837 103.171 155.837 102.966 155.837C102.77 155.837 102.625 155.837 102.532 155.837C101.823 155.837 101.272 155.772 100.88 155.641C100.497 155.511 100.227 155.282 100.068 154.955C99.9187 154.629 99.844 154.176 99.844 153.597V148.921ZM106.172 149.439L107.138 150.909C106.541 151.143 105.906 151.376 105.234 151.609C104.562 151.843 103.881 152.076 103.19 152.309C102.509 152.533 101.841 152.748 101.188 152.953C101.141 152.757 101.062 152.533 100.95 152.281C100.847 152.029 100.749 151.815 100.656 151.637C101.291 151.432 101.939 151.203 102.602 150.951C103.265 150.69 103.904 150.429 104.52 150.167C105.136 149.897 105.687 149.654 106.172 149.439ZM111.352 153.947H120.774V155.501H111.352V153.947ZM110.4 147.101H121.782V156.271H120.074V148.655H112.024V156.299H110.4V147.101ZM109.686 143.965H122.272V145.589H109.686V143.965ZM113.704 144.973H115.202V148.179C115.202 148.711 115.137 149.253 115.006 149.803C114.885 150.354 114.633 150.872 114.25 151.357C113.877 151.843 113.321 152.253 112.584 152.589C112.528 152.477 112.435 152.347 112.304 152.197C112.183 152.039 112.052 151.889 111.912 151.749C111.781 151.6 111.669 151.488 111.576 151.413C112.22 151.133 112.691 150.816 112.99 150.461C113.298 150.107 113.494 149.733 113.578 149.341C113.662 148.949 113.704 148.548 113.704 148.137V144.973ZM116.686 144.973H118.282V150.139C118.282 150.373 118.305 150.517 118.352 150.573C118.399 150.629 118.52 150.657 118.716 150.657C118.753 150.657 118.819 150.657 118.912 150.657C119.015 150.657 119.127 150.657 119.248 150.657C119.369 150.657 119.481 150.657 119.584 150.657C119.696 150.657 119.775 150.657 119.822 150.657C119.953 150.657 120.037 150.648 120.074 150.629C120.121 150.601 120.158 150.569 120.186 150.531C120.345 150.653 120.559 150.769 120.83 150.881C121.11 150.993 121.367 151.077 121.6 151.133C121.488 151.544 121.306 151.829 121.054 151.987C120.811 152.137 120.457 152.211 119.99 152.211C119.915 152.211 119.808 152.211 119.668 152.211C119.528 152.211 119.379 152.211 119.22 152.211C119.061 152.211 118.912 152.211 118.772 152.211C118.641 152.211 118.539 152.211 118.464 152.211C117.979 152.211 117.605 152.151 117.344 152.029C117.092 151.908 116.919 151.698 116.826 151.399C116.733 151.091 116.686 150.671 116.686 150.139V144.973ZM123.448 154.045H136.51V155.655H123.448V154.045ZM127.298 144.679H129.132V155.179H127.298V144.679ZM130.742 144.679H132.59V155.277H130.742V144.679ZM134.256 147.073L135.922 147.605C135.745 148.184 135.549 148.772 135.334 149.369C135.129 149.957 134.914 150.522 134.69 151.063C134.475 151.605 134.27 152.085 134.074 152.505L132.562 151.987C132.767 151.558 132.977 151.063 133.192 150.503C133.407 149.943 133.607 149.365 133.794 148.767C133.99 148.17 134.144 147.605 134.256 147.073ZM123.952 147.647L125.436 147.101C125.651 147.615 125.875 148.17 126.108 148.767C126.351 149.365 126.57 149.943 126.766 150.503C126.971 151.063 127.13 151.553 127.242 151.973L125.618 152.659C125.515 152.23 125.371 151.731 125.184 151.161C125.007 150.583 124.806 149.985 124.582 149.369C124.367 148.753 124.157 148.179 123.952 147.647ZM123.938 143.979H136.132V145.645H123.938V143.979ZM137.7 147.283H150.202V148.893H137.7V147.283ZM138.862 144.483H149.194V146.093H138.862V144.483ZM141.48 150.069H148.228V151.623H141.48V150.069ZM147.668 150.069H147.976L148.256 149.971L149.544 150.727C149.143 151.157 148.699 151.619 148.214 152.113C147.729 152.599 147.229 153.093 146.716 153.597C146.212 154.101 145.717 154.582 145.232 155.039L143.72 154.157C144.187 153.728 144.667 153.275 145.162 152.799C145.666 152.314 146.137 151.847 146.576 151.399C147.024 150.942 147.388 150.559 147.668 150.251V150.069ZM140.444 153.877L141.34 152.617C141.881 152.739 142.465 152.893 143.09 153.079C143.715 153.257 144.341 153.453 144.966 153.667C145.591 153.882 146.179 154.101 146.73 154.325C147.281 154.549 147.757 154.764 148.158 154.969L147.164 156.439C146.809 156.225 146.361 156.001 145.82 155.767C145.288 155.534 144.714 155.301 144.098 155.067C143.482 154.834 142.857 154.615 142.222 154.409C141.597 154.204 141.004 154.027 140.444 153.877ZM142.544 143.111L144.294 143.335C144.117 144.026 143.925 144.749 143.72 145.505C143.524 146.261 143.319 147.013 143.104 147.759C142.889 148.497 142.679 149.197 142.474 149.859C142.278 150.522 142.096 151.11 141.928 151.623L140.136 151.609C140.332 151.068 140.533 150.452 140.738 149.761C140.953 149.061 141.167 148.333 141.382 147.577C141.606 146.812 141.816 146.051 142.012 145.295C142.208 144.53 142.385 143.802 142.544 143.111ZM161.052 145.869L162.634 146.513C162.037 147.493 161.341 148.431 160.548 149.327C159.764 150.214 158.929 151.031 158.042 151.777C157.165 152.524 156.278 153.173 155.382 153.723C155.289 153.611 155.163 153.476 155.004 153.317C154.855 153.149 154.696 152.986 154.528 152.827C154.36 152.669 154.215 152.538 154.094 152.435C155.018 151.95 155.909 151.367 156.768 150.685C157.627 150.004 158.425 149.253 159.162 148.431C159.899 147.61 160.529 146.756 161.052 145.869ZM154.682 147.325L155.844 146.303C156.432 146.761 157.062 147.255 157.734 147.787C158.406 148.31 159.078 148.851 159.75 149.411C160.422 149.962 161.047 150.499 161.626 151.021C162.214 151.544 162.704 152.025 163.096 152.463L161.78 153.709C161.416 153.271 160.954 152.785 160.394 152.253C159.843 151.712 159.237 151.157 158.574 150.587C157.921 150.009 157.258 149.439 156.586 148.879C155.923 148.319 155.289 147.801 154.682 147.325ZM164.034 143.811V145.421H153.8V154.339H164.412V155.949H152.148V143.811H164.034Z" fill="#0049C6"/>
<path fill-rule="evenodd" clip-rule="evenodd" d="M59.8449 178.824C59.8752 178.711 59.7449 178.616 59.6085 178.651L56.7237 179.397C56.5852 179.433 56.5443 179.576 56.6504 179.653L57.4179 180.214C56.8046 180.482 56.5605 181.008 56.3782 181.4L56.3782 181.4C56.3597 181.44 56.3418 181.478 56.3243 181.515C56.109 181.965 55.8963 182.321 55.3463 182.53C55.0568 182.639 54.7171 182.612 54.2603 182.446C53.8274 182.289 53.3685 182.037 52.8437 181.749L52.8437 181.749L52.7038 181.672C52.1455 181.366 51.5166 181.03 50.8728 180.833C50.212 180.631 49.4992 180.565 48.7982 180.83C48.0872 181.099 47.6968 181.616 47.4737 182.182C47.2545 182.739 47.1816 183.383 47.1321 183.967C47.1227 184.077 47.1142 184.185 47.1059 184.29L47.1059 184.29C47.0683 184.765 47.0351 185.184 46.9494 185.536C46.8434 185.971 46.6888 186.154 46.5159 186.219C46.1824 186.346 45.9352 186.377 45.7359 186.375C45.5286 186.372 45.3451 186.332 45.1003 186.276L45.0777 186.271C44.8458 186.219 44.5536 186.152 44.2175 186.145C43.861 186.138 43.4803 186.197 43.0425 186.363C42.109 186.717 41.6085 187.494 41.3422 188.11C41.2056 188.427 41.1215 188.721 41.0715 188.937C41.0463 189.045 41.0295 189.135 41.0188 189.198C41.0134 189.23 41.0096 189.256 41.007 189.274L41.0041 189.296L41.0032 189.302L41.003 189.304L41.0029 189.305L41.0028 189.306C41.0028 189.306 41.0028 189.306 41.5003 189.396L41.0028 189.306C40.973 189.558 41.1855 189.806 41.4773 189.859C41.7691 189.911 42.0298 189.75 42.0597 189.498L42.0597 189.498L42.0599 189.496L42.0616 189.484C42.0633 189.472 42.0661 189.453 42.0703 189.428C42.0786 189.379 42.0924 189.305 42.1135 189.214C42.156 189.031 42.2271 188.783 42.3409 188.519C42.5753 187.976 42.9565 187.45 43.5466 187.227C43.8707 187.104 44.1106 187.075 44.305 187.078C44.5089 187.083 44.6901 187.123 44.938 187.179L44.9479 187.181L44.9479 187.181C45.1332 187.223 45.356 187.274 45.6103 187.296C45.6812 187.303 45.7546 187.307 45.8303 187.308C46.1901 187.313 46.5757 187.251 47.0201 187.083C47.6253 186.854 47.868 186.32 47.9896 185.821C48.0915 185.402 48.1306 184.903 48.168 184.427C48.1758 184.328 48.1835 184.229 48.1916 184.133C48.2412 183.548 48.3087 183.008 48.482 182.568C48.6514 182.137 48.9057 181.844 49.3024 181.694C49.7093 181.54 50.1365 181.564 50.6208 181.712C51.1221 181.865 51.6433 182.138 52.2127 182.45L52.3658 182.534C52.8686 182.81 53.4147 183.111 53.9453 183.304C54.5442 183.521 55.2106 183.636 55.8504 183.393C56.7482 183.053 57.0779 182.437 57.3106 181.951L57.3345 181.901C57.5682 181.412 57.6865 181.164 58.0054 181.044C58.1226 180.999 58.2065 180.919 58.2502 180.822L58.8947 181.293C59.0009 181.37 59.1737 181.323 59.2044 181.209L59.8449 178.824Z" fill="#FF754C"/>
<path d="M68.9462 188.23C69.3662 188.099 69.8516 187.945 70.4022 187.768C70.9622 187.581 71.5549 187.385 72.1802 187.18C72.8056 186.965 73.4262 186.751 74.0422 186.536L74.3082 187.838C73.5149 188.155 72.7122 188.473 71.9002 188.79C71.0976 189.107 70.3602 189.392 69.6882 189.644L68.9462 188.23ZM73.7482 184.002H75.3862V188.734C75.3862 189.089 75.3396 189.359 75.2462 189.546C75.1622 189.742 74.9942 189.896 74.7422 190.008C74.4902 190.111 74.1916 190.171 73.8462 190.19C73.5102 190.209 73.1089 190.218 72.6422 190.218C72.6142 190.013 72.5489 189.784 72.4462 189.532C72.3529 189.289 72.2549 189.075 72.1522 188.888C72.4229 188.897 72.6936 188.907 72.9642 188.916C73.2349 188.916 73.4169 188.911 73.5102 188.902C73.6689 188.902 73.7482 188.832 73.7482 188.692V184.002ZM74.1962 187.264L75.1622 186.13C75.7036 186.345 76.2636 186.592 76.8422 186.872C77.4302 187.143 77.9902 187.418 78.5222 187.698C79.0636 187.969 79.5302 188.211 79.9222 188.426L78.9282 189.7C78.5549 189.457 78.0976 189.191 77.5562 188.902C77.0149 188.603 76.4502 188.314 75.8622 188.034C75.2836 187.745 74.7282 187.488 74.1962 187.264ZM70.5562 186.2L71.6622 185.332C71.9142 185.5 72.1802 185.701 72.4602 185.934C72.7402 186.158 72.9549 186.363 73.1042 186.55L71.9422 187.502C71.8022 187.315 71.5969 187.096 71.3262 186.844C71.0649 186.592 70.8082 186.377 70.5562 186.2ZM77.0802 185.206L78.4102 186.018C78.1116 186.363 77.7896 186.704 77.4442 187.04C77.0989 187.367 76.7909 187.642 76.5202 187.866L75.3722 187.11C75.5589 186.942 75.7549 186.751 75.9602 186.536C76.1749 186.312 76.3802 186.083 76.5762 185.85C76.7722 185.617 76.9402 185.402 77.0802 185.206ZM68.1622 182.224H80.9162V183.596H68.1622V182.224ZM69.6742 180.236H79.6422V181.524H69.6742V180.236ZM68.9602 178.248H80.1882V179.578H68.9602V178.248ZM77.2202 182.42C77.4909 182.868 77.8316 183.288 78.2422 183.68C78.6529 184.063 79.1196 184.408 79.6422 184.716C80.1742 185.015 80.7389 185.257 81.3362 185.444C81.2056 185.547 81.0702 185.682 80.9302 185.85C80.7902 186.009 80.6596 186.177 80.5382 186.354C80.4169 186.522 80.3142 186.676 80.2302 186.816C79.5956 186.564 79.0029 186.247 78.4522 185.864C77.9016 185.472 77.4022 185.024 76.9542 184.52C76.5062 184.007 76.1236 183.461 75.8062 182.882L77.2202 182.42ZM73.6082 177.058L75.3722 177.212C75.2042 178.145 74.9662 179.069 74.6582 179.984C74.3596 180.889 73.9676 181.762 73.4822 182.602C72.9969 183.442 72.3949 184.221 71.6762 184.94C70.9669 185.659 70.1222 186.303 69.1422 186.872C69.0582 186.741 68.9416 186.606 68.7922 186.466C68.6522 186.317 68.4982 186.177 68.3302 186.046C68.1716 185.906 68.0222 185.803 67.8822 185.738C68.8342 185.243 69.6509 184.669 70.3322 184.016C71.0136 183.363 71.5782 182.658 72.0262 181.902C72.4742 181.137 72.8242 180.348 73.0762 179.536C73.3376 178.715 73.5149 177.889 73.6082 177.058ZM85.0042 179.956H91.9202V181.412H85.0042V179.956ZM85.3822 182.742H91.6122V184.156H85.3822V182.742ZM84.8642 185.822H92.1582V187.194H84.8642V185.822ZM87.6782 180.418H89.2322V186.55H87.6782V180.418ZM89.6802 184.604L90.7442 184.058C90.9496 184.254 91.1642 184.483 91.3882 184.744C91.6122 184.996 91.7802 185.22 91.8922 185.416L90.7722 186.046C90.6602 185.85 90.4969 185.617 90.2822 185.346C90.0769 185.075 89.8762 184.828 89.6802 184.604ZM82.5962 177.66H94.4262V190.232H92.6342V179.2H84.3042V190.232H82.5962V177.66ZM83.5342 187.992H93.4602V189.546H83.5342V187.992ZM96.2322 181.188H108.734V182.798H96.2322V181.188ZM97.3942 178.388H107.726V179.998H97.3942V178.388ZM100.012 183.974H106.76V185.528H100.012V183.974ZM106.2 183.974H106.508L106.788 183.876L108.076 184.632C107.675 185.061 107.232 185.523 106.746 186.018C106.261 186.503 105.762 186.998 105.248 187.502C104.744 188.006 104.25 188.487 103.764 188.944L102.252 188.062C102.719 187.633 103.2 187.18 103.694 186.704C104.198 186.219 104.67 185.752 105.108 185.304C105.556 184.847 105.92 184.464 106.2 184.156V183.974ZM98.9762 187.782L99.8722 186.522C100.414 186.643 100.997 186.797 101.622 186.984C102.248 187.161 102.873 187.357 103.498 187.572C104.124 187.787 104.712 188.006 105.262 188.23C105.813 188.454 106.289 188.669 106.69 188.874L105.696 190.344C105.342 190.129 104.894 189.905 104.352 189.672C103.82 189.439 103.246 189.205 102.63 188.972C102.014 188.739 101.389 188.519 100.754 188.314C100.129 188.109 99.5362 187.931 98.9762 187.782ZM101.076 177.016L102.826 177.24C102.649 177.931 102.458 178.654 102.252 179.41C102.056 180.166 101.851 180.917 101.636 181.664C101.422 182.401 101.212 183.101 101.006 183.764C100.81 184.427 100.628 185.015 100.46 185.528L98.6682 185.514C98.8642 184.973 99.0649 184.357 99.2702 183.666C99.4849 182.966 99.6996 182.238 99.9142 181.482C100.138 180.717 100.348 179.956 100.544 179.2C100.74 178.435 100.918 177.707 101.076 177.016ZM119.584 179.774L121.166 180.418C120.569 181.398 119.874 182.336 119.08 183.232C118.296 184.119 117.461 184.935 116.574 185.682C115.697 186.429 114.81 187.077 113.914 187.628C113.821 187.516 113.695 187.381 113.536 187.222C113.387 187.054 113.228 186.891 113.06 186.732C112.892 186.573 112.748 186.443 112.626 186.34C113.55 185.855 114.442 185.271 115.3 184.59C116.159 183.909 116.957 183.157 117.694 182.336C118.432 181.515 119.062 180.661 119.584 179.774ZM113.214 181.23L114.376 180.208C114.964 180.665 115.594 181.16 116.266 181.692C116.938 182.215 117.61 182.756 118.282 183.316C118.954 183.867 119.58 184.403 120.158 184.926C120.746 185.449 121.236 185.929 121.628 186.368L120.312 187.614C119.948 187.175 119.486 186.69 118.926 186.158C118.376 185.617 117.769 185.061 117.106 184.492C116.453 183.913 115.79 183.344 115.118 182.784C114.456 182.224 113.821 181.706 113.214 181.23ZM122.566 177.716V179.326H112.332V188.244H122.944V189.854H110.68V177.716H122.566Z" fill="#FF754C"/>
<circle cx="97.6" cy="224.6" r="1.6" fill="#8F95B2"/>
<circle cx="104" cy="224.6" r="1.6" fill="#8F95B2"/>
<circle cx="110.4" cy="224.6" r="1.6" fill="#8F95B2"/>
<defs>
<filter id="filter0_d_140_3184" x="0" y="0" width="206" height="268" filterUnits="userSpaceOnUse" color-interpolation-filters="sRGB">
<feFlood flood-opacity="0" result="BackgroundImageFix"/>
<feColorMatrix in="SourceAlpha" type="matrix" values="0 0 0 0 0 0 0 0 0 0 0 0 0 0 0 0 0 0 127 0" result="hardAlpha"/>
<feOffset dy="8"/>
<feGaussianBlur stdDeviation="8"/>
<feComposite in2="hardAlpha" operator="out"/>
<feColorMatrix type="matrix" values="0 0 0 0 0.560784 0 0 0 0 0.584314 0 0 0 0 0.698039 0 0 0 0.15 0"/>
<feBlend mode="normal" in2="BackgroundImageFix" result="effect1_dropShadow_140_3184"/>
<feBlend mode="normal" in="SourceGraphic" in2="effect1_dropShadow_140_3184" result="shape"/>
</filter>
</defs>
</svg>
