<svg width="866" height="159" viewBox="0 0 866 159" fill="none" xmlns="http://www.w3.org/2000/svg">
<path d="M747.65 107.939C792.608 99.6004 845.282 111.413 866 118.362V159H6.10352e-05V0C43.5072 4.7698 71.4761 43.9882 78.4683 68.8971C84.1712 89.2129 84.4247 103.699 114.724 107.939C145.186 112.201 181.302 98.6377 211.861 80.2652C236.308 65.5672 272.805 74.141 287.998 80.2652C314.931 90.9236 359.297 98.1518 394.931 87.2696C439.474 73.6669 464.077 77.5534 520.273 87.2696C576.47 96.9859 570.773 103.169 617.647 118.362C664.52 133.554 691.453 118.362 747.65 107.939Z" fill="url(#paint0_linear_105_7670)"/>
<defs>
<linearGradient id="paint0_linear_105_7670" x1="433" y1="0" x2="433" y2="159" gradientUnits="userSpaceOnUse">
<stop stop-color="#6C5DD3" stop-opacity="0.56"/>
<stop offset="1" stop-color="#FFEBF6" stop-opacity="0.22"/>
</linearGradient>
</defs>
</svg>
