<svg width="866" height="149" viewBox="0 0 866 149" fill="none" xmlns="http://www.w3.org/2000/svg">
<path d="M117.58 80.84C72.915 72.5062 20.5829 84.3123 0 91.2571V149H866V12.3577C822.776 17.1249 786.057 15.8886 779.111 40.7839C773.445 61.0885 773.193 75.5666 743.09 79.804C712.827 84.064 695.235 59.1462 664.875 40.7839C640.587 26.0939 599.683 45.2094 584.588 51.3302C557.831 61.9827 497.002 38.7405 470.641 20.4703C433 -5.61738 383.499 -8.00344 346.114 20.4703C308.729 48.9441 271.647 25.5996 225.078 40.7839C178.509 55.9681 173.411 91.2571 117.58 80.84Z" fill="url(#paint0_linear_105_7673)" fill-opacity="0.54"/>
<defs>
<linearGradient id="paint0_linear_105_7673" x1="433" y1="0" x2="433" y2="149" gradientUnits="userSpaceOnUse">
<stop stop-color="#CDF4FF"/>
<stop offset="1" stop-color="#3F8CFF" stop-opacity="0.34"/>
</linearGradient>
</defs>
</svg>
