<svg width="322" height="300" viewBox="0 0 322 300" fill="none" xmlns="http://www.w3.org/2000/svg">
<g clip-path="url(#clip0_147_3221)">
<path fill-rule="evenodd" clip-rule="evenodd" d="M0 16C0 7.16345 7.16344 0 16 0H306C314.837 0 322 7.16344 322 16V284C322 292.837 314.837 300 306 300H16C7.16343 300 0 292.837 0 284V16Z" fill="#FAFAFA"/>
<path fill-rule="evenodd" clip-rule="evenodd" d="M129 72C129 54.3269 143.327 40 161 40C178.673 40 193 54.3269 193 72C193 89.6731 178.673 104 161 104C143.327 104 129 89.6731 129 72Z" fill="white"/>
<mask id="mask0_147_3221" style="mask-type:luminance" maskUnits="userSpaceOnUse" x="129" y="40" width="64" height="64">
<path fill-rule="evenodd" clip-rule="evenodd" d="M129 72C129 54.3269 143.327 40 161 40C178.673 40 193 54.3269 193 72C193 89.6731 178.673 104 161 104C143.327 104 129 89.6731 129 72Z" fill="white"/>
</mask>
<g mask="url(#mask0_147_3221)">
<path fill-rule="evenodd" clip-rule="evenodd" d="M161 71.6667C163.946 71.6667 166.333 69.2789 166.333 66.3333C166.333 63.3878 163.946 61 161 61C158.055 61 155.667 63.3878 155.667 66.3333C155.667 69.2789 158.055 71.6667 161 71.6667Z" stroke="#168AFF" stroke-width="2" stroke-linecap="round" stroke-linejoin="round"/>
<path d="M153 85V82.3333C153 80.9188 153.562 79.5623 154.562 78.5621C155.562 77.5619 156.919 77 158.333 77H163.667C165.081 77 166.438 77.5619 167.438 78.5621C168.438 79.5623 169 80.9188 169 82.3333V85" stroke="#168AFF" stroke-width="2" stroke-linecap="round" stroke-linejoin="round"/>
</g>
<path d="M123.7 138.54H129.84V140.22H123.7V138.54ZM131.58 138.82H138.5V140.54H131.58V138.82ZM126.52 133.08H128.24V139.52H126.52V133.08ZM123.78 142.84H128.72V151.64H126.98V144.52H123.78V142.84ZM122.96 133.58H124.7V141.42C124.7 142.3 124.68 143.207 124.64 144.14C124.6 145.06 124.52 145.973 124.4 146.88C124.28 147.787 124.1 148.653 123.86 149.48C123.62 150.307 123.3 151.067 122.9 151.76C122.793 151.64 122.66 151.507 122.5 151.36C122.34 151.213 122.173 151.067 122 150.92C121.84 150.787 121.687 150.68 121.54 150.6C121.86 149.973 122.113 149.287 122.3 148.54C122.487 147.78 122.627 147 122.72 146.2C122.813 145.387 122.873 144.573 122.9 143.76C122.94 142.947 122.96 142.173 122.96 141.44V133.58ZM138 138.82H138.34L138.64 138.76L139.78 139.04C139.5 141.24 139.033 143.167 138.38 144.82C137.727 146.46 136.907 147.853 135.92 149C134.933 150.133 133.793 151.047 132.5 151.74C132.42 151.58 132.313 151.407 132.18 151.22C132.06 151.033 131.927 150.847 131.78 150.66C131.647 150.473 131.513 150.32 131.38 150.2C132.527 149.667 133.553 148.887 134.46 147.86C135.367 146.82 136.12 145.573 136.72 144.12C137.333 142.653 137.76 141 138 139.16V138.82ZM133.9 139.94C134.22 141.473 134.66 142.913 135.22 144.26C135.78 145.607 136.48 146.793 137.32 147.82C138.173 148.833 139.18 149.633 140.34 150.22C140.207 150.34 140.053 150.487 139.88 150.66C139.72 150.833 139.567 151.013 139.42 151.2C139.273 151.4 139.153 151.58 139.06 151.74C137.86 151.033 136.833 150.113 135.98 148.98C135.127 147.847 134.413 146.54 133.84 145.06C133.28 143.58 132.827 141.973 132.48 140.24L133.9 139.94ZM138.98 133.26L140.1 134.88C139.26 135.067 138.333 135.24 137.32 135.4C136.307 135.547 135.267 135.673 134.2 135.78C133.133 135.873 132.1 135.947 131.1 136C131.073 135.773 131.007 135.507 130.9 135.2C130.807 134.88 130.707 134.613 130.6 134.4C131.587 134.333 132.593 134.24 133.62 134.12C134.647 134 135.62 133.873 136.54 133.74C137.473 133.593 138.287 133.433 138.98 133.26ZM130.6 134.4H132.42V141.24C132.42 142.08 132.393 142.967 132.34 143.9C132.3 144.833 132.213 145.773 132.08 146.72C131.947 147.653 131.747 148.56 131.48 149.44C131.213 150.307 130.86 151.1 130.42 151.82C130.313 151.713 130.167 151.593 129.98 151.46C129.807 151.327 129.62 151.193 129.42 151.06C129.233 150.94 129.067 150.84 128.92 150.76C129.293 150.093 129.593 149.367 129.82 148.58C130.047 147.78 130.213 146.953 130.32 146.1C130.44 145.247 130.513 144.407 130.54 143.58C130.58 142.753 130.6 141.973 130.6 141.24V134.4ZM149.56 134.9H158.62V136.72H149.56V134.9ZM157.96 134.88H158.26L158.58 134.82L159.78 135.18C159.487 137.38 159.033 139.36 158.42 141.12C157.82 142.867 157.08 144.413 156.2 145.76C155.32 147.107 154.313 148.267 153.18 149.24C152.06 150.213 150.84 151.013 149.52 151.64C149.44 151.48 149.333 151.3 149.2 151.1C149.067 150.913 148.927 150.727 148.78 150.54C148.633 150.353 148.487 150.2 148.34 150.08C149.567 149.573 150.707 148.88 151.76 148C152.813 147.107 153.753 146.04 154.58 144.8C155.42 143.547 156.127 142.127 156.7 140.54C157.273 138.953 157.693 137.2 157.96 135.28V134.88ZM151.86 136.42C152.153 138.127 152.52 139.667 152.96 141.04C153.4 142.4 153.947 143.627 154.6 144.72C155.267 145.813 156.067 146.807 157 147.7C157.947 148.593 159.08 149.427 160.4 150.2C160.147 150.387 159.887 150.627 159.62 150.92C159.367 151.213 159.173 151.5 159.04 151.78C157.667 150.9 156.487 149.967 155.5 148.98C154.513 147.98 153.68 146.887 153 145.7C152.32 144.513 151.753 143.187 151.3 141.72C150.847 140.24 150.46 138.587 150.14 136.76L151.86 136.42ZM141.86 137.22H149.44V139H141.86V137.22ZM145.06 133.12H146.9V151.66H145.06V133.12ZM144.8 138.34L146.04 138.76C145.88 139.6 145.673 140.467 145.42 141.36C145.167 142.24 144.88 143.107 144.56 143.96C144.24 144.813 143.893 145.607 143.52 146.34C143.147 147.073 142.76 147.7 142.36 148.22C142.293 148.02 142.193 147.807 142.06 147.58C141.94 147.34 141.813 147.107 141.68 146.88C141.547 146.64 141.42 146.44 141.3 146.28C141.66 145.84 142.013 145.313 142.36 144.7C142.72 144.073 143.053 143.407 143.36 142.7C143.68 141.98 143.96 141.247 144.2 140.5C144.453 139.753 144.653 139.033 144.8 138.34ZM146.84 139.82C146.96 139.94 147.14 140.12 147.38 140.36C147.62 140.587 147.887 140.853 148.18 141.16C148.473 141.453 148.76 141.753 149.04 142.06C149.32 142.353 149.573 142.62 149.8 142.86C150.027 143.1 150.187 143.273 150.28 143.38L149.16 145.12C149 144.84 148.773 144.507 148.48 144.12C148.2 143.72 147.893 143.307 147.56 142.88C147.24 142.44 146.933 142.033 146.64 141.66C146.347 141.287 146.107 141 145.92 140.8L146.84 139.82ZM167.5 138.6H174.62V140.2H167.5V138.6ZM162.18 149.62H179.84V151.24H162.18V149.62ZM162.96 133.86H169.24V135.42H162.96V133.86ZM168.72 133.86H169.06L169.38 133.78L170.64 134.42C170.28 135.407 169.813 136.327 169.24 137.18C168.667 138.033 168.02 138.813 167.3 139.52C166.593 140.227 165.84 140.86 165.04 141.42C164.24 141.98 163.427 142.46 162.6 142.86C162.52 142.713 162.413 142.553 162.28 142.38C162.147 142.207 162.007 142.033 161.86 141.86C161.713 141.687 161.573 141.547 161.44 141.44C162.187 141.12 162.927 140.713 163.66 140.22C164.393 139.713 165.087 139.147 165.74 138.52C166.407 137.88 166.993 137.2 167.5 136.48C168.02 135.747 168.427 134.993 168.72 134.22V133.86ZM172.62 133.18C173.113 134.313 173.753 135.4 174.54 136.44C175.34 137.467 176.253 138.387 177.28 139.2C178.307 140 179.407 140.633 180.58 141.1C180.447 141.22 180.293 141.373 180.12 141.56C179.96 141.747 179.807 141.94 179.66 142.14C179.513 142.34 179.387 142.527 179.28 142.7C178.053 142.127 176.913 141.393 175.86 140.5C174.807 139.593 173.867 138.567 173.04 137.42C172.213 136.26 171.52 135.02 170.96 133.7L172.62 133.18ZM162.86 137.12L163.88 136.08C164.213 136.253 164.553 136.46 164.9 136.7C165.247 136.94 165.573 137.187 165.88 137.44C166.187 137.693 166.427 137.933 166.6 138.16L165.52 139.3C165.347 139.087 165.113 138.853 164.82 138.6C164.527 138.333 164.207 138.073 163.86 137.82C163.513 137.553 163.18 137.32 162.86 137.12ZM176.22 133.3L177.66 134.3C177.113 134.78 176.527 135.26 175.9 135.74C175.287 136.22 174.72 136.627 174.2 136.96L173.06 136.08C173.393 135.827 173.753 135.54 174.14 135.22C174.527 134.9 174.9 134.573 175.26 134.24C175.633 133.893 175.953 133.58 176.22 133.3ZM178.46 135.64L179.86 136.62C179.327 137.113 178.733 137.613 178.08 138.12C177.427 138.613 176.827 139.027 176.28 139.36L175.12 138.48C175.48 138.227 175.867 137.94 176.28 137.62C176.693 137.3 177.093 136.967 177.48 136.62C177.867 136.273 178.193 135.947 178.46 135.64ZM166.96 143.14V145.32H174.72V143.14H166.96ZM165.06 141.62H176.74V146.86H165.06V141.62ZM166.46 147.42L168.16 146.86C168.4 147.233 168.627 147.64 168.84 148.08C169.053 148.52 169.207 148.9 169.3 149.22L167.5 149.84C167.433 149.52 167.3 149.133 167.1 148.68C166.9 148.213 166.687 147.793 166.46 147.42ZM173.76 146.9L175.6 147.34C175.333 147.873 175.06 148.407 174.78 148.94C174.513 149.46 174.253 149.907 174 150.28L172.36 149.86C172.533 149.593 172.707 149.287 172.88 148.94C173.053 148.593 173.22 148.24 173.38 147.88C173.54 147.52 173.667 147.193 173.76 146.9ZM183.3 134.7L184.56 133.54C184.947 133.847 185.347 134.187 185.76 134.56C186.173 134.933 186.567 135.307 186.94 135.68C187.313 136.04 187.62 136.373 187.86 136.68L186.5 138.02C186.273 137.713 185.98 137.367 185.62 136.98C185.26 136.593 184.873 136.2 184.46 135.8C184.06 135.4 183.673 135.033 183.3 134.7ZM184.96 151.36L184.58 149.58L185.06 148.88L188.66 146.4C188.713 146.653 188.8 146.947 188.92 147.28C189.04 147.6 189.147 147.86 189.24 148.06C188.4 148.66 187.713 149.153 187.18 149.54C186.66 149.927 186.247 150.233 185.94 150.46C185.647 150.687 185.427 150.867 185.28 151C185.147 151.133 185.04 151.253 184.96 151.36ZM181.86 139.34H186.3V141.16H181.86V139.34ZM184.96 151.36C184.907 151.227 184.813 151.067 184.68 150.88C184.56 150.707 184.433 150.533 184.3 150.36C184.167 150.187 184.047 150.06 183.94 149.98C184.14 149.807 184.353 149.547 184.58 149.2C184.807 148.853 184.92 148.42 184.92 147.9V139.34H186.8V149.1C186.8 149.1 186.733 149.16 186.6 149.28C186.48 149.387 186.327 149.527 186.14 149.7C185.967 149.873 185.787 150.06 185.6 150.26C185.427 150.46 185.273 150.653 185.14 150.84C185.02 151.04 184.96 151.213 184.96 151.36ZM190.52 140.98H198.14V142.78H190.52V140.98ZM189.72 140.98H191.68V148.56C191.68 148.973 191.76 149.247 191.92 149.38C192.093 149.5 192.487 149.56 193.1 149.56C193.207 149.56 193.387 149.56 193.64 149.56C193.907 149.56 194.2 149.56 194.52 149.56C194.853 149.56 195.187 149.56 195.52 149.56C195.853 149.56 196.153 149.56 196.42 149.56C196.687 149.56 196.893 149.56 197.04 149.56C197.427 149.56 197.72 149.48 197.92 149.32C198.12 149.16 198.26 148.847 198.34 148.38C198.42 147.913 198.48 147.22 198.52 146.3C198.667 146.407 198.847 146.513 199.06 146.62C199.273 146.727 199.493 146.82 199.72 146.9C199.947 146.98 200.153 147.04 200.34 147.08C200.247 148.187 200.1 149.053 199.9 149.68C199.7 150.307 199.387 150.747 198.96 151C198.533 151.253 197.933 151.38 197.16 151.38C197.053 151.38 196.853 151.38 196.56 151.38C196.28 151.38 195.953 151.38 195.58 151.38C195.22 151.38 194.853 151.38 194.48 151.38C194.12 151.38 193.793 151.38 193.5 151.38C193.22 151.38 193.033 151.38 192.94 151.38C192.127 151.38 191.487 151.3 191.02 151.14C190.553 150.98 190.22 150.693 190.02 150.28C189.82 149.88 189.72 149.307 189.72 148.56V140.98ZM189.34 134.48H199V143.8H197.1V136.36H189.34V134.48Z" fill="#111827"/>
<path d="M69.874 177.748H74.508V178.952H69.874V177.748ZM69.678 184.314H74.508V185.49H69.678V184.314ZM69.146 180.338H75.152V186.19H73.794V181.514H70.434V186.204H69.146V180.338ZM72.66 173.632C72.9307 174.211 73.2713 174.78 73.682 175.34C74.102 175.9 74.5593 176.413 75.054 176.88C75.558 177.347 76.0713 177.725 76.594 178.014C76.4913 178.098 76.3793 178.205 76.258 178.336C76.146 178.467 76.034 178.602 75.922 178.742C75.81 178.873 75.7167 178.994 75.642 179.106C75.11 178.751 74.592 178.303 74.088 177.762C73.5933 177.221 73.1313 176.628 72.702 175.984C72.282 175.331 71.9273 174.663 71.638 173.982L72.66 173.632ZM71.75 173.184L72.996 173.534C72.576 174.691 72.002 175.765 71.274 176.754C70.5553 177.734 69.706 178.569 68.726 179.26C68.6607 179.157 68.572 179.045 68.46 178.924C68.348 178.803 68.2313 178.686 68.11 178.574C67.9887 178.453 67.8767 178.355 67.774 178.28C68.3807 177.879 68.9407 177.407 69.454 176.866C69.9673 176.325 70.42 175.741 70.812 175.116C71.204 174.481 71.5167 173.837 71.75 173.184ZM64.666 174.458H67.816V182.48H64.666V181.248H66.584V175.676H64.666V174.458ZM63.98 174.458H65.198V183.782H63.98V174.458ZM77.784 177.776H90.23V178.938H77.784V177.776ZM87.682 173.142L88.788 173.87C88.172 174.29 87.4767 174.677 86.702 175.032C85.9367 175.377 85.1247 175.695 84.266 175.984C83.4073 176.273 82.5393 176.535 81.662 176.768C80.7847 176.992 79.9353 177.188 79.114 177.356C79.0487 177.253 78.96 177.132 78.848 176.992C78.7453 176.852 78.638 176.717 78.526 176.586C78.414 176.446 78.3113 176.334 78.218 176.25C79.086 176.119 79.9633 175.951 80.85 175.746C81.746 175.541 82.6093 175.307 83.44 175.046C84.28 174.775 85.0593 174.481 85.778 174.164C86.506 173.847 87.1407 173.506 87.682 173.142ZM83.846 179.232H85.134V186.176H83.846V179.232ZM80.108 180.52H88.382V181.696H81.424V185.406H80.108V180.52ZM87.794 180.52H89.124V183.964C89.124 184.281 89.082 184.529 88.998 184.706C88.9233 184.874 88.7693 185.009 88.536 185.112C88.312 185.196 88.0227 185.247 87.668 185.266C87.3133 185.294 86.884 185.308 86.38 185.308C86.352 185.121 86.296 184.925 86.212 184.72C86.1373 184.505 86.058 184.319 85.974 184.16C86.3287 184.169 86.6507 184.174 86.94 184.174C87.2387 184.174 87.4393 184.174 87.542 184.174C87.6353 184.174 87.7007 184.16 87.738 184.132C87.7753 184.095 87.794 184.034 87.794 183.95V180.52ZM79.128 174.178L80.038 173.38C80.7753 173.557 81.564 173.772 82.404 174.024C83.244 174.267 84.084 174.528 84.924 174.808C85.764 175.088 86.5527 175.373 87.29 175.662C88.0367 175.951 88.6853 176.227 89.236 176.488L88.228 177.426C87.724 177.174 87.1127 176.899 86.394 176.6C85.6847 176.301 84.9147 176.007 84.084 175.718C83.2533 175.419 82.4087 175.139 81.55 174.878C80.7007 174.607 79.8933 174.374 79.128 174.178ZM82.586 176.124L83.93 176.488C83.5753 177.384 83.1273 178.252 82.586 179.092C82.0447 179.932 81.4147 180.707 80.696 181.416C79.9867 182.116 79.1887 182.718 78.302 183.222C78.2273 183.119 78.1387 183.007 78.036 182.886C77.9333 182.755 77.826 182.634 77.714 182.522C77.602 182.401 77.504 182.298 77.42 182.214C78.26 181.766 79.016 181.22 79.688 180.576C80.3693 179.923 80.9527 179.213 81.438 178.448C81.9327 177.683 82.3153 176.908 82.586 176.124ZM95.648 174.542H104.104V175.69H95.648V174.542ZM95.032 184.706H104.468V185.84H95.032V184.706ZM96.32 176.852H103.292V184.972H102.074V177.86H97.51V184.972H96.32V176.852ZM97.174 178.854H102.326V179.806H97.174V178.854ZM97.146 180.814H102.606V181.738H97.146V180.814ZM97.132 182.76H102.354V183.712H97.132V182.76ZM99.302 173.198L100.702 173.254C100.627 173.721 100.539 174.201 100.436 174.696C100.343 175.191 100.24 175.667 100.128 176.124C100.025 176.572 99.9227 176.964 99.82 177.3L98.672 177.188C98.756 176.833 98.84 176.423 98.924 175.956C99.008 175.489 99.0827 175.013 99.148 174.528C99.2227 174.043 99.274 173.599 99.302 173.198ZM94.528 173.212L95.746 173.59C95.4567 174.383 95.1207 175.172 94.738 175.956C94.3553 176.731 93.9353 177.468 93.478 178.168C93.03 178.859 92.568 179.47 92.092 180.002C92.0547 179.899 91.9893 179.764 91.896 179.596C91.812 179.419 91.7233 179.246 91.63 179.078C91.5367 178.901 91.4527 178.761 91.378 178.658C91.798 178.21 92.1993 177.697 92.582 177.118C92.974 176.53 93.338 175.905 93.674 175.242C94.01 174.579 94.2947 173.903 94.528 173.212ZM93.1 176.978L94.318 175.718L94.332 175.732V186.176H93.1V176.978ZM107.912 175.83H117.628V177.118H107.912V175.83ZM107.31 179.932H117.11V181.206H107.31V179.932ZM105.742 184.454H118.314V185.742H105.742V184.454ZM111.342 173.184H112.714V185.098H111.342V173.184ZM108.15 173.38L109.522 173.688C109.317 174.407 109.069 175.116 108.78 175.816C108.5 176.507 108.192 177.151 107.856 177.748C107.52 178.336 107.17 178.854 106.806 179.302C106.713 179.227 106.591 179.143 106.442 179.05C106.302 178.947 106.157 178.849 106.008 178.756C105.859 178.653 105.723 178.574 105.602 178.518C105.985 178.107 106.335 177.631 106.652 177.09C106.969 176.539 107.254 175.947 107.506 175.312C107.767 174.677 107.982 174.033 108.15 173.38ZM121.464 178.434H124.824V179.652H121.464V178.434ZM124.32 178.434H125.608C125.608 178.434 125.608 178.467 125.608 178.532C125.608 178.597 125.603 178.672 125.594 178.756C125.594 178.84 125.594 178.91 125.594 178.966C125.575 179.983 125.552 180.814 125.524 181.458C125.496 182.102 125.454 182.597 125.398 182.942C125.342 183.278 125.263 183.511 125.16 183.642C125.039 183.791 124.908 183.899 124.768 183.964C124.628 184.029 124.455 184.076 124.25 184.104C124.073 184.132 123.835 184.146 123.536 184.146C123.237 184.146 122.92 184.141 122.584 184.132C122.575 183.936 122.537 183.721 122.472 183.488C122.407 183.255 122.323 183.054 122.22 182.886C122.509 182.914 122.78 182.933 123.032 182.942C123.284 182.951 123.471 182.956 123.592 182.956C123.685 182.956 123.765 182.947 123.83 182.928C123.905 182.9 123.97 182.858 124.026 182.802C124.091 182.718 124.143 182.536 124.18 182.256C124.217 181.967 124.245 181.533 124.264 180.954C124.292 180.375 124.311 179.605 124.32 178.644V178.434ZM128.366 173.954L129.178 173.156C129.458 173.296 129.752 173.459 130.06 173.646C130.368 173.823 130.657 174.005 130.928 174.192C131.199 174.379 131.423 174.551 131.6 174.71L130.76 175.606C130.592 175.447 130.373 175.27 130.102 175.074C129.841 174.878 129.556 174.682 129.248 174.486C128.949 174.29 128.655 174.113 128.366 173.954ZM130.228 177.678L131.558 178C130.97 179.82 130.158 181.416 129.122 182.788C128.095 184.16 126.877 185.271 125.468 186.12C125.412 186.017 125.323 185.896 125.202 185.756C125.081 185.625 124.959 185.49 124.838 185.35C124.717 185.219 124.605 185.112 124.502 185.028C125.893 184.281 127.069 183.283 128.03 182.032C128.991 180.781 129.724 179.33 130.228 177.678ZM121.548 175.438H132.37V176.74H121.548V175.438ZM120.666 175.438H122.052V179.456C122.052 179.969 122.033 180.525 121.996 181.122C121.959 181.719 121.889 182.331 121.786 182.956C121.683 183.572 121.534 184.169 121.338 184.748C121.142 185.327 120.881 185.845 120.554 186.302C120.489 186.218 120.381 186.115 120.232 185.994C120.092 185.873 119.947 185.756 119.798 185.644C119.658 185.541 119.537 185.462 119.434 185.406C119.817 184.846 120.092 184.221 120.26 183.53C120.437 182.83 120.549 182.125 120.596 181.416C120.643 180.707 120.666 180.049 120.666 179.442V175.438ZM126.434 173.198H127.82C127.811 174.43 127.853 175.615 127.946 176.754C128.039 177.883 128.175 178.933 128.352 179.904C128.529 180.875 128.739 181.719 128.982 182.438C129.225 183.157 129.495 183.717 129.794 184.118C130.102 184.519 130.415 184.72 130.732 184.72C130.919 184.72 131.059 184.524 131.152 184.132C131.245 183.74 131.311 183.091 131.348 182.186C131.507 182.335 131.693 182.48 131.908 182.62C132.123 182.76 132.319 182.863 132.496 182.928C132.421 183.759 132.314 184.403 132.174 184.86C132.034 185.317 131.838 185.635 131.586 185.812C131.343 185.989 131.026 186.078 130.634 186.078C130.149 186.078 129.705 185.915 129.304 185.588C128.912 185.261 128.557 184.799 128.24 184.202C127.932 183.605 127.666 182.905 127.442 182.102C127.227 181.299 127.045 180.417 126.896 179.456C126.747 178.495 126.635 177.487 126.56 176.432C126.485 175.368 126.443 174.29 126.434 173.198ZM136.71 185.854C136.421 185.499 136.099 185.135 135.744 184.762C135.399 184.389 135.044 184.029 134.68 183.684C134.325 183.339 133.985 183.031 133.658 182.76L134.806 181.752C135.142 182.023 135.497 182.34 135.87 182.704C136.243 183.059 136.607 183.427 136.962 183.81C137.326 184.183 137.639 184.529 137.9 184.846L136.71 185.854ZM157.164 175.718L158.41 176.222C157.803 177.23 157.108 178.196 156.324 179.12C155.549 180.035 154.723 180.879 153.846 181.654C152.969 182.419 152.077 183.096 151.172 183.684C151.097 183.591 150.995 183.479 150.864 183.348C150.743 183.217 150.617 183.091 150.486 182.97C150.355 182.839 150.239 182.737 150.136 182.662C151.06 182.139 151.956 181.519 152.824 180.8C153.692 180.072 154.495 179.279 155.232 178.42C155.979 177.552 156.623 176.651 157.164 175.718ZM150.654 176.992L151.578 176.208C152.185 176.684 152.829 177.207 153.51 177.776C154.191 178.336 154.863 178.91 155.526 179.498C156.198 180.086 156.819 180.655 157.388 181.206C157.967 181.747 158.452 182.242 158.844 182.69L157.794 183.67C157.43 183.213 156.968 182.709 156.408 182.158C155.857 181.598 155.255 181.015 154.602 180.408C153.949 179.801 153.281 179.209 152.6 178.63C151.928 178.042 151.279 177.496 150.654 176.992ZM160.006 173.87V175.144H149.562V184.496H160.37V185.77H148.274V173.87H160.006ZM166.614 175.48H173.362V180.226H172.13V176.726H166.614V175.48ZM166.236 179.568H174.314V180.828H166.236V179.568ZM170.702 180.044C171.001 181.192 171.467 182.205 172.102 183.082C172.737 183.959 173.558 184.608 174.566 185.028C174.473 185.112 174.365 185.224 174.244 185.364C174.123 185.513 174.006 185.658 173.894 185.798C173.791 185.947 173.707 186.083 173.642 186.204C172.923 185.849 172.303 185.383 171.78 184.804C171.257 184.225 170.814 183.558 170.45 182.802C170.095 182.037 169.801 181.192 169.568 180.268L170.702 180.044ZM168.952 173.338H170.226V178.196C170.226 178.952 170.179 179.703 170.086 180.45C169.993 181.197 169.797 181.92 169.498 182.62C169.209 183.311 168.77 183.959 168.182 184.566C167.594 185.173 166.81 185.719 165.83 186.204C165.774 186.101 165.69 185.985 165.578 185.854C165.475 185.733 165.363 185.611 165.242 185.49C165.13 185.369 165.023 185.271 164.92 185.196C165.835 184.776 166.558 184.3 167.09 183.768C167.631 183.227 168.033 182.653 168.294 182.046C168.565 181.43 168.742 180.8 168.826 180.156C168.91 179.503 168.952 178.845 168.952 178.182V173.338ZM161.686 176.502H165.998V177.748H161.686V176.502ZM163.282 173.352H164.528V182.536H163.282V173.352ZM161.448 182.564C161.821 182.424 162.251 182.256 162.736 182.06C163.231 181.864 163.753 181.649 164.304 181.416C164.855 181.183 165.401 180.954 165.942 180.73L166.25 181.906C165.513 182.251 164.771 182.601 164.024 182.956C163.277 183.301 162.591 183.609 161.966 183.88L161.448 182.564ZM176.834 173.212L177.954 173.506C177.814 174.029 177.641 174.551 177.436 175.074C177.231 175.597 177.002 176.091 176.75 176.558C176.507 177.015 176.241 177.421 175.952 177.776C175.924 177.692 175.873 177.575 175.798 177.426C175.723 177.267 175.639 177.113 175.546 176.964C175.462 176.805 175.387 176.679 175.322 176.586C175.658 176.166 175.957 175.657 176.218 175.06C176.479 174.463 176.685 173.847 176.834 173.212ZM177.002 174.682H179.732V175.83H176.778L177.002 174.682ZM177.086 186.05L176.862 184.944L177.156 184.496L179.438 182.914C179.485 183.073 179.545 183.255 179.62 183.46C179.695 183.656 179.76 183.81 179.816 183.922C179.275 184.314 178.836 184.631 178.5 184.874C178.173 185.117 177.912 185.313 177.716 185.462C177.529 185.611 177.389 185.728 177.296 185.812C177.212 185.905 177.142 185.985 177.086 186.05ZM176.19 177.314H179.452V178.448H176.19V177.314ZM175.658 180.198H179.802V181.346H175.658V180.198ZM177.086 186.05C177.049 185.966 176.988 185.863 176.904 185.742C176.829 185.63 176.75 185.518 176.666 185.406C176.582 185.303 176.503 185.219 176.428 185.154C176.559 185.051 176.703 184.879 176.862 184.636C177.03 184.393 177.114 184.095 177.114 183.74V177.944H178.304V184.552C178.304 184.552 178.243 184.608 178.122 184.72C178.001 184.832 177.861 184.967 177.702 185.126C177.543 185.294 177.399 185.462 177.268 185.63C177.147 185.798 177.086 185.938 177.086 186.05ZM182.238 174.794H188.412V175.928H182.238V174.794ZM184.982 176.502H186.158V184.174H184.982V176.502ZM182.686 179.414C182.667 179.33 182.635 179.223 182.588 179.092C182.551 178.952 182.504 178.812 182.448 178.672C182.401 178.532 182.355 178.411 182.308 178.308C182.42 178.271 182.527 178.173 182.63 178.014C182.742 177.846 182.854 177.631 182.966 177.37C183.022 177.249 183.101 177.043 183.204 176.754C183.316 176.465 183.433 176.124 183.554 175.732C183.685 175.34 183.806 174.92 183.918 174.472C184.039 174.024 184.137 173.581 184.212 173.142L185.458 173.38C185.299 174.024 185.108 174.673 184.884 175.326C184.66 175.97 184.422 176.586 184.17 177.174C183.927 177.753 183.675 178.275 183.414 178.742V178.77C183.414 178.77 183.377 178.793 183.302 178.84C183.237 178.887 183.153 178.943 183.05 179.008C182.957 179.073 182.873 179.143 182.798 179.218C182.723 179.293 182.686 179.358 182.686 179.414ZM182.686 179.414V178.42L183.316 178.098H188.09L188.076 179.204H183.806C183.545 179.204 183.307 179.223 183.092 179.26C182.887 179.297 182.751 179.349 182.686 179.414ZM182.378 180.814H188.356V181.962H182.378V180.814ZM181.944 178V184.23H180.74V179.204H179.564V178H181.944ZM179.886 173.968L180.964 173.632C181.169 174.043 181.37 174.491 181.566 174.976C181.762 175.461 181.907 175.881 182 176.236L180.852 176.628C180.796 176.385 180.717 176.115 180.614 175.816C180.511 175.508 180.395 175.195 180.264 174.878C180.143 174.551 180.017 174.248 179.886 173.968ZM181.51 183.432C181.715 183.432 181.911 183.502 182.098 183.642C182.285 183.782 182.527 183.941 182.826 184.118C183.171 184.333 183.559 184.477 183.988 184.552C184.417 184.627 184.903 184.664 185.444 184.664C185.733 184.664 186.069 184.659 186.452 184.65C186.835 184.631 187.222 184.608 187.614 184.58C188.006 184.552 188.356 184.519 188.664 184.482C188.627 184.603 188.58 184.748 188.524 184.916C188.477 185.075 188.435 185.233 188.398 185.392C188.37 185.56 188.351 185.705 188.342 185.826C188.109 185.845 187.815 185.859 187.46 185.868C187.115 185.887 186.76 185.901 186.396 185.91C186.041 185.919 185.715 185.924 185.416 185.924C184.828 185.924 184.31 185.868 183.862 185.756C183.423 185.653 183.017 185.485 182.644 185.252C182.401 185.093 182.182 184.944 181.986 184.804C181.799 184.664 181.636 184.594 181.496 184.594C181.375 184.594 181.23 184.669 181.062 184.818C180.903 184.958 180.735 185.145 180.558 185.378C180.381 185.611 180.213 185.854 180.054 186.106L179.214 184.874C179.597 184.463 179.993 184.123 180.404 183.852C180.815 183.572 181.183 183.432 181.51 183.432ZM193.774 181.22H202.426V182.452H193.774V181.22ZM194.922 177.636H200.508V178.84H194.922V177.636ZM197.526 180.142H198.856V184.706C198.856 185.061 198.809 185.336 198.716 185.532C198.632 185.728 198.459 185.877 198.198 185.98C197.937 186.073 197.601 186.129 197.19 186.148C196.789 186.167 196.294 186.176 195.706 186.176C195.678 185.989 195.627 185.775 195.552 185.532C195.487 185.299 195.407 185.093 195.314 184.916C195.594 184.925 195.865 184.935 196.126 184.944C196.387 184.944 196.616 184.944 196.812 184.944C197.008 184.944 197.143 184.939 197.218 184.93C197.339 184.921 197.419 184.902 197.456 184.874C197.503 184.837 197.526 184.771 197.526 184.678V180.142ZM200.172 177.636H200.494L200.774 177.566L201.614 178.238C201.315 178.565 200.975 178.891 200.592 179.218C200.219 179.545 199.827 179.857 199.416 180.156C199.015 180.445 198.623 180.702 198.24 180.926C198.156 180.805 198.039 180.669 197.89 180.52C197.741 180.361 197.619 180.235 197.526 180.142C197.853 179.955 198.184 179.731 198.52 179.47C198.856 179.209 199.169 178.938 199.458 178.658C199.757 178.378 199.995 178.121 200.172 177.888V177.636ZM189.826 175.004H202.188V176.278H189.826V175.004ZM194.292 173.17L195.664 173.506C195.328 174.607 194.903 175.695 194.39 176.768C193.877 177.832 193.261 178.826 192.542 179.75C191.823 180.674 190.979 181.472 190.008 182.144C189.961 182.032 189.901 181.901 189.826 181.752C189.751 181.593 189.672 181.439 189.588 181.29C189.504 181.141 189.425 181.015 189.35 180.912C189.994 180.473 190.573 179.965 191.086 179.386C191.609 178.798 192.075 178.163 192.486 177.482C192.897 176.791 193.251 176.082 193.55 175.354C193.858 174.626 194.105 173.898 194.292 173.17ZM191.52 178.952H192.85V186.162H191.52V178.952ZM212.044 174.528H213.402V185.028H212.044V174.528ZM209.076 177.818H210.392V185.126H209.076V177.818ZM212.52 178.854H215.964V180.086H212.52V178.854ZM208.376 174.164H216.23V175.41H208.376V174.164ZM207.956 184.398H216.51V185.63H207.956V184.398ZM204.302 174.29L205.17 173.478C205.422 173.683 205.688 173.912 205.968 174.164C206.257 174.407 206.528 174.654 206.78 174.906C207.041 175.149 207.247 175.368 207.396 175.564L206.486 176.488C206.337 176.283 206.136 176.054 205.884 175.802C205.641 175.541 205.38 175.279 205.1 175.018C204.82 174.747 204.554 174.505 204.302 174.29ZM205.45 185.854L205.156 184.594L205.422 184.104L208.04 182.018C208.087 182.13 208.138 182.261 208.194 182.41C208.259 182.559 208.325 182.704 208.39 182.844C208.455 182.975 208.511 183.082 208.558 183.166C207.942 183.67 207.443 184.081 207.06 184.398C206.677 184.715 206.379 184.963 206.164 185.14C205.949 185.327 205.791 185.471 205.688 185.574C205.595 185.677 205.515 185.77 205.45 185.854ZM203.63 177.538H206.22V178.812H203.63V177.538ZM205.45 185.854C205.403 185.761 205.329 185.658 205.226 185.546C205.133 185.434 205.03 185.322 204.918 185.21C204.815 185.107 204.722 185.028 204.638 184.972C204.741 184.888 204.857 184.767 204.988 184.608C205.119 184.44 205.231 184.249 205.324 184.034C205.417 183.819 205.464 183.577 205.464 183.306V177.538H206.752V184.062C206.752 184.062 206.705 184.109 206.612 184.202C206.528 184.286 206.421 184.398 206.29 184.538C206.169 184.678 206.043 184.832 205.912 185C205.781 185.159 205.669 185.313 205.576 185.462C205.492 185.611 205.45 185.742 205.45 185.854ZM221.494 174.948H230.244V176.138H221.494V174.948ZM225.008 179.974H226.17V185.574H225.008V179.974ZM222.572 179.974H223.762V181.388C223.762 181.771 223.739 182.167 223.692 182.578C223.655 182.989 223.561 183.404 223.412 183.824C223.272 184.235 223.062 184.636 222.782 185.028C222.502 185.42 222.124 185.784 221.648 186.12C221.583 186.027 221.494 185.924 221.382 185.812C221.279 185.709 221.167 185.607 221.046 185.504C220.925 185.401 220.813 185.317 220.71 185.252C221.27 184.869 221.681 184.454 221.942 184.006C222.203 183.558 222.371 183.105 222.446 182.648C222.53 182.191 222.572 181.757 222.572 181.346V179.974ZM226.954 176.768L227.948 176.18C228.237 176.479 228.536 176.815 228.844 177.188C229.152 177.552 229.441 177.907 229.712 178.252C229.983 178.597 230.202 178.91 230.37 179.19L229.292 179.876C229.152 179.605 228.951 179.293 228.69 178.938C228.429 178.574 228.144 178.205 227.836 177.832C227.537 177.449 227.243 177.095 226.954 176.768ZM227.43 179.974H228.662V184.37C228.662 184.501 228.667 184.603 228.676 184.678C228.685 184.743 228.699 184.79 228.718 184.818C228.737 184.837 228.765 184.851 228.802 184.86C228.839 184.869 228.877 184.874 228.914 184.874C228.951 184.874 229.003 184.874 229.068 184.874C229.133 184.874 229.189 184.874 229.236 184.874C229.283 184.874 229.329 184.869 229.376 184.86C229.423 184.851 229.46 184.837 229.488 184.818C229.535 184.781 229.577 184.659 229.614 184.454C229.623 184.342 229.628 184.165 229.628 183.922C229.637 183.67 229.647 183.385 229.656 183.068C229.768 183.161 229.908 183.255 230.076 183.348C230.253 183.441 230.417 183.511 230.566 183.558C230.557 183.866 230.538 184.183 230.51 184.51C230.491 184.827 230.463 185.051 230.426 185.182C230.342 185.453 230.202 185.649 230.006 185.77C229.922 185.826 229.81 185.868 229.67 185.896C229.539 185.924 229.413 185.938 229.292 185.938C229.199 185.938 229.077 185.938 228.928 185.938C228.779 185.938 228.662 185.938 228.578 185.938C228.438 185.938 228.289 185.915 228.13 185.868C227.971 185.821 227.841 185.747 227.738 185.644C227.626 185.541 227.547 185.401 227.5 185.224C227.453 185.047 227.43 184.734 227.43 184.286V179.974ZM221.956 179.526C221.947 179.423 221.919 179.293 221.872 179.134C221.835 178.975 221.793 178.817 221.746 178.658C221.699 178.499 221.662 178.373 221.634 178.28C221.774 178.252 221.942 178.21 222.138 178.154C222.334 178.089 222.502 177.995 222.642 177.874C222.735 177.781 222.871 177.627 223.048 177.412C223.235 177.197 223.435 176.955 223.65 176.684C223.865 176.413 224.07 176.152 224.266 175.9C224.462 175.648 224.616 175.443 224.728 175.284H226.212C226.035 175.517 225.829 175.793 225.596 176.11C225.363 176.418 225.12 176.735 224.868 177.062C224.616 177.389 224.369 177.701 224.126 178C223.883 178.289 223.669 178.532 223.482 178.728C223.482 178.728 223.431 178.747 223.328 178.784C223.225 178.812 223.099 178.854 222.95 178.91C222.801 178.966 222.647 179.031 222.488 179.106C222.339 179.171 222.213 179.241 222.11 179.316C222.007 179.381 221.956 179.451 221.956 179.526ZM221.956 179.526L221.928 178.574L222.684 178.154L228.914 177.804C228.933 177.972 228.965 178.159 229.012 178.364C229.059 178.569 229.101 178.742 229.138 178.882C227.943 178.966 226.94 179.036 226.128 179.092C225.325 179.148 224.667 179.199 224.154 179.246C223.65 179.283 223.253 179.316 222.964 179.344C222.684 179.372 222.469 179.405 222.32 179.442C222.171 179.47 222.049 179.498 221.956 179.526ZM224.77 173.464L225.988 173.17C226.147 173.497 226.301 173.851 226.45 174.234C226.599 174.607 226.707 174.929 226.772 175.2L225.484 175.536C225.437 175.265 225.344 174.939 225.204 174.556C225.064 174.164 224.919 173.8 224.77 173.464ZM218.12 174.304L218.862 173.352C219.151 173.492 219.45 173.655 219.758 173.842C220.075 174.029 220.374 174.225 220.654 174.43C220.934 174.626 221.163 174.813 221.34 174.99L220.556 176.04C220.379 175.872 220.155 175.685 219.884 175.48C219.613 175.265 219.319 175.055 219.002 174.85C218.694 174.645 218.4 174.463 218.12 174.304ZM217.504 178.168L218.204 177.188C218.503 177.3 218.815 177.44 219.142 177.608C219.478 177.767 219.791 177.935 220.08 178.112C220.379 178.289 220.626 178.457 220.822 178.616L220.08 179.722C219.903 179.554 219.665 179.377 219.366 179.19C219.077 179.003 218.769 178.821 218.442 178.644C218.125 178.457 217.812 178.299 217.504 178.168ZM217.812 185.112C218.064 184.757 218.344 184.333 218.652 183.838C218.96 183.343 219.273 182.821 219.59 182.27C219.907 181.71 220.201 181.164 220.472 180.632L221.452 181.514C221.209 181.999 220.943 182.508 220.654 183.04C220.374 183.563 220.085 184.076 219.786 184.58C219.497 185.084 219.212 185.56 218.932 186.008L217.812 185.112ZM239.904 179.848H241.22V185.462H239.904V179.848ZM236.964 179.358H244.216V180.506H236.964V179.358ZM236.376 184.664H244.524V185.84H236.376V184.664ZM237.286 181.962H243.894V183.096H237.286V181.962ZM238.686 174.864V177.174H242.494V174.864H238.686ZM237.454 173.744H243.782V178.294H237.454V173.744ZM233.8 174.402H235.088V186.162H233.8V174.402ZM231.63 177.118H236.74V178.364H231.63V177.118ZM233.87 177.608L234.668 177.958C234.528 178.453 234.36 178.971 234.164 179.512C233.968 180.044 233.753 180.571 233.52 181.094C233.296 181.617 233.053 182.107 232.792 182.564C232.531 183.021 232.265 183.413 231.994 183.74C231.929 183.553 231.831 183.343 231.7 183.11C231.569 182.867 231.453 182.667 231.35 182.508C231.602 182.228 231.849 181.897 232.092 181.514C232.335 181.122 232.568 180.707 232.792 180.268C233.025 179.82 233.231 179.367 233.408 178.91C233.595 178.453 233.749 178.019 233.87 177.608ZM235.928 173.352L236.838 174.374C236.381 174.551 235.872 174.715 235.312 174.864C234.761 175.004 234.192 175.13 233.604 175.242C233.016 175.345 232.447 175.438 231.896 175.522C231.868 175.373 231.817 175.2 231.742 175.004C231.667 174.808 231.593 174.64 231.518 174.5C232.041 174.416 232.573 174.318 233.114 174.206C233.665 174.085 234.183 173.954 234.668 173.814C235.163 173.665 235.583 173.511 235.928 173.352ZM235.06 178.994C235.144 179.059 235.275 179.185 235.452 179.372C235.629 179.549 235.821 179.741 236.026 179.946C236.241 180.151 236.432 180.347 236.6 180.534C236.768 180.711 236.885 180.842 236.95 180.926L236.18 181.962C236.096 181.813 235.979 181.626 235.83 181.402C235.69 181.178 235.531 180.949 235.354 180.716C235.186 180.473 235.023 180.245 234.864 180.03C234.705 179.815 234.57 179.643 234.458 179.512L235.06 178.994ZM247.716 181.556C248.127 181.556 248.495 181.659 248.822 181.864C249.149 182.06 249.41 182.321 249.606 182.648C249.802 182.975 249.9 183.343 249.9 183.754C249.9 184.155 249.802 184.524 249.606 184.86C249.41 185.187 249.149 185.448 248.822 185.644C248.495 185.84 248.127 185.938 247.716 185.938C247.315 185.938 246.946 185.84 246.61 185.644C246.283 185.448 246.017 185.187 245.812 184.86C245.616 184.524 245.518 184.155 245.518 183.754C245.518 183.343 245.616 182.975 245.812 182.648C246.017 182.321 246.283 182.06 246.61 181.864C246.946 181.659 247.315 181.556 247.716 181.556ZM247.716 185.098C248.089 185.098 248.407 184.967 248.668 184.706C248.929 184.445 249.06 184.127 249.06 183.754C249.06 183.502 248.999 183.278 248.878 183.082C248.766 182.877 248.607 182.713 248.402 182.592C248.197 182.471 247.968 182.41 247.716 182.41C247.473 182.41 247.249 182.471 247.044 182.592C246.839 182.713 246.675 182.877 246.554 183.082C246.433 183.278 246.372 183.502 246.372 183.754C246.372 183.997 246.433 184.225 246.554 184.44C246.675 184.645 246.839 184.809 247.044 184.93C247.249 185.042 247.473 185.098 247.716 185.098Z" fill="#718096"/>
<path d="M126.312 254V252.08H128.872V244.608H126.712V243.136C127.309 243.029 127.821 242.901 128.248 242.752C128.685 242.592 129.091 242.389 129.464 242.144H131.208V252.08H133.432V254H126.312ZM139.458 254.224C138.658 254.224 137.954 253.995 137.346 253.536C136.748 253.067 136.279 252.373 135.938 251.456C135.607 250.528 135.442 249.381 135.442 248.016C135.442 246.661 135.607 245.536 135.938 244.64C136.279 243.733 136.748 243.056 137.346 242.608C137.954 242.16 138.658 241.936 139.458 241.936C140.268 241.936 140.972 242.165 141.57 242.624C142.167 243.072 142.631 243.744 142.962 244.64C143.303 245.536 143.474 246.661 143.474 248.016C143.474 249.381 143.303 250.528 142.962 251.456C142.631 252.373 142.167 253.067 141.57 253.536C140.972 253.995 140.268 254.224 139.458 254.224ZM139.458 252.384C139.81 252.384 140.119 252.251 140.386 251.984C140.652 251.717 140.86 251.269 141.01 250.64C141.159 250 141.234 249.125 141.234 248.016C141.234 246.917 141.159 246.059 141.01 245.44C140.86 244.811 140.652 244.373 140.386 244.128C140.119 243.872 139.81 243.744 139.458 243.744C139.127 243.744 138.823 243.872 138.546 244.128C138.279 244.373 138.066 244.811 137.906 245.44C137.746 246.059 137.666 246.917 137.666 248.016C137.666 249.125 137.746 250 137.906 250.64C138.066 251.269 138.279 251.717 138.546 251.984C138.823 252.251 139.127 252.384 139.458 252.384ZM153.008 251.728H162.112V252.816H153.008V251.728ZM151.568 244.992H162.496V248.576H151.568V247.44H161.056V246.144H151.568V244.992ZM152.288 249.472H162.096V250.608H153.648V255.28H152.288V249.472ZM161.472 249.472H162.88V254.048C162.88 254.368 162.837 254.608 162.752 254.768C162.677 254.928 162.533 255.056 162.32 255.152C162.096 255.237 161.813 255.291 161.472 255.312C161.131 255.333 160.72 255.344 160.24 255.344C160.208 255.173 160.155 254.987 160.08 254.784C160.005 254.592 159.925 254.416 159.84 254.256C160.16 254.267 160.448 254.272 160.704 254.272C160.971 254.272 161.147 254.272 161.232 254.272C161.328 254.272 161.392 254.256 161.424 254.224C161.456 254.192 161.472 254.133 161.472 254.048V249.472ZM155.36 250.016H156.624V254.928H155.36V250.016ZM158.352 250.016H159.616V254.928H158.352V250.016ZM151.072 241.696H156.096V242.848H151.072V241.696ZM157.312 241.696H163.472V242.848H157.312V241.696ZM151.264 240.4L152.688 240.768C152.475 241.291 152.224 241.813 151.936 242.336C151.659 242.848 151.355 243.328 151.024 243.776C150.704 244.224 150.379 244.619 150.048 244.96C149.963 244.885 149.84 244.8 149.68 244.704C149.531 244.597 149.376 244.496 149.216 244.4C149.056 244.293 148.917 244.208 148.8 244.144C149.312 243.685 149.787 243.125 150.224 242.464C150.661 241.792 151.008 241.104 151.264 240.4ZM157.664 240.4L159.104 240.752C158.848 241.403 158.507 242.032 158.08 242.64C157.664 243.237 157.227 243.744 156.768 244.16C156.672 244.075 156.544 243.989 156.384 243.904C156.224 243.808 156.059 243.717 155.888 243.632C155.728 243.547 155.584 243.477 155.456 243.424C155.936 243.061 156.368 242.613 156.752 242.08C157.147 241.536 157.451 240.976 157.664 240.4ZM152.032 242.576L153.296 242.16C153.499 242.448 153.696 242.773 153.888 243.136C154.08 243.488 154.224 243.797 154.32 244.064L152.992 244.528C152.917 244.261 152.789 243.947 152.608 243.584C152.427 243.211 152.235 242.875 152.032 242.576ZM158.896 242.56L160.192 242.096C160.448 242.373 160.704 242.693 160.96 243.056C161.216 243.408 161.408 243.723 161.536 244L160.16 244.512C160.053 244.256 159.877 243.941 159.632 243.568C159.387 243.195 159.141 242.859 158.896 242.56ZM150.928 244.992H152.336V247.632C152.336 248.453 152.288 249.317 152.192 250.224C152.107 251.12 151.909 252.011 151.6 252.896C151.301 253.771 150.827 254.597 150.176 255.376C150.091 255.269 149.979 255.157 149.84 255.04C149.701 254.923 149.557 254.805 149.408 254.688C149.259 254.571 149.12 254.48 148.992 254.416C149.579 253.723 150.011 252.987 150.288 252.208C150.565 251.429 150.741 250.651 150.816 249.872C150.891 249.083 150.928 248.331 150.928 247.616V244.992ZM155.472 244.112L156.832 243.6C157.013 243.845 157.2 244.117 157.392 244.416C157.584 244.715 157.723 244.981 157.808 245.216L156.384 245.792C156.299 245.557 156.171 245.285 156 244.976C155.829 244.656 155.653 244.368 155.472 244.112ZM176.06 243.952L177.628 244.384C176.967 246.336 176.108 248.016 175.052 249.424C174.007 250.832 172.748 252.016 171.276 252.976C169.804 253.925 168.092 254.704 166.14 255.312C166.076 255.195 165.991 255.045 165.884 254.864C165.777 254.683 165.66 254.501 165.532 254.32C165.415 254.149 165.303 254.005 165.196 253.888C167.105 253.376 168.764 252.688 170.172 251.824C171.58 250.96 172.769 249.883 173.74 248.592C174.711 247.301 175.484 245.755 176.06 243.952ZM169.26 244.048C169.847 245.659 170.641 247.12 171.644 248.432C172.657 249.733 173.879 250.843 175.308 251.76C176.748 252.677 178.396 253.365 180.252 253.824C180.145 253.931 180.023 254.069 179.884 254.24C179.756 254.411 179.633 254.581 179.516 254.752C179.399 254.923 179.303 255.083 179.228 255.232C177.297 254.699 175.601 253.936 174.14 252.944C172.689 251.952 171.447 250.747 170.412 249.328C169.388 247.899 168.54 246.283 167.868 244.48L169.26 244.048ZM165.468 243.264H180.012V244.736H165.468V243.264ZM171.388 240.832L172.988 240.352C173.223 240.736 173.452 241.157 173.676 241.616C173.911 242.075 174.076 242.475 174.172 242.816L172.492 243.344C172.407 243.013 172.257 242.613 172.044 242.144C171.831 241.664 171.612 241.227 171.388 240.832ZM181.736 252.304H196.248V253.52H181.736V252.304ZM188.168 250.864H189.768V255.344H188.168V250.864ZM185.016 249.312V250.288H192.936V249.312H185.016ZM185.016 247.36V248.32H192.936V247.36H185.016ZM183.544 246.304H194.472V251.344H183.544V246.304ZM182.808 241.696H195.24V242.896H182.808V241.696ZM181.768 244.368H196.232V245.584H181.768V244.368ZM191.416 242.848L193.016 243.152C192.835 243.493 192.659 243.819 192.488 244.128C192.317 244.437 192.157 244.709 192.008 244.944L190.552 244.656C190.648 244.475 190.749 244.283 190.856 244.08C190.973 243.867 191.08 243.653 191.176 243.44C191.283 243.216 191.363 243.019 191.416 242.848ZM185.096 243.2L186.536 242.88C186.707 243.136 186.867 243.424 187.016 243.744C187.165 244.053 187.277 244.331 187.352 244.576L185.848 244.96C185.784 244.715 185.677 244.427 185.528 244.096C185.389 243.765 185.245 243.467 185.096 243.2ZM187.8 240.608L189.304 240.272C189.475 240.549 189.635 240.853 189.784 241.184C189.944 241.515 190.067 241.808 190.152 242.064L188.6 242.448C188.525 242.192 188.408 241.893 188.248 241.552C188.099 241.2 187.949 240.885 187.8 240.608Z" fill="#168AFF"/>
</g>
<defs>
<clipPath id="clip0_147_3221">
<rect width="322" height="300" fill="white"/>
</clipPath>
</defs>
</svg>
