<svg width="432" height="353" viewBox="0 0 432 353" fill="none" xmlns="http://www.w3.org/2000/svg">
<path fill-rule="evenodd" clip-rule="evenodd" d="M55 16C55 7.16344 62.1634 0 71 0H416C424.837 0 432 7.16344 432 16V337C432 345.837 424.837 353 416 353H71C62.1634 353 55 345.837 55 337V16Z" fill="#EAF3FF"/>
<path d="M87 255H400" stroke="#F1F2F4"/>
<path d="M87 88H400" stroke="#F1F2F4"/>
<path d="M91.16 40.9H105.04V42.74H91.16V40.9ZM90.3 46.76H104.3V48.58H90.3V46.76ZM88.06 53.22H106.02V55.06H88.06V53.22ZM96.06 37.12H98.02V54.14H96.06V37.12ZM91.5 37.4L93.46 37.84C93.1667 38.8667 92.8133 39.88 92.4 40.88C92 41.8667 91.56 42.7867 91.08 43.64C90.6 44.48 90.1 45.22 89.58 45.86C89.4467 45.7533 89.2733 45.6333 89.06 45.5C88.86 45.3533 88.6533 45.2133 88.44 45.08C88.2267 44.9333 88.0333 44.82 87.86 44.74C88.4067 44.1533 88.9067 43.4733 89.36 42.7C89.8133 41.9133 90.22 41.0667 90.58 40.16C90.9533 39.2533 91.26 38.3333 91.5 37.4ZM110.52 44.62H115.32V46.36H110.52V44.62ZM114.6 44.62H116.44C116.44 44.62 116.44 44.6667 116.44 44.76C116.44 44.8533 116.433 44.96 116.42 45.08C116.42 45.2 116.42 45.3 116.42 45.38C116.393 46.8333 116.36 48.02 116.32 48.94C116.28 49.86 116.22 50.5667 116.14 51.06C116.06 51.54 115.947 51.8733 115.8 52.06C115.627 52.2733 115.44 52.4267 115.24 52.52C115.04 52.6133 114.793 52.68 114.5 52.72C114.247 52.76 113.907 52.78 113.48 52.78C113.053 52.78 112.6 52.7733 112.12 52.76C112.107 52.48 112.053 52.1733 111.96 51.84C111.867 51.5067 111.747 51.22 111.6 50.98C112.013 51.02 112.4 51.0467 112.76 51.06C113.12 51.0733 113.387 51.08 113.56 51.08C113.693 51.08 113.807 51.0667 113.9 51.04C114.007 51 114.1 50.94 114.18 50.86C114.273 50.74 114.347 50.48 114.4 50.08C114.453 49.6667 114.493 49.0467 114.52 48.22C114.56 47.3933 114.587 46.2933 114.6 44.92V44.62ZM120.38 38.22L121.54 37.08C121.94 37.28 122.36 37.5133 122.8 37.78C123.24 38.0333 123.653 38.2933 124.04 38.56C124.427 38.8267 124.747 39.0733 125 39.3L123.8 40.58C123.56 40.3533 123.247 40.1 122.86 39.82C122.487 39.54 122.08 39.26 121.64 38.98C121.213 38.7 120.793 38.4467 120.38 38.22ZM123.04 43.54L124.94 44C124.1 46.6 122.94 48.88 121.46 50.84C119.993 52.8 118.253 54.3867 116.24 55.6C116.16 55.4533 116.033 55.28 115.86 55.08C115.687 54.8933 115.513 54.7 115.34 54.5C115.167 54.3133 115.007 54.16 114.86 54.04C116.847 52.9733 118.527 51.5467 119.9 49.76C121.273 47.9733 122.32 45.9 123.04 43.54ZM110.64 40.34H126.1V42.2H110.64V40.34ZM109.38 40.34H111.36V46.08C111.36 46.8133 111.333 47.6067 111.28 48.46C111.227 49.3133 111.127 50.1867 110.98 51.08C110.833 51.96 110.62 52.8133 110.34 53.64C110.06 54.4667 109.687 55.2067 109.22 55.86C109.127 55.74 108.973 55.5933 108.76 55.42C108.56 55.2467 108.353 55.08 108.14 54.92C107.94 54.7733 107.767 54.66 107.62 54.58C108.167 53.78 108.56 52.8867 108.8 51.9C109.053 50.9 109.213 49.8933 109.28 48.88C109.347 47.8667 109.38 46.9267 109.38 46.06V40.34ZM117.62 37.14H119.6C119.587 38.9 119.647 40.5933 119.78 42.22C119.913 43.8333 120.107 45.3333 120.36 46.72C120.613 48.1067 120.913 49.3133 121.26 50.34C121.607 51.3667 121.993 52.1667 122.42 52.74C122.86 53.3133 123.307 53.6 123.76 53.6C124.027 53.6 124.227 53.32 124.36 52.76C124.493 52.2 124.587 51.2733 124.64 49.98C124.867 50.1933 125.133 50.4 125.44 50.6C125.747 50.8 126.027 50.9467 126.28 51.04C126.173 52.2267 126.02 53.1467 125.82 53.8C125.62 54.4533 125.34 54.9067 124.98 55.16C124.633 55.4133 124.18 55.54 123.62 55.54C122.927 55.54 122.293 55.3067 121.72 54.84C121.16 54.3733 120.653 53.7133 120.2 52.86C119.76 52.0067 119.38 51.0067 119.06 49.86C118.753 48.7133 118.493 47.4533 118.28 46.08C118.067 44.7067 117.907 43.2667 117.8 41.76C117.693 40.24 117.633 38.7 117.62 37.14ZM128.28 50.44C128.253 50.32 128.2 50.1467 128.12 49.92C128.053 49.6933 127.98 49.46 127.9 49.22C127.82 48.98 127.74 48.78 127.66 48.62C127.913 48.5667 128.16 48.4267 128.4 48.2C128.653 47.9733 128.947 47.68 129.28 47.32C129.453 47.1467 129.707 46.86 130.04 46.46C130.387 46.0467 130.767 45.56 131.18 45C131.593 44.44 132.007 43.8333 132.42 43.18C132.847 42.5267 133.233 41.8667 133.58 41.2L135.28 42.26C134.467 43.58 133.56 44.8733 132.56 46.14C131.56 47.3933 130.553 48.4933 129.54 49.44V49.48C129.54 49.48 129.473 49.5133 129.34 49.58C129.22 49.6467 129.073 49.7333 128.9 49.84C128.74 49.9333 128.593 50.0333 128.46 50.14C128.34 50.2467 128.28 50.3467 128.28 50.44ZM128.28 50.44L128.18 48.88L129.1 48.26L135.02 47.32C135.02 47.5733 135.027 47.8667 135.04 48.2C135.067 48.52 135.1 48.78 135.14 48.98C133.753 49.2333 132.633 49.44 131.78 49.6C130.94 49.76 130.287 49.8867 129.82 49.98C129.367 50.0733 129.027 50.16 128.8 50.24C128.587 50.3067 128.413 50.3733 128.28 50.44ZM128.14 45.54C128.1 45.4067 128.04 45.2267 127.96 45C127.893 44.76 127.813 44.52 127.72 44.28C127.64 44.04 127.56 43.8333 127.48 43.66C127.68 43.62 127.873 43.5 128.06 43.3C128.247 43.0867 128.447 42.82 128.66 42.5C128.767 42.34 128.927 42.0867 129.14 41.74C129.353 41.38 129.587 40.96 129.84 40.48C130.107 39.9867 130.367 39.46 130.62 38.9C130.873 38.3267 131.093 37.7533 131.28 37.18L133.22 37.98C132.887 38.7533 132.507 39.5333 132.08 40.32C131.653 41.0933 131.207 41.84 130.74 42.56C130.273 43.2667 129.813 43.9067 129.36 44.48V44.54C129.36 44.54 129.3 44.5733 129.18 44.64C129.06 44.7067 128.913 44.7933 128.74 44.9C128.58 44.9933 128.44 45.1 128.32 45.22C128.2 45.3267 128.14 45.4333 128.14 45.54ZM128.14 45.54L128.08 44.14L128.98 43.58L133.2 43.24C133.16 43.48 133.12 43.7533 133.08 44.06C133.053 44.3667 133.033 44.62 133.02 44.82C132.073 44.9133 131.3 45 130.7 45.08C130.1 45.1467 129.633 45.2067 129.3 45.26C128.967 45.3133 128.713 45.36 128.54 45.4C128.367 45.44 128.233 45.4867 128.14 45.54ZM127.62 52.76C128.26 52.6533 128.987 52.5267 129.8 52.38C130.613 52.2333 131.473 52.0733 132.38 51.9C133.3 51.7267 134.213 51.5467 135.12 51.36L135.28 53.12C133.987 53.4133 132.693 53.6933 131.4 53.96C130.12 54.2267 128.967 54.4733 127.94 54.7L127.62 52.76ZM135.18 39.7H145.96V41.52H135.18V39.7ZM135.7 44.22H145.58V46.04H135.7V44.22ZM137.24 53.1H144.14V54.8H137.24V53.1ZM139.62 37.1H141.6V45.16H139.62V37.1ZM136.2 47.82H145.14V55.58H143.22V49.54H138.06V55.66H136.2V47.82ZM148.16 47.7H165.86V49.44H148.16V47.7ZM156.02 38.7H158.02V55.68H156.02V38.7ZM155.44 48.5L157 49.18C156.387 50.02 155.64 50.82 154.76 51.58C153.88 52.34 152.933 53.02 151.92 53.62C150.92 54.22 149.913 54.7067 148.9 55.08C148.807 54.92 148.68 54.74 148.52 54.54C148.373 54.3533 148.22 54.1667 148.06 53.98C147.9 53.7933 147.753 53.64 147.62 53.52C148.367 53.28 149.107 52.9867 149.84 52.64C150.587 52.28 151.307 51.88 152 51.44C152.707 51 153.353 50.5333 153.94 50.04C154.527 49.5333 155.027 49.02 155.44 48.5ZM158.48 48.4C158.907 48.9067 159.42 49.4067 160.02 49.9C160.62 50.3933 161.273 50.86 161.98 51.3C162.687 51.74 163.42 52.14 164.18 52.5C164.94 52.8467 165.687 53.14 166.42 53.38C166.287 53.5 166.133 53.66 165.96 53.86C165.8 54.0467 165.647 54.2333 165.5 54.42C165.353 54.62 165.227 54.8067 165.12 54.98C164.387 54.6867 163.64 54.3333 162.88 53.92C162.133 53.4933 161.4 53.0267 160.68 52.52C159.96 52 159.28 51.4467 158.64 50.86C158.013 50.2733 157.46 49.6733 156.98 49.06L158.48 48.4ZM152.08 42.88V44.62H161.98V42.88H152.08ZM152.08 39.66V41.38H161.98V39.66H152.08ZM150.12 38.06H164.02V46.22H150.12V38.06Z" fill="#111827"/>
<path d="M88.328 276.52H99.432V277.992H88.328V276.52ZM87.64 281.208H98.84V282.664H87.64V281.208ZM85.848 286.376H100.216V287.848H85.848V286.376ZM92.248 273.496H93.816V287.112H92.248V273.496ZM88.6 273.72L90.168 274.072C89.9333 274.893 89.6507 275.704 89.32 276.504C89 277.293 88.648 278.029 88.264 278.712C87.88 279.384 87.48 279.976 87.064 280.488C86.9573 280.403 86.8187 280.307 86.648 280.2C86.488 280.083 86.3227 279.971 86.152 279.864C85.9813 279.747 85.8267 279.656 85.688 279.592C86.1253 279.123 86.5253 278.579 86.888 277.96C87.2507 277.331 87.576 276.653 87.864 275.928C88.1627 275.203 88.408 274.467 88.6 273.72ZM104.116 279.496H107.956V280.888H104.116V279.496ZM107.38 279.496H108.852C108.852 279.496 108.852 279.533 108.852 279.608C108.852 279.683 108.847 279.768 108.836 279.864C108.836 279.96 108.836 280.04 108.836 280.104C108.815 281.267 108.788 282.216 108.756 282.952C108.724 283.688 108.676 284.253 108.612 284.648C108.548 285.032 108.457 285.299 108.34 285.448C108.201 285.619 108.052 285.741 107.892 285.816C107.732 285.891 107.535 285.944 107.3 285.976C107.097 286.008 106.825 286.024 106.484 286.024C106.143 286.024 105.78 286.019 105.396 286.008C105.385 285.784 105.343 285.539 105.268 285.272C105.193 285.005 105.097 284.776 104.98 284.584C105.311 284.616 105.62 284.637 105.908 284.648C106.196 284.659 106.409 284.664 106.548 284.664C106.655 284.664 106.745 284.653 106.82 284.632C106.905 284.6 106.98 284.552 107.044 284.488C107.119 284.392 107.177 284.184 107.22 283.864C107.263 283.533 107.295 283.037 107.316 282.376C107.348 281.715 107.369 280.835 107.38 279.736V279.496ZM112.004 274.376L112.932 273.464C113.252 273.624 113.588 273.811 113.94 274.024C114.292 274.227 114.623 274.435 114.932 274.648C115.241 274.861 115.497 275.059 115.7 275.24L114.74 276.264C114.548 276.083 114.297 275.88 113.988 275.656C113.689 275.432 113.364 275.208 113.012 274.984C112.671 274.76 112.335 274.557 112.004 274.376ZM114.132 278.632L115.652 279C114.98 281.08 114.052 282.904 112.868 284.472C111.695 286.04 110.303 287.309 108.692 288.28C108.628 288.163 108.527 288.024 108.388 287.864C108.249 287.715 108.111 287.56 107.972 287.4C107.833 287.251 107.705 287.128 107.588 287.032C109.177 286.179 110.521 285.037 111.62 283.608C112.719 282.179 113.556 280.52 114.132 278.632ZM104.212 276.072H116.58V277.56H104.212V276.072ZM103.204 276.072H104.788V280.664C104.788 281.251 104.767 281.885 104.724 282.568C104.681 283.251 104.601 283.949 104.484 284.664C104.367 285.368 104.196 286.051 103.972 286.712C103.748 287.373 103.449 287.965 103.076 288.488C103.001 288.392 102.879 288.275 102.708 288.136C102.548 287.997 102.383 287.864 102.212 287.736C102.052 287.619 101.913 287.528 101.796 287.464C102.233 286.824 102.548 286.109 102.74 285.32C102.943 284.52 103.071 283.715 103.124 282.904C103.177 282.093 103.204 281.341 103.204 280.648V276.072ZM109.796 273.512H111.38C111.369 274.92 111.417 276.275 111.524 277.576C111.631 278.867 111.785 280.067 111.988 281.176C112.191 282.285 112.431 283.251 112.708 284.072C112.985 284.893 113.295 285.533 113.636 285.992C113.988 286.451 114.345 286.68 114.708 286.68C114.921 286.68 115.081 286.456 115.188 286.008C115.295 285.56 115.369 284.819 115.412 283.784C115.593 283.955 115.807 284.12 116.052 284.28C116.297 284.44 116.521 284.557 116.724 284.632C116.639 285.581 116.516 286.317 116.356 286.84C116.196 287.363 115.972 287.725 115.684 287.928C115.407 288.131 115.044 288.232 114.596 288.232C114.041 288.232 113.535 288.045 113.076 287.672C112.628 287.299 112.223 286.771 111.86 286.088C111.508 285.405 111.204 284.605 110.948 283.688C110.703 282.771 110.495 281.763 110.324 280.664C110.153 279.565 110.025 278.413 109.94 277.208C109.855 275.992 109.807 274.76 109.796 273.512ZM119.52 274.792H124.032V285.384H119.52V284.024H122.608V276.152H119.52V274.792ZM119.6 279.352H123.056V280.68H119.6V279.352ZM118.8 274.792H120.224V286.664H118.8V274.792ZM124.688 276.584H133.056V278.088H124.688V276.584ZM129.712 273.592H131.248V286.216C131.248 286.707 131.179 287.075 131.04 287.32C130.912 287.565 130.688 287.752 130.368 287.88C130.048 287.997 129.616 288.072 129.072 288.104C128.528 288.136 127.856 288.152 127.056 288.152C127.024 287.939 126.955 287.683 126.848 287.384C126.741 287.085 126.629 286.829 126.512 286.616C126.917 286.627 127.307 286.637 127.68 286.648C128.053 286.648 128.379 286.648 128.656 286.648C128.933 286.648 129.131 286.648 129.248 286.648C129.419 286.637 129.536 286.605 129.6 286.552C129.675 286.488 129.712 286.371 129.712 286.2V273.592ZM125.072 279.928L126.32 279.272C126.597 279.656 126.891 280.077 127.2 280.536C127.52 280.984 127.819 281.421 128.096 281.848C128.384 282.275 128.613 282.648 128.784 282.968L127.456 283.752C127.285 283.421 127.067 283.037 126.8 282.6C126.533 282.163 126.245 281.709 125.936 281.24C125.637 280.771 125.349 280.333 125.072 279.928ZM135.212 277.208H136.78V288.344H135.212V277.208ZM135.452 274.376L136.636 273.656C136.881 273.88 137.132 274.131 137.388 274.408C137.655 274.685 137.895 274.963 138.108 275.24C138.332 275.517 138.508 275.768 138.636 275.992L137.356 276.824C137.249 276.589 137.089 276.333 136.876 276.056C136.673 275.768 136.444 275.48 136.188 275.192C135.943 274.893 135.697 274.621 135.452 274.376ZM139.436 274.344H147.964V275.768H139.436V274.344ZM147.116 274.344H148.684V286.616C148.684 287 148.636 287.293 148.54 287.496C148.455 287.709 148.3 287.88 148.076 288.008C147.831 288.125 147.527 288.195 147.164 288.216C146.801 288.248 146.375 288.264 145.884 288.264C145.841 288.072 145.777 287.837 145.692 287.56C145.617 287.293 145.527 287.069 145.42 286.888C145.729 286.899 146.017 286.904 146.284 286.904C146.561 286.904 146.748 286.904 146.844 286.904C146.961 286.893 147.036 286.867 147.068 286.824C147.1 286.781 147.116 286.712 147.116 286.616V274.344ZM140.14 282.376V284.264H143.66V282.376H140.14ZM140.14 279.272V281.128H143.66V279.272H140.14ZM138.78 278.04H145.068V285.496H138.78V278.04Z" fill="#111827"/>
</svg>
