<svg width="432" height="630" viewBox="0 0 432 630" fill="none" xmlns="http://www.w3.org/2000/svg">
<path fill-rule="evenodd" clip-rule="evenodd" d="M55 56C55 47.1634 62.1634 40 71 40H416C424.837 40 432 47.1634 432 56V377C432 385.837 424.837 393 416 393H71C62.1634 393 55 385.837 55 377V56Z" fill="white"/>
<path d="M87 295H400" stroke="#F1F2F4"/>
<path d="M91.16 80.9H105.04V82.74H91.16V80.9ZM90.3 86.76H104.3V88.58H90.3V86.76ZM88.06 93.22H106.02V95.06H88.06V93.22ZM96.06 77.12H98.02V94.14H96.06V77.12ZM91.5 77.4L93.46 77.84C93.1667 78.8667 92.8133 79.88 92.4 80.88C92 81.8667 91.56 82.7867 91.08 83.64C90.6 84.48 90.1 85.22 89.58 85.86C89.4467 85.7533 89.2733 85.6333 89.06 85.5C88.86 85.3533 88.6533 85.2133 88.44 85.08C88.2267 84.9333 88.0333 84.82 87.86 84.74C88.4067 84.1533 88.9067 83.4733 89.36 82.7C89.8133 81.9133 90.22 81.0667 90.58 80.16C90.9533 79.2533 91.26 78.3333 91.5 77.4ZM110.52 84.62H115.32V86.36H110.52V84.62ZM114.6 84.62H116.44C116.44 84.62 116.44 84.6667 116.44 84.76C116.44 84.8533 116.433 84.96 116.42 85.08C116.42 85.2 116.42 85.3 116.42 85.38C116.393 86.8333 116.36 88.02 116.32 88.94C116.28 89.86 116.22 90.5667 116.14 91.06C116.06 91.54 115.947 91.8733 115.8 92.06C115.627 92.2733 115.44 92.4267 115.24 92.52C115.04 92.6133 114.793 92.68 114.5 92.72C114.247 92.76 113.907 92.78 113.48 92.78C113.053 92.78 112.6 92.7733 112.12 92.76C112.107 92.48 112.053 92.1733 111.96 91.84C111.867 91.5067 111.747 91.22 111.6 90.98C112.013 91.02 112.4 91.0467 112.76 91.06C113.12 91.0733 113.387 91.08 113.56 91.08C113.693 91.08 113.807 91.0667 113.9 91.04C114.007 91 114.1 90.94 114.18 90.86C114.273 90.74 114.347 90.48 114.4 90.08C114.453 89.6667 114.493 89.0467 114.52 88.22C114.56 87.3933 114.587 86.2933 114.6 84.92V84.62ZM120.38 78.22L121.54 77.08C121.94 77.28 122.36 77.5133 122.8 77.78C123.24 78.0333 123.653 78.2933 124.04 78.56C124.427 78.8267 124.747 79.0733 125 79.3L123.8 80.58C123.56 80.3533 123.247 80.1 122.86 79.82C122.487 79.54 122.08 79.26 121.64 78.98C121.213 78.7 120.793 78.4467 120.38 78.22ZM123.04 83.54L124.94 84C124.1 86.6 122.94 88.88 121.46 90.84C119.993 92.8 118.253 94.3867 116.24 95.6C116.16 95.4533 116.033 95.28 115.86 95.08C115.687 94.8933 115.513 94.7 115.34 94.5C115.167 94.3133 115.007 94.16 114.86 94.04C116.847 92.9733 118.527 91.5467 119.9 89.76C121.273 87.9733 122.32 85.9 123.04 83.54ZM110.64 80.34H126.1V82.2H110.64V80.34ZM109.38 80.34H111.36V86.08C111.36 86.8133 111.333 87.6067 111.28 88.46C111.227 89.3133 111.127 90.1867 110.98 91.08C110.833 91.96 110.62 92.8133 110.34 93.64C110.06 94.4667 109.687 95.2067 109.22 95.86C109.127 95.74 108.973 95.5933 108.76 95.42C108.56 95.2467 108.353 95.08 108.14 94.92C107.94 94.7733 107.767 94.66 107.62 94.58C108.167 93.78 108.56 92.8867 108.8 91.9C109.053 90.9 109.213 89.8933 109.28 88.88C109.347 87.8667 109.38 86.9267 109.38 86.06V80.34ZM117.62 77.14H119.6C119.587 78.9 119.647 80.5933 119.78 82.22C119.913 83.8333 120.107 85.3333 120.36 86.72C120.613 88.1067 120.913 89.3133 121.26 90.34C121.607 91.3667 121.993 92.1667 122.42 92.74C122.86 93.3133 123.307 93.6 123.76 93.6C124.027 93.6 124.227 93.32 124.36 92.76C124.493 92.2 124.587 91.2733 124.64 89.98C124.867 90.1933 125.133 90.4 125.44 90.6C125.747 90.8 126.027 90.9467 126.28 91.04C126.173 92.2267 126.02 93.1467 125.82 93.8C125.62 94.4533 125.34 94.9067 124.98 95.16C124.633 95.4133 124.18 95.54 123.62 95.54C122.927 95.54 122.293 95.3067 121.72 94.84C121.16 94.3733 120.653 93.7133 120.2 92.86C119.76 92.0067 119.38 91.0067 119.06 89.86C118.753 88.7133 118.493 87.4533 118.28 86.08C118.067 84.7067 117.907 83.2667 117.8 81.76C117.693 80.24 117.633 78.7 117.62 77.14ZM128.28 90.44C128.253 90.32 128.2 90.1467 128.12 89.92C128.053 89.6933 127.98 89.46 127.9 89.22C127.82 88.98 127.74 88.78 127.66 88.62C127.913 88.5667 128.16 88.4267 128.4 88.2C128.653 87.9733 128.947 87.68 129.28 87.32C129.453 87.1467 129.707 86.86 130.04 86.46C130.387 86.0467 130.767 85.56 131.18 85C131.593 84.44 132.007 83.8333 132.42 83.18C132.847 82.5267 133.233 81.8667 133.58 81.2L135.28 82.26C134.467 83.58 133.56 84.8733 132.56 86.14C131.56 87.3933 130.553 88.4933 129.54 89.44V89.48C129.54 89.48 129.473 89.5133 129.34 89.58C129.22 89.6467 129.073 89.7333 128.9 89.84C128.74 89.9333 128.593 90.0333 128.46 90.14C128.34 90.2467 128.28 90.3467 128.28 90.44ZM128.28 90.44L128.18 88.88L129.1 88.26L135.02 87.32C135.02 87.5733 135.027 87.8667 135.04 88.2C135.067 88.52 135.1 88.78 135.14 88.98C133.753 89.2333 132.633 89.44 131.78 89.6C130.94 89.76 130.287 89.8867 129.82 89.98C129.367 90.0733 129.027 90.16 128.8 90.24C128.587 90.3067 128.413 90.3733 128.28 90.44ZM128.14 85.54C128.1 85.4067 128.04 85.2267 127.96 85C127.893 84.76 127.813 84.52 127.72 84.28C127.64 84.04 127.56 83.8333 127.48 83.66C127.68 83.62 127.873 83.5 128.06 83.3C128.247 83.0867 128.447 82.82 128.66 82.5C128.767 82.34 128.927 82.0867 129.14 81.74C129.353 81.38 129.587 80.96 129.84 80.48C130.107 79.9867 130.367 79.46 130.62 78.9C130.873 78.3267 131.093 77.7533 131.28 77.18L133.22 77.98C132.887 78.7533 132.507 79.5333 132.08 80.32C131.653 81.0933 131.207 81.84 130.74 82.56C130.273 83.2667 129.813 83.9067 129.36 84.48V84.54C129.36 84.54 129.3 84.5733 129.18 84.64C129.06 84.7067 128.913 84.7933 128.74 84.9C128.58 84.9933 128.44 85.1 128.32 85.22C128.2 85.3267 128.14 85.4333 128.14 85.54ZM128.14 85.54L128.08 84.14L128.98 83.58L133.2 83.24C133.16 83.48 133.12 83.7533 133.08 84.06C133.053 84.3667 133.033 84.62 133.02 84.82C132.073 84.9133 131.3 85 130.7 85.08C130.1 85.1467 129.633 85.2067 129.3 85.26C128.967 85.3133 128.713 85.36 128.54 85.4C128.367 85.44 128.233 85.4867 128.14 85.54ZM127.62 92.76C128.26 92.6533 128.987 92.5267 129.8 92.38C130.613 92.2333 131.473 92.0733 132.38 91.9C133.3 91.7267 134.213 91.5467 135.12 91.36L135.28 93.12C133.987 93.4133 132.693 93.6933 131.4 93.96C130.12 94.2267 128.967 94.4733 127.94 94.7L127.62 92.76ZM135.18 79.7H145.96V81.52H135.18V79.7ZM135.7 84.22H145.58V86.04H135.7V84.22ZM137.24 93.1H144.14V94.8H137.24V93.1ZM139.62 77.1H141.6V85.16H139.62V77.1ZM136.2 87.82H145.14V95.58H143.22V89.54H138.06V95.66H136.2V87.82ZM148.16 87.7H165.86V89.44H148.16V87.7ZM156.02 78.7H158.02V95.68H156.02V78.7ZM155.44 88.5L157 89.18C156.387 90.02 155.64 90.82 154.76 91.58C153.88 92.34 152.933 93.02 151.92 93.62C150.92 94.22 149.913 94.7067 148.9 95.08C148.807 94.92 148.68 94.74 148.52 94.54C148.373 94.3533 148.22 94.1667 148.06 93.98C147.9 93.7933 147.753 93.64 147.62 93.52C148.367 93.28 149.107 92.9867 149.84 92.64C150.587 92.28 151.307 91.88 152 91.44C152.707 91 153.353 90.5333 153.94 90.04C154.527 89.5333 155.027 89.02 155.44 88.5ZM158.48 88.4C158.907 88.9067 159.42 89.4067 160.02 89.9C160.62 90.3933 161.273 90.86 161.98 91.3C162.687 91.74 163.42 92.14 164.18 92.5C164.94 92.8467 165.687 93.14 166.42 93.38C166.287 93.5 166.133 93.66 165.96 93.86C165.8 94.0467 165.647 94.2333 165.5 94.42C165.353 94.62 165.227 94.8067 165.12 94.98C164.387 94.6867 163.64 94.3333 162.88 93.92C162.133 93.4933 161.4 93.0267 160.68 92.52C159.96 92 159.28 91.4467 158.64 90.86C158.013 90.2733 157.46 89.6733 156.98 89.06L158.48 88.4ZM152.08 82.88V84.62H161.98V82.88H152.08ZM152.08 79.66V81.38H161.98V79.66H152.08ZM150.12 78.06H164.02V86.22H150.12V78.06Z" fill="#111827"/>
<path d="M88.328 316.52H99.432V317.992H88.328V316.52ZM87.64 321.208H98.84V322.664H87.64V321.208ZM85.848 326.376H100.216V327.848H85.848V326.376ZM92.248 313.496H93.816V327.112H92.248V313.496ZM88.6 313.72L90.168 314.072C89.9333 314.893 89.6507 315.704 89.32 316.504C89 317.293 88.648 318.029 88.264 318.712C87.88 319.384 87.48 319.976 87.064 320.488C86.9573 320.403 86.8187 320.307 86.648 320.2C86.488 320.083 86.3227 319.971 86.152 319.864C85.9813 319.747 85.8267 319.656 85.688 319.592C86.1253 319.123 86.5253 318.579 86.888 317.96C87.2507 317.331 87.576 316.653 87.864 315.928C88.1627 315.203 88.408 314.467 88.6 313.72ZM104.116 319.496H107.956V320.888H104.116V319.496ZM107.38 319.496H108.852C108.852 319.496 108.852 319.533 108.852 319.608C108.852 319.683 108.847 319.768 108.836 319.864C108.836 319.96 108.836 320.04 108.836 320.104C108.815 321.267 108.788 322.216 108.756 322.952C108.724 323.688 108.676 324.253 108.612 324.648C108.548 325.032 108.457 325.299 108.34 325.448C108.201 325.619 108.052 325.741 107.892 325.816C107.732 325.891 107.535 325.944 107.3 325.976C107.097 326.008 106.825 326.024 106.484 326.024C106.143 326.024 105.78 326.019 105.396 326.008C105.385 325.784 105.343 325.539 105.268 325.272C105.193 325.005 105.097 324.776 104.98 324.584C105.311 324.616 105.62 324.637 105.908 324.648C106.196 324.659 106.409 324.664 106.548 324.664C106.655 324.664 106.745 324.653 106.82 324.632C106.905 324.6 106.98 324.552 107.044 324.488C107.119 324.392 107.177 324.184 107.22 323.864C107.263 323.533 107.295 323.037 107.316 322.376C107.348 321.715 107.369 320.835 107.38 319.736V319.496ZM112.004 314.376L112.932 313.464C113.252 313.624 113.588 313.811 113.94 314.024C114.292 314.227 114.623 314.435 114.932 314.648C115.241 314.861 115.497 315.059 115.7 315.24L114.74 316.264C114.548 316.083 114.297 315.88 113.988 315.656C113.689 315.432 113.364 315.208 113.012 314.984C112.671 314.76 112.335 314.557 112.004 314.376ZM114.132 318.632L115.652 319C114.98 321.08 114.052 322.904 112.868 324.472C111.695 326.04 110.303 327.309 108.692 328.28C108.628 328.163 108.527 328.024 108.388 327.864C108.249 327.715 108.111 327.56 107.972 327.4C107.833 327.251 107.705 327.128 107.588 327.032C109.177 326.179 110.521 325.037 111.62 323.608C112.719 322.179 113.556 320.52 114.132 318.632ZM104.212 316.072H116.58V317.56H104.212V316.072ZM103.204 316.072H104.788V320.664C104.788 321.251 104.767 321.885 104.724 322.568C104.681 323.251 104.601 323.949 104.484 324.664C104.367 325.368 104.196 326.051 103.972 326.712C103.748 327.373 103.449 327.965 103.076 328.488C103.001 328.392 102.879 328.275 102.708 328.136C102.548 327.997 102.383 327.864 102.212 327.736C102.052 327.619 101.913 327.528 101.796 327.464C102.233 326.824 102.548 326.109 102.74 325.32C102.943 324.52 103.071 323.715 103.124 322.904C103.177 322.093 103.204 321.341 103.204 320.648V316.072ZM109.796 313.512H111.38C111.369 314.92 111.417 316.275 111.524 317.576C111.631 318.867 111.785 320.067 111.988 321.176C112.191 322.285 112.431 323.251 112.708 324.072C112.985 324.893 113.295 325.533 113.636 325.992C113.988 326.451 114.345 326.68 114.708 326.68C114.921 326.68 115.081 326.456 115.188 326.008C115.295 325.56 115.369 324.819 115.412 323.784C115.593 323.955 115.807 324.12 116.052 324.28C116.297 324.44 116.521 324.557 116.724 324.632C116.639 325.581 116.516 326.317 116.356 326.84C116.196 327.363 115.972 327.725 115.684 327.928C115.407 328.131 115.044 328.232 114.596 328.232C114.041 328.232 113.535 328.045 113.076 327.672C112.628 327.299 112.223 326.771 111.86 326.088C111.508 325.405 111.204 324.605 110.948 323.688C110.703 322.771 110.495 321.763 110.324 320.664C110.153 319.565 110.025 318.413 109.94 317.208C109.855 315.992 109.807 314.76 109.796 313.512ZM119.52 314.792H124.032V325.384H119.52V324.024H122.608V316.152H119.52V314.792ZM119.6 319.352H123.056V320.68H119.6V319.352ZM118.8 314.792H120.224V326.664H118.8V314.792ZM124.688 316.584H133.056V318.088H124.688V316.584ZM129.712 313.592H131.248V326.216C131.248 326.707 131.179 327.075 131.04 327.32C130.912 327.565 130.688 327.752 130.368 327.88C130.048 327.997 129.616 328.072 129.072 328.104C128.528 328.136 127.856 328.152 127.056 328.152C127.024 327.939 126.955 327.683 126.848 327.384C126.741 327.085 126.629 326.829 126.512 326.616C126.917 326.627 127.307 326.637 127.68 326.648C128.053 326.648 128.379 326.648 128.656 326.648C128.933 326.648 129.131 326.648 129.248 326.648C129.419 326.637 129.536 326.605 129.6 326.552C129.675 326.488 129.712 326.371 129.712 326.2V313.592ZM125.072 319.928L126.32 319.272C126.597 319.656 126.891 320.077 127.2 320.536C127.52 320.984 127.819 321.421 128.096 321.848C128.384 322.275 128.613 322.648 128.784 322.968L127.456 323.752C127.285 323.421 127.067 323.037 126.8 322.6C126.533 322.163 126.245 321.709 125.936 321.24C125.637 320.771 125.349 320.333 125.072 319.928ZM135.212 317.208H136.78V328.344H135.212V317.208ZM135.452 314.376L136.636 313.656C136.881 313.88 137.132 314.131 137.388 314.408C137.655 314.685 137.895 314.963 138.108 315.24C138.332 315.517 138.508 315.768 138.636 315.992L137.356 316.824C137.249 316.589 137.089 316.333 136.876 316.056C136.673 315.768 136.444 315.48 136.188 315.192C135.943 314.893 135.697 314.621 135.452 314.376ZM139.436 314.344H147.964V315.768H139.436V314.344ZM147.116 314.344H148.684V326.616C148.684 327 148.636 327.293 148.54 327.496C148.455 327.709 148.3 327.88 148.076 328.008C147.831 328.125 147.527 328.195 147.164 328.216C146.801 328.248 146.375 328.264 145.884 328.264C145.841 328.072 145.777 327.837 145.692 327.56C145.617 327.293 145.527 327.069 145.42 326.888C145.729 326.899 146.017 326.904 146.284 326.904C146.561 326.904 146.748 326.904 146.844 326.904C146.961 326.893 147.036 326.867 147.068 326.824C147.1 326.781 147.116 326.712 147.116 326.616V314.344ZM140.14 322.376V324.264H143.66V322.376H140.14ZM140.14 319.272V321.128H143.66V319.272H140.14ZM138.78 318.04H145.068V325.496H138.78V318.04Z" fill="#111827"/>
<path d="M85.616 354V353.062C86.6333 352.157 87.4827 351.331 88.164 350.584C88.8453 349.828 89.354 349.128 89.69 348.484C90.0353 347.84 90.208 347.238 90.208 346.678C90.208 346.305 90.1427 345.978 90.012 345.698C89.8907 345.409 89.6993 345.189 89.438 345.04C89.186 344.881 88.864 344.802 88.472 344.802C88.0707 344.802 87.702 344.914 87.366 345.138C87.03 345.353 86.722 345.619 86.442 345.936L85.532 345.04C85.9707 344.555 86.4327 344.177 86.918 343.906C87.4127 343.635 88.0007 343.5 88.682 343.5C89.3073 343.5 89.8533 343.631 90.32 343.892C90.7867 344.144 91.146 344.503 91.398 344.97C91.6593 345.427 91.79 345.969 91.79 346.594C91.79 347.257 91.6267 347.929 91.3 348.61C90.9733 349.282 90.5253 349.963 89.956 350.654C89.3867 351.335 88.738 352.026 88.01 352.726C88.2807 352.698 88.5653 352.675 88.864 352.656C89.172 352.628 89.4473 352.614 89.69 352.614H92.28V354H85.616ZM96.9884 354.196C96.3164 354.196 95.7284 353.995 95.2244 353.594C94.7204 353.193 94.3284 352.595 94.0484 351.802C93.7777 350.999 93.6424 350.001 93.6424 348.806C93.6424 347.611 93.7777 346.622 94.0484 345.838C94.3284 345.054 94.7204 344.471 95.2244 344.088C95.7284 343.696 96.3164 343.5 96.9884 343.5C97.6604 343.5 98.2437 343.696 98.7384 344.088C99.233 344.48 99.6157 345.068 99.8864 345.852C100.166 346.627 100.306 347.611 100.306 348.806C100.306 350.001 100.166 350.999 99.8864 351.802C99.6157 352.595 99.233 353.193 98.7384 353.594C98.2437 353.995 97.6604 354.196 96.9884 354.196ZM96.9884 352.908C97.3337 352.908 97.6417 352.773 97.9124 352.502C98.183 352.231 98.393 351.797 98.5424 351.2C98.6917 350.593 98.7664 349.795 98.7664 348.806C98.7664 347.817 98.6917 347.028 98.5424 346.44C98.393 345.852 98.183 345.427 97.9124 345.166C97.6417 344.905 97.3337 344.774 96.9884 344.774C96.643 344.774 96.335 344.905 96.0644 345.166C95.7937 345.427 95.579 345.852 95.4204 346.44C95.271 347.028 95.1964 347.817 95.1964 348.806C95.1964 349.795 95.271 350.593 95.4204 351.2C95.579 351.797 95.7937 352.231 96.0644 352.502C96.335 352.773 96.643 352.908 96.9884 352.908ZM101.585 354V353.062C102.602 352.157 103.451 351.331 104.133 350.584C104.814 349.828 105.323 349.128 105.659 348.484C106.004 347.84 106.177 347.238 106.177 346.678C106.177 346.305 106.111 345.978 105.981 345.698C105.859 345.409 105.668 345.189 105.407 345.04C105.155 344.881 104.833 344.802 104.441 344.802C104.039 344.802 103.671 344.914 103.335 345.138C102.999 345.353 102.691 345.619 102.411 345.936L101.501 345.04C101.939 344.555 102.401 344.177 102.887 343.906C103.381 343.635 103.969 343.5 104.651 343.5C105.276 343.5 105.822 343.631 106.289 343.892C106.755 344.144 107.115 344.503 107.367 344.97C107.628 345.427 107.759 345.969 107.759 346.594C107.759 347.257 107.595 347.929 107.269 348.61C106.942 349.282 106.494 349.963 105.925 350.654C105.355 351.335 104.707 352.026 103.979 352.726C104.249 352.698 104.534 352.675 104.833 352.656C105.141 352.628 105.416 352.614 105.659 352.614H108.249V354H101.585ZM113.699 354V347.28C113.699 347 113.708 346.669 113.727 346.286C113.746 345.894 113.76 345.558 113.769 345.278H113.713C113.582 345.539 113.447 345.805 113.307 346.076C113.176 346.347 113.036 346.613 112.887 346.874L110.871 349.968H116.513V351.228H109.233V350.15L113.335 343.682H115.211V354H113.699ZM117.596 350.64V349.45H121.292V350.64H117.596ZM125.945 354.196C125.273 354.196 124.685 353.995 124.181 353.594C123.677 353.193 123.285 352.595 123.005 351.802C122.735 350.999 122.599 350.001 122.599 348.806C122.599 347.611 122.735 346.622 123.005 345.838C123.285 345.054 123.677 344.471 124.181 344.088C124.685 343.696 125.273 343.5 125.945 343.5C126.617 343.5 127.201 343.696 127.695 344.088C128.19 344.48 128.573 345.068 128.843 345.852C129.123 346.627 129.263 347.611 129.263 348.806C129.263 350.001 129.123 350.999 128.843 351.802C128.573 352.595 128.19 353.193 127.695 353.594C127.201 353.995 126.617 354.196 125.945 354.196ZM125.945 352.908C126.291 352.908 126.599 352.773 126.869 352.502C127.14 352.231 127.35 351.797 127.499 351.2C127.649 350.593 127.723 349.795 127.723 348.806C127.723 347.817 127.649 347.028 127.499 346.44C127.35 345.852 127.14 345.427 126.869 345.166C126.599 344.905 126.291 344.774 125.945 344.774C125.6 344.774 125.292 344.905 125.021 345.166C124.751 345.427 124.536 345.852 124.377 346.44C124.228 347.028 124.153 347.817 124.153 348.806C124.153 349.795 124.228 350.593 124.377 351.2C124.536 351.797 124.751 352.231 125.021 352.502C125.292 352.773 125.6 352.908 125.945 352.908ZM133.678 354.196C133.136 354.196 132.656 354.131 132.236 354C131.825 353.869 131.461 353.697 131.144 353.482C130.826 353.258 130.551 353.02 130.318 352.768L131.102 351.732C131.41 352.031 131.76 352.292 132.152 352.516C132.544 352.74 133.006 352.852 133.538 352.852C133.93 352.852 134.27 352.787 134.56 352.656C134.849 352.516 135.073 352.32 135.232 352.068C135.4 351.816 135.484 351.508 135.484 351.144C135.484 350.771 135.39 350.444 135.204 350.164C135.026 349.875 134.714 349.655 134.266 349.506C133.827 349.347 133.22 349.268 132.446 349.268V348.064C133.127 348.064 133.659 347.989 134.042 347.84C134.434 347.681 134.714 347.467 134.882 347.196C135.059 346.925 135.148 346.617 135.148 346.272C135.148 345.824 135.008 345.469 134.728 345.208C134.448 344.937 134.06 344.802 133.566 344.802C133.174 344.802 132.805 344.891 132.46 345.068C132.124 345.236 131.806 345.465 131.508 345.754L130.668 344.746C131.078 344.373 131.526 344.074 132.012 343.85C132.497 343.617 133.034 343.5 133.622 343.5C134.238 343.5 134.784 343.607 135.26 343.822C135.736 344.027 136.109 344.326 136.38 344.718C136.65 345.11 136.786 345.591 136.786 346.16C136.786 346.748 136.622 347.247 136.296 347.658C135.978 348.069 135.549 348.377 135.008 348.582V348.638C135.4 348.741 135.754 348.909 136.072 349.142C136.398 349.366 136.655 349.655 136.842 350.01C137.028 350.365 137.122 350.771 137.122 351.228C137.122 351.844 136.963 352.376 136.646 352.824C136.338 353.263 135.922 353.603 135.4 353.846C134.877 354.079 134.303 354.196 133.678 354.196ZM138.568 350.64V349.45H142.264V350.64H138.568ZM144.104 354V352.67H146.372V345.502H144.524V344.48C145.009 344.396 145.429 344.289 145.784 344.158C146.148 344.027 146.479 343.869 146.778 343.682H147.996V352.67H149.998V354H144.104ZM154.65 354.196C154.118 354.196 153.642 354.131 153.222 354C152.802 353.869 152.434 353.697 152.116 353.482C151.799 353.267 151.519 353.043 151.276 352.81L152.046 351.76C152.242 351.956 152.457 352.138 152.69 352.306C152.924 352.465 153.185 352.595 153.474 352.698C153.773 352.801 154.104 352.852 154.468 352.852C154.851 352.852 155.196 352.768 155.504 352.6C155.812 352.423 156.055 352.171 156.232 351.844C156.41 351.508 156.498 351.111 156.498 350.654C156.498 349.982 156.316 349.459 155.952 349.086C155.598 348.713 155.126 348.526 154.538 348.526C154.212 348.526 153.932 348.573 153.698 348.666C153.465 348.759 153.199 348.904 152.9 349.1L152.102 348.582L152.41 343.682H157.632V345.054H153.81L153.572 347.686C153.796 347.574 154.02 347.49 154.244 347.434C154.468 347.369 154.716 347.336 154.986 347.336C155.565 347.336 156.092 347.453 156.568 347.686C157.044 347.919 157.422 348.279 157.702 348.764C157.982 349.24 158.122 349.856 158.122 350.612C158.122 351.368 157.959 352.017 157.632 352.558C157.306 353.09 156.876 353.496 156.344 353.776C155.822 354.056 155.257 354.196 154.65 354.196ZM163.217 354V352.67H165.485V345.502H163.637V344.48C164.123 344.396 164.543 344.289 164.897 344.158C165.261 344.027 165.593 343.869 165.891 343.682H167.109V352.67H169.111V354H163.217ZM174.758 354V347.28C174.758 347 174.767 346.669 174.786 346.286C174.804 345.894 174.818 345.558 174.828 345.278H174.772C174.641 345.539 174.506 345.805 174.366 346.076C174.235 346.347 174.095 346.613 173.946 346.874L171.93 349.968H177.572V351.228H170.292V350.15L174.394 343.682H176.27V354H174.758ZM180.082 348.68C179.783 348.68 179.527 348.577 179.312 348.372C179.107 348.157 179.004 347.887 179.004 347.56C179.004 347.224 179.107 346.949 179.312 346.734C179.527 346.519 179.783 346.412 180.082 346.412C180.39 346.412 180.647 346.519 180.852 346.734C181.067 346.949 181.174 347.224 181.174 347.56C181.174 347.887 181.067 348.157 180.852 348.372C180.647 348.577 180.39 348.68 180.082 348.68ZM180.082 354.196C179.783 354.196 179.527 354.089 179.312 353.874C179.107 353.65 179.004 353.375 179.004 353.048C179.004 352.712 179.107 352.441 179.312 352.236C179.527 352.021 179.783 351.914 180.082 351.914C180.39 351.914 180.647 352.021 180.852 352.236C181.067 352.441 181.174 352.712 181.174 353.048C181.174 353.375 181.067 353.65 180.852 353.874C180.647 354.089 180.39 354.196 180.082 354.196ZM185.918 354.196C185.377 354.196 184.896 354.131 184.476 354C184.065 353.869 183.701 353.697 183.384 353.482C183.067 353.258 182.791 353.02 182.558 352.768L183.342 351.732C183.65 352.031 184 352.292 184.392 352.516C184.784 352.74 185.246 352.852 185.778 352.852C186.17 352.852 186.511 352.787 186.8 352.656C187.089 352.516 187.313 352.32 187.472 352.068C187.64 351.816 187.724 351.508 187.724 351.144C187.724 350.771 187.631 350.444 187.444 350.164C187.267 349.875 186.954 349.655 186.506 349.506C186.067 349.347 185.461 349.268 184.686 349.268V348.064C185.367 348.064 185.899 347.989 186.282 347.84C186.674 347.681 186.954 347.467 187.122 347.196C187.299 346.925 187.388 346.617 187.388 346.272C187.388 345.824 187.248 345.469 186.968 345.208C186.688 344.937 186.301 344.802 185.806 344.802C185.414 344.802 185.045 344.891 184.7 345.068C184.364 345.236 184.047 345.465 183.748 345.754L182.908 344.746C183.319 344.373 183.767 344.074 184.252 343.85C184.737 343.617 185.274 343.5 185.862 343.5C186.478 343.5 187.024 343.607 187.5 343.822C187.976 344.027 188.349 344.326 188.62 344.718C188.891 345.11 189.026 345.591 189.026 346.16C189.026 346.748 188.863 347.247 188.536 347.658C188.219 348.069 187.789 348.377 187.248 348.582V348.638C187.64 348.741 187.995 348.909 188.312 349.142C188.639 349.366 188.895 349.655 189.082 350.01C189.269 350.365 189.362 350.771 189.362 351.228C189.362 351.844 189.203 352.376 188.886 352.824C188.578 353.263 188.163 353.603 187.64 353.846C187.117 354.079 186.543 354.196 185.918 354.196ZM194.154 354.196C193.482 354.196 192.894 353.995 192.39 353.594C191.886 353.193 191.494 352.595 191.214 351.802C190.944 350.999 190.808 350.001 190.808 348.806C190.808 347.611 190.944 346.622 191.214 345.838C191.494 345.054 191.886 344.471 192.39 344.088C192.894 343.696 193.482 343.5 194.154 343.5C194.826 343.5 195.41 343.696 195.904 344.088C196.399 344.48 196.782 345.068 197.052 345.852C197.332 346.627 197.472 347.611 197.472 348.806C197.472 350.001 197.332 350.999 197.052 351.802C196.782 352.595 196.399 353.193 195.904 353.594C195.41 353.995 194.826 354.196 194.154 354.196ZM194.154 352.908C194.5 352.908 194.808 352.773 195.078 352.502C195.349 352.231 195.559 351.797 195.708 351.2C195.858 350.593 195.932 349.795 195.932 348.806C195.932 347.817 195.858 347.028 195.708 346.44C195.559 345.852 195.349 345.427 195.078 345.166C194.808 344.905 194.5 344.774 194.154 344.774C193.809 344.774 193.501 344.905 193.23 345.166C192.96 345.427 192.745 345.852 192.586 346.44C192.437 347.028 192.362 347.817 192.362 348.806C192.362 349.795 192.437 350.593 192.586 351.2C192.745 351.797 192.96 352.231 193.23 352.502C193.501 352.773 193.809 352.908 194.154 352.908ZM200.221 348.68C199.922 348.68 199.665 348.577 199.451 348.372C199.245 348.157 199.143 347.887 199.143 347.56C199.143 347.224 199.245 346.949 199.451 346.734C199.665 346.519 199.922 346.412 200.221 346.412C200.529 346.412 200.785 346.519 200.991 346.734C201.205 346.949 201.313 347.224 201.313 347.56C201.313 347.887 201.205 348.157 200.991 348.372C200.785 348.577 200.529 348.68 200.221 348.68ZM200.221 354.196C199.922 354.196 199.665 354.089 199.451 353.874C199.245 353.65 199.143 353.375 199.143 353.048C199.143 352.712 199.245 352.441 199.451 352.236C199.665 352.021 199.922 351.914 200.221 351.914C200.529 351.914 200.785 352.021 200.991 352.236C201.205 352.441 201.313 352.712 201.313 353.048C201.313 353.375 201.205 353.65 200.991 353.874C200.785 354.089 200.529 354.196 200.221 354.196ZM202.921 354V353.062C203.938 352.157 204.787 351.331 205.469 350.584C206.15 349.828 206.659 349.128 206.995 348.484C207.34 347.84 207.513 347.238 207.513 346.678C207.513 346.305 207.447 345.978 207.317 345.698C207.195 345.409 207.004 345.189 206.743 345.04C206.491 344.881 206.169 344.802 205.777 344.802C205.375 344.802 205.007 344.914 204.671 345.138C204.335 345.353 204.027 345.619 203.747 345.936L202.837 345.04C203.275 344.555 203.737 344.177 204.223 343.906C204.717 343.635 205.305 343.5 205.987 343.5C206.612 343.5 207.158 343.631 207.625 343.892C208.091 344.144 208.451 344.503 208.703 344.97C208.964 345.427 209.095 345.969 209.095 346.594C209.095 347.257 208.931 347.929 208.605 348.61C208.278 349.282 207.83 349.963 207.261 350.654C206.691 351.335 206.043 352.026 205.315 352.726C205.585 352.698 205.87 352.675 206.169 352.656C206.477 352.628 206.752 352.614 206.995 352.614H209.585V354H202.921ZM210.905 354V353.062C211.922 352.157 212.772 351.331 213.453 350.584C214.134 349.828 214.643 349.128 214.979 348.484C215.324 347.84 215.497 347.238 215.497 346.678C215.497 346.305 215.432 345.978 215.301 345.698C215.18 345.409 214.988 345.189 214.727 345.04C214.475 344.881 214.153 344.802 213.761 344.802C213.36 344.802 212.991 344.914 212.655 345.138C212.319 345.353 212.011 345.619 211.731 345.936L210.821 345.04C211.26 344.555 211.722 344.177 212.207 343.906C212.702 343.635 213.29 343.5 213.971 343.5C214.596 343.5 215.142 343.631 215.609 343.892C216.076 344.144 216.435 344.503 216.687 344.97C216.948 345.427 217.079 345.969 217.079 346.594C217.079 347.257 216.916 347.929 216.589 348.61C216.262 349.282 215.814 349.963 215.245 350.654C214.676 351.335 214.027 352.026 213.299 352.726C213.57 352.698 213.854 352.675 214.153 352.656C214.461 352.628 214.736 352.614 214.979 352.614H217.569V354H210.905Z" fill="#718096"/>
<g clip-path="url(#clip0_93_746)">
<path d="M94.856 150.712H100.152V152.088H94.856V150.712ZM94.632 158.216H100.152V159.56H94.632V158.216ZM94.024 153.672H100.888V160.36H99.336V155.016H95.496V160.376H94.024V153.672ZM98.04 146.008C98.3493 146.669 98.7387 147.32 99.208 147.96C99.688 148.6 100.211 149.187 100.776 149.72C101.352 150.253 101.939 150.685 102.536 151.016C102.419 151.112 102.291 151.235 102.152 151.384C102.024 151.533 101.896 151.688 101.768 151.848C101.64 151.997 101.533 152.136 101.448 152.264C100.84 151.859 100.248 151.347 99.672 150.728C99.1067 150.109 98.5787 149.432 98.088 148.696C97.608 147.949 97.2027 147.187 96.872 146.408L98.04 146.008ZM97 145.496L98.424 145.896C97.944 147.219 97.288 148.445 96.456 149.576C95.6347 150.696 94.664 151.651 93.544 152.44C93.4693 152.323 93.368 152.195 93.24 152.056C93.112 151.917 92.9787 151.784 92.84 151.656C92.7013 151.517 92.5733 151.405 92.456 151.32C93.1493 150.861 93.7893 150.323 94.376 149.704C94.9627 149.085 95.48 148.419 95.928 147.704C96.376 146.979 96.7333 146.243 97 145.496ZM88.904 146.952H92.504V156.12H88.904V154.712H91.096V148.344H88.904V146.952ZM88.12 146.952H89.512V157.608H88.12V146.952ZM104.196 150.744H118.42V152.072H104.196V150.744ZM115.508 145.448L116.772 146.28C116.068 146.76 115.273 147.203 114.388 147.608C113.513 148.003 112.585 148.365 111.604 148.696C110.623 149.027 109.631 149.325 108.628 149.592C107.625 149.848 106.655 150.072 105.716 150.264C105.641 150.147 105.54 150.008 105.412 149.848C105.295 149.688 105.172 149.533 105.044 149.384C104.916 149.224 104.799 149.096 104.692 149C105.684 148.851 106.687 148.659 107.7 148.424C108.724 148.189 109.711 147.923 110.66 147.624C111.62 147.315 112.511 146.979 113.332 146.616C114.164 146.253 114.889 145.864 115.508 145.448ZM111.124 152.408H112.596V160.344H111.124V152.408ZM106.852 153.88H116.308V155.224H108.356V159.464H106.852V153.88ZM115.636 153.88H117.156V157.816C117.156 158.179 117.108 158.461 117.012 158.664C116.927 158.856 116.751 159.011 116.484 159.128C116.228 159.224 115.897 159.283 115.492 159.304C115.087 159.336 114.596 159.352 114.02 159.352C113.988 159.139 113.924 158.915 113.828 158.68C113.743 158.435 113.652 158.221 113.556 158.04C113.961 158.051 114.329 158.056 114.66 158.056C115.001 158.056 115.231 158.056 115.348 158.056C115.455 158.056 115.529 158.04 115.572 158.008C115.615 157.965 115.636 157.896 115.636 157.8V153.88ZM105.732 146.632L106.772 145.72C107.615 145.923 108.516 146.168 109.476 146.456C110.436 146.733 111.396 147.032 112.356 147.352C113.316 147.672 114.217 147.997 115.06 148.328C115.913 148.659 116.655 148.973 117.284 149.272L116.132 150.344C115.556 150.056 114.857 149.741 114.036 149.4C113.225 149.059 112.345 148.723 111.396 148.392C110.447 148.051 109.481 147.731 108.5 147.432C107.529 147.123 106.607 146.856 105.732 146.632ZM109.684 148.856L111.22 149.272C110.815 150.296 110.303 151.288 109.684 152.248C109.065 153.208 108.345 154.093 107.524 154.904C106.713 155.704 105.801 156.392 104.788 156.968C104.703 156.851 104.601 156.723 104.484 156.584C104.367 156.435 104.244 156.296 104.116 156.168C103.988 156.029 103.876 155.912 103.78 155.816C104.74 155.304 105.604 154.68 106.372 153.944C107.151 153.197 107.817 152.387 108.372 151.512C108.937 150.637 109.375 149.752 109.684 148.856ZM124.912 147.048H134.576V148.36H124.912V147.048ZM124.208 158.664H134.992V159.96H124.208V158.664ZM125.68 149.688H133.648V158.968H132.256V150.84H127.04V158.968H125.68V149.688ZM126.656 151.976H132.544V153.064H126.656V151.976ZM126.624 154.216H132.864V155.272H126.624V154.216ZM126.608 156.44H132.576V157.528H126.608V156.44ZM129.088 145.512L130.688 145.576C130.603 146.109 130.501 146.659 130.384 147.224C130.277 147.789 130.16 148.333 130.032 148.856C129.915 149.368 129.797 149.816 129.68 150.2L128.368 150.072C128.464 149.667 128.56 149.197 128.656 148.664C128.752 148.131 128.837 147.587 128.912 147.032C128.997 146.477 129.056 145.971 129.088 145.512ZM123.632 145.528L125.024 145.96C124.693 146.867 124.309 147.768 123.872 148.664C123.435 149.549 122.955 150.392 122.432 151.192C121.92 151.981 121.392 152.68 120.848 153.288C120.805 153.171 120.731 153.016 120.624 152.824C120.528 152.621 120.427 152.424 120.32 152.232C120.213 152.029 120.117 151.869 120.032 151.752C120.512 151.24 120.971 150.653 121.408 149.992C121.856 149.32 122.272 148.605 122.656 147.848C123.04 147.091 123.365 146.317 123.632 145.528ZM122 149.832L123.392 148.392L123.408 148.408V160.344H122V149.832Z" fill="#111827"/>
<path d="M90.648 195.44C90.9467 195.451 91.2453 195.429 91.544 195.376C91.8427 195.323 92.1093 195.232 92.344 195.104C92.5787 194.965 92.7653 194.779 92.904 194.544C93.0533 194.309 93.128 194.021 93.128 193.68C93.128 193.2 92.9627 192.816 92.632 192.528C92.312 192.24 91.896 192.096 91.384 192.096C91.064 192.096 90.7867 192.16 90.552 192.288C90.3173 192.416 90.12 192.592 89.96 192.816C89.8107 193.029 89.6987 193.275 89.624 193.552C89.5493 193.819 89.5173 194.096 89.528 194.384H87.704C87.7253 193.84 87.8267 193.339 88.008 192.88C88.1893 192.411 88.4347 192.005 88.744 191.664C89.064 191.323 89.448 191.056 89.896 190.864C90.344 190.672 90.8507 190.576 91.416 190.576C91.8533 190.576 92.28 190.64 92.696 190.768C93.1227 190.896 93.5013 191.083 93.832 191.328C94.1733 191.573 94.4453 191.888 94.648 192.272C94.8507 192.645 94.952 193.077 94.952 193.568C94.952 194.133 94.824 194.629 94.568 195.056C94.312 195.472 93.912 195.776 93.368 195.968V196C94.008 196.128 94.504 196.448 94.856 196.96C95.2187 197.461 95.4 198.075 95.4 198.8C95.4 199.333 95.2933 199.813 95.08 200.24C94.8667 200.656 94.5787 201.013 94.216 201.312C93.8533 201.6 93.432 201.824 92.952 201.984C92.472 202.144 91.9653 202.224 91.432 202.224C90.7813 202.224 90.2107 202.133 89.72 201.952C89.24 201.76 88.8347 201.493 88.504 201.152C88.184 200.811 87.9387 200.4 87.768 199.92C87.5973 199.44 87.5067 198.907 87.496 198.32H89.32C89.2987 199.003 89.464 199.573 89.816 200.032C90.1787 200.48 90.7173 200.704 91.432 200.704C92.04 200.704 92.5467 200.533 92.952 200.192C93.368 199.84 93.576 199.344 93.576 198.704C93.576 198.267 93.4907 197.92 93.32 197.664C93.1493 197.408 92.9253 197.216 92.648 197.088C92.3707 196.949 92.056 196.864 91.704 196.832C91.3627 196.8 91.0107 196.789 90.648 196.8V195.44ZM103.979 200.16C103.979 200.384 104.005 200.544 104.059 200.64C104.123 200.736 104.24 200.784 104.411 200.784C104.464 200.784 104.528 200.784 104.603 200.784C104.677 200.784 104.763 200.773 104.859 200.752V202.016C104.795 202.037 104.709 202.059 104.603 202.08C104.507 202.112 104.405 202.139 104.299 202.16C104.192 202.181 104.085 202.197 103.979 202.208C103.872 202.219 103.781 202.224 103.707 202.224C103.333 202.224 103.024 202.149 102.779 202C102.533 201.851 102.373 201.589 102.299 201.216C101.936 201.568 101.488 201.824 100.955 201.984C100.432 202.144 99.9253 202.224 99.4346 202.224C99.0613 202.224 98.704 202.171 98.3626 202.064C98.0213 201.968 97.7173 201.824 97.4506 201.632C97.1946 201.429 96.9866 201.179 96.8266 200.88C96.6773 200.571 96.6026 200.213 96.6026 199.808C96.6026 199.296 96.6933 198.88 96.8746 198.56C97.0666 198.24 97.312 197.989 97.6106 197.808C97.92 197.627 98.2613 197.499 98.6346 197.424C99.0186 197.339 99.4026 197.275 99.7866 197.232C100.117 197.168 100.432 197.125 100.731 197.104C101.029 197.072 101.291 197.024 101.515 196.96C101.749 196.896 101.931 196.8 102.059 196.672C102.197 196.533 102.267 196.331 102.267 196.064C102.267 195.829 102.208 195.637 102.091 195.488C101.984 195.339 101.845 195.227 101.675 195.152C101.515 195.067 101.333 195.013 101.131 194.992C100.928 194.96 100.736 194.944 100.555 194.944C100.043 194.944 99.6213 195.051 99.2906 195.264C98.96 195.477 98.7733 195.808 98.7306 196.256H96.9066C96.9386 195.723 97.0666 195.28 97.2906 194.928C97.5146 194.576 97.7973 194.293 98.1386 194.08C98.4906 193.867 98.8853 193.717 99.3226 193.632C99.76 193.547 100.208 193.504 100.667 193.504C101.072 193.504 101.472 193.547 101.867 193.632C102.261 193.717 102.613 193.856 102.923 194.048C103.243 194.24 103.499 194.491 103.691 194.8C103.883 195.099 103.979 195.467 103.979 195.904V200.16ZM102.155 197.856C101.877 198.037 101.536 198.149 101.131 198.192C100.725 198.224 100.32 198.277 99.9146 198.352C99.7226 198.384 99.536 198.432 99.3546 198.496C99.1733 198.549 99.0133 198.629 98.8746 198.736C98.736 198.832 98.624 198.965 98.5386 199.136C98.464 199.296 98.4266 199.493 98.4266 199.728C98.4266 199.931 98.4853 200.101 98.6026 200.24C98.72 200.379 98.8586 200.491 99.0186 200.576C99.1893 200.651 99.3706 200.704 99.5626 200.736C99.7653 200.768 99.9466 200.784 100.107 200.784C100.309 200.784 100.528 200.757 100.763 200.704C100.997 200.651 101.216 200.56 101.419 200.432C101.632 200.304 101.808 200.144 101.947 199.952C102.085 199.749 102.155 199.504 102.155 199.216V197.856ZM105.741 190.8H113.405V192.32C112.819 192.981 112.285 193.669 111.805 194.384C111.325 195.088 110.904 195.84 110.541 196.64C110.189 197.429 109.901 198.267 109.677 199.152C109.453 200.037 109.304 200.987 109.229 202H107.229C107.293 201.115 107.443 200.24 107.677 199.376C107.923 198.512 108.232 197.675 108.605 196.864C108.989 196.053 109.432 195.275 109.933 194.528C110.435 193.781 110.973 193.083 111.549 192.432H105.741V190.8ZM115.28 190.576H117.104V194.8H117.136C117.264 194.597 117.419 194.416 117.6 194.256C117.781 194.096 117.979 193.963 118.192 193.856C118.416 193.739 118.645 193.653 118.88 193.6C119.125 193.536 119.365 193.504 119.6 193.504C120.251 193.504 120.816 193.621 121.296 193.856C121.787 194.08 122.192 194.395 122.512 194.8C122.832 195.195 123.072 195.659 123.232 196.192C123.392 196.725 123.472 197.296 123.472 197.904C123.472 198.459 123.397 198.997 123.248 199.52C123.109 200.043 122.891 200.507 122.592 200.912C122.304 201.307 121.936 201.627 121.488 201.872C121.04 202.107 120.512 202.224 119.904 202.224C119.627 202.224 119.344 202.203 119.056 202.16C118.779 202.128 118.512 202.059 118.256 201.952C118 201.845 117.765 201.707 117.552 201.536C117.349 201.365 117.179 201.141 117.04 200.864H117.008V202H115.28V190.576ZM121.648 197.872C121.648 197.499 121.6 197.136 121.504 196.784C121.408 196.432 121.264 196.123 121.072 195.856C120.88 195.579 120.64 195.36 120.352 195.2C120.064 195.029 119.733 194.944 119.36 194.944C118.592 194.944 118.011 195.211 117.616 195.744C117.232 196.277 117.04 196.987 117.04 197.872C117.04 198.288 117.088 198.677 117.184 199.04C117.291 199.392 117.445 199.696 117.648 199.952C117.851 200.208 118.091 200.411 118.368 200.56C118.656 200.709 118.987 200.784 119.36 200.784C119.776 200.784 120.128 200.699 120.416 200.528C120.704 200.357 120.939 200.139 121.12 199.872C121.312 199.595 121.445 199.285 121.52 198.944C121.605 198.592 121.648 198.235 121.648 197.872ZM133.005 202H131.277V200.88H131.245C131 201.36 130.642 201.707 130.173 201.92C129.704 202.123 129.208 202.224 128.685 202.224C128.034 202.224 127.464 202.112 126.973 201.888C126.493 201.653 126.093 201.339 125.773 200.944C125.453 200.549 125.213 200.085 125.053 199.552C124.893 199.008 124.813 198.427 124.813 197.808C124.813 197.061 124.914 196.416 125.117 195.872C125.32 195.328 125.586 194.88 125.917 194.528C126.258 194.176 126.642 193.92 127.069 193.76C127.506 193.589 127.949 193.504 128.397 193.504C128.653 193.504 128.914 193.531 129.181 193.584C129.448 193.627 129.704 193.701 129.949 193.808C130.194 193.915 130.418 194.053 130.621 194.224C130.834 194.384 131.01 194.576 131.149 194.8H131.181V190.576H133.005V202ZM126.637 197.952C126.637 198.304 126.68 198.651 126.765 198.992C126.861 199.333 127 199.637 127.181 199.904C127.373 200.171 127.613 200.384 127.901 200.544C128.189 200.704 128.53 200.784 128.925 200.784C129.33 200.784 129.677 200.699 129.965 200.528C130.264 200.357 130.504 200.133 130.685 199.856C130.877 199.579 131.016 199.269 131.101 198.928C131.197 198.576 131.245 198.219 131.245 197.856C131.245 196.939 131.037 196.224 130.621 195.712C130.216 195.2 129.661 194.944 128.957 194.944C128.53 194.944 128.168 195.035 127.869 195.216C127.581 195.387 127.341 195.616 127.149 195.904C126.968 196.181 126.834 196.501 126.749 196.864C126.674 197.216 126.637 197.579 126.637 197.952ZM137.882 195.44C138.181 195.451 138.48 195.429 138.778 195.376C139.077 195.323 139.344 195.232 139.578 195.104C139.813 194.965 140 194.779 140.138 194.544C140.288 194.309 140.362 194.021 140.362 193.68C140.362 193.2 140.197 192.816 139.866 192.528C139.546 192.24 139.13 192.096 138.618 192.096C138.298 192.096 138.021 192.16 137.786 192.288C137.552 192.416 137.354 192.592 137.194 192.816C137.045 193.029 136.933 193.275 136.858 193.552C136.784 193.819 136.752 194.096 136.762 194.384H134.938C134.96 193.84 135.061 193.339 135.242 192.88C135.424 192.411 135.669 192.005 135.978 191.664C136.298 191.323 136.682 191.056 137.13 190.864C137.578 190.672 138.085 190.576 138.65 190.576C139.088 190.576 139.514 190.64 139.93 190.768C140.357 190.896 140.736 191.083 141.066 191.328C141.408 191.573 141.68 191.888 141.882 192.272C142.085 192.645 142.186 193.077 142.186 193.568C142.186 194.133 142.058 194.629 141.802 195.056C141.546 195.472 141.146 195.776 140.602 195.968V196C141.242 196.128 141.738 196.448 142.09 196.96C142.453 197.461 142.634 198.075 142.634 198.8C142.634 199.333 142.528 199.813 142.314 200.24C142.101 200.656 141.813 201.013 141.45 201.312C141.088 201.6 140.666 201.824 140.186 201.984C139.706 202.144 139.2 202.224 138.666 202.224C138.016 202.224 137.445 202.133 136.954 201.952C136.474 201.76 136.069 201.493 135.738 201.152C135.418 200.811 135.173 200.4 135.002 199.92C134.832 199.44 134.741 198.907 134.73 198.32H136.554C136.533 199.003 136.698 199.573 137.05 200.032C137.413 200.48 137.952 200.704 138.666 200.704C139.274 200.704 139.781 200.533 140.186 200.192C140.602 199.84 140.81 199.344 140.81 198.704C140.81 198.267 140.725 197.92 140.554 197.664C140.384 197.408 140.16 197.216 139.882 197.088C139.605 196.949 139.29 196.864 138.938 196.832C138.597 196.8 138.245 196.789 137.882 196.8V195.44ZM149.965 197.136C149.944 196.848 149.88 196.571 149.773 196.304C149.677 196.037 149.538 195.808 149.357 195.616C149.186 195.413 148.973 195.253 148.717 195.136C148.472 195.008 148.194 194.944 147.885 194.944C147.565 194.944 147.272 195.003 147.005 195.12C146.749 195.227 146.525 195.381 146.333 195.584C146.152 195.776 146.002 196.005 145.885 196.272C145.778 196.539 145.72 196.827 145.709 197.136H149.965ZM145.709 198.336C145.709 198.656 145.752 198.965 145.837 199.264C145.933 199.563 146.072 199.824 146.253 200.048C146.434 200.272 146.664 200.453 146.941 200.592C147.218 200.72 147.549 200.784 147.933 200.784C148.466 200.784 148.893 200.672 149.213 200.448C149.544 200.213 149.789 199.867 149.949 199.408H151.677C151.581 199.856 151.416 200.256 151.181 200.608C150.946 200.96 150.664 201.259 150.333 201.504C150.002 201.739 149.629 201.915 149.213 202.032C148.808 202.16 148.381 202.224 147.933 202.224C147.282 202.224 146.706 202.117 146.205 201.904C145.704 201.691 145.277 201.392 144.925 201.008C144.584 200.624 144.322 200.165 144.141 199.632C143.97 199.099 143.885 198.512 143.885 197.872C143.885 197.285 143.976 196.731 144.157 196.208C144.349 195.675 144.616 195.211 144.957 194.816C145.309 194.411 145.73 194.091 146.221 193.856C146.712 193.621 147.266 193.504 147.885 193.504C148.536 193.504 149.117 193.643 149.629 193.92C150.152 194.187 150.584 194.544 150.925 194.992C151.266 195.44 151.512 195.957 151.661 196.544C151.821 197.12 151.864 197.717 151.789 198.336H145.709ZM160.688 202H153.04C153.05 201.072 153.274 200.261 153.712 199.568C154.149 198.875 154.746 198.272 155.504 197.76C155.866 197.493 156.245 197.237 156.64 196.992C157.034 196.736 157.397 196.464 157.728 196.176C158.058 195.888 158.33 195.579 158.544 195.248C158.757 194.907 158.869 194.517 158.88 194.08C158.88 193.877 158.853 193.664 158.8 193.44C158.757 193.205 158.666 192.992 158.528 192.8C158.389 192.597 158.197 192.432 157.952 192.304C157.706 192.165 157.386 192.096 156.992 192.096C156.629 192.096 156.325 192.171 156.08 192.32C155.845 192.459 155.653 192.656 155.504 192.912C155.365 193.157 155.258 193.451 155.184 193.792C155.12 194.133 155.082 194.501 155.072 194.896H153.248C153.248 194.277 153.328 193.707 153.488 193.184C153.658 192.651 153.909 192.192 154.24 191.808C154.57 191.424 154.97 191.125 155.44 190.912C155.92 190.688 156.474 190.576 157.104 190.576C157.786 190.576 158.357 190.688 158.816 190.912C159.274 191.136 159.642 191.419 159.92 191.76C160.208 192.101 160.41 192.475 160.528 192.88C160.645 193.275 160.704 193.653 160.704 194.016C160.704 194.464 160.634 194.869 160.496 195.232C160.357 195.595 160.17 195.931 159.936 196.24C159.701 196.539 159.434 196.816 159.136 197.072C158.837 197.328 158.528 197.568 158.208 197.792C157.888 198.016 157.568 198.229 157.248 198.432C156.928 198.635 156.629 198.837 156.352 199.04C156.085 199.243 155.85 199.456 155.648 199.68C155.445 199.893 155.306 200.123 155.232 200.368H160.688V202ZM165.154 195.44C165.453 195.451 165.752 195.429 166.05 195.376C166.349 195.323 166.616 195.232 166.85 195.104C167.085 194.965 167.272 194.779 167.41 194.544C167.56 194.309 167.634 194.021 167.634 193.68C167.634 193.2 167.469 192.816 167.138 192.528C166.818 192.24 166.402 192.096 165.89 192.096C165.57 192.096 165.293 192.16 165.058 192.288C164.824 192.416 164.626 192.592 164.466 192.816C164.317 193.029 164.205 193.275 164.13 193.552C164.056 193.819 164.024 194.096 164.034 194.384H162.21C162.232 193.84 162.333 193.339 162.514 192.88C162.696 192.411 162.941 192.005 163.25 191.664C163.57 191.323 163.954 191.056 164.402 190.864C164.85 190.672 165.357 190.576 165.922 190.576C166.36 190.576 166.786 190.64 167.202 190.768C167.629 190.896 168.008 191.083 168.338 191.328C168.68 191.573 168.952 191.888 169.154 192.272C169.357 192.645 169.458 193.077 169.458 193.568C169.458 194.133 169.33 194.629 169.074 195.056C168.818 195.472 168.418 195.776 167.874 195.968V196C168.514 196.128 169.01 196.448 169.362 196.96C169.725 197.461 169.906 198.075 169.906 198.8C169.906 199.333 169.8 199.813 169.586 200.24C169.373 200.656 169.085 201.013 168.722 201.312C168.36 201.6 167.938 201.824 167.458 201.984C166.978 202.144 166.472 202.224 165.938 202.224C165.288 202.224 164.717 202.133 164.226 201.952C163.746 201.76 163.341 201.493 163.01 201.152C162.69 200.811 162.445 200.4 162.274 199.92C162.104 199.44 162.013 198.907 162.002 198.32H163.826C163.805 199.003 163.97 199.573 164.322 200.032C164.685 200.48 165.224 200.704 165.938 200.704C166.546 200.704 167.053 200.533 167.458 200.192C167.874 199.84 168.082 199.344 168.082 198.704C168.082 198.267 167.997 197.92 167.826 197.664C167.656 197.408 167.432 197.216 167.154 197.088C166.877 196.949 166.562 196.864 166.21 196.832C165.869 196.8 165.517 196.789 165.154 196.8V195.44ZM176.917 193.632C176.874 193.173 176.709 192.805 176.421 192.528C176.144 192.24 175.765 192.096 175.285 192.096C174.954 192.096 174.666 192.16 174.421 192.288C174.186 192.405 173.984 192.565 173.813 192.768C173.653 192.971 173.52 193.205 173.413 193.472C173.317 193.728 173.237 194 173.173 194.288C173.109 194.576 173.061 194.864 173.029 195.152C173.008 195.429 172.986 195.691 172.965 195.936L172.997 195.968C173.242 195.52 173.578 195.189 174.005 194.976C174.442 194.752 174.912 194.64 175.413 194.64C175.968 194.64 176.464 194.736 176.901 194.928C177.338 195.12 177.706 195.387 178.005 195.728C178.314 196.059 178.549 196.453 178.709 196.912C178.869 197.371 178.949 197.867 178.949 198.4C178.949 198.944 178.858 199.451 178.677 199.92C178.506 200.379 178.256 200.784 177.925 201.136C177.594 201.477 177.2 201.744 176.741 201.936C176.282 202.128 175.776 202.224 175.221 202.224C174.4 202.224 173.722 202.075 173.189 201.776C172.666 201.467 172.25 201.051 171.941 200.528C171.642 199.995 171.434 199.376 171.317 198.672C171.2 197.957 171.141 197.189 171.141 196.368C171.141 195.696 171.21 195.019 171.349 194.336C171.498 193.653 171.738 193.035 172.069 192.48C172.4 191.915 172.832 191.456 173.365 191.104C173.909 190.752 174.576 190.576 175.365 190.576C175.813 190.576 176.234 190.651 176.629 190.8C177.024 190.949 177.37 191.157 177.669 191.424C177.978 191.691 178.229 192.011 178.421 192.384C178.613 192.757 178.72 193.173 178.741 193.632H176.917ZM175.157 200.704C175.488 200.704 175.776 200.64 176.021 200.512C176.266 200.373 176.469 200.197 176.629 199.984C176.8 199.771 176.922 199.525 176.997 199.248C177.082 198.96 177.125 198.667 177.125 198.368C177.125 198.069 177.082 197.781 176.997 197.504C176.922 197.227 176.8 196.987 176.629 196.784C176.469 196.571 176.266 196.4 176.021 196.272C175.776 196.144 175.488 196.08 175.157 196.08C174.826 196.08 174.533 196.144 174.277 196.272C174.032 196.389 173.824 196.555 173.653 196.768C173.482 196.971 173.354 197.211 173.269 197.488C173.184 197.765 173.141 198.059 173.141 198.368C173.141 198.677 173.184 198.971 173.269 199.248C173.354 199.525 173.482 199.776 173.653 200C173.824 200.213 174.032 200.384 174.277 200.512C174.533 200.64 174.826 200.704 175.157 200.704ZM184.136 190.576C184.936 190.576 185.586 190.763 186.088 191.136C186.6 191.499 186.994 191.968 187.272 192.544C187.56 193.109 187.752 193.733 187.848 194.416C187.954 195.099 188.008 195.76 188.008 196.4C188.008 197.04 187.954 197.701 187.848 198.384C187.752 199.067 187.56 199.696 187.272 200.272C186.994 200.837 186.6 201.307 186.088 201.68C185.586 202.043 184.936 202.224 184.136 202.224C183.336 202.224 182.68 202.043 182.168 201.68C181.666 201.307 181.272 200.837 180.984 200.272C180.706 199.696 180.514 199.067 180.408 198.384C180.312 197.701 180.264 197.04 180.264 196.4C180.264 195.76 180.312 195.099 180.408 194.416C180.514 193.733 180.706 193.109 180.984 192.544C181.272 191.968 181.666 191.499 182.168 191.136C182.68 190.763 183.336 190.576 184.136 190.576ZM184.136 200.704C184.53 200.704 184.861 200.592 185.128 200.368C185.394 200.133 185.602 199.824 185.752 199.44C185.912 199.045 186.024 198.587 186.088 198.064C186.152 197.541 186.184 196.987 186.184 196.4C186.184 195.813 186.152 195.264 186.088 194.752C186.024 194.229 185.912 193.771 185.752 193.376C185.602 192.981 185.394 192.672 185.128 192.448C184.861 192.213 184.53 192.096 184.136 192.096C183.73 192.096 183.394 192.213 183.128 192.448C182.872 192.672 182.664 192.981 182.504 193.376C182.354 193.771 182.248 194.229 182.184 194.752C182.12 195.264 182.088 195.813 182.088 196.4C182.088 196.987 182.12 197.541 182.184 198.064C182.248 198.587 182.354 199.045 182.504 199.44C182.664 199.824 182.872 200.133 183.128 200.368C183.394 200.592 183.73 200.704 184.136 200.704ZM196.666 200.16C196.666 200.384 196.693 200.544 196.746 200.64C196.81 200.736 196.927 200.784 197.098 200.784C197.151 200.784 197.215 200.784 197.29 200.784C197.365 200.784 197.45 200.773 197.546 200.752V202.016C197.482 202.037 197.397 202.059 197.29 202.08C197.194 202.112 197.093 202.139 196.986 202.16C196.879 202.181 196.773 202.197 196.666 202.208C196.559 202.219 196.469 202.224 196.394 202.224C196.021 202.224 195.711 202.149 195.466 202C195.221 201.851 195.061 201.589 194.986 201.216C194.623 201.568 194.175 201.824 193.642 201.984C193.119 202.144 192.613 202.224 192.122 202.224C191.749 202.224 191.391 202.171 191.05 202.064C190.709 201.968 190.405 201.824 190.138 201.632C189.882 201.429 189.674 201.179 189.514 200.88C189.365 200.571 189.29 200.213 189.29 199.808C189.29 199.296 189.381 198.88 189.562 198.56C189.754 198.24 189.999 197.989 190.298 197.808C190.607 197.627 190.949 197.499 191.322 197.424C191.706 197.339 192.09 197.275 192.474 197.232C192.805 197.168 193.119 197.125 193.418 197.104C193.717 197.072 193.978 197.024 194.202 196.96C194.437 196.896 194.618 196.8 194.746 196.672C194.885 196.533 194.954 196.331 194.954 196.064C194.954 195.829 194.895 195.637 194.778 195.488C194.671 195.339 194.533 195.227 194.362 195.152C194.202 195.067 194.021 195.013 193.818 194.992C193.615 194.96 193.423 194.944 193.242 194.944C192.73 194.944 192.309 195.051 191.978 195.264C191.647 195.477 191.461 195.808 191.418 196.256H189.594C189.626 195.723 189.754 195.28 189.978 194.928C190.202 194.576 190.485 194.293 190.826 194.08C191.178 193.867 191.573 193.717 192.01 193.632C192.447 193.547 192.895 193.504 193.354 193.504C193.759 193.504 194.159 193.547 194.554 193.632C194.949 193.717 195.301 193.856 195.61 194.048C195.93 194.24 196.186 194.491 196.378 194.8C196.57 195.099 196.666 195.467 196.666 195.904V200.16ZM194.842 197.856C194.565 198.037 194.223 198.149 193.818 198.192C193.413 198.224 193.007 198.277 192.602 198.352C192.41 198.384 192.223 198.432 192.042 198.496C191.861 198.549 191.701 198.629 191.562 198.736C191.423 198.832 191.311 198.965 191.226 199.136C191.151 199.296 191.114 199.493 191.114 199.728C191.114 199.931 191.173 200.101 191.29 200.24C191.407 200.379 191.546 200.491 191.706 200.576C191.877 200.651 192.058 200.704 192.25 200.736C192.453 200.768 192.634 200.784 192.794 200.784C192.997 200.784 193.215 200.757 193.45 200.704C193.685 200.651 193.903 200.56 194.106 200.432C194.319 200.304 194.495 200.144 194.634 199.952C194.773 199.749 194.842 199.504 194.842 199.216V197.856ZM201.517 195.44C201.815 195.451 202.114 195.429 202.413 195.376C202.711 195.323 202.978 195.232 203.213 195.104C203.447 194.965 203.634 194.779 203.773 194.544C203.922 194.309 203.997 194.021 203.997 193.68C203.997 193.2 203.831 192.816 203.501 192.528C203.181 192.24 202.765 192.096 202.253 192.096C201.933 192.096 201.655 192.16 201.421 192.288C201.186 192.416 200.989 192.592 200.829 192.816C200.679 193.029 200.567 193.275 200.493 193.552C200.418 193.819 200.386 194.096 200.397 194.384H198.573C198.594 193.84 198.695 193.339 198.877 192.88C199.058 192.411 199.303 192.005 199.613 191.664C199.933 191.323 200.317 191.056 200.765 190.864C201.213 190.672 201.719 190.576 202.285 190.576C202.722 190.576 203.149 190.64 203.565 190.768C203.991 190.896 204.37 191.083 204.701 191.328C205.042 191.573 205.314 191.888 205.517 192.272C205.719 192.645 205.821 193.077 205.821 193.568C205.821 194.133 205.693 194.629 205.437 195.056C205.181 195.472 204.781 195.776 204.237 195.968V196C204.877 196.128 205.373 196.448 205.725 196.96C206.087 197.461 206.269 198.075 206.269 198.8C206.269 199.333 206.162 199.813 205.949 200.24C205.735 200.656 205.447 201.013 205.085 201.312C204.722 201.6 204.301 201.824 203.821 201.984C203.341 202.144 202.834 202.224 202.301 202.224C201.65 202.224 201.079 202.133 200.589 201.952C200.109 201.76 199.703 201.493 199.373 201.152C199.053 200.811 198.807 200.4 198.637 199.92C198.466 199.44 198.375 198.907 198.365 198.32H200.189C200.167 199.003 200.333 199.573 200.685 200.032C201.047 200.48 201.586 200.704 202.301 200.704C202.909 200.704 203.415 200.533 203.821 200.192C204.237 199.84 204.445 199.344 204.445 198.704C204.445 198.267 204.359 197.92 204.189 197.664C204.018 197.408 203.794 197.216 203.517 197.088C203.239 196.949 202.925 196.864 202.573 196.832C202.231 196.8 201.879 196.789 201.517 196.8V195.44ZM215.711 202H213.983V200.88H213.951C213.706 201.36 213.349 201.707 212.879 201.92C212.41 202.123 211.914 202.224 211.391 202.224C210.741 202.224 210.17 202.112 209.679 201.888C209.199 201.653 208.799 201.339 208.479 200.944C208.159 200.549 207.919 200.085 207.759 199.552C207.599 199.008 207.519 198.427 207.519 197.808C207.519 197.061 207.621 196.416 207.823 195.872C208.026 195.328 208.293 194.88 208.623 194.528C208.965 194.176 209.349 193.92 209.775 193.76C210.213 193.589 210.655 193.504 211.103 193.504C211.359 193.504 211.621 193.531 211.887 193.584C212.154 193.627 212.41 193.701 212.655 193.808C212.901 193.915 213.125 194.053 213.327 194.224C213.541 194.384 213.717 194.576 213.855 194.8H213.887V190.576H215.711V202ZM209.343 197.952C209.343 198.304 209.386 198.651 209.471 198.992C209.567 199.333 209.706 199.637 209.887 199.904C210.079 200.171 210.319 200.384 210.607 200.544C210.895 200.704 211.237 200.784 211.631 200.784C212.037 200.784 212.383 200.699 212.671 200.528C212.97 200.357 213.21 200.133 213.391 199.856C213.583 199.579 213.722 199.269 213.807 198.928C213.903 198.576 213.951 198.219 213.951 197.856C213.951 196.939 213.743 196.224 213.327 195.712C212.922 195.2 212.367 194.944 211.663 194.944C211.237 194.944 210.874 195.035 210.575 195.216C210.287 195.387 210.047 195.616 209.855 195.904C209.674 196.181 209.541 196.501 209.455 196.864C209.381 197.216 209.343 197.579 209.343 197.952ZM225.213 202H217.565C217.575 201.072 217.799 200.261 218.237 199.568C218.674 198.875 219.271 198.272 220.029 197.76C220.391 197.493 220.77 197.237 221.165 196.992C221.559 196.736 221.922 196.464 222.253 196.176C222.583 195.888 222.855 195.579 223.069 195.248C223.282 194.907 223.394 194.517 223.405 194.08C223.405 193.877 223.378 193.664 223.325 193.44C223.282 193.205 223.191 192.992 223.053 192.8C222.914 192.597 222.722 192.432 222.477 192.304C222.231 192.165 221.911 192.096 221.517 192.096C221.154 192.096 220.85 192.171 220.605 192.32C220.37 192.459 220.178 192.656 220.029 192.912C219.89 193.157 219.783 193.451 219.709 193.792C219.645 194.133 219.607 194.501 219.597 194.896H217.773C217.773 194.277 217.853 193.707 218.013 193.184C218.183 192.651 218.434 192.192 218.765 191.808C219.095 191.424 219.495 191.125 219.965 190.912C220.445 190.688 220.999 190.576 221.629 190.576C222.311 190.576 222.882 190.688 223.341 190.912C223.799 191.136 224.167 191.419 224.445 191.76C224.733 192.101 224.935 192.475 225.053 192.88C225.17 193.275 225.229 193.653 225.229 194.016C225.229 194.464 225.159 194.869 225.021 195.232C224.882 195.595 224.695 195.931 224.461 196.24C224.226 196.539 223.959 196.816 223.661 197.072C223.362 197.328 223.053 197.568 222.733 197.792C222.413 198.016 222.093 198.229 221.773 198.432C221.453 198.635 221.154 198.837 220.877 199.04C220.61 199.243 220.375 199.456 220.173 199.68C219.97 199.893 219.831 200.123 219.757 200.368H225.213V202ZM228.607 199.168C228.65 199.627 228.81 200 229.087 200.288C229.375 200.565 229.759 200.704 230.239 200.704C230.73 200.704 231.119 200.576 231.407 200.32C231.706 200.053 231.935 199.728 232.095 199.344C232.255 198.949 232.362 198.533 232.415 198.096C232.479 197.648 232.527 197.237 232.559 196.864L232.527 196.832C232.282 197.269 231.946 197.605 231.519 197.84C231.093 198.064 230.623 198.176 230.111 198.176C229.578 198.176 229.093 198.085 228.655 197.904C228.229 197.723 227.861 197.472 227.551 197.152C227.242 196.821 227.002 196.427 226.831 195.968C226.661 195.499 226.575 194.976 226.575 194.4C226.575 193.856 226.661 193.355 226.831 192.896C227.002 192.427 227.253 192.021 227.583 191.68C227.914 191.328 228.319 191.056 228.799 190.864C229.279 190.672 229.823 190.576 230.431 190.576C231.221 190.576 231.871 190.731 232.383 191.04C232.895 191.339 233.295 191.755 233.583 192.288C233.882 192.811 234.09 193.429 234.207 194.144C234.325 194.859 234.383 195.621 234.383 196.432C234.383 197.104 234.309 197.781 234.159 198.464C234.021 199.147 233.786 199.771 233.455 200.336C233.125 200.891 232.687 201.344 232.143 201.696C231.61 202.048 230.949 202.224 230.159 202.224C229.711 202.224 229.29 202.149 228.895 202C228.501 201.851 228.149 201.643 227.839 201.376C227.541 201.109 227.295 200.789 227.103 200.416C226.911 200.043 226.805 199.627 226.783 199.168H228.607ZM230.351 192.096C230.021 192.096 229.733 192.16 229.487 192.288C229.242 192.405 229.039 192.571 228.879 192.784C228.719 192.997 228.597 193.243 228.511 193.52C228.437 193.797 228.399 194.085 228.399 194.384C228.399 194.693 228.437 194.992 228.511 195.28C228.597 195.557 228.719 195.803 228.879 196.016C229.039 196.229 229.242 196.405 229.487 196.544C229.733 196.672 230.021 196.736 230.351 196.736C230.693 196.736 230.991 196.672 231.247 196.544C231.503 196.416 231.711 196.245 231.871 196.032C232.042 195.808 232.17 195.557 232.255 195.28C232.341 194.992 232.383 194.693 232.383 194.384C232.383 194.085 232.341 193.797 232.255 193.52C232.17 193.243 232.042 193.003 231.871 192.8C231.711 192.587 231.503 192.416 231.247 192.288C230.991 192.16 230.693 192.096 230.351 192.096ZM236.226 199.84H238.45V202H236.226V199.84ZM240.879 199.84H243.103V202H240.879V199.84ZM245.532 199.84H247.756V202H245.532V199.84Z" fill="#718096"/>
<path d="M259.626 194.532H268.754V195.652H259.626V194.532ZM259.276 196.898H269.342V198.032H259.276V196.898ZM261.586 193.314H262.804V197.486H261.586V193.314ZM265.296 193.314H266.542V197.458H265.296V193.314ZM257.904 189.828H259.234V193.958C259.234 194.555 259.215 195.213 259.178 195.932C259.141 196.641 259.066 197.369 258.954 198.116C258.842 198.863 258.674 199.586 258.45 200.286C258.226 200.986 257.927 201.625 257.554 202.204C257.47 202.129 257.353 202.045 257.204 201.952C257.064 201.868 256.919 201.784 256.77 201.7C256.621 201.625 256.49 201.565 256.378 201.518C256.733 200.977 257.008 200.384 257.204 199.74C257.409 199.096 257.559 198.438 257.652 197.766C257.755 197.085 257.82 196.422 257.848 195.778C257.885 195.125 257.904 194.518 257.904 193.958V189.828ZM258.702 189.828H268.544V193.3H258.702V192.166H267.214V190.962H258.702V189.828ZM264.512 197.332C264.904 198.303 265.52 199.11 266.36 199.754C267.209 200.389 268.259 200.832 269.51 201.084C269.37 201.215 269.225 201.387 269.076 201.602C268.927 201.817 268.805 202.008 268.712 202.176C267.387 201.849 266.285 201.299 265.408 200.524C264.54 199.749 263.877 198.769 263.42 197.584L264.512 197.332ZM267.718 197.99L268.712 198.69C268.329 198.97 267.909 199.245 267.452 199.516C266.995 199.777 266.579 200.001 266.206 200.188L265.352 199.544C265.604 199.413 265.875 199.259 266.164 199.082C266.453 198.905 266.733 198.723 267.004 198.536C267.275 198.34 267.513 198.158 267.718 197.99ZM260.452 202.218L260.41 201.224L260.928 200.804L264.624 200.034C264.596 200.202 264.573 200.393 264.554 200.608C264.535 200.823 264.531 200.995 264.54 201.126C263.709 201.322 263.037 201.481 262.524 201.602C262.02 201.733 261.628 201.831 261.348 201.896C261.077 201.971 260.877 202.031 260.746 202.078C260.625 202.125 260.527 202.171 260.452 202.218ZM260.452 202.218C260.433 202.115 260.391 201.994 260.326 201.854C260.27 201.723 260.209 201.588 260.144 201.448C260.079 201.317 260.013 201.215 259.948 201.14C260.088 201.056 260.237 200.921 260.396 200.734C260.564 200.538 260.648 200.277 260.648 199.95V197.416L261.88 197.458V200.86C261.88 200.86 261.833 200.893 261.74 200.958C261.647 201.014 261.525 201.093 261.376 201.196C261.236 201.299 261.096 201.411 260.956 201.532C260.816 201.653 260.695 201.775 260.592 201.896C260.499 202.017 260.452 202.125 260.452 202.218ZM271.19 190.052H282.908V191.312H271.19V190.052ZM270.686 195.064H283.342V196.324H270.686V195.064ZM278.932 190.752H280.318V202.19H278.932V190.752ZM273.976 190.752H275.334V194.546C275.334 195.218 275.297 195.904 275.222 196.604C275.147 197.295 274.989 197.976 274.746 198.648C274.513 199.32 274.153 199.959 273.668 200.566C273.192 201.173 272.553 201.728 271.75 202.232C271.675 202.129 271.573 202.017 271.442 201.896C271.321 201.775 271.195 201.653 271.064 201.532C270.933 201.411 270.807 201.317 270.686 201.252C271.433 200.795 272.025 200.3 272.464 199.768C272.903 199.236 273.229 198.681 273.444 198.102C273.659 197.523 273.799 196.931 273.864 196.324C273.939 195.717 273.976 195.12 273.976 194.532V190.752Z" fill="#168AFF"/>
<path d="M376.214 253.896V254.68H382.402V253.896H376.214ZM376.214 252.258V253.042H382.402V252.258H376.214ZM374.898 251.348H383.788V255.604H374.898V251.348ZM375.612 248.184L376.802 248.548C376.55 249.071 376.242 249.584 375.878 250.088C375.523 250.592 375.136 251.059 374.716 251.488C374.305 251.917 373.885 252.295 373.456 252.622C373.4 252.538 373.321 252.431 373.218 252.3C373.115 252.169 373.008 252.039 372.896 251.908C372.793 251.777 372.7 251.675 372.616 251.6C373.204 251.199 373.769 250.699 374.31 250.102C374.861 249.495 375.295 248.856 375.612 248.184ZM375.612 249.472H384.754V250.564H375.066L375.612 249.472ZM376.704 255.24L377.838 255.646C377.539 256.075 377.185 256.495 376.774 256.906C376.373 257.307 375.943 257.681 375.486 258.026C375.038 258.371 374.595 258.675 374.156 258.936C374.091 258.852 374.002 258.759 373.89 258.656C373.778 258.553 373.661 258.451 373.54 258.348C373.428 258.236 373.325 258.147 373.232 258.082C373.895 257.755 374.539 257.345 375.164 256.85C375.799 256.346 376.312 255.809 376.704 255.24ZM376.256 256.36H382.696V257.34H375.36L376.256 256.36ZM382.332 256.36H382.598L382.808 256.304L383.634 256.822C383.139 257.531 382.505 258.138 381.73 258.642C380.965 259.146 380.101 259.571 379.14 259.916C378.179 260.252 377.166 260.518 376.102 260.714C375.047 260.919 373.983 261.073 372.91 261.176C372.873 261.008 372.803 260.807 372.7 260.574C372.607 260.35 372.509 260.163 372.406 260.014C373.433 259.939 374.45 259.823 375.458 259.664C376.466 259.496 377.418 259.272 378.314 258.992C379.21 258.712 380.003 258.367 380.694 257.956C381.385 257.545 381.931 257.069 382.332 256.528V256.36ZM376.312 256.976C376.732 257.433 377.255 257.839 377.88 258.194C378.505 258.539 379.219 258.829 380.022 259.062C380.825 259.295 381.693 259.482 382.626 259.622C383.559 259.762 384.535 259.855 385.552 259.902C385.412 260.042 385.272 260.224 385.132 260.448C385.001 260.681 384.899 260.887 384.824 261.064C383.797 260.98 382.817 260.849 381.884 260.672C380.951 260.495 380.073 260.257 379.252 259.958C378.44 259.659 377.707 259.295 377.054 258.866C376.401 258.427 375.836 257.919 375.36 257.34L376.312 256.976ZM395.268 249.416H396.5V257.242H395.268V249.416ZM397.774 248.366H399.048V259.496C399.048 259.888 399.001 260.187 398.908 260.392C398.815 260.607 398.651 260.77 398.418 260.882C398.185 260.985 397.872 261.05 397.48 261.078C397.088 261.115 396.626 261.134 396.094 261.134C396.066 260.947 396.01 260.723 395.926 260.462C395.851 260.201 395.767 259.972 395.674 259.776C396.066 259.785 396.43 259.795 396.766 259.804C397.111 259.804 397.349 259.799 397.48 259.79C397.583 259.79 397.657 259.771 397.704 259.734C397.751 259.687 397.774 259.608 397.774 259.496V248.366ZM389.906 248.254H391.166V261.162H389.906V248.254ZM392.79 255.072H393.994V258.81C393.994 259.081 393.966 259.305 393.91 259.482C393.854 259.65 393.733 259.785 393.546 259.888C393.359 259.981 393.131 260.037 392.86 260.056C392.589 260.084 392.267 260.098 391.894 260.098C391.885 259.921 391.843 259.729 391.768 259.524C391.703 259.309 391.628 259.123 391.544 258.964C391.805 258.973 392.029 258.978 392.216 258.978C392.412 258.978 392.547 258.973 392.622 258.964C392.734 258.964 392.79 258.903 392.79 258.782V255.072ZM387.176 255.072H393.28V256.262H388.366V260.042H387.176V255.072ZM386.574 252.622H394.428V253.84H386.574V252.622ZM387.974 250.13H393.868V251.334H387.736L387.974 250.13ZM387.82 248.478L389.038 248.73C388.879 249.458 388.674 250.177 388.422 250.886C388.17 251.586 387.899 252.174 387.61 252.65C387.526 252.603 387.414 252.547 387.274 252.482C387.134 252.417 386.989 252.356 386.84 252.3C386.691 252.244 386.56 252.197 386.448 252.16C386.756 251.703 387.027 251.143 387.26 250.48C387.493 249.817 387.68 249.15 387.82 248.478Z" fill="#168AFF"/>
</g>
<path fill-rule="evenodd" clip-rule="evenodd" d="M55 56C55 47.1634 62.1634 40 71 40H416C424.837 40 432 47.1634 432 56V377C432 385.837 424.837 393 416 393H71C62.1634 393 55 385.837 55 377V56Z" fill="#EAF3FF"/>
<path d="M87 295H400" stroke="#F1F2F4"/>
<path d="M87 128H400" stroke="#F1F2F4"/>
<path d="M91.16 80.9H105.04V82.74H91.16V80.9ZM90.3 86.76H104.3V88.58H90.3V86.76ZM88.06 93.22H106.02V95.06H88.06V93.22ZM96.06 77.12H98.02V94.14H96.06V77.12ZM91.5 77.4L93.46 77.84C93.1667 78.8667 92.8133 79.88 92.4 80.88C92 81.8667 91.56 82.7867 91.08 83.64C90.6 84.48 90.1 85.22 89.58 85.86C89.4467 85.7533 89.2733 85.6333 89.06 85.5C88.86 85.3533 88.6533 85.2133 88.44 85.08C88.2267 84.9333 88.0333 84.82 87.86 84.74C88.4067 84.1533 88.9067 83.4733 89.36 82.7C89.8133 81.9133 90.22 81.0667 90.58 80.16C90.9533 79.2533 91.26 78.3333 91.5 77.4ZM110.52 84.62H115.32V86.36H110.52V84.62ZM114.6 84.62H116.44C116.44 84.62 116.44 84.6667 116.44 84.76C116.44 84.8533 116.433 84.96 116.42 85.08C116.42 85.2 116.42 85.3 116.42 85.38C116.393 86.8333 116.36 88.02 116.32 88.94C116.28 89.86 116.22 90.5667 116.14 91.06C116.06 91.54 115.947 91.8733 115.8 92.06C115.627 92.2733 115.44 92.4267 115.24 92.52C115.04 92.6133 114.793 92.68 114.5 92.72C114.247 92.76 113.907 92.78 113.48 92.78C113.053 92.78 112.6 92.7733 112.12 92.76C112.107 92.48 112.053 92.1733 111.96 91.84C111.867 91.5067 111.747 91.22 111.6 90.98C112.013 91.02 112.4 91.0467 112.76 91.06C113.12 91.0733 113.387 91.08 113.56 91.08C113.693 91.08 113.807 91.0667 113.9 91.04C114.007 91 114.1 90.94 114.18 90.86C114.273 90.74 114.347 90.48 114.4 90.08C114.453 89.6667 114.493 89.0467 114.52 88.22C114.56 87.3933 114.587 86.2933 114.6 84.92V84.62ZM120.38 78.22L121.54 77.08C121.94 77.28 122.36 77.5133 122.8 77.78C123.24 78.0333 123.653 78.2933 124.04 78.56C124.427 78.8267 124.747 79.0733 125 79.3L123.8 80.58C123.56 80.3533 123.247 80.1 122.86 79.82C122.487 79.54 122.08 79.26 121.64 78.98C121.213 78.7 120.793 78.4467 120.38 78.22ZM123.04 83.54L124.94 84C124.1 86.6 122.94 88.88 121.46 90.84C119.993 92.8 118.253 94.3867 116.24 95.6C116.16 95.4533 116.033 95.28 115.86 95.08C115.687 94.8933 115.513 94.7 115.34 94.5C115.167 94.3133 115.007 94.16 114.86 94.04C116.847 92.9733 118.527 91.5467 119.9 89.76C121.273 87.9733 122.32 85.9 123.04 83.54ZM110.64 80.34H126.1V82.2H110.64V80.34ZM109.38 80.34H111.36V86.08C111.36 86.8133 111.333 87.6067 111.28 88.46C111.227 89.3133 111.127 90.1867 110.98 91.08C110.833 91.96 110.62 92.8133 110.34 93.64C110.06 94.4667 109.687 95.2067 109.22 95.86C109.127 95.74 108.973 95.5933 108.76 95.42C108.56 95.2467 108.353 95.08 108.14 94.92C107.94 94.7733 107.767 94.66 107.62 94.58C108.167 93.78 108.56 92.8867 108.8 91.9C109.053 90.9 109.213 89.8933 109.28 88.88C109.347 87.8667 109.38 86.9267 109.38 86.06V80.34ZM117.62 77.14H119.6C119.587 78.9 119.647 80.5933 119.78 82.22C119.913 83.8333 120.107 85.3333 120.36 86.72C120.613 88.1067 120.913 89.3133 121.26 90.34C121.607 91.3667 121.993 92.1667 122.42 92.74C122.86 93.3133 123.307 93.6 123.76 93.6C124.027 93.6 124.227 93.32 124.36 92.76C124.493 92.2 124.587 91.2733 124.64 89.98C124.867 90.1933 125.133 90.4 125.44 90.6C125.747 90.8 126.027 90.9467 126.28 91.04C126.173 92.2267 126.02 93.1467 125.82 93.8C125.62 94.4533 125.34 94.9067 124.98 95.16C124.633 95.4133 124.18 95.54 123.62 95.54C122.927 95.54 122.293 95.3067 121.72 94.84C121.16 94.3733 120.653 93.7133 120.2 92.86C119.76 92.0067 119.38 91.0067 119.06 89.86C118.753 88.7133 118.493 87.4533 118.28 86.08C118.067 84.7067 117.907 83.2667 117.8 81.76C117.693 80.24 117.633 78.7 117.62 77.14ZM128.28 90.44C128.253 90.32 128.2 90.1467 128.12 89.92C128.053 89.6933 127.98 89.46 127.9 89.22C127.82 88.98 127.74 88.78 127.66 88.62C127.913 88.5667 128.16 88.4267 128.4 88.2C128.653 87.9733 128.947 87.68 129.28 87.32C129.453 87.1467 129.707 86.86 130.04 86.46C130.387 86.0467 130.767 85.56 131.18 85C131.593 84.44 132.007 83.8333 132.42 83.18C132.847 82.5267 133.233 81.8667 133.58 81.2L135.28 82.26C134.467 83.58 133.56 84.8733 132.56 86.14C131.56 87.3933 130.553 88.4933 129.54 89.44V89.48C129.54 89.48 129.473 89.5133 129.34 89.58C129.22 89.6467 129.073 89.7333 128.9 89.84C128.74 89.9333 128.593 90.0333 128.46 90.14C128.34 90.2467 128.28 90.3467 128.28 90.44ZM128.28 90.44L128.18 88.88L129.1 88.26L135.02 87.32C135.02 87.5733 135.027 87.8667 135.04 88.2C135.067 88.52 135.1 88.78 135.14 88.98C133.753 89.2333 132.633 89.44 131.78 89.6C130.94 89.76 130.287 89.8867 129.82 89.98C129.367 90.0733 129.027 90.16 128.8 90.24C128.587 90.3067 128.413 90.3733 128.28 90.44ZM128.14 85.54C128.1 85.4067 128.04 85.2267 127.96 85C127.893 84.76 127.813 84.52 127.72 84.28C127.64 84.04 127.56 83.8333 127.48 83.66C127.68 83.62 127.873 83.5 128.06 83.3C128.247 83.0867 128.447 82.82 128.66 82.5C128.767 82.34 128.927 82.0867 129.14 81.74C129.353 81.38 129.587 80.96 129.84 80.48C130.107 79.9867 130.367 79.46 130.62 78.9C130.873 78.3267 131.093 77.7533 131.28 77.18L133.22 77.98C132.887 78.7533 132.507 79.5333 132.08 80.32C131.653 81.0933 131.207 81.84 130.74 82.56C130.273 83.2667 129.813 83.9067 129.36 84.48V84.54C129.36 84.54 129.3 84.5733 129.18 84.64C129.06 84.7067 128.913 84.7933 128.74 84.9C128.58 84.9933 128.44 85.1 128.32 85.22C128.2 85.3267 128.14 85.4333 128.14 85.54ZM128.14 85.54L128.08 84.14L128.98 83.58L133.2 83.24C133.16 83.48 133.12 83.7533 133.08 84.06C133.053 84.3667 133.033 84.62 133.02 84.82C132.073 84.9133 131.3 85 130.7 85.08C130.1 85.1467 129.633 85.2067 129.3 85.26C128.967 85.3133 128.713 85.36 128.54 85.4C128.367 85.44 128.233 85.4867 128.14 85.54ZM127.62 92.76C128.26 92.6533 128.987 92.5267 129.8 92.38C130.613 92.2333 131.473 92.0733 132.38 91.9C133.3 91.7267 134.213 91.5467 135.12 91.36L135.28 93.12C133.987 93.4133 132.693 93.6933 131.4 93.96C130.12 94.2267 128.967 94.4733 127.94 94.7L127.62 92.76ZM135.18 79.7H145.96V81.52H135.18V79.7ZM135.7 84.22H145.58V86.04H135.7V84.22ZM137.24 93.1H144.14V94.8H137.24V93.1ZM139.62 77.1H141.6V85.16H139.62V77.1ZM136.2 87.82H145.14V95.58H143.22V89.54H138.06V95.66H136.2V87.82ZM148.16 87.7H165.86V89.44H148.16V87.7ZM156.02 78.7H158.02V95.68H156.02V78.7ZM155.44 88.5L157 89.18C156.387 90.02 155.64 90.82 154.76 91.58C153.88 92.34 152.933 93.02 151.92 93.62C150.92 94.22 149.913 94.7067 148.9 95.08C148.807 94.92 148.68 94.74 148.52 94.54C148.373 94.3533 148.22 94.1667 148.06 93.98C147.9 93.7933 147.753 93.64 147.62 93.52C148.367 93.28 149.107 92.9867 149.84 92.64C150.587 92.28 151.307 91.88 152 91.44C152.707 91 153.353 90.5333 153.94 90.04C154.527 89.5333 155.027 89.02 155.44 88.5ZM158.48 88.4C158.907 88.9067 159.42 89.4067 160.02 89.9C160.62 90.3933 161.273 90.86 161.98 91.3C162.687 91.74 163.42 92.14 164.18 92.5C164.94 92.8467 165.687 93.14 166.42 93.38C166.287 93.5 166.133 93.66 165.96 93.86C165.8 94.0467 165.647 94.2333 165.5 94.42C165.353 94.62 165.227 94.8067 165.12 94.98C164.387 94.6867 163.64 94.3333 162.88 93.92C162.133 93.4933 161.4 93.0267 160.68 92.52C159.96 92 159.28 91.4467 158.64 90.86C158.013 90.2733 157.46 89.6733 156.98 89.06L158.48 88.4ZM152.08 82.88V84.62H161.98V82.88H152.08ZM152.08 79.66V81.38H161.98V79.66H152.08ZM150.12 78.06H164.02V86.22H150.12V78.06Z" fill="#111827"/>
<path d="M88.328 316.52H99.432V317.992H88.328V316.52ZM87.64 321.208H98.84V322.664H87.64V321.208ZM85.848 326.376H100.216V327.848H85.848V326.376ZM92.248 313.496H93.816V327.112H92.248V313.496ZM88.6 313.72L90.168 314.072C89.9333 314.893 89.6507 315.704 89.32 316.504C89 317.293 88.648 318.029 88.264 318.712C87.88 319.384 87.48 319.976 87.064 320.488C86.9573 320.403 86.8187 320.307 86.648 320.2C86.488 320.083 86.3227 319.971 86.152 319.864C85.9813 319.747 85.8267 319.656 85.688 319.592C86.1253 319.123 86.5253 318.579 86.888 317.96C87.2507 317.331 87.576 316.653 87.864 315.928C88.1627 315.203 88.408 314.467 88.6 313.72ZM104.116 319.496H107.956V320.888H104.116V319.496ZM107.38 319.496H108.852C108.852 319.496 108.852 319.533 108.852 319.608C108.852 319.683 108.847 319.768 108.836 319.864C108.836 319.96 108.836 320.04 108.836 320.104C108.815 321.267 108.788 322.216 108.756 322.952C108.724 323.688 108.676 324.253 108.612 324.648C108.548 325.032 108.457 325.299 108.34 325.448C108.201 325.619 108.052 325.741 107.892 325.816C107.732 325.891 107.535 325.944 107.3 325.976C107.097 326.008 106.825 326.024 106.484 326.024C106.143 326.024 105.78 326.019 105.396 326.008C105.385 325.784 105.343 325.539 105.268 325.272C105.193 325.005 105.097 324.776 104.98 324.584C105.311 324.616 105.62 324.637 105.908 324.648C106.196 324.659 106.409 324.664 106.548 324.664C106.655 324.664 106.745 324.653 106.82 324.632C106.905 324.6 106.98 324.552 107.044 324.488C107.119 324.392 107.177 324.184 107.22 323.864C107.263 323.533 107.295 323.037 107.316 322.376C107.348 321.715 107.369 320.835 107.38 319.736V319.496ZM112.004 314.376L112.932 313.464C113.252 313.624 113.588 313.811 113.94 314.024C114.292 314.227 114.623 314.435 114.932 314.648C115.241 314.861 115.497 315.059 115.7 315.24L114.74 316.264C114.548 316.083 114.297 315.88 113.988 315.656C113.689 315.432 113.364 315.208 113.012 314.984C112.671 314.76 112.335 314.557 112.004 314.376ZM114.132 318.632L115.652 319C114.98 321.08 114.052 322.904 112.868 324.472C111.695 326.04 110.303 327.309 108.692 328.28C108.628 328.163 108.527 328.024 108.388 327.864C108.249 327.715 108.111 327.56 107.972 327.4C107.833 327.251 107.705 327.128 107.588 327.032C109.177 326.179 110.521 325.037 111.62 323.608C112.719 322.179 113.556 320.52 114.132 318.632ZM104.212 316.072H116.58V317.56H104.212V316.072ZM103.204 316.072H104.788V320.664C104.788 321.251 104.767 321.885 104.724 322.568C104.681 323.251 104.601 323.949 104.484 324.664C104.367 325.368 104.196 326.051 103.972 326.712C103.748 327.373 103.449 327.965 103.076 328.488C103.001 328.392 102.879 328.275 102.708 328.136C102.548 327.997 102.383 327.864 102.212 327.736C102.052 327.619 101.913 327.528 101.796 327.464C102.233 326.824 102.548 326.109 102.74 325.32C102.943 324.52 103.071 323.715 103.124 322.904C103.177 322.093 103.204 321.341 103.204 320.648V316.072ZM109.796 313.512H111.38C111.369 314.92 111.417 316.275 111.524 317.576C111.631 318.867 111.785 320.067 111.988 321.176C112.191 322.285 112.431 323.251 112.708 324.072C112.985 324.893 113.295 325.533 113.636 325.992C113.988 326.451 114.345 326.68 114.708 326.68C114.921 326.68 115.081 326.456 115.188 326.008C115.295 325.56 115.369 324.819 115.412 323.784C115.593 323.955 115.807 324.12 116.052 324.28C116.297 324.44 116.521 324.557 116.724 324.632C116.639 325.581 116.516 326.317 116.356 326.84C116.196 327.363 115.972 327.725 115.684 327.928C115.407 328.131 115.044 328.232 114.596 328.232C114.041 328.232 113.535 328.045 113.076 327.672C112.628 327.299 112.223 326.771 111.86 326.088C111.508 325.405 111.204 324.605 110.948 323.688C110.703 322.771 110.495 321.763 110.324 320.664C110.153 319.565 110.025 318.413 109.94 317.208C109.855 315.992 109.807 314.76 109.796 313.512ZM119.52 314.792H124.032V325.384H119.52V324.024H122.608V316.152H119.52V314.792ZM119.6 319.352H123.056V320.68H119.6V319.352ZM118.8 314.792H120.224V326.664H118.8V314.792ZM124.688 316.584H133.056V318.088H124.688V316.584ZM129.712 313.592H131.248V326.216C131.248 326.707 131.179 327.075 131.04 327.32C130.912 327.565 130.688 327.752 130.368 327.88C130.048 327.997 129.616 328.072 129.072 328.104C128.528 328.136 127.856 328.152 127.056 328.152C127.024 327.939 126.955 327.683 126.848 327.384C126.741 327.085 126.629 326.829 126.512 326.616C126.917 326.627 127.307 326.637 127.68 326.648C128.053 326.648 128.379 326.648 128.656 326.648C128.933 326.648 129.131 326.648 129.248 326.648C129.419 326.637 129.536 326.605 129.6 326.552C129.675 326.488 129.712 326.371 129.712 326.2V313.592ZM125.072 319.928L126.32 319.272C126.597 319.656 126.891 320.077 127.2 320.536C127.52 320.984 127.819 321.421 128.096 321.848C128.384 322.275 128.613 322.648 128.784 322.968L127.456 323.752C127.285 323.421 127.067 323.037 126.8 322.6C126.533 322.163 126.245 321.709 125.936 321.24C125.637 320.771 125.349 320.333 125.072 319.928ZM135.212 317.208H136.78V328.344H135.212V317.208ZM135.452 314.376L136.636 313.656C136.881 313.88 137.132 314.131 137.388 314.408C137.655 314.685 137.895 314.963 138.108 315.24C138.332 315.517 138.508 315.768 138.636 315.992L137.356 316.824C137.249 316.589 137.089 316.333 136.876 316.056C136.673 315.768 136.444 315.48 136.188 315.192C135.943 314.893 135.697 314.621 135.452 314.376ZM139.436 314.344H147.964V315.768H139.436V314.344ZM147.116 314.344H148.684V326.616C148.684 327 148.636 327.293 148.54 327.496C148.455 327.709 148.3 327.88 148.076 328.008C147.831 328.125 147.527 328.195 147.164 328.216C146.801 328.248 146.375 328.264 145.884 328.264C145.841 328.072 145.777 327.837 145.692 327.56C145.617 327.293 145.527 327.069 145.42 326.888C145.729 326.899 146.017 326.904 146.284 326.904C146.561 326.904 146.748 326.904 146.844 326.904C146.961 326.893 147.036 326.867 147.068 326.824C147.1 326.781 147.116 326.712 147.116 326.616V314.344ZM140.14 322.376V324.264H143.66V322.376H140.14ZM140.14 319.272V321.128H143.66V319.272H140.14ZM138.78 318.04H145.068V325.496H138.78V318.04Z" fill="#111827"/>
<circle cx="363.5" cy="4" r="4" fill="#8F95B2"/>
<circle cx="379.5" cy="4" r="4" fill="#8F95B2"/>
<circle cx="395.5" cy="4" r="4" fill="#8F95B2"/>
<defs>
<clipPath id="clip0_93_746">
<rect width="313" height="124" fill="white" transform="translate(87 141)"/>
</clipPath>
</defs>
</svg>
