<svg width="669" height="352" viewBox="0 0 669 352" fill="none" xmlns="http://www.w3.org/2000/svg">
<g clip-path="url(#clip0_93_667)">
<path fill-rule="evenodd" clip-rule="evenodd" d="M0 16C0 7.16345 7.16344 0 16 0H653C661.837 0 669 7.16344 669 16V336C669 344.837 661.837 352 653 352H16C7.16345 352 0 344.837 0 336V16Z" fill="white"/>
<g clip-path="url(#clip1_93_667)">
<path fill-rule="evenodd" clip-rule="evenodd" d="M32 48C32 39.1634 39.1634 32 48 32C56.8366 32 64 39.1634 64 48C64 56.8366 56.8366 64 48 64C39.1634 64 32 56.8366 32 48Z" fill="#EAF3FF"/>
<mask id="mask0_93_667" style="mask-type:luminance" maskUnits="userSpaceOnUse" x="32" y="32" width="32" height="32">
<path fill-rule="evenodd" clip-rule="evenodd" d="M32 48C32 39.1634 39.1634 32 48 32C56.8366 32 64 39.1634 64 48C64 56.8366 56.8366 64 48 64C39.1634 64 32 56.8366 32 48Z" fill="white"/>
</mask>
<g mask="url(#mask0_93_667)">
</g>
<g clip-path="url(#clip2_93_667)">
<path d="M42.1099 44.96L47.9899 48.37L53.8399 44.98" stroke="#168AFF" stroke-linejoin="round"/>
<path d="M48 48.3599V54.4099" stroke="#168AFF" stroke-linejoin="round"/>
<path fill-rule="evenodd" clip-rule="evenodd" d="M49.3698 54.3401L50.5898 53.6701C50.5098 53.5701 50.4398 53.4701 50.3798 53.3701C50.1298 52.9701 49.9898 52.4901 49.9898 51.9901C49.9898 51.1501 50.3798 50.4001 50.9898 49.9101C51.4498 49.5501 52.0298 49.3301 52.6598 49.3301C53.3298 49.3301 53.9298 49.5701 54.3898 49.9701C54.3998 49.9401 54.3998 49.9101 54.3998 49.8801V46.1101C54.3998 45.1901 53.7398 44.0701 52.9298 43.6201L49.3698 41.6501C48.6098 41.2201 47.3798 41.2201 46.6198 41.6501L43.0598 43.6201C42.2498 44.0701 41.5898 45.1901 41.5898 46.1101V49.8801C41.5898 50.8001 42.2498 51.9201 43.0598 52.3701L46.6198 54.3401C47.3798 54.7701 48.6098 54.7701 49.3698 54.3401Z" stroke="#168AFF" stroke-linejoin="round"/>
<path fill-rule="evenodd" clip-rule="evenodd" d="M52.67 49.3301C52.04 49.3301 51.46 49.5501 51 49.9201C50.39 50.4001 50 51.1601 50 52.0001C50 53.4701 51.19 54.6601 52.67 54.6601C53.34 54.6601 53.95 54.4101 54.42 53.9901C54.98 53.5101 55.33 52.7901 55.33 52.0001C55.33 50.5201 54.14 49.3301 52.67 49.3301Z" stroke="#168AFF" stroke-linejoin="round"/>
<path d="M52.83 51.1602V52.1602L52 52.6602" stroke="#168AFF" stroke-linejoin="round"/>
</g>
</g>
<path d="M84.838 46.676H90.796V48.224H84.838V46.676ZM84.586 55.118H90.796V56.63H84.586V55.118ZM83.902 50.006H91.624V57.53H89.878V51.518H85.558V57.548H83.902V50.006ZM88.42 41.384C88.768 42.128 89.206 42.86 89.734 43.58C90.274 44.3 90.862 44.96 91.498 45.56C92.146 46.16 92.806 46.646 93.478 47.018C93.346 47.126 93.202 47.264 93.046 47.432C92.902 47.6 92.758 47.774 92.614 47.954C92.47 48.122 92.35 48.278 92.254 48.422C91.57 47.966 90.904 47.39 90.256 46.694C89.62 45.998 89.026 45.236 88.474 44.408C87.934 43.568 87.478 42.71 87.106 41.834L88.42 41.384ZM87.25 40.808L88.852 41.258C88.312 42.746 87.574 44.126 86.638 45.398C85.714 46.658 84.622 47.732 83.362 48.62C83.278 48.488 83.164 48.344 83.02 48.188C82.876 48.032 82.726 47.882 82.57 47.738C82.414 47.582 82.27 47.456 82.138 47.36C82.918 46.844 83.638 46.238 84.298 45.542C84.958 44.846 85.54 44.096 86.044 43.292C86.548 42.476 86.95 41.648 87.25 40.808ZM78.142 42.446H82.192V52.76H78.142V51.176H80.608V44.012H78.142V42.446ZM77.26 42.446H78.826V54.434H77.26V42.446ZM95.008 46.712H111.01V48.206H95.008V46.712ZM107.734 40.754L109.156 41.69C108.364 42.23 107.47 42.728 106.474 43.184C105.49 43.628 104.446 44.036 103.342 44.408C102.238 44.78 101.122 45.116 99.994 45.416C98.866 45.704 97.774 45.956 96.718 46.172C96.634 46.04 96.52 45.884 96.376 45.704C96.244 45.524 96.106 45.35 95.962 45.182C95.818 45.002 95.686 44.858 95.566 44.75C96.682 44.582 97.81 44.366 98.95 44.102C100.102 43.838 101.212 43.538 102.28 43.202C103.36 42.854 104.362 42.476 105.286 42.068C106.222 41.66 107.038 41.222 107.734 40.754ZM102.802 48.584H104.458V57.512H102.802V48.584ZM97.996 50.24H108.634V51.752H99.688V56.522H97.996V50.24ZM107.878 50.24H109.588V54.668C109.588 55.076 109.534 55.394 109.426 55.622C109.33 55.838 109.132 56.012 108.832 56.144C108.544 56.252 108.172 56.318 107.716 56.342C107.26 56.378 106.708 56.396 106.06 56.396C106.024 56.156 105.952 55.904 105.844 55.64C105.748 55.364 105.646 55.124 105.538 54.92C105.994 54.932 106.408 54.938 106.78 54.938C107.164 54.938 107.422 54.938 107.554 54.938C107.674 54.938 107.758 54.92 107.806 54.884C107.854 54.836 107.878 54.758 107.878 54.65V50.24ZM96.736 42.086L97.906 41.06C98.854 41.288 99.868 41.564 100.948 41.888C102.028 42.2 103.108 42.536 104.188 42.896C105.268 43.256 106.282 43.622 107.23 43.994C108.19 44.366 109.024 44.72 109.732 45.056L108.436 46.262C107.788 45.938 107.002 45.584 106.078 45.2C105.166 44.816 104.176 44.438 103.108 44.066C102.04 43.682 100.954 43.322 99.85 42.986C98.758 42.638 97.72 42.338 96.736 42.086ZM101.182 44.588L102.91 45.056C102.454 46.208 101.878 47.324 101.182 48.404C100.486 49.484 99.676 50.48 98.752 51.392C97.84 52.292 96.814 53.066 95.674 53.714C95.578 53.582 95.464 53.438 95.332 53.282C95.2 53.114 95.062 52.958 94.918 52.814C94.774 52.658 94.648 52.526 94.54 52.418C95.62 51.842 96.592 51.14 97.456 50.312C98.332 49.472 99.082 48.56 99.706 47.576C100.342 46.592 100.834 45.596 101.182 44.588ZM117.976 42.554H128.848V44.03H117.976V42.554ZM117.184 55.622H129.316V57.08H117.184V55.622ZM118.84 45.524H127.804V55.964H126.238V46.82H120.37V55.964H118.84V45.524ZM119.938 48.098H126.562V49.322H119.938V48.098ZM119.902 50.618H126.922V51.806H119.902V50.618ZM119.884 53.12H126.598V54.344H119.884V53.12ZM122.674 40.826L124.474 40.898C124.378 41.498 124.264 42.116 124.132 42.752C124.012 43.388 123.88 44 123.736 44.588C123.604 45.164 123.472 45.668 123.34 46.1L121.864 45.956C121.972 45.5 122.08 44.972 122.188 44.372C122.296 43.772 122.392 43.16 122.476 42.536C122.572 41.912 122.638 41.342 122.674 40.826ZM116.536 40.844L118.102 41.33C117.73 42.35 117.298 43.364 116.806 44.372C116.314 45.368 115.774 46.316 115.186 47.216C114.61 48.104 114.016 48.89 113.404 49.574C113.356 49.442 113.272 49.268 113.152 49.052C113.044 48.824 112.93 48.602 112.81 48.386C112.69 48.158 112.582 47.978 112.486 47.846C113.026 47.27 113.542 46.61 114.034 45.866C114.538 45.11 115.006 44.306 115.438 43.454C115.87 42.602 116.236 41.732 116.536 40.844ZM114.7 45.686L116.266 44.066L116.284 44.084V57.512H114.7V45.686ZM133.744 44.21H146.236V45.866H133.744V44.21ZM132.97 49.484H145.57V51.122H132.97V49.484ZM130.954 55.298H147.118V56.954H130.954V55.298ZM138.154 40.808H139.918V56.126H138.154V40.808ZM134.05 41.06L135.814 41.456C135.55 42.38 135.232 43.292 134.86 44.192C134.5 45.08 134.104 45.908 133.672 46.676C133.24 47.432 132.79 48.098 132.322 48.674C132.202 48.578 132.046 48.47 131.854 48.35C131.674 48.218 131.488 48.092 131.296 47.972C131.104 47.84 130.93 47.738 130.774 47.666C131.266 47.138 131.716 46.526 132.124 45.83C132.532 45.122 132.898 44.36 133.222 43.544C133.558 42.728 133.834 41.9 134.05 41.06ZM151.168 47.558H155.488V49.124H151.168V47.558ZM154.84 47.558H156.496C156.496 47.558 156.496 47.6 156.496 47.684C156.496 47.768 156.49 47.864 156.478 47.972C156.478 48.08 156.478 48.17 156.478 48.242C156.454 49.55 156.424 50.618 156.388 51.446C156.352 52.274 156.298 52.91 156.226 53.354C156.154 53.786 156.052 54.086 155.92 54.254C155.764 54.446 155.596 54.584 155.416 54.668C155.236 54.752 155.014 54.812 154.75 54.848C154.522 54.884 154.216 54.902 153.832 54.902C153.448 54.902 153.04 54.896 152.608 54.884C152.596 54.632 152.548 54.356 152.464 54.056C152.38 53.756 152.272 53.498 152.14 53.282C152.512 53.318 152.86 53.342 153.184 53.354C153.508 53.366 153.748 53.372 153.904 53.372C154.024 53.372 154.126 53.36 154.21 53.336C154.306 53.3 154.39 53.246 154.462 53.174C154.546 53.066 154.612 52.832 154.66 52.472C154.708 52.1 154.744 51.542 154.768 50.798C154.804 50.054 154.828 49.064 154.84 47.828V47.558ZM160.042 41.798L161.086 40.772C161.446 40.952 161.824 41.162 162.22 41.402C162.616 41.63 162.988 41.864 163.336 42.104C163.684 42.344 163.972 42.566 164.2 42.77L163.12 43.922C162.904 43.718 162.622 43.49 162.274 43.238C161.938 42.986 161.572 42.734 161.176 42.482C160.792 42.23 160.414 42.002 160.042 41.798ZM162.436 46.586L164.146 47C163.39 49.34 162.346 51.392 161.014 53.156C159.694 54.92 158.128 56.348 156.316 57.44C156.244 57.308 156.13 57.152 155.974 56.972C155.818 56.804 155.662 56.63 155.506 56.45C155.35 56.282 155.206 56.144 155.074 56.036C156.862 55.076 158.374 53.792 159.61 52.184C160.846 50.576 161.788 48.71 162.436 46.586ZM151.276 43.706H165.19V45.38H151.276V43.706ZM150.142 43.706H151.924V48.872C151.924 49.532 151.9 50.246 151.852 51.014C151.804 51.782 151.714 52.568 151.582 53.372C151.45 54.164 151.258 54.932 151.006 55.676C150.754 56.42 150.418 57.086 149.998 57.674C149.914 57.566 149.776 57.434 149.584 57.278C149.404 57.122 149.218 56.972 149.026 56.828C148.846 56.696 148.69 56.594 148.558 56.522C149.05 55.802 149.404 54.998 149.62 54.11C149.848 53.21 149.992 52.304 150.052 51.392C150.112 50.48 150.142 49.634 150.142 48.854V43.706ZM157.558 40.826H159.34C159.328 42.41 159.382 43.934 159.502 45.398C159.622 46.85 159.796 48.2 160.024 49.448C160.252 50.696 160.522 51.782 160.834 52.706C161.146 53.63 161.494 54.35 161.878 54.866C162.274 55.382 162.676 55.64 163.084 55.64C163.324 55.64 163.504 55.388 163.624 54.884C163.744 54.38 163.828 53.546 163.876 52.382C164.08 52.574 164.32 52.76 164.596 52.94C164.872 53.12 165.124 53.252 165.352 53.336C165.256 54.404 165.118 55.232 164.938 55.82C164.758 56.408 164.506 56.816 164.182 57.044C163.87 57.272 163.462 57.386 162.958 57.386C162.334 57.386 161.764 57.176 161.248 56.756C160.744 56.336 160.288 55.742 159.88 54.974C159.484 54.206 159.142 53.306 158.854 52.274C158.578 51.242 158.344 50.108 158.152 48.872C157.96 47.636 157.816 46.34 157.72 44.984C157.624 43.616 157.57 42.23 157.558 40.826Z" fill="#168AFF"/>
<g clip-path="url(#clip3_93_667)">
<path fill-rule="evenodd" clip-rule="evenodd" d="M31.207 136C31.207 127.163 38.3705 120 47.207 120H621.793C630.63 120 637.793 127.163 637.793 136V192C637.793 200.837 630.63 208 621.793 208H47.207C38.3705 208 31.207 200.837 31.207 192V136Z" fill="#FAFAFA"/>
<path d="M334.628 151.5C327.896 151.5 322.438 157.096 322.438 164C322.438 170.904 327.896 176.5 334.628 176.5C341.361 176.5 346.818 170.904 346.818 164C346.818 157.096 341.361 151.5 334.628 151.5ZM340.723 165.25H335.847V170.25H333.409V165.25H328.533V162.75H333.409V157.75H335.847V162.75H340.723V165.25Z" fill="#A0AEC0"/>
</g>
<path d="M31.207 88H637.793" stroke="#F1F2F4"/>
<path d="M31.207 240H637.793" stroke="#F1F2F4"/>
<g clip-path="url(#clip4_93_667)">
<path d="M399 272.5H491C497.351 272.5 502.5 277.649 502.5 284V308C502.5 314.351 497.351 319.5 491 319.5H399C392.649 319.5 387.5 314.351 387.5 308V284C387.5 277.649 392.649 272.5 399 272.5Z" fill="white" stroke="#168AFF"/>
<path d="M406.556 293.966L407.704 292.888C408.049 293.252 408.39 293.649 408.726 294.078C409.071 294.498 409.384 294.918 409.664 295.338C409.953 295.758 410.187 296.136 410.364 296.472L409.104 297.704C408.936 297.359 408.717 296.967 408.446 296.528C408.175 296.089 407.872 295.646 407.536 295.198C407.209 294.75 406.883 294.339 406.556 293.966ZM413.094 292.538C413.206 293.126 413.355 293.747 413.542 294.4C413.738 295.044 413.976 295.683 414.256 296.318C414.545 296.953 414.886 297.541 415.278 298.082C415.679 298.623 416.137 299.076 416.65 299.44C416.529 299.543 416.384 299.687 416.216 299.874C416.057 300.061 415.903 300.252 415.754 300.448C415.605 300.653 415.483 300.835 415.39 300.994C414.858 300.546 414.387 300.014 413.976 299.398C413.575 298.773 413.225 298.11 412.926 297.41C412.637 296.701 412.394 295.991 412.198 295.282C412.002 294.573 411.839 293.901 411.708 293.266L413.094 292.538ZM406.276 288.31L408.124 288.366C408.059 290.214 407.923 291.941 407.718 293.546C407.513 295.142 407.195 296.584 406.766 297.872C406.346 299.151 405.758 300.252 405.002 301.176C404.899 301.073 404.745 300.947 404.54 300.798C404.335 300.649 404.12 300.499 403.896 300.35C403.672 300.201 403.485 300.084 403.336 300C404.083 299.225 404.657 298.25 405.058 297.074C405.469 295.898 405.758 294.568 405.926 293.084C406.103 291.6 406.22 290.009 406.276 288.31ZM411.708 288.296L413.57 288.38C413.495 289.808 413.383 291.157 413.234 292.426C413.085 293.686 412.87 294.857 412.59 295.94C412.319 297.013 411.96 297.989 411.512 298.866C411.073 299.743 410.523 300.509 409.86 301.162C409.767 301.069 409.617 300.947 409.412 300.798C409.207 300.649 408.992 300.495 408.768 300.336C408.544 300.187 408.357 300.07 408.208 299.986C409.076 299.239 409.748 298.292 410.224 297.144C410.709 295.987 411.059 294.666 411.274 293.182C411.498 291.689 411.643 290.06 411.708 288.296ZM426.888 291.25L428.624 291.712C428.064 293.42 427.327 294.895 426.412 296.136C425.497 297.368 424.391 298.399 423.094 299.23C421.797 300.061 420.289 300.728 418.572 301.232C418.516 301.092 418.427 300.924 418.306 300.728C418.185 300.532 418.054 300.336 417.914 300.14C417.783 299.944 417.662 299.781 417.55 299.65C419.211 299.239 420.653 298.675 421.876 297.956C423.099 297.237 424.121 296.327 424.942 295.226C425.773 294.125 426.421 292.799 426.888 291.25ZM421.47 291.348C421.955 292.711 422.623 293.943 423.472 295.044C424.321 296.145 425.362 297.083 426.594 297.858C427.835 298.623 429.273 299.193 430.906 299.566C430.785 299.687 430.649 299.841 430.5 300.028C430.36 300.224 430.225 300.42 430.094 300.616C429.963 300.812 429.856 300.985 429.772 301.134C428.055 300.677 426.566 300.023 425.306 299.174C424.055 298.325 422.991 297.284 422.114 296.052C421.237 294.82 420.504 293.411 419.916 291.824L421.47 291.348ZM417.816 290.466H430.64V292.104H417.816V290.466ZM422.968 288.492L424.76 287.96C424.956 288.287 425.143 288.651 425.32 289.052C425.507 289.453 425.642 289.799 425.726 290.088L423.822 290.69C423.757 290.401 423.64 290.051 423.472 289.64C423.313 289.22 423.145 288.837 422.968 288.492ZM439.618 288.282H441.326V301.246H439.618V288.282ZM437.238 288.884L438.862 289.206C438.731 289.841 438.573 290.471 438.386 291.096C438.199 291.721 437.989 292.309 437.756 292.86C437.532 293.401 437.294 293.877 437.042 294.288C436.939 294.204 436.795 294.111 436.608 294.008C436.431 293.905 436.249 293.807 436.062 293.714C435.885 293.611 435.726 293.537 435.586 293.49C435.838 293.117 436.071 292.683 436.286 292.188C436.501 291.684 436.687 291.152 436.846 290.592C437.005 290.023 437.135 289.453 437.238 288.884ZM437.784 290.816H444.266V292.468H437.364L437.784 290.816ZM435.824 294.89H444.924V296.528H435.824V294.89ZM434.788 288.156L436.384 288.66C436.085 289.444 435.735 290.237 435.334 291.04C434.933 291.833 434.494 292.585 434.018 293.294C433.551 294.003 433.066 294.629 432.562 295.17C432.506 295.03 432.427 294.853 432.324 294.638C432.221 294.414 432.109 294.19 431.988 293.966C431.867 293.742 431.755 293.56 431.652 293.42C432.072 292.991 432.473 292.496 432.856 291.936C433.248 291.376 433.607 290.774 433.934 290.13C434.27 289.486 434.555 288.828 434.788 288.156ZM433.402 292.034L434.998 290.438V290.452V301.232H433.402V292.034ZM446.832 290.536H458.396V297.564H456.632V292.188H448.512V297.634H446.832V290.536ZM447.7 295.212H457.612V296.864H447.7V295.212ZM451.676 288.1H453.454V301.246H451.676V288.1ZM464.238 292.902H473.226V294.358H464.238V292.902ZM465.904 289.864H472.652V291.278H465.904V289.864ZM468.06 288.184H469.726V293.462H468.06V288.184ZM465.708 288.534L467.29 288.884C467.094 289.603 466.823 290.298 466.478 290.97C466.142 291.633 465.783 292.193 465.4 292.65C465.297 292.557 465.162 292.454 464.994 292.342C464.826 292.23 464.653 292.118 464.476 292.006C464.308 291.894 464.159 291.81 464.028 291.754C464.411 291.362 464.747 290.881 465.036 290.312C465.325 289.733 465.549 289.141 465.708 288.534ZM469.138 293.756H470.804V296.808C470.804 297.004 470.818 297.13 470.846 297.186C470.874 297.233 470.944 297.256 471.056 297.256C471.084 297.256 471.121 297.256 471.168 297.256C471.224 297.256 471.28 297.256 471.336 297.256C471.401 297.256 471.462 297.256 471.518 297.256C471.574 297.256 471.616 297.256 471.644 297.256C471.719 297.256 471.775 297.223 471.812 297.158C471.859 297.093 471.891 296.957 471.91 296.752C471.938 296.537 471.957 296.22 471.966 295.8C472.069 295.884 472.204 295.968 472.372 296.052C472.549 296.136 472.731 296.211 472.918 296.276C473.114 296.341 473.287 296.397 473.436 296.444C473.38 297.069 473.291 297.55 473.17 297.886C473.049 298.222 472.881 298.46 472.666 298.6C472.451 298.731 472.171 298.796 471.826 298.796C471.761 298.796 471.681 298.796 471.588 298.796C471.495 298.796 471.397 298.796 471.294 298.796C471.191 298.796 471.093 298.796 471 298.796C470.907 298.796 470.827 298.796 470.762 298.796C470.314 298.796 469.973 298.735 469.74 298.614C469.516 298.483 469.357 298.278 469.264 297.998C469.18 297.709 469.138 297.317 469.138 296.822V293.756ZM466.618 293.714H468.312C468.256 294.283 468.167 294.825 468.046 295.338C467.934 295.851 467.761 296.327 467.528 296.766C467.295 297.195 466.968 297.592 466.548 297.956C466.137 298.32 465.61 298.633 464.966 298.894C464.901 298.754 464.812 298.6 464.7 298.432C464.588 298.255 464.462 298.082 464.322 297.914C464.191 297.746 464.065 297.611 463.944 297.508C464.495 297.312 464.933 297.083 465.26 296.822C465.596 296.561 465.853 296.271 466.03 295.954C466.217 295.627 466.352 295.277 466.436 294.904C466.52 294.521 466.581 294.125 466.618 293.714ZM460.416 289.444L461.69 288.506C461.961 288.721 462.236 288.959 462.516 289.22C462.796 289.472 463.057 289.729 463.3 289.99C463.552 290.251 463.753 290.499 463.902 290.732L462.516 291.782C462.385 291.558 462.203 291.311 461.97 291.04C461.737 290.76 461.485 290.48 461.214 290.2C460.943 289.92 460.677 289.668 460.416 289.444ZM463.608 293.504V298.824H461.998V295.058H460.444V293.504H463.608ZM463.44 298.194C463.664 298.194 463.883 298.273 464.098 298.432C464.313 298.591 464.593 298.777 464.938 298.992C465.377 299.253 465.895 299.421 466.492 299.496C467.089 299.571 467.752 299.608 468.48 299.608C468.947 299.608 469.479 299.594 470.076 299.566C470.673 299.538 471.266 299.501 471.854 299.454C472.442 299.407 472.96 299.351 473.408 299.286C473.361 299.435 473.301 299.617 473.226 299.832C473.161 300.047 473.1 300.261 473.044 300.476C472.997 300.691 472.969 300.873 472.96 301.022C472.699 301.041 472.381 301.055 472.008 301.064C471.644 301.083 471.247 301.097 470.818 301.106C470.398 301.125 469.983 301.139 469.572 301.148C469.161 301.157 468.783 301.162 468.438 301.162C467.607 301.162 466.898 301.111 466.31 301.008C465.731 300.905 465.204 300.723 464.728 300.462C464.448 300.285 464.196 300.117 463.972 299.958C463.757 299.79 463.571 299.706 463.412 299.706C463.244 299.706 463.048 299.785 462.824 299.944C462.6 300.103 462.362 300.308 462.11 300.56C461.867 300.821 461.62 301.101 461.368 301.4L460.248 299.93C460.603 299.613 460.967 299.323 461.34 299.062C461.723 298.791 462.091 298.581 462.446 298.432C462.81 298.273 463.141 298.194 463.44 298.194ZM474.364 295.184C474.961 295.044 475.675 294.867 476.506 294.652C477.337 294.428 478.177 294.204 479.026 293.98L479.236 295.492C478.461 295.716 477.677 295.945 476.884 296.178C476.1 296.402 475.381 296.607 474.728 296.794L474.364 295.184ZM474.56 290.746H479.25V292.286H474.56V290.746ZM476.142 288.114H477.766V299.454C477.766 299.855 477.724 300.168 477.64 300.392C477.565 300.625 477.416 300.807 477.192 300.938C476.968 301.069 476.693 301.153 476.366 301.19C476.049 301.237 475.657 301.26 475.19 301.26C475.171 301.036 475.115 300.77 475.022 300.462C474.938 300.163 474.845 299.902 474.742 299.678C474.994 299.687 475.227 299.697 475.442 299.706C475.666 299.706 475.82 299.701 475.904 299.692C476.063 299.692 476.142 299.613 476.142 299.454V288.114ZM479.6 288.674H485.69V290.144H479.6V288.674ZM485.368 288.674H485.648L485.914 288.604L486.922 289.136C486.595 289.855 486.175 290.513 485.662 291.11C485.158 291.707 484.589 292.244 483.954 292.72C483.319 293.196 482.643 293.611 481.924 293.966C481.205 294.321 480.468 294.615 479.712 294.848C479.628 294.652 479.502 294.419 479.334 294.148C479.166 293.877 479.003 293.667 478.844 293.518C479.544 293.331 480.23 293.093 480.902 292.804C481.574 292.505 482.199 292.16 482.778 291.768C483.366 291.367 483.879 290.928 484.318 290.452C484.766 289.967 485.116 289.453 485.368 288.912V288.674ZM481.574 289.402C481.947 290.065 482.437 290.667 483.044 291.208C483.66 291.74 484.369 292.202 485.172 292.594C485.984 292.977 486.866 293.271 487.818 293.476C487.706 293.579 487.58 293.719 487.44 293.896C487.309 294.064 487.188 294.237 487.076 294.414C486.964 294.582 486.871 294.736 486.796 294.876C485.816 294.596 484.915 294.223 484.094 293.756C483.282 293.289 482.554 292.729 481.91 292.076C481.275 291.423 480.734 290.685 480.286 289.864L481.574 289.402ZM479.782 295.282H486.586V296.752H479.782V295.282ZM479.082 297.718H487.468V299.202H479.082V297.718ZM482.386 294.176H484.066V301.26H482.386V294.176Z" fill="#168AFF"/>
</g>
<g clip-path="url(#clip5_93_667)">
<path fill-rule="evenodd" clip-rule="evenodd" d="M519 284C519 277.373 524.373 272 531 272H619C625.627 272 631 277.373 631 284V308C631 314.627 625.627 320 619 320H531C524.373 320 519 314.627 519 308V284Z" fill="#168AFF"/>
<path d="M543.02 292.584H548.348V294.328H543.02V292.584ZM542.844 299.992H548.156V301.688H542.844V299.992ZM542.108 295.624H549.1V302.44H547.148V297.304H543.964V302.456H542.108V295.624ZM546.332 287.976C546.631 288.616 547.009 289.245 547.468 289.864C547.937 290.483 548.455 291.053 549.02 291.576C549.596 292.088 550.188 292.515 550.796 292.856C550.647 292.973 550.487 293.128 550.316 293.32C550.145 293.501 549.98 293.688 549.82 293.88C549.66 294.072 549.527 294.253 549.42 294.424C548.791 293.997 548.193 293.475 547.628 292.856C547.063 292.227 546.545 291.539 546.076 290.792C545.607 290.035 545.201 289.256 544.86 288.456L546.332 287.976ZM544.972 287.368L546.78 287.896C546.279 289.272 545.612 290.536 544.78 291.688C543.959 292.829 542.988 293.795 541.868 294.584C541.772 294.445 541.644 294.285 541.484 294.104C541.324 293.923 541.159 293.747 540.988 293.576C540.817 293.395 540.663 293.256 540.524 293.16C541.207 292.723 541.836 292.195 542.412 291.576C542.988 290.957 543.495 290.291 543.932 289.576C544.369 288.851 544.716 288.115 544.972 287.368ZM537.148 288.792H540.78V298.248H537.148V296.472H539.02V290.552H537.148V288.792ZM536.124 288.792H537.868V299.656H536.124V288.792ZM552.148 292.6H566.468V294.28H552.148V292.6ZM563.348 287.336L564.948 288.424C564.233 288.872 563.423 289.293 562.516 289.688C561.62 290.072 560.676 290.424 559.684 290.744C558.703 291.053 557.705 291.336 556.692 291.592C555.689 291.837 554.719 292.051 553.78 292.232C553.684 292.072 553.561 291.891 553.412 291.688C553.263 291.485 553.103 291.288 552.932 291.096C552.772 290.904 552.628 290.744 552.5 290.616C553.492 290.488 554.5 290.317 555.524 290.104C556.548 289.891 557.535 289.645 558.484 289.368C559.444 289.08 560.34 288.771 561.172 288.44C562.004 288.099 562.729 287.731 563.348 287.336ZM558.916 294.536H560.772V302.44H558.916V294.536ZM554.724 295.864H564.132V297.544H556.628V301.624H554.724V295.864ZM563.284 295.864H565.22V299.672C565.22 300.088 565.167 300.419 565.06 300.664C564.953 300.909 564.751 301.096 564.452 301.224C564.153 301.352 563.801 301.427 563.396 301.448C563.001 301.48 562.532 301.496 561.988 301.496C561.956 301.24 561.881 300.957 561.764 300.648C561.657 300.339 561.545 300.072 561.428 299.848C561.748 299.859 562.063 299.869 562.372 299.88C562.692 299.88 562.905 299.88 563.012 299.88C563.108 299.88 563.177 299.864 563.22 299.832C563.263 299.8 563.284 299.736 563.284 299.64V295.864ZM553.556 288.68L554.9 287.544C555.732 287.736 556.623 287.971 557.572 288.248C558.532 288.515 559.497 288.803 560.468 289.112C561.439 289.411 562.356 289.725 563.22 290.056C564.095 290.376 564.847 290.68 565.476 290.968L564.02 292.312C563.444 292.024 562.74 291.715 561.908 291.384C561.087 291.053 560.196 290.728 559.236 290.408C558.276 290.077 557.305 289.763 556.324 289.464C555.353 289.165 554.431 288.904 553.556 288.68ZM557.524 290.776L559.476 291.304C559.049 292.328 558.521 293.325 557.892 294.296C557.263 295.267 556.537 296.163 555.716 296.984C554.905 297.795 553.983 298.483 552.948 299.048C552.852 298.909 552.729 298.749 552.58 298.568C552.431 298.387 552.276 298.211 552.116 298.04C551.956 297.869 551.807 297.725 551.668 297.608C552.639 297.107 553.503 296.493 554.26 295.768C555.028 295.032 555.689 294.232 556.244 293.368C556.799 292.504 557.225 291.64 557.524 290.776ZM572.86 288.872H582.62V290.504H572.86V288.872ZM572.156 300.52H582.988V302.136H572.156V300.52ZM573.548 291.608H581.756V300.824H579.996V293.016H575.228V300.824H573.548V291.608ZM574.812 293.88H580.3V295.208H574.812V293.88ZM574.764 296.104H580.732V297.4H574.764V296.104ZM574.732 298.296H580.332V299.608H574.732V298.296ZM576.86 287.432L578.892 287.496C578.807 288.061 578.705 288.637 578.588 289.224C578.471 289.8 578.353 290.349 578.236 290.872C578.119 291.395 578.001 291.853 577.884 292.248L576.22 292.12C576.316 291.693 576.407 291.208 576.492 290.664C576.577 290.12 576.652 289.565 576.716 289C576.791 288.435 576.839 287.912 576.86 287.432ZM571.276 287.448L573.052 288.024C572.721 288.92 572.332 289.827 571.884 290.744C571.436 291.651 570.951 292.509 570.428 293.32C569.916 294.131 569.383 294.845 568.828 295.464C568.775 295.304 568.684 295.101 568.556 294.856C568.439 294.6 568.316 294.344 568.188 294.088C568.06 293.832 567.937 293.624 567.82 293.464C568.279 292.984 568.721 292.424 569.148 291.784C569.585 291.133 569.985 290.44 570.348 289.704C570.711 288.968 571.02 288.216 571.276 287.448ZM569.708 291.896L571.468 290.088L571.484 290.104V302.424H569.708V291.896ZM587.028 290.312H598.164V292.184H587.028V290.312ZM586.356 295.016H597.54V296.872H586.356V295.016ZM584.516 300.104H598.98V301.976H584.516V300.104ZM590.724 287.4H592.74V301.016H590.724V287.4ZM587.028 287.608L589.012 288.056C588.788 288.877 588.511 289.688 588.18 290.488C587.849 291.288 587.492 292.035 587.108 292.728C586.724 293.411 586.324 294.008 585.908 294.52C585.78 294.403 585.609 294.275 585.396 294.136C585.193 293.987 584.98 293.843 584.756 293.704C584.532 293.565 584.34 293.453 584.18 293.368C584.607 292.92 584.996 292.387 585.348 291.768C585.711 291.149 586.031 290.483 586.308 289.768C586.596 289.053 586.836 288.333 587.028 287.608ZM602.812 293.432H606.508V295.176H602.812V293.432ZM605.772 293.432H607.628C607.628 293.432 607.628 293.475 607.628 293.56C607.628 293.645 607.628 293.747 607.628 293.864C607.628 293.971 607.628 294.061 607.628 294.136C607.607 295.267 607.58 296.195 607.548 296.92C607.516 297.635 607.463 298.195 607.388 298.6C607.324 298.995 607.233 299.272 607.116 299.432C606.956 299.635 606.785 299.779 606.604 299.864C606.433 299.949 606.231 300.013 605.996 300.056C605.783 300.099 605.511 300.125 605.18 300.136C604.86 300.136 604.508 300.131 604.124 300.12C604.113 299.843 604.06 299.533 603.964 299.192C603.868 298.851 603.751 298.563 603.612 298.328C603.9 298.349 604.167 298.365 604.412 298.376C604.668 298.387 604.86 298.392 604.988 298.392C605.095 298.392 605.185 298.381 605.26 298.36C605.345 298.328 605.415 298.275 605.468 298.2C605.543 298.104 605.596 297.907 605.628 297.608C605.671 297.299 605.703 296.835 605.724 296.216C605.745 295.587 605.761 294.755 605.772 293.72V293.432ZM610.572 288.408L611.74 287.256C612.039 287.405 612.353 287.581 612.684 287.784C613.015 287.987 613.329 288.189 613.628 288.392C613.937 288.595 614.188 288.792 614.38 288.984L613.148 290.264C612.967 290.083 612.732 289.88 612.444 289.656C612.156 289.432 611.847 289.213 611.516 289C611.185 288.776 610.871 288.579 610.572 288.408ZM612.46 292.536L614.412 293C613.74 295.08 612.823 296.92 611.66 298.52C610.497 300.109 609.121 301.395 607.532 302.376C607.447 302.237 607.319 302.067 607.148 301.864C606.977 301.672 606.801 301.475 606.62 301.272C606.439 301.08 606.279 300.92 606.14 300.792C607.676 299.96 608.977 298.84 610.044 297.432C611.111 296.013 611.916 294.381 612.46 292.536ZM602.908 289.8H615.26V291.688H602.908V289.8ZM601.628 289.8H603.644V294.52C603.644 295.117 603.623 295.773 603.58 296.488C603.537 297.192 603.457 297.917 603.34 298.664C603.223 299.4 603.047 300.109 602.812 300.792C602.588 301.475 602.295 302.088 601.932 302.632C601.825 302.493 601.665 302.339 601.452 302.168C601.249 301.997 601.041 301.827 600.828 301.656C600.625 301.496 600.449 301.384 600.3 301.32C600.705 300.68 600.999 299.965 601.18 299.176C601.372 298.376 601.495 297.571 601.548 296.76C601.601 295.949 601.628 295.197 601.628 294.504V289.8ZM608.124 287.416H610.14C610.119 288.728 610.156 290.013 610.252 291.272C610.348 292.531 610.487 293.709 610.668 294.808C610.86 295.896 611.084 296.861 611.34 297.704C611.596 298.536 611.879 299.187 612.188 299.656C612.497 300.125 612.812 300.36 613.132 300.36C613.313 300.36 613.452 300.141 613.548 299.704C613.655 299.267 613.729 298.547 613.772 297.544C613.996 297.757 614.257 297.965 614.556 298.168C614.865 298.371 615.148 298.52 615.404 298.616C615.308 299.608 615.164 300.376 614.972 300.92C614.78 301.453 614.524 301.821 614.204 302.024C613.884 302.227 613.473 302.328 612.972 302.328C612.396 302.328 611.873 302.131 611.404 301.736C610.945 301.341 610.535 300.792 610.172 300.088C609.82 299.384 609.516 298.557 609.26 297.608C609.004 296.659 608.791 295.629 608.62 294.52C608.46 293.411 608.337 292.259 608.252 291.064C608.177 289.859 608.135 288.643 608.124 287.416Z" fill="white"/>
</g>
</g>
<defs>
<clipPath id="clip0_93_667">
<rect width="669" height="352" fill="white"/>
</clipPath>
<clipPath id="clip1_93_667">
<rect width="32" height="32" fill="white" transform="translate(32 32)"/>
</clipPath>
<clipPath id="clip2_93_667">
<rect width="16" height="16" fill="white" transform="translate(40 40)"/>
</clipPath>
<clipPath id="clip3_93_667">
<rect width="606.586" height="88" fill="white" transform="translate(31.207 120)"/>
</clipPath>
<clipPath id="clip4_93_667">
<rect width="116" height="48" fill="white" transform="translate(387 272)"/>
</clipPath>
<clipPath id="clip5_93_667">
<rect width="112" height="48" fill="white" transform="translate(519 272)"/>
</clipPath>
</defs>
</svg>
