<svg width="432" height="353" viewBox="0 0 432 353" fill="none" xmlns="http://www.w3.org/2000/svg">
<path fill-rule="evenodd" clip-rule="evenodd" d="M55 16C55 7.16344 62.1634 0 71 0H416C424.837 0 432 7.16344 432 16V337C432 345.837 424.837 353 416 353H71C62.1634 353 55 345.837 55 337V16Z" fill="#EAF3FF"/>
<path d="M87 255H400" stroke="#F1F2F4"/>
<path d="M87.88 40.84H93.98V42.58H87.88V40.84ZM90.38 37.12H92.1V55.66H90.38V37.12ZM90.32 42.06L91.4 42.44C91.28 43.2267 91.12 44.04 90.92 44.88C90.72 45.72 90.4933 46.5467 90.24 47.36C89.9867 48.16 89.7133 48.9133 89.42 49.62C89.1267 50.3133 88.82 50.9133 88.5 51.42C88.4467 51.22 88.3667 51.0067 88.26 50.78C88.1533 50.5533 88.04 50.3333 87.92 50.12C87.8133 49.8933 87.7067 49.6933 87.6 49.52C87.8933 49.1067 88.1733 48.6067 88.44 48.02C88.72 47.4333 88.98 46.8067 89.22 46.14C89.4733 45.46 89.6933 44.7733 89.88 44.08C90.0667 43.3733 90.2133 42.7 90.32 42.06ZM92.02 43.24C92.14 43.3867 92.3067 43.6267 92.52 43.96C92.7467 44.2933 92.9867 44.66 93.24 45.06C93.4933 45.4467 93.7267 45.8067 93.94 46.14C94.1533 46.4733 94.3 46.7133 94.38 46.86L93.26 48.16C93.1667 47.9067 93.0267 47.5867 92.84 47.2C92.6533 46.8133 92.4533 46.4133 92.24 46C92.0267 45.5733 91.82 45.18 91.62 44.82C91.4333 44.4467 91.2733 44.1533 91.14 43.94L92.02 43.24ZM100.2 37.76C100.533 38.24 100.94 38.7333 101.42 39.24C101.9 39.7467 102.42 40.2467 102.98 40.74C103.54 41.2333 104.12 41.6933 104.72 42.12C105.32 42.5333 105.9 42.8933 106.46 43.2C106.34 43.3467 106.22 43.5267 106.1 43.74C105.98 43.9533 105.867 44.1733 105.76 44.4C105.667 44.6133 105.587 44.8067 105.52 44.98C104.733 44.46 103.92 43.8533 103.08 43.16C102.24 42.4533 101.447 41.7133 100.7 40.94C99.9667 40.1533 99.34 39.4 98.82 38.68L100.2 37.76ZM99.34 36.94L100.98 37.54C100.46 38.5533 99.8333 39.54 99.1 40.5C98.3667 41.4467 97.58 42.3267 96.74 43.14C95.9133 43.94 95.0667 44.64 94.2 45.24C94.1333 45.1067 94.0333 44.9467 93.9 44.76C93.7667 44.56 93.6267 44.36 93.48 44.16C93.3333 43.96 93.2067 43.8 93.1 43.68C93.9267 43.1733 94.7267 42.5667 95.5 41.86C96.2867 41.1533 97.0067 40.38 97.66 39.54C98.3267 38.7 98.8867 37.8333 99.34 36.94ZM96.34 43.28H103.26V44.9H96.34V43.28ZM94.9 46.96L96.36 46.58C96.56 47.0867 96.74 47.6267 96.9 48.2C97.06 48.7733 97.2067 49.34 97.34 49.9C97.4867 50.4467 97.5867 50.9333 97.64 51.36L96.1 51.8C96.0467 51.36 95.9533 50.8667 95.82 50.32C95.7 49.76 95.56 49.1867 95.4 48.6C95.24 48.0133 95.0733 47.4667 94.9 46.96ZM98.74 46.4L100.22 46.2C100.353 46.6933 100.473 47.2267 100.58 47.8C100.7 48.3733 100.807 48.9333 100.9 49.48C100.993 50.0133 101.053 50.5 101.08 50.94L99.52 51.18C99.4933 50.7533 99.44 50.2667 99.36 49.72C99.2933 49.16 99.2 48.5933 99.08 48.02C98.9733 47.4333 98.86 46.8933 98.74 46.4ZM103.68 46.2L105.34 46.6C105.033 47.4 104.687 48.24 104.3 49.12C103.927 50 103.54 50.8467 103.14 51.66C102.753 52.4733 102.373 53.1867 102 53.8L100.66 53.38C100.927 52.9133 101.2 52.3867 101.48 51.8C101.76 51.2 102.033 50.5733 102.3 49.92C102.58 49.2667 102.833 48.62 103.06 47.98C103.3 47.34 103.507 46.7467 103.68 46.2ZM93.88 53.12H105.78V54.8H93.88V53.12ZM113.72 46.44H115.36C115.36 46.44 115.36 46.5333 115.36 46.72C115.36 46.8933 115.353 47.04 115.34 47.16C115.233 48.84 115.127 50.2 115.02 51.24C114.927 52.28 114.807 53.08 114.66 53.64C114.527 54.1867 114.36 54.5733 114.16 54.8C113.973 55.0267 113.767 55.18 113.54 55.26C113.327 55.3533 113.067 55.42 112.76 55.46C112.493 55.4867 112.14 55.4933 111.7 55.48C111.273 55.48 110.82 55.4667 110.34 55.44C110.327 55.2133 110.273 54.9533 110.18 54.66C110.1 54.3667 109.987 54.1133 109.84 53.9C110.32 53.94 110.76 53.9667 111.16 53.98C111.573 53.9933 111.867 54 112.04 54C112.213 54 112.353 53.9867 112.46 53.96C112.567 53.9333 112.667 53.8667 112.76 53.76C112.893 53.6 113.02 53.2733 113.14 52.78C113.26 52.2867 113.367 51.5533 113.46 50.58C113.553 49.5933 113.64 48.3067 113.72 46.72V46.44ZM107.52 50.86C108.213 50.7267 109.02 50.5533 109.94 50.34C110.86 50.1133 111.807 49.88 112.78 49.64L112.94 51.08C112.06 51.3067 111.18 51.54 110.3 51.78C109.433 52.0067 108.627 52.2133 107.88 52.4L107.52 50.86ZM108.12 37.94H113.38V39.56H108.12V37.94ZM112.88 37.94H114.48C114.453 38.6733 114.407 39.44 114.34 40.24C114.273 41.04 114.207 41.84 114.14 42.64C114.087 43.44 114.027 44.2 113.96 44.92C113.893 45.6267 113.827 46.2533 113.76 46.8L112.14 46.84C112.22 46.2667 112.293 45.62 112.36 44.9C112.44 44.1667 112.513 43.4 112.58 42.6C112.647 41.7867 112.707 40.9867 112.76 40.2C112.813 39.4 112.853 38.6467 112.88 37.94ZM108.94 40.98L110.56 41.06C110.52 41.8067 110.467 42.6067 110.4 43.46C110.333 44.3 110.26 45.1133 110.18 45.9C110.113 46.6867 110.04 47.3667 109.96 47.94H108.36C108.44 47.34 108.52 46.64 108.6 45.84C108.68 45.0267 108.747 44.1933 108.8 43.34C108.867 42.4867 108.913 41.7 108.94 40.98ZM108.92 46.44H113.94V47.94H108.92V46.44ZM120.86 37.7C121.273 38.34 121.793 39.0067 122.42 39.7C123.047 40.38 123.72 41.02 124.44 41.62C125.173 42.22 125.88 42.7333 126.56 43.16C126.467 43.3067 126.36 43.4933 126.24 43.72C126.12 43.9333 126.007 44.1533 125.9 44.38C125.807 44.5933 125.733 44.7933 125.68 44.98C124.933 44.4467 124.173 43.8267 123.4 43.12C122.627 42.4133 121.9 41.6667 121.22 40.88C120.54 40.0933 119.96 39.34 119.48 38.62L120.86 37.7ZM120.2 36.94L121.86 37.5C121.38 38.5133 120.8 39.4867 120.12 40.42C119.44 41.34 118.707 42.1933 117.92 42.98C117.133 43.7667 116.32 44.4467 115.48 45.02C115.413 44.9 115.313 44.7467 115.18 44.56C115.047 44.36 114.907 44.1667 114.76 43.98C114.613 43.78 114.487 43.62 114.38 43.5C115.18 43.0067 115.94 42.42 116.66 41.74C117.393 41.06 118.067 40.3133 118.68 39.5C119.293 38.6867 119.8 37.8333 120.2 36.94ZM117.62 43.28H123.7V44.9H117.62V43.28ZM116.28 46.86L117.74 46.5C117.927 46.9933 118.107 47.5267 118.28 48.1C118.453 48.6733 118.6 49.2333 118.72 49.78C118.853 50.3133 118.953 50.8 119.02 51.24L117.48 51.66C117.427 51.2333 117.333 50.7467 117.2 50.2C117.08 49.64 116.94 49.0733 116.78 48.5C116.633 47.9133 116.467 47.3667 116.28 46.86ZM119.8 46.34L121.26 46.14C121.38 46.6333 121.5 47.1667 121.62 47.74C121.74 48.3133 121.84 48.8733 121.92 49.42C122.013 49.9533 122.073 50.44 122.1 50.88L120.58 51.12C120.553 50.6933 120.493 50.2067 120.4 49.66C120.32 49.1 120.227 48.5333 120.12 47.96C120.013 47.3867 119.907 46.8467 119.8 46.34ZM124.24 46.34L125.94 46.74C125.647 47.5267 125.327 48.3533 124.98 49.22C124.633 50.0733 124.28 50.9 123.92 51.7C123.56 52.5 123.213 53.2 122.88 53.8L121.5 53.38C121.74 52.9267 121.987 52.4067 122.24 51.82C122.493 51.2333 122.747 50.6267 123 50C123.253 49.36 123.487 48.7267 123.7 48.1C123.913 47.4733 124.093 46.8867 124.24 46.34ZM115.72 53.12H126V54.74H115.72V53.12ZM128.28 50.44C128.253 50.32 128.2 50.1467 128.12 49.92C128.053 49.6933 127.98 49.46 127.9 49.22C127.82 48.98 127.74 48.78 127.66 48.62C127.913 48.5667 128.16 48.4267 128.4 48.2C128.653 47.9733 128.947 47.68 129.28 47.32C129.453 47.1467 129.707 46.86 130.04 46.46C130.387 46.0467 130.767 45.56 131.18 45C131.593 44.44 132.007 43.8333 132.42 43.18C132.847 42.5267 133.233 41.8667 133.58 41.2L135.28 42.26C134.467 43.58 133.56 44.8733 132.56 46.14C131.56 47.3933 130.553 48.4933 129.54 49.44V49.48C129.54 49.48 129.473 49.5133 129.34 49.58C129.22 49.6467 129.073 49.7333 128.9 49.84C128.74 49.9333 128.593 50.0333 128.46 50.14C128.34 50.2467 128.28 50.3467 128.28 50.44ZM128.28 50.44L128.18 48.88L129.1 48.26L135.02 47.32C135.02 47.5733 135.027 47.8667 135.04 48.2C135.067 48.52 135.1 48.78 135.14 48.98C133.753 49.2333 132.633 49.44 131.78 49.6C130.94 49.76 130.287 49.8867 129.82 49.98C129.367 50.0733 129.027 50.16 128.8 50.24C128.587 50.3067 128.413 50.3733 128.28 50.44ZM128.14 45.54C128.1 45.4067 128.04 45.2267 127.96 45C127.893 44.76 127.813 44.52 127.72 44.28C127.64 44.04 127.56 43.8333 127.48 43.66C127.68 43.62 127.873 43.5 128.06 43.3C128.247 43.0867 128.447 42.82 128.66 42.5C128.767 42.34 128.927 42.0867 129.14 41.74C129.353 41.38 129.587 40.96 129.84 40.48C130.107 39.9867 130.367 39.46 130.62 38.9C130.873 38.3267 131.093 37.7533 131.28 37.18L133.22 37.98C132.887 38.7533 132.507 39.5333 132.08 40.32C131.653 41.0933 131.207 41.84 130.74 42.56C130.273 43.2667 129.813 43.9067 129.36 44.48V44.54C129.36 44.54 129.3 44.5733 129.18 44.64C129.06 44.7067 128.913 44.7933 128.74 44.9C128.58 44.9933 128.44 45.1 128.32 45.22C128.2 45.3267 128.14 45.4333 128.14 45.54ZM128.14 45.54L128.08 44.14L128.98 43.58L133.2 43.24C133.16 43.48 133.12 43.7533 133.08 44.06C133.053 44.3667 133.033 44.62 133.02 44.82C132.073 44.9133 131.3 45 130.7 45.08C130.1 45.1467 129.633 45.2067 129.3 45.26C128.967 45.3133 128.713 45.36 128.54 45.4C128.367 45.44 128.233 45.4867 128.14 45.54ZM127.62 52.76C128.26 52.6533 128.987 52.5267 129.8 52.38C130.613 52.2333 131.473 52.0733 132.38 51.9C133.3 51.7267 134.213 51.5467 135.12 51.36L135.28 53.12C133.987 53.4133 132.693 53.6933 131.4 53.96C130.12 54.2267 128.967 54.4733 127.94 54.7L127.62 52.76ZM135.18 39.7H145.96V41.52H135.18V39.7ZM135.7 44.22H145.58V46.04H135.7V44.22ZM137.24 53.1H144.14V54.8H137.24V53.1ZM139.62 37.1H141.6V45.16H139.62V37.1ZM136.2 47.82H145.14V55.58H143.22V49.54H138.06V55.66H136.2V47.82ZM148.16 47.7H165.86V49.44H148.16V47.7ZM156.02 38.7H158.02V55.68H156.02V38.7ZM155.44 48.5L157 49.18C156.387 50.02 155.64 50.82 154.76 51.58C153.88 52.34 152.933 53.02 151.92 53.62C150.92 54.22 149.913 54.7067 148.9 55.08C148.807 54.92 148.68 54.74 148.52 54.54C148.373 54.3533 148.22 54.1667 148.06 53.98C147.9 53.7933 147.753 53.64 147.62 53.52C148.367 53.28 149.107 52.9867 149.84 52.64C150.587 52.28 151.307 51.88 152 51.44C152.707 51 153.353 50.5333 153.94 50.04C154.527 49.5333 155.027 49.02 155.44 48.5ZM158.48 48.4C158.907 48.9067 159.42 49.4067 160.02 49.9C160.62 50.3933 161.273 50.86 161.98 51.3C162.687 51.74 163.42 52.14 164.18 52.5C164.94 52.8467 165.687 53.14 166.42 53.38C166.287 53.5 166.133 53.66 165.96 53.86C165.8 54.0467 165.647 54.2333 165.5 54.42C165.353 54.62 165.227 54.8067 165.12 54.98C164.387 54.6867 163.64 54.3333 162.88 53.92C162.133 53.4933 161.4 53.0267 160.68 52.52C159.96 52 159.28 51.4467 158.64 50.86C158.013 50.2733 157.46 49.6733 156.98 49.06L158.48 48.4ZM152.08 42.88V44.62H161.98V42.88H152.08ZM152.08 39.66V41.38H161.98V39.66H152.08ZM150.12 38.06H164.02V46.22H150.12V38.06Z" fill="#111827"/>
<path d="M85.704 276.472H90.584V277.864H85.704V276.472ZM87.704 273.496H89.08V288.328H87.704V273.496ZM87.656 277.448L88.52 277.752C88.424 278.381 88.296 279.032 88.136 279.704C87.976 280.376 87.7947 281.037 87.592 281.688C87.3893 282.328 87.1707 282.931 86.936 283.496C86.7013 284.051 86.456 284.531 86.2 284.936C86.1573 284.776 86.0933 284.605 86.008 284.424C85.9227 284.243 85.832 284.067 85.736 283.896C85.6507 283.715 85.5653 283.555 85.48 283.416C85.7147 283.085 85.9387 282.685 86.152 282.216C86.376 281.747 86.584 281.245 86.776 280.712C86.9787 280.168 87.1547 279.619 87.304 279.064C87.4533 278.499 87.5707 277.96 87.656 277.448ZM89.016 278.392C89.112 278.509 89.2453 278.701 89.416 278.968C89.5973 279.235 89.7893 279.528 89.992 279.848C90.1947 280.157 90.3813 280.445 90.552 280.712C90.7227 280.979 90.84 281.171 90.904 281.288L90.008 282.328C89.9333 282.125 89.8213 281.869 89.672 281.56C89.5227 281.251 89.3627 280.931 89.192 280.6C89.0213 280.259 88.856 279.944 88.696 279.656C88.5467 279.357 88.4187 279.123 88.312 278.952L89.016 278.392ZM95.56 274.008C95.8267 274.392 96.152 274.787 96.536 275.192C96.92 275.597 97.336 275.997 97.784 276.392C98.232 276.787 98.696 277.155 99.176 277.496C99.656 277.827 100.12 278.115 100.568 278.36C100.472 278.477 100.376 278.621 100.28 278.792C100.184 278.963 100.093 279.139 100.008 279.32C99.9333 279.491 99.8693 279.645 99.816 279.784C99.1867 279.368 98.536 278.883 97.864 278.328C97.192 277.763 96.5573 277.171 95.96 276.552C95.3733 275.923 94.872 275.32 94.456 274.744L95.56 274.008ZM94.872 273.352L96.184 273.832C95.768 274.643 95.2667 275.432 94.68 276.2C94.0933 276.957 93.464 277.661 92.792 278.312C92.1307 278.952 91.4533 279.512 90.76 279.992C90.7067 279.885 90.6267 279.757 90.52 279.608C90.4133 279.448 90.3013 279.288 90.184 279.128C90.0667 278.968 89.9653 278.84 89.88 278.744C90.5413 278.339 91.1813 277.853 91.8 277.288C92.4293 276.723 93.0053 276.104 93.528 275.432C94.0613 274.76 94.5093 274.067 94.872 273.352ZM92.472 278.424H98.008V279.72H92.472V278.424ZM91.32 281.368L92.488 281.064C92.648 281.469 92.792 281.901 92.92 282.36C93.048 282.819 93.1653 283.272 93.272 283.72C93.3893 284.157 93.4693 284.547 93.512 284.888L92.28 285.24C92.2373 284.888 92.1627 284.493 92.056 284.056C91.96 283.608 91.848 283.149 91.72 282.68C91.592 282.211 91.4587 281.773 91.32 281.368ZM94.392 280.92L95.576 280.76C95.6827 281.155 95.7787 281.581 95.864 282.04C95.96 282.499 96.0453 282.947 96.12 283.384C96.1947 283.811 96.2427 284.2 96.264 284.552L95.016 284.744C94.9947 284.403 94.952 284.013 94.888 283.576C94.8347 283.128 94.76 282.675 94.664 282.216C94.5787 281.747 94.488 281.315 94.392 280.92ZM98.344 280.76L99.672 281.08C99.4267 281.72 99.1493 282.392 98.84 283.096C98.5413 283.8 98.232 284.477 97.912 285.128C97.6027 285.779 97.2987 286.349 97 286.84L95.928 286.504C96.1413 286.131 96.36 285.709 96.584 285.24C96.808 284.76 97.0267 284.259 97.24 283.736C97.464 283.213 97.6667 282.696 97.848 282.184C98.04 281.672 98.2053 281.197 98.344 280.76ZM90.504 286.296H100.024V287.64H90.504V286.296ZM106.676 280.952H107.988C107.988 280.952 107.988 281.027 107.988 281.176C107.988 281.315 107.983 281.432 107.972 281.528C107.887 282.872 107.801 283.96 107.716 284.792C107.641 285.624 107.545 286.264 107.428 286.712C107.321 287.149 107.188 287.459 107.028 287.64C106.879 287.821 106.713 287.944 106.532 288.008C106.361 288.083 106.153 288.136 105.908 288.168C105.695 288.189 105.412 288.195 105.06 288.184C104.719 288.184 104.356 288.173 103.972 288.152C103.961 287.971 103.919 287.763 103.844 287.528C103.78 287.293 103.689 287.091 103.572 286.92C103.956 286.952 104.308 286.973 104.628 286.984C104.959 286.995 105.193 287 105.332 287C105.471 287 105.583 286.989 105.668 286.968C105.753 286.947 105.833 286.893 105.908 286.808C106.015 286.68 106.116 286.419 106.212 286.024C106.308 285.629 106.393 285.043 106.468 284.264C106.543 283.475 106.612 282.445 106.676 281.176V280.952ZM101.716 284.488C102.271 284.381 102.916 284.243 103.652 284.072C104.388 283.891 105.145 283.704 105.924 283.512L106.052 284.664C105.348 284.845 104.644 285.032 103.94 285.224C103.247 285.405 102.601 285.571 102.004 285.72L101.716 284.488ZM102.196 274.152H106.404V275.448H102.196V274.152ZM106.004 274.152H107.284C107.263 274.739 107.225 275.352 107.172 275.992C107.119 276.632 107.065 277.272 107.012 277.912C106.969 278.552 106.921 279.16 106.868 279.736C106.815 280.301 106.761 280.803 106.708 281.24L105.412 281.272C105.476 280.813 105.535 280.296 105.588 279.72C105.652 279.133 105.711 278.52 105.764 277.88C105.817 277.229 105.865 276.589 105.908 275.96C105.951 275.32 105.983 274.717 106.004 274.152ZM102.852 276.584L104.148 276.648C104.116 277.245 104.073 277.885 104.02 278.568C103.967 279.24 103.908 279.891 103.844 280.52C103.791 281.149 103.732 281.693 103.668 282.152H102.388C102.452 281.672 102.516 281.112 102.58 280.472C102.644 279.821 102.697 279.155 102.74 278.472C102.793 277.789 102.831 277.16 102.852 276.584ZM102.836 280.952H106.852V282.152H102.836V280.952ZM112.388 273.96C112.719 274.472 113.135 275.005 113.636 275.56C114.137 276.104 114.676 276.616 115.252 277.096C115.839 277.576 116.404 277.987 116.948 278.328C116.873 278.445 116.788 278.595 116.692 278.776C116.596 278.947 116.505 279.123 116.42 279.304C116.345 279.475 116.287 279.635 116.244 279.784C115.647 279.357 115.039 278.861 114.42 278.296C113.801 277.731 113.22 277.133 112.676 276.504C112.132 275.875 111.668 275.272 111.284 274.696L112.388 273.96ZM111.86 273.352L113.188 273.8C112.804 274.611 112.34 275.389 111.796 276.136C111.252 276.872 110.665 277.555 110.036 278.184C109.407 278.813 108.756 279.357 108.084 279.816C108.031 279.72 107.951 279.597 107.844 279.448C107.737 279.288 107.625 279.133 107.508 278.984C107.391 278.824 107.289 278.696 107.204 278.6C107.844 278.205 108.452 277.736 109.028 277.192C109.615 276.648 110.153 276.051 110.644 275.4C111.135 274.749 111.54 274.067 111.86 273.352ZM109.796 278.424H114.66V279.72H109.796V278.424ZM108.724 281.288L109.892 281C110.041 281.395 110.185 281.821 110.324 282.28C110.463 282.739 110.58 283.187 110.676 283.624C110.783 284.051 110.863 284.44 110.916 284.792L109.684 285.128C109.641 284.787 109.567 284.397 109.46 283.96C109.364 283.512 109.252 283.059 109.124 282.6C109.007 282.131 108.873 281.693 108.724 281.288ZM111.54 280.872L112.708 280.712C112.804 281.107 112.9 281.533 112.996 281.992C113.092 282.451 113.172 282.899 113.236 283.336C113.311 283.763 113.359 284.152 113.38 284.504L112.164 284.696C112.143 284.355 112.095 283.965 112.02 283.528C111.956 283.08 111.881 282.627 111.796 282.168C111.711 281.709 111.625 281.277 111.54 280.872ZM115.092 280.872L116.452 281.192C116.217 281.821 115.961 282.483 115.684 283.176C115.407 283.859 115.124 284.52 114.836 285.16C114.548 285.8 114.271 286.36 114.004 286.84L112.9 286.504C113.092 286.141 113.289 285.725 113.492 285.256C113.695 284.787 113.897 284.301 114.1 283.8C114.303 283.288 114.489 282.781 114.66 282.28C114.831 281.779 114.975 281.309 115.092 280.872ZM108.276 286.296H116.5V287.592H108.276V286.296ZM119.52 274.792H124.032V285.384H119.52V284.024H122.608V276.152H119.52V274.792ZM119.6 279.352H123.056V280.68H119.6V279.352ZM118.8 274.792H120.224V286.664H118.8V274.792ZM124.688 276.584H133.056V278.088H124.688V276.584ZM129.712 273.592H131.248V286.216C131.248 286.707 131.179 287.075 131.04 287.32C130.912 287.565 130.688 287.752 130.368 287.88C130.048 287.997 129.616 288.072 129.072 288.104C128.528 288.136 127.856 288.152 127.056 288.152C127.024 287.939 126.955 287.683 126.848 287.384C126.741 287.085 126.629 286.829 126.512 286.616C126.917 286.627 127.307 286.637 127.68 286.648C128.053 286.648 128.379 286.648 128.656 286.648C128.933 286.648 129.131 286.648 129.248 286.648C129.419 286.637 129.536 286.605 129.6 286.552C129.675 286.488 129.712 286.371 129.712 286.2V273.592ZM125.072 279.928L126.32 279.272C126.597 279.656 126.891 280.077 127.2 280.536C127.52 280.984 127.819 281.421 128.096 281.848C128.384 282.275 128.613 282.648 128.784 282.968L127.456 283.752C127.285 283.421 127.067 283.037 126.8 282.6C126.533 282.163 126.245 281.709 125.936 281.24C125.637 280.771 125.349 280.333 125.072 279.928ZM135.212 277.208H136.78V288.344H135.212V277.208ZM135.452 274.376L136.636 273.656C136.881 273.88 137.132 274.131 137.388 274.408C137.655 274.685 137.895 274.963 138.108 275.24C138.332 275.517 138.508 275.768 138.636 275.992L137.356 276.824C137.249 276.589 137.089 276.333 136.876 276.056C136.673 275.768 136.444 275.48 136.188 275.192C135.943 274.893 135.697 274.621 135.452 274.376ZM139.436 274.344H147.964V275.768H139.436V274.344ZM147.116 274.344H148.684V286.616C148.684 287 148.636 287.293 148.54 287.496C148.455 287.709 148.3 287.88 148.076 288.008C147.831 288.125 147.527 288.195 147.164 288.216C146.801 288.248 146.375 288.264 145.884 288.264C145.841 288.072 145.777 287.837 145.692 287.56C145.617 287.293 145.527 287.069 145.42 286.888C145.729 286.899 146.017 286.904 146.284 286.904C146.561 286.904 146.748 286.904 146.844 286.904C146.961 286.893 147.036 286.867 147.068 286.824C147.1 286.781 147.116 286.712 147.116 286.616V274.344ZM140.14 282.376V284.264H143.66V282.376H140.14ZM140.14 279.272V281.128H143.66V279.272H140.14ZM138.78 278.04H145.068V285.496H138.78V278.04Z" fill="#111827"/>
</svg>
