<svg width="322" height="300" viewBox="0 0 322 300" fill="none" xmlns="http://www.w3.org/2000/svg">
<g clip-path="url(#clip0_147_3006)">
<path fill-rule="evenodd" clip-rule="evenodd" d="M0 16C0 7.16345 7.16344 0 16 0H306C314.837 0 322 7.16344 322 16V284C322 292.837 314.837 300 306 300H16C7.16343 300 0 292.837 0 284V16Z" fill="#FAFAFA"/>
<path fill-rule="evenodd" clip-rule="evenodd" d="M129 72C129 54.3269 143.327 40 161 40C178.673 40 193 54.3269 193 72C193 89.6731 178.673 104 161 104C143.327 104 129 89.6731 129 72Z" fill="white"/>
<mask id="mask0_147_3006" style="mask-type:luminance" maskUnits="userSpaceOnUse" x="129" y="40" width="64" height="64">
<path fill-rule="evenodd" clip-rule="evenodd" d="M129 72C129 54.3269 143.327 40 161 40C178.673 40 193 54.3269 193 72C193 89.6731 178.673 104 161 104C143.327 104 129 89.6731 129 72Z" fill="white"/>
</mask>
<g mask="url(#mask0_147_3006)">
<path fill-rule="evenodd" clip-rule="evenodd" d="M149 62.6601V76.0001C149 76.7301 149.6 77.3301 150.33 77.3301H171.67C172.4 77.3301 173 76.7301 173 76.0001V62.6601C173 61.9301 172.4 61.3301 171.67 61.3301H150.33C149.6 61.3301 149 61.9301 149 62.6601Z" stroke="#168AFF" stroke-width="2" stroke-linejoin="round"/>
<path d="M161 71.9902V70.6602" stroke="#168AFF" stroke-width="2" stroke-linecap="round" stroke-linejoin="round"/>
<path d="M164.99 71.9901V69.3301" stroke="#168AFF" stroke-width="2" stroke-linecap="round" stroke-linejoin="round"/>
<path d="M157 71.9902V66.6602" stroke="#168AFF" stroke-width="2" stroke-linecap="round" stroke-linejoin="round"/>
<path d="M167.66 82.6602H154.33" stroke="#168AFF" stroke-width="2" stroke-linecap="round" stroke-linejoin="round"/>
<path d="M161 70.6602V71.9902" stroke="#168AFF" stroke-width="2" stroke-linecap="round" stroke-linejoin="round"/>
<path d="M157 66.6602V71.9902" stroke="#168AFF" stroke-width="2" stroke-linecap="round" stroke-linejoin="round"/>
<path d="M157 77.3301V82.6601" stroke="#168AFF" stroke-width="2" stroke-linecap="round" stroke-linejoin="round"/>
<path d="M164.99 77.3301V82.6601" stroke="#168AFF" stroke-width="2" stroke-linecap="round" stroke-linejoin="round"/>
<path d="M164.99 69.3301V71.9901" stroke="#168AFF" stroke-width="2" stroke-linecap="round" stroke-linejoin="round"/>
<path d="M161 70.6602V71.9902" stroke="#168AFF" stroke-width="2" stroke-linecap="round" stroke-linejoin="round"/>
<path d="M164.99 82.6601V77.3301" stroke="#168AFF" stroke-width="2" stroke-linecap="round" stroke-linejoin="round"/>
<path d="M157 82.6601V77.3301" stroke="#168AFF" stroke-width="2" stroke-linecap="round" stroke-linejoin="round"/>
<path d="M154.33 82.6602H167.66" stroke="#168AFF" stroke-width="2" stroke-linecap="round" stroke-linejoin="round"/>
</g>
<path d="M129.9 141.58L131.34 140.54C131.807 140.967 132.307 141.427 132.84 141.92C133.387 142.413 133.913 142.913 134.42 143.42C134.94 143.927 135.42 144.42 135.86 144.9C136.313 145.367 136.693 145.787 137 146.16L135.44 147.4C135.16 147.013 134.8 146.58 134.36 146.1C133.933 145.607 133.467 145.1 132.96 144.58C132.467 144.047 131.953 143.527 131.42 143.02C130.887 142.5 130.38 142.02 129.9 141.58ZM130.04 133.12H132V137.42C132 138.073 131.96 138.753 131.88 139.46C131.8 140.167 131.653 140.887 131.44 141.62C131.227 142.353 130.907 143.08 130.48 143.8C130.067 144.507 129.527 145.193 128.86 145.86C128.193 146.527 127.373 147.147 126.4 147.72C126.32 147.587 126.2 147.433 126.04 147.26C125.88 147.073 125.713 146.893 125.54 146.72C125.367 146.547 125.2 146.407 125.04 146.3C125.987 145.793 126.767 145.253 127.38 144.68C127.993 144.093 128.48 143.493 128.84 142.88C129.2 142.253 129.467 141.627 129.64 141C129.813 140.36 129.92 139.74 129.96 139.14C130.013 138.527 130.04 137.947 130.04 137.4V133.12ZM122.88 136.5H138.14V138.36H124.78V151.72H122.88V136.5ZM137.3 136.5H139.16V149.38C139.16 149.927 139.087 150.353 138.94 150.66C138.807 150.967 138.547 151.2 138.16 151.36C137.787 151.507 137.28 151.593 136.64 151.62C136.013 151.66 135.253 151.68 134.36 151.68C134.333 151.507 134.287 151.3 134.22 151.06C134.153 150.833 134.073 150.607 133.98 150.38C133.9 150.153 133.813 149.953 133.72 149.78C134.16 149.793 134.587 149.807 135 149.82C135.427 149.833 135.8 149.84 136.12 149.84C136.44 149.827 136.667 149.82 136.8 149.82C136.987 149.807 137.113 149.767 137.18 149.7C137.26 149.633 137.3 149.513 137.3 149.34V136.5ZM147.5 137.28L149.28 137.88C148.853 138.467 148.353 139.04 147.78 139.6C147.207 140.147 146.6 140.66 145.96 141.14C145.333 141.607 144.713 142.013 144.1 142.36C144.02 142.24 143.9 142.087 143.74 141.9C143.58 141.713 143.413 141.533 143.24 141.36C143.08 141.173 142.933 141.027 142.8 140.92C143.707 140.493 144.58 139.96 145.42 139.32C146.273 138.667 146.967 137.987 147.5 137.28ZM152.52 138.38L153.8 137.3C154.387 137.647 155.007 138.047 155.66 138.5C156.313 138.94 156.933 139.387 157.52 139.84C158.107 140.293 158.587 140.707 158.96 141.08L157.58 142.32C157.233 141.933 156.773 141.507 156.2 141.04C155.64 140.573 155.033 140.107 154.38 139.64C153.74 139.173 153.12 138.753 152.52 138.38ZM145.32 144.88H156.74V151.64H154.8V146.56H147.16V151.7H145.32V144.88ZM146.3 149.38H155.72V151.06H146.3V149.38ZM142.56 134.86H159.46V138.8H157.52V136.58H144.4V138.8H142.56V134.86ZM149.48 133.38L151.44 132.94C151.68 133.313 151.907 133.733 152.12 134.2C152.333 134.653 152.487 135.047 152.58 135.38L150.52 135.86C150.44 135.54 150.3 135.147 150.1 134.68C149.9 134.2 149.693 133.767 149.48 133.38ZM150.76 139.08L152.4 139.8C151.693 140.92 150.84 141.953 149.84 142.9C148.853 143.833 147.767 144.673 146.58 145.42C145.407 146.167 144.167 146.8 142.86 147.32C142.727 147.093 142.547 146.833 142.32 146.54C142.107 146.247 141.887 146 141.66 145.8C142.9 145.36 144.093 144.807 145.24 144.14C146.4 143.473 147.453 142.713 148.4 141.86C149.347 141.007 150.133 140.08 150.76 139.08ZM151.6 139.8C152.773 141.187 154.087 142.32 155.54 143.2C157.007 144.08 158.593 144.847 160.3 145.5C160.073 145.7 159.847 145.947 159.62 146.24C159.393 146.52 159.213 146.8 159.08 147.08C157.907 146.547 156.8 145.98 155.76 145.38C154.72 144.767 153.733 144.067 152.8 143.28C151.867 142.493 150.96 141.573 150.08 140.52L151.6 139.8ZM165.16 136.9H179.04V138.74H165.16V136.9ZM164.3 142.76H178.3V144.58H164.3V142.76ZM162.06 149.22H180.02V151.06H162.06V149.22ZM170.06 133.12H172.02V150.14H170.06V133.12ZM165.5 133.4L167.46 133.84C167.167 134.867 166.813 135.88 166.4 136.88C166 137.867 165.56 138.787 165.08 139.64C164.6 140.48 164.1 141.22 163.58 141.86C163.447 141.753 163.273 141.633 163.06 141.5C162.86 141.353 162.653 141.213 162.44 141.08C162.227 140.933 162.033 140.82 161.86 140.74C162.407 140.153 162.907 139.473 163.36 138.7C163.813 137.913 164.22 137.067 164.58 136.16C164.953 135.253 165.26 134.333 165.5 133.4ZM184.52 140.62H189.32V142.36H184.52V140.62ZM188.6 140.62H190.44C190.44 140.62 190.44 140.667 190.44 140.76C190.44 140.853 190.433 140.96 190.42 141.08C190.42 141.2 190.42 141.3 190.42 141.38C190.393 142.833 190.36 144.02 190.32 144.94C190.28 145.86 190.22 146.567 190.14 147.06C190.06 147.54 189.947 147.873 189.8 148.06C189.627 148.273 189.44 148.427 189.24 148.52C189.04 148.613 188.793 148.68 188.5 148.72C188.247 148.76 187.907 148.78 187.48 148.78C187.053 148.78 186.6 148.773 186.12 148.76C186.107 148.48 186.053 148.173 185.96 147.84C185.867 147.507 185.747 147.22 185.6 146.98C186.013 147.02 186.4 147.047 186.76 147.06C187.12 147.073 187.387 147.08 187.56 147.08C187.693 147.08 187.807 147.067 187.9 147.04C188.007 147 188.1 146.94 188.18 146.86C188.273 146.74 188.347 146.48 188.4 146.08C188.453 145.667 188.493 145.047 188.52 144.22C188.56 143.393 188.587 142.293 188.6 140.92V140.62ZM194.38 134.22L195.54 133.08C195.94 133.28 196.36 133.513 196.8 133.78C197.24 134.033 197.653 134.293 198.04 134.56C198.427 134.827 198.747 135.073 199 135.3L197.8 136.58C197.56 136.353 197.247 136.1 196.86 135.82C196.487 135.54 196.08 135.26 195.64 134.98C195.213 134.7 194.793 134.447 194.38 134.22ZM197.04 139.54L198.94 140C198.1 142.6 196.94 144.88 195.46 146.84C193.993 148.8 192.253 150.387 190.24 151.6C190.16 151.453 190.033 151.28 189.86 151.08C189.687 150.893 189.513 150.7 189.34 150.5C189.167 150.313 189.007 150.16 188.86 150.04C190.847 148.973 192.527 147.547 193.9 145.76C195.273 143.973 196.32 141.9 197.04 139.54ZM184.64 136.34H200.1V138.2H184.64V136.34ZM183.38 136.34H185.36V142.08C185.36 142.813 185.333 143.607 185.28 144.46C185.227 145.313 185.127 146.187 184.98 147.08C184.833 147.96 184.62 148.813 184.34 149.64C184.06 150.467 183.687 151.207 183.22 151.86C183.127 151.74 182.973 151.593 182.76 151.42C182.56 151.247 182.353 151.08 182.14 150.92C181.94 150.773 181.767 150.66 181.62 150.58C182.167 149.78 182.56 148.887 182.8 147.9C183.053 146.9 183.213 145.893 183.28 144.88C183.347 143.867 183.38 142.927 183.38 142.06V136.34ZM191.62 133.14H193.6C193.587 134.9 193.647 136.593 193.78 138.22C193.913 139.833 194.107 141.333 194.36 142.72C194.613 144.107 194.913 145.313 195.26 146.34C195.607 147.367 195.993 148.167 196.42 148.74C196.86 149.313 197.307 149.6 197.76 149.6C198.027 149.6 198.227 149.32 198.36 148.76C198.493 148.2 198.587 147.273 198.64 145.98C198.867 146.193 199.133 146.4 199.44 146.6C199.747 146.8 200.027 146.947 200.28 147.04C200.173 148.227 200.02 149.147 199.82 149.8C199.62 150.453 199.34 150.907 198.98 151.16C198.633 151.413 198.18 151.54 197.62 151.54C196.927 151.54 196.293 151.307 195.72 150.84C195.16 150.373 194.653 149.713 194.2 148.86C193.76 148.007 193.38 147.007 193.06 145.86C192.753 144.713 192.493 143.453 192.28 142.08C192.067 140.707 191.907 139.267 191.8 137.76C191.693 136.24 191.633 134.7 191.62 133.14Z" fill="#111827"/>
<path d="M62.8554 178.098H64.2414V184.566C64.2414 184.977 64.1807 185.285 64.0594 185.49C63.9474 185.705 63.7327 185.863 63.4154 185.966C63.1167 186.069 62.72 186.129 62.2254 186.148C61.74 186.176 61.1474 186.19 60.4474 186.19C60.41 185.994 60.34 185.765 60.2374 185.504C60.1347 185.243 60.0274 185.023 59.9154 184.846C60.2887 184.855 60.648 184.865 60.9934 184.874C61.3387 184.883 61.642 184.888 61.9034 184.888C62.1647 184.879 62.3467 184.874 62.4494 184.874C62.5987 184.865 62.7014 184.841 62.7574 184.804C62.8227 184.757 62.8554 184.673 62.8554 184.552V178.098ZM57.8294 174.22H67.7834V175.536H57.8294V174.22ZM67.3914 174.22H67.7554L68.0634 174.15L69.1134 174.92C68.656 175.424 68.1287 175.933 67.5314 176.446C66.934 176.95 66.3087 177.426 65.6554 177.874C65.0114 178.322 64.372 178.709 63.7374 179.036C63.672 178.933 63.5834 178.826 63.4714 178.714C63.3594 178.602 63.2474 178.49 63.1354 178.378C63.0327 178.257 62.9394 178.163 62.8554 178.098C63.2754 177.874 63.7047 177.617 64.1434 177.328C64.582 177.039 65.0067 176.731 65.4174 176.404C65.8374 176.077 66.2154 175.755 66.5514 175.438C66.8967 175.121 67.1767 174.827 67.3914 174.556V174.22ZM72.4454 176.754H76.4214V177.762H72.4454V176.754ZM72.4174 179.246H76.3934V180.212H72.4174V179.246ZM72.4174 181.878H76.3934V182.872H72.4174V181.878ZM78.6334 179.82H83.6314V180.954H78.6334V179.82ZM73.1594 174.458H75.5674V175.48H73.1594V174.458ZM77.5834 173.898H82.8054V174.99H77.5834V173.898ZM77.6534 182.466H83.9674V183.628H77.6534V182.466ZM80.4254 178.574H81.6714V186.162H80.4254V178.574ZM74.0834 177.258H75.0074V185.378H74.0834V177.258ZM82.4274 173.898H83.6174C83.6174 173.898 83.6127 173.954 83.6034 174.066C83.6034 174.178 83.5987 174.271 83.5894 174.346C83.5614 175.111 83.5287 175.737 83.4914 176.222C83.454 176.707 83.4027 177.085 83.3374 177.356C83.272 177.617 83.188 177.809 83.0854 177.93C82.9827 178.051 82.866 178.145 82.7354 178.21C82.614 178.266 82.46 178.303 82.2734 178.322C82.1334 178.341 81.928 178.35 81.6574 178.35C81.396 178.35 81.1207 178.345 80.8314 178.336C80.822 178.168 80.7894 177.981 80.7334 177.776C80.6867 177.571 80.6214 177.393 80.5374 177.244C80.7894 177.272 81.018 177.291 81.2234 177.3C81.438 177.3 81.592 177.3 81.6854 177.3C81.7787 177.309 81.8534 177.305 81.9094 177.286C81.9747 177.267 82.0307 177.23 82.0774 177.174C82.1334 177.099 82.1847 176.955 82.2314 176.74C82.278 176.525 82.3154 176.203 82.3434 175.774C82.3807 175.335 82.4087 174.766 82.4274 174.066V173.898ZM78.5354 178.574L79.6274 178.784C79.4967 179.428 79.3147 180.053 79.0814 180.66C78.8574 181.257 78.6007 181.766 78.3114 182.186C78.2367 182.13 78.1387 182.069 78.0174 182.004C77.896 181.939 77.7747 181.878 77.6534 181.822C77.532 181.757 77.4247 181.705 77.3314 181.668C77.6207 181.276 77.8634 180.809 78.0594 180.268C78.2647 179.717 78.4234 179.153 78.5354 178.574ZM73.0054 173.17L74.1814 173.422C74.0134 174.057 73.808 174.677 73.5654 175.284C73.3227 175.891 73.052 176.455 72.7534 176.978C72.464 177.501 72.1514 177.963 71.8154 178.364C71.75 178.289 71.6567 178.205 71.5354 178.112C71.4234 178.009 71.302 177.911 71.1714 177.818C71.05 177.715 70.9427 177.636 70.8494 177.58C71.344 177.048 71.7734 176.395 72.1374 175.62C72.5107 174.836 72.8 174.019 73.0054 173.17ZM71.9414 176.754H73.0474V180.478C73.0474 180.917 73.0334 181.388 73.0054 181.892C72.9774 182.396 72.9214 182.905 72.8374 183.418C72.7534 183.931 72.632 184.431 72.4734 184.916C72.324 185.392 72.1234 185.826 71.8714 186.218C71.806 186.153 71.7127 186.078 71.5914 185.994C71.47 185.919 71.3487 185.845 71.2274 185.77C71.106 185.695 70.9987 185.644 70.9054 185.616C71.2227 185.121 71.4514 184.575 71.5914 183.978C71.7407 183.381 71.834 182.779 71.8714 182.172C71.918 181.565 71.9414 181.001 71.9414 180.478V176.754ZM76.0574 176.754H77.1634V184.762C77.1634 185.014 77.1354 185.224 77.0794 185.392C77.0234 185.569 76.916 185.709 76.7574 185.812C76.5987 185.915 76.4027 185.975 76.1694 185.994C75.9454 186.022 75.6654 186.036 75.3294 186.036C75.3107 185.877 75.2687 185.686 75.2034 185.462C75.138 185.247 75.068 185.065 74.9934 184.916C75.208 184.925 75.3947 184.93 75.5534 184.93C75.712 184.93 75.824 184.925 75.8894 184.916C76.0014 184.916 76.0574 184.855 76.0574 184.734V176.754ZM79.4454 174.248H80.6494C80.584 174.911 80.4674 175.527 80.2994 176.096C80.1314 176.656 79.8607 177.16 79.4874 177.608C79.1234 178.056 78.6147 178.429 77.9614 178.728C77.896 178.588 77.7934 178.429 77.6534 178.252C77.5134 178.065 77.378 177.921 77.2474 177.818C77.798 177.575 78.2227 177.277 78.5214 176.922C78.82 176.558 79.0347 176.152 79.1654 175.704C79.3054 175.247 79.3987 174.761 79.4454 174.248ZM75.3854 174.458H75.6374L75.8194 174.402L76.6174 174.892C76.5147 175.181 76.3887 175.489 76.2394 175.816C76.0994 176.133 75.95 176.441 75.7914 176.74C75.642 177.029 75.4927 177.291 75.3434 177.524C75.2314 177.44 75.0914 177.347 74.9234 177.244C74.7554 177.141 74.606 177.062 74.4754 177.006C74.5874 176.782 74.704 176.535 74.8254 176.264C74.9467 175.993 75.054 175.718 75.1474 175.438C75.2407 175.149 75.32 174.892 75.3854 174.668V174.458ZM84.4854 185L87.9014 174.682H89.7774L93.1934 185H91.4714L89.8054 179.4C89.6374 178.84 89.474 178.275 89.3154 177.706C89.1567 177.127 88.998 176.549 88.8394 175.97H88.7834C88.634 176.558 88.4754 177.137 88.3074 177.706C88.1487 178.275 87.9854 178.84 87.8174 179.4L86.1514 185H84.4854ZM86.4174 182.074V180.786H91.2334V182.074H86.4174ZM94.5523 185V174.682H96.1763V185H94.5523ZM98.9426 174.71H110.129V176.082H98.9426V174.71ZM98.2006 183.824H110.871V185.154H98.2006V183.824ZM103.731 175.438H105.215V184.356H103.731V175.438ZM119.845 183.95L120.685 183.012C121.217 183.245 121.749 183.493 122.281 183.754C122.822 184.015 123.331 184.272 123.807 184.524C124.292 184.767 124.707 184.995 125.053 185.21L123.975 186.204C123.648 185.98 123.261 185.737 122.813 185.476C122.374 185.215 121.898 184.953 121.385 184.692C120.871 184.421 120.358 184.174 119.845 183.95ZM112.201 181.92H124.871V183.124H112.201V181.92ZM114.917 175.928H122.029V176.894H114.917V175.928ZM114.917 177.888H122.029V178.868H114.917V177.888ZM114.917 179.89H122.029V180.856H114.917V179.89ZM116.023 183.082L117.227 183.908C116.863 184.188 116.438 184.473 115.953 184.762C115.467 185.042 114.968 185.303 114.455 185.546C113.941 185.789 113.451 186.003 112.985 186.19C112.863 186.05 112.709 185.887 112.523 185.7C112.336 185.513 112.163 185.355 112.005 185.224C112.481 185.056 112.971 184.855 113.475 184.622C113.988 184.379 114.469 184.123 114.917 183.852C115.365 183.581 115.733 183.325 116.023 183.082ZM114.427 173.842H122.771V182.48H121.441V174.92H115.701V182.48H114.427V173.842ZM125.949 180.506C126.462 180.357 127.078 180.161 127.797 179.918C128.515 179.675 129.239 179.428 129.967 179.176L130.177 180.352C129.514 180.595 128.842 180.842 128.161 181.094C127.479 181.346 126.849 181.575 126.271 181.78L125.949 180.506ZM126.117 175.928H130.093V177.16H126.117V175.928ZM127.587 173.184H128.833V184.678C128.833 184.986 128.8 185.229 128.735 185.406C128.669 185.583 128.548 185.723 128.371 185.826C128.203 185.929 127.988 185.994 127.727 186.022C127.475 186.05 127.162 186.064 126.789 186.064C126.77 185.905 126.723 185.709 126.649 185.476C126.583 185.252 126.513 185.056 126.439 184.888C126.653 184.897 126.849 184.902 127.027 184.902C127.204 184.893 127.325 184.888 127.391 184.888C127.521 184.888 127.587 184.818 127.587 184.678V173.184ZM133.075 174.696V175.914H136.001V174.696H133.075ZM131.927 173.73H137.219V176.88H131.927V173.73ZM131.591 178.378V179.736H133.131V178.378H131.591ZM130.583 177.454H134.195V180.674H130.583V177.454ZM135.917 178.378V179.736H137.513V178.378H135.917ZM134.881 177.454H138.605V180.674H134.881V177.454ZM130.359 181.64H138.885V182.732H130.359V181.64ZM133.915 180.646H135.175V186.204H133.915V180.646ZM133.719 182.158L134.741 182.55C134.414 183.035 134.008 183.497 133.523 183.936C133.047 184.375 132.524 184.762 131.955 185.098C131.385 185.434 130.802 185.705 130.205 185.91C130.111 185.761 129.985 185.583 129.827 185.378C129.668 185.173 129.519 185.009 129.379 184.888C129.957 184.72 130.522 184.501 131.073 184.23C131.623 183.95 132.127 183.633 132.585 183.278C133.042 182.923 133.42 182.55 133.719 182.158ZM135.469 182.298C135.721 182.634 136.043 182.965 136.435 183.292C136.836 183.619 137.265 183.913 137.723 184.174C138.189 184.426 138.656 184.631 139.123 184.79C139.039 184.865 138.941 184.958 138.829 185.07C138.726 185.191 138.623 185.313 138.521 185.434C138.427 185.565 138.348 185.686 138.283 185.798C137.807 185.593 137.331 185.327 136.855 185C136.388 184.673 135.954 184.309 135.553 183.908C135.151 183.497 134.811 183.077 134.531 182.648L135.469 182.298ZM146.375 175.494H153.039V176.768H145.745L146.375 175.494ZM148.153 178.546H152.703V179.764H148.153V178.546ZM148.153 181.64H152.899V182.886H148.153V181.64ZM147.495 175.914H148.853V186.176H147.495V175.914ZM146.809 173.338L148.097 173.66C147.835 174.416 147.527 175.158 147.173 175.886C146.818 176.614 146.435 177.295 146.025 177.93C145.623 178.565 145.208 179.125 144.779 179.61C144.713 179.526 144.615 179.428 144.485 179.316C144.363 179.195 144.237 179.078 144.107 178.966C143.976 178.854 143.864 178.765 143.771 178.7C144.191 178.261 144.587 177.757 144.961 177.188C145.343 176.609 145.693 175.993 146.011 175.34C146.328 174.677 146.594 174.01 146.809 173.338ZM143.295 173.24L144.583 173.632C144.275 174.425 143.915 175.219 143.505 176.012C143.094 176.796 142.646 177.533 142.161 178.224C141.685 178.915 141.19 179.526 140.677 180.058C140.639 179.955 140.574 179.815 140.481 179.638C140.397 179.461 140.303 179.283 140.201 179.106C140.107 178.919 140.019 178.779 139.935 178.686C140.383 178.238 140.812 177.725 141.223 177.146C141.643 176.567 142.03 175.942 142.385 175.27C142.739 174.598 143.043 173.921 143.295 173.24ZM141.839 176.95L143.169 175.62L143.183 175.648V186.162H141.839V176.95ZM157.225 185.854C156.935 185.499 156.613 185.135 156.259 184.762C155.913 184.389 155.559 184.029 155.195 183.684C154.84 183.339 154.499 183.031 154.173 182.76L155.321 181.752C155.657 182.023 156.011 182.34 156.385 182.704C156.758 183.059 157.122 183.427 157.477 183.81C157.841 184.183 158.153 184.529 158.415 184.846L157.225 185.854ZM169.349 173.702H179.653V174.724H169.349V173.702ZM168.369 179.946H180.703V180.996H168.369V179.946ZM170.273 176.978H173.213V177.804H170.273V176.978ZM169.965 178.434H173.227V179.26H169.965V178.434ZM175.733 178.434H179.079V179.274H175.733V178.434ZM175.733 176.978H178.743V177.804H175.733V176.978ZM173.843 174.094H175.117V179.526H173.843V174.094ZM172.471 182.578H173.689V186.064H172.471V182.578ZM175.537 182.578H176.741V186.064H175.537V182.578ZM168.481 175.41H180.577V178.14H179.331V176.334H169.671V178.14H168.481V175.41ZM169.433 181.864H178.953V182.928H170.679V186.148H169.433V181.864ZM178.659 181.864H179.933V184.916C179.933 185.205 179.9 185.429 179.835 185.588C179.769 185.756 179.639 185.882 179.443 185.966C179.247 186.059 179.009 186.115 178.729 186.134C178.449 186.153 178.122 186.162 177.749 186.162C177.721 186.003 177.665 185.821 177.581 185.616C177.506 185.411 177.427 185.229 177.343 185.07C177.595 185.079 177.823 185.084 178.029 185.084C178.243 185.084 178.388 185.084 178.463 185.084C178.537 185.075 178.589 185.056 178.617 185.028C178.645 185.009 178.659 184.967 178.659 184.902V181.864ZM173.857 180.352L175.299 180.394C175.168 180.786 175.028 181.169 174.879 181.542C174.739 181.915 174.608 182.242 174.487 182.522L173.325 182.41C173.427 182.111 173.53 181.771 173.633 181.388C173.735 181.005 173.81 180.66 173.857 180.352ZM182.383 175.424H194.703V176.712H182.383V175.424ZM189.061 176.572C189.322 177.356 189.649 178.117 190.041 178.854C190.433 179.582 190.885 180.268 191.399 180.912C191.912 181.547 192.477 182.111 193.093 182.606C193.709 183.101 194.376 183.502 195.095 183.81C194.992 183.903 194.875 184.02 194.745 184.16C194.623 184.291 194.507 184.431 194.395 184.58C194.292 184.72 194.203 184.855 194.129 184.986C193.149 184.491 192.271 183.838 191.497 183.026C190.722 182.214 190.045 181.285 189.467 180.24C188.888 179.185 188.407 178.065 188.025 176.88L189.061 176.572ZM193.037 177.244L194.199 178.056C193.891 178.411 193.555 178.779 193.191 179.162C192.827 179.535 192.463 179.89 192.099 180.226C191.735 180.562 191.394 180.865 191.077 181.136L190.111 180.394C190.419 180.133 190.755 179.825 191.119 179.47C191.483 179.106 191.833 178.728 192.169 178.336C192.505 177.944 192.794 177.58 193.037 177.244ZM190.293 174.052L191.077 173.212C191.366 173.352 191.674 173.511 192.001 173.688C192.327 173.865 192.64 174.047 192.939 174.234C193.237 174.421 193.48 174.593 193.667 174.752L192.841 175.69C192.654 175.522 192.416 175.345 192.127 175.158C191.837 174.962 191.529 174.766 191.203 174.57C190.885 174.374 190.582 174.201 190.293 174.052ZM182.999 178.098L184.007 177.412C184.296 177.655 184.595 177.93 184.903 178.238C185.211 178.546 185.491 178.854 185.743 179.162C186.004 179.461 186.209 179.736 186.359 179.988L185.281 180.786C185.141 180.534 184.945 180.249 184.693 179.932C184.45 179.615 184.179 179.297 183.881 178.98C183.582 178.653 183.288 178.359 182.999 178.098ZM187.801 173.212H189.159V184.468C189.159 184.897 189.107 185.219 189.005 185.434C188.902 185.658 188.72 185.821 188.459 185.924C188.197 186.045 187.847 186.12 187.409 186.148C186.97 186.185 186.438 186.199 185.813 186.19C185.785 186.003 185.724 185.775 185.631 185.504C185.547 185.233 185.453 185 185.351 184.804C185.808 184.813 186.237 184.823 186.639 184.832C187.04 184.832 187.311 184.827 187.451 184.818C187.581 184.818 187.67 184.795 187.717 184.748C187.773 184.692 187.801 184.599 187.801 184.468V173.212ZM182.019 183.586C182.513 183.343 183.097 183.04 183.769 182.676C184.45 182.303 185.169 181.901 185.925 181.472C186.681 181.043 187.423 180.618 188.151 180.198L188.543 181.304C187.908 181.715 187.255 182.13 186.583 182.55C185.911 182.961 185.257 183.357 184.623 183.74C183.997 184.123 183.414 184.473 182.873 184.79L182.019 183.586ZM196.103 174.808H200.667V175.998H196.103V174.808ZM198.483 177.076H199.617V186.148H198.483V177.076ZM196.033 182.55C196.621 182.447 197.321 182.307 198.133 182.13C198.954 181.953 199.785 181.775 200.625 181.598L200.723 182.704C199.957 182.9 199.187 183.096 198.413 183.292C197.647 183.479 196.952 183.642 196.327 183.782L196.033 182.55ZM196.453 180.52C196.434 180.445 196.401 180.343 196.355 180.212C196.317 180.072 196.271 179.932 196.215 179.792C196.168 179.652 196.121 179.535 196.075 179.442C196.196 179.405 196.303 179.283 196.397 179.078C196.49 178.873 196.588 178.611 196.691 178.294C196.737 178.145 196.807 177.897 196.901 177.552C196.994 177.197 197.092 176.787 197.195 176.32C197.307 175.844 197.409 175.34 197.503 174.808C197.596 174.267 197.661 173.73 197.699 173.198L198.917 173.38C198.805 174.136 198.66 174.906 198.483 175.69C198.305 176.465 198.105 177.211 197.881 177.93C197.657 178.639 197.428 179.279 197.195 179.848V179.862C197.195 179.862 197.157 179.885 197.083 179.932C197.008 179.979 196.919 180.039 196.817 180.114C196.723 180.179 196.639 180.249 196.565 180.324C196.49 180.399 196.453 180.464 196.453 180.52ZM196.453 180.52V179.428L197.069 179.12H200.625V180.31H197.461C197.237 180.31 197.027 180.329 196.831 180.366C196.635 180.403 196.509 180.455 196.453 180.52ZM202.095 176.572H207.485V177.636H202.095V176.572ZM201.255 178.448H204.307V179.47H202.319V186.12H201.255V178.448ZM203.999 178.448H205.063V184.888C205.063 185.149 205.035 185.359 204.979 185.518C204.932 185.686 204.825 185.817 204.657 185.91C204.498 185.994 204.302 186.045 204.069 186.064C203.845 186.083 203.574 186.092 203.257 186.092C203.247 185.943 203.21 185.765 203.145 185.56C203.089 185.355 203.023 185.177 202.949 185.028C203.145 185.037 203.327 185.042 203.495 185.042C203.663 185.042 203.779 185.042 203.845 185.042C203.947 185.042 203.999 184.986 203.999 184.874V178.448ZM202.053 180.408H204.783V181.388H202.053V180.408ZM202.039 182.34H204.769V183.32H202.039V182.34ZM205.721 178.756H206.729V183.852H205.721V178.756ZM207.499 178.238H208.549V184.776C208.549 185.065 208.516 185.294 208.451 185.462C208.385 185.63 208.25 185.761 208.045 185.854C207.858 185.938 207.615 185.989 207.317 186.008C207.018 186.036 206.654 186.05 206.225 186.05C206.206 185.901 206.164 185.723 206.099 185.518C206.043 185.313 205.977 185.135 205.903 184.986C206.211 184.995 206.495 185 206.757 185C207.018 185 207.195 184.995 207.289 184.986C207.429 184.986 207.499 184.916 207.499 184.776V178.238ZM204.727 173.114L205.805 173.59C205.441 174.141 205.007 174.668 204.503 175.172C204.008 175.676 203.476 176.138 202.907 176.558C202.337 176.969 201.754 177.323 201.157 177.622C201.063 177.463 200.937 177.291 200.779 177.104C200.629 176.917 200.475 176.759 200.317 176.628C200.877 176.376 201.437 176.068 201.997 175.704C202.557 175.34 203.07 174.939 203.537 174.5C204.013 174.052 204.409 173.59 204.727 173.114ZM205.217 173.73C205.767 174.374 206.383 174.915 207.065 175.354C207.746 175.783 208.469 176.161 209.235 176.488C209.085 176.619 208.931 176.782 208.773 176.978C208.623 177.165 208.507 177.347 208.423 177.524C207.611 177.095 206.855 176.619 206.155 176.096C205.464 175.564 204.811 174.911 204.195 174.136L205.217 173.73ZM213.505 174.528L214.317 173.38C214.961 173.847 215.516 174.346 215.983 174.878C216.449 175.401 216.86 175.947 217.215 176.516C217.569 177.085 217.896 177.664 218.195 178.252C218.503 178.831 218.811 179.409 219.119 179.988C219.427 180.567 219.763 181.127 220.127 181.668C220.491 182.209 220.911 182.723 221.387 183.208C221.872 183.693 222.441 184.137 223.095 184.538C223.029 184.659 222.95 184.813 222.857 185C222.763 185.177 222.679 185.359 222.605 185.546C222.53 185.742 222.479 185.91 222.451 186.05C221.769 185.667 221.172 185.224 220.659 184.72C220.145 184.216 219.693 183.675 219.301 183.096C218.918 182.508 218.563 181.906 218.237 181.29C217.91 180.665 217.588 180.039 217.271 179.414C216.953 178.779 216.617 178.168 216.263 177.58C215.908 176.992 215.507 176.437 215.059 175.914C214.62 175.391 214.102 174.929 213.505 174.528ZM215.787 176.488L217.285 176.768C216.949 178.224 216.51 179.54 215.969 180.716C215.427 181.883 214.765 182.914 213.981 183.81C213.206 184.697 212.296 185.443 211.251 186.05C211.167 185.957 211.05 185.84 210.901 185.7C210.761 185.569 210.611 185.434 210.453 185.294C210.294 185.163 210.154 185.061 210.033 184.986C211.61 184.183 212.856 183.068 213.771 181.64C214.695 180.212 215.367 178.495 215.787 176.488ZM228.849 175.298H236.619V176.53H228.849V175.298ZM229.115 178.448H235.219V179.652H229.115V178.448ZM232.027 173.184H233.343V179.106H232.027V173.184ZM230.683 179.372C231.205 180.763 232.008 181.957 233.091 182.956C234.183 183.945 235.531 184.645 237.137 185.056C237.043 185.14 236.941 185.247 236.829 185.378C236.717 185.518 236.614 185.658 236.521 185.798C236.427 185.947 236.348 186.078 236.283 186.19C234.603 185.695 233.207 184.897 232.097 183.796C230.986 182.695 230.118 181.337 229.493 179.722L230.683 179.372ZM235.093 178.448H235.331L235.569 178.392L236.423 178.756C236.124 179.773 235.723 180.683 235.219 181.486C234.724 182.279 234.141 182.979 233.469 183.586C232.806 184.193 232.073 184.706 231.271 185.126C230.477 185.555 229.637 185.901 228.751 186.162C228.713 186.041 228.653 185.905 228.569 185.756C228.494 185.616 228.41 185.471 228.317 185.322C228.223 185.173 228.135 185.056 228.051 184.972C228.863 184.767 229.642 184.482 230.389 184.118C231.145 183.745 231.831 183.297 232.447 182.774C233.072 182.242 233.609 181.635 234.057 180.954C234.514 180.263 234.859 179.498 235.093 178.658V178.448ZM223.977 180.464C224.369 180.371 224.817 180.263 225.321 180.142C225.834 180.011 226.371 179.871 226.931 179.722C227.5 179.563 228.06 179.414 228.611 179.274L228.779 180.478C228.013 180.702 227.239 180.926 226.455 181.15C225.68 181.365 224.971 181.561 224.327 181.738L223.977 180.464ZM224.145 175.942H228.653V177.174H224.145V175.942ZM225.881 173.184H227.183V184.65C227.183 184.995 227.141 185.261 227.057 185.448C226.973 185.635 226.828 185.779 226.623 185.882C226.417 185.985 226.151 186.05 225.825 186.078C225.498 186.115 225.092 186.129 224.607 186.12C224.579 185.952 224.527 185.751 224.453 185.518C224.378 185.294 224.299 185.093 224.215 184.916C224.523 184.925 224.807 184.93 225.069 184.93C225.339 184.93 225.521 184.925 225.615 184.916C225.792 184.916 225.881 184.827 225.881 184.65V173.184ZM238.061 174.99H243.171V176.292H238.061V174.99ZM243.311 174.024H250.997V175.354H243.311V174.024ZM240.049 175.368H241.393V182.522H240.049V175.368ZM237.893 182.48C238.359 182.396 238.887 182.298 239.475 182.186C240.072 182.074 240.702 181.948 241.365 181.808C242.037 181.668 242.699 181.533 243.353 181.402L243.479 182.662C242.555 182.877 241.621 183.087 240.679 183.292C239.745 183.497 238.915 183.679 238.187 183.838L237.893 182.48ZM245.383 174.402H246.769C246.657 175.018 246.531 175.667 246.391 176.348C246.251 177.029 246.111 177.687 245.971 178.322C245.831 178.947 245.695 179.498 245.565 179.974H244.137C244.286 179.489 244.435 178.929 244.585 178.294C244.743 177.65 244.888 176.992 245.019 176.32C245.159 175.639 245.28 174.999 245.383 174.402ZM249.289 178.686H250.661C250.661 178.686 250.656 178.723 250.647 178.798C250.647 178.873 250.642 178.961 250.633 179.064C250.633 179.157 250.628 179.237 250.619 179.302C250.544 180.609 250.46 181.673 250.367 182.494C250.273 183.315 250.161 183.955 250.031 184.412C249.9 184.86 249.741 185.182 249.555 185.378C249.359 185.593 249.149 185.737 248.925 185.812C248.71 185.887 248.444 185.938 248.127 185.966C247.856 185.994 247.483 186.003 247.007 185.994C246.54 185.985 246.05 185.966 245.537 185.938C245.527 185.742 245.471 185.513 245.369 185.252C245.266 184.991 245.145 184.767 245.005 184.58C245.565 184.627 246.092 184.659 246.587 184.678C247.091 184.687 247.45 184.692 247.665 184.692C247.833 184.692 247.973 184.683 248.085 184.664C248.197 184.636 248.295 184.589 248.379 184.524C248.528 184.393 248.659 184.118 248.771 183.698C248.883 183.269 248.976 182.662 249.051 181.878C249.135 181.094 249.214 180.105 249.289 178.91V178.686ZM245.061 178.686H249.779V179.974H244.711L245.061 178.686ZM254.231 181.556C254.641 181.556 255.01 181.659 255.337 181.864C255.663 182.06 255.925 182.321 256.121 182.648C256.317 182.975 256.415 183.343 256.415 183.754C256.415 184.155 256.317 184.524 256.121 184.86C255.925 185.187 255.663 185.448 255.337 185.644C255.01 185.84 254.641 185.938 254.231 185.938C253.829 185.938 253.461 185.84 253.125 185.644C252.798 185.448 252.532 185.187 252.327 184.86C252.131 184.524 252.033 184.155 252.033 183.754C252.033 183.343 252.131 182.975 252.327 182.648C252.532 182.321 252.798 182.06 253.125 181.864C253.461 181.659 253.829 181.556 254.231 181.556ZM254.231 185.098C254.604 185.098 254.921 184.967 255.183 184.706C255.444 184.445 255.575 184.127 255.575 183.754C255.575 183.502 255.514 183.278 255.393 183.082C255.281 182.877 255.122 182.713 254.917 182.592C254.711 182.471 254.483 182.41 254.231 182.41C253.988 182.41 253.764 182.471 253.559 182.592C253.353 182.713 253.19 182.877 253.069 183.082C252.947 183.278 252.887 183.502 252.887 183.754C252.887 183.997 252.947 184.225 253.069 184.44C253.19 184.645 253.353 184.809 253.559 184.93C253.764 185.042 253.988 185.098 254.231 185.098Z" fill="#718096"/>
<path d="M126.296 255H133.432V253.096H131.208V243.16H129.464C128.696 243.624 127.896 243.928 126.696 244.152V245.608H128.856V253.096H126.296V255ZM140.114 255H142.306V243.16H139.474L135.074 250.328V251.944H143.714V250.136H137.362L139.186 247.192C139.522 246.552 139.842 245.896 140.146 245.256H140.21C140.178 245.96 140.114 247.032 140.114 247.72V255ZM152.992 252.744V253.832H162.096V252.744H152.992ZM151.552 246.008V247.144H161.04V248.44H151.552V249.592H162.48V246.008H151.552ZM152.288 250.488V256.28H153.648V251.624H162.08V250.488H152.288ZM161.456 250.488V255.064C161.456 255.224 161.408 255.288 161.232 255.288C161.04 255.288 160.464 255.288 159.84 255.272C159.984 255.576 160.176 256.008 160.24 256.344C161.184 256.344 161.856 256.328 162.304 256.168C162.752 255.976 162.88 255.688 162.88 255.064V250.488H161.456ZM155.36 251.016V255.928H156.624V251.016H155.36ZM158.352 251.016V255.928H159.616V251.016H158.352ZM151.056 242.696V243.848H156.096V242.696H151.056ZM157.312 242.696V243.848H163.472V242.696H157.312ZM151.264 241.4C150.736 242.824 149.808 244.232 148.8 245.16C149.152 245.336 149.76 245.736 150.032 245.976C151.024 244.952 152.048 243.368 152.672 241.768L151.264 241.4ZM157.648 241.4C157.216 242.568 156.4 243.704 155.456 244.44C155.808 244.6 156.464 244.936 156.768 245.16C157.664 244.344 158.592 243.08 159.088 241.752L157.648 241.4ZM152.032 243.576C152.416 244.184 152.832 245.016 152.992 245.528L154.32 245.064C154.128 244.536 153.696 243.752 153.28 243.16L152.032 243.576ZM158.88 243.576C159.376 244.168 159.936 245 160.16 245.528L161.52 245C161.264 244.456 160.688 243.672 160.176 243.112L158.88 243.576ZM150.928 245.992V248.616C150.928 250.776 150.736 253.352 148.976 255.416C149.36 255.624 149.904 256.088 150.16 256.376C152.112 254.056 152.336 251.128 152.336 248.648V245.992H150.928ZM155.472 245.112C155.808 245.64 156.208 246.344 156.384 246.792L157.808 246.216C157.616 245.768 157.184 245.096 156.832 244.616L155.472 245.112ZM176.06 244.968C174.332 250.36 170.876 253.368 165.196 254.904C165.5 255.256 165.964 255.96 166.124 256.328C171.964 254.52 175.628 251.24 177.628 245.4L176.06 244.968ZM169.26 245.048L167.852 245.48C169.884 250.904 173.42 254.664 179.212 256.232C179.452 255.816 179.9 255.16 180.252 254.824C174.652 253.48 171.004 249.896 169.26 245.048ZM165.452 244.264V245.752H179.996V244.264H165.452ZM171.388 241.848C171.836 242.632 172.3 243.704 172.476 244.36L174.172 243.816C173.964 243.16 173.436 242.12 172.988 241.368L171.388 241.848ZM181.72 253.304V254.536H196.232V253.304H181.72ZM188.168 251.88V256.344H189.752V251.88H188.168ZM185 250.328H192.936V251.304H185V250.328ZM185 248.36H192.936V249.336H185V248.36ZM183.528 247.32V252.36H194.472V247.32H183.528ZM182.808 242.696V243.912H195.24V242.696H182.808ZM181.768 245.368V246.584H196.216V245.368H181.768ZM191.4 243.848C191.224 244.376 190.824 245.144 190.552 245.656L191.992 245.944C192.296 245.48 192.648 244.84 193 244.168L191.4 243.848ZM185.08 244.2C185.384 244.744 185.72 245.48 185.832 245.96L187.352 245.576C187.192 245.112 186.872 244.392 186.536 243.88L185.08 244.2ZM187.8 241.608C188.088 242.184 188.456 242.952 188.584 243.464L190.136 243.064C189.976 242.568 189.624 241.832 189.288 241.288L187.8 241.608Z" fill="#168AFF"/>
</g>
<defs>
<clipPath id="clip0_147_3006">
<rect width="322" height="300" fill="white"/>
</clipPath>
</defs>
</svg>
