<svg width="322" height="278" viewBox="0 0 322 278" fill="none" xmlns="http://www.w3.org/2000/svg">
<g clip-path="url(#clip0_147_3014)">
<path fill-rule="evenodd" clip-rule="evenodd" d="M0 16C0 7.16344 7.16344 0 16 0H306C314.837 0 322 7.16344 322 16V262C322 270.837 314.837 278 306 278H16C7.16343 278 0 270.837 0 262V16Z" fill="#FAFAFA"/>
<path fill-rule="evenodd" clip-rule="evenodd" d="M129 72C129 54.3269 143.327 40 161 40C178.673 40 193 54.3269 193 72C193 89.6731 178.673 104 161 104C143.327 104 129 89.6731 129 72Z" fill="white"/>
<mask id="mask0_147_3014" style="mask-type:luminance" maskUnits="userSpaceOnUse" x="129" y="40" width="64" height="64">
<path fill-rule="evenodd" clip-rule="evenodd" d="M129 72C129 54.3269 143.327 40 161 40C178.673 40 193 54.3269 193 72C193 89.6731 178.673 104 161 104C143.327 104 129 89.6731 129 72Z" fill="white"/>
</mask>
<g mask="url(#mask0_147_3014)">
<path fill-rule="evenodd" clip-rule="evenodd" d="M154.333 82.3333C155.806 82.3333 157 81.1394 157 79.6667C157 78.1939 155.806 77 154.333 77C152.861 77 151.667 78.1939 151.667 79.6667C151.667 81.1394 152.861 82.3333 154.333 82.3333Z" stroke="#168AFF" stroke-width="2" stroke-linecap="round" stroke-linejoin="round"/>
<path fill-rule="evenodd" clip-rule="evenodd" d="M167.667 82.3333C169.139 82.3333 170.333 81.1394 170.333 79.6667C170.333 78.1939 169.139 77 167.667 77C166.194 77 165 78.1939 165 79.6667C165 81.1394 166.194 82.3333 167.667 82.3333Z" stroke="#168AFF" stroke-width="2" stroke-linecap="round" stroke-linejoin="round"/>
<path d="M151.667 80.6673C152.219 80.6673 152.667 80.2196 152.667 79.6673C152.667 79.115 152.219 78.6673 151.667 78.6673V80.6673ZM149 79.6673H148C148 80.2196 148.448 80.6673 149 80.6673V79.6673ZM150 74.334C150 73.7817 149.552 73.334 149 73.334C148.448 73.334 148 73.7817 148 74.334H150ZM147.667 62.667C147.114 62.667 146.667 63.1147 146.667 63.667C146.667 64.2193 147.114 64.667 147.667 64.667V62.667ZM162.333 63.667H163.333C163.333 63.1147 162.886 62.667 162.333 62.667V63.667ZM161.333 79.667C161.333 80.2193 161.781 80.667 162.333 80.667C162.886 80.667 163.333 80.2193 163.333 79.667H161.333ZM157 78.667C156.448 78.667 156 79.1147 156 79.667C156 80.2193 156.448 80.667 157 80.667V78.667ZM165 80.667C165.552 80.667 166 80.2193 166 79.667C166 79.1147 165.552 78.667 165 78.667V80.667ZM170.333 78.667C169.781 78.667 169.333 79.1147 169.333 79.667C169.333 80.2193 169.781 80.667 170.333 80.667V78.667ZM173 79.667V80.667C173.552 80.667 174 80.2193 174 79.667H173ZM174 71.667C174 71.1147 173.552 70.667 173 70.667C172.448 70.667 172 71.1147 172 71.667H174ZM173 72.667C173.552 72.667 174 72.2193 174 71.667C174 71.1147 173.552 70.667 173 70.667V72.667ZM162.333 70.667C161.781 70.667 161.333 71.1147 161.333 71.667C161.333 72.2193 161.781 72.667 162.333 72.667V70.667ZM172.143 72.1812C172.427 72.6547 173.041 72.8083 173.515 72.5242C173.988 72.24 174.142 71.6257 173.858 71.1522L172.143 72.1812ZM169 65L169.858 64.4855C169.677 64.1843 169.351 64 169 64V65ZM162.333 64C161.781 64 161.333 64.4477 161.333 65C161.333 65.5523 161.781 66 162.333 66V64ZM149 68C148.448 68 148 68.4477 148 69C148 69.5523 148.448 70 149 70V68ZM154.333 70C154.886 70 155.333 69.5523 155.333 69C155.333 68.4477 154.886 68 154.333 68V70ZM151.667 79.6673V78.6673H149V79.6673V80.6673H151.667V79.6673ZM149 79.6673H150V74.334H149H148V79.6673H149ZM147.667 63.667V64.667H162.333V63.667V62.667H147.667V63.667ZM162.333 63.667H161.333V79.667H162.333H163.333V63.667H162.333ZM157 79.667V80.667H165V79.667V78.667H157V79.667ZM170.333 79.667V80.667H173V79.667V78.667H170.333V79.667ZM173 79.667H174V71.667H173H172V79.667H173ZM173 71.667V70.667H162.333V71.667V72.667H173V71.667ZM173 71.6667L173.858 71.1522L169.858 64.4855L169 65L168.143 65.5145L172.143 72.1812L173 71.6667ZM169 65V64H162.333V65V66H169V65ZM149 69V70H154.333V69V68H149V69Z" fill="#168AFF"/>
</g>
<path d="M101.52 133.12L103.24 133.44C103 134.547 102.693 135.613 102.32 136.64C101.96 137.667 101.54 138.627 101.06 139.52C100.593 140.4 100.087 141.173 99.54 141.84C99.4333 141.747 99.2933 141.633 99.12 141.5C98.9467 141.353 98.7667 141.213 98.58 141.08C98.3933 140.947 98.2267 140.84 98.08 140.76C98.64 140.173 99.1333 139.473 99.56 138.66C100 137.847 100.38 136.973 100.7 136.04C101.033 135.093 101.307 134.12 101.52 133.12ZM108.34 136.36H110.14C110.14 136.36 110.14 136.42 110.14 136.54C110.14 136.66 110.14 136.793 110.14 136.94C110.14 137.073 110.133 137.187 110.12 137.28C110.013 139.547 109.9 141.467 109.78 143.04C109.673 144.613 109.56 145.907 109.44 146.92C109.32 147.933 109.18 148.727 109.02 149.3C108.873 149.873 108.7 150.28 108.5 150.52C108.287 150.827 108.067 151.04 107.84 151.16C107.613 151.28 107.34 151.367 107.02 151.42C106.753 151.46 106.413 151.48 106 151.48C105.6 151.493 105.18 151.487 104.74 151.46C104.727 151.18 104.673 150.86 104.58 150.5C104.5 150.153 104.38 149.853 104.22 149.6C104.647 149.64 105.033 149.667 105.38 149.68C105.727 149.68 105.993 149.68 106.18 149.68C106.353 149.68 106.493 149.66 106.6 149.62C106.707 149.567 106.82 149.473 106.94 149.34C107.087 149.153 107.227 148.8 107.36 148.28C107.493 147.76 107.613 147.013 107.72 146.04C107.84 145.067 107.947 143.827 108.04 142.32C108.147 140.8 108.247 138.96 108.34 136.8V136.36ZM101.7 136.36H109.14V138.12H100.88L101.7 136.36ZM103.48 136.92L104.88 137.62C104.6 138.78 104.213 139.967 103.72 141.18C103.24 142.38 102.68 143.5 102.04 144.54C101.4 145.58 100.707 146.44 99.96 147.12C99.7867 146.947 99.56 146.76 99.28 146.56C99.0133 146.347 98.7467 146.173 98.48 146.04C99.0667 145.573 99.62 145.007 100.14 144.34C100.66 143.66 101.133 142.913 101.56 142.1C101.987 141.273 102.36 140.42 102.68 139.54C103 138.647 103.267 137.773 103.48 136.92ZM106.3 137.1L107.78 137.78C107.54 139.113 107.22 140.433 106.82 141.74C106.42 143.047 105.947 144.3 105.4 145.5C104.867 146.7 104.253 147.793 103.56 148.78C102.88 149.767 102.113 150.6 101.26 151.28C101.087 151.107 100.847 150.907 100.54 150.68C100.247 150.467 99.9667 150.293 99.7 150.16C100.58 149.533 101.373 148.753 102.08 147.82C102.787 146.873 103.407 145.82 103.94 144.66C104.487 143.5 104.953 142.28 105.34 141C105.74 139.707 106.06 138.407 106.3 137.1ZM91.64 144.14C92.28 143.98 93.0067 143.787 93.82 143.56C94.6467 143.333 95.5133 143.087 96.42 142.82C97.34 142.553 98.26 142.287 99.18 142.02L99.42 143.7C98.1667 144.087 96.8933 144.48 95.6 144.88C94.3067 145.28 93.1467 145.64 92.12 145.96L91.64 144.14ZM95.3 133.12H97.06V151.68H95.3V133.12ZM92.76 134.26L94.36 134.52C94.2667 135.413 94.1467 136.3 94 137.18C93.8667 138.06 93.7067 138.887 93.52 139.66C93.3333 140.433 93.1133 141.12 92.86 141.72C92.7533 141.64 92.6133 141.547 92.44 141.44C92.28 141.333 92.1067 141.227 91.92 141.12C91.7467 141.013 91.6 140.927 91.48 140.86C91.72 140.313 91.92 139.68 92.08 138.96C92.24 138.24 92.3733 137.48 92.48 136.68C92.6 135.88 92.6933 135.073 92.76 134.26ZM93.08 137.12H98.94V138.92H92.74L93.08 137.12ZM117.42 135.64H129.92V137.34H117.42V135.64ZM122.44 142.82H124.1V150.82H122.44V142.82ZM118.96 142.82H120.66V144.84C120.66 145.387 120.627 145.953 120.56 146.54C120.507 147.127 120.373 147.72 120.16 148.32C119.96 148.907 119.66 149.48 119.26 150.04C118.86 150.6 118.32 151.12 117.64 151.6C117.547 151.467 117.42 151.32 117.26 151.16C117.113 151.013 116.953 150.867 116.78 150.72C116.607 150.573 116.447 150.453 116.3 150.36C117.1 149.813 117.687 149.22 118.06 148.58C118.433 147.94 118.673 147.293 118.78 146.64C118.9 145.987 118.96 145.367 118.96 144.78V142.82ZM125.22 138.24L126.64 137.4C127.053 137.827 127.48 138.307 127.92 138.84C128.36 139.36 128.773 139.867 129.16 140.36C129.547 140.853 129.86 141.3 130.1 141.7L128.56 142.68C128.36 142.293 128.073 141.847 127.7 141.34C127.327 140.82 126.92 140.293 126.48 139.76C126.053 139.213 125.633 138.707 125.22 138.24ZM125.9 142.82H127.66V149.1C127.66 149.287 127.667 149.433 127.68 149.54C127.693 149.633 127.713 149.7 127.74 149.74C127.767 149.767 127.807 149.787 127.86 149.8C127.913 149.813 127.967 149.82 128.02 149.82C128.073 149.82 128.147 149.82 128.24 149.82C128.333 149.82 128.413 149.82 128.48 149.82C128.547 149.82 128.613 149.813 128.68 149.8C128.747 149.787 128.8 149.767 128.84 149.74C128.907 149.687 128.967 149.513 129.02 149.22C129.033 149.06 129.04 148.807 129.04 148.46C129.053 148.1 129.067 147.693 129.08 147.24C129.24 147.373 129.44 147.507 129.68 147.64C129.933 147.773 130.167 147.873 130.38 147.94C130.367 148.38 130.34 148.833 130.3 149.3C130.273 149.753 130.233 150.073 130.18 150.26C130.06 150.647 129.86 150.927 129.58 151.1C129.46 151.18 129.3 151.24 129.1 151.28C128.913 151.32 128.733 151.34 128.56 151.34C128.427 151.34 128.253 151.34 128.04 151.34C127.827 151.34 127.66 151.34 127.54 151.34C127.34 151.34 127.127 151.307 126.9 151.24C126.673 151.173 126.487 151.067 126.34 150.92C126.18 150.773 126.067 150.573 126 150.32C125.933 150.067 125.9 149.62 125.9 148.98V142.82ZM118.08 142.18C118.067 142.033 118.027 141.847 117.96 141.62C117.907 141.393 117.847 141.167 117.78 140.94C117.713 140.713 117.66 140.533 117.62 140.4C117.82 140.36 118.06 140.3 118.34 140.22C118.62 140.127 118.86 139.993 119.06 139.82C119.193 139.687 119.387 139.467 119.64 139.16C119.907 138.853 120.193 138.507 120.5 138.12C120.807 137.733 121.1 137.36 121.38 137C121.66 136.64 121.88 136.347 122.04 136.12H124.16C123.907 136.453 123.613 136.847 123.28 137.3C122.947 137.74 122.6 138.193 122.24 138.66C121.88 139.127 121.527 139.573 121.18 140C120.833 140.413 120.527 140.76 120.26 141.04C120.26 141.04 120.187 141.067 120.04 141.12C119.893 141.16 119.713 141.22 119.5 141.3C119.287 141.38 119.067 141.473 118.84 141.58C118.627 141.673 118.447 141.773 118.3 141.88C118.153 141.973 118.08 142.073 118.08 142.18ZM118.08 142.18L118.04 140.82L119.12 140.22L128.02 139.72C128.047 139.96 128.093 140.227 128.16 140.52C128.227 140.813 128.287 141.06 128.34 141.26C126.633 141.38 125.2 141.48 124.04 141.56C122.893 141.64 121.953 141.713 121.22 141.78C120.5 141.833 119.933 141.88 119.52 141.92C119.12 141.96 118.813 142.007 118.6 142.06C118.387 142.1 118.213 142.14 118.08 142.18ZM122.1 133.52L123.84 133.1C124.067 133.567 124.287 134.073 124.5 134.62C124.713 135.153 124.867 135.613 124.96 136L123.12 136.48C123.053 136.093 122.92 135.627 122.72 135.08C122.52 134.52 122.313 134 122.1 133.52ZM112.6 134.72L113.66 133.36C114.073 133.56 114.5 133.793 114.94 134.06C115.393 134.327 115.82 134.607 116.22 134.9C116.62 135.18 116.947 135.447 117.2 135.7L116.08 137.2C115.827 136.96 115.507 136.693 115.12 136.4C114.733 136.093 114.313 135.793 113.86 135.5C113.42 135.207 113 134.947 112.6 134.72ZM111.72 140.24L112.72 138.84C113.147 139 113.593 139.2 114.06 139.44C114.54 139.667 114.987 139.907 115.4 140.16C115.827 140.413 116.18 140.653 116.46 140.88L115.4 142.46C115.147 142.22 114.807 141.967 114.38 141.7C113.967 141.433 113.527 141.173 113.06 140.92C112.607 140.653 112.16 140.427 111.72 140.24ZM112.16 150.16C112.52 149.653 112.92 149.047 113.36 148.34C113.8 147.633 114.247 146.887 114.7 146.1C115.153 145.3 115.573 144.52 115.96 143.76L117.36 145.02C117.013 145.713 116.633 146.44 116.22 147.2C115.82 147.947 115.407 148.68 114.98 149.4C114.567 150.12 114.16 150.8 113.76 151.44L112.16 150.16ZM142.18 147.32H148.28V149.12H142.18V147.32ZM141.48 134.98H149.2V150.62H147.26V136.8H143.34V150.76H141.48V134.98ZM135.72 134.92H137.62V151.66H135.72V134.92ZM131.94 139.04H140.86V140.8H131.94V139.04ZM135.62 139.7L136.9 140.14C136.687 140.94 136.42 141.76 136.1 142.6C135.78 143.427 135.427 144.24 135.04 145.04C134.653 145.827 134.24 146.567 133.8 147.26C133.373 147.94 132.933 148.527 132.48 149.02C132.387 148.74 132.24 148.433 132.04 148.1C131.84 147.767 131.653 147.487 131.48 147.26C131.907 146.82 132.32 146.307 132.72 145.72C133.133 145.133 133.527 144.507 133.9 143.84C134.273 143.16 134.607 142.467 134.9 141.76C135.193 141.053 135.433 140.367 135.62 139.7ZM139.58 133.3L140.82 134.78C140.087 135.047 139.253 135.293 138.32 135.52C137.4 135.733 136.447 135.92 135.46 136.08C134.473 136.24 133.527 136.373 132.62 136.48C132.58 136.267 132.507 136.02 132.4 135.74C132.293 135.447 132.187 135.2 132.08 135C132.96 134.88 133.86 134.733 134.78 134.56C135.713 134.387 136.593 134.193 137.42 133.98C138.26 133.753 138.98 133.527 139.58 133.3ZM137.46 141.08C137.593 141.2 137.773 141.393 138 141.66C138.24 141.913 138.5 142.2 138.78 142.52C139.06 142.84 139.34 143.167 139.62 143.5C139.913 143.82 140.167 144.113 140.38 144.38C140.593 144.633 140.753 144.82 140.86 144.94L139.74 146.52C139.567 146.227 139.34 145.873 139.06 145.46C138.78 145.047 138.48 144.62 138.16 144.18C137.853 143.74 137.553 143.327 137.26 142.94C136.967 142.553 136.727 142.24 136.54 142L137.46 141.08ZM162.9 140.22H168.72V142.02H162.9V140.22ZM162 140.22H163.86V148.76C163.86 149.147 163.92 149.4 164.04 149.52C164.173 149.627 164.453 149.68 164.88 149.68C164.973 149.68 165.14 149.68 165.38 149.68C165.633 149.68 165.907 149.68 166.2 149.68C166.493 149.68 166.773 149.68 167.04 149.68C167.307 149.68 167.5 149.68 167.62 149.68C167.9 149.68 168.107 149.6 168.24 149.44C168.387 149.267 168.487 148.947 168.54 148.48C168.607 148.013 168.66 147.313 168.7 146.38C168.847 146.487 169.02 146.593 169.22 146.7C169.42 146.807 169.627 146.9 169.84 146.98C170.053 147.06 170.247 147.12 170.42 147.16C170.353 148.267 170.233 149.133 170.06 149.76C169.887 150.373 169.62 150.807 169.26 151.06C168.9 151.327 168.4 151.46 167.76 151.46C167.667 151.46 167.513 151.46 167.3 151.46C167.087 151.46 166.847 151.46 166.58 151.46C166.313 151.46 166.047 151.46 165.78 151.46C165.513 151.46 165.28 151.46 165.08 151.46C164.88 151.46 164.733 151.46 164.64 151.46C163.96 151.46 163.427 151.38 163.04 151.22C162.667 151.073 162.4 150.8 162.24 150.4C162.08 150.013 162 149.467 162 148.76V140.22ZM161.92 134.02H169.66V143.34H167.82V135.84H161.92V134.02ZM152.46 137.56H160.64V151.32H159.1V139.16H153.94V151.58H152.46V137.56ZM153.24 145.62H159.84V146.98H153.24V145.62ZM153.24 148.76H159.84V150.26H153.24V148.76ZM152.02 133.88H161.06V135.56H152.02V133.88ZM154.82 134.28H156.1V138.76H154.82V134.28ZM157.12 134.28H158.44V138.76H157.12V134.28ZM155.1 138.74H156.06V140.76C156.06 141.147 156.02 141.573 155.94 142.04C155.873 142.493 155.74 142.94 155.54 143.38C155.34 143.82 155.053 144.22 154.68 144.58C154.613 144.487 154.5 144.373 154.34 144.24C154.18 144.093 154.04 143.993 153.92 143.94C154.267 143.62 154.52 143.28 154.68 142.92C154.84 142.547 154.947 142.173 155 141.8C155.067 141.427 155.1 141.073 155.1 140.74V138.74ZM156.98 138.74H157.94V142.7C157.94 142.82 157.953 142.9 157.98 142.94C158.007 142.967 158.067 142.98 158.16 142.98C158.187 142.98 158.24 142.98 158.32 142.98C158.4 142.98 158.48 142.98 158.56 142.98C158.64 142.98 158.7 142.98 158.74 142.98C158.9 142.98 158.993 142.96 159.02 142.92C159.127 143.013 159.26 143.093 159.42 143.16C159.593 143.227 159.76 143.28 159.92 143.32C159.853 143.56 159.74 143.733 159.58 143.84C159.433 143.947 159.207 144 158.9 144C158.86 144 158.78 144 158.66 144C158.54 144 158.42 144 158.3 144C158.193 144 158.113 144 158.06 144C157.647 144 157.36 143.92 157.2 143.76C157.053 143.587 156.98 143.233 156.98 142.7V138.74ZM177.38 141.04H189.96V142.78H177.38V141.04ZM178.04 136.72H189.34V138.44H178.04V136.72ZM182.52 137.6H184.48V140.74C184.48 141.38 184.407 142.06 184.26 142.78C184.127 143.487 183.853 144.2 183.44 144.92C183.04 145.627 182.46 146.313 181.7 146.98C180.953 147.633 179.96 148.24 178.72 148.8C178.627 148.653 178.507 148.493 178.36 148.32C178.213 148.147 178.053 147.973 177.88 147.8C177.72 147.627 177.567 147.487 177.42 147.38C178.607 146.913 179.54 146.4 180.22 145.84C180.913 145.28 181.42 144.707 181.74 144.12C182.073 143.52 182.287 142.933 182.38 142.36C182.473 141.773 182.52 141.227 182.52 140.72V137.6ZM186.6 133.1L188.52 133.7C188.253 134.167 187.973 134.647 187.68 135.14C187.4 135.62 187.113 136.087 186.82 136.54C186.54 136.98 186.273 137.367 186.02 137.7L184.5 137.16C184.753 136.8 185.007 136.387 185.26 135.92C185.527 135.44 185.773 134.953 186 134.46C186.24 133.967 186.44 133.513 186.6 133.1ZM179.18 133.8L180.76 133.16C181.067 133.627 181.387 134.147 181.72 134.72C182.067 135.28 182.327 135.747 182.5 136.12L180.82 136.88C180.66 136.493 180.42 136.007 180.1 135.42C179.78 134.82 179.473 134.28 179.18 133.8ZM176.14 139.84V148.66H174.32V141.58H171.9V139.84H176.14ZM172.46 134.18L173.98 133.3C174.327 133.66 174.68 134.06 175.04 134.5C175.413 134.94 175.76 135.373 176.08 135.8C176.4 136.227 176.66 136.607 176.86 136.94L175.24 137.96C175.053 137.627 174.807 137.24 174.5 136.8C174.193 136.36 173.86 135.913 173.5 135.46C173.153 134.993 172.807 134.567 172.46 134.18ZM175.06 147.34C175.393 147.34 175.72 147.473 176.04 147.74C176.36 147.993 176.813 148.293 177.4 148.64C178.08 149.053 178.873 149.32 179.78 149.44C180.7 149.547 181.747 149.6 182.92 149.6C183.507 149.6 184.133 149.593 184.8 149.58C185.467 149.553 186.14 149.52 186.82 149.48C187.513 149.44 188.173 149.393 188.8 149.34C189.44 149.273 190.013 149.213 190.52 149.16C190.453 149.333 190.373 149.547 190.28 149.8C190.2 150.053 190.127 150.307 190.06 150.56C189.993 150.827 189.953 151.053 189.94 151.24C189.58 151.267 189.107 151.293 188.52 151.32C187.933 151.347 187.3 151.367 186.62 151.38C185.953 151.407 185.287 151.427 184.62 151.44C183.953 151.453 183.36 151.46 182.84 151.46C181.52 151.46 180.407 151.387 179.5 151.24C178.593 151.093 177.767 150.8 177.02 150.36C176.58 150.093 176.187 149.827 175.84 149.56C175.507 149.28 175.227 149.14 175 149.14C174.8 149.14 174.573 149.267 174.32 149.52C174.067 149.773 173.8 150.1 173.52 150.5C173.24 150.9 172.96 151.32 172.68 151.76L171.32 149.92C171.987 149.147 172.647 148.527 173.3 148.06C173.953 147.58 174.54 147.34 175.06 147.34ZM182.48 143.2L183.72 142.08C184.16 142.48 184.633 142.913 185.14 143.38C185.66 143.847 186.18 144.313 186.7 144.78C187.22 145.247 187.7 145.7 188.14 146.14C188.593 146.567 188.973 146.947 189.28 147.28L187.96 148.6C187.667 148.253 187.3 147.86 186.86 147.42C186.433 146.967 185.967 146.5 185.46 146.02C184.953 145.527 184.44 145.04 183.92 144.56C183.413 144.08 182.933 143.627 182.48 143.2ZM193.4 134.74H199.04V147.98H193.4V146.28H197.26V136.44H193.4V134.74ZM193.5 140.44H197.82V142.1H193.5V140.44ZM192.5 134.74H194.28V149.58H192.5V134.74ZM199.86 136.98H210.32V138.86H199.86V136.98ZM206.14 133.24H208.06V149.02C208.06 149.633 207.973 150.093 207.8 150.4C207.64 150.707 207.36 150.94 206.96 151.1C206.56 151.247 206.02 151.34 205.34 151.38C204.66 151.42 203.82 151.44 202.82 151.44C202.78 151.173 202.693 150.853 202.56 150.48C202.427 150.107 202.287 149.787 202.14 149.52C202.647 149.533 203.133 149.547 203.6 149.56C204.067 149.56 204.473 149.56 204.82 149.56C205.167 149.56 205.413 149.56 205.56 149.56C205.773 149.547 205.92 149.507 206 149.44C206.093 149.36 206.14 149.213 206.14 149V133.24ZM200.34 141.16L201.9 140.34C202.247 140.82 202.613 141.347 203 141.92C203.4 142.48 203.773 143.027 204.12 143.56C204.48 144.093 204.767 144.56 204.98 144.96L203.32 145.94C203.107 145.527 202.833 145.047 202.5 144.5C202.167 143.953 201.807 143.387 201.42 142.8C201.047 142.213 200.687 141.667 200.34 141.16ZM212.64 137.76H214.6V151.68H212.64V137.76ZM212.94 134.22L214.42 133.32C214.727 133.6 215.04 133.913 215.36 134.26C215.693 134.607 215.993 134.953 216.26 135.3C216.54 135.647 216.76 135.96 216.92 136.24L215.32 137.28C215.187 136.987 214.987 136.667 214.72 136.32C214.467 135.96 214.18 135.6 213.86 135.24C213.553 134.867 213.247 134.527 212.94 134.22ZM217.92 134.18H228.58V135.96H217.92V134.18ZM227.52 134.18H229.48V149.52C229.48 150 229.42 150.367 229.3 150.62C229.193 150.887 229 151.1 228.72 151.26C228.413 151.407 228.033 151.493 227.58 151.52C227.127 151.56 226.593 151.58 225.98 151.58C225.927 151.34 225.847 151.047 225.74 150.7C225.647 150.367 225.533 150.087 225.4 149.86C225.787 149.873 226.147 149.88 226.48 149.88C226.827 149.88 227.06 149.88 227.18 149.88C227.327 149.867 227.42 149.833 227.46 149.78C227.5 149.727 227.52 149.64 227.52 149.52V134.18ZM218.8 144.22V146.58H223.2V144.22H218.8ZM218.8 140.34V142.66H223.2V140.34H218.8ZM217.1 138.8H224.96V148.12H217.1V138.8Z" fill="#111827"/>
<path d="M59.864 184.762H67.018V185.756H59.864V184.762ZM57.246 177.104H68.922V179.484H67.564V178.112H58.52V179.484H57.246V177.104ZM59.794 178.868H67.186V181.822H59.794V180.842H65.884V179.848H59.794V178.868ZM59.864 182.648H67.928V186.176H66.612V183.642H59.864V182.648ZM58.856 178.868H60.2V186.19H58.856V178.868ZM62.048 176.25L63.224 176.012C63.364 176.208 63.4947 176.437 63.616 176.698C63.7467 176.95 63.8353 177.174 63.882 177.37L62.65 177.636C62.6033 177.459 62.5193 177.239 62.398 176.978C62.286 176.717 62.1693 176.474 62.048 176.25ZM58.422 174.262H62.846V175.2H58.422V174.262ZM64.246 174.262H69.23V175.214H64.246V174.262ZM58.296 173.1L59.584 173.352C59.3693 174.015 59.0893 174.663 58.744 175.298C58.408 175.923 58.044 176.451 57.652 176.88C57.5773 176.824 57.47 176.759 57.33 176.684C57.19 176.6 57.0453 176.525 56.896 176.46C56.756 176.385 56.63 176.325 56.518 176.278C56.91 175.886 57.26 175.41 57.568 174.85C57.876 174.281 58.1187 173.697 58.296 173.1ZM64.26 173.114L65.548 173.352C65.38 173.921 65.156 174.477 64.876 175.018C64.6053 175.55 64.302 176.007 63.966 176.39C63.8913 176.325 63.7887 176.255 63.658 176.18C63.5273 176.105 63.3873 176.031 63.238 175.956C63.098 175.881 62.9767 175.821 62.874 175.774C63.1913 175.447 63.4713 175.051 63.714 174.584C63.9567 174.108 64.1387 173.618 64.26 173.114ZM59.43 174.99L60.494 174.64C60.6807 174.901 60.872 175.195 61.068 175.522C61.264 175.839 61.3993 176.115 61.474 176.348L60.354 176.74C60.2793 176.507 60.1533 176.227 59.976 175.9C59.7987 175.573 59.6167 175.27 59.43 174.99ZM65.436 175.032L66.458 174.612C66.6913 174.864 66.9247 175.149 67.158 175.466C67.4007 175.783 67.5733 176.059 67.676 176.292L66.598 176.782C66.4953 176.549 66.332 176.269 66.108 175.942C65.884 175.606 65.66 175.303 65.436 175.032ZM76.888 177.524V179.064H81.676V177.524H76.888ZM76.888 174.934V176.46H81.676V174.934H76.888ZM75.684 173.8H82.936V180.198H75.684V173.8ZM75.558 181.64H83.118V182.844H75.558V181.64ZM74.522 184.524H83.58V185.728H74.522V184.524ZM70.574 174.066H75.068V175.298H70.574V174.066ZM70.714 178.112H74.858V179.33H70.714V178.112ZM70.42 183.446C70.812 183.343 71.2553 183.217 71.75 183.068C72.2447 182.919 72.7673 182.755 73.318 182.578C73.8687 182.401 74.4193 182.223 74.97 182.046L75.194 183.306C74.4287 183.567 73.654 183.829 72.87 184.09C72.086 184.351 71.3767 184.589 70.742 184.804L70.42 183.446ZM72.24 174.556H73.5V183.194L72.24 183.418V174.556ZM78.736 174.318H79.87V179.652H79.968V185.07H78.624V179.652H78.736V174.318ZM85.302 175.564H95.914V176.866H86.618V186.176H85.302V175.564ZM95.438 175.564H96.754V184.538C96.754 184.93 96.7027 185.233 96.6 185.448C96.5067 185.672 96.3247 185.84 96.054 185.952C95.774 186.055 95.41 186.12 94.962 186.148C94.5233 186.176 93.9867 186.19 93.352 186.19C93.3333 186.059 93.3007 185.91 93.254 185.742C93.2073 185.583 93.1513 185.42 93.086 185.252C93.0207 185.093 92.96 184.953 92.904 184.832C93.212 184.841 93.5153 184.851 93.814 184.86C94.1127 184.869 94.374 184.874 94.598 184.874C94.822 184.865 94.9807 184.86 95.074 184.86C95.214 184.86 95.3073 184.837 95.354 184.79C95.41 184.743 95.438 184.655 95.438 184.524V175.564ZM90.006 173.156L91.672 173.422C91.448 173.945 91.2053 174.472 90.944 175.004C90.6827 175.536 90.44 175.989 90.216 176.362L88.942 176.068C89.0727 175.797 89.2033 175.494 89.334 175.158C89.474 174.813 89.6 174.467 89.712 174.122C89.8333 173.777 89.9313 173.455 90.006 173.156ZM88.256 178.504H89.46V184.216H88.256V178.504ZM88.788 178.504H93.744V183.208H88.788V182.046H92.526V179.68H88.788V178.504ZM103.292 175.718L104.706 175.998C104.202 176.707 103.581 177.384 102.844 178.028C102.116 178.663 101.229 179.232 100.184 179.736C100.119 179.633 100.035 179.521 99.932 179.4C99.8293 179.269 99.722 179.148 99.61 179.036C99.498 178.915 99.3907 178.821 99.288 178.756C100.268 178.355 101.089 177.883 101.752 177.342C102.424 176.791 102.937 176.25 103.292 175.718ZM103.418 176.726H107.996V177.748H102.494L103.418 176.726ZM107.604 176.726H107.87L108.094 176.67L108.99 177.202C108.523 177.958 107.926 178.63 107.198 179.218C106.479 179.806 105.677 180.324 104.79 180.772C103.913 181.22 102.984 181.603 102.004 181.92C101.033 182.237 100.058 182.489 99.078 182.676C99.0407 182.555 98.9847 182.424 98.91 182.284C98.8447 182.135 98.77 181.99 98.686 181.85C98.602 181.71 98.5227 181.593 98.448 181.5C99.372 181.341 100.296 181.131 101.22 180.87C102.144 180.599 103.017 180.273 103.838 179.89C104.669 179.498 105.411 179.055 106.064 178.56C106.717 178.065 107.231 177.519 107.604 176.922V176.726ZM102.844 177.51C103.395 178.163 104.109 178.742 104.986 179.246C105.873 179.741 106.881 180.151 108.01 180.478C109.139 180.795 110.329 181.024 111.58 181.164C111.477 181.267 111.375 181.397 111.272 181.556C111.169 181.705 111.067 181.859 110.964 182.018C110.871 182.167 110.791 182.307 110.726 182.438C109.466 182.251 108.267 181.967 107.128 181.584C105.999 181.192 104.972 180.702 104.048 180.114C103.124 179.526 102.34 178.831 101.696 178.028L102.844 177.51ZM101.122 181.836H108.976V186.148H107.618V182.942H102.424V186.176H101.122V181.836ZM101.864 184.608H108.318V185.714H101.864V184.608ZM99.036 174.402H110.978V177.244H109.62V175.606H100.338V177.244H99.036V174.402ZM103.922 173.366L105.224 173.044C105.401 173.315 105.583 173.627 105.77 173.982C105.966 174.327 106.115 174.626 106.218 174.878L104.846 175.256C104.753 175.013 104.617 174.71 104.44 174.346C104.263 173.982 104.09 173.655 103.922 173.366ZM114.212 175.326H115.598V178.434C115.598 179.013 115.575 179.643 115.528 180.324C115.481 181.005 115.383 181.701 115.234 182.41C115.094 183.11 114.889 183.791 114.618 184.454C114.357 185.117 114.011 185.723 113.582 186.274C113.498 186.19 113.386 186.092 113.246 185.98C113.106 185.877 112.961 185.775 112.812 185.672C112.663 185.579 112.532 185.509 112.42 185.462C112.831 184.958 113.153 184.407 113.386 183.81C113.629 183.213 113.806 182.601 113.918 181.976C114.039 181.341 114.119 180.725 114.156 180.128C114.193 179.521 114.212 178.957 114.212 178.434V175.326ZM118.034 173.436L119.336 173.1C119.504 173.417 119.663 173.763 119.812 174.136C119.971 174.509 120.092 174.831 120.176 175.102L118.818 175.508C118.743 175.228 118.631 174.897 118.482 174.514C118.333 174.122 118.183 173.763 118.034 173.436ZM115.08 175.326H123.97V181.178H122.612V176.558H115.08V175.326ZM115.108 179.106H123.312V180.338H115.108V179.106ZM135.002 179.036L136.346 179.428C135.823 180.688 135.133 181.761 134.274 182.648C133.425 183.525 132.426 184.249 131.278 184.818C130.13 185.378 128.851 185.835 127.442 186.19C127.395 186.087 127.325 185.961 127.232 185.812C127.139 185.663 127.036 185.513 126.924 185.364C126.821 185.215 126.728 185.093 126.644 185C128.025 184.72 129.267 184.333 130.368 183.838C131.469 183.334 132.412 182.69 133.196 181.906C133.98 181.122 134.582 180.165 135.002 179.036ZM130.326 176.642L131.614 177.146C131.287 177.547 130.914 177.949 130.494 178.35C130.083 178.751 129.654 179.129 129.206 179.484C128.758 179.829 128.329 180.137 127.918 180.408C127.843 180.315 127.741 180.207 127.61 180.086C127.479 179.965 127.349 179.843 127.218 179.722C127.087 179.591 126.971 179.493 126.868 179.428C127.288 179.204 127.708 178.943 128.128 178.644C128.557 178.336 128.963 178.014 129.346 177.678C129.729 177.333 130.055 176.987 130.326 176.642ZM131.054 179.106C131.698 180.674 132.72 181.948 134.12 182.928C135.52 183.899 137.284 184.557 139.412 184.902C139.328 184.986 139.23 185.098 139.118 185.238C139.015 185.387 138.917 185.537 138.824 185.686C138.731 185.835 138.656 185.971 138.6 186.092C137.116 185.812 135.814 185.387 134.694 184.818C133.583 184.239 132.627 183.507 131.824 182.62C131.031 181.733 130.377 180.688 129.864 179.484L131.054 179.106ZM126.882 175.046H139.09V176.334H126.882V175.046ZM134.512 177.356L135.562 176.6C135.973 176.88 136.407 177.197 136.864 177.552C137.331 177.907 137.769 178.261 138.18 178.616C138.591 178.971 138.922 179.297 139.174 179.596L138.054 180.464C137.821 180.165 137.508 179.834 137.116 179.47C136.724 179.097 136.299 178.728 135.842 178.364C135.385 177.991 134.941 177.655 134.512 177.356ZM131.74 173.464L133 173.03C133.196 173.319 133.392 173.641 133.588 173.996C133.784 174.351 133.929 174.654 134.022 174.906L132.706 175.41C132.622 175.149 132.487 174.836 132.3 174.472C132.123 174.108 131.936 173.772 131.74 173.464ZM144.858 176.264H153.44V177.594H144.858V176.264ZM150.402 173.338H151.774V184.482C151.774 184.939 151.709 185.275 151.578 185.49C151.447 185.714 151.233 185.877 150.934 185.98C150.635 186.083 150.229 186.143 149.716 186.162C149.203 186.19 148.563 186.199 147.798 186.19C147.779 186.069 147.737 185.929 147.672 185.77C147.616 185.611 147.551 185.453 147.476 185.294C147.411 185.135 147.345 184.995 147.28 184.874C147.663 184.893 148.036 184.907 148.4 184.916C148.764 184.916 149.081 184.916 149.352 184.916C149.632 184.907 149.828 184.902 149.94 184.902C150.108 184.893 150.225 184.86 150.29 184.804C150.365 184.739 150.402 184.631 150.402 184.482V173.338ZM145.642 179.414L146.79 178.868C147.023 179.223 147.266 179.605 147.518 180.016C147.779 180.417 148.027 180.814 148.26 181.206C148.493 181.589 148.68 181.92 148.82 182.2L147.574 182.858C147.443 182.569 147.271 182.228 147.056 181.836C146.841 181.435 146.608 181.024 146.356 180.604C146.104 180.175 145.866 179.778 145.642 179.414ZM142.492 177.118L143.808 175.788L143.822 175.816V186.148H142.492V177.118ZM143.948 173.268L145.25 173.674C144.942 174.486 144.573 175.289 144.144 176.082C143.724 176.875 143.267 177.622 142.772 178.322C142.277 179.022 141.769 179.638 141.246 180.17C141.209 180.067 141.139 179.932 141.036 179.764C140.943 179.587 140.84 179.414 140.728 179.246C140.625 179.069 140.532 178.929 140.448 178.826C140.915 178.378 141.367 177.86 141.806 177.272C142.245 176.675 142.646 176.035 143.01 175.354C143.374 174.673 143.687 173.977 143.948 173.268ZM156.408 178.462H167.048V179.75H156.408V178.462ZM155.498 174.766H166.712V176.026H155.498V174.766ZM155.652 178.462H157.038V180.408C157.038 180.837 157.015 181.309 156.968 181.822C156.931 182.326 156.856 182.849 156.744 183.39C156.641 183.922 156.492 184.44 156.296 184.944C156.1 185.439 155.843 185.896 155.526 186.316C155.461 186.223 155.358 186.111 155.218 185.98C155.078 185.859 154.933 185.737 154.784 185.616C154.644 185.504 154.523 185.425 154.42 185.378C154.793 184.883 155.064 184.342 155.232 183.754C155.409 183.166 155.521 182.578 155.568 181.99C155.624 181.402 155.652 180.865 155.652 180.38V178.462ZM157.57 176.544L158.732 176.054C158.956 176.343 159.185 176.675 159.418 177.048C159.661 177.412 159.838 177.729 159.95 178L158.732 178.546C158.629 178.275 158.466 177.953 158.242 177.58C158.027 177.197 157.803 176.852 157.57 176.544ZM163.534 176.138L165.004 176.614C164.743 177.025 164.477 177.445 164.206 177.874C163.935 178.294 163.683 178.653 163.45 178.952L162.414 178.518C162.545 178.303 162.68 178.061 162.82 177.79C162.969 177.51 163.105 177.225 163.226 176.936C163.357 176.647 163.459 176.381 163.534 176.138ZM159.824 173.492L161.168 173.142C161.373 173.385 161.569 173.665 161.756 173.982C161.943 174.299 162.078 174.575 162.162 174.808L160.762 175.228C160.687 174.985 160.557 174.701 160.37 174.374C160.193 174.047 160.011 173.753 159.824 173.492ZM172.354 175.032V177.342H177.66V175.032H172.354ZM171.08 173.758H179.018V178.616H171.08V173.758ZM169.092 179.96H174.23V186.078H172.914V181.234H170.338V186.176H169.092V179.96ZM175.616 179.96H180.992V186.106H179.662V181.234H176.876V186.176H175.616V179.96ZM169.652 184.174H173.46V185.448H169.652V184.174ZM176.232 184.174H180.292V185.448H176.232V184.174ZM183.19 176.04H194.908V177.314H183.19V176.04ZM182.686 180.086H195.342V181.36H182.686V180.086ZM190.792 176.726H192.192V186.176H190.792V176.726ZM185.864 176.74H187.25V179.834C187.25 180.422 187.213 181.01 187.138 181.598C187.063 182.186 186.905 182.76 186.662 183.32C186.419 183.88 186.06 184.412 185.584 184.916C185.117 185.42 184.487 185.877 183.694 186.288C183.629 186.176 183.54 186.05 183.428 185.91C183.316 185.779 183.199 185.649 183.078 185.518C182.957 185.387 182.84 185.285 182.728 185.21C183.437 184.855 183.997 184.468 184.408 184.048C184.828 183.619 185.141 183.171 185.346 182.704C185.561 182.228 185.701 181.747 185.766 181.262C185.831 180.767 185.864 180.282 185.864 179.806V176.74ZM184.968 173.632L186.214 173.142C186.494 173.506 186.774 173.917 187.054 174.374C187.334 174.822 187.539 175.214 187.67 175.55L186.34 176.11C186.275 175.895 186.167 175.643 186.018 175.354C185.869 175.055 185.701 174.757 185.514 174.458C185.337 174.159 185.155 173.884 184.968 173.632ZM191.674 173.128L193.214 173.548C193.027 173.921 192.836 174.304 192.64 174.696C192.444 175.088 192.243 175.461 192.038 175.816C191.842 176.161 191.655 176.469 191.478 176.74L190.288 176.334C190.456 176.045 190.624 175.713 190.792 175.34C190.969 174.967 191.133 174.584 191.282 174.192C191.441 173.8 191.571 173.445 191.674 173.128ZM197.568 174.206L198.436 173.408C198.688 173.613 198.954 173.842 199.234 174.094C199.514 174.346 199.78 174.598 200.032 174.85C200.284 175.093 200.485 175.312 200.634 175.508L199.724 176.446C199.575 176.241 199.379 176.007 199.136 175.746C198.903 175.485 198.646 175.219 198.366 174.948C198.095 174.677 197.829 174.43 197.568 174.206ZM198.38 185.938L198.1 184.762L198.394 184.286L201.082 182.186C201.138 182.363 201.213 182.564 201.306 182.788C201.409 183.003 201.497 183.171 201.572 183.292C200.937 183.796 200.424 184.207 200.032 184.524C199.64 184.832 199.332 185.075 199.108 185.252C198.893 185.429 198.735 185.569 198.632 185.672C198.529 185.775 198.445 185.863 198.38 185.938ZM196.56 177.538H199.066V178.812H196.56V177.538ZM203.084 173.66H206.808V174.892H203.084V173.66ZM201.362 179.316H207.83V180.562H201.362V179.316ZM207.424 179.316H207.662L207.886 179.274L208.698 179.624C208.409 180.576 208.017 181.411 207.522 182.13C207.037 182.849 206.467 183.469 205.814 183.992C205.17 184.515 204.456 184.953 203.672 185.308C202.897 185.672 202.081 185.961 201.222 186.176C201.166 185.999 201.077 185.793 200.956 185.56C200.835 185.336 200.718 185.154 200.606 185.014C201.39 184.855 202.141 184.627 202.86 184.328C203.588 184.02 204.251 183.642 204.848 183.194C205.445 182.737 205.963 182.205 206.402 181.598C206.85 180.982 207.191 180.291 207.424 179.526V179.316ZM202.958 180.296C203.322 181.099 203.817 181.817 204.442 182.452C205.077 183.087 205.823 183.623 206.682 184.062C207.541 184.501 208.497 184.823 209.552 185.028C209.459 185.121 209.361 185.238 209.258 185.378C209.155 185.518 209.057 185.658 208.964 185.798C208.871 185.947 208.796 186.083 208.74 186.204C207.107 185.812 205.711 185.149 204.554 184.216C203.406 183.273 202.501 182.097 201.838 180.688L202.958 180.296ZM202.748 173.66H203.98V175.242C203.98 175.69 203.915 176.152 203.784 176.628C203.663 177.095 203.425 177.543 203.07 177.972C202.715 178.392 202.202 178.761 201.53 179.078C201.474 178.985 201.39 178.877 201.278 178.756C201.175 178.625 201.068 178.499 200.956 178.378C200.844 178.257 200.746 178.168 200.662 178.112C201.269 177.841 201.717 177.547 202.006 177.23C202.305 176.903 202.501 176.567 202.594 176.222C202.697 175.877 202.748 175.536 202.748 175.2V173.66ZM206.192 173.66H207.452V176.838C207.452 177.034 207.466 177.174 207.494 177.258C207.522 177.342 207.592 177.384 207.704 177.384C207.76 177.384 207.844 177.384 207.956 177.384C208.068 177.384 208.18 177.384 208.292 177.384C208.413 177.384 208.502 177.384 208.558 177.384C208.661 177.384 208.782 177.379 208.922 177.37C209.062 177.351 209.174 177.328 209.258 177.3C209.277 177.468 209.295 177.659 209.314 177.874C209.333 178.089 209.351 178.271 209.37 178.42C209.277 178.457 209.155 178.481 209.006 178.49C208.866 178.499 208.726 178.504 208.586 178.504C208.511 178.504 208.404 178.504 208.264 178.504C208.133 178.504 208.003 178.504 207.872 178.504C207.741 178.504 207.648 178.504 207.592 178.504C207.209 178.504 206.915 178.448 206.71 178.336C206.514 178.224 206.379 178.042 206.304 177.79C206.229 177.538 206.192 177.211 206.192 176.81V173.66ZM198.38 185.938C198.352 185.826 198.296 185.7 198.212 185.56C198.137 185.42 198.053 185.28 197.96 185.14C197.867 185 197.778 184.893 197.694 184.818C197.797 184.743 197.899 184.645 198.002 184.524C198.114 184.403 198.207 184.258 198.282 184.09C198.357 183.913 198.394 183.712 198.394 183.488V177.538H199.682V184.51C199.682 184.51 199.617 184.561 199.486 184.664C199.355 184.757 199.206 184.879 199.038 185.028C198.87 185.187 198.716 185.345 198.576 185.504C198.445 185.672 198.38 185.817 198.38 185.938ZM219.198 174.612V175.676H221.228V174.612H219.198ZM215.992 174.612V175.676H217.98V174.612H215.992ZM212.828 174.612V175.676H214.774V174.612H212.828ZM211.568 173.702H222.572V176.6H211.568V173.702ZM210.938 177.314H222.922V178.308H210.938V177.314ZM216.258 176.306L217.616 176.39C217.551 176.885 217.462 177.407 217.35 177.958C217.247 178.509 217.145 178.985 217.042 179.386H215.81C215.866 179.106 215.922 178.793 215.978 178.448C216.034 178.093 216.085 177.729 216.132 177.356C216.179 176.983 216.221 176.633 216.258 176.306ZM210.756 184.818H223.286V185.784H210.756V184.818ZM213.192 180.534H220.794V181.262H213.192V180.534ZM213.248 181.948H220.766V182.662H213.248V181.948ZM213.304 183.376H220.836V184.104H213.304V183.376ZM212.534 179.022H221.438V185.35H220.136V179.862H213.78V185.35H212.534V179.022ZM229.824 179.358C230.44 180.842 231.397 182.069 232.694 183.04C234.001 184.011 235.634 184.669 237.594 185.014C237.501 185.107 237.398 185.224 237.286 185.364C237.183 185.504 237.085 185.649 236.992 185.798C236.899 185.947 236.819 186.083 236.754 186.204C235.41 185.915 234.22 185.481 233.184 184.902C232.157 184.323 231.271 183.6 230.524 182.732C229.787 181.864 229.175 180.851 228.69 179.694L229.824 179.358ZM234.626 178.882H234.892L235.144 178.826L236.068 179.246C235.741 180.235 235.312 181.113 234.78 181.878C234.248 182.634 233.632 183.292 232.932 183.852C232.241 184.403 231.481 184.869 230.65 185.252C229.829 185.644 228.961 185.961 228.046 186.204C227.981 186.027 227.878 185.826 227.738 185.602C227.598 185.378 227.467 185.196 227.346 185.056C228.177 184.86 228.975 184.594 229.74 184.258C230.505 183.922 231.21 183.511 231.854 183.026C232.498 182.531 233.058 181.957 233.534 181.304C234.01 180.651 234.374 179.918 234.626 179.106V178.882ZM229.432 178.882H234.836V180.17H229.04L229.432 178.882ZM230.272 173.114L231.742 173.352C231.565 174.705 231.317 175.965 231 177.132C230.692 178.299 230.286 179.372 229.782 180.352C229.287 181.332 228.676 182.219 227.948 183.012C227.22 183.796 226.347 184.487 225.33 185.084C225.274 184.991 225.19 184.879 225.078 184.748C224.966 184.608 224.845 184.473 224.714 184.342C224.583 184.211 224.462 184.109 224.35 184.034C225.61 183.315 226.637 182.424 227.43 181.36C228.223 180.296 228.844 179.073 229.292 177.692C229.74 176.301 230.067 174.775 230.272 173.114ZM233.394 173.926L234.416 173.31C234.612 173.515 234.822 173.739 235.046 173.982C235.27 174.225 235.48 174.458 235.676 174.682C235.881 174.906 236.049 175.107 236.18 175.284L235.102 175.984C234.99 175.807 234.831 175.601 234.626 175.368C234.43 175.125 234.22 174.878 233.996 174.626C233.781 174.374 233.581 174.141 233.394 173.926ZM225.96 177.804C225.932 177.711 225.89 177.589 225.834 177.44C225.787 177.291 225.736 177.141 225.68 176.992C225.624 176.833 225.573 176.703 225.526 176.6C225.619 176.563 225.713 176.497 225.806 176.404C225.899 176.301 225.988 176.175 226.072 176.026C226.128 175.923 226.217 175.746 226.338 175.494C226.459 175.242 226.581 174.943 226.702 174.598C226.833 174.253 226.94 173.898 227.024 173.534L228.438 173.772C228.317 174.173 228.172 174.579 228.004 174.99C227.845 175.391 227.677 175.769 227.5 176.124C227.323 176.479 227.15 176.791 226.982 177.062V177.076C226.982 177.076 226.931 177.099 226.828 177.146C226.725 177.193 226.604 177.253 226.464 177.328C226.333 177.403 226.217 177.487 226.114 177.58C226.011 177.664 225.96 177.739 225.96 177.804ZM225.96 177.804V176.81L226.786 176.278H237.118V177.538H227.444C227.024 177.538 226.688 177.561 226.436 177.608C226.184 177.655 226.025 177.72 225.96 177.804ZM244.272 180.842H245.686V182.046C245.686 182.326 245.644 182.615 245.56 182.914C245.476 183.213 245.317 183.511 245.084 183.81C244.851 184.099 244.51 184.389 244.062 184.678C243.623 184.958 243.045 185.224 242.326 185.476C241.607 185.728 240.721 185.961 239.666 186.176C239.619 186.073 239.549 185.957 239.456 185.826C239.363 185.695 239.26 185.565 239.148 185.434C239.036 185.303 238.924 185.191 238.812 185.098C239.82 184.93 240.655 184.748 241.318 184.552C241.981 184.347 242.513 184.137 242.914 183.922C243.315 183.707 243.609 183.493 243.796 183.278C243.992 183.054 244.118 182.835 244.174 182.62C244.239 182.405 244.272 182.2 244.272 182.004V180.842ZM245.42 184.16L246.12 183.236C246.54 183.348 246.983 183.483 247.45 183.642C247.926 183.791 248.397 183.95 248.864 184.118C249.331 184.286 249.769 184.459 250.18 184.636C250.6 184.813 250.959 184.977 251.258 185.126L250.516 186.176C250.236 186.017 249.891 185.849 249.48 185.672C249.079 185.495 248.645 185.313 248.178 185.126C247.721 184.949 247.254 184.776 246.778 184.608C246.302 184.44 245.849 184.291 245.42 184.16ZM240.534 179.134H249.676V183.46H248.262V180.352H241.892V183.586H240.534V179.134ZM250.166 173.562L251.034 174.514C250.39 174.831 249.648 175.125 248.808 175.396C247.977 175.667 247.109 175.909 246.204 176.124C245.299 176.339 244.407 176.525 243.53 176.684C243.502 176.544 243.451 176.381 243.376 176.194C243.301 176.007 243.227 175.849 243.152 175.718C243.787 175.597 244.435 175.461 245.098 175.312C245.761 175.153 246.4 174.985 247.016 174.808C247.641 174.621 248.225 174.425 248.766 174.22C249.307 174.015 249.774 173.795 250.166 173.562ZM245.182 173.24H246.512V176.74C246.512 176.955 246.559 177.095 246.652 177.16C246.745 177.216 246.96 177.244 247.296 177.244C247.371 177.244 247.506 177.244 247.702 177.244C247.898 177.244 248.113 177.244 248.346 177.244C248.579 177.244 248.799 177.244 249.004 177.244C249.209 177.244 249.363 177.244 249.466 177.244C249.653 177.244 249.788 177.211 249.872 177.146C249.965 177.081 250.031 176.95 250.068 176.754C250.115 176.558 250.147 176.264 250.166 175.872C250.306 175.965 250.493 176.059 250.726 176.152C250.959 176.236 251.165 176.297 251.342 176.334C251.295 176.866 251.211 177.281 251.09 177.58C250.969 177.879 250.787 178.089 250.544 178.21C250.311 178.322 249.989 178.378 249.578 178.378C249.513 178.378 249.396 178.378 249.228 178.378C249.069 178.378 248.883 178.378 248.668 178.378C248.463 178.378 248.257 178.378 248.052 178.378C247.847 178.378 247.66 178.378 247.492 178.378C247.333 178.378 247.221 178.378 247.156 178.378C246.633 178.378 246.227 178.331 245.938 178.238C245.658 178.135 245.462 177.967 245.35 177.734C245.238 177.501 245.182 177.174 245.182 176.754V173.24ZM242.452 173.1L243.656 173.534C243.311 174.001 242.9 174.453 242.424 174.892C241.957 175.321 241.467 175.723 240.954 176.096C240.45 176.46 239.951 176.777 239.456 177.048C239.391 176.964 239.302 176.861 239.19 176.74C239.078 176.619 238.961 176.502 238.84 176.39C238.719 176.269 238.607 176.171 238.504 176.096C239.008 175.863 239.503 175.587 239.988 175.27C240.483 174.953 240.94 174.612 241.36 174.248C241.789 173.875 242.153 173.492 242.452 173.1ZM241.094 175.214L242.004 174.29L242.424 174.402V178.63H241.094V175.214ZM254.716 181.556C255.127 181.556 255.495 181.659 255.822 181.864C256.149 182.06 256.41 182.321 256.606 182.648C256.802 182.975 256.9 183.343 256.9 183.754C256.9 184.155 256.802 184.524 256.606 184.86C256.41 185.187 256.149 185.448 255.822 185.644C255.495 185.84 255.127 185.938 254.716 185.938C254.315 185.938 253.946 185.84 253.61 185.644C253.283 185.448 253.017 185.187 252.812 184.86C252.616 184.524 252.518 184.155 252.518 183.754C252.518 183.343 252.616 182.975 252.812 182.648C253.017 182.321 253.283 182.06 253.61 181.864C253.946 181.659 254.315 181.556 254.716 181.556ZM254.716 185.098C255.089 185.098 255.407 184.967 255.668 184.706C255.929 184.445 256.06 184.127 256.06 183.754C256.06 183.502 255.999 183.278 255.878 183.082C255.766 182.877 255.607 182.713 255.402 182.592C255.197 182.471 254.968 182.41 254.716 182.41C254.473 182.41 254.249 182.471 254.044 182.592C253.839 182.713 253.675 182.877 253.554 183.082C253.433 183.278 253.372 183.502 253.372 183.754C253.372 183.997 253.433 184.225 253.554 184.44C253.675 184.645 253.839 184.809 254.044 184.93C254.249 185.042 254.473 185.098 254.716 185.098Z" fill="#718096"/>
<path d="M126.296 233H133.432V231.096H131.208V221.16H129.464C128.696 221.624 127.896 221.928 126.696 222.152V223.608H128.856V231.096H126.296V233ZM135.41 233H143.346V231.016H140.786C140.226 231.016 139.442 231.096 138.85 231.16C141.01 229.048 142.802 226.744 142.802 224.584C142.802 222.376 141.298 220.952 139.074 220.952C137.458 220.952 136.386 221.576 135.298 222.744L136.594 224.024C137.202 223.352 137.89 222.792 138.77 222.792C139.906 222.792 140.53 223.528 140.53 224.712C140.53 226.536 138.642 228.76 135.41 231.656V233ZM152.992 230.744V231.832H162.096V230.744H152.992ZM151.552 224.008V225.144H161.04V226.44H151.552V227.592H162.48V224.008H151.552ZM152.288 228.488V234.28H153.648V229.624H162.08V228.488H152.288ZM161.456 228.488V233.064C161.456 233.224 161.408 233.288 161.232 233.288C161.04 233.288 160.464 233.288 159.84 233.272C159.984 233.576 160.176 234.008 160.24 234.344C161.184 234.344 161.856 234.328 162.304 234.168C162.752 233.976 162.88 233.688 162.88 233.064V228.488H161.456ZM155.36 229.016V233.928H156.624V229.016H155.36ZM158.352 229.016V233.928H159.616V229.016H158.352ZM151.056 220.696V221.848H156.096V220.696H151.056ZM157.312 220.696V221.848H163.472V220.696H157.312ZM151.264 219.4C150.736 220.824 149.808 222.232 148.8 223.16C149.152 223.336 149.76 223.736 150.032 223.976C151.024 222.952 152.048 221.368 152.672 219.768L151.264 219.4ZM157.648 219.4C157.216 220.568 156.4 221.704 155.456 222.44C155.808 222.6 156.464 222.936 156.768 223.16C157.664 222.344 158.592 221.08 159.088 219.752L157.648 219.4ZM152.032 221.576C152.416 222.184 152.832 223.016 152.992 223.528L154.32 223.064C154.128 222.536 153.696 221.752 153.28 221.16L152.032 221.576ZM158.88 221.576C159.376 222.168 159.936 223 160.16 223.528L161.52 223C161.264 222.456 160.688 221.672 160.176 221.112L158.88 221.576ZM150.928 223.992V226.616C150.928 228.776 150.736 231.352 148.976 233.416C149.36 233.624 149.904 234.088 150.16 234.376C152.112 232.056 152.336 229.128 152.336 226.648V223.992H150.928ZM155.472 223.112C155.808 223.64 156.208 224.344 156.384 224.792L157.808 224.216C157.616 223.768 157.184 223.096 156.832 222.616L155.472 223.112ZM176.06 222.968C174.332 228.36 170.876 231.368 165.196 232.904C165.5 233.256 165.964 233.96 166.124 234.328C171.964 232.52 175.628 229.24 177.628 223.4L176.06 222.968ZM169.26 223.048L167.852 223.48C169.884 228.904 173.42 232.664 179.212 234.232C179.452 233.816 179.9 233.16 180.252 232.824C174.652 231.48 171.004 227.896 169.26 223.048ZM165.452 222.264V223.752H179.996V222.264H165.452ZM171.388 219.848C171.836 220.632 172.3 221.704 172.476 222.36L174.172 221.816C173.964 221.16 173.436 220.12 172.988 219.368L171.388 219.848ZM181.72 231.304V232.536H196.232V231.304H181.72ZM188.168 229.88V234.344H189.752V229.88H188.168ZM185 228.328H192.936V229.304H185V228.328ZM185 226.36H192.936V227.336H185V226.36ZM183.528 225.32V230.36H194.472V225.32H183.528ZM182.808 220.696V221.912H195.24V220.696H182.808ZM181.768 223.368V224.584H196.216V223.368H181.768ZM191.4 221.848C191.224 222.376 190.824 223.144 190.552 223.656L191.992 223.944C192.296 223.48 192.648 222.84 193 222.168L191.4 221.848ZM185.08 222.2C185.384 222.744 185.72 223.48 185.832 223.96L187.352 223.576C187.192 223.112 186.872 222.392 186.536 221.88L185.08 222.2ZM187.8 219.608C188.088 220.184 188.456 220.952 188.584 221.464L190.136 221.064C189.976 220.568 189.624 219.832 189.288 219.288L187.8 219.608Z" fill="#168AFF"/>
</g>
<defs>
<clipPath id="clip0_147_3014">
<rect width="322" height="278" fill="white"/>
</clipPath>
</defs>
</svg>
