<svg width="322" height="278" viewBox="0 0 322 278" fill="none" xmlns="http://www.w3.org/2000/svg">
<g clip-path="url(#clip0_147_3013)">
<path fill-rule="evenodd" clip-rule="evenodd" d="M0 16C0 7.16344 7.16344 0 16 0H306C314.837 0 322 7.16344 322 16V262C322 270.837 314.837 278 306 278H16C7.16343 278 0 270.837 0 262V16Z" fill="#FAFAFA"/>
<path fill-rule="evenodd" clip-rule="evenodd" d="M129 72C129 54.3269 143.327 40 161 40C178.673 40 193 54.3269 193 72C193 89.6731 178.673 104 161 104C143.327 104 129 89.6731 129 72Z" fill="white"/>
<mask id="mask0_147_3013" style="mask-type:luminance" maskUnits="userSpaceOnUse" x="129" y="40" width="64" height="64">
<path fill-rule="evenodd" clip-rule="evenodd" d="M129 72C129 54.3269 143.327 40 161 40C178.673 40 193 54.3269 193 72C193 89.6731 178.673 104 161 104C143.327 104 129 89.6731 129 72Z" fill="white"/>
</mask>
<g mask="url(#mask0_147_3013)">
<path fill-rule="evenodd" clip-rule="evenodd" d="M161 75.666C163.209 75.666 165 73.8752 165 71.666C165 69.4569 163.209 67.666 161 67.666C158.791 67.666 157 69.4569 157 71.666C157 73.8752 158.791 75.666 161 75.666Z" stroke="#168AFF" stroke-width="2" stroke-linecap="round" stroke-linejoin="round"/>
<path fill-rule="evenodd" clip-rule="evenodd" d="M168.543 79.2089L162.885 84.8663C162.385 85.3658 161.707 85.6464 161.001 85.6464C160.294 85.6464 159.616 85.3658 159.116 84.8663L153.457 79.2089C151.966 77.7172 150.95 75.8165 150.538 73.7474C150.127 71.6783 150.338 69.5336 151.145 67.5846C151.953 65.6355 153.32 63.9697 155.074 62.7976C156.828 61.6256 158.89 61 161 61C163.11 61 165.172 61.6256 166.926 62.7976C168.68 63.9697 170.047 65.6355 170.855 67.5846C171.662 69.5336 171.873 71.6783 171.462 73.7474C171.05 75.8165 170.034 77.7172 168.543 79.2089V79.2089Z" stroke="#168AFF" stroke-width="2" stroke-linecap="round" stroke-linejoin="round"/>
</g>
<path d="M118.06 133.8H129.58V135.48H118.06V133.8ZM117.36 141.36H130.26V143.08H117.36V141.36ZM118.94 144.52H128.94V151.62H127.06V146.18H120.74V151.68H118.94V144.52ZM119.86 149.3H127.84V150.94H119.86V149.3ZM122.14 134.46L124.02 134.64C123.873 135.48 123.693 136.38 123.48 137.34C123.28 138.287 123.08 139.2 122.88 140.08C122.68 140.96 122.5 141.727 122.34 142.38H120.38C120.527 141.873 120.68 141.293 120.84 140.64C121 139.987 121.16 139.307 121.32 138.6C121.48 137.88 121.627 137.167 121.76 136.46C121.907 135.74 122.033 135.073 122.14 134.46ZM118.76 137.4H126.98V139.04H118.76V137.4ZM126.52 137.4H126.72L127 137.32L128.32 137.42C128.293 138.22 128.233 139.053 128.14 139.92C128.06 140.773 127.973 141.56 127.88 142.28L126.1 142.16C126.167 141.653 126.227 141.12 126.28 140.56C126.333 140 126.38 139.46 126.42 138.94C126.473 138.407 126.507 137.967 126.52 137.62V137.4ZM112.78 134.7L114 133.56C114.36 133.853 114.74 134.18 115.14 134.54C115.54 134.9 115.92 135.26 116.28 135.62C116.64 135.967 116.927 136.28 117.14 136.56L115.86 137.9C115.647 137.607 115.367 137.273 115.02 136.9C114.673 136.527 114.3 136.147 113.9 135.76C113.513 135.373 113.14 135.02 112.78 134.7ZM111.82 139.32H115.42V141.14H111.82V139.32ZM114.56 151.22L114.24 149.5L114.72 148.82L118.4 146.4C118.44 146.64 118.507 146.92 118.6 147.24C118.707 147.56 118.8 147.813 118.88 148C118.027 148.6 117.333 149.087 116.8 149.46C116.267 149.833 115.847 150.127 115.54 150.34C115.247 150.567 115.027 150.74 114.88 150.86C114.747 150.993 114.64 151.113 114.56 151.22ZM114.56 151.22C114.507 151.073 114.427 150.893 114.32 150.68C114.213 150.467 114.093 150.26 113.96 150.06C113.827 149.86 113.707 149.693 113.6 149.56C113.773 149.44 113.953 149.247 114.14 148.98C114.327 148.7 114.42 148.347 114.42 147.92V139.32H116.18V149.44C116.18 149.44 116.1 149.5 115.94 149.62C115.78 149.74 115.593 149.893 115.38 150.08C115.167 150.267 114.973 150.46 114.8 150.66C114.64 150.86 114.56 151.047 114.56 151.22ZM135.9 149.3H146.24V150.88H135.9V149.3ZM134.86 142.1H147.24V143.64H134.86V142.1ZM134.86 139.06H147.24V140.58H134.86V139.06ZM132.02 135.98H150.08V137.62H132.02V135.98ZM134.66 145.3H147.46V151.6H145.52V146.9H136.52V151.66H134.66V145.3ZM139.08 133.56L140.94 133.04C141.327 133.48 141.7 133.967 142.06 134.5C142.42 135.033 142.687 135.5 142.86 135.9L140.88 136.48C140.733 136.08 140.487 135.607 140.14 135.06C139.807 134.513 139.453 134.013 139.08 133.56ZM155.82 140.76H167.54V142.52H155.82V140.76ZM156.76 135.74H168.62V137.56H156.76V135.74ZM152.08 145.04H164.56V146.86H152.08V145.04ZM167.06 140.76H169.02C169.02 140.76 169.013 140.813 169 140.92C169 141.027 168.993 141.153 168.98 141.3C168.98 141.433 168.967 141.547 168.94 141.64C168.767 143.533 168.58 145.087 168.38 146.3C168.193 147.513 167.98 148.46 167.74 149.14C167.513 149.807 167.247 150.293 166.94 150.6C166.647 150.907 166.34 151.113 166.02 151.22C165.7 151.327 165.3 151.393 164.82 151.42C164.433 151.447 163.907 151.453 163.24 151.44C162.573 151.427 161.88 151.407 161.16 151.38C161.147 151.1 161.073 150.78 160.94 150.42C160.807 150.06 160.64 149.747 160.44 149.48C161.227 149.547 161.973 149.593 162.68 149.62C163.4 149.633 163.913 149.64 164.22 149.64C164.473 149.64 164.68 149.627 164.84 149.6C165 149.573 165.153 149.507 165.3 149.4C165.553 149.187 165.787 148.76 166 148.12C166.213 147.48 166.407 146.58 166.58 145.42C166.753 144.26 166.913 142.807 167.06 141.06V140.76ZM156.1 133.5L158.02 133.7C157.9 134.42 157.76 135.18 157.6 135.98C157.453 136.78 157.293 137.58 157.12 138.38C156.96 139.167 156.8 139.92 156.64 140.64C156.493 141.347 156.353 141.973 156.22 142.52H154.2C154.36 141.933 154.527 141.273 154.7 140.54C154.873 139.807 155.04 139.033 155.2 138.22C155.373 137.407 155.533 136.6 155.68 135.8C155.84 134.987 155.98 134.22 156.1 133.5ZM175.94 133.2L177.74 133.72C177.353 134.84 176.893 135.96 176.36 137.08C175.84 138.2 175.273 139.26 174.66 140.26C174.047 141.26 173.407 142.14 172.74 142.9C172.687 142.74 172.593 142.54 172.46 142.3C172.327 142.06 172.187 141.82 172.04 141.58C171.907 141.327 171.787 141.127 171.68 140.98C172.253 140.34 172.807 139.607 173.34 138.78C173.873 137.94 174.36 137.047 174.8 136.1C175.24 135.14 175.62 134.173 175.94 133.2ZM174.14 138.5L176.04 136.62V136.64V151.66H174.14V138.5ZM177.98 145.26H189.48V146.94H177.98V145.26ZM176.86 149.38H190.2V151.12H176.86V149.38ZM179.88 139.46V141.72H187.38V139.46H179.88ZM179.88 135.76V137.98H187.38V135.76H179.88ZM178.08 134.2H189.26V143.3H178.08V134.2ZM182.8 134.8H184.52V142.64H184.68V150.28H182.64V142.64H182.8V134.8ZM198.06 133.8H209.58V135.48H198.06V133.8ZM197.36 141.36H210.26V143.08H197.36V141.36ZM198.94 144.52H208.94V151.62H207.06V146.18H200.74V151.68H198.94V144.52ZM199.86 149.3H207.84V150.94H199.86V149.3ZM202.14 134.46L204.02 134.64C203.873 135.48 203.693 136.38 203.48 137.34C203.28 138.287 203.08 139.2 202.88 140.08C202.68 140.96 202.5 141.727 202.34 142.38H200.38C200.527 141.873 200.68 141.293 200.84 140.64C201 139.987 201.16 139.307 201.32 138.6C201.48 137.88 201.627 137.167 201.76 136.46C201.907 135.74 202.033 135.073 202.14 134.46ZM198.76 137.4H206.98V139.04H198.76V137.4ZM206.52 137.4H206.72L207 137.32L208.32 137.42C208.293 138.22 208.233 139.053 208.14 139.92C208.06 140.773 207.973 141.56 207.88 142.28L206.1 142.16C206.167 141.653 206.227 141.12 206.28 140.56C206.333 140 206.38 139.46 206.42 138.94C206.473 138.407 206.507 137.967 206.52 137.62V137.4ZM192.78 134.7L194 133.56C194.36 133.853 194.74 134.18 195.14 134.54C195.54 134.9 195.92 135.26 196.28 135.62C196.64 135.967 196.927 136.28 197.14 136.56L195.86 137.9C195.647 137.607 195.367 137.273 195.02 136.9C194.673 136.527 194.3 136.147 193.9 135.76C193.513 135.373 193.14 135.02 192.78 134.7ZM191.82 139.32H195.42V141.14H191.82V139.32ZM194.56 151.22L194.24 149.5L194.72 148.82L198.4 146.4C198.44 146.64 198.507 146.92 198.6 147.24C198.707 147.56 198.8 147.813 198.88 148C198.027 148.6 197.333 149.087 196.8 149.46C196.267 149.833 195.847 150.127 195.54 150.34C195.247 150.567 195.027 150.74 194.88 150.86C194.747 150.993 194.64 151.113 194.56 151.22ZM194.56 151.22C194.507 151.073 194.427 150.893 194.32 150.68C194.213 150.467 194.093 150.26 193.96 150.06C193.827 149.86 193.707 149.693 193.6 149.56C193.773 149.44 193.953 149.247 194.14 148.98C194.327 148.7 194.42 148.347 194.42 147.92V139.32H196.18V149.44C196.18 149.44 196.1 149.5 195.94 149.62C195.78 149.74 195.593 149.893 195.38 150.08C195.167 150.267 194.973 150.46 194.8 150.66C194.64 150.86 194.56 151.047 194.56 151.22Z" fill="#111827"/>
<path d="M123.522 173.828H124.656V176.236C124.656 176.721 124.633 177.253 124.586 177.832C124.549 178.411 124.474 179.008 124.362 179.624C124.25 180.231 124.091 180.823 123.886 181.402C123.681 181.981 123.415 182.508 123.088 182.984C123.032 182.9 122.948 182.807 122.836 182.704C122.724 182.592 122.612 182.485 122.5 182.382C122.388 182.279 122.29 182.205 122.206 182.158C122.598 181.57 122.887 180.926 123.074 180.226C123.261 179.526 123.382 178.831 123.438 178.14C123.494 177.44 123.522 176.805 123.522 176.236V173.828ZM124.208 173.828H127.176V177.944H124.208V176.894H126.042V174.878H124.208V173.828ZM127.582 174.85H132.328V175.914H127.582V174.85ZM127.624 180.548H132.286V181.612H127.624V180.548ZM127.456 178.154H132.426V179.232H127.456V178.154ZM129.318 178.616H130.508V183.95H129.318V178.616ZM128.142 176.278L129.052 176.054C129.173 176.325 129.281 176.628 129.374 176.964C129.467 177.291 129.533 177.571 129.57 177.804L128.604 178.07C128.576 177.827 128.515 177.538 128.422 177.202C128.338 176.866 128.245 176.558 128.142 176.278ZM130.844 176.012L131.936 176.264C131.768 176.675 131.586 177.095 131.39 177.524C131.203 177.944 131.031 178.303 130.872 178.602L129.99 178.35C130.093 178.135 130.195 177.893 130.298 177.622C130.41 177.351 130.513 177.076 130.606 176.796C130.709 176.507 130.788 176.245 130.844 176.012ZM122.29 178.588V183.796H121.086V179.792H119.574V178.588H122.29ZM119.686 174.304L120.722 173.702C120.965 173.954 121.207 174.229 121.45 174.528C121.702 174.827 121.931 175.125 122.136 175.424C122.351 175.713 122.519 175.979 122.64 176.222L121.52 176.894C121.408 176.651 121.254 176.381 121.058 176.082C120.862 175.783 120.643 175.48 120.4 175.172C120.157 174.855 119.919 174.565 119.686 174.304ZM128.814 173.408L129.878 173.142C130.037 173.441 130.186 173.772 130.326 174.136C130.475 174.5 130.583 174.813 130.648 175.074L129.528 175.396C129.472 175.125 129.374 174.803 129.234 174.43C129.103 174.057 128.963 173.716 128.814 173.408ZM121.954 183.292C122.197 183.292 122.43 183.376 122.654 183.544C122.887 183.703 123.209 183.889 123.62 184.104C124.087 184.356 124.637 184.519 125.272 184.594C125.916 184.659 126.625 184.692 127.4 184.692C127.941 184.692 128.525 184.683 129.15 184.664C129.785 184.636 130.405 184.603 131.012 184.566C131.619 184.519 132.155 184.463 132.622 184.398C132.575 184.51 132.524 184.645 132.468 184.804C132.412 184.963 132.365 185.121 132.328 185.28C132.291 185.439 132.267 185.579 132.258 185.7C132.006 185.719 131.675 185.737 131.264 185.756C130.863 185.775 130.429 185.789 129.962 185.798C129.495 185.817 129.033 185.831 128.576 185.84C128.119 185.849 127.717 185.854 127.372 185.854C126.504 185.854 125.743 185.807 125.09 185.714C124.446 185.621 123.867 185.439 123.354 185.168C123.046 185 122.775 184.837 122.542 184.678C122.309 184.51 122.103 184.426 121.926 184.426C121.777 184.426 121.604 184.505 121.408 184.664C121.212 184.813 121.007 185.009 120.792 185.252C120.577 185.504 120.363 185.77 120.148 186.05L119.336 184.902C119.803 184.435 120.265 184.053 120.722 183.754C121.179 183.446 121.59 183.292 121.954 183.292ZM125.02 180.212V182.844H126.322V180.212H125.02ZM124.096 179.232H127.274V183.838H124.096V179.232ZM140.616 180.73H141.988V184.202C141.988 184.426 142.03 184.571 142.114 184.636C142.198 184.692 142.385 184.72 142.674 184.72C142.739 184.72 142.856 184.72 143.024 184.72C143.192 184.72 143.374 184.72 143.57 184.72C143.775 184.72 143.967 184.72 144.144 184.72C144.321 184.72 144.452 184.72 144.536 184.72C144.723 184.72 144.863 184.678 144.956 184.594C145.049 184.501 145.115 184.319 145.152 184.048C145.199 183.777 145.231 183.371 145.25 182.83C145.343 182.895 145.46 182.965 145.6 183.04C145.749 183.105 145.899 183.166 146.048 183.222C146.197 183.269 146.333 183.311 146.454 183.348C146.407 184.02 146.323 184.543 146.202 184.916C146.09 185.289 145.913 185.546 145.67 185.686C145.427 185.835 145.091 185.91 144.662 185.91C144.597 185.91 144.489 185.91 144.34 185.91C144.2 185.91 144.037 185.91 143.85 185.91C143.663 185.91 143.477 185.91 143.29 185.91C143.113 185.91 142.949 185.91 142.8 185.91C142.66 185.91 142.562 185.91 142.506 185.91C142.002 185.91 141.61 185.859 141.33 185.756C141.059 185.653 140.873 185.476 140.77 185.224C140.667 184.981 140.616 184.65 140.616 184.23V180.73ZM137.48 173.128L138.922 173.408C138.586 173.996 138.194 174.584 137.746 175.172C137.298 175.76 136.799 176.334 136.248 176.894C135.697 177.454 135.081 177.981 134.4 178.476C134.335 178.373 134.246 178.261 134.134 178.14C134.031 178.009 133.919 177.888 133.798 177.776C133.677 177.655 133.56 177.561 133.448 177.496C134.083 177.076 134.657 176.619 135.17 176.124C135.683 175.62 136.131 175.111 136.514 174.598C136.906 174.085 137.228 173.595 137.48 173.128ZM136.374 177.888V180.058H143.934V177.888H136.374ZM135.044 176.698H145.334V181.234H135.044V176.698ZM141.316 174.178H141.624L141.834 174.122L142.758 174.71C142.581 175.018 142.371 175.345 142.128 175.69C141.885 176.035 141.629 176.371 141.358 176.698C141.097 177.015 140.845 177.3 140.602 177.552C140.471 177.449 140.308 177.337 140.112 177.216C139.925 177.085 139.757 176.983 139.608 176.908C139.832 176.684 140.056 176.427 140.28 176.138C140.504 175.839 140.709 175.541 140.896 175.242C141.083 174.934 141.223 174.668 141.316 174.444V174.178ZM137.438 174.178H141.722V175.284H136.752L137.438 174.178ZM139.398 177.482H140.798C140.742 178.257 140.653 179.003 140.532 179.722C140.411 180.431 140.224 181.108 139.972 181.752C139.72 182.387 139.365 182.975 138.908 183.516C138.451 184.057 137.853 184.543 137.116 184.972C136.388 185.401 135.483 185.765 134.4 186.064C134.335 185.887 134.227 185.686 134.078 185.462C133.929 185.247 133.784 185.075 133.644 184.944C134.661 184.683 135.506 184.37 136.178 184.006C136.859 183.633 137.401 183.208 137.802 182.732C138.213 182.256 138.525 181.743 138.74 181.192C138.955 180.641 139.104 180.053 139.188 179.428C139.281 178.803 139.351 178.154 139.398 177.482ZM149.828 174.15H158.69V175.41H149.828V174.15ZM149.828 177.398H158.69V178.63H149.828V177.398ZM149.772 180.716H158.732V181.976H149.772V180.716ZM149.072 174.15H150.388V179.204C150.388 179.745 150.36 180.329 150.304 180.954C150.257 181.579 150.169 182.214 150.038 182.858C149.907 183.493 149.711 184.104 149.45 184.692C149.198 185.271 148.857 185.793 148.428 186.26C148.363 186.167 148.265 186.064 148.134 185.952C148.013 185.84 147.882 185.733 147.742 185.63C147.611 185.527 147.495 185.448 147.392 185.392C147.784 184.953 148.092 184.482 148.316 183.978C148.54 183.465 148.703 182.937 148.806 182.396C148.918 181.845 148.988 181.299 149.016 180.758C149.053 180.207 149.072 179.685 149.072 179.19V174.15ZM158.186 174.15H159.502V184.51C159.502 184.893 159.451 185.187 159.348 185.392C159.245 185.607 159.068 185.77 158.816 185.882C158.564 185.985 158.223 186.045 157.794 186.064C157.365 186.092 156.819 186.101 156.156 186.092C156.137 185.924 156.081 185.714 155.988 185.462C155.904 185.21 155.815 184.995 155.722 184.818C156.021 184.837 156.315 184.851 156.604 184.86C156.893 184.86 157.145 184.86 157.36 184.86C157.584 184.851 157.738 184.846 157.822 184.846C157.962 184.846 158.055 184.823 158.102 184.776C158.158 184.72 158.186 184.627 158.186 184.496V174.15ZM153.44 174.64H154.77V186.036H153.44V174.64ZM165.942 173.66H174.006V174.836H165.942V173.66ZM165.452 178.952H174.482V180.156H165.452V178.952ZM166.558 181.164H173.558V186.134H172.242V182.326H167.818V186.176H166.558V181.164ZM167.202 184.51H172.788V185.658H167.202V184.51ZM168.798 174.122L170.114 174.248C170.011 174.836 169.885 175.466 169.736 176.138C169.596 176.801 169.456 177.44 169.316 178.056C169.176 178.672 169.05 179.209 168.938 179.666H167.566C167.669 179.311 167.776 178.905 167.888 178.448C168 177.991 168.112 177.515 168.224 177.02C168.336 176.516 168.439 176.017 168.532 175.522C168.635 175.018 168.723 174.551 168.798 174.122ZM166.432 176.18H172.186V177.328H166.432V176.18ZM171.864 176.18H172.004L172.2 176.124L173.124 176.194C173.105 176.754 173.063 177.337 172.998 177.944C172.942 178.541 172.881 179.092 172.816 179.596L171.57 179.512C171.617 179.157 171.659 178.784 171.696 178.392C171.733 178 171.766 177.622 171.794 177.258C171.831 176.885 171.855 176.577 171.864 176.334V176.18ZM162.246 174.29L163.1 173.492C163.352 173.697 163.618 173.926 163.898 174.178C164.178 174.43 164.444 174.682 164.696 174.934C164.948 175.177 165.149 175.396 165.298 175.592L164.402 176.53C164.253 176.325 164.057 176.091 163.814 175.83C163.571 175.569 163.31 175.303 163.03 175.032C162.759 174.761 162.498 174.514 162.246 174.29ZM161.574 177.524H164.094V178.798H161.574V177.524ZM163.492 185.854L163.268 184.65L163.604 184.174L166.18 182.48C166.208 182.648 166.255 182.844 166.32 183.068C166.395 183.292 166.46 183.469 166.516 183.6C165.919 184.02 165.433 184.361 165.06 184.622C164.687 184.883 164.393 185.089 164.178 185.238C163.973 185.397 163.819 185.518 163.716 185.602C163.623 185.695 163.548 185.779 163.492 185.854ZM163.492 185.854C163.455 185.751 163.399 185.625 163.324 185.476C163.249 185.327 163.165 185.182 163.072 185.042C162.979 184.902 162.895 184.785 162.82 184.692C162.941 184.608 163.067 184.473 163.198 184.286C163.329 184.09 163.394 183.843 163.394 183.544V177.524H164.626V184.608C164.626 184.608 164.57 184.65 164.458 184.734C164.346 184.818 164.215 184.925 164.066 185.056C163.917 185.187 163.781 185.322 163.66 185.462C163.548 185.602 163.492 185.733 163.492 185.854ZM177.576 179.218H186.466V186.078H185.136V180.184H178.85V186.134H177.576V179.218ZM176.596 173.828H187.362V178.686H186.018V174.808H177.87V178.714H176.596V173.828ZM178.416 181.038H185.556V181.962H178.416V181.038ZM178.668 175.606H185.304V176.53H178.668V175.606ZM178.696 177.37H185.304V178.294H178.696V177.37ZM178.416 182.802H185.556V183.726H178.416V182.802ZM178.416 184.608H185.556V185.588H178.416V184.608ZM189.686 173.982L190.638 173.226C191.413 173.786 192.029 174.369 192.486 174.976C192.953 175.573 193.303 176.194 193.536 176.838C193.779 177.482 193.937 178.135 194.012 178.798C194.087 179.451 194.124 180.119 194.124 180.8C194.124 181.481 194.101 182.125 194.054 182.732C194.007 183.339 193.923 183.88 193.802 184.356C193.681 184.832 193.508 185.215 193.284 185.504C193.172 185.663 193.037 185.784 192.878 185.868C192.729 185.961 192.561 186.027 192.374 186.064C192.066 186.129 191.739 186.167 191.394 186.176C191.058 186.185 190.703 186.181 190.33 186.162C190.321 185.938 190.279 185.705 190.204 185.462C190.139 185.229 190.036 185.019 189.896 184.832C190.325 184.869 190.699 184.888 191.016 184.888C191.333 184.879 191.59 184.865 191.786 184.846C191.907 184.827 192.005 184.799 192.08 184.762C192.155 184.715 192.225 184.645 192.29 184.552C192.477 184.309 192.607 183.852 192.682 183.18C192.766 182.499 192.808 181.696 192.808 180.772C192.808 180.128 192.771 179.507 192.696 178.91C192.621 178.303 192.477 177.72 192.262 177.16C192.047 176.6 191.735 176.059 191.324 175.536C190.913 175.004 190.367 174.486 189.686 173.982ZM195.86 174.248H201.152V175.522H195.86V174.248ZM200.368 174.248H201.684V179.288C201.684 179.643 201.637 179.923 201.544 180.128C201.46 180.333 201.283 180.492 201.012 180.604C200.751 180.697 200.401 180.758 199.962 180.786C199.533 180.805 199.01 180.814 198.394 180.814C198.375 180.609 198.324 180.385 198.24 180.142C198.156 179.89 198.072 179.675 197.988 179.498C198.287 179.507 198.576 179.517 198.856 179.526C199.136 179.535 199.383 179.54 199.598 179.54C199.813 179.531 199.962 179.526 200.046 179.526C200.177 179.517 200.261 179.498 200.298 179.47C200.345 179.433 200.368 179.363 200.368 179.26V174.248ZM195.426 174.248H196.77V183.852C196.77 184.113 196.789 184.314 196.826 184.454C196.873 184.585 196.961 184.673 197.092 184.72C197.232 184.767 197.433 184.79 197.694 184.79C197.778 184.79 197.909 184.79 198.086 184.79C198.263 184.79 198.464 184.79 198.688 184.79C198.912 184.79 199.136 184.79 199.36 184.79C199.584 184.79 199.789 184.79 199.976 184.79C200.163 184.79 200.298 184.79 200.382 184.79C200.643 184.79 200.835 184.729 200.956 184.608C201.087 184.477 201.18 184.244 201.236 183.908C201.301 183.572 201.348 183.091 201.376 182.466C201.544 182.578 201.749 182.69 201.992 182.802C202.235 182.905 202.445 182.975 202.622 183.012C202.566 183.759 202.468 184.361 202.328 184.818C202.197 185.266 201.987 185.583 201.698 185.77C201.409 185.966 201.003 186.064 200.48 186.064C200.396 186.064 200.256 186.064 200.06 186.064C199.873 186.064 199.649 186.064 199.388 186.064C199.136 186.064 198.884 186.064 198.632 186.064C198.389 186.064 198.17 186.064 197.974 186.064C197.778 186.064 197.643 186.064 197.568 186.064C197.027 186.064 196.597 185.999 196.28 185.868C195.972 185.747 195.753 185.523 195.622 185.196C195.491 184.879 195.426 184.426 195.426 183.838V174.248ZM192.78 178.238L193.802 178.84C193.55 179.325 193.228 179.825 192.836 180.338C192.444 180.851 192.024 181.332 191.576 181.78C191.128 182.228 190.689 182.611 190.26 182.928C190.148 182.76 190.003 182.578 189.826 182.382C189.658 182.186 189.495 182.023 189.336 181.892C189.765 181.64 190.199 181.313 190.638 180.912C191.077 180.511 191.483 180.077 191.856 179.61C192.239 179.143 192.547 178.686 192.78 178.238ZM193.606 173.268L194.684 174.024C194.329 174.584 193.919 175.125 193.452 175.648C192.985 176.171 192.486 176.665 191.954 177.132C191.422 177.599 190.881 178.019 190.33 178.392C190.227 178.252 190.087 178.093 189.91 177.916C189.733 177.729 189.569 177.58 189.42 177.468C189.971 177.104 190.503 176.693 191.016 176.236C191.539 175.779 192.019 175.298 192.458 174.794C192.906 174.281 193.289 173.772 193.606 173.268Z" fill="#718096"/>
<path d="M126.296 233H133.432V231.096H131.208V221.16H129.464C128.696 221.624 127.896 221.928 126.696 222.152V223.608H128.856V231.096H126.296V233ZM139.458 233.224C141.858 233.224 143.458 231.128 143.458 227.032C143.458 222.952 141.858 220.952 139.458 220.952C137.042 220.952 135.442 222.952 135.442 227.032C135.442 231.128 137.042 233.224 139.458 233.224ZM139.458 231.384C138.434 231.384 137.666 230.36 137.666 227.032C137.666 223.72 138.434 222.76 139.458 222.76C140.482 222.76 141.234 223.72 141.234 227.032C141.234 230.36 140.482 231.384 139.458 231.384ZM152.992 230.744V231.832H162.096V230.744H152.992ZM151.552 224.008V225.144H161.04V226.44H151.552V227.592H162.48V224.008H151.552ZM152.288 228.488V234.28H153.648V229.624H162.08V228.488H152.288ZM161.456 228.488V233.064C161.456 233.224 161.408 233.288 161.232 233.288C161.04 233.288 160.464 233.288 159.84 233.272C159.984 233.576 160.176 234.008 160.24 234.344C161.184 234.344 161.856 234.328 162.304 234.168C162.752 233.976 162.88 233.688 162.88 233.064V228.488H161.456ZM155.36 229.016V233.928H156.624V229.016H155.36ZM158.352 229.016V233.928H159.616V229.016H158.352ZM151.056 220.696V221.848H156.096V220.696H151.056ZM157.312 220.696V221.848H163.472V220.696H157.312ZM151.264 219.4C150.736 220.824 149.808 222.232 148.8 223.16C149.152 223.336 149.76 223.736 150.032 223.976C151.024 222.952 152.048 221.368 152.672 219.768L151.264 219.4ZM157.648 219.4C157.216 220.568 156.4 221.704 155.456 222.44C155.808 222.6 156.464 222.936 156.768 223.16C157.664 222.344 158.592 221.08 159.088 219.752L157.648 219.4ZM152.032 221.576C152.416 222.184 152.832 223.016 152.992 223.528L154.32 223.064C154.128 222.536 153.696 221.752 153.28 221.16L152.032 221.576ZM158.88 221.576C159.376 222.168 159.936 223 160.16 223.528L161.52 223C161.264 222.456 160.688 221.672 160.176 221.112L158.88 221.576ZM150.928 223.992V226.616C150.928 228.776 150.736 231.352 148.976 233.416C149.36 233.624 149.904 234.088 150.16 234.376C152.112 232.056 152.336 229.128 152.336 226.648V223.992H150.928ZM155.472 223.112C155.808 223.64 156.208 224.344 156.384 224.792L157.808 224.216C157.616 223.768 157.184 223.096 156.832 222.616L155.472 223.112ZM176.06 222.968C174.332 228.36 170.876 231.368 165.196 232.904C165.5 233.256 165.964 233.96 166.124 234.328C171.964 232.52 175.628 229.24 177.628 223.4L176.06 222.968ZM169.26 223.048L167.852 223.48C169.884 228.904 173.42 232.664 179.212 234.232C179.452 233.816 179.9 233.16 180.252 232.824C174.652 231.48 171.004 227.896 169.26 223.048ZM165.452 222.264V223.752H179.996V222.264H165.452ZM171.388 219.848C171.836 220.632 172.3 221.704 172.476 222.36L174.172 221.816C173.964 221.16 173.436 220.12 172.988 219.368L171.388 219.848ZM181.72 231.304V232.536H196.232V231.304H181.72ZM188.168 229.88V234.344H189.752V229.88H188.168ZM185 228.328H192.936V229.304H185V228.328ZM185 226.36H192.936V227.336H185V226.36ZM183.528 225.32V230.36H194.472V225.32H183.528ZM182.808 220.696V221.912H195.24V220.696H182.808ZM181.768 223.368V224.584H196.216V223.368H181.768ZM191.4 221.848C191.224 222.376 190.824 223.144 190.552 223.656L191.992 223.944C192.296 223.48 192.648 222.84 193 222.168L191.4 221.848ZM185.08 222.2C185.384 222.744 185.72 223.48 185.832 223.96L187.352 223.576C187.192 223.112 186.872 222.392 186.536 221.88L185.08 222.2ZM187.8 219.608C188.088 220.184 188.456 220.952 188.584 221.464L190.136 221.064C189.976 220.568 189.624 219.832 189.288 219.288L187.8 219.608Z" fill="#168AFF"/>
</g>
<defs>
<clipPath id="clip0_147_3013">
<rect width="322" height="278" fill="white"/>
</clipPath>
</defs>
</svg>
