<svg width="24" height="25" viewBox="0 0 24 25" fill="none" xmlns="http://www.w3.org/2000/svg">
<path fill-rule="evenodd" clip-rule="evenodd" d="M12.3749 2.49041C15.2949 2.49041 17.6729 4.86841 17.6729 7.79141L17.6728 9.36801C19.448 9.98582 20.725 11.6758 20.725 13.6592V17.9482C20.725 20.4532 18.688 22.4902 16.183 22.4902H8.542C6.037 22.4902 4 20.4532 4 17.9482V13.6592C4 11.6762 5.27652 9.98646 7.05121 9.36836L7.0519 7.79141C7.0579 6.35141 7.6149 5.02241 8.6199 4.02641C9.6259 3.02941 10.9539 2.45241 12.3749 2.49041ZM16.183 10.6172H8.542C6.864 10.6172 5.5 11.9812 5.5 13.6592V17.9482C5.5 19.6262 6.864 20.9902 8.542 20.9902H16.183C17.86 20.9902 19.225 19.6262 19.225 17.9482V13.6592C19.225 11.9812 17.86 10.6172 16.183 10.6172ZM12.3623 13.943C12.7763 13.943 13.1123 14.279 13.1123 14.693V16.914C13.1123 17.328 12.7763 17.664 12.3623 17.664C11.9483 17.664 11.6123 17.328 11.6123 16.914V14.693C11.6123 14.279 11.9483 13.943 12.3623 13.943ZM12.3719 3.99041H12.3559C11.3429 3.99041 10.3939 4.38041 9.6769 5.09141C8.9549 5.80541 8.5559 6.75841 8.5519 7.77441L8.551 9.11665H16.172L16.1729 7.79141C16.1729 5.69541 14.4679 3.99041 12.3719 3.99041Z" fill="#8F95B2"/>
</svg>
