<svg width="28" height="28" viewBox="0 0 28 28" fill="none" xmlns="http://www.w3.org/2000/svg">
<g clip-path="url(#clip0_28_27)">
<path d="M2.4465 14C4.12767 18.76 8.66717 22.1667 14 22.1667C19.3317 22.1667 23.87 18.76 25.5523 14C23.8712 9.24 19.3317 5.83333 14 5.83333C8.66833 5.83333 4.12767 9.24 2.4465 14ZM0.103835 13.6453C1.98334 7.763 7.49117 3.5 14 3.5C20.51 3.5 26.019 7.763 27.895 13.6453L28.0093 14L27.8962 14.3547C26.0167 20.237 20.5077 24.5 14 24.5C7.49233 24.5 1.981 20.237 0.105002 14.3547L-0.010498 14L0.103835 13.6453ZM14 10.5C13.0717 10.5 12.1815 10.8687 11.5251 11.5251C10.8687 12.1815 10.5 13.0717 10.5 14C10.5 14.9283 10.8687 15.8185 11.5251 16.4749C12.1815 17.1313 13.0717 17.5 14 17.5C14.9283 17.5 15.8185 17.1313 16.4749 16.4749C17.1313 15.8185 17.5 14.9283 17.5 14C17.5 13.0717 17.1313 12.1815 16.4749 11.5251C15.8185 10.8687 14.9283 10.5 14 10.5ZM8.16667 14C8.16667 12.4529 8.78125 10.9692 9.87521 9.87521C10.9692 8.78125 12.4529 8.16667 14 8.16667C15.5471 8.16667 17.0308 8.78125 18.1248 9.87521C19.2188 10.9692 19.8333 12.4529 19.8333 14C19.8333 15.5471 19.2188 17.0308 18.1248 18.1248C17.0308 19.2188 15.5471 19.8333 14 19.8333C12.4529 19.8333 10.9692 19.2188 9.87521 18.1248C8.78125 17.0308 8.16667 15.5471 8.16667 14Z" fill="#EAB308"/>
</g>
<defs>
<clipPath id="clip0_28_27">
<rect width="28" height="28" fill="white"/>
</clipPath>
</defs>
</svg>
