<svg width="35" height="35" viewBox="0 0 35 35" fill="none" xmlns="http://www.w3.org/2000/svg">
<path d="M27.7084 30.625C26.7605 30.625 25.9098 30.3518 25.1563 29.8054C24.4028 29.259 23.8802 28.56 23.5886 27.7083H16.0417C14.4375 27.7083 13.0643 27.1372 11.9219 25.9948C10.7795 24.8524 10.2084 23.4792 10.2084 21.875C10.2084 20.2708 10.7795 18.8976 11.9219 17.7552C13.0643 16.6129 14.4375 16.0417 16.0417 16.0417H18.9584C19.7605 16.0417 20.4473 15.7563 21.019 15.1856C21.5907 14.6149 21.876 13.9281 21.875 13.125C21.8741 12.3219 21.5887 11.6356 21.019 11.0658C20.4493 10.4961 19.7624 10.2103 18.9584 10.2083H11.4115C11.0955 11.059 10.5666 11.7581 9.82482 12.3054C9.08302 12.8528 8.23864 13.126 7.2917 13.125C6.07642 13.125 5.04343 12.6997 4.19274 11.849C3.34204 10.9983 2.9167 9.96528 2.9167 8.75C2.9167 7.53472 3.34204 6.50174 4.19274 5.65104C5.04343 4.80035 6.07642 4.375 7.2917 4.375C8.23961 4.375 9.08448 4.64868 9.82628 5.19604C10.5681 5.7434 11.0965 6.44194 11.4115 7.29167H18.9584C20.5625 7.29167 21.9358 7.86285 23.0782 9.00521C24.2205 10.1476 24.7917 11.5208 24.7917 13.125C24.7917 14.7292 24.2205 16.1024 23.0782 17.2448C21.9358 18.3872 20.5625 18.9583 18.9584 18.9583H16.0417C15.2396 18.9583 14.5532 19.2442 13.9825 19.8158C13.4118 20.3875 13.126 21.0739 13.125 21.875C13.1241 22.6761 13.4099 23.363 13.9825 23.9356C14.5552 24.5083 15.2416 24.7936 16.0417 24.7917H23.5886C23.9045 23.941 24.4334 23.2424 25.1752 22.696C25.9171 22.1497 26.7614 21.876 27.7084 21.875C28.9236 21.875 29.9566 22.3004 30.8073 23.151C31.658 24.0017 32.0834 25.0347 32.0834 26.25C32.0834 27.4653 31.658 28.4983 30.8073 29.349C29.9566 30.1997 28.9236 30.625 27.7084 30.625ZM7.2917 10.2083C7.70489 10.2083 8.05149 10.0683 8.33149 9.78833C8.61149 9.50833 8.751 9.16222 8.75003 8.75C8.74906 8.33778 8.60906 7.99167 8.33003 7.71167C8.051 7.43167 7.70489 7.29167 7.2917 7.29167C6.8785 7.29167 6.53239 7.43167 6.25336 7.71167C5.97434 7.99167 5.83434 8.33778 5.83336 8.75C5.83239 9.16222 5.97239 9.50882 6.25336 9.78979C6.53434 10.0708 6.88045 10.2103 7.2917 10.2083Z" fill="#FFA2C0"/>
</svg>
