<svg width="16" height="16" viewBox="0 0 16 16" fill="none" xmlns="http://www.w3.org/2000/svg">
<g clip-path="url(#clip0_23_310)">
<path d="M8.00004 14.6667L9.66671 13.3333M8.00004 14.6667V8.66667V14.6667ZM8.00004 14.6667L6.33337 13.3333L8.00004 14.6667Z" stroke="#6C5DD3" stroke-width="2" stroke-linecap="round" stroke-linejoin="round"/>
<path d="M3.35606 6.078C2.72553 6.23666 2.17464 6.62011 1.80689 7.1563C1.43914 7.69248 1.27984 8.34451 1.35893 8.98986C1.43801 9.63522 1.75003 10.2295 2.23637 10.661C2.7227 11.0925 3.34988 11.3316 4.00006 11.3333H4.66672" stroke="#6C5DD3" stroke-width="2" stroke-linecap="round" stroke-linejoin="round"/>
<path d="M10.5534 4.75867C10.3255 3.85639 9.76312 3.0745 8.98015 2.57151C8.19718 2.06852 7.25225 1.88207 6.3369 2.04994C5.42156 2.21782 4.60429 2.72746 4.05077 3.47556C3.49726 4.22367 3.24891 5.15425 3.35607 6.07867C3.35607 6.07867 3.45807 6.66667 3.66673 7" stroke="#6C5DD3" stroke-width="2" stroke-linecap="round" stroke-linejoin="round"/>
<path d="M11.3334 11.3333C11.8041 11.333 12.2694 11.233 12.6987 11.0399C13.1279 10.8468 13.5114 10.565 13.8239 10.213C14.1364 9.86099 14.3708 9.44681 14.5117 8.99769C14.6526 8.54858 14.6967 8.07472 14.6413 7.6073C14.5858 7.13989 14.432 6.68952 14.1899 6.28583C13.9479 5.88215 13.6231 5.5343 13.2369 5.26519C12.8507 4.99609 12.4119 4.81182 11.9494 4.72451C11.4869 4.63721 11.0111 4.64885 10.5534 4.75867L9.66675 5" stroke="#6C5DD3" stroke-width="2" stroke-linecap="round" stroke-linejoin="round"/>
</g>
<defs>
<clipPath id="clip0_23_310">
<rect width="16" height="16" fill="white"/>
</clipPath>
</defs>
</svg>
