<svg width="28" height="28" viewBox="0 0 28 28" fill="none" xmlns="http://www.w3.org/2000/svg">
<path d="M23.6004 14.1777H13.8223V4.39962C13.8223 4.2793 13.7238 4.18087 13.6035 4.18087H12.8926C11.4578 4.1794 10.0369 4.46126 8.71128 5.01026C7.3857 5.55926 6.18156 6.36461 5.16797 7.38008C4.17001 8.37495 3.37505 9.5544 2.82734 10.8527C2.25859 12.2008 1.96875 13.6309 1.96875 15.1074C1.96875 16.584 2.25859 18.0113 2.82734 19.3594C3.37695 20.6582 4.16445 21.8285 5.16797 22.832C6.17148 23.8356 7.33906 24.6231 8.64063 25.1727C9.98632 25.7436 11.4335 26.0365 12.8953 26.034C14.3301 26.0355 15.751 25.7536 17.0766 25.2046C18.4022 24.6556 19.6063 23.8503 20.6199 22.8348C21.6234 21.8313 22.4109 20.6637 22.9605 19.3621C23.5315 18.0164 23.8244 16.5692 23.8219 15.1074V14.3965C23.8191 14.2762 23.7207 14.1777 23.6004 14.1777ZM26.0039 12.6602L25.9328 11.8891C25.7004 9.37344 24.5848 7.00001 22.7855 5.20899C20.988 3.41295 18.6193 2.30162 16.0891 2.06719L15.3152 1.9961C15.1867 1.98516 15.0773 2.0836 15.0773 2.21212V12.7039C15.0773 12.8242 15.1758 12.9227 15.2961 12.9227L25.7852 12.8953C25.9137 12.8926 26.0148 12.7859 26.0039 12.6602Z" fill="#FFA2C0"/>
</svg>
