<svg width="30" height="30" viewBox="0 0 30 30" fill="none" xmlns="http://www.w3.org/2000/svg">
<g clip-path="url(#clip0_23_238)">
<path d="M25.0962 27.9808C24.1587 27.9808 23.3174 27.7106 22.5722 27.1702C21.827 26.6298 21.3101 25.9385 21.0217 25.0962H13.5577C11.9712 25.0962 10.613 24.5312 9.48322 23.4014C8.35341 22.2716 7.7885 20.9135 7.7885 19.3269C7.7885 17.7404 8.35341 16.3822 9.48322 15.2524C10.613 14.1226 11.9712 13.5577 13.5577 13.5577H16.4424C17.2356 13.5577 17.9149 13.2755 18.4803 12.7111C19.0457 12.1466 19.3279 11.4673 19.327 10.6731C19.326 9.87884 19.0438 9.2 18.4803 8.63653C17.9169 8.07307 17.2375 7.79038 16.4424 7.78846H8.97841C8.66591 8.6298 8.14283 9.32115 7.40918 9.8625C6.67552 10.4038 5.84043 10.674 4.90389 10.6731C3.70197 10.6731 2.68033 10.2524 1.83898 9.41105C0.997638 8.56971 0.576965 7.54807 0.576965 6.34615C0.576965 5.14423 0.997638 4.12259 1.83898 3.28125C2.68033 2.4399 3.70197 2.01923 4.90389 2.01923C5.84139 2.01923 6.67697 2.2899 7.41062 2.83125C8.14427 3.37259 8.66687 4.06346 8.97841 4.90384H16.4424C18.0289 4.90384 19.3871 5.46875 20.5169 6.59855C21.6467 7.72836 22.2116 9.08653 22.2116 10.6731C22.2116 12.2596 21.6467 13.6178 20.5169 14.7476C19.3871 15.8774 18.0289 16.4423 16.4424 16.4423H13.5577C12.7645 16.4423 12.0856 16.725 11.5212 17.2904C10.9568 17.8558 10.6741 18.5346 10.6731 19.3269C10.6722 20.1192 10.9549 20.7986 11.5212 21.3649C12.0875 21.9312 12.7664 22.2135 13.5577 22.2115H21.0217C21.3342 21.3702 21.8573 20.6793 22.5909 20.1389C23.3246 19.5986 24.1597 19.3279 25.0962 19.3269C26.2981 19.3269 27.3198 19.7476 28.1611 20.5889C29.0024 21.4303 29.4231 22.4519 29.4231 23.6538C29.4231 24.8558 29.0024 25.8774 28.1611 26.7187C27.3198 27.5601 26.2981 27.9808 25.0962 27.9808ZM4.90389 7.78846C5.31254 7.78846 5.65533 7.65 5.93225 7.37307C6.20918 7.09615 6.34716 6.75384 6.3462 6.34615C6.34523 5.93846 6.20677 5.59615 5.93081 5.31923C5.65485 5.0423 5.31254 4.90384 4.90389 4.90384C4.49523 4.90384 4.15293 5.0423 3.87697 5.31923C3.601 5.59615 3.46254 5.93846 3.46158 6.34615C3.46062 6.75384 3.59908 7.09663 3.87697 7.37451C4.15485 7.6524 4.49716 7.79038 4.90389 7.78846Z" fill="#B769E4"/>
</g>
<defs>
<clipPath id="clip0_23_238">
<rect width="30" height="30" fill="white"/>
</clipPath>
</defs>
</svg>
