<svg width="26" height="26" viewBox="0 0 26 26" fill="none" xmlns="http://www.w3.org/2000/svg">
<path d="M23.1111 10.8334H22.3889V6.50003C22.3889 6.30848 22.3128 6.12478 22.1773 5.98934C22.0419 5.8539 21.8582 5.7778 21.6666 5.7778H4.33331C4.1623 5.78059 3.99584 5.7226 3.86359 5.61415C3.73133 5.5057 3.64185 5.35383 3.61109 5.18558V4.92558C3.64185 4.75734 3.73133 4.60547 3.86359 4.49702C3.99584 4.38856 4.1623 4.33057 4.33331 4.33336H21.3633C21.5549 4.33336 21.7386 4.25727 21.874 4.12183C22.0094 3.98638 22.0855 3.80268 22.0855 3.61114C22.0855 3.41959 22.0094 3.23589 21.874 3.10045C21.7386 2.96501 21.5549 2.88892 21.3633 2.88892H4.33331C3.75867 2.88892 3.20757 3.11719 2.80125 3.52352C2.39492 3.92985 2.16664 4.48095 2.16664 5.05558C2.16157 5.14218 2.16157 5.22899 2.16664 5.31558V20.1717C2.16948 20.5606 2.24888 20.9451 2.40032 21.3032C2.55175 21.6614 2.77225 21.9862 3.04923 22.2592C3.32621 22.5321 3.65424 22.7479 4.01459 22.894C4.37494 23.0402 4.76056 23.114 5.14942 23.1111H21.6666C21.8582 23.1111 22.0419 23.035 22.1773 22.8996C22.3128 22.7642 22.3889 22.5805 22.3889 22.3889V18.0556H23.1111C23.3026 18.0556 23.4863 17.9795 23.6218 17.844C23.7572 17.7086 23.8333 17.5249 23.8333 17.3334V11.5556C23.8333 11.364 23.7572 11.1803 23.6218 11.0449C23.4863 10.9095 23.3026 10.8334 23.1111 10.8334ZM20.9444 21.6667H5.14942C4.74772 21.6706 4.36074 21.5157 4.07265 21.2357C3.78457 20.9557 3.61869 20.5733 3.61109 20.1717V7.13558C3.84552 7.20352 4.08946 7.23279 4.33331 7.22225H20.9444V10.8334H15.8889C14.9311 10.8334 14.0126 11.2138 13.3354 11.891C12.6582 12.5682 12.2778 13.4867 12.2778 14.4445C12.2778 15.4022 12.6582 16.3207 13.3354 16.9979C14.0126 17.6751 14.9311 18.0556 15.8889 18.0556H20.9444V21.6667ZM22.3889 16.6111H15.8889C15.3142 16.6111 14.7631 16.3829 14.3568 15.9765C13.9505 15.5702 13.7222 15.0191 13.7222 14.4445C13.7222 13.8698 13.9505 13.3187 14.3568 12.9124C14.7631 12.5061 15.3142 12.2778 15.8889 12.2778H22.3889V16.6111Z" fill="#FF9A7B"/>
<path d="M16.6183 15.5278C17.2166 15.5278 17.7016 15.0427 17.7016 14.4444C17.7016 13.8461 17.2166 13.3611 16.6183 13.3611C16.02 13.3611 15.535 13.8461 15.535 14.4444C15.535 15.0427 16.02 15.5278 16.6183 15.5278Z" fill="#FF9A7B"/>
</svg>
