<svg width="26" height="26" viewBox="0 0 26 26" fill="none" xmlns="http://www.w3.org/2000/svg">
<path d="M15.9792 16.25C17.0257 16.25 17.875 17.0993 17.875 18.1458L17.8739 19.188C18.0007 21.5605 16.237 22.7597 13.0726 22.7597C9.92007 22.7597 8.12499 21.5789 8.12499 19.2292V18.1458C8.12499 17.0993 8.97432 16.25 10.0208 16.25H15.9792ZM4.06249 10.8333H8.80316C8.61413 11.5689 8.6214 12.3412 8.82424 13.0731C9.02708 13.805 9.41838 14.4708 9.95907 15.0042L10.1346 15.1677L10.0208 15.1667C9.37064 15.1664 8.73823 15.3789 8.22008 15.7717C7.70193 16.1644 7.3265 16.7159 7.15107 17.342L7.11424 17.3431C3.96174 17.3431 2.16666 16.1622 2.16666 13.8125V12.7292C2.16666 11.6827 3.01599 10.8333 4.06249 10.8333ZM21.9375 10.8333C22.984 10.8333 23.8333 11.6827 23.8333 12.7292L23.8322 13.7713C23.959 16.1438 22.1953 17.3431 19.0309 17.3431L18.8478 17.3409C18.6813 16.7508 18.3371 16.2263 17.862 15.8387C17.387 15.451 16.8041 15.219 16.1926 15.1742L15.9792 15.1667L15.8654 15.1677C16.4668 14.6395 16.9097 13.9547 17.1448 13.1896C17.3798 12.4245 17.3979 11.6092 17.1968 10.8344L21.9375 10.8333ZM13 8.66667C13.4268 8.66667 13.8494 8.75073 14.2437 8.91406C14.638 9.07739 14.9963 9.31678 15.2981 9.61857C15.5999 9.92036 15.8393 10.2786 16.0026 10.6729C16.1659 11.0673 16.25 11.4899 16.25 11.9167C16.25 12.3435 16.1659 12.7661 16.0026 13.1604C15.8393 13.5547 15.5999 13.913 15.2981 14.2148C14.9963 14.5166 14.638 14.7559 14.2437 14.9193C13.8494 15.0826 13.4268 15.1667 13 15.1667C12.138 15.1667 11.3114 14.8243 10.7019 14.2148C10.0924 13.6053 9.74999 12.7786 9.74999 11.9167C9.74999 11.0547 10.0924 10.2281 10.7019 9.61857C11.3114 9.00908 12.138 8.66667 13 8.66667ZM7.04166 3.25C7.90361 3.25 8.73026 3.59241 9.33975 4.2019C9.94925 4.8114 10.2917 5.63805 10.2917 6.5C10.2917 7.36195 9.94925 8.1886 9.33975 8.7981C8.73026 9.40759 7.90361 9.75 7.04166 9.75C6.1797 9.75 5.35305 9.40759 4.74356 8.7981C4.13407 8.1886 3.79166 7.36195 3.79166 6.5C3.79166 5.63805 4.13407 4.8114 4.74356 4.2019C5.35305 3.59241 6.1797 3.25 7.04166 3.25ZM18.9583 3.25C19.8203 3.25 20.6469 3.59241 21.2564 4.2019C21.8659 4.8114 22.2083 5.63805 22.2083 6.5C22.2083 7.36195 21.8659 8.1886 21.2564 8.7981C20.6469 9.40759 19.8203 9.75 18.9583 9.75C18.0964 9.75 17.2697 9.40759 16.6602 8.7981C16.0507 8.1886 15.7083 7.36195 15.7083 6.5C15.7083 5.63805 16.0507 4.8114 16.6602 4.2019C17.2697 3.59241 18.0964 3.25 18.9583 3.25Z" fill="#6C5DD3"/>
</svg>
