<svg width="24" height="25" viewBox="0 0 24 25" fill="none" xmlns="http://www.w3.org/2000/svg">
<path fill-rule="evenodd" clip-rule="evenodd" d="M13.9755 2.48871C14.0184 2.48871 14.0606 2.49232 14.1015 2.49927L14.2384 2.50011C14.4424 2.50011 14.6374 2.58311 14.7794 2.73011L19.8444 8.00711C19.9784 8.14611 20.0535 8.33311 20.0535 8.52611V17.6921C20.0714 20.2011 18.1174 22.2511 15.6044 22.3531L7.5854 22.3541H7.4764C5.02645 22.2987 3.06156 20.3173 3.0017 17.8913L3.0014 6.97911C3.0594 4.49811 5.1084 2.50011 7.5714 2.50011L13.8495 2.49927C13.8904 2.49232 13.9325 2.48871 13.9755 2.48871ZM13.2254 3.99971L7.5734 4.00011C5.9164 4.00011 4.5404 5.34211 4.5014 6.99711V17.6921C4.4644 19.4051 5.8144 20.8161 7.5104 20.8541H15.5744C17.2434 20.7851 18.5654 19.3981 18.5535 17.6981L18.5534 9.47171L16.5435 9.47271C14.7135 9.46771 13.2255 7.97571 13.2255 6.14771L13.2254 3.99971ZM13.7887 15.0968C14.2027 15.0968 14.5387 15.4328 14.5387 15.8468C14.5387 16.2608 14.2027 16.5968 13.7887 16.5968H8.3887C7.9747 16.5968 7.6387 16.2608 7.6387 15.8468C7.6387 15.4328 7.9747 15.0968 8.3887 15.0968H13.7887ZM11.7438 11.3448C12.1578 11.3448 12.4938 11.6808 12.4938 12.0948C12.4938 12.5088 12.1578 12.8448 11.7438 12.8448H8.3878C7.9738 12.8448 7.6378 12.5088 7.6378 12.0948C7.6378 11.6808 7.9738 11.3448 8.3878 11.3448H11.7438ZM14.7254 4.84071L14.7255 6.14771C14.7255 7.15171 15.5425 7.96971 16.5455 7.97271L17.7314 7.97171L14.7254 4.84071Z" fill="#8F95B2"/>
</svg>
