<svg width="532" height="278" viewBox="0 0 532 278" fill="none" xmlns="http://www.w3.org/2000/svg">
<g clip-path="url(#clip0_73_922)">
<path fill-rule="evenodd" clip-rule="evenodd" d="M0 16C0 7.16344 7.16344 0 16 0H516C524.837 0 532 7.16344 532 16V262C532 270.837 524.837 278 516 278H16C7.16345 278 0 270.837 0 262V16Z" fill="white"/>
<g clip-path="url(#clip1_73_922)">
<path fill-rule="evenodd" clip-rule="evenodd" d="M24 80C24 75.5817 27.5817 72 32 72H166C170.418 72 174 75.5817 174 80V151C174 155.418 170.418 159 166 159H32C27.5817 159 24 155.418 24 151V80Z" fill="#FAFAFA"/>
<path d="M40.58 87.51H41.35V94.78H40.58V87.51ZM36.51 87.07H45.51V87.8H36.51V87.07ZM37.48 89.16H44.05V89.89H38.23V93.64H37.48V89.16ZM43.85 89.16H44.62V92.69C44.62 92.9033 44.59 93.0733 44.53 93.2C44.47 93.32 44.3567 93.41 44.19 93.47C44.0167 93.53 43.7867 93.5667 43.5 93.58C43.2133 93.5933 42.8533 93.6 42.42 93.6C42.4067 93.4867 42.3733 93.3633 42.32 93.23C42.2667 93.09 42.2133 92.9667 42.16 92.86C42.3867 92.8667 42.6 92.8733 42.8 92.88C43 92.8867 43.17 92.89 43.31 92.89C43.4567 92.8833 43.56 92.88 43.62 92.88C43.7067 92.8733 43.7667 92.8567 43.8 92.83C43.8333 92.8033 43.85 92.7533 43.85 92.68V89.16ZM40.13 85.75L40.86 85.52C41.0067 85.7533 41.1567 86.0133 41.31 86.3C41.4633 86.58 41.5767 86.82 41.65 87.02L40.88 87.28C40.8333 87.1467 40.77 86.9933 40.69 86.82C40.61 86.64 40.52 86.4567 40.42 86.27C40.32 86.0833 40.2233 85.91 40.13 85.75ZM46.5 88.04H49.54V88.75H46.5V88.04ZM47.73 85.72H48.44V92.42H47.73V85.72ZM46.36 92.71C46.6267 92.6233 46.93 92.52 47.27 92.4C47.61 92.2733 47.9733 92.14 48.36 92C48.7467 91.8533 49.13 91.71 49.51 91.57L49.65 92.26C49.1233 92.4733 48.5933 92.6867 48.06 92.9C47.5267 93.1067 47.0433 93.2967 46.61 93.47L46.36 92.71ZM49.75 86.07H53.94V86.78H49.75V86.07ZM54.65 88.83H55.4C55.4 88.83 55.3967 88.8533 55.39 88.9C55.39 88.9467 55.39 89 55.39 89.06C55.39 89.1133 55.3867 89.16 55.38 89.2C55.3267 90.0733 55.2733 90.8167 55.22 91.43C55.1667 92.0433 55.11 92.55 55.05 92.95C54.99 93.3433 54.9233 93.65 54.85 93.87C54.7833 94.09 54.7033 94.2533 54.61 94.36C54.5167 94.48 54.4167 94.5633 54.31 94.61C54.2033 94.6633 54.0767 94.6967 53.93 94.71C53.81 94.7233 53.6533 94.73 53.46 94.73C53.2733 94.73 53.0733 94.7233 52.86 94.71C52.8533 94.6033 52.83 94.48 52.79 94.34C52.7567 94.2067 52.71 94.0933 52.65 94C52.8567 94.02 53.0467 94.03 53.22 94.03C53.4 94.0367 53.5333 94.04 53.62 94.04C53.7 94.0467 53.7633 94.04 53.81 94.02C53.8633 94 53.9167 93.96 53.97 93.9C54.0633 93.8 54.15 93.58 54.23 93.24C54.31 92.8933 54.3833 92.3767 54.45 91.69C54.5233 91.0033 54.59 90.1 54.65 88.98V88.83ZM50.11 89.66C50.09 89.6 50.06 89.5267 50.02 89.44C49.9867 89.3533 49.95 89.2667 49.91 89.18C49.87 89.0867 49.83 89.01 49.79 88.95C49.9167 88.93 50.0667 88.8767 50.24 88.79C50.42 88.6967 50.6067 88.5867 50.8 88.46C50.9 88.3933 51.0533 88.29 51.26 88.15C51.4733 88.0033 51.71 87.83 51.97 87.63C52.2367 87.4233 52.5067 87.2 52.78 86.96C53.06 86.7133 53.32 86.4633 53.56 86.21V86.15L53.93 86.01L54.49 86.43C53.8167 87.03 53.1533 87.5733 52.5 88.06C51.8533 88.54 51.23 88.9467 50.63 89.28V89.3C50.63 89.3 50.6033 89.3133 50.55 89.34C50.4967 89.36 50.4367 89.39 50.37 89.43C50.3033 89.4633 50.2433 89.5 50.19 89.54C50.1367 89.58 50.11 89.62 50.11 89.66ZM50.11 89.66V89.03L50.53 88.83H54.92L54.91 89.54H50.98C50.7467 89.54 50.5533 89.55 50.4 89.57C50.2533 89.59 50.1567 89.62 50.11 89.66ZM53.33 89.23L53.99 89.36C53.65 90.58 53.1767 91.6467 52.57 92.56C51.97 93.4667 51.2367 94.21 50.37 94.79C50.33 94.7433 50.2733 94.6933 50.2 94.64C50.1333 94.5867 50.0633 94.5333 49.99 94.48C49.9167 94.4333 49.85 94.3933 49.79 94.36C50.6767 93.8267 51.41 93.1233 51.99 92.25C52.5767 91.3767 53.0233 90.37 53.33 89.23ZM51.79 89.24L52.46 89.37C52.24 90.0567 51.9267 90.6733 51.52 91.22C51.12 91.7667 50.67 92.2233 50.17 92.59C50.1367 92.55 50.0833 92.5033 50.01 92.45C49.9433 92.39 49.8733 92.3333 49.8 92.28C49.7267 92.2267 49.6633 92.1867 49.61 92.16C50.1167 91.8333 50.5567 91.42 50.93 90.92C51.31 90.42 51.5967 89.86 51.79 89.24ZM58.59 85.64L59.31 85.85C59.11 86.41 58.8767 86.9667 58.61 87.52C58.3433 88.0667 58.0533 88.5833 57.74 89.07C57.4333 89.5567 57.11 89.99 56.77 90.37C56.7433 90.31 56.7033 90.2333 56.65 90.14C56.6033 90.0467 56.55 89.9533 56.49 89.86C56.43 89.76 56.3767 89.6833 56.33 89.63C56.6367 89.3033 56.93 88.9267 57.21 88.5C57.49 88.0733 57.7467 87.6167 57.98 87.13C58.22 86.6367 58.4233 86.14 58.59 85.64ZM57.61 88.26L58.35 87.52L58.36 87.53V94.8H57.61V88.26ZM61.03 85.86L61.77 86.02C61.5233 86.8933 61.1933 87.6933 60.78 88.42C60.3667 89.14 59.8733 89.7433 59.3 90.23C59.2733 90.17 59.23 90.1 59.17 90.02C59.1167 89.94 59.0567 89.8567 58.99 89.77C58.93 89.6833 58.8733 89.6167 58.82 89.57C59.3467 89.1567 59.7967 88.63 60.17 87.99C60.5433 87.3433 60.83 86.6333 61.03 85.86ZM59.95 89.52H64.04V90.22H59.95V89.52ZM63.79 89.52H64.52C64.52 89.52 64.52 89.54 64.52 89.58C64.52 89.62 64.52 89.67 64.52 89.73C64.52 89.7833 64.5167 89.8267 64.51 89.86C64.4767 90.6267 64.44 91.28 64.4 91.82C64.3667 92.3533 64.3267 92.7933 64.28 93.14C64.2333 93.4867 64.18 93.76 64.12 93.96C64.06 94.16 63.9933 94.3033 63.92 94.39C63.8267 94.5033 63.7267 94.5833 63.62 94.63C63.52 94.6767 63.4 94.7067 63.26 94.72C63.1333 94.7333 62.9633 94.74 62.75 94.74C62.5367 94.74 62.3167 94.7333 62.09 94.72C62.0833 94.6133 62.06 94.4933 62.02 94.36C61.9867 94.2267 61.94 94.1133 61.88 94.02C62.1067 94.04 62.3167 94.0533 62.51 94.06C62.7033 94.0667 62.8433 94.07 62.93 94.07C63.01 94.07 63.0767 94.06 63.13 94.04C63.1833 94.0267 63.2333 93.99 63.28 93.93C63.3533 93.8433 63.42 93.6533 63.48 93.36C63.54 93.06 63.5967 92.6133 63.65 92.02C63.7033 91.42 63.75 90.6333 63.79 89.66V89.52ZM61.25 89.99L61.99 90.03C61.8767 91.1967 61.63 92.1667 61.25 92.94C60.8767 93.7133 60.3067 94.3367 59.54 94.81C59.5067 94.7633 59.46 94.7033 59.4 94.63C59.34 94.5633 59.2733 94.4933 59.2 94.42C59.1333 94.3533 59.0733 94.3 59.02 94.26C59.7467 93.86 60.2767 93.3067 60.61 92.6C60.95 91.8933 61.1633 91.0233 61.25 89.99ZM63.54 85.8C63.6867 86.3867 63.8567 86.9033 64.05 87.35C64.2433 87.79 64.4767 88.1867 64.75 88.54C65.0233 88.8867 65.3467 89.21 65.72 89.51C65.62 89.5833 65.5233 89.68 65.43 89.8C65.3367 89.9133 65.26 90.0267 65.2 90.14C64.7933 89.7867 64.44 89.41 64.14 89.01C63.8467 88.61 63.5967 88.16 63.39 87.66C63.19 87.1533 63.0133 86.5767 62.86 85.93L63.54 85.8ZM71.15 86.2H75.53V86.86H71.15V86.2ZM73.07 86.58L73.72 86.74C73.6267 87 73.53 87.2633 73.43 87.53C73.33 87.7967 73.2333 88.0267 73.14 88.22L72.56 88.06C72.62 87.9267 72.68 87.7733 72.74 87.6C72.8067 87.42 72.87 87.24 72.93 87.06C72.99 86.88 73.0367 86.72 73.07 86.58ZM71.31 87.9H75.16V92.6H74.5V88.51H71.95V92.62H71.31V87.9ZM72.93 89.07H73.59C73.5767 89.8967 73.54 90.6233 73.48 91.25C73.4267 91.8767 73.3133 92.42 73.14 92.88C72.9667 93.3333 72.7067 93.72 72.36 94.04C72.02 94.36 71.5533 94.6267 70.96 94.84C70.9267 94.76 70.87 94.6667 70.79 94.56C70.7167 94.4533 70.6467 94.37 70.58 94.31C71.12 94.1167 71.5467 93.88 71.86 93.6C72.1733 93.32 72.4033 92.9767 72.55 92.57C72.7033 92.1567 72.8033 91.6633 72.85 91.09C72.8967 90.5167 72.9233 89.8433 72.93 89.07ZM73.38 93.16L73.78 92.7C74 92.8533 74.2333 93.0233 74.48 93.21C74.7267 93.3967 74.96 93.58 75.18 93.76C75.4 93.94 75.58 94.1 75.72 94.24L75.3 94.77C75.16 94.6233 74.98 94.4533 74.76 94.26C74.5467 94.0733 74.3167 93.8833 74.07 93.69C73.83 93.4967 73.6 93.32 73.38 93.16ZM66.61 86.56H70.97V88.07H70.29V87.18H67.27V88.07H66.61V86.56ZM67.26 91.67H70.39V94.71H69.69V92.28H67.94V94.73H67.26V91.67ZM67.52 93.79H70V94.4H67.52V93.79ZM68.13 87.51L68.81 87.63C68.61 88.05 68.3533 88.47 68.04 88.89C67.7267 89.31 67.3267 89.69 66.84 90.03C66.8133 89.9833 66.7733 89.93 66.72 89.87C66.6667 89.8033 66.6133 89.7433 66.56 89.69C66.5067 89.63 66.4533 89.5867 66.4 89.56C66.8333 89.2733 67.1933 88.9433 67.48 88.57C67.7733 88.1967 67.99 87.8433 68.13 87.51ZM68.22 88.21H70.03V88.8H67.93L68.22 88.21ZM69.89 88.21H70.04L70.18 88.18L70.59 88.45C70.3433 88.9967 70.0133 89.4867 69.6 89.92C69.1933 90.3533 68.74 90.73 68.24 91.05C67.74 91.37 67.2267 91.63 66.7 91.83C66.68 91.7633 66.65 91.6867 66.61 91.6C66.5767 91.5133 66.54 91.43 66.5 91.35C66.4667 91.27 66.43 91.2067 66.39 91.16C66.8833 90.9933 67.36 90.7767 67.82 90.51C68.28 90.2367 68.69 89.9167 69.05 89.55C69.4167 89.1833 69.6967 88.78 69.89 88.34V88.21ZM68.14 85.79L68.82 85.63C68.9267 85.81 69.0367 86.0067 69.15 86.22C69.27 86.4333 69.3633 86.6167 69.43 86.77L68.71 86.97C68.6567 86.8167 68.5733 86.63 68.46 86.41C68.3533 86.1833 68.2467 85.9767 68.14 85.79ZM67.49 89.84L67.97 89.39C68.2167 89.51 68.48 89.6433 68.76 89.79C69.04 89.9367 69.3167 90.0867 69.59 90.24C69.87 90.3867 70.1333 90.5333 70.38 90.68C70.6267 90.82 70.8367 90.95 71.01 91.07L70.5 91.59C70.3333 91.4767 70.13 91.3467 69.89 91.2C69.6567 91.0467 69.4 90.8933 69.12 90.74C68.8467 90.58 68.5667 90.4233 68.28 90.27C68 90.11 67.7367 89.9667 67.49 89.84ZM78.39 95.96C77.93 95.2133 77.57 94.43 77.31 93.61C77.05 92.7833 76.92 91.8767 76.92 90.89C76.92 89.91 77.05 89.0067 77.31 88.18C77.57 87.3533 77.93 86.5667 78.39 85.82L78.95 86.08C78.5233 86.7933 78.2033 87.5633 77.99 88.39C77.7833 89.21 77.68 90.0433 77.68 90.89C77.68 91.7433 77.7833 92.5833 77.99 93.41C78.2033 94.23 78.5233 94.9967 78.95 95.71L78.39 95.96ZM85.2089 89.63H85.9689V93.49C85.9689 93.67 85.9989 93.7867 86.0589 93.84C86.1189 93.8867 86.2456 93.91 86.4389 93.91C86.4856 93.91 86.5656 93.91 86.6789 93.91C86.7989 93.91 86.9289 93.91 87.0689 93.91C87.2089 93.91 87.3389 93.91 87.4589 93.91C87.5856 93.91 87.6789 93.91 87.7389 93.91C87.8789 93.91 87.9822 93.8667 88.0489 93.78C88.1156 93.6867 88.1622 93.5133 88.1889 93.26C88.2222 93 88.2422 92.6133 88.2489 92.1C88.3156 92.1467 88.3889 92.1933 88.4689 92.24C88.5489 92.28 88.6322 92.3167 88.7189 92.35C88.8122 92.3833 88.8922 92.41 88.9589 92.43C88.9322 93.0033 88.8822 93.45 88.8089 93.77C88.7422 94.0833 88.6289 94.3033 88.4689 94.43C88.3156 94.5567 88.0922 94.62 87.7989 94.62C87.7522 94.62 87.6589 94.62 87.5189 94.62C87.3789 94.62 87.2289 94.62 87.0689 94.62C86.9089 94.62 86.7589 94.62 86.6189 94.62C86.4856 94.62 86.3956 94.62 86.3489 94.62C86.0556 94.62 85.8222 94.5867 85.6489 94.52C85.4822 94.4533 85.3656 94.3367 85.2989 94.17C85.2389 94.01 85.2089 93.7867 85.2089 93.5V89.63ZM79.9689 89.18H88.7989V89.92H79.9689V89.18ZM80.8489 86.38H87.9489V87.1H80.8489V86.38ZM82.5289 89.75H83.3289C83.2822 90.31 83.2122 90.84 83.1189 91.34C83.0256 91.84 82.8722 92.3067 82.6589 92.74C82.4522 93.1667 82.1589 93.5533 81.7789 93.9C81.4056 94.2467 80.9222 94.5367 80.3289 94.77C80.2889 94.6833 80.2222 94.58 80.1289 94.46C80.0356 94.3467 79.9456 94.2567 79.8589 94.19C80.4056 93.9833 80.8456 93.7267 81.1789 93.42C81.5189 93.1133 81.7789 92.77 81.9589 92.39C82.1456 92.0033 82.2789 91.59 82.3589 91.15C82.4389 90.7033 82.4956 90.2367 82.5289 89.75ZM90.3689 95.96L89.7989 95.71C90.2322 94.9967 90.5556 94.23 90.7689 93.41C90.9822 92.5833 91.0889 91.7433 91.0889 90.89C91.0889 90.0433 90.9822 89.21 90.7689 88.39C90.5556 87.5633 90.2322 86.7933 89.7989 86.08L90.3689 85.82C90.8356 86.5667 91.1956 87.3533 91.4489 88.18C91.7089 89.0067 91.8389 89.91 91.8389 90.89C91.8389 91.8767 91.7089 92.7833 91.4489 93.61C91.1956 94.43 90.8356 95.2133 90.3689 95.96Z" fill="#718096"/>
<mask id="mask0_73_922" style="mask-type:luminance" maskUnits="userSpaceOnUse" x="148" y="84" width="14" height="14">
<path fill-rule="evenodd" clip-rule="evenodd" d="M148 84H162V98H148V84Z" fill="white"/>
</mask>
<g mask="url(#mask0_73_922)">
<path fill-rule="evenodd" clip-rule="evenodd" d="M155 85.75C152.101 85.75 149.75 88.1008 149.75 91C149.75 93.8992 152.101 96.25 155 96.25C157.899 96.25 160.25 93.8992 160.25 91C160.25 88.1008 157.899 85.75 155 85.75Z" stroke="#A0AEC0" stroke-linejoin="round"/>
<path d="M155 88.6666V91" stroke="#A0AEC0" stroke-linecap="round" stroke-linejoin="round"/>
<path fill-rule="evenodd" clip-rule="evenodd" d="M155 93.3334H155.006H155Z" fill="#A0AEC0"/>
<path d="M155 93.3334H155.006" stroke="#A0AEC0" stroke-width="1.5" stroke-linecap="round" stroke-linejoin="round"/>
</g>
<path d="M40.104 112.494V114.294C40.416 114.294 40.74 114.306 41.076 114.33C41.424 114.342 41.742 114.408 42.03 114.528C42.318 114.636 42.552 114.816 42.732 115.068C42.924 115.32 43.02 115.686 43.02 116.166C43.02 116.778 42.822 117.264 42.426 117.624C42.03 117.972 41.544 118.146 40.968 118.146C40.596 118.146 40.272 118.08 39.996 117.948C39.732 117.816 39.51 117.642 39.33 117.426C39.15 117.198 39.012 116.934 38.916 116.634C38.82 116.322 38.766 115.998 38.754 115.662H36.324C36.312 116.394 36.414 117.042 36.63 117.606C36.858 118.17 37.176 118.65 37.584 119.046C37.992 119.43 38.484 119.724 39.06 119.928C39.648 120.132 40.296 120.234 41.004 120.234C41.616 120.234 42.204 120.144 42.768 119.964C43.332 119.784 43.83 119.52 44.262 119.172C44.694 118.824 45.036 118.392 45.288 117.876C45.552 117.36 45.684 116.772 45.684 116.112C45.684 115.392 45.486 114.774 45.09 114.258C44.694 113.742 44.148 113.406 43.452 113.25V113.214C44.04 113.046 44.478 112.728 44.766 112.26C45.066 111.792 45.216 111.252 45.216 110.64C45.216 110.076 45.09 109.578 44.838 109.146C44.586 108.714 44.256 108.348 43.848 108.048C43.452 107.748 43.002 107.526 42.498 107.382C41.994 107.226 41.49 107.148 40.986 107.148C40.338 107.148 39.75 107.256 39.222 107.472C38.694 107.676 38.238 107.97 37.854 108.354C37.482 108.738 37.188 109.2 36.972 109.74C36.768 110.268 36.654 110.856 36.63 111.504H39.06C39.048 110.856 39.204 110.322 39.528 109.902C39.864 109.47 40.356 109.254 41.004 109.254C41.472 109.254 41.886 109.398 42.246 109.686C42.606 109.974 42.786 110.388 42.786 110.928C42.786 111.288 42.696 111.576 42.516 111.792C42.348 112.008 42.126 112.176 41.85 112.296C41.586 112.404 41.298 112.47 40.986 112.494C40.674 112.518 40.38 112.518 40.104 112.494ZM49.098 110.82C49.098 110.532 49.146 110.28 49.242 110.064C49.35 109.848 49.494 109.668 49.674 109.524C49.854 109.38 50.058 109.272 50.286 109.2C50.526 109.116 50.772 109.074 51.024 109.074C51.42 109.074 51.738 109.134 51.978 109.254C52.23 109.374 52.422 109.524 52.554 109.704C52.698 109.884 52.794 110.076 52.842 110.28C52.89 110.472 52.914 110.652 52.914 110.82C52.914 111.36 52.734 111.774 52.374 112.062C52.014 112.338 51.564 112.476 51.024 112.476C50.508 112.476 50.058 112.338 49.674 112.062C49.29 111.774 49.098 111.36 49.098 110.82ZM46.776 110.586C46.776 111.21 46.932 111.756 47.244 112.224C47.556 112.692 48.018 113.01 48.63 113.178V113.214C47.874 113.394 47.286 113.754 46.866 114.294C46.458 114.834 46.254 115.506 46.254 116.31C46.254 116.994 46.386 117.582 46.65 118.074C46.926 118.566 47.286 118.974 47.73 119.298C48.186 119.622 48.696 119.856 49.26 120C49.836 120.156 50.43 120.234 51.042 120.234C51.63 120.234 52.206 120.156 52.77 120C53.334 119.832 53.838 119.586 54.282 119.262C54.726 118.938 55.08 118.53 55.344 118.038C55.62 117.546 55.758 116.964 55.758 116.292C55.758 115.5 55.554 114.834 55.146 114.294C54.738 113.742 54.156 113.382 53.4 113.214V113.178C54.012 112.974 54.468 112.638 54.768 112.17C55.08 111.702 55.236 111.156 55.236 110.532C55.236 110.22 55.164 109.872 55.02 109.488C54.876 109.092 54.636 108.726 54.3 108.39C53.976 108.042 53.544 107.748 53.004 107.508C52.464 107.268 51.804 107.148 51.024 107.148C50.508 107.148 49.998 107.22 49.494 107.364C48.99 107.508 48.534 107.724 48.126 108.012C47.73 108.3 47.406 108.66 47.154 109.092C46.902 109.524 46.776 110.022 46.776 110.586ZM48.81 116.184C48.81 115.536 49.026 115.044 49.458 114.708C49.89 114.36 50.418 114.186 51.042 114.186C51.342 114.186 51.618 114.234 51.87 114.33C52.134 114.426 52.362 114.564 52.554 114.744C52.758 114.924 52.914 115.14 53.022 115.392C53.142 115.632 53.202 115.902 53.202 116.202C53.202 116.514 53.148 116.802 53.04 117.066C52.932 117.33 52.776 117.558 52.572 117.75C52.38 117.93 52.152 118.074 51.888 118.182C51.636 118.278 51.354 118.326 51.042 118.326C50.742 118.326 50.454 118.278 50.178 118.182C49.902 118.074 49.662 117.93 49.458 117.75C49.266 117.558 49.11 117.33 48.99 117.066C48.87 116.802 48.81 116.508 48.81 116.184ZM57.1019 117.228V120H58.3979C58.4099 120.192 58.3859 120.378 58.3259 120.558C58.2659 120.75 58.1759 120.918 58.0559 121.062C57.9359 121.218 57.7919 121.35 57.6239 121.458C57.4679 121.566 57.2999 121.638 57.1199 121.674V122.97C57.5039 122.91 57.8639 122.796 58.1999 122.628C58.5479 122.472 58.8479 122.268 59.0999 122.016C59.3519 121.764 59.5499 121.464 59.6939 121.116C59.8499 120.78 59.9279 120.408 59.9279 120V117.228H57.1019ZM66.6297 110.604V114.978H63.3177L66.5757 110.604H66.6297ZM66.6297 117.084V120H69.0597V117.084H70.7337V114.978H69.0597V107.4H66.7737L61.3017 114.744V117.084H66.6297ZM80.0156 109.506V107.4H72.9776L71.7356 114.366H74.0396C74.2916 114.018 74.5616 113.766 74.8496 113.61C75.1376 113.442 75.5096 113.358 75.9656 113.358C76.3136 113.358 76.6196 113.418 76.8836 113.538C77.1476 113.658 77.3756 113.826 77.5676 114.042C77.7596 114.258 77.9036 114.51 77.9996 114.798C78.0956 115.086 78.1436 115.392 78.1436 115.716C78.1436 116.028 78.0896 116.334 77.9816 116.634C77.8856 116.922 77.7416 117.18 77.5496 117.408C77.3696 117.624 77.1416 117.804 76.8656 117.948C76.6016 118.08 76.3016 118.146 75.9656 118.146C75.3896 118.146 74.9156 117.978 74.5436 117.642C74.1716 117.294 73.9556 116.832 73.8956 116.256H71.3396C71.3516 116.916 71.4836 117.498 71.7356 118.002C71.9996 118.494 72.3476 118.908 72.7796 119.244C73.2116 119.58 73.7036 119.832 74.2556 120C74.8196 120.156 75.4076 120.234 76.0196 120.234C76.6556 120.246 77.2556 120.144 77.8196 119.928C78.3836 119.7 78.8756 119.382 79.2956 118.974C79.7276 118.566 80.0696 118.086 80.3216 117.534C80.5736 116.97 80.6996 116.364 80.6996 115.716C80.6996 115.128 80.6096 114.576 80.4296 114.06C80.2616 113.532 80.0096 113.076 79.6736 112.692C79.3496 112.308 78.9476 112.002 78.4676 111.774C77.9876 111.546 77.4356 111.432 76.8116 111.432C76.3076 111.432 75.8576 111.51 75.4616 111.666C75.0656 111.81 74.6936 112.056 74.3456 112.404L74.3096 112.368L74.8136 109.506H80.0156ZM86.1656 113.466C86.4896 113.466 86.7716 113.538 87.0116 113.682C87.2636 113.814 87.4676 113.994 87.6236 114.222C87.7796 114.438 87.8936 114.69 87.9656 114.978C88.0496 115.254 88.0916 115.542 88.0916 115.842C88.0916 116.13 88.0496 116.412 87.9656 116.688C87.8816 116.964 87.7556 117.21 87.5876 117.426C87.4196 117.642 87.2156 117.816 86.9756 117.948C86.7476 118.08 86.4776 118.146 86.1656 118.146C85.8416 118.146 85.5536 118.08 85.3016 117.948C85.0496 117.816 84.8336 117.642 84.6536 117.426C84.4856 117.198 84.3536 116.946 84.2576 116.67C84.1736 116.382 84.1316 116.094 84.1316 115.806C84.1316 115.494 84.1736 115.2 84.2576 114.924C84.3416 114.636 84.4676 114.384 84.6356 114.168C84.8036 113.952 85.0136 113.784 85.2656 113.664C85.5296 113.532 85.8296 113.466 86.1656 113.466ZM88.0016 110.64H90.4316C90.3596 110.076 90.2096 109.578 89.9816 109.146C89.7536 108.714 89.4596 108.354 89.0996 108.066C88.7396 107.766 88.3256 107.538 87.8576 107.382C87.3896 107.226 86.8856 107.148 86.3456 107.148C85.4456 107.148 84.6836 107.346 84.0596 107.742C83.4356 108.138 82.9256 108.654 82.5296 109.29C82.1336 109.914 81.8456 110.616 81.6656 111.396C81.4856 112.176 81.3956 112.956 81.3956 113.736C81.3956 114.54 81.4676 115.332 81.6116 116.112C81.7556 116.88 82.0136 117.57 82.3856 118.182C82.7576 118.794 83.2556 119.292 83.8796 119.676C84.5036 120.048 85.2896 120.234 86.2376 120.234C86.8976 120.234 87.4976 120.12 88.0376 119.892C88.5776 119.652 89.0396 119.328 89.4236 118.92C89.8196 118.5 90.1196 118.014 90.3236 117.462C90.5396 116.898 90.6476 116.292 90.6476 115.644C90.6476 115.14 90.5696 114.642 90.4136 114.15C90.2576 113.658 90.0116 113.22 89.6756 112.836C89.3156 112.44 88.8776 112.128 88.3616 111.9C87.8456 111.66 87.3176 111.54 86.7776 111.54C86.1656 111.54 85.6256 111.648 85.1576 111.864C84.6896 112.08 84.2816 112.44 83.9336 112.944L83.8976 112.908C83.9096 112.56 83.9576 112.164 84.0416 111.72C84.1256 111.276 84.2576 110.862 84.4376 110.478C84.6176 110.082 84.8576 109.752 85.1576 109.488C85.4696 109.212 85.8536 109.074 86.3096 109.074C86.7536 109.074 87.1256 109.23 87.4256 109.542C87.7256 109.854 87.9176 110.22 88.0016 110.64ZM92.0995 117.228V120H94.9255V117.228H92.0995ZM98.9633 113.646C98.9633 113.43 98.9633 113.172 98.9633 112.872C98.9753 112.56 98.9993 112.242 99.0353 111.918C99.0713 111.594 99.1313 111.276 99.2153 110.964C99.2993 110.64 99.4133 110.352 99.5573 110.1C99.7133 109.848 99.9053 109.644 100.133 109.488C100.373 109.332 100.667 109.254 101.015 109.254C101.363 109.254 101.657 109.332 101.897 109.488C102.137 109.644 102.335 109.848 102.491 110.1C102.647 110.352 102.761 110.64 102.833 110.964C102.917 111.276 102.977 111.594 103.013 111.918C103.061 112.242 103.085 112.56 103.085 112.872C103.097 113.172 103.103 113.43 103.103 113.646C103.103 114.006 103.091 114.444 103.067 114.96C103.043 115.464 102.965 115.956 102.833 116.436C102.713 116.904 102.509 117.306 102.221 117.642C101.945 117.978 101.543 118.146 101.015 118.146C100.499 118.146 100.103 117.978 99.8273 117.642C99.5513 117.306 99.3473 116.904 99.2153 116.436C99.0953 115.956 99.0233 115.464 98.9993 114.96C98.9753 114.444 98.9633 114.006 98.9633 113.646ZM96.4073 113.646C96.4073 114.906 96.5273 115.962 96.7673 116.814C97.0193 117.654 97.3553 118.326 97.7753 118.83C98.1953 119.334 98.6813 119.694 99.2333 119.91C99.7973 120.126 100.391 120.234 101.015 120.234C101.651 120.234 102.245 120.126 102.797 119.91C103.361 119.694 103.853 119.334 104.273 118.83C104.705 118.326 105.041 117.654 105.281 116.814C105.533 115.962 105.659 114.906 105.659 113.646C105.659 112.422 105.533 111.396 105.281 110.568C105.041 109.728 104.705 109.056 104.273 108.552C103.853 108.048 103.361 107.688 102.797 107.472C102.245 107.256 101.651 107.148 101.015 107.148C100.391 107.148 99.7973 107.256 99.2333 107.472C98.6813 107.688 98.1953 108.048 97.7753 108.552C97.3553 109.056 97.0193 109.728 96.7673 110.568C96.5273 111.396 96.4073 112.422 96.4073 113.646ZM108.965 113.646C108.965 113.43 108.965 113.172 108.965 112.872C108.977 112.56 109.001 112.242 109.037 111.918C109.073 111.594 109.133 111.276 109.217 110.964C109.301 110.64 109.415 110.352 109.559 110.1C109.715 109.848 109.907 109.644 110.135 109.488C110.375 109.332 110.669 109.254 111.017 109.254C111.365 109.254 111.659 109.332 111.899 109.488C112.139 109.644 112.337 109.848 112.493 110.1C112.649 110.352 112.763 110.64 112.835 110.964C112.919 111.276 112.979 111.594 113.015 111.918C113.063 112.242 113.087 112.56 113.087 112.872C113.099 113.172 113.105 113.43 113.105 113.646C113.105 114.006 113.093 114.444 113.069 114.96C113.045 115.464 112.967 115.956 112.835 116.436C112.715 116.904 112.511 117.306 112.223 117.642C111.947 117.978 111.545 118.146 111.017 118.146C110.501 118.146 110.105 117.978 109.829 117.642C109.553 117.306 109.349 116.904 109.217 116.436C109.097 115.956 109.025 115.464 109.001 114.96C108.977 114.444 108.965 114.006 108.965 113.646ZM106.409 113.646C106.409 114.906 106.529 115.962 106.769 116.814C107.021 117.654 107.357 118.326 107.777 118.83C108.197 119.334 108.683 119.694 109.235 119.91C109.799 120.126 110.393 120.234 111.017 120.234C111.653 120.234 112.247 120.126 112.799 119.91C113.363 119.694 113.855 119.334 114.275 118.83C114.707 118.326 115.043 117.654 115.283 116.814C115.535 115.962 115.661 114.906 115.661 113.646C115.661 112.422 115.535 111.396 115.283 110.568C115.043 109.728 114.707 109.056 114.275 108.552C113.855 108.048 113.363 107.688 112.799 107.472C112.247 107.256 111.653 107.148 111.017 107.148C110.393 107.148 109.799 107.256 109.235 107.472C108.683 107.688 108.197 108.048 107.777 108.552C107.357 109.056 107.021 109.728 106.769 110.568C106.529 111.396 106.409 112.422 106.409 113.646Z" fill="#111827"/>
<path d="M37.75 141.917L41.25 138.417L43.5833 140.75L48.25 136.083" stroke="#9747FF" stroke-linecap="round" stroke-linejoin="round"/>
<path d="M44.1667 136.083H48.2501V140.167" stroke="#9747FF" stroke-linecap="round" stroke-linejoin="round"/>
<path d="M54.44 137.42H55.29C55.2833 137.207 55.3033 136.997 55.35 136.79C55.4033 136.577 55.4867 136.387 55.6 136.22C55.7133 136.053 55.8567 135.92 56.03 135.82C56.21 135.713 56.4233 135.66 56.67 135.66C56.8567 135.66 57.0333 135.69 57.2 135.75C57.3667 135.81 57.51 135.897 57.63 136.01C57.7567 136.123 57.8567 136.26 57.93 136.42C58.0033 136.573 58.04 136.747 58.04 136.94C58.04 137.187 58 137.403 57.92 137.59C57.8467 137.777 57.7333 137.95 57.58 138.11C57.4333 138.27 57.2467 138.43 57.02 138.59C56.7933 138.743 56.53 138.913 56.23 139.1C55.9833 139.247 55.7467 139.403 55.52 139.57C55.2933 139.737 55.09 139.93 54.91 140.15C54.73 140.37 54.58 140.63 54.46 140.93C54.3467 141.223 54.2733 141.58 54.24 142H58.87V141.25H55.23C55.27 141.03 55.3533 140.837 55.48 140.67C55.6133 140.497 55.77 140.337 55.95 140.19C56.1367 140.043 56.34 139.907 56.56 139.78C56.78 139.647 57 139.513 57.22 139.38C57.44 139.24 57.6533 139.093 57.86 138.94C58.0667 138.787 58.25 138.617 58.41 138.43C58.57 138.237 58.6967 138.02 58.79 137.78C58.89 137.54 58.94 137.263 58.94 136.95C58.94 136.617 58.88 136.323 58.76 136.07C58.6467 135.817 58.49 135.607 58.29 135.44C58.09 135.267 57.8533 135.137 57.58 135.05C57.3133 134.957 57.0267 134.91 56.72 134.91C56.3467 134.91 56.0133 134.973 55.72 135.1C55.4267 135.227 55.18 135.403 54.98 135.63C54.7867 135.85 54.6433 136.113 54.55 136.42C54.4567 136.727 54.42 137.06 54.44 137.42ZM61.7366 137.95V138.67C61.8966 138.65 62.0666 138.64 62.2466 138.64C62.46 138.64 62.6566 138.67 62.8366 138.73C63.0233 138.783 63.1833 138.87 63.3166 138.99C63.45 139.103 63.5566 139.247 63.6366 139.42C63.7166 139.587 63.7566 139.78 63.7566 140C63.7566 140.213 63.7133 140.407 63.6266 140.58C63.5466 140.747 63.4366 140.89 63.2966 141.01C63.1566 141.123 62.9933 141.213 62.8066 141.28C62.62 141.34 62.4233 141.37 62.2166 141.37C61.73 141.37 61.36 141.227 61.1066 140.94C60.8533 140.647 60.72 140.27 60.7066 139.81H59.8566C59.85 140.177 59.9 140.503 60.0066 140.79C60.12 141.077 60.28 141.32 60.4866 141.52C60.6933 141.713 60.9433 141.86 61.2366 141.96C61.53 142.06 61.8566 142.11 62.2166 142.11C62.55 142.11 62.8633 142.067 63.1566 141.98C63.4566 141.887 63.7166 141.75 63.9366 141.57C64.1566 141.39 64.33 141.167 64.4566 140.9C64.59 140.627 64.6566 140.313 64.6566 139.96C64.6566 139.533 64.55 139.163 64.3366 138.85C64.13 138.537 63.81 138.333 63.3766 138.24V138.22C63.6566 138.093 63.89 137.907 64.0766 137.66C64.2633 137.413 64.3566 137.13 64.3566 136.81C64.3566 136.483 64.3 136.2 64.1866 135.96C64.08 135.72 63.93 135.523 63.7366 135.37C63.5433 135.217 63.3133 135.103 63.0466 135.03C62.7866 134.95 62.5033 134.91 62.1966 134.91C61.8433 134.91 61.53 134.967 61.2566 135.08C60.99 135.193 60.7666 135.35 60.5866 135.55C60.4066 135.75 60.2666 135.99 60.1666 136.27C60.0733 136.55 60.02 136.86 60.0066 137.2H60.8566C60.8566 136.993 60.8833 136.797 60.9366 136.61C60.99 136.423 61.07 136.26 61.1766 136.12C61.29 135.98 61.43 135.87 61.5966 135.79C61.77 135.703 61.97 135.66 62.1966 135.66C62.5566 135.66 62.8566 135.757 63.0966 135.95C63.3366 136.137 63.4566 136.42 63.4566 136.8C63.4566 136.987 63.42 137.153 63.3466 137.3C63.2733 137.447 63.1733 137.57 63.0466 137.67C62.9266 137.763 62.7833 137.837 62.6166 137.89C62.4566 137.937 62.2866 137.96 62.1066 137.96H61.9266C61.8933 137.96 61.86 137.96 61.8266 137.96C61.8 137.96 61.77 137.957 61.7366 137.95ZM65.9433 140.89V142H66.5333C66.5399 142.08 66.5333 142.167 66.5133 142.26C66.4999 142.353 66.4699 142.443 66.4233 142.53C66.3766 142.623 66.3133 142.707 66.2333 142.78C66.1599 142.86 66.0666 142.92 65.9533 142.96V143.46C66.3399 143.347 66.6199 143.153 66.7933 142.88C66.9666 142.607 67.0533 142.28 67.0533 141.9V140.89H65.9433ZM72.5965 135.78V135.03H69.0965L68.4365 138.71L69.1665 138.75C69.3332 138.55 69.5232 138.39 69.7365 138.27C69.9565 138.143 70.2065 138.08 70.4865 138.08C70.7265 138.08 70.9432 138.12 71.1365 138.2C71.3365 138.28 71.5065 138.393 71.6465 138.54C71.7865 138.68 71.8932 138.85 71.9665 139.05C72.0465 139.243 72.0865 139.457 72.0865 139.69C72.0865 139.97 72.0465 140.217 71.9665 140.43C71.8865 140.637 71.7765 140.81 71.6365 140.95C71.5032 141.09 71.3432 141.197 71.1565 141.27C70.9765 141.337 70.7865 141.37 70.5865 141.37C70.3732 141.37 70.1765 141.34 69.9965 141.28C69.8232 141.213 69.6698 141.123 69.5365 141.01C69.4098 140.89 69.3065 140.753 69.2265 140.6C69.1532 140.44 69.1098 140.27 69.0965 140.09H68.2465C68.2532 140.41 68.3165 140.697 68.4365 140.95C68.5565 141.203 68.7198 141.417 68.9265 141.59C69.1332 141.757 69.3698 141.887 69.6365 141.98C69.9098 142.067 70.1998 142.11 70.5065 142.11C70.9198 142.11 71.2798 142.047 71.5865 141.92C71.8998 141.787 72.1598 141.61 72.3665 141.39C72.5732 141.17 72.7265 140.92 72.8265 140.64C72.9332 140.353 72.9865 140.06 72.9865 139.76C72.9865 139.353 72.9265 139 72.8065 138.7C72.6865 138.393 72.5232 138.14 72.3165 137.94C72.1098 137.733 71.8665 137.58 71.5865 137.48C71.3065 137.38 71.0098 137.33 70.6965 137.33C70.4565 137.33 70.2132 137.373 69.9665 137.46C69.7265 137.54 69.5298 137.667 69.3765 137.84L69.3565 137.82L69.7365 135.78H72.5965ZM75.1231 136.92C75.1231 136.767 75.1331 136.607 75.1531 136.44C75.1731 136.267 75.2131 136.11 75.2731 135.97C75.3398 135.823 75.4298 135.703 75.5431 135.61C75.6565 135.51 75.8065 135.46 75.9931 135.46C76.1865 135.46 76.3365 135.51 76.4431 135.61C76.5565 135.703 76.6431 135.823 76.7031 135.97C76.7631 136.11 76.7998 136.267 76.8131 136.44C76.8331 136.607 76.8431 136.763 76.8431 136.91C76.8431 137.063 76.8331 137.227 76.8131 137.4C76.7931 137.573 76.7498 137.733 76.6831 137.88C76.6231 138.02 76.5365 138.137 76.4231 138.23C76.3098 138.323 76.1565 138.37 75.9631 138.37C75.7765 138.37 75.6265 138.323 75.5131 138.23C75.4065 138.13 75.3231 138.01 75.2631 137.87C75.2031 137.723 75.1631 137.567 75.1431 137.4C75.1298 137.227 75.1231 137.067 75.1231 136.92ZM74.3731 136.94C74.3731 137.213 74.3998 137.47 74.4531 137.71C74.5131 137.95 74.6065 138.16 74.7331 138.34C74.8598 138.52 75.0265 138.663 75.2331 138.77C75.4398 138.87 75.6931 138.92 75.9931 138.92C76.2865 138.92 76.5331 138.863 76.7331 138.75C76.9331 138.637 77.0965 138.49 77.2231 138.31C77.3565 138.123 77.4498 137.91 77.5031 137.67C77.5631 137.423 77.5931 137.17 77.5931 136.91C77.5931 136.637 77.5665 136.38 77.5131 136.14C77.4665 135.893 77.3798 135.68 77.2531 135.5C77.1331 135.32 76.9698 135.177 76.7631 135.07C76.5631 134.963 76.3065 134.91 75.9931 134.91C75.6865 134.91 75.4298 134.967 75.2231 135.08C75.0165 135.187 74.8498 135.333 74.7231 135.52C74.5965 135.707 74.5065 135.923 74.4531 136.17C74.3998 136.41 74.3731 136.667 74.3731 136.94ZM80.0631 140.12C80.0631 139.967 80.0731 139.807 80.0931 139.64C80.1131 139.467 80.1531 139.31 80.2131 139.17C80.2798 139.023 80.3698 138.903 80.4831 138.81C80.5965 138.71 80.7465 138.66 80.9331 138.66C81.1265 138.66 81.2765 138.71 81.3831 138.81C81.4965 138.903 81.5831 139.023 81.6431 139.17C81.7031 139.31 81.7398 139.467 81.7531 139.64C81.7731 139.807 81.7831 139.963 81.7831 140.11C81.7831 140.263 81.7731 140.427 81.7531 140.6C81.7331 140.773 81.6898 140.933 81.6231 141.08C81.5631 141.22 81.4765 141.337 81.3631 141.43C81.2498 141.523 81.0965 141.57 80.9031 141.57C80.7165 141.57 80.5665 141.523 80.4531 141.43C80.3465 141.33 80.2631 141.21 80.2031 141.07C80.1431 140.923 80.1031 140.767 80.0831 140.6C80.0698 140.427 80.0631 140.267 80.0631 140.12ZM79.3131 140.14C79.3131 140.413 79.3398 140.67 79.3931 140.91C79.4531 141.15 79.5465 141.36 79.6731 141.54C79.7998 141.713 79.9665 141.853 80.1731 141.96C80.3798 142.06 80.6331 142.11 80.9331 142.11C81.2265 142.11 81.4731 142.057 81.6731 141.95C81.8731 141.837 82.0365 141.69 82.1631 141.51C82.2965 141.323 82.3898 141.11 82.4431 140.87C82.5031 140.623 82.5331 140.37 82.5331 140.11C82.5331 139.837 82.5065 139.58 82.4531 139.34C82.4065 139.093 82.3198 138.88 82.1931 138.7C82.0731 138.52 81.9098 138.377 81.7031 138.27C81.5031 138.163 81.2465 138.11 80.9331 138.11C80.6265 138.11 80.3698 138.167 80.1631 138.28C79.9565 138.387 79.7898 138.533 79.6631 138.72C79.5365 138.907 79.4465 139.123 79.3931 139.37C79.3398 139.61 79.3131 139.867 79.3131 140.14ZM80.7131 134.78L75.3331 142.21H76.1931L81.5631 134.78H80.7131ZM88.2763 143.97H88.9263C88.453 143.203 88.113 142.443 87.9063 141.69C87.7063 140.937 87.6063 140.14 87.6063 139.3C87.6063 138.48 87.7063 137.697 87.9063 136.95C88.1063 136.203 88.4463 135.45 88.9263 134.69H88.2763C87.7563 135.377 87.363 136.12 87.0963 136.92C86.8363 137.72 86.7063 138.513 86.7063 139.3C86.7063 139.74 86.743 140.16 86.8163 140.56C86.8897 140.96 86.993 141.35 87.1263 141.73C87.2663 142.11 87.433 142.483 87.6263 142.85C87.8197 143.223 88.0363 143.597 88.2763 143.97ZM92.1642 139.13V136.94H91.4842V139.13H89.3042V139.81H91.4842V142H92.1642V139.81H94.3442V139.13H92.1642ZM98.3803 142V134.91H97.7303C97.6836 135.177 97.597 135.397 97.4703 135.57C97.3436 135.743 97.187 135.88 97.0003 135.98C96.8203 136.08 96.617 136.15 96.3903 136.19C96.1636 136.223 95.9303 136.24 95.6903 136.24V136.92H97.5303V142H98.3803ZM101.697 138.51C101.697 138.337 101.697 138.147 101.697 137.94C101.704 137.727 101.72 137.517 101.747 137.31C101.78 137.097 101.824 136.89 101.877 136.69C101.937 136.49 102.02 136.317 102.127 136.17C102.24 136.017 102.38 135.893 102.547 135.8C102.714 135.707 102.917 135.66 103.157 135.66C103.397 135.66 103.6 135.707 103.767 135.8C103.934 135.893 104.07 136.017 104.177 136.17C104.29 136.317 104.374 136.49 104.427 136.69C104.487 136.89 104.53 137.097 104.557 137.31C104.59 137.517 104.607 137.727 104.607 137.94C104.614 138.147 104.617 138.337 104.617 138.51C104.617 138.777 104.607 139.077 104.587 139.41C104.574 139.737 104.52 140.047 104.427 140.34C104.34 140.627 104.197 140.87 103.997 141.07C103.797 141.27 103.517 141.37 103.157 141.37C102.797 141.37 102.517 141.27 102.317 141.07C102.117 140.87 101.97 140.627 101.877 140.34C101.79 140.047 101.737 139.737 101.717 139.41C101.704 139.077 101.697 138.777 101.697 138.51ZM100.797 138.52C100.797 138.78 100.804 139.05 100.817 139.33C100.83 139.61 100.864 139.883 100.917 140.15C100.97 140.417 101.047 140.67 101.147 140.91C101.247 141.143 101.384 141.35 101.557 141.53C101.73 141.71 101.947 141.853 102.207 141.96C102.474 142.06 102.79 142.11 103.157 142.11C103.53 142.11 103.847 142.06 104.107 141.96C104.367 141.853 104.584 141.71 104.757 141.53C104.93 141.35 105.067 141.143 105.167 140.91C105.267 140.67 105.344 140.417 105.397 140.15C105.45 139.883 105.484 139.61 105.497 139.33C105.51 139.05 105.517 138.78 105.517 138.52C105.517 138.26 105.51 137.99 105.497 137.71C105.484 137.43 105.45 137.157 105.397 136.89C105.344 136.623 105.267 136.37 105.167 136.13C105.067 135.89 104.93 135.68 104.757 135.5C104.584 135.32 104.364 135.177 104.097 135.07C103.837 134.963 103.524 134.91 103.157 134.91C102.79 134.91 102.474 134.963 102.207 135.07C101.947 135.177 101.73 135.32 101.557 135.5C101.384 135.68 101.247 135.89 101.147 136.13C101.047 136.37 100.97 136.623 100.917 136.89C100.864 137.157 100.83 137.43 100.817 137.71C100.804 137.99 100.797 138.26 100.797 138.52ZM105.844 143.97H106.484C107.004 143.283 107.394 142.543 107.654 141.75C107.92 140.95 108.054 140.157 108.054 139.37C108.054 138.93 108.017 138.51 107.944 138.11C107.87 137.71 107.764 137.32 107.624 136.94C107.49 136.553 107.327 136.177 107.134 135.81C106.94 135.437 106.724 135.063 106.484 134.69H105.844C106.31 135.457 106.644 136.22 106.844 136.98C107.05 137.733 107.154 138.53 107.154 139.37C107.154 140.183 107.054 140.967 106.854 141.72C106.654 142.467 106.317 143.217 105.844 143.97Z" fill="#9747FF"/>
</g>
<g clip-path="url(#clip2_73_922)">
<path fill-rule="evenodd" clip-rule="evenodd" d="M24 175C24 170.582 27.5817 167 32 167H166C170.418 167 174 170.582 174 175V246C174 250.418 170.418 254 166 254H32C27.5817 254 24 250.418 24 246V175Z" fill="#FAFAFA"/>
<path d="M36.65 182.71H45.37V183.47H36.65V182.71ZM38.26 187.17H43.72V187.93H38.26V187.17ZM40.6 180.61H41.39V189.8H40.6V180.61ZM39.87 182.96L40.55 183.17C40.3033 183.863 39.99 184.53 39.61 185.17C39.2367 185.803 38.8233 186.383 38.37 186.91C37.9167 187.43 37.4367 187.863 36.93 188.21C36.89 188.15 36.8367 188.083 36.77 188.01C36.7033 187.93 36.6333 187.857 36.56 187.79C36.4933 187.717 36.43 187.653 36.37 187.6C36.8633 187.3 37.3333 186.907 37.78 186.42C38.2267 185.933 38.63 185.393 38.99 184.8C39.35 184.2 39.6433 183.587 39.87 182.96ZM42.09 182.99C42.3167 183.61 42.61 184.213 42.97 184.8C43.3367 185.387 43.7467 185.917 44.2 186.39C44.66 186.863 45.1433 187.247 45.65 187.54C45.59 187.587 45.52 187.65 45.44 187.73C45.3667 187.803 45.2967 187.88 45.23 187.96C45.1633 188.04 45.1067 188.117 45.06 188.19C44.5467 187.85 44.06 187.423 43.6 186.91C43.14 186.39 42.7233 185.813 42.35 185.18C41.9767 184.54 41.6667 183.877 41.42 183.19L42.09 182.99ZM52.35 180.6H53.06V187.57H52.35V180.6ZM49.21 184.72L54.59 182.45L54.88 183.09L49.49 185.39L49.21 184.72ZM50.29 181.53H51.01V188.23C51.01 188.41 51.03 188.55 51.07 188.65C51.11 188.743 51.1833 188.807 51.29 188.84C51.4033 188.873 51.5733 188.89 51.8 188.89C51.8667 188.89 51.9767 188.89 52.13 188.89C52.2833 188.89 52.46 188.89 52.66 188.89C52.8667 188.89 53.0733 188.89 53.28 188.89C53.4867 188.89 53.6733 188.89 53.84 188.89C54.0067 188.89 54.13 188.89 54.21 188.89C54.41 188.89 54.5567 188.853 54.65 188.78C54.75 188.7 54.82 188.557 54.86 188.35C54.9067 188.143 54.9433 187.85 54.97 187.47C55.0567 187.537 55.1633 187.597 55.29 187.65C55.4233 187.703 55.54 187.737 55.64 187.75C55.6067 188.21 55.5467 188.573 55.46 188.84C55.3733 189.107 55.2333 189.293 55.04 189.4C54.8533 189.513 54.5867 189.57 54.24 189.57C54.18 189.57 54.0667 189.57 53.9 189.57C53.74 189.57 53.55 189.57 53.33 189.57C53.11 189.57 52.89 189.57 52.67 189.57C52.45 189.57 52.2567 189.57 52.09 189.57C51.93 189.57 51.8233 189.57 51.77 189.57C51.39 189.57 51.09 189.53 50.87 189.45C50.6567 189.377 50.5067 189.24 50.42 189.04C50.3333 188.847 50.29 188.57 50.29 188.21V181.53ZM54.46 182.55H54.38L54.55 182.4L54.69 182.29L55.22 182.49L55.18 182.63C55.18 183.103 55.1767 183.547 55.17 183.96C55.17 184.373 55.1667 184.747 55.16 185.08C55.1533 185.413 55.1433 185.693 55.13 185.92C55.1167 186.14 55.1033 186.3 55.09 186.4C55.0633 186.6 55.0033 186.753 54.91 186.86C54.8167 186.96 54.6933 187.027 54.54 187.06C54.4067 187.1 54.25 187.123 54.07 187.13C53.8967 187.137 53.74 187.14 53.6 187.14C53.5867 187.04 53.5633 186.927 53.53 186.8C53.5033 186.673 53.4667 186.567 53.42 186.48C53.54 186.487 53.6667 186.493 53.8 186.5C53.94 186.5 54.0367 186.5 54.09 186.5C54.17 186.5 54.2333 186.483 54.28 186.45C54.3333 186.417 54.37 186.343 54.39 186.23C54.41 186.163 54.4233 186.03 54.43 185.83C54.4433 185.623 54.45 185.36 54.45 185.04C54.4567 184.72 54.46 184.35 54.46 183.93C54.46 183.51 54.46 183.05 54.46 182.55ZM46.42 183.01H49.59V183.72H46.42V183.01ZM47.7 180.72H48.41V187.21H47.7V180.72ZM46.33 187.46C46.5967 187.36 46.9033 187.24 47.25 187.1C47.6033 186.953 47.9767 186.8 48.37 186.64C48.7633 186.473 49.1567 186.307 49.55 186.14L49.72 186.81C49.1867 187.057 48.6467 187.303 48.1 187.55C47.56 187.797 47.07 188.017 46.63 188.21L46.33 187.46ZM58.59 180.64L59.31 180.85C59.11 181.41 58.8767 181.967 58.61 182.52C58.3433 183.067 58.0533 183.583 57.74 184.07C57.4333 184.557 57.11 184.99 56.77 185.37C56.7433 185.31 56.7033 185.233 56.65 185.14C56.6033 185.047 56.55 184.953 56.49 184.86C56.43 184.76 56.3767 184.683 56.33 184.63C56.6367 184.303 56.93 183.927 57.21 183.5C57.49 183.073 57.7467 182.617 57.98 182.13C58.22 181.637 58.4233 181.14 58.59 180.64ZM57.61 183.26L58.35 182.52L58.36 182.53V189.8H57.61V183.26ZM61.03 180.86L61.77 181.02C61.5233 181.893 61.1933 182.693 60.78 183.42C60.3667 184.14 59.8733 184.743 59.3 185.23C59.2733 185.17 59.23 185.1 59.17 185.02C59.1167 184.94 59.0567 184.857 58.99 184.77C58.93 184.683 58.8733 184.617 58.82 184.57C59.3467 184.157 59.7967 183.63 60.17 182.99C60.5433 182.343 60.83 181.633 61.03 180.86ZM59.95 184.52H64.04V185.22H59.95V184.52ZM63.79 184.52H64.52C64.52 184.52 64.52 184.54 64.52 184.58C64.52 184.62 64.52 184.67 64.52 184.73C64.52 184.783 64.5167 184.827 64.51 184.86C64.4767 185.627 64.44 186.28 64.4 186.82C64.3667 187.353 64.3267 187.793 64.28 188.14C64.2333 188.487 64.18 188.76 64.12 188.96C64.06 189.16 63.9933 189.303 63.92 189.39C63.8267 189.503 63.7267 189.583 63.62 189.63C63.52 189.677 63.4 189.707 63.26 189.72C63.1333 189.733 62.9633 189.74 62.75 189.74C62.5367 189.74 62.3167 189.733 62.09 189.72C62.0833 189.613 62.06 189.493 62.02 189.36C61.9867 189.227 61.94 189.113 61.88 189.02C62.1067 189.04 62.3167 189.053 62.51 189.06C62.7033 189.067 62.8433 189.07 62.93 189.07C63.01 189.07 63.0767 189.06 63.13 189.04C63.1833 189.027 63.2333 188.99 63.28 188.93C63.3533 188.843 63.42 188.653 63.48 188.36C63.54 188.06 63.5967 187.613 63.65 187.02C63.7033 186.42 63.75 185.633 63.79 184.66V184.52ZM61.25 184.99L61.99 185.03C61.8767 186.197 61.63 187.167 61.25 187.94C60.8767 188.713 60.3067 189.337 59.54 189.81C59.5067 189.763 59.46 189.703 59.4 189.63C59.34 189.563 59.2733 189.493 59.2 189.42C59.1333 189.353 59.0733 189.3 59.02 189.26C59.7467 188.86 60.2767 188.307 60.61 187.6C60.95 186.893 61.1633 186.023 61.25 184.99ZM63.54 180.8C63.6867 181.387 63.8567 181.903 64.05 182.35C64.2433 182.79 64.4767 183.187 64.75 183.54C65.0233 183.887 65.3467 184.21 65.72 184.51C65.62 184.583 65.5233 184.68 65.43 184.8C65.3367 184.913 65.26 185.027 65.2 185.14C64.7933 184.787 64.44 184.41 64.14 184.01C63.8467 183.61 63.5967 183.16 63.39 182.66C63.19 182.153 63.0133 181.577 62.86 180.93L63.54 180.8ZM71.15 181.2H75.53V181.86H71.15V181.2ZM73.07 181.58L73.72 181.74C73.6267 182 73.53 182.263 73.43 182.53C73.33 182.797 73.2333 183.027 73.14 183.22L72.56 183.06C72.62 182.927 72.68 182.773 72.74 182.6C72.8067 182.42 72.87 182.24 72.93 182.06C72.99 181.88 73.0367 181.72 73.07 181.58ZM71.31 182.9H75.16V187.6H74.5V183.51H71.95V187.62H71.31V182.9ZM72.93 184.07H73.59C73.5767 184.897 73.54 185.623 73.48 186.25C73.4267 186.877 73.3133 187.42 73.14 187.88C72.9667 188.333 72.7067 188.72 72.36 189.04C72.02 189.36 71.5533 189.627 70.96 189.84C70.9267 189.76 70.87 189.667 70.79 189.56C70.7167 189.453 70.6467 189.37 70.58 189.31C71.12 189.117 71.5467 188.88 71.86 188.6C72.1733 188.32 72.4033 187.977 72.55 187.57C72.7033 187.157 72.8033 186.663 72.85 186.09C72.8967 185.517 72.9233 184.843 72.93 184.07ZM73.38 188.16L73.78 187.7C74 187.853 74.2333 188.023 74.48 188.21C74.7267 188.397 74.96 188.58 75.18 188.76C75.4 188.94 75.58 189.1 75.72 189.24L75.3 189.77C75.16 189.623 74.98 189.453 74.76 189.26C74.5467 189.073 74.3167 188.883 74.07 188.69C73.83 188.497 73.6 188.32 73.38 188.16ZM66.61 181.56H70.97V183.07H70.29V182.18H67.27V183.07H66.61V181.56ZM67.26 186.67H70.39V189.71H69.69V187.28H67.94V189.73H67.26V186.67ZM67.52 188.79H70V189.4H67.52V188.79ZM68.13 182.51L68.81 182.63C68.61 183.05 68.3533 183.47 68.04 183.89C67.7267 184.31 67.3267 184.69 66.84 185.03C66.8133 184.983 66.7733 184.93 66.72 184.87C66.6667 184.803 66.6133 184.743 66.56 184.69C66.5067 184.63 66.4533 184.587 66.4 184.56C66.8333 184.273 67.1933 183.943 67.48 183.57C67.7733 183.197 67.99 182.843 68.13 182.51ZM68.22 183.21H70.03V183.8H67.93L68.22 183.21ZM69.89 183.21H70.04L70.18 183.18L70.59 183.45C70.3433 183.997 70.0133 184.487 69.6 184.92C69.1933 185.353 68.74 185.73 68.24 186.05C67.74 186.37 67.2267 186.63 66.7 186.83C66.68 186.763 66.65 186.687 66.61 186.6C66.5767 186.513 66.54 186.43 66.5 186.35C66.4667 186.27 66.43 186.207 66.39 186.16C66.8833 185.993 67.36 185.777 67.82 185.51C68.28 185.237 68.69 184.917 69.05 184.55C69.4167 184.183 69.6967 183.78 69.89 183.34V183.21ZM68.14 180.79L68.82 180.63C68.9267 180.81 69.0367 181.007 69.15 181.22C69.27 181.433 69.3633 181.617 69.43 181.77L68.71 181.97C68.6567 181.817 68.5733 181.63 68.46 181.41C68.3533 181.183 68.2467 180.977 68.14 180.79ZM67.49 184.84L67.97 184.39C68.2167 184.51 68.48 184.643 68.76 184.79C69.04 184.937 69.3167 185.087 69.59 185.24C69.87 185.387 70.1333 185.533 70.38 185.68C70.6267 185.82 70.8367 185.95 71.01 186.07L70.5 186.59C70.3333 186.477 70.13 186.347 69.89 186.2C69.6567 186.047 69.4 185.893 69.12 185.74C68.8467 185.58 68.5667 185.423 68.28 185.27C68 185.11 67.7367 184.967 67.49 184.84Z" fill="#718096"/>
<path d="M43.056 215V202.4H41.022C40.95 202.88 40.8 203.282 40.572 203.606C40.344 203.93 40.062 204.194 39.726 204.398C39.402 204.59 39.03 204.728 38.61 204.812C38.202 204.884 37.776 204.914 37.332 204.902V206.828H40.5V215H43.056ZM47.1 212.228V215H48.396C48.408 215.192 48.384 215.378 48.324 215.558C48.264 215.75 48.174 215.918 48.054 216.062C47.934 216.218 47.79 216.35 47.622 216.458C47.466 216.566 47.298 216.638 47.118 216.674V217.97C47.502 217.91 47.862 217.796 48.198 217.628C48.546 217.472 48.846 217.268 49.098 217.016C49.35 216.764 49.548 216.464 49.692 216.116C49.848 215.78 49.926 215.408 49.926 215V212.228H47.1ZM51.6777 207.242H54.1257C54.1257 206.906 54.1557 206.57 54.2157 206.234C54.2877 205.886 54.4017 205.574 54.5577 205.298C54.7137 205.01 54.9177 204.782 55.1697 204.614C55.4337 204.434 55.7517 204.344 56.1237 204.344C56.6757 204.344 57.1257 204.518 57.4737 204.866C57.8337 205.202 58.0137 205.676 58.0137 206.288C58.0137 206.672 57.9237 207.014 57.7437 207.314C57.5757 207.614 57.3597 207.884 57.0957 208.124C56.8437 208.364 56.5617 208.586 56.2497 208.79C55.9377 208.982 55.6437 209.174 55.3677 209.366C54.8277 209.738 54.3117 210.104 53.8197 210.464C53.3397 210.824 52.9197 211.22 52.5597 211.652C52.1997 212.072 51.9117 212.552 51.6957 213.092C51.4917 213.632 51.3897 214.268 51.3897 215H60.6417V212.804H54.6837C54.9957 212.372 55.3557 211.994 55.7637 211.67C56.1717 211.346 56.5917 211.046 57.0237 210.77C57.4557 210.482 57.8817 210.194 58.3017 209.906C58.7337 209.618 59.1177 209.3 59.4537 208.952C59.7897 208.592 60.0597 208.184 60.2637 207.728C60.4677 207.272 60.5697 206.726 60.5697 206.09C60.5697 205.478 60.4497 204.926 60.2097 204.434C59.9817 203.942 59.6697 203.528 59.2737 203.192C58.8777 202.856 58.4157 202.598 57.8877 202.418C57.3717 202.238 56.8257 202.148 56.2497 202.148C55.4937 202.148 54.8217 202.28 54.2337 202.544C53.6577 202.796 53.1777 203.156 52.7937 203.624C52.4097 204.08 52.1217 204.62 51.9297 205.244C51.7377 205.856 51.6537 206.522 51.6777 207.242ZM70.0137 204.506V202.4H62.9757L61.7337 209.366H64.0377C64.2897 209.018 64.5597 208.766 64.8477 208.61C65.1357 208.442 65.5077 208.358 65.9637 208.358C66.3117 208.358 66.6177 208.418 66.8817 208.538C67.1457 208.658 67.3737 208.826 67.5657 209.042C67.7577 209.258 67.9017 209.51 67.9977 209.798C68.0937 210.086 68.1417 210.392 68.1417 210.716C68.1417 211.028 68.0877 211.334 67.9797 211.634C67.8837 211.922 67.7397 212.18 67.5477 212.408C67.3677 212.624 67.1397 212.804 66.8637 212.948C66.5997 213.08 66.2997 213.146 65.9637 213.146C65.3877 213.146 64.9137 212.978 64.5417 212.642C64.1697 212.294 63.9537 211.832 63.8937 211.256H61.3377C61.3497 211.916 61.4817 212.498 61.7337 213.002C61.9977 213.494 62.3457 213.908 62.7777 214.244C63.2097 214.58 63.7017 214.832 64.2537 215C64.8177 215.156 65.4057 215.234 66.0177 215.234C66.6537 215.246 67.2537 215.144 67.8177 214.928C68.3817 214.7 68.8737 214.382 69.2937 213.974C69.7257 213.566 70.0677 213.086 70.3197 212.534C70.5717 211.97 70.6977 211.364 70.6977 210.716C70.6977 210.128 70.6077 209.576 70.4277 209.06C70.2597 208.532 70.0077 208.076 69.6717 207.692C69.3477 207.308 68.9457 207.002 68.4657 206.774C67.9857 206.546 67.4337 206.432 66.8097 206.432C66.3057 206.432 65.8557 206.51 65.4597 206.666C65.0637 206.81 64.6917 207.056 64.3437 207.404L64.3077 207.368L64.8117 204.506H70.0137ZM76.1636 208.466C76.4876 208.466 76.7696 208.538 77.0096 208.682C77.2616 208.814 77.4656 208.994 77.6216 209.222C77.7776 209.438 77.8916 209.69 77.9636 209.978C78.0476 210.254 78.0896 210.542 78.0896 210.842C78.0896 211.13 78.0476 211.412 77.9636 211.688C77.8796 211.964 77.7536 212.21 77.5856 212.426C77.4176 212.642 77.2136 212.816 76.9736 212.948C76.7456 213.08 76.4756 213.146 76.1636 213.146C75.8396 213.146 75.5516 213.08 75.2996 212.948C75.0476 212.816 74.8316 212.642 74.6516 212.426C74.4836 212.198 74.3516 211.946 74.2556 211.67C74.1716 211.382 74.1296 211.094 74.1296 210.806C74.1296 210.494 74.1716 210.2 74.2556 209.924C74.3396 209.636 74.4656 209.384 74.6336 209.168C74.8016 208.952 75.0116 208.784 75.2636 208.664C75.5276 208.532 75.8276 208.466 76.1636 208.466ZM77.9996 205.64H80.4296C80.3576 205.076 80.2076 204.578 79.9796 204.146C79.7516 203.714 79.4576 203.354 79.0976 203.066C78.7376 202.766 78.3236 202.538 77.8556 202.382C77.3876 202.226 76.8836 202.148 76.3436 202.148C75.4436 202.148 74.6816 202.346 74.0576 202.742C73.4336 203.138 72.9236 203.654 72.5276 204.29C72.1316 204.914 71.8436 205.616 71.6636 206.396C71.4836 207.176 71.3936 207.956 71.3936 208.736C71.3936 209.54 71.4656 210.332 71.6096 211.112C71.7536 211.88 72.0116 212.57 72.3836 213.182C72.7556 213.794 73.2536 214.292 73.8776 214.676C74.5016 215.048 75.2876 215.234 76.2356 215.234C76.8956 215.234 77.4956 215.12 78.0356 214.892C78.5756 214.652 79.0376 214.328 79.4216 213.92C79.8176 213.5 80.1176 213.014 80.3216 212.462C80.5376 211.898 80.6456 211.292 80.6456 210.644C80.6456 210.14 80.5676 209.642 80.4116 209.15C80.2556 208.658 80.0096 208.22 79.6736 207.836C79.3136 207.44 78.8756 207.128 78.3596 206.9C77.8436 206.66 77.3156 206.54 76.7756 206.54C76.1636 206.54 75.6236 206.648 75.1556 206.864C74.6876 207.08 74.2796 207.44 73.9316 207.944L73.8956 207.908C73.9076 207.56 73.9556 207.164 74.0396 206.72C74.1236 206.276 74.2556 205.862 74.4356 205.478C74.6156 205.082 74.8556 204.752 75.1556 204.488C75.4676 204.212 75.8516 204.074 76.3076 204.074C76.7516 204.074 77.1236 204.23 77.4236 204.542C77.7236 204.854 77.9156 205.22 77.9996 205.64Z" fill="#111827"/>
<path d="M37.75 231.083L41.25 234.583L43.5833 232.25L48.25 236.917" stroke="#168AFF" stroke-linecap="round" stroke-linejoin="round"/>
<path d="M44.1667 236.917H48.2501V232.833" stroke="#168AFF" stroke-linecap="round" stroke-linejoin="round"/>
<path d="M58.7 230.78V230.03H55.2L54.54 233.71L55.27 233.75C55.4367 233.55 55.6267 233.39 55.84 233.27C56.06 233.143 56.31 233.08 56.59 233.08C56.83 233.08 57.0467 233.12 57.24 233.2C57.44 233.28 57.61 233.393 57.75 233.54C57.89 233.68 57.9967 233.85 58.07 234.05C58.15 234.243 58.19 234.457 58.19 234.69C58.19 234.97 58.15 235.217 58.07 235.43C57.99 235.637 57.88 235.81 57.74 235.95C57.6067 236.09 57.4467 236.197 57.26 236.27C57.08 236.337 56.89 236.37 56.69 236.37C56.4767 236.37 56.28 236.34 56.1 236.28C55.9267 236.213 55.7733 236.123 55.64 236.01C55.5133 235.89 55.41 235.753 55.33 235.6C55.2567 235.44 55.2133 235.27 55.2 235.09H54.35C54.3567 235.41 54.42 235.697 54.54 235.95C54.66 236.203 54.8233 236.417 55.03 236.59C55.2367 236.757 55.4733 236.887 55.74 236.98C56.0133 237.067 56.3033 237.11 56.61 237.11C57.0233 237.11 57.3833 237.047 57.69 236.92C58.0033 236.787 58.2633 236.61 58.47 236.39C58.6767 236.17 58.83 235.92 58.93 235.64C59.0367 235.353 59.09 235.06 59.09 234.76C59.09 234.353 59.03 234 58.91 233.7C58.79 233.393 58.6267 233.14 58.42 232.94C58.2133 232.733 57.97 232.58 57.69 232.48C57.41 232.38 57.1133 232.33 56.8 232.33C56.56 232.33 56.3167 232.373 56.07 232.46C55.83 232.54 55.6333 232.667 55.48 232.84L55.46 232.82L55.84 230.78H58.7ZM60.3866 235.89V237H60.9766C60.9833 237.08 60.9766 237.167 60.9566 237.26C60.9433 237.353 60.9133 237.443 60.8666 237.53C60.82 237.623 60.7566 237.707 60.6766 237.78C60.6033 237.86 60.51 237.92 60.3966 237.96V238.46C60.7833 238.347 61.0633 238.153 61.2366 237.88C61.41 237.607 61.4966 237.28 61.4966 236.9V235.89H60.3866ZM67.0398 230.78V230.03H63.5398L62.8798 233.71L63.6098 233.75C63.7765 233.55 63.9665 233.39 64.1798 233.27C64.3998 233.143 64.6498 233.08 64.9298 233.08C65.1698 233.08 65.3865 233.12 65.5798 233.2C65.7798 233.28 65.9498 233.393 66.0898 233.54C66.2298 233.68 66.3365 233.85 66.4098 234.05C66.4898 234.243 66.5298 234.457 66.5298 234.69C66.5298 234.97 66.4898 235.217 66.4098 235.43C66.3298 235.637 66.2198 235.81 66.0798 235.95C65.9465 236.09 65.7865 236.197 65.5998 236.27C65.4198 236.337 65.2298 236.37 65.0298 236.37C64.8165 236.37 64.6198 236.34 64.4398 236.28C64.2665 236.213 64.1132 236.123 63.9798 236.01C63.8532 235.89 63.7498 235.753 63.6698 235.6C63.5965 235.44 63.5532 235.27 63.5398 235.09H62.6898C62.6965 235.41 62.7598 235.697 62.8798 235.95C62.9998 236.203 63.1632 236.417 63.3698 236.59C63.5765 236.757 63.8132 236.887 64.0798 236.98C64.3532 237.067 64.6432 237.11 64.9498 237.11C65.3632 237.11 65.7232 237.047 66.0298 236.92C66.3432 236.787 66.6032 236.61 66.8098 236.39C67.0165 236.17 67.1698 235.92 67.2698 235.64C67.3765 235.353 67.4298 235.06 67.4298 234.76C67.4298 234.353 67.3698 234 67.2498 233.7C67.1298 233.393 66.9665 233.14 66.7598 232.94C66.5532 232.733 66.3098 232.58 66.0298 232.48C65.7498 232.38 65.4532 232.33 65.1398 232.33C64.8998 232.33 64.6565 232.373 64.4098 232.46C64.1698 232.54 63.9732 232.667 63.8198 232.84L63.7998 232.82L64.1798 230.78H67.0398ZM69.5665 231.92C69.5665 231.767 69.5765 231.607 69.5965 231.44C69.6165 231.267 69.6565 231.11 69.7165 230.97C69.7832 230.823 69.8732 230.703 69.9865 230.61C70.0998 230.51 70.2498 230.46 70.4365 230.46C70.6298 230.46 70.7798 230.51 70.8865 230.61C70.9998 230.703 71.0865 230.823 71.1465 230.97C71.2065 231.11 71.2432 231.267 71.2565 231.44C71.2765 231.607 71.2865 231.763 71.2865 231.91C71.2865 232.063 71.2765 232.227 71.2565 232.4C71.2365 232.573 71.1932 232.733 71.1265 232.88C71.0665 233.02 70.9798 233.137 70.8665 233.23C70.7532 233.323 70.5998 233.37 70.4065 233.37C70.2198 233.37 70.0698 233.323 69.9565 233.23C69.8498 233.13 69.7665 233.01 69.7065 232.87C69.6465 232.723 69.6065 232.567 69.5865 232.4C69.5732 232.227 69.5665 232.067 69.5665 231.92ZM68.8165 231.94C68.8165 232.213 68.8432 232.47 68.8965 232.71C68.9565 232.95 69.0498 233.16 69.1765 233.34C69.3032 233.52 69.4698 233.663 69.6765 233.77C69.8832 233.87 70.1365 233.92 70.4365 233.92C70.7298 233.92 70.9765 233.863 71.1765 233.75C71.3765 233.637 71.5398 233.49 71.6665 233.31C71.7998 233.123 71.8932 232.91 71.9465 232.67C72.0065 232.423 72.0365 232.17 72.0365 231.91C72.0365 231.637 72.0098 231.38 71.9565 231.14C71.9098 230.893 71.8232 230.68 71.6965 230.5C71.5765 230.32 71.4132 230.177 71.2065 230.07C71.0065 229.963 70.7498 229.91 70.4365 229.91C70.1298 229.91 69.8732 229.967 69.6665 230.08C69.4598 230.187 69.2932 230.333 69.1665 230.52C69.0398 230.707 68.9498 230.923 68.8965 231.17C68.8432 231.41 68.8165 231.667 68.8165 231.94ZM74.5065 235.12C74.5065 234.967 74.5165 234.807 74.5365 234.64C74.5565 234.467 74.5965 234.31 74.6565 234.17C74.7232 234.023 74.8132 233.903 74.9265 233.81C75.0398 233.71 75.1898 233.66 75.3765 233.66C75.5698 233.66 75.7198 233.71 75.8265 233.81C75.9398 233.903 76.0265 234.023 76.0865 234.17C76.1465 234.31 76.1832 234.467 76.1965 234.64C76.2165 234.807 76.2265 234.963 76.2265 235.11C76.2265 235.263 76.2165 235.427 76.1965 235.6C76.1765 235.773 76.1332 235.933 76.0665 236.08C76.0065 236.22 75.9198 236.337 75.8065 236.43C75.6932 236.523 75.5398 236.57 75.3465 236.57C75.1598 236.57 75.0098 236.523 74.8965 236.43C74.7898 236.33 74.7065 236.21 74.6465 236.07C74.5865 235.923 74.5465 235.767 74.5265 235.6C74.5132 235.427 74.5065 235.267 74.5065 235.12ZM73.7565 235.14C73.7565 235.413 73.7832 235.67 73.8365 235.91C73.8965 236.15 73.9898 236.36 74.1165 236.54C74.2432 236.713 74.4098 236.853 74.6165 236.96C74.8232 237.06 75.0765 237.11 75.3765 237.11C75.6698 237.11 75.9165 237.057 76.1165 236.95C76.3165 236.837 76.4798 236.69 76.6065 236.51C76.7398 236.323 76.8332 236.11 76.8865 235.87C76.9465 235.623 76.9765 235.37 76.9765 235.11C76.9765 234.837 76.9498 234.58 76.8965 234.34C76.8498 234.093 76.7632 233.88 76.6365 233.7C76.5165 233.52 76.3532 233.377 76.1465 233.27C75.9465 233.163 75.6898 233.11 75.3765 233.11C75.0698 233.11 74.8132 233.167 74.6065 233.28C74.3998 233.387 74.2332 233.533 74.1065 233.72C73.9798 233.907 73.8898 234.123 73.8365 234.37C73.7832 234.61 73.7565 234.867 73.7565 235.14ZM75.1565 229.78L69.7765 237.21H70.6365L76.0065 229.78H75.1565ZM82.7197 238.97H83.3697C82.8964 238.203 82.5564 237.443 82.3497 236.69C82.1497 235.937 82.0497 235.14 82.0497 234.3C82.0497 233.48 82.1497 232.697 82.3497 231.95C82.5497 231.203 82.8897 230.45 83.3697 229.69H82.7197C82.1997 230.377 81.8064 231.12 81.5397 231.92C81.2797 232.72 81.1497 233.513 81.1497 234.3C81.1497 234.74 81.1864 235.16 81.2597 235.56C81.333 235.96 81.4364 236.35 81.5697 236.73C81.7097 237.11 81.8764 237.483 82.0697 237.85C82.263 238.223 82.4797 238.597 82.7197 238.97ZM83.7676 233.82V234.62H86.6576V233.82H83.7676ZM90.7143 237V229.91H90.0643C90.0176 230.177 89.931 230.397 89.8043 230.57C89.6776 230.743 89.521 230.88 89.3343 230.98C89.1543 231.08 88.951 231.15 88.7243 231.19C88.4976 231.223 88.2643 231.24 88.0243 231.24V231.92H89.8643V237H90.7143ZM97.4109 230.78V230.03H93.9109L93.2509 233.71L93.9809 233.75C94.1476 233.55 94.3376 233.39 94.5509 233.27C94.7709 233.143 95.0209 233.08 95.3009 233.08C95.5409 233.08 95.7576 233.12 95.9509 233.2C96.1509 233.28 96.3209 233.393 96.4609 233.54C96.6009 233.68 96.7076 233.85 96.7809 234.05C96.8609 234.243 96.9009 234.457 96.9009 234.69C96.9009 234.97 96.8609 235.217 96.7809 235.43C96.7009 235.637 96.5909 235.81 96.4509 235.95C96.3176 236.09 96.1576 236.197 95.9709 236.27C95.7909 236.337 95.6009 236.37 95.4009 236.37C95.1876 236.37 94.9909 236.34 94.8109 236.28C94.6376 236.213 94.4843 236.123 94.3509 236.01C94.2243 235.89 94.1209 235.753 94.0409 235.6C93.9676 235.44 93.9243 235.27 93.9109 235.09H93.0609C93.0676 235.41 93.1309 235.697 93.2509 235.95C93.3709 236.203 93.5343 236.417 93.7409 236.59C93.9476 236.757 94.1843 236.887 94.4509 236.98C94.7243 237.067 95.0143 237.11 95.3209 237.11C95.7343 237.11 96.0943 237.047 96.4009 236.92C96.7143 236.787 96.9743 236.61 97.1809 236.39C97.3876 236.17 97.5409 235.92 97.6409 235.64C97.7476 235.353 97.8009 235.06 97.8009 234.76C97.8009 234.353 97.7409 234 97.6209 233.7C97.5009 233.393 97.3376 233.14 97.1309 232.94C96.9243 232.733 96.6809 232.58 96.4009 232.48C96.1209 232.38 95.8243 232.33 95.5109 232.33C95.2709 232.33 95.0276 232.373 94.7809 232.46C94.5409 232.54 94.3443 232.667 94.1909 232.84L94.1709 232.82L94.5509 230.78H97.4109ZM98.1776 238.97H98.8176C99.3376 238.283 99.7276 237.543 99.9876 236.75C100.254 235.95 100.388 235.157 100.388 234.37C100.388 233.93 100.351 233.51 100.278 233.11C100.204 232.71 100.098 232.32 99.9576 231.94C99.8242 231.553 99.6609 231.177 99.4676 230.81C99.2742 230.437 99.0576 230.063 98.8176 229.69H98.1776C98.6442 230.457 98.9776 231.22 99.1776 231.98C99.3842 232.733 99.4876 233.53 99.4876 234.37C99.4876 235.183 99.3876 235.967 99.1876 236.72C98.9876 237.467 98.6509 238.217 98.1776 238.97Z" fill="#168AFF"/>
<mask id="mask1_73_922" style="mask-type:luminance" maskUnits="userSpaceOnUse" x="148" y="179" width="14" height="14">
<path fill-rule="evenodd" clip-rule="evenodd" d="M148 179H162V193H148V179Z" fill="white"/>
</mask>
<g mask="url(#mask1_73_922)">
<path fill-rule="evenodd" clip-rule="evenodd" d="M155 180.75C152.101 180.75 149.75 183.101 149.75 186C149.75 188.899 152.101 191.25 155 191.25C157.899 191.25 160.25 188.899 160.25 186C160.25 183.101 157.899 180.75 155 180.75Z" stroke="#A0AEC0" stroke-linejoin="round"/>
<path d="M155 183.667V186" stroke="#A0AEC0" stroke-linecap="round" stroke-linejoin="round"/>
<path fill-rule="evenodd" clip-rule="evenodd" d="M155 188.333H155.006H155Z" fill="#A0AEC0"/>
<path d="M155 188.333H155.006" stroke="#A0AEC0" stroke-width="1.5" stroke-linecap="round" stroke-linejoin="round"/>
</g>
</g>
<path d="M216.048 246.5L219.024 237.704H220.26L223.248 246.5H222.072L220.536 241.58C220.376 241.076 220.224 240.584 220.08 240.104C219.936 239.616 219.792 239.116 219.648 238.604H219.6C219.464 239.116 219.32 239.616 219.168 240.104C219.024 240.584 218.876 241.076 218.724 241.58L217.164 246.5H216.048ZM217.596 243.812V242.936H221.652V243.812H217.596Z" fill="#A0AEC0"/>
<path d="M259.019 246.5V237.704H261.623C262.223 237.704 262.747 237.776 263.195 237.92C263.651 238.064 264.007 238.292 264.263 238.604C264.519 238.916 264.647 239.332 264.647 239.852C264.647 240.14 264.595 240.416 264.491 240.68C264.395 240.936 264.251 241.16 264.059 241.352C263.867 241.536 263.635 241.672 263.363 241.76V241.82C263.883 241.916 264.311 242.14 264.647 242.492C264.983 242.844 265.151 243.32 265.151 243.92C265.151 244.496 265.007 244.976 264.719 245.36C264.439 245.736 264.047 246.02 263.543 246.212C263.047 246.404 262.471 246.5 261.815 246.5H259.019ZM260.123 241.436H261.431C262.191 241.436 262.735 241.308 263.063 241.052C263.391 240.796 263.555 240.444 263.555 239.996C263.555 239.476 263.379 239.112 263.027 238.904C262.683 238.688 262.167 238.58 261.479 238.58H260.123V241.436ZM260.123 245.612H261.659C262.411 245.612 262.999 245.472 263.423 245.192C263.847 244.912 264.059 244.476 264.059 243.884C264.059 243.332 263.851 242.932 263.435 242.684C263.019 242.428 262.427 242.3 261.659 242.3H260.123V245.612Z" fill="#A0AEC0"/>
<path d="M300.975 246.656C300.431 246.656 299.923 246.556 299.451 246.356C298.987 246.148 298.583 245.848 298.239 245.456C297.895 245.064 297.627 244.588 297.435 244.028C297.243 243.46 297.147 242.82 297.147 242.108C297.147 241.396 297.243 240.76 297.435 240.2C297.635 239.632 297.911 239.152 298.263 238.76C298.615 238.368 299.027 238.068 299.499 237.86C299.971 237.652 300.487 237.548 301.047 237.548C301.583 237.548 302.055 237.66 302.463 237.884C302.871 238.1 303.203 238.348 303.459 238.628L302.859 239.348C302.627 239.1 302.363 238.9 302.067 238.748C301.771 238.596 301.435 238.52 301.059 238.52C300.507 238.52 300.023 238.664 299.607 238.952C299.191 239.24 298.867 239.652 298.635 240.188C298.403 240.716 298.287 241.344 298.287 242.072C298.287 242.816 298.399 243.46 298.623 244.004C298.847 244.54 299.163 244.956 299.571 245.252C299.979 245.54 300.463 245.684 301.023 245.684C301.439 245.684 301.811 245.596 302.139 245.42C302.475 245.244 302.783 245 303.063 244.688L303.675 245.396C303.331 245.796 302.939 246.108 302.499 246.332C302.059 246.548 301.551 246.656 300.975 246.656Z" fill="#A0AEC0"/>
<path d="M340.132 246.5V237.704H342.328C343.232 237.704 343.992 237.876 344.608 238.22C345.224 238.556 345.688 239.048 346 239.696C346.312 240.344 346.468 241.136 346.468 242.072C346.468 243 346.312 243.796 346 244.46C345.688 245.124 345.228 245.632 344.62 245.984C344.012 246.328 343.264 246.5 342.376 246.5H340.132ZM341.236 245.588H342.232C342.92 245.588 343.492 245.452 343.948 245.18C344.412 244.9 344.756 244.496 344.98 243.968C345.212 243.44 345.328 242.808 345.328 242.072C345.328 241.32 345.212 240.688 344.98 240.176C344.756 239.664 344.412 239.276 343.948 239.012C343.492 238.74 342.92 238.604 342.232 238.604H341.236V245.588Z" fill="#A0AEC0"/>
<path d="M378.123 246.5V237.704H383.187V238.64H379.227V241.4H382.563V242.348H379.227V245.552H383.319V246.5H378.123Z" fill="#A0AEC0"/>
<path d="M416.279 246.5V237.704H421.343V238.64H417.383V241.616H420.743V242.552H417.383V246.5H416.279Z" fill="#A0AEC0"/>
<path d="M458.549 246.656C457.773 246.656 457.085 246.476 456.485 246.116C455.893 245.756 455.425 245.236 455.081 244.556C454.745 243.876 454.577 243.06 454.577 242.108C454.577 241.396 454.677 240.76 454.877 240.2C455.077 239.632 455.357 239.152 455.717 238.76C456.085 238.368 456.513 238.068 457.001 237.86C457.489 237.652 458.025 237.548 458.609 237.548C459.225 237.548 459.737 237.664 460.145 237.896C460.553 238.12 460.885 238.364 461.141 238.628L460.541 239.348C460.317 239.116 460.053 238.92 459.749 238.76C459.453 238.6 459.085 238.52 458.645 238.52C458.053 238.52 457.537 238.664 457.097 238.952C456.657 239.24 456.317 239.652 456.077 240.188C455.837 240.716 455.717 241.344 455.717 242.072C455.717 242.816 455.829 243.46 456.053 244.004C456.285 244.54 456.621 244.956 457.061 245.252C457.501 245.54 458.033 245.684 458.657 245.684C458.969 245.684 459.265 245.64 459.545 245.552C459.833 245.456 460.065 245.328 460.241 245.168V242.864H458.369V241.94H461.261V245.636C460.973 245.932 460.593 246.176 460.121 246.368C459.657 246.56 459.133 246.656 458.549 246.656Z" fill="#A0AEC0"/>
<path d="M491.068 85.6H492.1V77.056H490.888L487.228 82.516V83.236H493.276V82.372H488.38L490.384 79.432C490.624 79.012 490.864 78.628 491.08 78.232H491.14C491.104 78.676 491.068 79.42 491.068 79.864V85.6ZM496.992 85.768C498.684 85.768 499.716 84.172 499.716 81.304C499.716 78.436 498.684 76.9 496.992 76.9C495.276 76.9 494.244 78.436 494.244 81.304C494.244 84.172 495.276 85.768 496.992 85.768ZM496.992 84.88C495.984 84.88 495.3 83.812 495.3 81.304C495.3 78.784 495.984 77.776 496.992 77.776C497.988 77.776 498.66 78.784 498.66 81.304C498.66 83.812 497.988 84.88 496.992 84.88ZM501.417 85.6H502.497V83.884L503.709 82.456L505.617 85.6H506.805L504.357 81.712L506.529 79.084H505.305L502.533 82.528H502.497V76.06H501.417V85.6Z" fill="#A0AEC0"/>
<path d="M490.156 132.035C491.728 132.035 492.988 131.111 492.988 129.587C492.988 128.423 492.148 127.655 491.116 127.415V127.367C492.052 127.019 492.676 126.359 492.676 125.327C492.676 123.947 491.596 123.167 490.12 123.167C489.112 123.167 488.332 123.611 487.672 124.223L488.26 124.919C488.752 124.415 489.376 124.043 490.084 124.043C490.996 124.043 491.56 124.571 491.56 125.399C491.56 126.299 490.948 127.007 489.136 127.007V127.847C491.164 127.847 491.872 128.531 491.872 129.551C491.872 130.511 491.128 131.123 490.084 131.123C489.076 131.123 488.416 130.643 487.9 130.103L487.348 130.823C487.924 131.459 488.776 132.035 490.156 132.035ZM496.992 132.035C498.684 132.035 499.716 130.439 499.716 127.571C499.716 124.703 498.684 123.167 496.992 123.167C495.276 123.167 494.244 124.703 494.244 127.571C494.244 130.439 495.276 132.035 496.992 132.035ZM496.992 131.147C495.984 131.147 495.3 130.079 495.3 127.571C495.3 125.051 495.984 124.043 496.992 124.043C497.988 124.043 498.66 125.051 498.66 127.571C498.66 130.079 497.988 131.147 496.992 131.147ZM501.417 131.867H502.497V130.151L503.709 128.723L505.617 131.867H506.805L504.357 127.979L506.529 125.351H505.305L502.533 128.795H502.497V122.327H501.417V131.867Z" fill="#A0AEC0"/>
<path d="M487.528 178.133H493.048V177.197H490.564C490.12 177.197 489.58 177.233 489.124 177.281C491.152 175.145 492.628 173.549 492.628 171.941C492.628 170.417 491.644 169.433 490.072 169.433C488.956 169.433 488.188 169.937 487.468 170.717L488.104 171.341C488.596 170.765 489.22 170.309 489.94 170.309C491.032 170.309 491.548 171.005 491.548 171.977C491.548 173.381 490.108 174.929 487.528 177.497V178.133ZM496.992 178.301C498.684 178.301 499.716 176.705 499.716 173.837C499.716 170.969 498.684 169.433 496.992 169.433C495.276 169.433 494.244 170.969 494.244 173.837C494.244 176.705 495.276 178.301 496.992 178.301ZM496.992 177.413C495.984 177.413 495.3 176.345 495.3 173.837C495.3 171.317 495.984 170.309 496.992 170.309C497.988 170.309 498.66 171.317 498.66 173.837C498.66 176.345 497.988 177.413 496.992 177.413ZM501.417 178.133H502.497V176.417L503.709 174.989L505.617 178.133H506.805L504.357 174.245L506.529 171.617H505.305L502.533 175.061H502.497V168.593H501.417V178.133Z" fill="#A0AEC0"/>
<path d="M488.056 224.4H492.88V223.488H491.104V215.856H490.264C489.796 216.132 489.232 216.336 488.44 216.48V217.188H490.012V223.488H488.056V224.4ZM496.992 224.568C498.684 224.568 499.716 222.972 499.716 220.104C499.716 217.236 498.684 215.7 496.992 215.7C495.276 215.7 494.244 217.236 494.244 220.104C494.244 222.972 495.276 224.568 496.992 224.568ZM496.992 223.68C495.984 223.68 495.3 222.612 495.3 220.104C495.3 217.584 495.984 216.576 496.992 216.576C497.988 216.576 498.66 217.584 498.66 220.104C498.66 222.612 497.988 223.68 496.992 223.68ZM501.417 224.4H502.497V222.684L503.709 221.256L505.617 224.4H506.805L504.357 220.512L506.529 217.884H505.305L502.533 221.328H502.497V214.86H501.417V224.4Z" fill="#A0AEC0"/>
<path d="M197 221H475" stroke="#323B49"/>
<path d="M204 220V72" stroke="#F1F2F4"/>
<path d="M197 174H475" stroke="#F1F2F4" stroke-dasharray="12 6"/>
<path d="M197 128H475" stroke="#F1F2F4" stroke-dasharray="12 6"/>
<path d="M197 82H475" stroke="#F1F2F4" stroke-dasharray="12 6"/>
<path fill-rule="evenodd" clip-rule="evenodd" d="M216 193C216 190.791 217.791 189 220 189H228C230.209 189 232 190.791 232 193V220H216V193Z" fill="#168AFF"/>
<path fill-rule="evenodd" clip-rule="evenodd" d="M256 143C256 140.791 257.791 139 260 139H268C270.209 139 272 140.791 272 143V220H256V143Z" fill="#168AFF"/>
<path fill-rule="evenodd" clip-rule="evenodd" d="M296 158C296 155.791 297.791 154 300 154H308C310.209 154 312 155.791 312 158V220H296V158Z" fill="#168AFF"/>
<path fill-rule="evenodd" clip-rule="evenodd" d="M337 132C337 129.791 338.791 128 341 128H349C351.209 128 353 129.791 353 132V220H337V132Z" fill="#168AFF"/>
<path fill-rule="evenodd" clip-rule="evenodd" d="M375 178C375 175.791 376.791 174 379 174H387C389.209 174 391 175.791 391 178V220H375V178Z" fill="#168AFF"/>
<path fill-rule="evenodd" clip-rule="evenodd" d="M413 146C413 143.791 414.791 142 417 142H425C427.209 142 429 143.791 429 146V220H413V146Z" fill="#168AFF"/>
<path fill-rule="evenodd" clip-rule="evenodd" d="M451 104C451 101.791 452.791 100 455 100H463C465.209 100 467 101.791 467 104V220H451V104Z" fill="#168AFF"/>
<path d="M31.152 31.744H32.736V43.296H31.152V31.744ZM24.752 30.768H39.28V32.24H24.752V30.768ZM26.224 34.256H36.752V35.728H27.744V41.568H26.224V34.256ZM36.368 34.256H37.936V39.808C37.936 40.2027 37.8827 40.5173 37.776 40.752C37.68 40.9867 37.4827 41.1627 37.184 41.28C36.8747 41.3973 36.4907 41.472 36.032 41.504C35.5733 41.5253 35.008 41.536 34.336 41.536C34.3147 41.312 34.2507 41.0613 34.144 40.784C34.0373 40.496 33.9307 40.2507 33.824 40.048C34.144 40.0587 34.4533 40.0693 34.752 40.08C35.0613 40.0907 35.328 40.096 35.552 40.096C35.776 40.0853 35.9307 40.08 36.016 40.08C36.1547 40.0693 36.2453 40.0427 36.288 40C36.3413 39.9573 36.368 39.888 36.368 39.792V34.256ZM30.48 28.8L31.968 28.352C32.192 28.7253 32.4267 29.1413 32.672 29.6C32.9173 30.048 33.0987 30.4373 33.216 30.768L31.632 31.296C31.568 31.072 31.472 30.8213 31.344 30.544C31.216 30.256 31.0773 29.9573 30.928 29.648C30.7787 29.3387 30.6293 29.056 30.48 28.8ZM41.036 32.368H46.012V33.792H41.036V32.368ZM42.892 28.688H44.316V39.424H42.892V28.688ZM40.812 39.776C41.2387 39.648 41.7293 39.488 42.284 39.296C42.8493 39.0933 43.4413 38.88 44.06 38.656C44.6893 38.4213 45.3133 38.192 45.932 37.968L46.236 39.36C45.3933 39.7013 44.54 40.048 43.676 40.4C42.812 40.7413 42.0227 41.0507 41.308 41.328L40.812 39.776ZM46.3 29.232H53.02V30.672H46.3V29.232ZM53.948 33.6H55.468C55.468 33.6 55.4627 33.6427 55.452 33.728C55.452 33.8133 55.452 33.9093 55.452 34.016C55.452 34.1227 55.4467 34.2133 55.436 34.288C55.3507 35.6747 55.2653 36.8587 55.18 37.84C55.0947 38.8107 55.004 39.616 54.908 40.256C54.812 40.896 54.7053 41.3973 54.588 41.76C54.4813 42.1227 54.3533 42.3893 54.204 42.56C54.044 42.7733 53.868 42.9227 53.676 43.008C53.4947 43.104 53.2813 43.168 53.036 43.2C52.8227 43.232 52.556 43.248 52.236 43.248C51.9267 43.248 51.596 43.2427 51.244 43.232C51.2333 43.0187 51.1907 42.7733 51.116 42.496C51.0413 42.2293 50.9453 42 50.828 41.808C51.148 41.84 51.4413 41.8613 51.708 41.872C51.9853 41.872 52.1933 41.872 52.332 41.872C52.46 41.8827 52.5667 41.872 52.652 41.84C52.7373 41.7973 52.8227 41.728 52.908 41.632C53.0573 41.472 53.1907 41.12 53.308 40.576C53.4253 40.032 53.5373 39.2213 53.644 38.144C53.7613 37.0667 53.8627 35.648 53.948 33.888V33.6ZM46.94 35.232C46.908 35.1253 46.8547 34.9867 46.78 34.816C46.7053 34.6347 46.6253 34.4533 46.54 34.272C46.4653 34.0907 46.3907 33.9413 46.316 33.824C46.5293 33.7813 46.78 33.6853 47.068 33.536C47.356 33.3867 47.6547 33.2107 47.964 33.008C48.124 32.912 48.364 32.752 48.684 32.528C49.0147 32.2933 49.388 32.0213 49.804 31.712C50.22 31.392 50.6413 31.0453 51.068 30.672C51.5053 30.288 51.9107 29.8933 52.284 29.488V29.392L52.988 29.104L54.092 29.968C53.0467 30.9067 51.996 31.7653 50.94 32.544C49.8947 33.312 48.8973 33.9573 47.948 34.48V34.528C47.948 34.528 47.8947 34.5493 47.788 34.592C47.692 34.6347 47.5747 34.6933 47.436 34.768C47.308 34.8427 47.1907 34.9227 47.084 35.008C46.988 35.0933 46.94 35.168 46.94 35.232ZM46.94 35.232V34L47.724 33.6H54.476V35.008H48.364C48.012 35.008 47.7027 35.0293 47.436 35.072C47.18 35.104 47.0147 35.1573 46.94 35.232ZM51.804 34.448L53.132 34.704C52.6093 36.624 51.884 38.304 50.956 39.744C50.0387 41.184 48.924 42.3627 47.612 43.28C47.5267 43.2053 47.4147 43.1147 47.276 43.008C47.1373 42.9013 46.9933 42.7947 46.844 42.688C46.6947 42.5813 46.5613 42.5013 46.444 42.448C47.7987 41.616 48.9187 40.5173 49.804 39.152C50.6893 37.7867 51.356 36.2187 51.804 34.448ZM49.26 34.448L50.588 34.72C50.2467 35.808 49.7667 36.7893 49.148 37.664C48.5293 38.528 47.8307 39.2533 47.052 39.84C46.9773 39.7547 46.8707 39.6587 46.732 39.552C46.5933 39.4453 46.4547 39.344 46.316 39.248C46.1773 39.1413 46.0493 39.056 45.932 38.992C46.7107 38.4907 47.388 37.8507 47.964 37.072C48.54 36.2827 48.972 35.408 49.26 34.448ZM59.656 34.464H68.584V35.968H59.656V34.464ZM68.088 34.464H69.672C69.672 34.464 69.6667 34.512 69.656 34.608C69.656 34.6933 69.656 34.7893 69.656 34.896C69.656 35.0027 69.6507 35.088 69.64 35.152C69.5867 36.368 69.528 37.408 69.464 38.272C69.4107 39.1253 69.3467 39.84 69.272 40.416C69.208 40.9813 69.128 41.4293 69.032 41.76C68.936 42.0907 68.8133 42.336 68.664 42.496C68.4827 42.72 68.2853 42.8747 68.072 42.96C67.8693 43.056 67.624 43.12 67.336 43.152C67.0587 43.1733 66.696 43.184 66.248 43.184C65.8 43.184 65.3307 43.1733 64.84 43.152C64.8293 42.928 64.776 42.672 64.68 42.384C64.5947 42.096 64.4827 41.8453 64.344 41.632C64.8347 41.6747 65.288 41.7013 65.704 41.712C66.1307 41.712 66.44 41.712 66.632 41.712C66.9307 41.712 67.1493 41.648 67.288 41.52C67.4267 41.3707 67.544 41.056 67.64 40.576C67.736 40.096 67.816 39.3867 67.88 38.448C67.9547 37.4987 68.024 36.2613 68.088 34.736V34.464ZM61.672 28.768L63.288 29.216C62.9253 30.1227 62.488 30.9973 61.976 31.84C61.4747 32.672 60.9307 33.44 60.344 34.144C59.7573 34.848 59.1493 35.4613 58.52 35.984C58.424 35.8667 58.296 35.7387 58.136 35.6C57.976 35.4507 57.8107 35.3013 57.64 35.152C57.48 35.0027 57.3413 34.8853 57.224 34.8C57.8533 34.3413 58.4453 33.7973 59 33.168C59.5653 32.5387 60.0773 31.8507 60.536 31.104C60.9947 30.3467 61.3733 29.568 61.672 28.768ZM67.48 28.736C67.7253 29.2587 68.024 29.7973 68.376 30.352C68.728 30.896 69.1067 31.4293 69.512 31.952C69.9173 32.4747 70.3387 32.96 70.776 33.408C71.2133 33.8453 71.64 34.2293 72.056 34.56C71.9387 34.656 71.8 34.7787 71.64 34.928C71.48 35.0773 71.3307 35.232 71.192 35.392C71.0533 35.552 70.936 35.7013 70.84 35.84C70.4133 35.4453 69.9813 35.0027 69.544 34.512C69.1067 34.0107 68.6747 33.472 68.248 32.896C67.832 32.3093 67.4373 31.712 67.064 31.104C66.6907 30.496 66.36 29.888 66.072 29.28L67.48 28.736ZM62.632 34.896H64.232C64.136 35.7813 63.9973 36.64 63.816 37.472C63.6347 38.304 63.3467 39.0933 62.952 39.84C62.5573 40.5867 62.008 41.264 61.304 41.872C60.6 42.4693 59.6773 42.976 58.536 43.392C58.472 43.2533 58.3867 43.104 58.28 42.944C58.1733 42.784 58.056 42.624 57.928 42.464C57.8107 42.3147 57.6933 42.1867 57.576 42.08C58.632 41.728 59.48 41.296 60.12 40.784C60.76 40.272 61.2453 39.7013 61.576 39.072C61.9173 38.432 62.1573 37.76 62.296 37.056C62.4453 36.352 62.5573 35.632 62.632 34.896ZM73.812 30.864H88.02V32.32H73.812V30.864ZM80.932 33.024H82.452V43.344H80.932V33.024ZM76.388 35.04H86.324V36.464H77.908V41.888H76.388V35.04ZM85.652 35.04H87.188V40.128C87.188 40.5013 87.1347 40.7947 87.028 41.008C86.932 41.2213 86.7453 41.392 86.468 41.52C86.1907 41.6267 85.8333 41.696 85.396 41.728C84.9587 41.7493 84.4147 41.7547 83.764 41.744C83.732 41.5413 83.668 41.312 83.572 41.056C83.476 40.7893 83.3747 40.56 83.268 40.368C83.5667 40.3787 83.8547 40.3893 84.132 40.4C84.42 40.4 84.6707 40.4 84.884 40.4C85.0973 40.3893 85.2413 40.384 85.316 40.384C85.444 40.384 85.5293 40.368 85.572 40.336C85.6253 40.2933 85.652 40.2187 85.652 40.112V35.04ZM79.108 28.464L80.676 28.832C80.292 30.1013 79.8067 31.3547 79.22 32.592C78.6333 33.8293 77.924 34.9867 77.092 36.064C76.26 37.1307 75.2893 38.0533 74.18 38.832C74.116 38.704 74.0307 38.5653 73.924 38.416C73.8173 38.256 73.7107 38.096 73.604 37.936C73.4973 37.7653 73.396 37.6267 73.3 37.52C74.0573 37.0187 74.7453 36.4267 75.364 35.744C75.9827 35.0507 76.532 34.304 77.012 33.504C77.492 32.6933 77.908 31.8613 78.26 31.008C78.612 30.1547 78.8947 29.3067 79.108 28.464Z" fill="#111827"/>
<g clip-path="url(#clip3_73_922)">
<path fill-rule="evenodd" clip-rule="evenodd" d="M415 28C415 25.7909 416.791 24 419 24H504C506.209 24 508 25.7909 508 28V44C508 46.2091 506.209 48 504 48H419C416.791 48 415 46.2091 415 44V28Z" fill="#F9FAFB"/>
<g clip-path="url(#clip4_73_922)">
<path d="M435.157 34.47V35.32H441.257V34.47H435.157ZM439.307 35C438.977 37.41 437.727 38.53 435.177 39.05C435.347 39.25 435.557 39.65 435.627 39.87C438.437 39.17 439.827 37.88 440.327 35.06L439.307 35ZM435.747 36.97C437.397 37.78 439.537 39.04 440.557 39.87L441.237 39.14C440.147 38.31 437.967 37.11 436.367 36.35L435.747 36.97ZM437.497 30.66C437.657 31.15 437.847 31.81 437.907 32.23L438.897 32.05C438.807 31.63 438.627 30.99 438.447 30.51L437.497 30.66ZM435.747 36.97L436.647 37.33C437.227 36.24 437.957 34.55 438.367 33.12L437.407 32.98C437.057 34.29 436.337 35.94 435.747 36.97ZM435.467 31.79V33.82H436.357V32.62H440.207V33.81H441.127V31.79H435.467ZM431.897 36.12L432.107 37.03C433.057 36.75 434.277 36.38 435.417 36.02L435.287 35.17C434.057 35.53 432.767 35.9 431.897 36.12ZM432.027 32.52V33.4H435.237V32.52H432.027ZM433.307 30.56V38.81C433.307 38.95 433.247 39 433.117 39C432.987 39 432.577 39 432.147 38.99C432.267 39.23 432.397 39.61 432.417 39.84C433.097 39.85 433.537 39.82 433.827 39.68C434.117 39.54 434.217 39.29 434.217 38.81V30.56H433.307ZM444.237 31.07V31.99H449.357V31.07H444.237ZM444.247 33.47V34.37H449.407V33.47H444.247ZM444.177 35.86V36.78H449.347V35.86H444.177ZM443.617 31.07V34.25C443.617 35.82 443.467 37.81 441.887 39.17C442.097 39.3 442.477 39.65 442.617 39.85C444.327 38.39 444.587 35.99 444.587 34.25V31.07H443.617ZM448.927 31.07V38.54C448.927 38.76 448.857 38.83 448.617 38.84C448.387 38.84 447.567 38.85 446.787 38.82C446.947 39.08 447.127 39.53 447.187 39.81C448.247 39.81 448.927 39.8 449.357 39.63C449.767 39.47 449.927 39.17 449.927 38.56V31.07H448.927Z" fill="#718096"/>
</g>
<g clip-path="url(#clip5_73_922)" filter="url(#filter0_d_73_922)">
<g filter="url(#filter1_d_73_922)">
<path fill-rule="evenodd" clip-rule="evenodd" d="M464 30C464 27.7909 465.791 26 468 26H502C504.209 26 506 27.7909 506 30V42C506 44.2091 504.209 46 502 46H468C465.791 46 464 44.2091 464 42V30Z" fill="white"/>
</g>
<path d="M479.752 34.47V35.32H485.852V34.47H479.752ZM483.902 35C483.572 37.41 482.322 38.53 479.772 39.05C479.942 39.25 480.152 39.65 480.222 39.87C483.032 39.17 484.422 37.88 484.922 35.06L483.902 35ZM480.342 36.97C481.992 37.78 484.132 39.04 485.152 39.87L485.832 39.14C484.742 38.31 482.562 37.11 480.962 36.35L480.342 36.97ZM482.092 30.66C482.252 31.15 482.442 31.81 482.502 32.23L483.492 32.05C483.402 31.63 483.222 30.99 483.042 30.51L482.092 30.66ZM480.342 36.97L481.242 37.33C481.822 36.24 482.552 34.55 482.962 33.12L482.002 32.98C481.652 34.29 480.932 35.94 480.342 36.97ZM480.062 31.79V33.82H480.952V32.62H484.802V33.81H485.722V31.79H480.062ZM476.492 36.12L476.702 37.03C477.652 36.75 478.872 36.38 480.012 36.02L479.882 35.17C478.652 35.53 477.362 35.9 476.492 36.12ZM476.622 32.52V33.4H479.832V32.52H476.622ZM477.902 30.56V38.81C477.902 38.95 477.842 39 477.712 39C477.582 39 477.172 39 476.742 38.99C476.862 39.23 476.992 39.61 477.012 39.84C477.692 39.85 478.132 39.82 478.422 39.68C478.712 39.54 478.812 39.29 478.812 38.81V30.56H477.902ZM488.182 31.04V31.92H494.542V31.04H488.182ZM489.152 32.88V33.62H493.472V32.88H489.152ZM488.922 34.44V35.21H493.702V34.44H488.922ZM487.612 31.04V34.39C487.612 35.9 487.522 37.9 486.512 39.29C486.722 39.41 487.122 39.72 487.272 39.9C488.392 38.39 488.552 36.04 488.552 34.39V31.04H487.612ZM494.172 31.04V38.73C494.172 38.9 494.112 38.96 493.932 38.96C493.762 38.97 493.152 38.98 492.562 38.95C492.692 39.19 492.832 39.59 492.862 39.83C493.752 39.83 494.302 39.82 494.652 39.68C495.002 39.52 495.122 39.27 495.122 38.73V31.04H494.172ZM490.822 32.1V34.87H491.722V32.1H490.822ZM489.852 35.93V36.67H492.362V37.87H489.852V38.6H493.242V35.93H489.852ZM489.362 35.93V39.16H490.222V35.93H489.362Z" fill="#168AFF"/>
</g>
</g>
</g>
<defs>
<filter id="filter0_d_73_922" x="460" y="24" width="50" height="28" filterUnits="userSpaceOnUse" color-interpolation-filters="sRGB">
<feFlood flood-opacity="0" result="BackgroundImageFix"/>
<feColorMatrix in="SourceAlpha" type="matrix" values="0 0 0 0 0 0 0 0 0 0 0 0 0 0 0 0 0 0 127 0" result="hardAlpha"/>
<feOffset dy="2"/>
<feGaussianBlur stdDeviation="2"/>
<feColorMatrix type="matrix" values="0 0 0 0 0.0666667 0 0 0 0 0.0941176 0 0 0 0 0.152941 0 0 0 0.04 0"/>
<feBlend mode="normal" in2="BackgroundImageFix" result="effect1_dropShadow_73_922"/>
<feBlend mode="normal" in="SourceGraphic" in2="effect1_dropShadow_73_922" result="shape"/>
</filter>
<filter id="filter1_d_73_922" x="460" y="24" width="50" height="28" filterUnits="userSpaceOnUse" color-interpolation-filters="sRGB">
<feFlood flood-opacity="0" result="BackgroundImageFix"/>
<feColorMatrix in="SourceAlpha" type="matrix" values="0 0 0 0 0 0 0 0 0 0 0 0 0 0 0 0 0 0 127 0" result="hardAlpha"/>
<feOffset dy="2"/>
<feGaussianBlur stdDeviation="2"/>
<feColorMatrix type="matrix" values="0 0 0 0 0.0666667 0 0 0 0 0.0941176 0 0 0 0 0.152941 0 0 0 0.04 0"/>
<feBlend mode="normal" in2="BackgroundImageFix" result="effect1_dropShadow_73_922"/>
<feBlend mode="normal" in="SourceGraphic" in2="effect1_dropShadow_73_922" result="shape"/>
</filter>
<clipPath id="clip0_73_922">
<rect width="532" height="278" fill="white"/>
</clipPath>
<clipPath id="clip1_73_922">
<rect width="150" height="87" fill="white" transform="translate(24 72)"/>
</clipPath>
<clipPath id="clip2_73_922">
<rect width="150" height="87" fill="white" transform="translate(24 167)"/>
</clipPath>
<clipPath id="clip3_73_922">
<rect width="93" height="24" fill="white" transform="translate(415 24)"/>
</clipPath>
<clipPath id="clip4_73_922">
<rect width="47" height="20" fill="white" transform="translate(417 26)"/>
</clipPath>
<clipPath id="clip5_73_922">
<rect width="42" height="20" fill="white" transform="translate(464 26)"/>
</clipPath>
</defs>
</svg>
