<svg width="376" height="176" viewBox="0 0 376 176" fill="none" xmlns="http://www.w3.org/2000/svg">
<mask id="mask0_37_5300" style="mask-type:alpha" maskUnits="userSpaceOnUse" x="0" y="0" width="376" height="176">
<rect x="0.5" y="0.5" width="375" height="175" fill="#C4C4C4" stroke="#FFA2C0"/>
</mask>
<g mask="url(#mask0_37_5300)">
<rect x="252" width="38" height="176" fill="#6C5DD3" fill-opacity="0.1"/>
<path opacity="0.2" d="M62.8792 93.2599C31.6879 92.4422 2.02716 130.844 -6 146.857V176H408L393.742 49.5563C362.059 56.6071 328.263 42.5056 318.601 42.1544C296.813 42.1544 264.323 82.3568 249.797 103.48C237.871 122.287 222.658 126.307 216.542 125.966C188.103 126.784 166.468 84.7418 159.205 63.6187C152.783 39.9057 145.554 35 142.004 35C136.048 34.9847 127.096 41.9503 117.923 65.6628C108.749 89.3754 94.2233 95.985 88.1074 96.3257C79.553 96.8022 69.3774 93.2597 62.8792 93.2599Z" fill="url(#paint0_linear_37_5300)" stroke="#6C5DD3" stroke-width="2" stroke-linejoin="round"/>
<path d="M-5 146C2.97209 129.824 32.4294 91.0292 63.4066 91.8553C69.8602 91.8551 79.966 95.4338 88.4618 94.9524C94.5358 94.6082 108.961 87.9311 118.072 63.9762C127.183 40.0213 136.074 32.9846 141.989 33C145.514 33 152.694 37.9558 159.072 61.9111C166.285 83.2502 187.771 125.722 216.015 124.896C222.089 125.24 237.198 121.179 249.042 102.18C263.468 80.8408 295.736 40.2275 317.375 40.2275C326.97 40.5823 360.534 54.8279 392 47.7051" stroke="#6C5DD3" stroke-width="2" stroke-linejoin="round"/>
<path d="M270.214 70C272.581 70 274.428 71.83 274.428 74C274.428 76.17 272.581 78 270.214 78C267.847 77.9999 266 76.17 266 74C266 71.83 267.847 70.0001 270.214 70Z" fill="white" stroke="#6C5DD3" stroke-width="2"/>
</g>
<defs>
<linearGradient id="paint0_linear_37_5300" x1="201" y1="35" x2="200.582" y2="176" gradientUnits="userSpaceOnUse">
<stop stop-color="#6C5DD3"/>
<stop offset="1" stop-color="#FF754C" stop-opacity="0.2"/>
</linearGradient>
</defs>
</svg>
