<svg width="633" height="523" viewBox="0 0 633 523" fill="none" xmlns="http://www.w3.org/2000/svg">
<g style="mix-blend-mode:multiply" opacity="0.907529" filter="url(#filter0_f_37_5264)">
<rect x="86.9891" y="86.9891" width="459.022" height="349.017" rx="24" fill="#E6E8F0"/>
</g>
<rect x="70.9884" y="66.9882" width="487.023" height="362.017" rx="24" fill="white"/>
<path d="M106.802 98.6137H109.052V111.502H106.802V98.6137ZM99.7637 97.1376H116.289V99.2617H99.7637V97.1376ZM101.294 101.26H113.156V103.384H103.472V109.738H101.294V101.26ZM112.652 101.26H114.902V107.38C114.902 107.908 114.83 108.328 114.686 108.64C114.554 108.952 114.302 109.198 113.93 109.378C113.546 109.534 113.09 109.636 112.562 109.684C112.046 109.72 111.434 109.738 110.726 109.738C110.678 109.414 110.582 109.054 110.438 108.658C110.294 108.25 110.15 107.902 110.006 107.614C110.306 107.626 110.606 107.638 110.906 107.65C111.218 107.65 111.494 107.65 111.734 107.65C111.986 107.65 112.16 107.65 112.256 107.65C112.4 107.65 112.502 107.626 112.562 107.578C112.622 107.53 112.652 107.452 112.652 107.344V101.26ZM106.1 95.1575L108.242 94.4915C108.482 94.9235 108.734 95.4035 108.998 95.9315C109.274 96.4476 109.478 96.8856 109.61 97.2456L107.342 98.0016C107.27 97.7616 107.162 97.4796 107.018 97.1556C106.886 96.8196 106.736 96.4776 106.568 96.1295C106.412 95.7695 106.256 95.4455 106.1 95.1575ZM117.711 98.9917H123.471V101.044H117.711V98.9917ZM119.673 94.9415H121.689V107.02H119.673V94.9415ZM117.459 107.272C117.963 107.128 118.533 106.948 119.169 106.732C119.817 106.516 120.501 106.282 121.221 106.03C121.941 105.766 122.655 105.508 123.363 105.256L123.795 107.218C122.847 107.614 121.875 108.01 120.879 108.406C119.895 108.802 118.989 109.162 118.161 109.486L117.459 107.272ZM123.723 95.5175H131.319V97.5516H123.723V95.5175ZM132.075 100.342H134.253C134.253 100.342 134.247 100.402 134.235 100.522C134.235 100.63 134.229 100.762 134.217 100.918C134.217 101.062 134.211 101.176 134.199 101.26C134.115 102.82 134.025 104.146 133.929 105.238C133.833 106.33 133.731 107.242 133.623 107.974C133.515 108.694 133.395 109.264 133.263 109.684C133.143 110.104 132.999 110.41 132.831 110.602C132.627 110.878 132.405 111.076 132.165 111.196C131.937 111.316 131.673 111.4 131.373 111.448C131.121 111.484 130.809 111.508 130.437 111.52C130.077 111.532 129.681 111.532 129.249 111.52C129.249 111.22 129.195 110.872 129.087 110.476C128.979 110.092 128.835 109.762 128.655 109.486C129.015 109.522 129.339 109.546 129.627 109.558C129.927 109.57 130.155 109.576 130.311 109.576C130.455 109.576 130.575 109.552 130.671 109.504C130.779 109.456 130.875 109.378 130.959 109.27C131.115 109.09 131.259 108.706 131.391 108.118C131.523 107.518 131.643 106.624 131.751 105.436C131.871 104.236 131.979 102.676 132.075 100.756V100.342ZM124.569 102.628C124.521 102.484 124.443 102.286 124.335 102.034C124.227 101.782 124.113 101.53 123.993 101.278C123.885 101.014 123.783 100.798 123.687 100.63C123.951 100.582 124.245 100.474 124.569 100.306C124.905 100.138 125.241 99.9397 125.577 99.7117C125.757 99.5917 126.027 99.4117 126.387 99.1717C126.747 98.9197 127.149 98.6197 127.593 98.2716C128.049 97.9236 128.511 97.5456 128.979 97.1376C129.459 96.7176 129.897 96.2856 130.293 95.8415V95.7155L131.283 95.3375L132.813 96.5616C131.685 97.6056 130.521 98.5657 129.321 99.4417C128.121 100.306 126.999 101.026 125.955 101.602V101.638C125.955 101.638 125.883 101.674 125.739 101.746C125.607 101.806 125.445 101.89 125.253 101.998C125.073 102.106 124.911 102.22 124.767 102.34C124.635 102.448 124.569 102.544 124.569 102.628ZM124.569 102.628V100.9L125.577 100.342H132.813L132.795 102.358H126.189C125.829 102.358 125.487 102.382 125.163 102.43C124.851 102.478 124.653 102.544 124.569 102.628ZM129.591 101.602L131.481 101.962C130.941 104.062 130.179 105.922 129.195 107.542C128.223 109.15 127.047 110.458 125.667 111.466C125.559 111.358 125.403 111.226 125.199 111.07C124.995 110.926 124.791 110.782 124.587 110.638C124.383 110.494 124.197 110.38 124.029 110.296C125.457 109.396 126.627 108.202 127.539 106.714C128.463 105.214 129.147 103.51 129.591 101.602ZM126.603 101.602L128.493 101.962C128.133 103.174 127.617 104.272 126.945 105.256C126.285 106.24 125.541 107.05 124.713 107.686C124.605 107.578 124.449 107.452 124.245 107.308C124.053 107.164 123.855 107.02 123.651 106.876C123.459 106.72 123.285 106.606 123.129 106.534C123.969 105.994 124.683 105.298 125.271 104.446C125.871 103.582 126.315 102.634 126.603 101.602ZM139.258 94.7615L141.292 95.3915C140.92 96.4116 140.476 97.4376 139.96 98.4697C139.456 99.4897 138.904 100.456 138.304 101.368C137.704 102.28 137.086 103.084 136.449 103.78C136.389 103.6 136.287 103.372 136.143 103.096C136.011 102.808 135.867 102.52 135.711 102.232C135.555 101.944 135.411 101.71 135.279 101.53C135.807 100.978 136.317 100.342 136.81 99.6217C137.314 98.9017 137.77 98.1276 138.178 97.2996C138.598 96.4716 138.958 95.6255 139.258 94.7615ZM137.494 99.7657L139.618 97.6416L139.636 97.6596V111.592H137.494V99.7657ZM143.614 95.1935L145.738 95.6435C145.306 97.2396 144.706 98.7277 143.938 100.108C143.182 101.476 142.27 102.61 141.202 103.51C141.13 103.342 141.016 103.132 140.86 102.88C140.716 102.628 140.554 102.376 140.374 102.124C140.206 101.872 140.056 101.674 139.924 101.53C140.824 100.834 141.58 99.9337 142.192 98.8297C142.816 97.7136 143.29 96.5016 143.614 95.1935ZM142.282 101.548H149.122V103.546H142.282V101.548ZM148.474 101.548H150.598C150.598 101.548 150.598 101.602 150.598 101.71C150.598 101.818 150.598 101.944 150.598 102.088C150.598 102.22 150.592 102.334 150.58 102.43C150.532 103.786 150.478 104.944 150.418 105.904C150.37 106.852 150.304 107.644 150.22 108.28C150.148 108.916 150.064 109.42 149.968 109.792C149.872 110.164 149.752 110.44 149.608 110.62C149.404 110.884 149.194 111.07 148.978 111.178C148.762 111.286 148.504 111.364 148.204 111.412C147.952 111.448 147.634 111.472 147.25 111.484C146.866 111.496 146.458 111.49 146.026 111.466C146.014 111.166 145.954 110.824 145.846 110.44C145.738 110.068 145.6 109.75 145.432 109.486C145.792 109.522 146.122 109.546 146.422 109.558C146.734 109.558 146.974 109.558 147.142 109.558C147.274 109.558 147.388 109.546 147.484 109.522C147.58 109.486 147.67 109.414 147.754 109.306C147.874 109.15 147.976 108.82 148.06 108.316C148.144 107.8 148.222 107.026 148.294 105.994C148.366 104.962 148.426 103.606 148.474 101.926V101.548ZM143.938 103.096L146.08 103.186C145.876 105.262 145.432 106.99 144.748 108.37C144.076 109.738 143.026 110.836 141.598 111.664C141.526 111.52 141.4 111.346 141.22 111.142C141.052 110.938 140.872 110.734 140.68 110.53C140.488 110.338 140.314 110.182 140.158 110.062C141.43 109.426 142.348 108.532 142.912 107.38C143.488 106.228 143.83 104.8 143.938 103.096ZM148.996 95.0495C149.236 96.1055 149.518 97.0236 149.842 97.8036C150.166 98.5837 150.562 99.2677 151.03 99.8557C151.51 100.432 152.086 100.972 152.758 101.476C152.494 101.692 152.224 101.968 151.948 102.304C151.672 102.64 151.462 102.976 151.318 103.312C150.538 102.664 149.872 101.974 149.32 101.242C148.78 100.498 148.33 99.6517 147.97 98.7037C147.61 97.7556 147.298 96.6576 147.034 95.4095L148.996 95.0495ZM162.281 95.7155H170.363V97.5876H162.281V95.7155ZM165.431 96.8676L167.267 97.2816C167.075 97.7856 166.883 98.2716 166.691 98.7397C166.499 99.2077 166.319 99.6157 166.151 99.9637L164.513 99.5497C164.621 99.2977 164.729 99.0157 164.837 98.7037C164.957 98.3917 165.071 98.0736 165.179 97.7496C165.287 97.4256 165.371 97.1316 165.431 96.8676ZM162.425 99.1177H169.805V107.506H167.951V100.756H164.207V107.578H162.425V99.1177ZM165.233 101.404H167.051C167.027 102.844 166.961 104.116 166.853 105.22C166.757 106.324 166.547 107.29 166.223 108.118C165.911 108.934 165.419 109.636 164.747 110.224C164.087 110.812 163.193 111.304 162.065 111.7C161.969 111.46 161.813 111.184 161.597 110.872C161.393 110.572 161.195 110.338 161.003 110.17C162.011 109.834 162.797 109.432 163.361 108.964C163.925 108.484 164.333 107.902 164.585 107.218C164.849 106.534 165.017 105.718 165.089 104.77C165.161 103.81 165.209 102.688 165.233 101.404ZM166.331 108.91L167.429 107.56C167.777 107.812 168.155 108.088 168.563 108.388C168.983 108.688 169.379 108.988 169.751 109.288C170.123 109.576 170.429 109.84 170.669 110.08L169.517 111.592C169.289 111.34 168.989 111.052 168.617 110.728C168.257 110.416 167.873 110.104 167.465 109.792C167.069 109.468 166.691 109.174 166.331 108.91ZM153.766 96.4536H161.993V99.6217H160.049V98.1816H155.62V99.6217H153.766V96.4536ZM155.062 105.868H161.201V111.448H159.239V107.542H156.934V111.448H155.062V105.868ZM155.674 109.306H159.995V110.98H155.674V109.306ZM156.466 98.4337L158.357 98.7937C157.937 99.5737 157.414 100.318 156.79 101.026C156.178 101.734 155.422 102.388 154.522 102.988C154.438 102.832 154.324 102.67 154.18 102.502C154.036 102.322 153.886 102.148 153.73 101.98C153.586 101.812 153.448 101.686 153.316 101.602C154.072 101.158 154.714 100.654 155.242 100.09C155.782 99.5137 156.19 98.9617 156.466 98.4337ZM157.168 99.5857H160.157V101.188H156.358L157.168 99.5857ZM159.851 99.5857H160.283L160.661 99.5317L161.813 100.306C161.345 101.326 160.715 102.238 159.923 103.042C159.143 103.846 158.261 104.536 157.276 105.112C156.304 105.688 155.29 106.144 154.234 106.48C154.198 106.288 154.138 106.06 154.054 105.796C153.97 105.532 153.874 105.28 153.766 105.04C153.67 104.788 153.574 104.59 153.478 104.446C154.426 104.206 155.32 103.87 156.16 103.438C157 103.006 157.744 102.496 158.393 101.908C159.041 101.308 159.527 100.642 159.851 99.9097V99.5857ZM156.448 95.1755L158.501 94.7435C158.669 95.1035 158.855 95.4995 159.059 95.9315C159.275 96.3636 159.437 96.7236 159.545 97.0116L157.402 97.5336C157.306 97.2336 157.168 96.8616 156.988 96.4176C156.808 95.9615 156.628 95.5475 156.448 95.1755ZM155.368 102.898L156.772 101.62C157.192 101.824 157.66 102.052 158.177 102.304C158.693 102.544 159.209 102.796 159.725 103.06C160.253 103.312 160.745 103.564 161.201 103.816C161.669 104.068 162.071 104.296 162.407 104.5L160.913 105.958C160.613 105.754 160.235 105.526 159.779 105.274C159.335 105.01 158.855 104.74 158.339 104.464C157.835 104.188 157.324 103.912 156.808 103.636C156.292 103.36 155.812 103.114 155.368 102.898Z" fill="#081735"/>
<path d="M425.933 102.15V103.398H432.09V102.15H425.933ZM425.933 100.218V101.454H432.09V100.218H425.933ZM425.057 99.4977H433.002V104.13H425.057V99.4977ZM423.485 108.522H434.526V109.386H423.485V108.522ZM427.229 104.61H428.081V108.99H427.229V104.61ZM429.857 104.61H430.721V108.99H429.857V104.61ZM432.846 105.03L433.626 105.39C433.37 105.806 433.082 106.234 432.762 106.674C432.45 107.114 432.158 107.498 431.886 107.826L431.189 107.478C431.373 107.262 431.565 107.014 431.765 106.734C431.974 106.446 432.174 106.154 432.366 105.858C432.558 105.562 432.718 105.286 432.846 105.03ZM424.481 105.426L425.201 105.114C425.369 105.37 425.541 105.646 425.717 105.942C425.893 106.23 426.057 106.514 426.209 106.794C426.369 107.066 426.489 107.306 426.569 107.514L425.837 107.874C425.749 107.658 425.629 107.41 425.477 107.13C425.325 106.85 425.165 106.558 424.997 106.254C424.829 105.95 424.657 105.674 424.481 105.426ZM440.538 103.182H441.51V108.774C441.51 109.062 441.466 109.282 441.378 109.434C441.298 109.586 441.15 109.702 440.934 109.782C440.718 109.854 440.43 109.898 440.07 109.914C439.718 109.93 439.274 109.938 438.738 109.938C438.722 109.802 438.682 109.642 438.618 109.458C438.554 109.282 438.486 109.126 438.414 108.99C438.686 108.998 438.946 109.006 439.194 109.014C439.45 109.022 439.67 109.022 439.854 109.014C440.046 109.014 440.178 109.014 440.25 109.014C440.362 109.006 440.438 108.986 440.478 108.954C440.518 108.922 440.538 108.858 440.538 108.762V103.182ZM437.814 104.778L438.738 105.03C438.546 105.518 438.314 105.998 438.042 106.47C437.778 106.942 437.49 107.382 437.178 107.79C436.874 108.198 436.566 108.554 436.254 108.858C436.198 108.802 436.118 108.742 436.014 108.678C435.91 108.606 435.802 108.538 435.69 108.474C435.586 108.402 435.498 108.35 435.426 108.318C435.914 107.894 436.366 107.37 436.782 106.746C437.206 106.114 437.55 105.458 437.814 104.778ZM443.214 105.15L444.042 104.802C444.338 105.17 444.626 105.574 444.906 106.014C445.194 106.454 445.454 106.886 445.686 107.31C445.918 107.734 446.094 108.118 446.214 108.462L445.314 108.87C445.21 108.534 445.046 108.15 444.822 107.718C444.598 107.286 444.346 106.846 444.066 106.398C443.786 105.942 443.502 105.526 443.214 105.15ZM436.794 99.7977H445.242V100.686H436.794V99.7977ZM435.726 102.714H446.298V103.602H435.726V102.714ZM450.006 103.158C449.766 103.158 449.554 103.078 449.37 102.918C449.186 102.758 449.094 102.542 449.094 102.27C449.094 101.99 449.186 101.77 449.37 101.61C449.554 101.442 449.766 101.358 450.006 101.358C450.246 101.358 450.458 101.442 450.642 101.61C450.826 101.77 450.918 101.99 450.918 102.27C450.918 102.542 450.826 102.758 450.642 102.918C450.458 103.078 450.246 103.158 450.006 103.158ZM450.006 109.038C449.766 109.038 449.554 108.958 449.37 108.798C449.186 108.63 449.094 108.41 449.094 108.138C449.094 107.866 449.186 107.65 449.37 107.49C449.554 107.322 449.766 107.238 450.006 107.238C450.246 107.238 450.458 107.322 450.642 107.49C450.826 107.65 450.918 107.866 450.918 108.138C450.918 108.41 450.826 108.63 450.642 108.798C450.458 108.958 450.246 109.038 450.006 109.038Z" fill="#8F95B2"/>
<path d="M465.434 102.15H471.711V102.954H465.434V102.15ZM464.57 107.574H473.415V108.378H464.57V107.574ZM465.074 100.122H473.427V100.938H465.074V100.122ZM471.351 102.15H472.239C472.239 102.15 472.239 102.178 472.239 102.234C472.239 102.29 472.235 102.354 472.227 102.426C472.227 102.498 472.227 102.554 472.227 102.594C472.187 103.794 472.147 104.81 472.107 105.642C472.067 106.474 472.019 107.15 471.963 107.67C471.907 108.19 471.843 108.594 471.771 108.882C471.699 109.17 471.615 109.374 471.519 109.494C471.407 109.646 471.283 109.75 471.147 109.806C471.011 109.87 470.851 109.914 470.667 109.938C470.491 109.946 470.263 109.946 469.983 109.938C469.703 109.938 469.415 109.93 469.118 109.914C469.11 109.81 469.086 109.69 469.046 109.554C469.006 109.418 468.958 109.298 468.902 109.194C469.206 109.218 469.483 109.234 469.731 109.242C469.987 109.25 470.175 109.254 470.295 109.254C470.399 109.254 470.483 109.242 470.547 109.218C470.611 109.194 470.671 109.146 470.727 109.074C470.807 108.986 470.875 108.802 470.931 108.522C470.995 108.242 471.051 107.842 471.099 107.322C471.147 106.802 471.191 106.134 471.231 105.318C471.271 104.502 471.311 103.51 471.351 102.342V102.15ZM465.002 102.15H465.902C465.838 102.646 465.77 103.178 465.698 103.746C465.626 104.306 465.55 104.87 465.47 105.438C465.39 106.006 465.31 106.542 465.23 107.046C465.15 107.542 465.074 107.982 465.002 108.366H464.078C464.158 107.974 464.242 107.526 464.33 107.022C464.418 106.51 464.502 105.97 464.582 105.402C464.67 104.834 464.746 104.27 464.81 103.71C464.882 103.15 464.946 102.63 465.002 102.15ZM465.578 98.8377L466.478 99.1017C466.23 99.6457 465.95 100.182 465.638 100.71C465.326 101.238 464.994 101.734 464.642 102.198C464.298 102.654 463.95 103.058 463.598 103.41C463.542 103.362 463.462 103.306 463.358 103.242C463.262 103.17 463.162 103.102 463.058 103.038C462.962 102.966 462.874 102.91 462.794 102.87C463.17 102.55 463.53 102.174 463.874 101.742C464.218 101.31 464.534 100.846 464.822 100.35C465.118 99.8537 465.37 99.3497 465.578 98.8377ZM467.018 103.494L467.534 102.99C467.79 103.102 468.058 103.234 468.338 103.386C468.618 103.538 468.878 103.694 469.118 103.854C469.367 104.014 469.567 104.17 469.719 104.322L469.178 104.886C469.026 104.734 468.83 104.574 468.59 104.406C468.358 104.238 468.102 104.074 467.822 103.914C467.55 103.754 467.282 103.614 467.018 103.494ZM466.706 106.134L467.21 105.618C467.49 105.746 467.774 105.898 468.062 106.074C468.358 106.25 468.634 106.43 468.89 106.614C469.146 106.79 469.355 106.958 469.515 107.118L468.986 107.694C468.834 107.534 468.63 107.358 468.374 107.166C468.118 106.974 467.846 106.79 467.558 106.614C467.27 106.43 466.986 106.27 466.706 106.134ZM462.842 104.826H465.086V104.85H471.711V104.826H473.835V105.642H471.711V105.63H465.086V105.642H462.842V104.826ZM477.375 99.5457H483.627V100.422H477.375V99.5457ZM477.375 102.438H483.687V103.29H477.375V102.438ZM477.279 105.33H483.627V106.206H477.279V105.33ZM476.811 99.5457H477.723V103.242C477.723 103.762 477.695 104.318 477.639 104.91C477.591 105.502 477.487 106.102 477.327 106.71C477.167 107.31 476.927 107.89 476.607 108.45C476.295 109.01 475.879 109.514 475.359 109.962C475.319 109.898 475.255 109.822 475.167 109.734C475.087 109.646 475.003 109.562 474.915 109.482C474.827 109.41 474.747 109.354 474.675 109.314C475.163 108.882 475.547 108.418 475.827 107.922C476.115 107.418 476.327 106.898 476.463 106.362C476.607 105.826 476.699 105.294 476.739 104.766C476.787 104.23 476.811 103.722 476.811 103.242V99.5457ZM483.231 99.5457H484.179V108.618C484.179 108.938 484.131 109.182 484.035 109.35C483.939 109.518 483.779 109.642 483.555 109.722C483.323 109.802 482.999 109.85 482.583 109.866C482.167 109.89 481.639 109.902 480.999 109.902C480.983 109.806 480.951 109.702 480.903 109.59C480.863 109.478 480.815 109.362 480.759 109.242C480.711 109.13 480.663 109.034 480.615 108.954C480.951 108.962 481.271 108.97 481.575 108.978C481.887 108.978 482.155 108.978 482.379 108.978C482.611 108.97 482.771 108.966 482.859 108.966C483.003 108.958 483.099 108.93 483.147 108.882C483.203 108.826 483.231 108.734 483.231 108.606V99.5457Z" fill="#6C5DD3"/>
<path d="M516.51 106.99L513.478 103.99L519.541 103.99L516.51 106.99Z" fill="#8F95B2"/>
<rect x="98.9897" y="135.991" width="421.02" height="1.00005" fill="#E6E8F0"/>
<path d="M156.048 402.004V401.092H158.017V394.78H156.444V394.084C156.836 394.012 157.176 393.924 157.464 393.82C157.761 393.716 158.029 393.592 158.269 393.448H159.109V401.092H160.873V402.004H156.048ZM165.545 402.004V393.208H167.741C168.645 393.208 169.405 393.38 170.021 393.724C170.637 394.06 171.101 394.552 171.413 395.2C171.725 395.848 171.881 396.64 171.881 397.576C171.881 398.504 171.725 399.3 171.413 399.964C171.101 400.628 170.641 401.136 170.033 401.488C169.425 401.832 168.677 402.004 167.789 402.004H165.545ZM166.649 401.092H167.645C168.333 401.092 168.905 400.956 169.361 400.684C169.825 400.404 170.169 400 170.393 399.472C170.625 398.944 170.741 398.312 170.741 397.576C170.741 396.824 170.625 396.192 170.393 395.68C170.169 395.168 169.825 394.78 169.361 394.516C168.905 394.244 168.333 394.108 167.645 394.108H166.649V401.092ZM176.339 402.16C175.755 402.16 175.227 402.024 174.755 401.752C174.283 401.48 173.907 401.092 173.627 400.588C173.355 400.076 173.219 399.464 173.219 398.752C173.219 398.216 173.299 397.74 173.459 397.324C173.619 396.9 173.835 396.54 174.107 396.244C174.387 395.94 174.703 395.712 175.055 395.56C175.407 395.4 175.767 395.32 176.135 395.32C176.695 395.32 177.167 395.444 177.551 395.692C177.935 395.94 178.227 396.296 178.427 396.76C178.635 397.216 178.739 397.756 178.739 398.38C178.739 398.5 178.735 398.612 178.727 398.716C178.719 398.82 178.707 398.916 178.691 399.004H174.299C174.323 399.468 174.427 399.872 174.611 400.216C174.803 400.552 175.055 400.816 175.367 401.008C175.679 401.192 176.043 401.284 176.459 401.284C176.779 401.284 177.067 401.24 177.323 401.152C177.587 401.056 177.843 400.928 178.091 400.768L178.475 401.5C178.195 401.684 177.879 401.84 177.527 401.968C177.175 402.096 176.779 402.16 176.339 402.16ZM174.287 398.224H177.779C177.779 397.568 177.635 397.068 177.347 396.724C177.067 396.372 176.671 396.196 176.159 396.196C175.855 396.196 175.567 396.276 175.295 396.436C175.031 396.596 174.807 396.824 174.623 397.12C174.447 397.416 174.335 397.784 174.287 398.224ZM182.912 402.16C182.336 402.16 181.816 402.028 181.352 401.764C180.896 401.492 180.532 401.104 180.26 400.6C179.996 400.088 179.864 399.472 179.864 398.752C179.864 398.024 180.008 397.408 180.296 396.904C180.584 396.392 180.968 396 181.448 395.728C181.928 395.456 182.444 395.32 182.996 395.32C183.42 395.32 183.784 395.396 184.088 395.548C184.4 395.7 184.668 395.88 184.892 396.088L184.34 396.808C184.156 396.64 183.956 396.504 183.74 396.4C183.532 396.296 183.3 396.244 183.044 396.244C182.652 396.244 182.3 396.348 181.988 396.556C181.676 396.764 181.432 397.056 181.256 397.432C181.08 397.808 180.992 398.248 180.992 398.752C180.992 399.248 181.076 399.684 181.244 400.06C181.42 400.436 181.656 400.728 181.952 400.936C182.256 401.144 182.608 401.248 183.008 401.248C183.312 401.248 183.592 401.188 183.848 401.068C184.104 400.94 184.336 400.784 184.544 400.6L185.024 401.344C184.728 401.6 184.4 401.8 184.04 401.944C183.68 402.088 183.304 402.16 182.912 402.16Z" fill="#8F95B2"/>
<path d="M126.327 376.159C125.775 376.159 125.291 375.991 124.875 375.655C124.467 375.319 124.151 374.811 123.927 374.131C123.703 373.451 123.591 372.599 123.591 371.575C123.591 370.551 123.703 369.707 123.927 369.042C124.151 368.37 124.467 367.87 124.875 367.542C125.291 367.214 125.775 367.05 126.327 367.05C126.887 367.05 127.371 367.218 127.779 367.554C128.187 367.882 128.503 368.378 128.727 369.042C128.951 369.707 129.063 370.551 129.063 371.575C129.063 372.599 128.951 373.451 128.727 374.131C128.503 374.811 128.187 375.319 127.779 375.655C127.371 375.991 126.887 376.159 126.327 376.159ZM126.327 375.271C126.663 375.271 126.955 375.143 127.203 374.887C127.459 374.631 127.655 374.231 127.791 373.687C127.935 373.135 128.007 372.431 128.007 371.575C128.007 370.719 127.935 370.023 127.791 369.487C127.655 368.942 127.459 368.546 127.203 368.298C126.955 368.042 126.663 367.914 126.327 367.914C125.999 367.914 125.707 368.042 125.451 368.298C125.195 368.546 124.995 368.942 124.851 369.487C124.715 370.023 124.647 370.719 124.647 371.575C124.647 372.431 124.715 373.135 124.851 373.687C124.995 374.231 125.195 374.631 125.451 374.887C125.707 375.143 125.999 375.271 126.327 375.271Z" fill="#8F95B2"/>
<path d="M126.135 332.157C125.679 332.157 125.275 332.101 124.923 331.989C124.579 331.877 124.275 331.733 124.011 331.557C123.755 331.381 123.523 331.193 123.315 330.993L123.867 330.273C124.035 330.441 124.219 330.601 124.419 330.753C124.627 330.897 124.863 331.017 125.127 331.113C125.391 331.201 125.691 331.245 126.027 331.245C126.371 331.245 126.683 331.165 126.963 331.005C127.251 330.845 127.479 330.621 127.647 330.333C127.815 330.045 127.899 329.701 127.899 329.301C127.899 328.701 127.731 328.237 127.395 327.909C127.067 327.573 126.627 327.405 126.075 327.405C125.787 327.405 125.535 327.453 125.319 327.549C125.103 327.637 124.867 327.765 124.611 327.933L124.023 327.561L124.311 323.444H128.583V324.392H125.271L125.043 326.936C125.235 326.824 125.435 326.74 125.643 326.684C125.859 326.62 126.099 326.588 126.363 326.588C126.851 326.588 127.295 326.684 127.695 326.876C128.095 327.061 128.415 327.353 128.655 327.753C128.895 328.145 129.015 328.649 129.015 329.265C129.015 329.881 128.875 330.405 128.595 330.837C128.323 331.269 127.967 331.597 127.527 331.821C127.087 332.045 126.623 332.157 126.135 332.157ZM132.984 332.157C132.416 332.157 131.928 331.985 131.52 331.641C131.111 331.297 130.795 330.793 130.571 330.129C130.355 329.465 130.247 328.653 130.247 327.693C130.247 326.74 130.355 325.936 130.571 325.28C130.795 324.624 131.111 324.128 131.52 323.792C131.928 323.456 132.416 323.288 132.984 323.288C133.552 323.288 134.04 323.456 134.448 323.792C134.856 324.128 135.168 324.624 135.384 325.28C135.608 325.936 135.72 326.74 135.72 327.693C135.72 328.653 135.608 329.465 135.384 330.129C135.168 330.793 134.856 331.297 134.448 331.641C134.04 331.985 133.552 332.157 132.984 332.157ZM132.984 331.269C133.32 331.269 133.612 331.145 133.86 330.897C134.116 330.649 134.312 330.261 134.448 329.733C134.592 329.205 134.664 328.525 134.664 327.693C134.664 326.86 134.592 326.184 134.448 325.664C134.312 325.144 134.116 324.764 133.86 324.524C133.612 324.284 133.32 324.164 132.984 324.164C132.656 324.164 132.364 324.284 132.108 324.524C131.852 324.764 131.652 325.144 131.508 325.664C131.371 326.184 131.303 326.86 131.303 327.693C131.303 328.525 131.371 329.205 131.508 329.733C131.652 330.261 131.852 330.649 132.108 330.897C132.364 331.145 132.656 331.269 132.984 331.269ZM137.408 332.001V322.448H138.488V328.917H138.536L141.296 325.484H142.52L140.348 328.113L142.808 332.001H141.62L139.712 328.857L138.488 330.285V332.001H137.408Z" fill="#8F95B2"/>
<path d="M120.047 287.999V287.087H122.015V280.774H120.443V280.078C120.835 280.006 121.175 279.918 121.463 279.814C121.759 279.71 122.027 279.586 122.267 279.442H123.107V287.087H124.871V287.999H120.047ZM128.983 288.155C128.415 288.155 127.927 287.983 127.519 287.639C127.111 287.295 126.795 286.791 126.571 286.127C126.355 285.463 126.247 284.65 126.247 283.69C126.247 282.738 126.355 281.934 126.571 281.278C126.795 280.622 127.111 280.126 127.519 279.79C127.927 279.454 128.415 279.286 128.983 279.286C129.551 279.286 130.039 279.454 130.447 279.79C130.855 280.126 131.167 280.622 131.383 281.278C131.608 281.934 131.72 282.738 131.72 283.69C131.72 284.65 131.608 285.463 131.383 286.127C131.167 286.791 130.855 287.295 130.447 287.639C130.039 287.983 129.551 288.155 128.983 288.155ZM128.983 287.267C129.319 287.267 129.611 287.143 129.859 286.895C130.115 286.647 130.311 286.259 130.447 285.731C130.591 285.203 130.663 284.522 130.663 283.69C130.663 282.858 130.591 282.182 130.447 281.662C130.311 281.142 130.115 280.762 129.859 280.522C129.611 280.282 129.319 280.162 128.983 280.162C128.655 280.162 128.363 280.282 128.107 280.522C127.851 280.762 127.651 281.142 127.507 281.662C127.371 282.182 127.303 282.858 127.303 283.69C127.303 284.522 127.371 285.203 127.507 285.731C127.651 286.259 127.851 286.647 128.107 286.895C128.363 287.143 128.655 287.267 128.983 287.267ZM135.64 288.155C135.072 288.155 134.584 287.983 134.176 287.639C133.768 287.295 133.452 286.791 133.228 286.127C133.012 285.463 132.904 284.65 132.904 283.69C132.904 282.738 133.012 281.934 133.228 281.278C133.452 280.622 133.768 280.126 134.176 279.79C134.584 279.454 135.072 279.286 135.64 279.286C136.208 279.286 136.696 279.454 137.104 279.79C137.512 280.126 137.824 280.622 138.04 281.278C138.264 281.934 138.376 282.738 138.376 283.69C138.376 284.65 138.264 285.463 138.04 286.127C137.824 286.791 137.512 287.295 137.104 287.639C136.696 287.983 136.208 288.155 135.64 288.155ZM135.64 287.267C135.976 287.267 136.268 287.143 136.516 286.895C136.772 286.647 136.968 286.259 137.104 285.731C137.248 285.203 137.32 284.522 137.32 283.69C137.32 282.858 137.248 282.182 137.104 281.662C136.968 281.142 136.772 280.762 136.516 280.522C136.268 280.282 135.976 280.162 135.64 280.162C135.312 280.162 135.02 280.282 134.764 280.522C134.508 280.762 134.308 281.142 134.164 281.662C134.028 282.182 133.96 282.858 133.96 283.69C133.96 284.522 134.028 285.203 134.164 285.731C134.308 286.259 134.508 286.647 134.764 286.895C135.02 287.143 135.312 287.267 135.64 287.267ZM140.064 287.999V278.446H141.144V284.915H141.192L143.953 281.482H145.177L143.005 284.11L145.465 287.999H144.277L142.369 284.854L141.144 286.283V287.999H140.064Z" fill="#8F95B2"/>
<path d="M120.047 243.997V243.085H122.015V236.772H120.443V236.076C120.835 236.004 121.175 235.916 121.463 235.812C121.759 235.708 122.027 235.584 122.267 235.44H123.107V243.085H124.871V243.997H120.047ZM128.791 244.153C128.335 244.153 127.931 244.097 127.579 243.985C127.235 243.873 126.931 243.729 126.667 243.553C126.411 243.377 126.179 243.189 125.971 242.989L126.523 242.268C126.691 242.436 126.875 242.596 127.075 242.749C127.283 242.893 127.519 243.013 127.783 243.109C128.047 243.197 128.347 243.241 128.683 243.241C129.027 243.241 129.339 243.161 129.619 243.001C129.907 242.841 130.135 242.616 130.303 242.328C130.471 242.04 130.555 241.696 130.555 241.296C130.555 240.696 130.387 240.232 130.051 239.904C129.723 239.568 129.283 239.4 128.731 239.4C128.443 239.4 128.191 239.448 127.975 239.544C127.759 239.632 127.523 239.76 127.267 239.928L126.679 239.556L126.967 235.44H131.239V236.388H127.927L127.699 238.932C127.891 238.82 128.091 238.736 128.299 238.68C128.515 238.616 128.755 238.584 129.019 238.584C129.507 238.584 129.951 238.68 130.351 238.872C130.751 239.056 131.071 239.348 131.311 239.748C131.552 240.14 131.672 240.644 131.672 241.26C131.672 241.876 131.532 242.4 131.251 242.833C130.979 243.265 130.623 243.593 130.183 243.817C129.743 244.041 129.279 244.153 128.791 244.153ZM135.64 244.153C135.072 244.153 134.584 243.981 134.176 243.637C133.768 243.293 133.452 242.789 133.228 242.124C133.012 241.46 132.904 240.648 132.904 239.688C132.904 238.736 133.012 237.932 133.228 237.276C133.452 236.62 133.768 236.124 134.176 235.788C134.584 235.452 135.072 235.284 135.64 235.284C136.208 235.284 136.696 235.452 137.104 235.788C137.512 236.124 137.824 236.62 138.04 237.276C138.264 237.932 138.376 238.736 138.376 239.688C138.376 240.648 138.264 241.46 138.04 242.124C137.824 242.789 137.512 243.293 137.104 243.637C136.696 243.981 136.208 244.153 135.64 244.153ZM135.64 243.265C135.976 243.265 136.268 243.141 136.516 242.893C136.772 242.644 136.968 242.256 137.104 241.728C137.248 241.2 137.32 240.52 137.32 239.688C137.32 238.856 137.248 238.18 137.104 237.66C136.968 237.14 136.772 236.76 136.516 236.52C136.268 236.28 135.976 236.16 135.64 236.16C135.312 236.16 135.02 236.28 134.764 236.52C134.508 236.76 134.308 237.14 134.164 237.66C134.028 238.18 133.96 238.856 133.96 239.688C133.96 240.52 134.028 241.2 134.164 241.728C134.308 242.256 134.508 242.644 134.764 242.893C135.02 243.141 135.312 243.265 135.64 243.265ZM140.064 243.997V234.444H141.144V240.912H141.192L143.953 237.48H145.177L143.005 240.108L145.465 243.997H144.277L142.369 240.852L141.144 242.28V243.997H140.064Z" fill="#8F95B2"/>
<path d="M119.519 199.994V199.346C120.383 198.49 121.115 197.738 121.715 197.09C122.315 196.434 122.771 195.846 123.083 195.326C123.395 194.798 123.551 194.302 123.551 193.838C123.551 193.51 123.491 193.222 123.371 192.974C123.259 192.718 123.083 192.522 122.843 192.386C122.603 192.242 122.299 192.17 121.931 192.17C121.571 192.17 121.235 192.27 120.923 192.47C120.619 192.67 120.347 192.91 120.107 193.19L119.471 192.578C119.823 192.178 120.203 191.862 120.611 191.63C121.019 191.398 121.503 191.282 122.063 191.282C122.591 191.282 123.043 191.386 123.419 191.594C123.803 191.802 124.099 192.094 124.307 192.47C124.523 192.846 124.631 193.286 124.631 193.79C124.631 194.326 124.479 194.87 124.175 195.422C123.871 195.974 123.455 196.554 122.927 197.162C122.399 197.762 121.799 198.418 121.127 199.13C121.351 199.114 121.591 199.098 121.847 199.082C122.103 199.058 122.343 199.046 122.567 199.046H125.051V199.994H119.519ZM128.983 200.15C128.415 200.15 127.927 199.978 127.519 199.634C127.111 199.29 126.795 198.786 126.571 198.122C126.355 197.458 126.247 196.646 126.247 195.686C126.247 194.734 126.355 193.93 126.571 193.274C126.795 192.618 127.111 192.122 127.519 191.786C127.927 191.45 128.415 191.282 128.983 191.282C129.551 191.282 130.039 191.45 130.447 191.786C130.855 192.122 131.167 192.618 131.383 193.274C131.608 193.93 131.72 194.734 131.72 195.686C131.72 196.646 131.608 197.458 131.383 198.122C131.167 198.786 130.855 199.29 130.447 199.634C130.039 199.978 129.551 200.15 128.983 200.15ZM128.983 199.262C129.319 199.262 129.611 199.138 129.859 198.89C130.115 198.642 130.311 198.254 130.447 197.726C130.591 197.198 130.663 196.518 130.663 195.686C130.663 194.854 130.591 194.178 130.447 193.658C130.311 193.138 130.115 192.758 129.859 192.518C129.611 192.278 129.319 192.158 128.983 192.158C128.655 192.158 128.363 192.278 128.107 192.518C127.851 192.758 127.651 193.138 127.507 193.658C127.371 194.178 127.303 194.854 127.303 195.686C127.303 196.518 127.371 197.198 127.507 197.726C127.651 198.254 127.851 198.642 128.107 198.89C128.363 199.138 128.655 199.262 128.983 199.262ZM135.64 200.15C135.072 200.15 134.584 199.978 134.176 199.634C133.768 199.29 133.452 198.786 133.228 198.122C133.012 197.458 132.904 196.646 132.904 195.686C132.904 194.734 133.012 193.93 133.228 193.274C133.452 192.618 133.768 192.122 134.176 191.786C134.584 191.45 135.072 191.282 135.64 191.282C136.208 191.282 136.696 191.45 137.104 191.786C137.512 192.122 137.824 192.618 138.04 193.274C138.264 193.93 138.376 194.734 138.376 195.686C138.376 196.646 138.264 197.458 138.04 198.122C137.824 198.786 137.512 199.29 137.104 199.634C136.696 199.978 136.208 200.15 135.64 200.15ZM135.64 199.262C135.976 199.262 136.268 199.138 136.516 198.89C136.772 198.642 136.968 198.254 137.104 197.726C137.248 197.198 137.32 196.518 137.32 195.686C137.32 194.854 137.248 194.178 137.104 193.658C136.968 193.138 136.772 192.758 136.516 192.518C136.268 192.278 135.976 192.158 135.64 192.158C135.312 192.158 135.02 192.278 134.764 192.518C134.508 192.758 134.308 193.138 134.164 193.658C134.028 194.178 133.96 194.854 133.96 195.686C133.96 196.518 134.028 197.198 134.164 197.726C134.308 198.254 134.508 198.642 134.764 198.89C135.02 199.138 135.312 199.262 135.64 199.262ZM140.064 199.994V190.442H141.144V196.91H141.192L143.953 193.478H145.177L143.005 196.106L145.465 199.994H144.277L142.369 196.85L141.144 198.278V199.994H140.064Z" fill="#8F95B2"/>
<path d="M410.16 402.16C409.704 402.16 409.3 402.104 408.948 401.992C408.604 401.88 408.3 401.732 408.036 401.548C407.772 401.364 407.544 401.164 407.352 400.948L407.916 400.24C408.172 400.504 408.472 400.74 408.816 400.948C409.168 401.148 409.592 401.248 410.088 401.248C410.44 401.248 410.749 401.184 411.013 401.056C411.285 400.928 411.497 400.748 411.649 400.516C411.801 400.276 411.877 399.996 411.877 399.676C411.877 399.332 411.789 399.036 411.613 398.788C411.445 398.532 411.161 398.336 410.761 398.2C410.36 398.056 409.82 397.984 409.14 397.984V397.132C409.748 397.132 410.228 397.064 410.58 396.928C410.933 396.784 411.185 396.592 411.337 396.352C411.497 396.104 411.577 395.832 411.577 395.536C411.577 395.12 411.445 394.792 411.181 394.552C410.917 394.304 410.552 394.18 410.088 394.18C409.736 394.18 409.404 394.264 409.092 394.432C408.788 394.592 408.512 394.8 408.264 395.056L407.676 394.36C408.012 394.056 408.376 393.804 408.768 393.604C409.168 393.396 409.62 393.292 410.124 393.292C410.62 393.292 411.061 393.376 411.445 393.544C411.837 393.712 412.141 393.96 412.357 394.288C412.581 394.608 412.693 394.996 412.693 395.452C412.693 395.972 412.549 396.4 412.261 396.736C411.973 397.072 411.597 397.324 411.133 397.492V397.54C411.477 397.628 411.789 397.768 412.069 397.96C412.349 398.152 412.573 398.396 412.741 398.692C412.909 398.98 412.993 399.324 412.993 399.724C412.993 400.236 412.865 400.672 412.609 401.032C412.353 401.392 412.013 401.672 411.589 401.872C411.165 402.064 410.688 402.16 410.16 402.16ZM414.717 402.004V401.092H416.685V394.78H415.113V394.084C415.505 394.012 415.845 393.924 416.133 393.82C416.429 393.716 416.697 393.592 416.937 393.448H417.777V401.092H419.541V402.004H414.717ZM424.213 402.004V393.208H426.409C427.313 393.208 428.073 393.38 428.689 393.724C429.305 394.06 429.769 394.552 430.082 395.2C430.394 395.848 430.55 396.64 430.55 397.576C430.55 398.504 430.394 399.3 430.082 399.964C429.769 400.628 429.309 401.136 428.701 401.488C428.093 401.832 427.345 402.004 426.457 402.004H424.213ZM425.317 401.092H426.313C427.001 401.092 427.573 400.956 428.029 400.684C428.493 400.404 428.837 400 429.061 399.472C429.293 398.944 429.409 398.312 429.409 397.576C429.409 396.824 429.293 396.192 429.061 395.68C428.837 395.168 428.493 394.78 428.029 394.516C427.573 394.244 427.001 394.108 426.313 394.108H425.317V401.092ZM435.007 402.16C434.423 402.16 433.895 402.024 433.423 401.752C432.951 401.48 432.575 401.092 432.295 400.588C432.023 400.076 431.887 399.464 431.887 398.752C431.887 398.216 431.967 397.74 432.127 397.324C432.287 396.9 432.503 396.54 432.775 396.244C433.055 395.94 433.371 395.712 433.723 395.56C434.075 395.4 434.435 395.32 434.803 395.32C435.363 395.32 435.836 395.444 436.22 395.692C436.604 395.94 436.896 396.296 437.096 396.76C437.304 397.216 437.408 397.756 437.408 398.38C437.408 398.5 437.404 398.612 437.396 398.716C437.388 398.82 437.376 398.916 437.36 399.004H432.967C432.991 399.468 433.095 399.872 433.279 400.216C433.471 400.552 433.723 400.816 434.035 401.008C434.347 401.192 434.711 401.284 435.127 401.284C435.447 401.284 435.735 401.24 435.992 401.152C436.256 401.056 436.512 400.928 436.76 400.768L437.144 401.5C436.864 401.684 436.548 401.84 436.196 401.968C435.844 402.096 435.447 402.16 435.007 402.16ZM432.955 398.224H436.448C436.448 397.568 436.304 397.068 436.016 396.724C435.735 396.372 435.339 396.196 434.827 396.196C434.523 396.196 434.235 396.276 433.963 396.436C433.699 396.596 433.475 396.824 433.291 397.12C433.115 397.416 433.003 397.784 432.955 398.224ZM441.58 402.16C441.004 402.16 440.484 402.028 440.02 401.764C439.564 401.492 439.2 401.104 438.928 400.6C438.664 400.088 438.532 399.472 438.532 398.752C438.532 398.024 438.676 397.408 438.964 396.904C439.252 396.392 439.636 396 440.116 395.728C440.596 395.456 441.112 395.32 441.664 395.32C442.088 395.32 442.452 395.396 442.756 395.548C443.068 395.7 443.336 395.88 443.56 396.088L443.008 396.808C442.824 396.64 442.624 396.504 442.408 396.4C442.2 396.296 441.968 396.244 441.712 396.244C441.32 396.244 440.968 396.348 440.656 396.556C440.344 396.764 440.1 397.056 439.924 397.432C439.748 397.808 439.66 398.248 439.66 398.752C439.66 399.248 439.744 399.684 439.912 400.06C440.088 400.436 440.324 400.728 440.62 400.936C440.924 401.144 441.276 401.248 441.676 401.248C441.98 401.248 442.26 401.188 442.516 401.068C442.772 400.94 443.004 400.784 443.212 400.6L443.692 401.344C443.396 401.6 443.068 401.8 442.708 401.944C442.348 402.088 441.972 402.16 441.58 402.16Z" fill="#8F95B2"/>
<path d="M494.164 402.16C493.708 402.16 493.304 402.104 492.952 401.992C492.608 401.88 492.304 401.732 492.04 401.548C491.776 401.364 491.548 401.164 491.356 400.948L491.92 400.24C492.176 400.504 492.476 400.74 492.82 400.948C493.172 401.148 493.596 401.248 494.092 401.248C494.444 401.248 494.752 401.184 495.016 401.056C495.289 400.928 495.501 400.748 495.653 400.516C495.805 400.276 495.881 399.996 495.881 399.676C495.881 399.332 495.793 399.036 495.617 398.788C495.449 398.532 495.165 398.336 494.764 398.2C494.364 398.056 493.824 397.984 493.144 397.984V397.132C493.752 397.132 494.232 397.064 494.584 396.928C494.936 396.784 495.189 396.592 495.341 396.352C495.501 396.104 495.581 395.832 495.581 395.536C495.581 395.12 495.449 394.792 495.185 394.552C494.92 394.304 494.556 394.18 494.092 394.18C493.74 394.18 493.408 394.264 493.096 394.432C492.792 394.592 492.516 394.8 492.268 395.056L491.68 394.36C492.016 394.056 492.38 393.804 492.772 393.604C493.172 393.396 493.624 393.292 494.128 393.292C494.624 393.292 495.065 393.376 495.449 393.544C495.841 393.712 496.145 393.96 496.361 394.288C496.585 394.608 496.697 394.996 496.697 395.452C496.697 395.972 496.553 396.4 496.265 396.736C495.977 397.072 495.601 397.324 495.137 397.492V397.54C495.481 397.628 495.793 397.768 496.073 397.96C496.353 398.152 496.577 398.396 496.745 398.692C496.913 398.98 496.997 399.324 496.997 399.724C496.997 400.236 496.869 400.672 496.613 401.032C496.357 401.392 496.017 401.672 495.593 401.872C495.169 402.064 494.692 402.16 494.164 402.16ZM498.721 402.004V401.092H500.689V394.78H499.117V394.084C499.509 394.012 499.849 393.924 500.137 393.82C500.433 393.716 500.701 393.592 500.941 393.448H501.781V401.092H503.545V402.004H498.721ZM508.217 402.004V393.208H510.413C511.317 393.208 512.077 393.38 512.693 393.724C513.309 394.06 513.773 394.552 514.085 395.2C514.398 395.848 514.554 396.64 514.554 397.576C514.554 398.504 514.398 399.3 514.085 399.964C513.773 400.628 513.313 401.136 512.705 401.488C512.097 401.832 511.349 402.004 510.461 402.004H508.217ZM509.321 401.092H510.317C511.005 401.092 511.577 400.956 512.033 400.684C512.497 400.404 512.841 400 513.065 399.472C513.297 398.944 513.413 398.312 513.413 397.576C513.413 396.824 513.297 396.192 513.065 395.68C512.841 395.168 512.497 394.78 512.033 394.516C511.577 394.244 511.005 394.108 510.317 394.108H509.321V401.092ZM519.011 402.16C518.427 402.16 517.899 402.024 517.427 401.752C516.955 401.48 516.579 401.092 516.299 400.588C516.027 400.076 515.891 399.464 515.891 398.752C515.891 398.216 515.971 397.74 516.131 397.324C516.291 396.9 516.507 396.54 516.779 396.244C517.059 395.94 517.375 395.712 517.727 395.56C518.079 395.4 518.439 395.32 518.807 395.32C519.367 395.32 519.839 395.444 520.224 395.692C520.608 395.94 520.9 396.296 521.1 396.76C521.308 397.216 521.412 397.756 521.412 398.38C521.412 398.5 521.408 398.612 521.4 398.716C521.392 398.82 521.38 398.916 521.364 399.004H516.971C516.995 399.468 517.099 399.872 517.283 400.216C517.475 400.552 517.727 400.816 518.039 401.008C518.351 401.192 518.715 401.284 519.131 401.284C519.451 401.284 519.739 401.24 519.995 401.152C520.26 401.056 520.516 400.928 520.764 400.768L521.148 401.5C520.868 401.684 520.552 401.84 520.2 401.968C519.847 402.096 519.451 402.16 519.011 402.16ZM516.959 398.224H520.452C520.452 397.568 520.308 397.068 520.019 396.724C519.739 396.372 519.343 396.196 518.831 396.196C518.527 396.196 518.239 396.276 517.967 396.436C517.703 396.596 517.479 396.824 517.295 397.12C517.119 397.416 517.007 397.784 516.959 398.224ZM525.584 402.16C525.008 402.16 524.488 402.028 524.024 401.764C523.568 401.492 523.204 401.104 522.932 400.6C522.668 400.088 522.536 399.472 522.536 398.752C522.536 398.024 522.68 397.408 522.968 396.904C523.256 396.392 523.64 396 524.12 395.728C524.6 395.456 525.116 395.32 525.668 395.32C526.092 395.32 526.456 395.396 526.76 395.548C527.072 395.7 527.34 395.88 527.564 396.088L527.012 396.808C526.828 396.64 526.628 396.504 526.412 396.4C526.204 396.296 525.972 396.244 525.716 396.244C525.324 396.244 524.972 396.348 524.66 396.556C524.348 396.764 524.104 397.056 523.928 397.432C523.752 397.808 523.664 398.248 523.664 398.752C523.664 399.248 523.748 399.684 523.916 400.06C524.092 400.436 524.328 400.728 524.624 400.936C524.928 401.144 525.28 401.248 525.68 401.248C525.984 401.248 526.264 401.188 526.52 401.068C526.776 400.94 527.008 400.784 527.216 400.6L527.696 401.344C527.4 401.6 527.072 401.8 526.712 401.944C526.352 402.088 525.976 402.16 525.584 402.16Z" fill="#8F95B2"/>
<path d="M242.357 402.16C241.812 402.16 241.328 402.06 240.904 401.86C240.48 401.66 240.148 401.384 239.908 401.032C239.668 400.68 239.548 400.276 239.548 399.82C239.548 399.444 239.624 399.112 239.776 398.824C239.936 398.528 240.14 398.272 240.388 398.056C240.636 397.832 240.892 397.648 241.156 397.504V397.456C240.836 397.232 240.556 396.96 240.316 396.64C240.084 396.312 239.968 395.924 239.968 395.476C239.968 395.036 240.072 394.652 240.28 394.324C240.496 393.996 240.784 393.744 241.144 393.568C241.512 393.384 241.924 393.292 242.381 393.292C242.885 393.292 243.317 393.388 243.677 393.58C244.037 393.772 244.313 394.04 244.505 394.384C244.697 394.728 244.793 395.12 244.793 395.56C244.793 395.864 244.729 396.148 244.601 396.412C244.481 396.676 244.329 396.912 244.145 397.12C243.969 397.32 243.797 397.488 243.629 397.624V397.672C243.877 397.824 244.113 398 244.337 398.2C244.569 398.392 244.753 398.624 244.889 398.896C245.033 399.168 245.105 399.5 245.105 399.892C245.105 400.308 244.989 400.692 244.757 401.044C244.533 401.388 244.213 401.66 243.797 401.86C243.389 402.06 242.909 402.16 242.357 402.16ZM242.957 397.348C243.245 397.084 243.465 396.812 243.617 396.532C243.777 396.244 243.857 395.94 243.857 395.62C243.857 395.34 243.797 395.088 243.677 394.864C243.565 394.632 243.397 394.448 243.173 394.312C242.949 394.176 242.681 394.108 242.369 394.108C241.96 394.108 241.624 394.232 241.36 394.48C241.096 394.728 240.964 395.06 240.964 395.476C240.964 395.82 241.056 396.104 241.24 396.328C241.432 396.552 241.68 396.744 241.984 396.904C242.289 397.056 242.613 397.204 242.957 397.348ZM242.369 401.344C242.713 401.344 243.009 401.28 243.257 401.152C243.513 401.024 243.709 400.848 243.845 400.624C243.989 400.4 244.061 400.144 244.061 399.856C244.061 399.576 243.997 399.336 243.869 399.136C243.741 398.936 243.569 398.764 243.353 398.62C243.145 398.476 242.901 398.344 242.621 398.224C242.341 398.096 242.044 397.972 241.732 397.852C241.38 398.076 241.088 398.344 240.856 398.656C240.632 398.968 240.52 399.324 240.52 399.724C240.52 400.028 240.6 400.304 240.76 400.552C240.92 400.8 241.14 400.996 241.42 401.14C241.708 401.276 242.024 401.344 242.369 401.344ZM249.549 402.004V393.208H251.745C252.649 393.208 253.409 393.38 254.025 393.724C254.641 394.06 255.105 394.552 255.417 395.2C255.729 395.848 255.885 396.64 255.885 397.576C255.885 398.504 255.729 399.3 255.417 399.964C255.105 400.628 254.645 401.136 254.037 401.488C253.429 401.832 252.681 402.004 251.793 402.004H249.549ZM250.653 401.092H251.649C252.337 401.092 252.909 400.956 253.365 400.684C253.829 400.404 254.173 400 254.397 399.472C254.629 398.944 254.745 398.312 254.745 397.576C254.745 396.824 254.629 396.192 254.397 395.68C254.173 395.168 253.829 394.78 253.365 394.516C252.909 394.244 252.337 394.108 251.649 394.108H250.653V401.092ZM260.343 402.16C259.759 402.16 259.231 402.024 258.759 401.752C258.287 401.48 257.911 401.092 257.631 400.588C257.359 400.076 257.223 399.464 257.223 398.752C257.223 398.216 257.303 397.74 257.463 397.324C257.623 396.9 257.839 396.54 258.111 396.244C258.391 395.94 258.707 395.712 259.059 395.56C259.411 395.4 259.771 395.32 260.139 395.32C260.699 395.32 261.171 395.444 261.555 395.692C261.939 395.94 262.231 396.296 262.431 396.76C262.639 397.216 262.743 397.756 262.743 398.38C262.743 398.5 262.739 398.612 262.731 398.716C262.723 398.82 262.711 398.916 262.695 399.004H258.303C258.327 399.468 258.431 399.872 258.615 400.216C258.807 400.552 259.059 400.816 259.371 401.008C259.683 401.192 260.047 401.284 260.463 401.284C260.783 401.284 261.071 401.24 261.327 401.152C261.591 401.056 261.847 400.928 262.095 400.768L262.479 401.5C262.199 401.684 261.883 401.84 261.531 401.968C261.179 402.096 260.783 402.16 260.343 402.16ZM258.291 398.224H261.783C261.783 397.568 261.639 397.068 261.351 396.724C261.071 396.372 260.675 396.196 260.163 396.196C259.859 396.196 259.571 396.276 259.299 396.436C259.035 396.596 258.811 396.824 258.627 397.12C258.451 397.416 258.339 397.784 258.291 398.224ZM266.916 402.16C266.34 402.16 265.82 402.028 265.356 401.764C264.9 401.492 264.536 401.104 264.264 400.6C264 400.088 263.868 399.472 263.868 398.752C263.868 398.024 264.012 397.408 264.3 396.904C264.588 396.392 264.972 396 265.452 395.728C265.932 395.456 266.448 395.32 267 395.32C267.424 395.32 267.788 395.396 268.092 395.548C268.404 395.7 268.672 395.88 268.896 396.088L268.344 396.808C268.16 396.64 267.96 396.504 267.744 396.4C267.536 396.296 267.304 396.244 267.048 396.244C266.656 396.244 266.304 396.348 265.992 396.556C265.68 396.764 265.436 397.056 265.26 397.432C265.084 397.808 264.996 398.248 264.996 398.752C264.996 399.248 265.08 399.684 265.248 400.06C265.424 400.436 265.66 400.728 265.956 400.936C266.26 401.144 266.612 401.248 267.012 401.248C267.316 401.248 267.596 401.188 267.852 401.068C268.108 400.94 268.34 400.784 268.548 400.6L269.028 401.344C268.732 401.6 268.404 401.8 268.044 401.944C267.684 402.088 267.308 402.16 266.916 402.16Z" fill="#8F95B2"/>
<path d="M324.056 402.004V401.092H326.024V394.78H324.452V394.084C324.844 394.012 325.184 393.924 325.472 393.82C325.768 393.716 326.036 393.592 326.276 393.448H327.117V401.092H328.881V402.004H324.056ZM333.257 402.16C332.833 402.16 332.441 402.076 332.081 401.908C331.721 401.74 331.409 401.484 331.145 401.14C330.881 400.796 330.673 400.368 330.521 399.856C330.377 399.336 330.305 398.732 330.305 398.044C330.305 397.188 330.393 396.46 330.569 395.86C330.745 395.252 330.985 394.76 331.289 394.384C331.593 394 331.941 393.724 332.333 393.556C332.725 393.38 333.133 393.292 333.557 393.292C334.021 393.292 334.421 393.38 334.757 393.556C335.093 393.724 335.381 393.936 335.621 394.192L335.009 394.876C334.841 394.668 334.629 394.504 334.373 394.384C334.125 394.264 333.869 394.204 333.605 394.204C333.197 394.204 332.821 394.324 332.477 394.564C332.133 394.804 331.857 395.204 331.649 395.764C331.441 396.324 331.337 397.084 331.337 398.044C331.337 398.748 331.413 399.344 331.565 399.832C331.717 400.312 331.933 400.676 332.213 400.924C332.501 401.172 332.845 401.296 333.245 401.296C333.533 401.296 333.789 401.22 334.013 401.068C334.245 400.908 334.425 400.688 334.553 400.408C334.689 400.128 334.757 399.8 334.757 399.424C334.757 399.048 334.697 398.724 334.577 398.452C334.457 398.18 334.277 397.972 334.037 397.828C333.805 397.676 333.513 397.6 333.161 397.6C332.881 397.6 332.577 397.692 332.249 397.876C331.921 398.06 331.609 398.372 331.313 398.812L331.277 397.948C331.461 397.708 331.665 397.5 331.889 397.324C332.113 397.148 332.349 397.016 332.597 396.928C332.853 396.832 333.097 396.784 333.329 396.784C333.825 396.784 334.257 396.884 334.625 397.084C334.993 397.276 335.277 397.568 335.477 397.96C335.677 398.352 335.777 398.84 335.777 399.424C335.777 399.968 335.661 400.448 335.429 400.864C335.205 401.272 334.901 401.592 334.517 401.824C334.133 402.048 333.713 402.16 333.257 402.16ZM340.209 402.004V393.208H342.405C343.309 393.208 344.069 393.38 344.685 393.724C345.301 394.06 345.766 394.552 346.078 395.2C346.39 395.848 346.546 396.64 346.546 397.576C346.546 398.504 346.39 399.3 346.078 399.964C345.766 400.628 345.305 401.136 344.697 401.488C344.089 401.832 343.341 402.004 342.453 402.004H340.209ZM341.313 401.092H342.309C342.997 401.092 343.569 400.956 344.025 400.684C344.489 400.404 344.833 400 345.057 399.472C345.289 398.944 345.405 398.312 345.405 397.576C345.405 396.824 345.289 396.192 345.057 395.68C344.833 395.168 344.489 394.78 344.025 394.516C343.569 394.244 342.997 394.108 342.309 394.108H341.313V401.092ZM351.003 402.16C350.419 402.16 349.891 402.024 349.419 401.752C348.947 401.48 348.571 401.092 348.291 400.588C348.019 400.076 347.883 399.464 347.883 398.752C347.883 398.216 347.963 397.74 348.123 397.324C348.283 396.9 348.499 396.54 348.771 396.244C349.051 395.94 349.367 395.712 349.719 395.56C350.071 395.4 350.431 395.32 350.799 395.32C351.359 395.32 351.832 395.444 352.216 395.692C352.6 395.94 352.892 396.296 353.092 396.76C353.3 397.216 353.404 397.756 353.404 398.38C353.404 398.5 353.4 398.612 353.392 398.716C353.384 398.82 353.372 398.916 353.356 399.004H348.963C348.987 399.468 349.091 399.872 349.275 400.216C349.467 400.552 349.719 400.816 350.031 401.008C350.343 401.192 350.707 401.284 351.123 401.284C351.444 401.284 351.732 401.24 351.988 401.152C352.252 401.056 352.508 400.928 352.756 400.768L353.14 401.5C352.86 401.684 352.544 401.84 352.192 401.968C351.84 402.096 351.444 402.16 351.003 402.16ZM348.951 398.224H352.444C352.444 397.568 352.3 397.068 352.012 396.724C351.732 396.372 351.335 396.196 350.823 396.196C350.519 396.196 350.231 396.276 349.959 396.436C349.695 396.596 349.471 396.824 349.287 397.12C349.111 397.416 348.999 397.784 348.951 398.224ZM357.576 402.16C357 402.16 356.48 402.028 356.016 401.764C355.56 401.492 355.196 401.104 354.924 400.6C354.66 400.088 354.528 399.472 354.528 398.752C354.528 398.024 354.672 397.408 354.96 396.904C355.248 396.392 355.632 396 356.112 395.728C356.592 395.456 357.108 395.32 357.66 395.32C358.084 395.32 358.448 395.396 358.752 395.548C359.064 395.7 359.332 395.88 359.556 396.088L359.004 396.808C358.82 396.64 358.62 396.504 358.404 396.4C358.196 396.296 357.964 396.244 357.708 396.244C357.316 396.244 356.964 396.348 356.652 396.556C356.34 396.764 356.096 397.056 355.92 397.432C355.744 397.808 355.656 398.248 355.656 398.752C355.656 399.248 355.74 399.684 355.908 400.06C356.084 400.436 356.32 400.728 356.616 400.936C356.92 401.144 357.272 401.248 357.672 401.248C357.976 401.248 358.256 401.188 358.512 401.068C358.768 400.94 359 400.784 359.208 400.6L359.688 401.344C359.392 401.6 359.064 401.8 358.704 401.944C358.344 402.088 357.968 402.16 357.576 402.16Z" fill="#8F95B2"/>
<line x1="154.992" y1="373.503" x2="520.01" y2="373.503" stroke="#E6E8F0" stroke-miterlimit="16" stroke-dasharray="8 8"/>
<line x1="154.992" y1="329.501" x2="520.01" y2="329.501" stroke="#E6E8F0" stroke-miterlimit="16" stroke-dasharray="8 8"/>
<line x1="154.992" y1="285.499" x2="520.01" y2="285.499" stroke="#E6E8F0" stroke-miterlimit="16" stroke-dasharray="8 8"/>
<line x1="154.992" y1="241.496" x2="520.01" y2="241.496" stroke="#D3D8DD" stroke-miterlimit="16" stroke-dasharray="8 8"/>
<line x1="154.992" y1="197.494" x2="520.01" y2="197.494" stroke="#D3D8DD" stroke-miterlimit="16" stroke-dasharray="8 8"/>
<mask id="mask0_37_5264" style="mask-type:alpha" maskUnits="userSpaceOnUse" x="154" y="197" width="378" height="178">
<rect x="155.492" y="198.494" width="375.018" height="175.008" fill="#C4C4C4" stroke="#FFA2C0"/>
</mask>
<g mask="url(#mask0_37_5264)">
<rect x="407.004" y="197.994" width="38.0018" height="176.008" fill="#6C5DD3" fill-opacity="0.1"/>
<path opacity="0.2" d="M217.875 291.259C186.682 290.441 157.02 328.845 148.992 344.858V374.003H563.012L548.753 247.553C517.068 254.604 483.271 240.502 473.609 240.151C451.82 240.151 419.327 280.355 404.801 301.479C392.875 320.287 377.661 324.307 371.545 323.966C343.104 324.784 321.468 282.74 314.205 261.616C307.783 237.902 300.553 232.996 297.003 232.996C291.047 232.981 282.095 239.947 272.92 263.66C263.746 287.374 249.22 293.984 243.104 294.325C234.549 294.801 224.373 291.258 217.875 291.259Z" fill="url(#paint0_linear_37_5264)" stroke="#6C5DD3" stroke-width="2" stroke-linejoin="round"/>
<path d="M149.992 344.001C157.965 327.824 187.423 289.028 218.402 289.854C224.856 289.854 234.962 293.433 243.458 292.951C249.533 292.607 263.959 285.93 273.07 261.974C282.182 238.018 291.073 230.981 296.988 230.996C300.513 230.996 307.694 235.952 314.072 259.908C321.285 281.249 342.772 323.722 371.018 322.896C377.092 323.24 392.202 319.179 404.047 300.179C418.473 278.839 450.742 238.224 472.382 238.224C481.977 238.579 515.543 252.825 547.011 245.702" stroke="#6C5DD3" stroke-width="2" stroke-linejoin="round"/>
<path d="M425.219 267.998C427.586 267.998 429.433 269.828 429.433 271.998C429.433 274.168 427.586 275.998 425.219 275.998C422.852 275.998 421.005 274.168 421.005 271.998C421.005 269.828 422.852 267.998 425.219 267.998Z" fill="white" stroke="#6C5DD3" stroke-width="2"/>
</g>
<path d="M136.451 157.942H137.212V162.983C137.212 163.196 137.245 163.359 137.312 163.473C137.385 163.586 137.515 163.666 137.702 163.713C137.895 163.753 138.175 163.773 138.542 163.773C138.642 163.773 138.815 163.773 139.062 163.773C139.308 163.773 139.588 163.773 139.902 163.773C140.222 163.773 140.542 163.773 140.862 163.773C141.188 163.773 141.482 163.773 141.742 163.773C142.008 163.773 142.212 163.773 142.352 163.773C142.625 163.773 142.845 163.746 143.012 163.693C143.185 163.639 143.318 163.543 143.412 163.403C143.505 163.256 143.575 163.056 143.622 162.803C143.675 162.543 143.719 162.213 143.752 161.813C143.819 161.859 143.895 161.903 143.982 161.943C144.075 161.983 144.169 162.019 144.262 162.053C144.355 162.086 144.439 162.109 144.512 162.123C144.465 162.583 144.402 162.966 144.322 163.273C144.242 163.579 144.125 163.823 143.972 164.003C143.825 164.183 143.618 164.313 143.352 164.393C143.092 164.473 142.755 164.513 142.342 164.513C142.275 164.513 142.145 164.513 141.952 164.513C141.765 164.513 141.538 164.513 141.272 164.513C141.012 164.513 140.738 164.513 140.452 164.513C140.165 164.513 139.892 164.513 139.632 164.513C139.372 164.513 139.148 164.513 138.962 164.513C138.775 164.513 138.648 164.513 138.582 164.513C138.042 164.513 137.615 164.469 137.302 164.383C136.988 164.296 136.768 164.143 136.641 163.923C136.515 163.703 136.451 163.386 136.451 162.973V157.942ZM136.862 159.593H142.762V160.333H136.862V159.593ZM135.921 156.212H143.242V160.833H142.462V156.962H135.921V156.212ZM147.372 158.493H152.812V159.183H147.372V158.493ZM145.652 160.333H154.522V161.043H145.652V160.333ZM148.282 160.823H149.092C149.039 161.309 148.952 161.759 148.832 162.173C148.719 162.586 148.545 162.959 148.312 163.293C148.085 163.626 147.775 163.919 147.382 164.173C146.989 164.426 146.489 164.639 145.882 164.813C145.855 164.746 145.815 164.673 145.762 164.593C145.715 164.513 145.662 164.433 145.602 164.353C145.549 164.279 145.492 164.219 145.432 164.173C145.999 164.033 146.459 163.856 146.812 163.643C147.165 163.429 147.442 163.183 147.642 162.903C147.842 162.623 147.989 162.309 148.082 161.963C148.175 161.609 148.242 161.229 148.282 160.823ZM150.812 160.763H151.572V163.583C151.572 163.729 151.599 163.823 151.652 163.863C151.712 163.903 151.846 163.923 152.052 163.923C152.106 163.923 152.192 163.923 152.312 163.923C152.439 163.923 152.579 163.923 152.732 163.923C152.886 163.923 153.029 163.923 153.162 163.923C153.302 163.923 153.402 163.923 153.462 163.923C153.596 163.923 153.692 163.893 153.752 163.833C153.819 163.773 153.866 163.649 153.892 163.463C153.919 163.269 153.939 162.979 153.952 162.593C154.006 162.639 154.072 162.683 154.152 162.723C154.232 162.756 154.316 162.789 154.402 162.823C154.489 162.849 154.566 162.873 154.632 162.893C154.606 163.353 154.556 163.709 154.482 163.963C154.409 164.209 154.299 164.379 154.152 164.473C154.006 164.566 153.796 164.613 153.522 164.613C153.476 164.613 153.379 164.613 153.232 164.613C153.086 164.613 152.926 164.613 152.752 164.613C152.579 164.613 152.419 164.613 152.272 164.613C152.126 164.613 152.029 164.613 151.982 164.613C151.669 164.613 151.429 164.583 151.262 164.523C151.096 164.469 150.979 164.366 150.912 164.213C150.846 164.066 150.812 163.859 150.812 163.593V160.763ZM149.672 155.592H150.462V157.182H149.672V155.592ZM145.892 156.662H154.302V158.783H153.502V157.382H146.652V158.783H145.892V156.662ZM156.902 159.343H159.383V160.043H156.902V159.343ZM159.093 159.343H159.823C159.823 159.343 159.823 159.363 159.823 159.403C159.823 159.436 159.819 159.479 159.813 159.533C159.813 159.586 159.813 159.629 159.813 159.663C159.799 160.409 159.779 161.016 159.753 161.483C159.733 161.943 159.703 162.293 159.663 162.533C159.629 162.773 159.576 162.939 159.503 163.033C159.423 163.126 159.336 163.193 159.243 163.233C159.156 163.273 159.043 163.303 158.903 163.323C158.769 163.336 158.596 163.343 158.383 163.343C158.169 163.336 157.939 163.326 157.692 163.313C157.686 163.206 157.662 163.089 157.622 162.963C157.589 162.829 157.542 162.713 157.482 162.613C157.709 162.639 157.923 162.656 158.123 162.663C158.323 162.663 158.463 162.663 158.543 162.663C158.616 162.663 158.676 162.656 158.723 162.643C158.776 162.629 158.823 162.599 158.863 162.553C158.909 162.493 158.946 162.359 158.973 162.153C159.006 161.939 159.029 161.619 159.043 161.193C159.063 160.759 159.079 160.183 159.093 159.463V159.343ZM161.903 156.092L162.353 155.632C162.566 155.732 162.786 155.852 163.013 155.992C163.246 156.126 163.463 156.262 163.663 156.402C163.863 156.536 164.029 156.659 164.163 156.772L163.693 157.292C163.566 157.172 163.403 157.042 163.203 156.902C163.003 156.756 162.789 156.612 162.563 156.472C162.336 156.332 162.116 156.206 161.903 156.092ZM163.343 158.803L164.093 158.993C163.666 160.299 163.083 161.433 162.343 162.393C161.603 163.353 160.723 164.136 159.703 164.743C159.663 164.689 159.609 164.623 159.543 164.543C159.476 164.469 159.406 164.393 159.333 164.313C159.266 164.239 159.206 164.176 159.153 164.123C160.166 163.589 161.023 162.873 161.723 161.973C162.423 161.066 162.963 160.009 163.343 158.803ZM156.962 157.292H164.703V158.022H156.962V157.292ZM156.472 157.292H157.252V160.113C157.252 160.466 157.239 160.849 157.212 161.263C157.186 161.676 157.136 162.096 157.062 162.523C156.989 162.949 156.882 163.366 156.742 163.773C156.602 164.173 156.416 164.536 156.182 164.863C156.142 164.809 156.082 164.749 156.002 164.683C155.929 164.616 155.849 164.553 155.762 164.493C155.682 164.433 155.612 164.389 155.552 164.363C155.832 163.949 156.036 163.496 156.162 163.003C156.296 162.509 156.379 162.013 156.412 161.513C156.452 161.006 156.472 160.536 156.472 160.103V157.292ZM160.633 155.602H161.413C161.406 156.529 161.439 157.409 161.513 158.242C161.586 159.076 161.689 159.843 161.823 160.543C161.956 161.236 162.116 161.839 162.303 162.353C162.496 162.859 162.706 163.253 162.933 163.533C163.166 163.813 163.409 163.953 163.663 163.953C163.809 163.953 163.916 163.813 163.983 163.533C164.056 163.246 164.106 162.769 164.133 162.103C164.219 162.183 164.323 162.263 164.443 162.343C164.569 162.423 164.683 162.479 164.783 162.513C164.736 163.086 164.669 163.533 164.583 163.853C164.503 164.173 164.383 164.396 164.223 164.523C164.069 164.656 163.863 164.723 163.603 164.723C163.269 164.723 162.963 164.609 162.683 164.383C162.403 164.156 162.153 163.836 161.933 163.423C161.719 163.009 161.533 162.523 161.373 161.963C161.213 161.396 161.076 160.773 160.963 160.093C160.856 159.413 160.776 158.696 160.723 157.942C160.669 157.182 160.639 156.402 160.633 155.602ZM171.743 159.653L172.533 159.883C172.173 160.809 171.69 161.593 171.083 162.233C170.476 162.873 169.76 163.403 168.933 163.823C168.113 164.236 167.193 164.573 166.173 164.833C166.146 164.766 166.103 164.686 166.043 164.593C165.99 164.506 165.93 164.419 165.863 164.333C165.803 164.246 165.746 164.173 165.693 164.113C166.7 163.906 167.6 163.616 168.393 163.243C169.193 162.863 169.873 162.383 170.433 161.803C171 161.216 171.436 160.499 171.743 159.653ZM168.473 157.932L169.243 158.222C169.003 158.543 168.726 158.856 168.413 159.163C168.106 159.469 167.78 159.759 167.433 160.033C167.093 160.299 166.763 160.533 166.443 160.733C166.403 160.679 166.346 160.616 166.273 160.543C166.2 160.463 166.123 160.386 166.043 160.313C165.963 160.239 165.893 160.179 165.833 160.133C166.16 159.959 166.486 159.756 166.813 159.523C167.14 159.289 167.446 159.039 167.733 158.773C168.026 158.499 168.273 158.219 168.473 157.932ZM168.883 159.713C169.35 160.893 170.086 161.853 171.093 162.593C172.107 163.326 173.387 163.823 174.933 164.083C174.88 164.136 174.82 164.206 174.753 164.293C174.693 164.379 174.633 164.466 174.573 164.553C174.52 164.646 174.473 164.726 174.433 164.793C173.373 164.586 172.44 164.273 171.633 163.853C170.826 163.426 170.136 162.886 169.563 162.233C168.996 161.579 168.533 160.813 168.173 159.933L168.883 159.713ZM165.903 156.892H174.683V157.632H165.903V156.892ZM169.893 155.582H170.653V157.362H169.893V155.582ZM171.473 158.352L172.083 157.902C172.403 158.109 172.733 158.342 173.073 158.603C173.413 158.863 173.733 159.126 174.033 159.393C174.34 159.653 174.59 159.893 174.783 160.113L174.123 160.643C173.95 160.416 173.717 160.169 173.423 159.903C173.13 159.629 172.81 159.359 172.463 159.093C172.123 158.819 171.793 158.573 171.473 158.352ZM177.993 158.262V159.263H182.934V158.262H177.993ZM177.993 156.682V157.662H182.934V156.682H177.993ZM177.253 156.052H183.684V159.893H177.253V156.052ZM177.813 160.743H183.804V161.423H177.813V160.743ZM183.614 160.743H184.374C184.374 160.743 184.37 160.763 184.364 160.803C184.364 160.843 184.36 160.889 184.354 160.943C184.354 160.996 184.35 161.043 184.344 161.083C184.284 161.829 184.217 162.436 184.144 162.903C184.077 163.369 184.004 163.729 183.924 163.983C183.844 164.229 183.754 164.406 183.654 164.513C183.56 164.613 183.457 164.683 183.344 164.723C183.237 164.763 183.11 164.786 182.964 164.793C182.837 164.806 182.66 164.809 182.434 164.803C182.214 164.803 181.977 164.796 181.724 164.783C181.717 164.689 181.697 164.579 181.664 164.453C181.63 164.326 181.584 164.216 181.524 164.123C181.77 164.149 181.997 164.166 182.204 164.173C182.417 164.179 182.567 164.183 182.654 164.183C182.747 164.183 182.82 164.176 182.874 164.163C182.927 164.149 182.977 164.116 183.024 164.063C183.104 163.989 183.177 163.839 183.244 163.613C183.31 163.379 183.374 163.043 183.434 162.603C183.5 162.156 183.56 161.576 183.614 160.863V160.743ZM178.563 159.573L179.294 159.803C179.054 160.196 178.773 160.573 178.453 160.933C178.133 161.293 177.797 161.626 177.443 161.933C177.09 162.239 176.733 162.506 176.373 162.733C176.333 162.686 176.277 162.629 176.203 162.563C176.13 162.489 176.057 162.419 175.983 162.353C175.91 162.286 175.843 162.236 175.783 162.203C176.33 161.889 176.853 161.503 177.353 161.043C177.853 160.583 178.257 160.093 178.563 159.573ZM179.654 160.953L180.364 161.163C180.124 161.636 179.834 162.083 179.494 162.503C179.154 162.923 178.79 163.309 178.403 163.663C178.017 164.016 177.617 164.326 177.203 164.593C177.17 164.546 177.117 164.486 177.043 164.413C176.97 164.346 176.897 164.279 176.823 164.213C176.75 164.146 176.687 164.093 176.633 164.053C177.253 163.699 177.83 163.253 178.363 162.713C178.897 162.166 179.327 161.579 179.654 160.953ZM181.724 161.003L182.444 161.173C182.177 161.926 181.83 162.623 181.404 163.263C180.984 163.896 180.517 164.423 180.004 164.843C179.964 164.803 179.907 164.753 179.834 164.693C179.76 164.633 179.684 164.573 179.604 164.513C179.53 164.459 179.467 164.413 179.414 164.373C179.92 163.986 180.374 163.499 180.774 162.913C181.174 162.326 181.49 161.689 181.724 161.003Z" fill="#081735"/>
<circle cx="122.991" cy="160.993" r="3.00019" stroke="#6C5DD3" stroke-width="2"/>
<path d="M421.005 257.997L423.591 260.583C424.372 261.364 425.638 261.364 426.419 260.583L429.005 257.997H421.005Z" fill="#081735"/>
<rect x="397.004" y="227.996" width="58.0028" height="30.0014" rx="6" fill="#081735"/>
<path d="M415.711 248.997H417.629V238.636H415.151L411.3 244.909V246.323H418.861V244.741H413.303L414.899 242.164C415.193 241.604 415.473 241.03 415.739 240.47H415.795C415.767 241.086 415.711 242.024 415.711 242.626V248.997ZM423.395 249.193C425.495 249.193 426.895 247.359 426.895 243.775C426.895 240.204 425.495 238.454 423.395 238.454C421.281 238.454 419.881 240.204 419.881 243.775C419.881 247.359 421.281 249.193 423.395 249.193ZM423.395 247.583C422.499 247.583 421.827 246.687 421.827 243.775C421.827 240.876 422.499 240.036 423.395 240.036C424.291 240.036 424.949 240.876 424.949 243.775C424.949 246.687 424.291 247.583 423.395 247.583ZM430.491 245.021C431.975 245.021 433.025 243.789 433.025 241.716C433.025 239.644 431.975 238.454 430.491 238.454C429.007 238.454 427.957 239.644 427.957 241.716C427.957 243.789 429.007 245.021 430.491 245.021ZM430.491 243.859C429.875 243.859 429.413 243.229 429.413 241.716C429.413 240.19 429.875 239.616 430.491 239.616C431.093 239.616 431.555 240.19 431.555 241.716C431.555 243.229 431.093 243.859 430.491 243.859ZM430.827 249.193H432.045L437.687 238.454H436.455L430.827 249.193ZM438.023 249.193C439.493 249.193 440.543 247.975 440.543 245.889C440.543 243.817 439.493 242.612 438.023 242.612C436.553 242.612 435.503 243.817 435.503 245.889C435.503 247.975 436.553 249.193 438.023 249.193ZM438.023 248.031C437.421 248.031 436.945 247.415 436.945 245.889C436.945 244.363 437.421 243.789 438.023 243.789C438.625 243.789 439.101 244.363 439.101 245.889C439.101 247.415 438.625 248.031 438.023 248.031Z" fill="white"/>
<defs>
<filter id="filter0_f_37_5264" x="0" y="-3.0519e-05" width="633" height="522.995" filterUnits="userSpaceOnUse" color-interpolation-filters="sRGB">
<feFlood flood-opacity="0" result="BackgroundImageFix"/>
<feBlend mode="normal" in="SourceGraphic" in2="BackgroundImageFix" result="shape"/>
<feGaussianBlur stdDeviation="43.4925" result="effect1_foregroundBlur_37_5264"/>
</filter>
<linearGradient id="paint0_linear_37_5264" x1="356.002" y1="232.996" x2="355.583" y2="374.003" gradientUnits="userSpaceOnUse">
<stop stop-color="#6C5DD3"/>
<stop offset="1" stop-color="#FF754C" stop-opacity="0.2"/>
</linearGradient>
</defs>
</svg>
