<svg width="251" height="120" viewBox="0 0 251 120" fill="none" xmlns="http://www.w3.org/2000/svg">
<path fill-rule="evenodd" clip-rule="evenodd" d="M0 93C0 90.7909 1.79086 89 4 89H12C14.2091 89 16 90.7909 16 93V120H0V93Z" fill="#168AFF"/>
<path fill-rule="evenodd" clip-rule="evenodd" d="M40 43C40 40.7909 41.7909 39 44 39H52C54.2091 39 56 40.7909 56 43V120H40V43Z" fill="#168AFF"/>
<path fill-rule="evenodd" clip-rule="evenodd" d="M80 58C80 55.7909 81.7909 54 84 54H92C94.2091 54 96 55.7909 96 58V120H80V58Z" fill="#168AFF"/>
<path fill-rule="evenodd" clip-rule="evenodd" d="M121 32C121 29.7909 122.791 28 125 28H133C135.209 28 137 29.7909 137 32V120H121V32Z" fill="#168AFF"/>
<path fill-rule="evenodd" clip-rule="evenodd" d="M159 78C159 75.7909 160.791 74 163 74H171C173.209 74 175 75.7909 175 78V120H159V78Z" fill="#168AFF"/>
<path fill-rule="evenodd" clip-rule="evenodd" d="M197 46C197 43.7909 198.791 42 201 42H209C211.209 42 213 43.7909 213 46V120H197V46Z" fill="#168AFF"/>
<path fill-rule="evenodd" clip-rule="evenodd" d="M235 4C235 1.79086 236.791 0 239 0H247C249.209 0 251 1.79086 251 4V120H235V4Z" fill="#168AFF"/>
</svg>
