<svg width="1077" height="291" viewBox="0 0 1077 291" fill="none" xmlns="http://www.w3.org/2000/svg">
<g filter="url(#filter0_d_140_3113)">
<rect x="11.5269" y="5.76347" width="1053.95" height="267.24" rx="16" fill="white"/>
<path d="M72.1242 37.1948L73.9859 36.1338C74.3862 36.5876 74.7732 37.0813 75.1469 37.6152C75.5206 38.1356 75.8475 38.6561 76.1278 39.1766C76.4214 39.697 76.6416 40.1775 76.7884 40.6178L74.7666 41.7989C74.6598 41.3719 74.4663 40.8914 74.186 40.3576C73.9191 39.8238 73.6055 39.2833 73.2452 38.7362C72.8849 38.1757 72.5112 37.6619 72.1242 37.1948ZM65.6183 36.4541L67.2999 35.1129C67.7403 35.3665 68.1673 35.6667 68.581 36.0137C69.0081 36.3473 69.4084 36.6943 69.7821 37.0546C70.1558 37.4016 70.456 37.7152 70.6829 37.9955L68.9413 39.5369C68.7011 39.2299 68.4008 38.8896 68.0405 38.516C67.6802 38.1423 67.2865 37.7753 66.8595 37.415C66.4458 37.0413 66.0321 36.721 65.6183 36.4541ZM62.5556 36.4341H65.1179V40.1374C65.1179 40.4577 65.2046 40.6646 65.3781 40.758C65.5516 40.838 65.9386 40.8781 66.5392 40.8781C66.6459 40.8781 66.8061 40.8781 67.0196 40.8781C67.2465 40.8781 67.4934 40.8781 67.7603 40.8781C68.0405 40.8781 68.3208 40.8781 68.601 40.8781C68.8946 40.8781 69.1615 40.8781 69.4017 40.8781C69.642 40.8781 69.8355 40.8781 69.9823 40.8781C70.2892 40.8781 70.5228 40.838 70.6829 40.758C70.843 40.6646 70.9565 40.4911 71.0232 40.2375C71.1033 39.9706 71.1633 39.5836 71.2034 39.0765C71.3769 39.1966 71.597 39.3167 71.864 39.4368C72.1309 39.5436 72.4044 39.6436 72.6847 39.7371C72.9783 39.8305 73.2385 39.8972 73.4654 39.9372C73.372 40.7646 73.2118 41.4052 72.985 41.859C72.7581 42.3127 72.4178 42.6263 71.964 42.7998C71.5236 42.9733 70.9298 43.06 70.1824 43.06C70.0623 43.06 69.8688 43.06 69.6019 43.06C69.335 43.06 69.0347 43.06 68.7011 43.06C68.3808 43.06 68.0539 43.06 67.7202 43.06C67.3999 43.06 67.1063 43.06 66.8394 43.06C66.5859 43.06 66.399 43.06 66.2789 43.06C65.2914 43.06 64.524 42.9733 63.9769 42.7998C63.4431 42.6263 63.0694 42.326 62.8559 41.899C62.6557 41.4719 62.5556 40.8914 62.5556 40.1574V36.4341ZM59.4928 36.7143L61.7949 37.1347C61.6748 38.0155 61.468 38.923 61.1744 39.8572C60.8808 40.778 60.5204 41.5654 60.0934 42.2193L57.8514 41.1984C58.1049 40.8514 58.3385 40.431 58.552 39.9372C58.7655 39.4435 58.9524 38.9163 59.1125 38.3558C59.2727 37.7953 59.3994 37.2482 59.4928 36.7143ZM61.935 25.4442L63.9969 24.4633C64.4239 24.9705 64.831 25.5243 65.218 26.1248C65.6183 26.7254 65.8919 27.2792 66.0387 27.7863L63.8167 28.8473C63.7367 28.5403 63.5965 28.1867 63.3964 27.7863C63.1962 27.386 62.9693 26.9856 62.7157 26.5853C62.4622 26.1715 62.2019 25.7912 61.935 25.4442ZM70.4427 24.4033L72.9449 25.4442C72.4778 26.2316 72.0041 27.0323 71.5236 27.8464C71.0432 28.6471 70.5895 29.3344 70.1624 29.9082L68.2207 28.9874C68.4876 28.5737 68.7545 28.1066 69.0214 27.5861C69.3017 27.0523 69.5686 26.5119 69.8221 25.9647C70.0757 25.4042 70.2825 24.8837 70.4427 24.4033ZM63.1962 30.5688V33.0911H71.3235V30.5688H63.1962ZM60.5738 28.3268H74.0459V35.3331H60.5738V28.3268ZM81.6728 24.5234L83.9548 25.224C83.5678 26.345 83.1007 27.4794 82.5535 28.6271C82.0197 29.7614 81.4325 30.8424 80.792 31.87C80.1647 32.8842 79.5108 33.7784 78.8302 34.5524C78.7501 34.3522 78.63 34.0987 78.4699 33.7917C78.3231 33.4714 78.1629 33.1511 77.9895 32.8309C77.816 32.5106 77.6558 32.2503 77.509 32.0502C78.0829 31.4363 78.6234 30.729 79.1305 29.9283C79.6509 29.1142 80.1247 28.2467 80.5518 27.3259C80.9921 26.4051 81.3658 25.4709 81.6728 24.5234ZM80.0513 30.0684L82.3334 27.7863V27.8063V43.2202H80.0513V30.0684ZM88.579 24.5434H90.9211V43.1001H88.579V24.5434ZM83.4944 28.0265H96.466V30.3086H83.4944V28.0265ZM85.9366 37.7353H93.6235V39.8772H85.9366V37.7353ZM91.7818 29.3077C92.1288 30.4287 92.5759 31.5631 93.123 32.7108C93.6702 33.8451 94.2774 34.9061 94.9447 35.8936C95.6119 36.8678 96.3059 37.6952 97.0265 38.3758C96.7463 38.576 96.426 38.8563 96.0657 39.2166C95.7187 39.5769 95.4385 39.9172 95.2249 40.2375C94.5043 39.4368 93.817 38.4759 93.1631 37.3549C92.5092 36.2339 91.922 35.0262 91.4015 33.7317C90.881 32.4238 90.434 31.1093 90.0603 29.7881L91.7818 29.3077ZM87.8383 29.1075L89.5799 29.5879C89.2062 30.9759 88.7458 32.3371 88.1986 33.6716C87.6515 35.0061 87.0376 36.2406 86.357 37.3749C85.6764 38.5093 84.9424 39.4835 84.155 40.2976C84.0215 40.1107 83.8547 39.9039 83.6545 39.677C83.4544 39.4368 83.2408 39.2099 83.014 38.9964C82.8004 38.7829 82.6069 38.6094 82.4334 38.4759C83.2075 37.7953 83.9348 36.9546 84.6154 35.9537C85.3094 34.9394 85.9299 33.8451 86.4771 32.6707C87.0376 31.483 87.4913 30.2952 87.8383 29.1075ZM103.993 34.3923H116.704V36.6743H103.993V34.3923ZM104.453 25.3842H115.944V27.6662H104.453V25.3842ZM109.137 25.9046H111.56V43.2402H109.137V25.9046ZM113.722 28.4269L116.024 28.9073C115.863 29.4678 115.697 30.0417 115.523 30.6289C115.35 31.2161 115.176 31.7699 115.003 32.2904C114.843 32.8108 114.676 33.2779 114.502 33.6916L112.621 33.1912C112.767 32.7641 112.914 32.2704 113.061 31.7099C113.208 31.1493 113.335 30.5822 113.441 30.0083C113.561 29.4345 113.655 28.9073 113.722 28.4269ZM104.854 28.9073L106.875 28.4269C107.049 28.9073 107.202 29.4278 107.336 29.9883C107.483 30.5488 107.609 31.096 107.716 31.6298C107.836 32.1502 107.916 32.624 107.956 33.0511L105.814 33.5915C105.774 33.1645 105.708 32.6841 105.614 32.1502C105.521 31.6031 105.407 31.0493 105.274 30.4888C105.14 29.9283 105 29.4011 104.854 28.9073ZM98.8081 26.265L100.309 24.8237C100.656 25.1173 101.03 25.4442 101.43 25.8045C101.844 26.1649 102.231 26.5252 102.592 26.8855C102.965 27.2458 103.265 27.5728 103.492 27.8664L101.871 29.5279C101.671 29.221 101.397 28.8806 101.05 28.507C100.703 28.1333 100.33 27.753 99.9291 27.366C99.5288 26.9656 99.1551 26.5986 98.8081 26.265ZM100.41 43L99.8691 40.838L100.289 40.0974L103.953 37.0546C104.046 37.3749 104.18 37.7353 104.353 38.1356C104.527 38.536 104.68 38.8563 104.814 39.0965C103.959 39.8171 103.265 40.4043 102.732 40.8581C102.198 41.3118 101.771 41.6721 101.451 41.939C101.144 42.2193 100.917 42.4328 100.77 42.5796C100.623 42.7264 100.503 42.8665 100.41 43ZM97.9674 30.6289H101.531V32.9309H97.9674V30.6289ZM100.41 43C100.356 42.7998 100.269 42.5729 100.149 42.3194C100.029 42.0658 99.8958 41.8189 99.749 41.5787C99.6022 41.3385 99.4687 41.145 99.3486 40.9982C99.5488 40.8514 99.7557 40.6312 99.9692 40.3376C100.183 40.0307 100.289 39.657 100.289 39.2166V30.6089H102.531V40.8581C102.531 40.8581 102.425 40.9315 102.211 41.0783C101.998 41.2251 101.751 41.4052 101.471 41.6187C101.19 41.8456 100.943 42.0792 100.73 42.3194C100.516 42.5596 100.41 42.7865 100.41 43ZM121.188 31.8099H132.018V34.1721H121.188V31.8099ZM131.217 31.8099H133.739C133.739 31.8099 133.739 31.8767 133.739 32.0101C133.739 32.1302 133.739 32.277 133.739 32.4505C133.739 32.6107 133.733 32.7441 133.719 32.8509C133.666 34.3322 133.606 35.6067 133.539 36.6743C133.473 37.7419 133.393 38.6361 133.299 39.3567C133.219 40.064 133.119 40.6312 132.999 41.0582C132.879 41.4853 132.732 41.8056 132.558 42.0191C132.305 42.3394 132.031 42.5596 131.738 42.6797C131.444 42.8132 131.11 42.9066 130.737 42.96C130.39 43.0133 129.943 43.04 129.396 43.04C128.862 43.0534 128.295 43.0467 127.694 43.02C127.667 42.6597 127.581 42.246 127.434 41.7789C127.3 41.3251 127.127 40.9315 126.913 40.5978C127.461 40.6512 127.974 40.6846 128.455 40.6979C128.935 40.6979 129.302 40.6979 129.556 40.6979C129.916 40.6979 130.183 40.6112 130.356 40.4377C130.517 40.2642 130.65 39.8839 130.757 39.2967C130.864 38.6961 130.95 37.822 131.017 36.6743C131.097 35.5266 131.164 34.0453 131.217 32.2303V31.8099ZM123.43 24.7036L126.033 25.4442C125.565 26.5919 125.012 27.7063 124.371 28.7872C123.731 29.8549 123.037 30.8491 122.289 31.7699C121.542 32.6774 120.768 33.4648 119.967 34.132C119.834 33.9585 119.64 33.7517 119.387 33.5115C119.133 33.2713 118.873 33.0377 118.606 32.8108C118.352 32.5706 118.125 32.3771 117.925 32.2303C118.699 31.6698 119.433 30.9959 120.127 30.2085C120.835 29.4078 121.468 28.5403 122.029 27.6062C122.603 26.672 123.07 25.7045 123.43 24.7036ZM131.057 24.6635C131.377 25.3041 131.751 25.9647 132.178 26.6453C132.605 27.3126 133.072 27.9665 133.579 28.6071C134.1 29.2476 134.627 29.8482 135.161 30.4087C135.708 30.9692 136.242 31.4696 136.762 31.91C136.562 32.0568 136.335 32.2503 136.082 32.4906C135.841 32.7308 135.608 32.9777 135.381 33.2312C135.154 33.4848 134.967 33.725 134.82 33.9519C134.287 33.4314 133.739 32.8509 133.179 32.2103C132.632 31.5564 132.098 30.8624 131.578 30.1284C131.057 29.3811 130.557 28.6204 130.076 27.8464C129.609 27.0724 129.189 26.305 128.815 25.5443L131.057 24.6635ZM124.591 32.4906H127.134C127.027 33.6116 126.867 34.6992 126.653 35.7535C126.44 36.8078 126.086 37.8087 125.592 38.7562C125.112 39.6903 124.418 40.5444 123.51 41.3185C122.603 42.0925 121.415 42.7598 119.947 43.3203C119.854 43.0934 119.72 42.8465 119.547 42.5796C119.387 42.326 119.206 42.0725 119.006 41.8189C118.806 41.5654 118.613 41.3518 118.426 41.1784C119.76 40.7513 120.821 40.2242 121.609 39.5969C122.396 38.9697 122.99 38.2757 123.39 37.5151C123.791 36.7544 124.071 35.947 124.231 35.0929C124.391 34.2388 124.511 33.3713 124.591 32.4906Z" fill="#081735"/>
<rect x="11.5269" y="51.8639" width="1053.95" height="28.8129" fill="#F9FAFC"/>
<line x1="11.5269" y1="51.5037" x2="1065.47" y2="51.5038" stroke="#E6E8F0" stroke-width="0.719784"/>
<line x1="11.5269" y1="80.3167" x2="1065.47" y2="80.3168" stroke="#E6E8F0" stroke-width="0.719784"/>
<path d="M405.232 61.1305H407.081V66.8756H405.232V61.1305ZM400.635 62.2795L402.163 61.691C402.415 62.0086 402.653 62.3589 402.877 62.7419C403.102 63.1156 403.302 63.4892 403.48 63.8629C403.657 64.2272 403.798 64.5589 403.9 64.8578L402.275 65.5444C402.191 65.2455 402.06 64.9045 401.883 64.5215C401.714 64.1385 401.523 63.7508 401.308 63.3585C401.093 62.9661 400.869 62.6065 400.635 62.2795ZM409.94 61.5508L411.817 62.1113C411.612 62.5224 411.397 62.9428 411.173 63.3725C410.949 63.7929 410.724 64.1945 410.5 64.5776C410.285 64.9606 410.075 65.3015 409.87 65.6005L408.384 65.068C408.571 64.7504 408.763 64.3907 408.959 63.989C409.155 63.5873 409.337 63.1763 409.505 62.7559C409.683 62.3262 409.828 61.9245 409.94 61.5508ZM400.958 65.9928H411.579V74.2883H409.786V67.6883H400.958V65.9928ZM401.448 68.9775H410.43V70.589H401.448V68.9775ZM400.649 72.0463H410.71V73.7138H400.649V72.0463ZM413.793 63.2183H426.545V64.7457H413.793V63.2183ZM415.461 67.9826H419.09V69.2297H415.461V67.9826ZM415.461 70.1405H419.09V71.3737H415.461V70.1405ZM421.332 65.8527H422.873V71.5979H421.332V65.8527ZM418.515 65.6986H420.127V72.6488C420.127 72.9944 420.085 73.2747 420.001 73.4896C419.917 73.7044 419.758 73.8726 419.524 73.994C419.281 74.1155 418.997 74.1902 418.67 74.2182C418.352 74.2462 417.978 74.2602 417.549 74.2602C417.502 74.0454 417.427 73.7978 417.324 73.5176C417.231 73.2467 417.128 73.0178 417.016 72.831C417.268 72.8403 417.521 72.8496 417.773 72.859C418.025 72.859 418.193 72.8543 418.277 72.845C418.361 72.845 418.422 72.8263 418.459 72.7889C418.497 72.7516 418.515 72.6955 418.515 72.6208V65.6986ZM424.134 65.4603H425.788V72.4526C425.788 72.8637 425.737 73.1813 425.634 73.4055C425.54 73.639 425.358 73.8259 425.087 73.966C424.816 74.0874 424.489 74.1668 424.106 74.2042C423.723 74.2416 423.275 74.2556 422.761 74.2462C422.724 74.022 422.644 73.7558 422.523 73.4475C422.411 73.1392 422.289 72.8777 422.159 72.6628C422.523 72.6815 422.864 72.6908 423.182 72.6908C423.509 72.6908 423.728 72.6862 423.84 72.6768C423.952 72.6768 424.027 72.6628 424.064 72.6348C424.111 72.5974 424.134 72.532 424.134 72.4386V65.4603ZM415.727 61.677L417.324 61.1164C417.577 61.3967 417.829 61.705 418.081 62.0413C418.333 62.3776 418.52 62.6812 418.642 62.9521L416.932 63.5406C416.839 63.2884 416.675 62.9848 416.442 62.6298C416.217 62.2748 415.979 61.9572 415.727 61.677ZM422.929 61.0884L424.751 61.6349C424.471 62.0833 424.181 62.5224 423.882 62.9521C423.593 63.3725 423.322 63.7368 423.07 64.0451L421.556 63.5266C421.724 63.3024 421.892 63.0502 422.061 62.7699C422.229 62.4897 422.388 62.2048 422.537 61.9152C422.696 61.6162 422.827 61.3406 422.929 61.0884ZM414.564 65.6986H418.978V67.1138H416.147V74.2182H414.564V65.6986ZM430.889 66.161V71.8361H429.277V67.7164H427.596V66.161H430.889ZM427.792 62.4897L429.025 61.5508C429.277 61.7564 429.539 61.9899 429.81 62.2515C430.09 62.513 430.347 62.7746 430.58 63.0362C430.823 63.2977 431.019 63.536 431.169 63.7508L429.852 64.8158C429.721 64.5916 429.539 64.344 429.305 64.0731C429.081 63.8022 428.833 63.5266 428.562 63.2464C428.301 62.9661 428.044 62.7139 427.792 62.4897ZM430.384 71.1635C430.636 71.1635 430.884 71.2475 431.127 71.4157C431.37 71.5745 431.697 71.752 432.108 71.9482C432.584 72.1817 433.14 72.3359 433.775 72.4106C434.41 72.476 435.102 72.5087 435.849 72.5087C436.325 72.5087 436.863 72.4947 437.46 72.4666C438.058 72.4386 438.652 72.4059 439.24 72.3685C439.829 72.3218 440.352 72.2658 440.809 72.2004C440.753 72.3405 440.693 72.5133 440.627 72.7189C440.562 72.915 440.501 73.1112 440.445 73.3074C440.398 73.5129 440.37 73.6904 440.361 73.8399C440.118 73.8586 439.81 73.8772 439.436 73.8959C439.072 73.9146 438.675 73.9286 438.245 73.938C437.815 73.9566 437.386 73.9707 436.956 73.98C436.526 73.9893 436.143 73.994 435.807 73.994C434.957 73.994 434.214 73.9426 433.579 73.8399C432.953 73.7465 432.374 73.569 431.841 73.3074C431.514 73.1486 431.23 72.9944 430.987 72.845C430.753 72.6862 430.548 72.6068 430.37 72.6068C430.202 72.6068 430.015 72.6862 429.81 72.845C429.604 72.9944 429.394 73.1953 429.179 73.4475C428.964 73.6997 428.749 73.9566 428.534 74.2182L427.498 72.7749C428.002 72.3078 428.511 71.9248 429.025 71.6259C429.539 71.3176 429.992 71.1635 430.384 71.1635ZM439.03 61.1585L439.829 62.5457C439.324 62.6672 438.773 62.7793 438.175 62.882C437.587 62.9755 436.975 63.0549 436.339 63.1202C435.704 63.1856 435.064 63.2417 434.42 63.2884C433.784 63.3258 433.173 63.3585 432.584 63.3865C432.556 63.1903 432.5 62.9661 432.416 62.7139C432.341 62.4523 432.262 62.2328 432.178 62.0553C432.776 62.0179 433.383 61.9759 433.999 61.9292C434.625 61.8731 435.237 61.8077 435.835 61.733C436.442 61.6489 437.017 61.5602 437.559 61.4668C438.1 61.3733 438.591 61.2706 439.03 61.1585ZM435.303 62.6438H437.012V67.9966H435.303V62.6438ZM431.603 64.3954H440.641V65.8527H431.603V64.3954ZM434.196 68.5011V70.1966H438.091V68.5011H434.196ZM432.612 67.1699H439.787V71.5138H432.612V67.1699ZM449.567 66.0349H453.477V67.6323H449.567V66.0349ZM448.755 66.0349H450.422V71.8781C450.422 72.1677 450.459 72.3499 450.534 72.4246C450.609 72.4993 450.786 72.5367 451.067 72.5367C451.123 72.5367 451.221 72.5367 451.361 72.5367C451.501 72.5367 451.655 72.5367 451.823 72.5367C451.991 72.5367 452.15 72.5367 452.3 72.5367C452.459 72.5367 452.571 72.5367 452.636 72.5367C452.814 72.5367 452.944 72.4853 453.028 72.3826C453.122 72.2705 453.187 72.0556 453.225 71.738C453.271 71.4204 453.309 70.9533 453.337 70.3367C453.458 70.4301 453.608 70.5236 453.785 70.617C453.963 70.7011 454.145 70.7805 454.332 70.8552C454.528 70.9206 454.701 70.972 454.85 71.0093C454.794 71.8034 454.696 72.4246 454.556 72.873C454.416 73.3214 454.205 73.639 453.925 73.8259C453.645 74.0127 453.262 74.1061 452.776 74.1061C452.701 74.1061 452.599 74.1061 452.468 74.1061C452.337 74.1061 452.192 74.1061 452.034 74.1061C451.875 74.1061 451.711 74.1061 451.543 74.1061C451.384 74.1061 451.239 74.1061 451.109 74.1061C450.978 74.1061 450.88 74.1061 450.814 74.1061C450.291 74.1061 449.88 74.0407 449.581 73.9099C449.292 73.7885 449.082 73.5643 448.951 73.2373C448.82 72.9197 448.755 72.4666 448.755 71.8781V66.0349ZM448.713 61.775H454.304V68.5151H452.678V63.4005H448.713V61.775ZM442.043 64.2553H447.928V74.022H446.597V65.6425H443.332V74.2182H442.043V64.2553ZM442.729 69.9023H447.227V71.0654H442.729V69.9023ZM442.729 72.0322H447.227V73.3354H442.729V72.0322ZM441.776 61.6489H448.194V63.1202H441.776V61.6489ZM443.668 61.9852H444.761V65.3482H443.668V61.9852ZM445.322 61.9852H446.443V65.3482H445.322V61.9852ZM443.934 65.3342H444.719V66.7635C444.719 67.0251 444.696 67.31 444.649 67.6183C444.612 67.9172 444.532 68.2162 444.411 68.5151C444.299 68.8047 444.135 69.0709 443.92 69.3138C443.855 69.2391 443.757 69.1457 443.626 69.0336C443.505 68.9215 443.397 68.8421 443.304 68.7953C443.491 68.5898 443.626 68.3703 443.71 68.1368C443.803 67.9032 443.864 67.6697 443.892 67.4361C443.92 67.1932 443.934 66.9644 443.934 66.7495V65.3342ZM445.195 65.3342H445.98V67.9125C445.98 68.006 445.985 68.0667 445.994 68.0947C446.003 68.1134 446.031 68.1227 446.078 68.1227C446.097 68.1227 446.12 68.1227 446.148 68.1227C446.186 68.1227 446.218 68.1227 446.246 68.1227C446.284 68.1227 446.312 68.1227 446.33 68.1227C446.433 68.1227 446.494 68.1087 446.513 68.0807C446.597 68.1461 446.709 68.2068 446.849 68.2629C446.989 68.3189 447.12 68.361 447.241 68.389C447.195 68.5852 447.106 68.7299 446.975 68.8234C446.854 68.9074 446.685 68.9495 446.471 68.9495C446.433 68.9495 446.382 68.9495 446.316 68.9495C446.26 68.9495 446.2 68.9495 446.134 68.9495C446.078 68.9495 446.027 68.9495 445.98 68.9495C445.681 68.9495 445.476 68.8841 445.364 68.7533C445.251 68.6225 445.195 68.3469 445.195 67.9266V65.3342ZM458.718 65.1521H468.442V66.4833H458.718V65.1521ZM458.816 69.2437H466.509V70.5469H458.816V69.2437ZM460.609 64.2272H462.193V67.4081H464.771V64.2272H466.41V68.6832H460.609V64.2272ZM466.088 69.2437H466.41L466.705 69.1737L467.756 69.7062C467.373 70.4442 466.873 71.0747 466.256 71.5979C465.649 72.1117 464.953 72.546 464.168 72.901C463.393 73.2467 462.552 73.5223 461.646 73.7278C460.749 73.9333 459.806 74.0921 458.816 74.2042C458.76 74.008 458.661 73.7698 458.521 73.4896C458.391 73.2093 458.26 72.9804 458.129 72.8029C459.026 72.7375 459.89 72.6254 460.721 72.4666C461.553 72.3078 462.319 72.0976 463.019 71.8361C463.72 71.5652 464.332 71.2335 464.855 70.8412C465.378 70.4488 465.789 69.9817 466.088 69.4399V69.2437ZM461.198 70.2246C461.655 70.7384 462.258 71.1775 463.005 71.5418C463.762 71.8968 464.631 72.1817 465.612 72.3966C466.602 72.6021 467.672 72.7469 468.821 72.831C468.699 72.9431 468.578 73.0879 468.456 73.2654C468.335 73.4428 468.218 73.6203 468.106 73.7978C467.994 73.9753 467.905 74.1388 467.84 74.2883C466.644 74.1668 465.537 73.9613 464.519 73.6717C463.51 73.3915 462.604 73.0131 461.8 72.5367C461.006 72.0509 460.324 71.4624 459.754 70.7711L461.198 70.2246ZM457.54 62.3496H468.582V63.905H457.54V62.3496ZM456.756 62.3496H458.423V66.0909C458.423 66.6794 458.405 67.3287 458.367 68.0387C458.339 68.7393 458.278 69.4633 458.185 70.2106C458.092 70.9486 457.956 71.6679 457.779 72.3685C457.601 73.0598 457.368 73.6951 457.078 74.2743C456.966 74.1808 456.816 74.0874 456.63 73.994C456.443 73.9006 456.251 73.8118 456.055 73.7278C455.859 73.6437 455.686 73.583 455.537 73.5456C455.817 73.0038 456.041 72.4153 456.209 71.78C456.377 71.1448 456.499 70.4909 456.574 69.8183C456.648 69.1457 456.695 68.4917 456.714 67.8565C456.742 67.2213 456.756 66.6327 456.756 66.0909V62.3496ZM461.688 61.4107L463.398 61.0324C463.538 61.3313 463.673 61.6629 463.804 62.0273C463.944 62.3823 464.038 62.6905 464.084 62.9521L462.277 63.3725C462.239 63.1202 462.165 62.8073 462.053 62.4336C461.94 62.0506 461.819 61.7096 461.688 61.4107Z" fill="#8F95B2"/>
<path d="M486.204 72.5407C486.258 71.5158 486.348 70.5709 486.476 69.7062C486.605 68.8307 486.786 68.0086 487.021 67.2399C487.256 66.4606 487.56 65.6972 487.934 64.9499C488.318 64.2026 488.793 63.4392 489.359 62.6598H484.026V60.6741H491.905V62.1153C491.222 62.9481 490.667 63.7488 490.24 64.5175C489.823 65.2862 489.503 66.0656 489.279 66.8556C489.065 67.6456 488.905 68.4997 488.799 69.4179C488.702 70.3361 488.628 71.377 488.574 72.5407H486.204ZM497.043 72.7649C496.424 72.7649 495.869 72.6902 495.378 72.5407C494.887 72.4019 494.449 72.2097 494.065 71.9642C493.691 71.708 493.365 71.425 493.088 71.1154L494.193 69.6261C494.556 69.9571 494.951 70.2453 495.378 70.4909C495.816 70.7257 496.301 70.8432 496.835 70.8432C497.241 70.8432 497.593 70.7791 497.892 70.651C498.202 70.5229 498.437 70.3361 498.597 70.0905C498.768 69.845 498.853 69.546 498.853 69.1937C498.853 68.7987 498.757 68.4624 498.565 68.1848C498.383 67.8965 498.058 67.6777 497.588 67.5282C497.118 67.3787 496.456 67.304 495.602 67.304V65.6065C496.328 65.6065 496.899 65.5317 497.316 65.3823C497.732 65.2221 498.026 65.0086 498.196 64.7417C498.378 64.4641 498.469 64.1492 498.469 63.7969C498.469 63.3378 498.33 62.9801 498.052 62.7239C497.775 62.457 497.385 62.3235 496.883 62.3235C496.467 62.3235 496.077 62.4196 495.714 62.6118C495.362 62.7933 495.01 63.0442 494.657 63.3645L493.44 61.9072C493.963 61.4694 494.513 61.1225 495.09 60.8662C495.666 60.5993 496.301 60.4659 496.995 60.4659C497.753 60.4659 498.421 60.5886 498.997 60.8342C499.584 61.0797 500.038 61.4374 500.358 61.9072C500.679 62.3769 500.839 62.9481 500.839 63.6207C500.839 64.2613 500.668 64.8111 500.326 65.2702C499.985 65.7293 499.499 66.0816 498.869 66.3271V66.4072C499.307 66.5246 499.702 66.7168 500.054 66.9837C500.417 67.2399 500.7 67.5656 500.903 67.9606C501.116 68.3556 501.223 68.8147 501.223 69.3378C501.223 70.0531 501.031 70.667 500.647 71.1795C500.273 71.6919 499.766 72.087 499.125 72.3645C498.495 72.6315 497.801 72.7649 497.043 72.7649ZM505.513 67.9766C504.957 67.9766 504.461 67.8271 504.023 67.5282C503.585 67.2293 503.244 66.7969 502.998 66.231C502.753 65.6652 502.63 64.9873 502.63 64.1972C502.63 63.4072 502.753 62.7346 502.998 62.1794C503.244 61.6242 503.585 61.2025 504.023 60.9143C504.461 60.6153 504.957 60.4659 505.513 60.4659C506.089 60.4659 506.591 60.6153 507.018 60.9143C507.456 61.2025 507.797 61.6242 508.043 62.1794C508.288 62.7346 508.411 63.4072 508.411 64.1972C508.411 64.9873 508.288 65.6652 508.043 66.231C507.797 66.7969 507.456 67.2293 507.018 67.5282C506.591 67.8271 506.089 67.9766 505.513 67.9766ZM505.513 66.6474C505.854 66.6474 506.142 66.4606 506.377 66.0869C506.623 65.7026 506.746 65.0727 506.746 64.1972C506.746 63.3324 506.623 62.7186 506.377 62.3556C506.142 61.9819 505.854 61.7951 505.513 61.7951C505.171 61.7951 504.877 61.9819 504.632 62.3556C504.397 62.7186 504.279 63.3324 504.279 64.1972C504.279 65.0727 504.397 65.7026 504.632 66.0869C504.877 66.4606 505.171 66.6474 505.513 66.6474ZM505.897 72.7649L512.351 60.4659H513.744L507.306 72.7649H505.897ZM514.144 72.7649C513.578 72.7649 513.077 72.6154 512.639 72.3165C512.212 72.0176 511.87 71.5852 511.614 71.0193C511.368 70.4535 511.246 69.7756 511.246 68.9855C511.246 68.1848 511.368 67.5069 511.614 66.9517C511.87 66.3965 512.212 65.9748 512.639 65.6866C513.077 65.3876 513.578 65.2381 514.144 65.2381C514.699 65.2381 515.191 65.3876 515.618 65.6866C516.055 65.9748 516.397 66.3965 516.643 66.9517C516.899 67.5069 517.027 68.1848 517.027 68.9855C517.027 69.7756 516.899 70.4535 516.643 71.0193C516.397 71.5852 516.055 72.0176 515.618 72.3165C515.191 72.6154 514.699 72.7649 514.144 72.7649ZM514.144 71.4197C514.486 71.4197 514.774 71.2329 515.009 70.8592C515.244 70.4748 515.361 69.8503 515.361 68.9855C515.361 68.0994 515.244 67.4802 515.009 67.1278C514.774 66.7649 514.486 66.5834 514.144 66.5834C513.792 66.5834 513.498 66.7649 513.263 67.1278C513.029 67.4802 512.911 68.0994 512.911 68.9855C512.911 69.8503 513.029 70.4748 513.263 70.8592C513.498 71.2329 513.792 71.4197 514.144 71.4197Z" fill="#244CB2"/>
<line x1="545.917" y1="56.8093" x2="545.917" y2="76.2609" stroke="#E6E8F0" stroke-width="0.719784"/>
<path d="M566.028 65.1381H573.636V66.7355H566.028V65.1381ZM566.028 68.389H573.636V69.9864H566.028V68.389ZM566.028 71.6259H573.636V73.2654H566.028V71.6259ZM564.823 61.9012H574.814V74.1481H573.02V63.5406H566.518V74.1481H564.823V61.9012ZM583.403 61.9992H589.583V63.5686H583.403V61.9992ZM582.759 65.3482H590.368V66.9177H582.759V65.3482ZM585.505 66.133H587.215V72.3265C587.215 72.7375 587.173 73.0692 587.089 73.3214C587.014 73.5736 586.841 73.7698 586.57 73.9099C586.318 74.0501 586.014 74.1341 585.659 74.1622C585.304 74.1995 584.889 74.2182 584.412 74.2182C584.393 73.9753 584.337 73.6857 584.244 73.3494C584.151 73.0225 584.048 72.7375 583.936 72.4947C584.216 72.504 584.482 72.5087 584.734 72.5087C584.996 72.5087 585.174 72.5087 585.267 72.5087C585.36 72.5087 585.421 72.4947 585.449 72.4666C585.486 72.4293 585.505 72.3685 585.505 72.2845V66.133ZM587.691 68.6272L589.078 68.1508C589.293 68.6178 589.499 69.1223 589.695 69.6641C589.891 70.1966 590.059 70.7151 590.199 71.2195C590.349 71.7146 590.452 72.1584 590.508 72.5507L588.994 73.0972C588.948 72.7049 588.859 72.2564 588.728 71.752C588.597 71.2382 588.443 70.7104 588.266 70.1686C588.088 69.6174 587.897 69.1036 587.691 68.6272ZM583.375 68.2068L584.889 68.5571C584.748 69.1083 584.58 69.6548 584.384 70.1966C584.197 70.7384 583.987 71.2522 583.754 71.738C583.529 72.2238 583.296 72.6535 583.053 73.0271C582.96 72.9431 582.829 72.845 582.661 72.7329C582.502 72.6208 582.338 72.5133 582.17 72.4106C582.002 72.3078 581.857 72.2238 581.736 72.1584C582.1 71.6726 582.422 71.0747 582.703 70.3648C582.992 69.6548 583.216 68.9355 583.375 68.2068ZM577.336 63.905H582.591V65.4603H577.336V63.905ZM579.284 61.1305H580.951V74.2883H579.284V61.1305ZM579.073 64.9699L580.082 65.2922C579.989 65.834 579.867 66.3945 579.718 66.9737C579.578 67.5529 579.414 68.1274 579.228 68.6973C579.05 69.2578 578.849 69.7809 578.625 70.2667C578.41 70.7431 578.181 71.1588 577.938 71.5138C577.892 71.3643 577.817 71.1915 577.714 70.9953C577.621 70.7898 577.518 70.589 577.406 70.3928C577.294 70.1873 577.186 70.0144 577.084 69.8743C577.383 69.4913 577.663 69.0242 577.924 68.4731C578.186 67.9219 578.415 67.338 578.611 66.7215C578.816 66.1049 578.971 65.5211 579.073 64.9699ZM580.881 65.6845C580.965 65.7686 581.096 65.9181 581.273 66.133C581.46 66.3478 581.656 66.5814 581.862 66.8336C582.077 67.0858 582.268 67.3194 582.436 67.5342C582.614 67.7491 582.735 67.8985 582.801 67.9826L581.904 69.3138C581.81 69.1176 581.689 68.8888 581.54 68.6272C581.39 68.3563 581.227 68.0807 581.049 67.8004C580.872 67.5202 580.704 67.2586 580.545 67.0157C580.386 66.7729 580.255 66.572 580.152 66.4132L580.881 65.6845ZM594.585 66.161V71.8361H592.974V67.7164H591.292V66.161H594.585ZM591.489 62.4897L592.722 61.5508C592.974 61.7564 593.235 61.9899 593.506 62.2515C593.787 62.513 594.043 62.7746 594.277 63.0362C594.52 63.2977 594.716 63.536 594.866 63.7508L593.548 64.8158C593.418 64.5916 593.235 64.344 593.002 64.0731C592.778 63.8022 592.53 63.5266 592.259 63.2464C591.998 62.9661 591.741 62.7139 591.489 62.4897ZM594.081 71.1635C594.333 71.1635 594.581 71.2475 594.824 71.4157C595.066 71.5745 595.393 71.752 595.804 71.9482C596.281 72.1817 596.837 72.3359 597.472 72.4106C598.107 72.476 598.798 72.5087 599.546 72.5087C600.022 72.5087 600.559 72.4947 601.157 72.4666C601.755 72.4386 602.348 72.4059 602.937 72.3685C603.525 72.3218 604.048 72.2658 604.506 72.2004C604.45 72.3405 604.389 72.5133 604.324 72.7189C604.259 72.915 604.198 73.1112 604.142 73.3074C604.095 73.5129 604.067 73.6904 604.058 73.8399C603.815 73.8586 603.507 73.8772 603.133 73.8959C602.769 73.9146 602.372 73.9286 601.942 73.938C601.512 73.9566 601.082 73.9707 600.653 73.98C600.223 73.9893 599.84 73.994 599.504 73.994C598.654 73.994 597.911 73.9426 597.276 73.8399C596.65 73.7465 596.071 73.569 595.538 73.3074C595.211 73.1486 594.926 72.9944 594.683 72.845C594.45 72.6862 594.244 72.6068 594.067 72.6068C593.899 72.6068 593.712 72.6862 593.506 72.845C593.301 72.9944 593.091 73.1953 592.876 73.4475C592.661 73.6997 592.446 73.9566 592.231 74.2182L591.194 72.7749C591.699 72.3078 592.208 71.9248 592.722 71.6259C593.235 71.3176 593.688 71.1635 594.081 71.1635ZM602.727 61.1585L603.525 62.5457C603.021 62.6672 602.47 62.7793 601.872 62.882C601.283 62.9755 600.671 63.0549 600.036 63.1202C599.401 63.1856 598.761 63.2417 598.116 63.2884C597.481 63.3258 596.869 63.3585 596.281 63.3865C596.253 63.1903 596.197 62.9661 596.113 62.7139C596.038 62.4523 595.959 62.2328 595.874 62.0553C596.472 62.0179 597.08 61.9759 597.696 61.9292C598.322 61.8731 598.934 61.8077 599.532 61.733C600.139 61.6489 600.713 61.5602 601.255 61.4668C601.797 61.3733 602.288 61.2706 602.727 61.1585ZM598.999 62.6438H600.709V67.9966H598.999V62.6438ZM595.3 64.3954H604.338V65.8527H595.3V64.3954ZM597.892 68.5011V70.1966H601.788V68.5011H597.892ZM596.309 67.1699H603.483V71.5138H596.309V67.1699ZM613.264 66.0349H617.174V67.6323H613.264V66.0349ZM612.451 66.0349H614.119V71.8781C614.119 72.1677 614.156 72.3499 614.231 72.4246C614.306 72.4993 614.483 72.5367 614.763 72.5367C614.819 72.5367 614.918 72.5367 615.058 72.5367C615.198 72.5367 615.352 72.5367 615.52 72.5367C615.688 72.5367 615.847 72.5367 615.997 72.5367C616.155 72.5367 616.267 72.5367 616.333 72.5367C616.51 72.5367 616.641 72.4853 616.725 72.3826C616.819 72.2705 616.884 72.0556 616.921 71.738C616.968 71.4204 617.005 70.9533 617.033 70.3367C617.155 70.4301 617.304 70.5236 617.482 70.617C617.659 70.7011 617.842 70.7805 618.028 70.8552C618.225 70.9206 618.397 70.972 618.547 71.0093C618.491 71.8034 618.393 72.4246 618.253 72.873C618.112 73.3214 617.902 73.639 617.622 73.8259C617.342 74.0127 616.959 74.1061 616.473 74.1061C616.398 74.1061 616.295 74.1061 616.165 74.1061C616.034 74.1061 615.889 74.1061 615.73 74.1061C615.571 74.1061 615.408 74.1061 615.24 74.1061C615.081 74.1061 614.936 74.1061 614.805 74.1061C614.675 74.1061 614.577 74.1061 614.511 74.1061C613.988 74.1061 613.577 74.0407 613.278 73.9099C612.988 73.7885 612.778 73.5643 612.648 73.2373C612.517 72.9197 612.451 72.4666 612.451 71.8781V66.0349ZM612.409 61.775H618V68.5151H616.375V63.4005H612.409V61.775ZM605.739 64.2553H611.625V74.022H610.293V65.6425H607.028V74.2182H605.739V64.2553ZM606.426 69.9023H610.924V71.0654H606.426V69.9023ZM606.426 72.0322H610.924V73.3354H606.426V72.0322ZM605.473 61.6489H611.891V63.1202H605.473V61.6489ZM607.365 61.9852H608.458V65.3482H607.365V61.9852ZM609.018 61.9852H610.139V65.3482H609.018V61.9852ZM607.631 65.3342H608.416V66.7635C608.416 67.0251 608.392 67.31 608.346 67.6183C608.308 67.9172 608.229 68.2162 608.107 68.5151C607.995 68.8047 607.832 69.0709 607.617 69.3138C607.552 69.2391 607.454 69.1457 607.323 69.0336C607.201 68.9215 607.094 68.8421 607 68.7953C607.187 68.5898 607.323 68.3703 607.407 68.1368C607.5 67.9032 607.561 67.6697 607.589 67.4361C607.617 67.1932 607.631 66.9644 607.631 66.7495V65.3342ZM608.892 65.3342H609.677V67.9125C609.677 68.006 609.682 68.0667 609.691 68.0947C609.7 68.1134 609.728 68.1227 609.775 68.1227C609.794 68.1227 609.817 68.1227 609.845 68.1227C609.882 68.1227 609.915 68.1227 609.943 68.1227C609.98 68.1227 610.008 68.1227 610.027 68.1227C610.13 68.1227 610.191 68.1087 610.209 68.0807C610.293 68.1461 610.405 68.2068 610.546 68.2629C610.686 68.3189 610.817 68.361 610.938 68.389C610.891 68.5852 610.803 68.7299 610.672 68.8234C610.55 68.9074 610.382 68.9495 610.167 68.9495C610.13 68.9495 610.079 68.9495 610.013 68.9495C609.957 68.9495 609.896 68.9495 609.831 68.9495C609.775 68.9495 609.724 68.9495 609.677 68.9495C609.378 68.9495 609.172 68.8841 609.06 68.7533C608.948 68.6225 608.892 68.3469 608.892 67.9266V65.3342ZM622.414 65.1521H632.139V66.4833H622.414V65.1521ZM622.512 69.2437H630.205V70.5469H622.512V69.2437ZM624.306 64.2272H625.889V67.4081H628.468V64.2272H630.107V68.6832H624.306V64.2272ZM629.785 69.2437H630.107L630.401 69.1737L631.452 69.7062C631.069 70.4442 630.57 71.0747 629.953 71.5979C629.346 72.1117 628.65 72.546 627.865 72.901C627.09 73.2467 626.249 73.5223 625.343 73.7278C624.446 73.9333 623.503 74.0921 622.512 74.2042C622.456 74.008 622.358 73.7698 622.218 73.4896C622.087 73.2093 621.957 72.9804 621.826 72.8029C622.723 72.7375 623.587 72.6254 624.418 72.4666C625.249 72.3078 626.016 72.0976 626.716 71.8361C627.417 71.5652 628.029 71.2335 628.552 70.8412C629.075 70.4488 629.486 69.9817 629.785 69.4399V69.2437ZM624.895 70.2246C625.352 70.7384 625.955 71.1775 626.702 71.5418C627.459 71.8968 628.328 72.1817 629.308 72.3966C630.299 72.6021 631.368 72.7469 632.517 72.831C632.396 72.9431 632.274 73.0879 632.153 73.2654C632.032 73.4428 631.915 73.6203 631.803 73.7978C631.691 73.9753 631.602 74.1388 631.536 74.2883C630.341 74.1668 629.234 73.9613 628.215 73.6717C627.207 73.3915 626.3 73.0131 625.497 72.5367C624.703 72.0509 624.021 71.4624 623.451 70.7711L624.895 70.2246ZM621.237 62.3496H632.279V63.905H621.237V62.3496ZM620.453 62.3496H622.12V66.0909C622.12 66.6794 622.101 67.3287 622.064 68.0387C622.036 68.7393 621.975 69.4633 621.882 70.2106C621.788 70.9486 621.653 71.6679 621.475 72.3685C621.298 73.0598 621.064 73.6951 620.775 74.2743C620.663 74.1808 620.513 74.0874 620.326 73.994C620.14 73.9006 619.948 73.8118 619.752 73.7278C619.556 73.6437 619.383 73.583 619.233 73.5456C619.514 73.0038 619.738 72.4153 619.906 71.78C620.074 71.1448 620.196 70.4909 620.27 69.8183C620.345 69.1457 620.392 68.4917 620.41 67.8565C620.439 67.2213 620.453 66.6327 620.453 66.0909V62.3496ZM625.385 61.4107L627.094 61.0324C627.235 61.3313 627.37 61.6629 627.501 62.0273C627.641 62.3823 627.734 62.6905 627.781 62.9521L625.973 63.3725C625.936 63.1202 625.861 62.8073 625.749 62.4336C625.637 62.0506 625.516 61.7096 625.385 61.4107Z" fill="#8F95B2"/>
<path d="M645.001 72.7649C644.264 72.7649 643.623 72.6315 643.079 72.3645C642.545 72.0976 642.102 71.7827 641.75 71.4197L642.999 69.9944C643.212 70.24 643.49 70.4428 643.832 70.603C644.173 70.7631 644.52 70.8432 644.872 70.8432C645.214 70.8432 645.54 70.7684 645.849 70.619C646.159 70.4588 646.426 70.2079 646.65 69.8663C646.885 69.514 647.066 69.0496 647.195 68.4731C647.333 67.8965 647.403 67.1866 647.403 66.3431C647.403 65.3289 647.307 64.5228 647.114 63.925C646.933 63.3271 646.687 62.9 646.378 62.6438C646.068 62.3769 645.716 62.2435 645.321 62.2435C645.033 62.2435 644.766 62.3235 644.52 62.4837C644.275 62.6438 644.077 62.884 643.928 63.2043C643.789 63.5246 643.719 63.9303 643.719 64.4214C643.719 64.8805 643.789 65.2648 643.928 65.5745C644.066 65.8734 644.259 66.0976 644.504 66.2471C644.76 66.3965 645.059 66.4713 645.401 66.4713C645.732 66.4713 646.074 66.3698 646.426 66.167C646.778 65.9641 647.098 65.6225 647.387 65.1421L647.499 66.7275C647.296 67.0157 647.045 67.2666 646.746 67.4802C646.458 67.6937 646.159 67.8592 645.849 67.9766C645.54 68.094 645.241 68.1528 644.953 68.1528C644.301 68.1528 643.719 68.0193 643.207 67.7524C642.694 67.4748 642.289 67.0638 641.99 66.5193C641.702 65.9641 641.557 65.2648 641.557 64.4214C641.557 63.61 641.728 62.9107 642.07 62.3235C642.412 61.7257 642.865 61.2666 643.431 60.9463C643.997 60.626 644.616 60.4659 645.289 60.4659C645.855 60.4659 646.388 60.5833 646.89 60.8182C647.403 61.0424 647.856 61.3947 648.251 61.8751C648.657 62.3449 648.972 62.9534 649.196 63.7008C649.431 64.4374 649.549 65.3182 649.549 66.3431C649.549 67.4641 649.426 68.4303 649.18 69.2417C648.935 70.0425 648.593 70.7044 648.155 71.2275C647.728 71.7507 647.243 72.1403 646.698 72.3966C646.154 72.6421 645.588 72.7649 645.001 72.7649ZM655.087 72.7649C654.329 72.7649 653.651 72.6315 653.053 72.3645C652.455 72.0976 651.98 71.724 651.628 71.2435C651.286 70.7631 651.116 70.2133 651.116 69.5941C651.116 69.0816 651.206 68.6332 651.388 68.2489C651.58 67.8538 651.831 67.5122 652.14 67.2239C652.45 66.9357 652.786 66.6955 653.149 66.5033V66.4232C652.701 66.1029 652.327 65.7132 652.028 65.2542C651.729 64.7844 651.58 64.2399 651.58 63.6207C651.58 62.9801 651.735 62.425 652.044 61.9552C652.354 61.4854 652.776 61.1225 653.31 60.8662C653.854 60.61 654.468 60.4819 655.151 60.4819C655.856 60.4819 656.464 60.6153 656.977 60.8822C657.489 61.1385 657.884 61.5015 658.162 61.9712C658.45 62.441 658.594 62.9961 658.594 63.6367C658.594 64.0211 658.52 64.384 658.37 64.7257C658.231 65.0673 658.044 65.3769 657.81 65.6545C657.585 65.9214 657.34 66.151 657.073 66.3431V66.4232C657.447 66.6154 657.783 66.8556 658.082 67.1439C658.381 67.4321 658.621 67.7791 658.802 68.1848C658.984 68.5798 659.075 69.0496 659.075 69.5941C659.075 70.1919 658.904 70.7311 658.562 71.2115C658.231 71.6919 657.767 72.0709 657.169 72.3485C656.571 72.6261 655.877 72.7649 655.087 72.7649ZM655.824 65.7666C656.112 65.457 656.326 65.1367 656.464 64.8058C656.603 64.4748 656.673 64.1332 656.673 63.7808C656.673 63.4606 656.608 63.1776 656.48 62.9321C656.363 62.6758 656.187 62.4783 655.952 62.3395C655.717 62.2008 655.434 62.1314 655.103 62.1314C654.697 62.1314 654.356 62.2595 654.078 62.5157C653.801 62.7719 653.662 63.1403 653.662 63.6207C653.662 63.9837 653.753 64.2986 653.934 64.5655C654.126 64.8218 654.388 65.046 654.719 65.2381C655.05 65.4196 655.418 65.5958 655.824 65.7666ZM655.135 71.0994C655.477 71.0994 655.776 71.0407 656.032 70.9233C656.299 70.7951 656.507 70.6136 656.657 70.3788C656.806 70.1332 656.881 69.845 656.881 69.514C656.881 69.2044 656.811 68.9375 656.673 68.7133C656.544 68.4784 656.363 68.2755 656.128 68.1047C655.893 67.9232 655.616 67.7577 655.295 67.6083C654.975 67.4588 654.623 67.2987 654.238 67.1278C653.918 67.3948 653.656 67.7204 653.454 68.1047C653.251 68.4784 653.149 68.8894 653.149 69.3378C653.149 69.6901 653.235 69.9998 653.406 70.2667C653.587 70.5229 653.827 70.7257 654.126 70.8752C654.425 71.0247 654.761 71.0994 655.135 71.0994ZM663.204 67.9766C662.649 67.9766 662.152 67.8271 661.715 67.5282C661.277 67.2293 660.935 66.7969 660.69 66.231C660.444 65.6652 660.321 64.9873 660.321 64.1972C660.321 63.4072 660.444 62.7346 660.69 62.1794C660.935 61.6242 661.277 61.2025 661.715 60.9143C662.152 60.6153 662.649 60.4659 663.204 60.4659C663.78 60.4659 664.282 60.6153 664.709 60.9143C665.147 61.2025 665.489 61.6242 665.734 62.1794C665.98 62.7346 666.102 63.4072 666.102 64.1972C666.102 64.9873 665.98 65.6652 665.734 66.231C665.489 66.7969 665.147 67.2293 664.709 67.5282C664.282 67.8271 663.78 67.9766 663.204 67.9766ZM663.204 66.6474C663.546 66.6474 663.834 66.4606 664.069 66.0869C664.314 65.7026 664.437 65.0727 664.437 64.1972C664.437 63.3324 664.314 62.7186 664.069 62.3556C663.834 61.9819 663.546 61.7951 663.204 61.7951C662.862 61.7951 662.569 61.9819 662.323 62.3556C662.088 62.7186 661.971 63.3324 661.971 64.1972C661.971 65.0727 662.088 65.7026 662.323 66.0869C662.569 66.4606 662.862 66.6474 663.204 66.6474ZM663.588 72.7649L670.042 60.4659H671.435L664.998 72.7649H663.588ZM671.836 72.7649C671.27 72.7649 670.768 72.6154 670.33 72.3165C669.903 72.0176 669.562 71.5852 669.305 71.0193C669.06 70.4535 668.937 69.7756 668.937 68.9855C668.937 68.1848 669.06 67.5069 669.305 66.9517C669.562 66.3965 669.903 65.9748 670.33 65.6866C670.768 65.3876 671.27 65.2381 671.836 65.2381C672.391 65.2381 672.882 65.3876 673.309 65.6866C673.747 65.9748 674.088 66.3965 674.334 66.9517C674.59 67.5069 674.718 68.1848 674.718 68.9855C674.718 69.7756 674.59 70.4535 674.334 71.0193C674.088 71.5852 673.747 72.0176 673.309 72.3165C672.882 72.6154 672.391 72.7649 671.836 72.7649ZM671.836 71.4197C672.177 71.4197 672.466 71.2329 672.7 70.8592C672.935 70.4748 673.053 69.8503 673.053 68.9855C673.053 68.0994 672.935 67.4802 672.7 67.1278C672.466 66.7649 672.177 66.5834 671.836 66.5834C671.483 66.5834 671.19 66.7649 670.955 67.1278C670.72 67.4802 670.603 68.0994 670.603 68.9855C670.603 69.8503 670.72 70.4748 670.955 70.8592C671.19 71.2329 671.483 71.4197 671.836 71.4197Z" fill="#244CB2"/>
<circle cx="40.872" cy="105.051" r="4.32259" fill="#3F8CFF"/>
<path d="M53.9728 102.526H59.9902V103.86H53.9728V102.526ZM53.8167 108.051H60.0262V109.384H53.8167V108.051ZM53.1801 104.892H60.9751V109.865H59.4257V106.154H54.6574V109.913H53.1801V104.892ZM57.0716 98.5988L58.3567 99.2594C57.8683 99.964 57.3038 100.621 56.6632 101.229C56.0226 101.83 55.334 102.378 54.5974 102.875C53.8607 103.363 53.112 103.783 52.3513 104.136C52.2392 103.928 52.0871 103.703 51.8949 103.463C51.7028 103.215 51.5026 102.999 51.2944 102.815C52.0391 102.526 52.7717 102.174 53.4924 101.758C54.221 101.333 54.8936 100.857 55.5102 100.328C56.1267 99.7919 56.6472 99.2154 57.0716 98.5988ZM57.564 99.4276C58.3968 100.26 59.2455 100.925 60.1103 101.421C60.9751 101.918 61.8479 102.322 62.7287 102.634C62.5445 102.803 62.3563 103.011 62.1642 103.259C61.98 103.499 61.8399 103.735 61.7438 103.968C61.1352 103.679 60.5347 103.367 59.9422 103.031C59.3576 102.686 58.7651 102.274 58.1646 101.794C57.572 101.313 56.9595 100.733 56.3269 100.052L57.564 99.4276ZM69.7069 99.92H72.8778V101.157H69.7069V99.92ZM68.4698 105.421H73.7065V109.901H72.3133V106.634H69.803V109.937H68.4698V105.421ZM68.9983 108.28H73.082V109.517H68.9983V108.28ZM69.839 98.6348L71.2203 99.0192C70.9961 99.5637 70.7318 100.096 70.4276 100.617C70.1233 101.137 69.791 101.622 69.4307 102.07C69.0784 102.518 68.714 102.911 68.3377 103.247C68.2656 103.159 68.1615 103.055 68.0254 102.935C67.8893 102.807 67.7492 102.682 67.605 102.562C67.4689 102.442 67.3448 102.346 67.2327 102.274C67.7852 101.85 68.2897 101.317 68.7461 100.677C69.2105 100.028 69.5748 99.3475 69.839 98.6348ZM72.5054 99.92H72.7577L72.9979 99.872L73.9107 100.292C73.6545 101.053 73.3222 101.75 72.9138 102.382C72.5134 103.015 72.049 103.579 71.5206 104.076C70.9921 104.572 70.4156 105.009 69.791 105.385C69.1745 105.761 68.5259 106.074 67.8453 106.322C67.7572 106.154 67.6331 105.953 67.4729 105.721C67.3208 105.489 67.1727 105.301 67.0285 105.157C67.6531 104.973 68.2496 104.72 68.8181 104.4C69.3946 104.072 69.9231 103.695 70.4036 103.271C70.892 102.839 71.3164 102.362 71.6767 101.842C72.037 101.313 72.3133 100.753 72.5054 100.16V99.92ZM69.767 100.761C70.0152 101.289 70.3715 101.826 70.8359 102.37C71.3004 102.907 71.8649 103.395 72.5295 103.836C73.2021 104.276 73.9587 104.616 74.7995 104.856C74.7114 104.945 74.6073 105.061 74.4872 105.205C74.3751 105.349 74.267 105.497 74.1629 105.649C74.0668 105.801 73.9868 105.933 73.9227 106.045C73.0579 105.741 72.2812 105.337 71.5926 104.832C70.912 104.32 70.3275 103.755 69.839 103.139C69.3586 102.522 68.9743 101.914 68.686 101.313L69.767 100.761ZM63.5094 101.133H67.7972V102.466H63.5094V101.133ZM65.0948 98.6469H66.452V109.925H65.0948V98.6469ZM65.0708 102.058L65.8995 102.334C65.8034 102.815 65.6873 103.315 65.5512 103.836C65.4231 104.348 65.2709 104.852 65.0948 105.349C64.9186 105.837 64.7305 106.294 64.5303 106.718C64.3301 107.142 64.1179 107.507 63.8937 107.811C63.8297 107.619 63.7296 107.399 63.5934 107.15C63.4573 106.902 63.3332 106.69 63.2211 106.514C63.4293 106.25 63.6255 105.941 63.8096 105.589C63.9938 105.237 64.166 104.864 64.3261 104.472C64.4942 104.072 64.6384 103.667 64.7585 103.259C64.8866 102.843 64.9907 102.442 65.0708 102.058ZM66.404 102.706C66.476 102.771 66.5801 102.883 66.7162 103.043C66.8604 103.203 67.0125 103.379 67.1727 103.571C67.3328 103.763 67.4769 103.94 67.605 104.1C67.7412 104.26 67.8372 104.372 67.8933 104.436L67.1126 105.529C67.0405 105.377 66.9444 105.201 66.8243 105.001C66.7122 104.8 66.5881 104.592 66.452 104.376C66.3239 104.16 66.1958 103.956 66.0677 103.763C65.9476 103.571 65.8435 103.415 65.7554 103.295L66.404 102.706Z" fill="#8F95B2"/>
<circle cx="102.604" cy="105.353" r="4.32259" fill="#A0D7E7"/>
<path d="M116.881 105.553H124.244V106.898H116.881V105.553ZM117.806 102.526H122.394V103.824H117.806V102.526ZM119.932 104.724H121.385V108.412C121.385 108.78 121.341 109.064 121.253 109.264C121.173 109.465 121.005 109.621 120.749 109.733C120.501 109.829 120.196 109.889 119.836 109.913C119.476 109.937 119.055 109.945 118.575 109.937C118.543 109.729 118.487 109.497 118.407 109.24C118.335 108.984 118.255 108.756 118.166 108.556C118.367 108.564 118.571 108.572 118.779 108.58C118.987 108.588 119.171 108.592 119.332 108.592C119.5 108.592 119.616 108.592 119.68 108.592C119.776 108.584 119.84 108.568 119.872 108.544C119.912 108.512 119.932 108.456 119.932 108.376V104.724ZM122.046 102.526H122.406L122.695 102.454L123.607 103.187C123.343 103.467 123.047 103.751 122.719 104.04C122.398 104.328 122.062 104.604 121.71 104.868C121.365 105.125 121.025 105.353 120.689 105.553C120.601 105.425 120.477 105.281 120.316 105.121C120.164 104.953 120.036 104.82 119.932 104.724C120.196 104.556 120.465 104.36 120.737 104.136C121.009 103.904 121.261 103.671 121.493 103.439C121.726 103.199 121.91 102.987 122.046 102.803V102.526ZM113.35 100.22H124.064V101.602H113.35V100.22ZM117.11 98.6469L118.611 99.0072C118.315 99.976 117.938 100.933 117.482 101.878C117.033 102.815 116.489 103.687 115.848 104.496C115.216 105.305 114.463 106.005 113.59 106.598C113.55 106.462 113.486 106.31 113.398 106.142C113.318 105.973 113.234 105.805 113.146 105.637C113.058 105.469 112.978 105.329 112.906 105.217C113.458 104.856 113.955 104.428 114.395 103.932C114.843 103.435 115.244 102.895 115.596 102.31C115.948 101.726 116.249 101.121 116.497 100.497C116.753 99.872 116.957 99.2554 117.11 98.6469ZM114.719 103.667H116.173V109.913H114.719V103.667ZM125.685 98.767H126.97V101.265C126.97 101.441 127.002 101.553 127.066 101.602C127.131 101.642 127.279 101.662 127.511 101.662C127.559 101.662 127.643 101.662 127.763 101.662C127.891 101.662 128.023 101.662 128.159 101.662C128.304 101.662 128.44 101.662 128.568 101.662C128.704 101.662 128.804 101.662 128.868 101.662C128.988 101.662 129.08 101.642 129.144 101.602C129.208 101.553 129.252 101.461 129.276 101.325C129.308 101.181 129.332 100.969 129.348 100.689C129.485 100.785 129.665 100.877 129.889 100.965C130.121 101.053 130.329 101.117 130.514 101.157C130.465 101.598 130.385 101.942 130.273 102.19C130.161 102.43 130.005 102.598 129.805 102.694C129.605 102.783 129.332 102.827 128.988 102.827C128.916 102.827 128.804 102.827 128.652 102.827C128.5 102.827 128.336 102.827 128.159 102.827C127.983 102.827 127.819 102.827 127.667 102.827C127.523 102.827 127.415 102.827 127.343 102.827C126.894 102.827 126.55 102.783 126.31 102.694C126.07 102.598 125.905 102.438 125.817 102.214C125.729 101.99 125.685 101.682 125.685 101.289V98.767ZM129.204 98.9952L130.117 99.944C129.765 100.088 129.377 100.224 128.952 100.352C128.536 100.472 128.111 100.585 127.679 100.689C127.255 100.785 126.846 100.869 126.454 100.941C126.422 100.813 126.37 100.657 126.298 100.472C126.226 100.288 126.154 100.132 126.082 100.004C126.45 99.916 126.826 99.8199 127.211 99.7158C127.595 99.6037 127.959 99.4876 128.304 99.3675C128.656 99.2394 128.956 99.1153 129.204 98.9952ZM126.142 102.719L127.367 102.983C127.231 103.503 127.042 104.008 126.802 104.496C126.57 104.977 126.306 105.381 126.009 105.709C125.937 105.637 125.837 105.553 125.709 105.457C125.589 105.361 125.465 105.269 125.337 105.181C125.209 105.085 125.093 105.009 124.989 104.953C125.261 104.672 125.493 104.336 125.685 103.944C125.885 103.543 126.038 103.135 126.142 102.719ZM126.466 103.559H130.009V104.7H125.901L126.466 103.559ZM125.229 105.577H130.285V106.754H125.229V105.577ZM127.307 104.016H128.592V105.553C128.592 105.889 128.56 106.25 128.496 106.634C128.44 107.01 128.324 107.395 128.147 107.787C127.971 108.179 127.707 108.56 127.355 108.928C127.002 109.304 126.538 109.649 125.961 109.961C125.873 109.825 125.737 109.665 125.553 109.481C125.377 109.304 125.209 109.16 125.049 109.048C125.561 108.808 125.965 108.536 126.262 108.231C126.566 107.919 126.79 107.603 126.934 107.283C127.086 106.962 127.187 106.65 127.235 106.346C127.283 106.041 127.307 105.769 127.307 105.529V104.016ZM127.487 107.487L128.328 106.658C128.52 106.81 128.72 106.982 128.928 107.175C129.144 107.359 129.348 107.543 129.541 107.727C129.741 107.911 129.901 108.075 130.021 108.219L129.132 109.156C129.028 109.004 128.88 108.832 128.688 108.64C128.496 108.44 128.292 108.239 128.075 108.039C127.867 107.831 127.671 107.647 127.487 107.487ZM130.622 99.0072H135.186V100.124H130.622V99.0072ZM134.729 99.0072H135.018L135.27 98.9351L136.123 99.4876C135.906 99.8239 135.65 100.16 135.354 100.497C135.066 100.825 134.753 101.133 134.417 101.421C134.081 101.71 133.74 101.958 133.396 102.166C133.308 102.03 133.184 101.878 133.024 101.71C132.864 101.533 132.72 101.389 132.591 101.277C132.888 101.109 133.176 100.909 133.456 100.677C133.736 100.444 133.989 100.204 134.213 99.956C134.437 99.6998 134.609 99.4636 134.729 99.2474V99.0072ZM130.958 101.385L131.799 100.521C132.151 100.657 132.531 100.825 132.94 101.025C133.356 101.217 133.752 101.417 134.129 101.626C134.505 101.834 134.813 102.026 135.054 102.202L134.165 103.175C133.941 102.991 133.644 102.795 133.276 102.586C132.916 102.37 132.531 102.158 132.123 101.95C131.715 101.734 131.326 101.545 130.958 101.385ZM130.405 102.899H135.498V104.076H130.405V102.899ZM135.066 102.899H135.246L135.438 102.851L136.327 103.055C136.223 103.455 136.103 103.864 135.966 104.28C135.83 104.696 135.694 105.049 135.558 105.337L134.525 105.049C134.629 104.792 134.729 104.48 134.825 104.112C134.93 103.743 135.01 103.395 135.066 103.067V102.899ZM132.615 103.247H133.889V109.132L132.615 108.52V103.247ZM133.132 105.685H135.846V106.862H133.132V105.685ZM131.763 106.238C131.915 106.75 132.099 107.167 132.315 107.487C132.531 107.799 132.776 108.039 133.048 108.207C133.32 108.368 133.608 108.48 133.913 108.544C134.217 108.608 134.533 108.64 134.861 108.64C134.95 108.64 135.094 108.64 135.294 108.64C135.494 108.64 135.698 108.64 135.906 108.64C136.123 108.632 136.291 108.628 136.411 108.628C136.331 108.764 136.255 108.948 136.183 109.18C136.119 109.421 136.075 109.625 136.051 109.793H135.714H134.777C134.337 109.793 133.925 109.749 133.54 109.661C133.156 109.573 132.8 109.409 132.471 109.168C132.143 108.936 131.847 108.608 131.582 108.183C131.326 107.759 131.102 107.215 130.91 106.55L131.763 106.238ZM130.766 104.664L132.027 104.7C131.987 105.869 131.863 106.894 131.655 107.775C131.446 108.648 131.082 109.384 130.562 109.985C130.498 109.913 130.397 109.825 130.261 109.721C130.133 109.625 129.997 109.525 129.853 109.421C129.717 109.324 129.597 109.252 129.493 109.204C129.829 108.876 130.085 108.488 130.261 108.039C130.445 107.583 130.574 107.07 130.646 106.502C130.718 105.933 130.758 105.321 130.766 104.664Z" fill="#8F95B2"/>
<circle cx="159.781" cy="105.353" r="4.32259" fill="#FFB7F5"/>
<path d="M173.842 100.797H181.205V106.574H179.716V102.25H175.26V106.634H173.842V100.797ZM176.737 98.6589H178.19V109.937H176.737V98.6589ZM174.515 104.628H180.352V106.082H174.515V104.628ZM170.419 100.412L171.452 99.4155C171.684 99.5917 171.933 99.7879 172.197 100.004C172.469 100.22 172.721 100.44 172.954 100.665C173.194 100.881 173.386 101.085 173.53 101.277L172.425 102.394C172.297 102.202 172.121 101.99 171.897 101.758C171.672 101.525 171.428 101.293 171.164 101.061C170.908 100.821 170.66 100.605 170.419 100.412ZM170.191 107.907C170.391 107.595 170.616 107.231 170.864 106.814C171.12 106.398 171.376 105.953 171.632 105.481C171.889 105.001 172.129 104.524 172.353 104.052L173.506 104.941C173.306 105.373 173.094 105.813 172.87 106.262C172.653 106.702 172.429 107.138 172.197 107.571C171.973 108.003 171.749 108.416 171.524 108.808L170.191 107.907ZM182.514 104.941H193.24V106.25H182.514V104.941ZM187.102 103.307H188.592C188.552 103.972 188.484 104.592 188.387 105.169C188.299 105.745 188.151 106.278 187.943 106.766C187.735 107.247 187.435 107.687 187.042 108.087C186.658 108.48 186.149 108.824 185.517 109.12C184.892 109.417 184.108 109.669 183.163 109.877C183.099 109.685 182.991 109.465 182.838 109.216C182.694 108.968 182.55 108.768 182.406 108.616C183.263 108.456 183.967 108.259 184.52 108.027C185.08 107.787 185.525 107.511 185.853 107.199C186.189 106.886 186.442 106.534 186.61 106.142C186.778 105.749 186.894 105.321 186.958 104.856C187.022 104.384 187.07 103.868 187.102 103.307ZM188.604 105.697C188.972 106.546 189.557 107.207 190.357 107.679C191.158 108.143 192.215 108.44 193.528 108.568C193.424 108.672 193.316 108.8 193.204 108.952C193.1 109.112 193 109.272 192.904 109.433C192.815 109.593 192.739 109.741 192.675 109.877C191.73 109.725 190.918 109.485 190.237 109.156C189.565 108.828 188.996 108.4 188.532 107.871C188.075 107.335 187.695 106.686 187.391 105.925L188.604 105.697ZM188.904 103.836L189.949 103.307C190.181 103.499 190.421 103.723 190.67 103.98C190.926 104.228 191.122 104.452 191.258 104.652L190.153 105.229C190.033 105.037 189.849 104.808 189.601 104.544C189.36 104.272 189.128 104.036 188.904 103.836ZM186.814 98.8871L188.375 98.5628C188.512 98.827 188.652 99.1193 188.796 99.4396C188.94 99.7599 189.044 100.036 189.108 100.268L187.463 100.641C187.415 100.416 187.327 100.136 187.198 99.7999C187.078 99.4636 186.95 99.1593 186.814 98.8871ZM182.658 99.7518H193.096V102.19H191.582V101.013H184.112V102.334H182.658V99.7518ZM186.226 101.217L187.355 101.818C187.034 102.122 186.678 102.418 186.286 102.706C185.901 102.995 185.505 103.263 185.097 103.511C184.696 103.751 184.3 103.952 183.907 104.112L183.055 103.031C183.399 102.903 183.759 102.747 184.136 102.562C184.512 102.378 184.88 102.174 185.241 101.95C185.601 101.718 185.929 101.473 186.226 101.217ZM188.52 102.13L189.372 101.205C189.725 101.365 190.109 101.549 190.525 101.758C190.942 101.966 191.338 102.178 191.714 102.394C192.099 102.61 192.415 102.815 192.663 103.007L191.738 104.052C191.514 103.868 191.218 103.659 190.85 103.427C190.481 103.195 190.089 102.967 189.673 102.743C189.264 102.51 188.88 102.306 188.52 102.13ZM195.474 99.3074H198.933V106.682H195.474V105.373H197.6V100.617H195.474V99.3074ZM195.498 102.31H198.116V103.595H195.498V102.31ZM200.626 99.1393H204.302V100.472H200.626V99.1393ZM200.626 101.998H204.302V103.295H200.626V101.998ZM200.602 104.844H204.29V106.142H200.602V104.844ZM194.717 99.3074H196.05V107.727H194.717V99.3074ZM203.773 99.1393H205.203V108.28C205.203 108.656 205.155 108.948 205.058 109.156C204.97 109.372 204.806 109.541 204.566 109.661C204.326 109.773 204.03 109.845 203.677 109.877C203.325 109.909 202.896 109.925 202.392 109.925C202.368 109.789 202.328 109.633 202.272 109.457C202.224 109.288 202.164 109.12 202.092 108.952C202.028 108.792 201.96 108.652 201.888 108.532C202.104 108.54 202.32 108.548 202.536 108.556C202.752 108.556 202.945 108.556 203.113 108.556C203.289 108.548 203.409 108.544 203.473 108.544C203.585 108.544 203.661 108.524 203.701 108.484C203.749 108.444 203.773 108.372 203.773 108.267V99.1393ZM199.762 99.1393H201.179V103.499C201.179 104.012 201.147 104.564 201.083 105.157C201.019 105.749 200.899 106.342 200.723 106.934C200.554 107.519 200.302 108.079 199.966 108.616C199.63 109.144 199.185 109.613 198.633 110.021C198.561 109.925 198.457 109.813 198.32 109.685C198.192 109.565 198.056 109.445 197.912 109.324C197.776 109.204 197.652 109.116 197.54 109.06C198.052 108.684 198.457 108.271 198.753 107.823C199.049 107.367 199.269 106.894 199.413 106.406C199.557 105.909 199.65 105.413 199.69 104.916C199.738 104.42 199.762 103.944 199.762 103.487V99.1393ZM209.226 102.154V102.971H214.523V102.154H209.226ZM209.226 100.304V101.109H214.523V100.304H209.226ZM207.809 99.1993H216V104.088H207.809V99.1993ZM206.26 108.015H217.55V109.397H206.26V108.015ZM209.815 104.46H211.184V108.784H209.815V104.46ZM212.577 104.46H213.934V108.772H212.577V104.46ZM215.544 104.664L216.769 105.193C216.537 105.609 216.285 106.029 216.012 106.454C215.748 106.87 215.5 107.227 215.268 107.523L214.163 107.018C214.323 106.81 214.487 106.574 214.655 106.31C214.831 106.037 214.999 105.757 215.159 105.469C215.32 105.181 215.448 104.912 215.544 104.664ZM207.148 105.217L208.253 104.748C208.389 104.989 208.53 105.249 208.674 105.529C208.826 105.809 208.97 106.082 209.106 106.346C209.25 106.61 209.358 106.838 209.43 107.03L208.265 107.583C208.193 107.383 208.093 107.146 207.965 106.874C207.837 106.594 207.701 106.31 207.557 106.021C207.421 105.733 207.284 105.465 207.148 105.217Z" fill="#8F95B2"/>
<circle cx="234.348" cy="105.353" r="4.32259" fill="#6C5DD3"/>
<path d="M246.38 98.7069H247.653V109.889H246.38V98.7069ZM244.854 102.658H248.806V104.004H244.854V102.658ZM246.368 103.367L247.172 103.763C247.076 104.164 246.96 104.588 246.824 105.037C246.696 105.477 246.552 105.917 246.392 106.358C246.231 106.798 246.059 107.215 245.875 107.607C245.699 107.999 245.515 108.34 245.323 108.628C245.275 108.476 245.21 108.312 245.13 108.135C245.058 107.951 244.978 107.771 244.89 107.595C244.81 107.411 244.73 107.255 244.65 107.126C244.89 106.83 245.118 106.466 245.335 106.033C245.559 105.593 245.759 105.141 245.935 104.676C246.119 104.204 246.263 103.767 246.368 103.367ZM247.689 104.1C247.761 104.18 247.869 104.316 248.013 104.508C248.165 104.7 248.325 104.912 248.493 105.145C248.67 105.369 248.83 105.581 248.974 105.781C249.118 105.973 249.218 106.114 249.274 106.202L248.361 107.307C248.289 107.13 248.197 106.926 248.085 106.694C247.981 106.454 247.861 106.206 247.725 105.949C247.597 105.693 247.469 105.453 247.34 105.229C247.212 104.997 247.104 104.8 247.016 104.64L247.689 104.1ZM244.842 99.6317L245.779 99.4035C245.883 99.6838 245.975 99.9921 246.055 100.328C246.143 100.657 246.215 100.977 246.271 101.289C246.327 101.593 246.364 101.87 246.38 102.118L245.383 102.37C245.375 102.122 245.343 101.842 245.287 101.529C245.239 101.217 245.174 100.893 245.094 100.557C245.022 100.22 244.938 99.912 244.842 99.6317ZM248.169 99.3315L249.31 99.5717C249.214 99.884 249.114 100.212 249.01 100.557C248.906 100.893 248.802 101.217 248.698 101.529C248.602 101.834 248.505 102.106 248.409 102.346L247.557 102.094C247.637 101.846 247.717 101.561 247.797 101.241C247.877 100.921 247.949 100.593 248.013 100.256C248.085 99.92 248.137 99.6117 248.169 99.3315ZM249.454 99.5357H255.724V100.557H249.454V99.5357ZM249.755 101.037H255.46V101.998H249.755V101.037ZM249.118 102.526H256.036V103.559H249.118V102.526ZM251.796 98.6709H253.154V103.103H251.796V98.6709ZM249.755 104.052H254.319V105.073H251.088V109.937H249.755V104.052ZM253.982 104.052H255.34V108.64C255.34 108.936 255.304 109.168 255.231 109.336C255.159 109.505 255.019 109.637 254.811 109.733C254.603 109.821 254.355 109.877 254.066 109.901C253.778 109.925 253.442 109.933 253.058 109.925C253.033 109.749 252.985 109.553 252.913 109.336C252.841 109.128 252.765 108.944 252.685 108.784C252.909 108.792 253.13 108.8 253.346 108.808C253.562 108.808 253.71 108.804 253.79 108.796C253.87 108.796 253.922 108.784 253.946 108.76C253.97 108.728 253.982 108.68 253.982 108.616V104.052ZM250.499 105.649H254.451V106.598H250.499V105.649ZM250.499 107.175H254.451V108.111H250.499V107.175ZM261.621 103.115H267.663V104.352H261.621V103.115ZM261.657 105.469H267.651V106.706H261.657V105.469ZM261.669 107.871H268.083V109.156H261.669V107.871ZM261.633 98.7309L262.954 99.0672C262.722 99.7879 262.438 100.497 262.102 101.193C261.773 101.882 261.413 102.526 261.021 103.127C260.628 103.719 260.212 104.236 259.772 104.676C259.707 104.58 259.611 104.468 259.483 104.34C259.363 104.204 259.239 104.072 259.111 103.944C258.983 103.807 258.867 103.699 258.763 103.619C259.179 103.243 259.567 102.799 259.928 102.286C260.288 101.766 260.612 101.205 260.901 100.605C261.197 99.9961 261.441 99.3715 261.633 98.7309ZM261.958 100.737H267.891V101.962H261.958V109.949H260.624V101.842L261.681 100.737H261.958ZM264.107 101.409H265.525V108.58H264.107V101.409ZM263.651 99.2474L264.888 98.6829C265.08 98.9471 265.268 99.2434 265.453 99.5717C265.645 99.892 265.793 100.168 265.897 100.4L264.612 101.085C264.516 100.829 264.376 100.529 264.192 100.184C264.007 99.8399 263.827 99.5276 263.651 99.2474ZM256.853 99.7158L258.15 99.1273C258.334 99.4236 258.526 99.7478 258.727 100.1C258.927 100.444 259.115 100.785 259.291 101.121C259.467 101.449 259.607 101.742 259.711 101.998L258.306 102.682C258.218 102.426 258.09 102.126 257.922 101.782C257.762 101.437 257.586 101.085 257.393 100.725C257.209 100.364 257.029 100.028 256.853 99.7158ZM256.865 108.76C257.033 108.424 257.221 108.031 257.429 107.583C257.638 107.134 257.846 106.658 258.054 106.154C258.262 105.641 258.454 105.133 258.631 104.628L259.964 105.289C259.804 105.761 259.631 106.234 259.447 106.706C259.271 107.179 259.091 107.643 258.907 108.099C258.731 108.548 258.554 108.976 258.378 109.384L256.865 108.76Z" fill="#8F95B2"/>
<line x1="94.7367" y1="134.721" x2="94.7367" y2="235.581" stroke="#E6E8F0" stroke-width="0.719784"/>
<line x1="140.844" y1="134.721" x2="140.844" y2="235.581" stroke="#E6E8F0" stroke-width="0.719784"/>
<line x1="186.952" y1="134.721" x2="186.952" y2="235.581" stroke="#E6E8F0" stroke-width="0.719784"/>
<line x1="233.059" y1="134.721" x2="233.059" y2="235.581" stroke="#E6E8F0" stroke-width="0.719784"/>
<line x1="279.167" y1="134.721" x2="279.167" y2="235.581" stroke="#E6E8F0" stroke-width="0.719784"/>
<line x1="325.275" y1="134.721" x2="325.275" y2="235.581" stroke="#E6E8F0" stroke-width="0.719784"/>
<line x1="371.382" y1="134.721" x2="371.382" y2="235.581" stroke="#E6E8F0" stroke-width="0.719784"/>
<rect opacity="0.5" x="95.0971" y="134.721" width="830.175" height="5.76345" rx="2.87914" fill="#E4E4E4"/>
<rect x="95.0971" y="134.605" width="830.746" height="6.00539" rx="2.87914" fill="#6C5DD3"/>
<rect x="95.0971" y="134.605" width="654.588" height="6.00539" rx="2.87914" fill="#FFB7F5"/>
<rect x="95.0971" y="134.605" width="479.43" height="6.00539" rx="2.87914" fill="#A0D7E7"/>
<rect x="95.0971" y="134.605" width="319.287" height="6.00539" rx="2.87914" fill="#3F8CFF"/>
<path d="M40.9757 131.509H46.831V132.55H40.9757V131.509ZM40.6254 135.242H47.1613V136.313H40.6254V135.242ZM41.3461 136.904H46.5207V140.547H45.3196V137.935H42.4871V140.577H41.3461V136.904ZM41.9466 139.216H45.8401V140.247H41.9466V139.216ZM42.9275 131.909L44.1286 132.03C44.0485 132.45 43.9584 132.9 43.8583 133.381C43.7649 133.855 43.6682 134.312 43.5681 134.752C43.4746 135.192 43.3846 135.576 43.2978 135.903H42.0667C42.1401 135.643 42.2135 135.349 42.2869 135.022C42.367 134.695 42.4471 134.355 42.5271 134.001C42.6072 133.641 42.6806 133.284 42.7473 132.93C42.8141 132.57 42.8741 132.23 42.9275 131.909ZM41.316 133.311H45.3797V134.332H41.316V133.311ZM45.0794 133.311H45.1995L45.3797 133.261L46.2204 133.321C46.2071 133.748 46.1804 134.181 46.1404 134.622C46.1003 135.056 46.0603 135.456 46.0203 135.823L44.8993 135.743C44.926 135.489 44.9526 135.219 44.9793 134.932C45.006 134.645 45.026 134.372 45.0394 134.111C45.0594 133.845 45.0727 133.618 45.0794 133.431V133.311ZM38.2333 132.06L39.004 131.329C39.1841 131.476 39.3776 131.643 39.5845 131.829C39.798 132.01 39.9982 132.19 40.185 132.37C40.3719 132.55 40.5187 132.714 40.6254 132.86L39.8047 133.691C39.6979 133.538 39.5578 133.367 39.3843 133.181C39.2108 132.987 39.0206 132.794 38.8138 132.6C38.6136 132.4 38.4201 132.22 38.2333 132.06ZM37.8129 134.252H39.6345V135.403H37.8129V134.252ZM39.1441 140.447L38.9239 139.376L39.1941 138.996L41.1059 137.725C41.1392 137.885 41.1826 138.068 41.236 138.275C41.296 138.475 41.3494 138.635 41.3961 138.756C40.9624 139.063 40.6054 139.316 40.3252 139.516C40.0516 139.71 39.8347 139.863 39.6746 139.977C39.5211 140.097 39.4043 140.19 39.3243 140.257C39.2509 140.33 39.1908 140.394 39.1441 140.447ZM39.1441 140.447C39.1107 140.354 39.0573 140.24 38.984 140.107C38.9172 139.973 38.8438 139.843 38.7638 139.716C38.6837 139.596 38.6103 139.496 38.5436 139.416C38.6436 139.336 38.7437 139.216 38.8438 139.056C38.9506 138.896 39.004 138.706 39.004 138.485V134.252H40.125V139.346C40.125 139.346 40.0749 139.383 39.9748 139.456C39.8747 139.53 39.7613 139.623 39.6345 139.736C39.5078 139.857 39.3943 139.977 39.2942 140.097C39.1941 140.224 39.1441 140.34 39.1441 140.447ZM50.0038 139.246H55.0384V140.227H50.0038V139.246ZM49.3232 135.703H55.719V136.644H49.3232V135.703ZM49.3232 134.131H55.719V135.082H49.3232V134.131ZM47.932 132.54H57.0502V133.551H47.932V132.54ZM49.2031 137.334H55.8291V140.547H54.588V138.335H50.3842V140.577H49.2031V137.334ZM51.4151 131.429L52.6162 131.129C52.7897 131.349 52.9598 131.596 53.1266 131.869C53.2935 132.143 53.4169 132.387 53.497 132.6L52.2158 132.92C52.1558 132.727 52.049 132.49 51.8955 132.21C51.7421 131.923 51.5819 131.663 51.4151 131.429ZM60.0829 134.912H65.6679V136.023H60.0829V134.912ZM60.5133 132.4H66.3685V133.551H60.5133V132.4ZM57.971 137.074H64.2266V138.225H57.971V137.074ZM65.3877 134.912H66.6288C66.6288 134.912 66.6254 134.946 66.6188 135.012C66.6188 135.072 66.6154 135.146 66.6087 135.232C66.6021 135.313 66.5954 135.379 66.5887 135.433C66.5087 136.38 66.4186 137.157 66.3185 137.765C66.2251 138.372 66.1183 138.849 65.9982 139.196C65.8848 139.543 65.748 139.797 65.5878 139.957C65.421 140.13 65.2442 140.247 65.0574 140.307C64.8772 140.374 64.6537 140.42 64.3868 140.447C64.1799 140.467 63.9063 140.474 63.566 140.467C63.2324 140.46 62.8821 140.45 62.5151 140.437C62.5017 140.264 62.4517 140.063 62.3649 139.837C62.2782 139.61 62.1714 139.41 62.0447 139.236C62.445 139.269 62.8287 139.289 63.1957 139.296C63.5627 139.303 63.8296 139.306 63.9964 139.306C64.1232 139.306 64.2266 139.299 64.3067 139.286C64.3934 139.273 64.4735 139.239 64.5469 139.186C64.6737 139.086 64.7871 138.876 64.8872 138.555C64.9873 138.228 65.0774 137.778 65.1574 137.204C65.2442 136.63 65.3176 135.926 65.3776 135.092L65.3877 134.912ZM59.9628 131.349L61.1939 131.459C61.1338 131.839 61.0671 132.236 60.9937 132.65C60.9203 133.064 60.8436 133.474 60.7635 133.881C60.6834 134.288 60.6034 134.675 60.5233 135.042C60.4499 135.409 60.3798 135.736 60.3131 136.023L59.0319 136.013C59.112 135.713 59.1921 135.373 59.2722 134.992C59.3589 134.612 59.4457 134.215 59.5324 133.801C59.6191 133.381 59.6992 132.96 59.7726 132.54C59.846 132.12 59.9094 131.723 59.9628 131.349ZM71.0527 135.162H76.958V136.253H71.0527V135.162ZM69.9618 134.101L71.1028 134.482C70.8893 134.909 70.6424 135.336 70.3621 135.763C70.0885 136.183 69.7916 136.58 69.4713 136.954C69.1577 137.321 68.8408 137.641 68.5205 137.915C68.4738 137.828 68.4037 137.721 68.3103 137.595C68.2169 137.461 68.1201 137.328 68.02 137.194C67.9199 137.061 67.8298 136.954 67.7498 136.874C68.0367 136.654 68.3169 136.397 68.5905 136.103C68.8641 135.803 69.1177 135.483 69.3512 135.142C69.5914 134.802 69.7949 134.455 69.9618 134.101ZM74.636 134.202H75.817V139.246C75.817 139.566 75.777 139.81 75.6969 139.977C75.6168 140.15 75.47 140.284 75.2565 140.377C75.043 140.464 74.7761 140.517 74.4558 140.537C74.1355 140.564 73.7552 140.577 73.3148 140.577C73.2948 140.404 73.2447 140.204 73.1646 139.977C73.0912 139.756 73.0145 139.57 72.9344 139.416C73.1346 139.423 73.3348 139.43 73.535 139.436C73.7351 139.436 73.912 139.436 74.0654 139.436C74.2189 139.436 74.3257 139.436 74.3857 139.436C74.4791 139.43 74.5425 139.413 74.5759 139.386C74.6159 139.359 74.636 139.306 74.636 139.226V134.202ZM69.2211 132.04H72.3239V133.04H69.2211V132.04ZM73.1746 132.04H76.9781V133.04H73.1746V132.04ZM69.2111 131.129L70.3621 131.429C70.2353 131.789 70.0819 132.15 69.9017 132.51C69.7215 132.87 69.5314 133.207 69.3312 133.521C69.131 133.835 68.9275 134.108 68.7206 134.342C68.6472 134.282 68.5472 134.212 68.4204 134.131C68.3003 134.045 68.1768 133.961 68.05 133.881C67.9233 133.801 67.8098 133.738 67.7097 133.691C68.0234 133.384 68.3136 133 68.5805 132.54C68.8474 132.08 69.0576 131.609 69.2111 131.129ZM73.2847 131.129L74.4258 131.409C74.2389 131.963 73.9954 132.493 73.6951 133C73.3948 133.508 73.0812 133.931 72.7543 134.272C72.6742 134.212 72.5741 134.141 72.454 134.061C72.3339 133.975 72.2104 133.891 72.0837 133.811C71.9569 133.724 71.8468 133.658 71.7534 133.611C72.087 133.317 72.3873 132.95 72.6542 132.51C72.9278 132.07 73.1379 131.609 73.2847 131.129ZM69.6815 132.84L70.6924 132.53C70.8192 132.744 70.9593 132.987 71.1128 133.261C71.2663 133.528 71.383 133.754 71.4631 133.941L70.4022 134.312C70.3288 134.125 70.222 133.891 70.0819 133.611C69.9417 133.331 69.8083 133.074 69.6815 132.84ZM73.9954 132.84L74.9863 132.46C75.1264 132.653 75.2799 132.874 75.4467 133.121C75.6202 133.361 75.757 133.564 75.8571 133.731L74.8061 134.161C74.7194 133.988 74.5959 133.778 74.4358 133.531C74.2756 133.277 74.1288 133.047 73.9954 132.84ZM71.363 137.134L72.3139 136.604C72.454 136.797 72.6041 137.007 72.7643 137.234C72.9311 137.454 73.0879 137.671 73.2347 137.885C73.3815 138.092 73.5016 138.275 73.595 138.435L72.5941 139.056C72.5074 138.889 72.3939 138.696 72.2538 138.475C72.1137 138.255 71.9636 138.028 71.8034 137.795C71.6433 137.555 71.4965 137.334 71.363 137.134ZM69.3112 135.983L70.4422 134.852L70.4622 134.862V140.577H69.3112V135.983ZM80.4211 132.58V133.511H84.5048V132.58H80.4211ZM79.2201 131.529H85.786V134.552H79.2201V131.529ZM78.029 135.182H86.937V136.273H78.029V135.182ZM80.0008 137.014H84.8952V138.105H80.0008V137.014ZM84.5348 137.014H85.836C85.836 137.014 85.8327 137.047 85.826 137.114C85.8193 137.174 85.8093 137.244 85.796 137.324C85.7893 137.398 85.7826 137.461 85.776 137.514C85.7092 138.028 85.6358 138.462 85.5558 138.816C85.4824 139.169 85.3956 139.453 85.2955 139.666C85.2021 139.88 85.0953 140.043 84.9752 140.157C84.8284 140.297 84.6683 140.39 84.4948 140.437C84.3213 140.49 84.1145 140.524 83.8742 140.537C83.6807 140.544 83.4305 140.547 83.1236 140.547C82.8166 140.554 82.4897 140.547 82.1427 140.527C82.1293 140.354 82.0826 140.16 82.0026 139.947C81.9292 139.733 81.8358 139.546 81.7223 139.386C82.0626 139.413 82.3963 139.433 82.7232 139.446C83.0502 139.453 83.2904 139.456 83.4439 139.456C83.5573 139.456 83.6507 139.453 83.7241 139.446C83.7975 139.433 83.8642 139.406 83.9243 139.366C84.0177 139.299 84.0978 139.179 84.1645 139.006C84.2379 138.832 84.3046 138.595 84.3647 138.295C84.4247 137.988 84.4815 137.615 84.5348 137.174V137.014ZM80.1109 135.603L81.402 135.783C81.3286 136.043 81.2452 136.317 81.1518 136.604C81.0651 136.884 80.9783 137.154 80.8916 137.414C80.8048 137.675 80.7214 137.905 80.6413 138.105H79.2601C79.3535 137.885 79.4503 137.631 79.5504 137.344C79.6505 137.057 79.7472 136.764 79.8406 136.464C79.9407 136.163 80.0308 135.876 80.1109 135.603Z" fill="#8F95B2"/>
<rect opacity="0.5" x="95.0971" y="166.419" width="830.175" height="5.76345" rx="2.87914" fill="#E4E4E4"/>
<rect x="95.0971" y="166.634" width="708.636" height="5.00449" rx="2.5" fill="#6C5DD3"/>
<rect x="95.0971" y="166.634" width="588.528" height="5.00449" rx="2.5" fill="#FFB7F5"/>
<rect x="95.0971" y="166.634" width="416.374" height="5.00449" rx="2.5" fill="#A0D7E7"/>
<rect x="95.0971" y="166.634" width="241.217" height="5.00449" rx="2.5" fill="#3F8CFF"/>
<path d="M44.4689 166.921H45.71V172.266H44.4689V166.921ZM41.7264 166.941H42.9475V168.323C42.9475 168.623 42.9275 168.946 42.8875 169.293C42.8474 169.64 42.7673 169.994 42.6472 170.354C42.5271 170.715 42.3536 171.065 42.1268 171.405C41.8999 171.752 41.603 172.073 41.236 172.366C41.1426 172.233 41.0091 172.083 40.8356 171.916C40.6621 171.756 40.4986 171.626 40.3452 171.525C40.6655 171.292 40.9157 171.035 41.0958 170.755C41.2827 170.474 41.4195 170.188 41.5062 169.894C41.5996 169.6 41.6597 169.317 41.6864 169.043C41.7131 168.77 41.7264 168.526 41.7264 168.313V166.941ZM44.1686 163.248C44.3755 163.655 44.6424 164.059 44.9693 164.459C45.2963 164.853 45.6566 165.216 46.0503 165.55C46.4507 165.877 46.8577 166.151 47.2714 166.371C47.1846 166.444 47.0879 166.538 46.9811 166.651C46.881 166.764 46.7809 166.885 46.6809 167.011C46.5874 167.131 46.5074 167.242 46.4406 167.342C46.0002 167.075 45.5765 166.748 45.1695 166.361C44.7625 165.974 44.3855 165.547 44.0385 165.08C43.6982 164.606 43.4012 164.115 43.1477 163.608L44.1686 163.248ZM43.2578 162.858L44.5189 163.068C44.2987 163.628 44.0185 164.175 43.6782 164.709C43.3445 165.236 42.9342 165.734 42.4471 166.201C41.96 166.668 41.3794 167.091 40.7055 167.472C40.6655 167.372 40.6021 167.258 40.5153 167.131C40.4353 167.005 40.3452 166.885 40.2451 166.771C40.1517 166.651 40.0649 166.554 39.9848 166.481C40.5854 166.167 41.0992 165.814 41.5262 165.42C41.96 165.026 42.3169 164.609 42.5972 164.169C42.8774 163.728 43.0976 163.291 43.2578 162.858ZM39.9248 162.888L41.0558 163.238C40.8423 163.805 40.5921 164.376 40.3051 164.95C40.0249 165.517 39.7179 166.054 39.3843 166.561C39.0507 167.068 38.7037 167.515 38.3434 167.902C38.31 167.802 38.2533 167.675 38.1732 167.522C38.0998 167.362 38.0198 167.202 37.933 167.041C37.8463 166.881 37.7695 166.751 37.7028 166.651C37.9964 166.344 38.28 165.99 38.5536 165.59C38.8338 165.19 39.0907 164.759 39.3243 164.299C39.5578 163.839 39.758 163.368 39.9248 162.888ZM38.8839 165.69L40.0849 164.489L40.0949 164.499V172.276H38.8839V165.69ZM50.8246 163.798H56.9301V164.819H50.8246V163.798ZM50.3842 171.085H57.1603V172.096H50.3842V171.085ZM51.255 165.51H56.3896V171.275H55.2886V166.391H52.3059V171.275H51.255V165.51ZM52.0457 166.931H55.4788V167.762H52.0457V166.931ZM52.0156 168.323H55.749V169.133H52.0156V168.323ZM51.9956 169.694H55.4988V170.515H51.9956V169.694ZM53.3268 162.898L54.598 162.938C54.5446 163.291 54.4812 163.652 54.4078 164.019C54.3344 164.379 54.261 164.723 54.1876 165.05C54.1142 165.377 54.0408 165.663 53.9674 165.91L52.9265 165.83C52.9865 165.563 53.0432 165.26 53.0966 164.919C53.15 164.579 53.1967 164.232 53.2367 163.879C53.2835 163.525 53.3135 163.198 53.3268 162.898ZM49.8337 162.908L50.9447 163.268C50.7378 163.829 50.4943 164.396 50.214 164.97C49.9338 165.537 49.6302 166.074 49.3032 166.581C48.9829 167.088 48.6493 167.535 48.3023 167.922C48.269 167.822 48.2122 167.695 48.1322 167.542C48.0588 167.382 47.982 167.222 47.902 167.061C47.8219 166.901 47.7451 166.771 47.6717 166.671C47.9587 166.371 48.2356 166.02 48.5025 165.62C48.7761 165.213 49.0263 164.779 49.2532 164.319C49.48 163.859 49.6735 163.388 49.8337 162.908ZM48.8528 165.69L49.9538 164.559L49.9638 164.569V172.276H48.8528V165.69ZM61.9846 163.328H66.7989V168.663H65.6179V164.379H63.1256V168.663H61.9846V163.328ZM64.2166 168.663H65.3276V170.895C65.3276 171.028 65.3443 171.118 65.3776 171.165C65.4177 171.212 65.4844 171.235 65.5778 171.235H65.9882C66.0616 171.235 66.1216 171.195 66.1684 171.115C66.2151 171.028 66.2451 170.871 66.2584 170.645C66.2785 170.411 66.2951 170.077 66.3085 169.644C66.4419 169.75 66.5954 169.841 66.7689 169.914C66.9424 169.987 67.0992 170.041 67.2393 170.074C67.206 170.595 67.1559 171.005 67.0892 171.305C67.0225 171.599 66.9057 171.806 66.7389 171.926C66.572 172.053 66.3185 172.116 65.9782 172.116H65.3376C64.9439 172.116 64.657 172.039 64.4768 171.886C64.3033 171.732 64.2166 171.445 64.2166 171.025V168.663ZM63.7962 164.99H64.9172V166.581C64.9172 167.028 64.8739 167.508 64.7871 168.022C64.707 168.529 64.5536 169.043 64.3267 169.564C64.1065 170.084 63.7862 170.578 63.3658 171.045C62.9455 171.505 62.3983 171.916 61.7244 172.276C61.6777 172.189 61.6076 172.089 61.5142 171.976C61.4274 171.869 61.334 171.762 61.2339 171.656C61.1338 171.549 61.0438 171.469 60.9637 171.415C61.6043 171.082 62.1114 170.715 62.485 170.314C62.8654 169.914 63.149 169.5 63.3358 169.073C63.5226 168.639 63.6461 168.209 63.7061 167.782C63.7662 167.348 63.7962 166.941 63.7962 166.561V164.99ZM57.941 163.618H60.9337V164.769H57.941V163.618ZM60.5333 163.618H60.7335L60.9437 163.578L61.7144 163.819C61.5876 165.033 61.3841 166.154 61.1038 167.182C60.8236 168.202 60.4699 169.113 60.0429 169.914C59.6225 170.715 59.1187 171.395 58.5315 171.956C58.4714 171.862 58.3914 171.756 58.2913 171.636C58.1912 171.522 58.0844 171.412 57.971 171.305C57.8576 171.198 57.7508 171.108 57.6507 171.035C58.0377 170.701 58.388 170.281 58.7017 169.774C59.0219 169.267 59.3055 168.7 59.5524 168.072C59.7993 167.445 60.0062 166.778 60.173 166.071C60.3398 165.363 60.4599 164.639 60.5333 163.899V163.618ZM57.951 166.101L58.8218 165.49C59.0953 165.844 59.3789 166.221 59.6725 166.621C59.9661 167.021 60.2464 167.425 60.5133 167.832C60.7802 168.239 61.0237 168.633 61.2439 169.013C61.4641 169.387 61.641 169.73 61.7744 170.044L60.7835 170.795C60.6634 170.474 60.4999 170.121 60.2931 169.734C60.0862 169.347 59.8527 168.943 59.5924 168.523C59.3322 168.102 59.0586 167.685 58.7717 167.272C58.4915 166.858 58.2179 166.468 57.951 166.101ZM69.171 166.361H74.716V167.382H69.171V166.361ZM74.4358 166.361H74.686L74.8762 166.321L75.6769 166.821C75.5301 167.061 75.3466 167.312 75.1264 167.572C74.9062 167.825 74.6727 168.072 74.4258 168.313C74.1855 168.546 73.952 168.753 73.7251 168.933C73.6117 168.84 73.4649 168.736 73.2847 168.623C73.1113 168.503 72.9611 168.406 72.8343 168.333C73.0412 168.172 73.248 167.989 73.4549 167.782C73.6684 167.569 73.8619 167.355 74.0354 167.141C74.2089 166.928 74.3424 166.741 74.4358 166.581V166.361ZM72.8043 163.168C73.0445 163.395 73.3348 163.618 73.6751 163.839C74.0154 164.059 74.3824 164.269 74.7761 164.469C75.1764 164.669 75.5868 164.849 76.0072 165.01C76.4276 165.17 76.8379 165.307 77.2383 165.42C77.1449 165.5 77.0481 165.6 76.948 165.72C76.8479 165.84 76.7512 165.964 76.6578 166.091C76.5644 166.217 76.4876 166.331 76.4276 166.431C76.0339 166.297 75.6268 166.131 75.2065 165.93C74.7928 165.73 74.3824 165.51 73.9754 165.27C73.5683 165.03 73.1813 164.776 72.8143 164.509C72.454 164.242 72.1304 163.965 71.8434 163.678L72.8043 163.168ZM71.4231 165.43L72.1437 164.769C72.3973 164.903 72.6575 165.066 72.9244 165.26C73.1913 165.453 73.3948 165.637 73.535 165.81L72.7643 166.531C72.6308 166.357 72.4373 166.167 72.1838 165.96C71.9302 165.747 71.6766 165.57 71.4231 165.43ZM70.0518 168.703H71.2429V170.585C71.2429 170.745 71.2796 170.848 71.353 170.895C71.4331 170.935 71.6132 170.955 71.8935 170.955C71.9402 170.955 72.0169 170.955 72.1237 170.955C72.2371 170.955 72.3606 170.955 72.494 170.955C72.6275 170.955 72.7609 170.955 72.8944 170.955C73.0345 170.955 73.1613 170.955 73.2747 170.955C73.3882 170.955 73.4782 170.955 73.545 170.955C73.6984 170.955 73.8152 170.928 73.8953 170.875C73.9754 170.821 74.0321 170.711 74.0654 170.545C74.0988 170.378 74.1255 170.124 74.1455 169.784C74.2323 169.851 74.339 169.914 74.4658 169.974C74.5926 170.027 74.7227 170.077 74.8562 170.124C74.9963 170.164 75.1197 170.198 75.2265 170.224C75.1798 170.698 75.103 171.068 74.9963 171.335C74.8895 171.595 74.7294 171.772 74.5158 171.866C74.3023 171.966 74.0087 172.016 73.6351 172.016C73.5817 172.016 73.4916 172.016 73.3648 172.016C73.238 172.016 73.0946 172.016 72.9344 172.016C72.781 172.016 72.6241 172.016 72.464 172.016C72.3039 172.016 72.1604 172.016 72.0336 172.016C71.9135 172.016 71.8268 172.016 71.7734 172.016C71.3196 172.016 70.966 171.972 70.7124 171.886C70.4655 171.799 70.2921 171.652 70.192 171.445C70.0985 171.238 70.0518 170.955 70.0518 170.595V168.703ZM70.9426 168.403L71.8234 167.762C72.037 167.929 72.2605 168.119 72.494 168.333C72.7342 168.539 72.9578 168.75 73.1646 168.963C73.3782 169.17 73.545 169.36 73.6651 169.534L72.7242 170.244C72.6108 170.064 72.4573 169.867 72.2638 169.654C72.0703 169.434 71.8568 169.213 71.6232 168.993C71.3964 168.773 71.1695 168.576 70.9426 168.403ZM74.7761 169.063L75.777 168.663C75.9638 168.916 76.1506 169.197 76.3375 169.504C76.5243 169.804 76.6945 170.101 76.8479 170.394C77.0081 170.688 77.1315 170.955 77.2183 171.195L76.1273 171.666C76.0606 171.439 75.9538 171.175 75.807 170.875C75.6602 170.568 75.4967 170.258 75.3166 169.944C75.1364 169.624 74.9562 169.33 74.7761 169.063ZM68.6706 168.763L69.7416 169.123C69.6815 169.417 69.6048 169.727 69.5114 170.054C69.4179 170.381 69.3145 170.698 69.2011 171.005C69.0943 171.305 68.9709 171.575 68.8307 171.816L67.7398 171.265C67.8799 171.052 68.01 170.805 68.1301 170.525C68.2502 170.244 68.357 169.954 68.4504 169.654C68.5438 169.347 68.6172 169.05 68.6706 168.763ZM72.0937 162.718L73.2147 163.138C72.8544 163.658 72.4173 164.132 71.9035 164.559C71.3964 164.986 70.8425 165.363 70.242 165.69C69.6415 166.017 69.0209 166.294 68.3803 166.521C68.3403 166.428 68.2802 166.314 68.2002 166.181C68.1268 166.04 68.0434 165.904 67.95 165.77C67.8632 165.637 67.7865 165.53 67.7197 165.45C68.3203 165.276 68.8975 165.06 69.4513 164.799C70.0051 164.532 70.5123 164.226 70.9727 163.879C71.4331 163.525 71.8067 163.138 72.0937 162.718Z" fill="#8F95B2"/>
<rect opacity="0.5" x="95.0971" y="198.119" width="830.175" height="5.76345" rx="2.87914" fill="#E4E4E4"/>
<rect x="95.0971" y="197.662" width="790.71" height="6.00539" rx="2.87914" fill="#6C5DD3"/>
<rect x="95.0971" y="197.662" width="663.596" height="6.00539" rx="2.87914" fill="#FFB7F5"/>
<rect x="95.0971" y="197.662" width="556.5" height="6.00539" rx="2.87914" fill="#A0D7E7"/>
<rect x="95.0971" y="197.662" width="405.364" height="6.00539" rx="2.87914" fill="#3F8CFF"/>
<path d="M37.913 196.259H40.9657V197.339H37.913V196.259ZM39.2242 199.652L40.3952 198.25V203.975H39.2242V199.652ZM40.3452 198.611C40.4252 198.671 40.5353 198.767 40.6755 198.901C40.8223 199.028 40.9757 199.168 41.1359 199.321C41.296 199.468 41.4428 199.608 41.5763 199.742C41.7097 199.875 41.8065 199.972 41.8665 200.032L41.1259 201.023C41.0458 200.896 40.9424 200.753 40.8156 200.592C40.6888 200.426 40.5554 200.255 40.4152 200.082C40.2751 199.908 40.1383 199.745 40.0049 199.592C39.8781 199.438 39.7647 199.311 39.6646 199.211L40.3452 198.611ZM40.6154 196.259H40.8556L41.0658 196.218L41.6964 196.669C41.4562 197.289 41.1426 197.887 40.7555 198.46C40.3752 199.034 39.9515 199.555 39.4844 200.022C39.024 200.482 38.5536 200.866 38.0731 201.173C38.0464 201.053 38.0064 200.913 37.953 200.753C37.8996 200.592 37.8429 200.436 37.7829 200.282C37.7228 200.129 37.6661 200.012 37.6127 199.932C38.0398 199.698 38.4501 199.398 38.8438 199.031C39.2375 198.664 39.5878 198.26 39.8948 197.82C40.2084 197.373 40.4486 196.922 40.6154 196.469V196.259ZM38.8638 195.027L39.8047 194.527C39.9848 194.714 40.1583 194.927 40.3252 195.168C40.492 195.408 40.6221 195.621 40.7155 195.808L39.7246 196.389C39.6445 196.195 39.5211 195.972 39.3543 195.718C39.1941 195.464 39.0307 195.234 38.8638 195.027ZM41.3561 202.484H47.1513V203.665H41.3561V202.484ZM41.7965 197.58H46.9111V198.741H41.7965V197.58ZM43.7682 194.637H45.0094V203.055H43.7682V194.637ZM48.3524 199.541H56.6698V200.713H48.3524V199.541ZM50.144 197.6H54.8382V198.701H50.144V197.6ZM53.507 201.273L54.5379 200.743C54.8315 201.003 55.1218 201.283 55.4087 201.583C55.6956 201.884 55.9592 202.187 56.1994 202.494C56.4396 202.794 56.6365 203.071 56.7899 203.325L55.699 203.975C55.5655 203.722 55.3787 203.435 55.1385 203.115C54.9049 202.801 54.6447 202.484 54.3578 202.164C54.0708 201.837 53.7872 201.54 53.507 201.273ZM52.436 194.527L53.527 195.047C52.9398 195.848 52.2225 196.569 51.3751 197.209C50.5276 197.85 49.6035 198.39 48.6026 198.831C48.5492 198.731 48.4725 198.614 48.3724 198.481C48.2723 198.34 48.1655 198.207 48.0521 198.08C47.9387 197.947 47.8352 197.84 47.7418 197.76C48.3824 197.52 48.9996 197.229 49.5935 196.889C50.1873 196.549 50.7278 196.178 51.2149 195.778C51.7087 195.371 52.1157 194.954 52.436 194.527ZM52.7163 195.027C52.9365 195.261 53.2101 195.505 53.537 195.758C53.8706 196.005 54.2376 196.249 54.638 196.489C55.045 196.729 55.4687 196.952 55.9091 197.159C56.3562 197.36 56.8033 197.533 57.2503 197.68C57.1569 197.753 57.0568 197.853 56.9501 197.98C56.8433 198.107 56.7399 198.237 56.6398 198.37C56.5464 198.504 56.4663 198.624 56.3996 198.731C55.9659 198.551 55.5321 198.34 55.0984 198.1C54.6647 197.86 54.2477 197.6 53.8473 197.319C53.4536 197.039 53.0899 196.756 52.7563 196.469C52.4294 196.182 52.1491 195.912 51.9156 195.658L52.7163 195.027ZM49.063 203.805C49.043 203.719 49.0063 203.598 48.9529 203.445C48.9062 203.298 48.8561 203.148 48.8028 202.995C48.7561 202.834 48.706 202.698 48.6526 202.584C48.7861 202.558 48.9129 202.504 49.033 202.424C49.1531 202.337 49.2932 202.224 49.4533 202.084C49.5401 202.024 49.6602 201.92 49.8137 201.773C49.9671 201.62 50.1373 201.44 50.3241 201.233C50.5176 201.019 50.7111 200.793 50.9047 200.552C51.0982 200.305 51.2817 200.052 51.4551 199.792L52.5661 200.562C52.1925 201.036 51.7721 201.503 51.305 201.964C50.8379 202.424 50.3675 202.824 49.8937 203.165V203.205C49.8937 203.205 49.8504 203.221 49.7636 203.255C49.6769 203.295 49.5801 203.345 49.4734 203.405C49.3666 203.472 49.2699 203.538 49.1831 203.605C49.103 203.679 49.063 203.745 49.063 203.805ZM49.063 203.805L49.043 202.854L49.8137 202.424L55.4888 202.104C55.5088 202.271 55.5421 202.461 55.5889 202.674C55.6356 202.881 55.6756 203.048 55.709 203.175C54.8082 203.241 54.0275 203.298 53.3669 203.345C52.7129 203.398 52.1524 203.442 51.6854 203.475C51.2249 203.508 50.8446 203.538 50.5443 203.565C50.2441 203.592 50.0005 203.615 49.8137 203.635C49.6268 203.662 49.4767 203.685 49.3633 203.705C49.2498 203.732 49.1497 203.765 49.063 203.805ZM58.031 196.118H61.6743V197.229H58.031V196.118ZM57.8309 198.44H61.7944V199.582H57.8309V198.44ZM59.3222 194.677H60.4632V197.87C60.4632 198.337 60.4432 198.834 60.4032 199.361C60.3631 199.888 60.2797 200.422 60.153 200.963C60.0262 201.503 59.836 202.024 59.5824 202.524C59.3356 203.025 59.0019 203.478 58.5815 203.885C58.5282 203.805 58.4514 203.712 58.3513 203.605C58.2512 203.498 58.1478 203.395 58.0411 203.295C57.9343 203.195 57.8309 203.115 57.7308 203.055C58.1044 202.721 58.398 202.337 58.6116 201.904C58.8318 201.463 58.9919 201.006 59.092 200.532C59.1921 200.059 59.2555 199.595 59.2822 199.141C59.3089 198.681 59.3222 198.257 59.3222 197.87V194.677ZM60.2931 199.692C60.3598 199.752 60.4532 199.848 60.5733 199.982C60.6934 200.109 60.8202 200.252 60.9537 200.412C61.0938 200.572 61.2339 200.733 61.374 200.893C61.5142 201.053 61.6376 201.196 61.7444 201.323C61.8511 201.45 61.9312 201.547 61.9846 201.613L61.1639 202.474C61.0704 202.321 60.9537 202.144 60.8135 201.944C60.6801 201.743 60.5333 201.537 60.3732 201.323C60.2197 201.11 60.0695 200.909 59.9227 200.723C59.7826 200.536 59.6592 200.379 59.5524 200.252L60.2931 199.692ZM62.1247 195.027H66.7689V200.362H65.5778V196.068H63.2657V200.362H62.1247V195.027ZM64.1465 200.052H65.1975V202.514C65.1975 202.641 65.2208 202.728 65.2675 202.774C65.3143 202.821 65.3843 202.844 65.4777 202.844H65.9381C66.0249 202.844 66.0916 202.808 66.1383 202.734C66.185 202.654 66.2184 202.504 66.2384 202.284C66.2584 202.064 66.2751 201.75 66.2885 201.343C66.4152 201.443 66.5654 201.533 66.7389 201.613C66.919 201.687 67.0792 201.74 67.2193 201.773C67.1859 202.281 67.1326 202.681 67.0592 202.975C66.9858 203.261 66.8656 203.462 66.6988 203.575C66.532 203.695 66.2818 203.755 65.9482 203.755H65.2575C64.8638 203.755 64.5803 203.679 64.4068 203.525C64.2333 203.372 64.1465 203.078 64.1465 202.644V200.052ZM63.8763 196.689H64.9873V198.28C64.9873 198.727 64.9439 199.208 64.8572 199.722C64.7771 200.229 64.6236 200.743 64.3968 201.263C64.1699 201.777 63.8463 202.267 63.4259 202.734C63.0055 203.195 62.4584 203.605 61.7844 203.965C61.7377 203.885 61.6676 203.789 61.5742 203.675C61.4875 203.568 61.3941 203.462 61.294 203.355C61.1939 203.248 61.1038 203.168 61.0237 203.115C61.671 202.781 62.1848 202.414 62.5651 202.014C62.9455 201.613 63.229 201.2 63.4159 200.773C63.6027 200.339 63.7262 199.908 63.7862 199.481C63.8463 199.048 63.8763 198.641 63.8763 198.26V196.689ZM72.2038 197.59H75.777V198.731H72.2038V197.59ZM68.1401 202.985C68.367 202.791 68.6206 202.561 68.9008 202.294C69.1811 202.02 69.4713 201.73 69.7716 201.423C70.0719 201.11 70.3588 200.796 70.6324 200.482L71.293 201.403C71.0594 201.69 70.8125 201.98 70.5523 202.274C70.2921 202.568 70.0285 202.858 69.7616 203.145C69.5013 203.432 69.2411 203.705 68.9809 203.965L68.1401 202.985ZM68.5505 198L69.2211 197.209C69.4079 197.309 69.6148 197.423 69.8417 197.55C70.0685 197.676 70.2887 197.8 70.5022 197.92C70.7224 198.04 70.9026 198.15 71.0427 198.25L70.3321 199.131C70.2053 199.031 70.0352 198.914 69.8216 198.781C69.6081 198.647 69.3879 198.514 69.161 198.38C68.9408 198.24 68.7373 198.114 68.5505 198ZM67.9399 199.822L68.6005 199.021C68.7874 199.108 68.9942 199.215 69.2211 199.341C69.448 199.461 69.6682 199.582 69.8817 199.702C70.1019 199.815 70.282 199.918 70.4222 200.012L69.7316 200.913C69.6048 200.813 69.4346 200.699 69.2211 200.572C69.0142 200.446 68.7974 200.315 68.5705 200.182C68.3436 200.049 68.1335 199.928 67.9399 199.822ZM75.1564 197.59H76.3675V200.052C76.3675 200.332 76.3275 200.559 76.2474 200.733C76.174 200.899 76.0305 201.026 75.817 201.113C75.5968 201.206 75.3399 201.263 75.0463 201.283C74.7527 201.296 74.4158 201.303 74.0354 201.303C74.0021 201.136 73.942 200.946 73.8553 200.733C73.7685 200.512 73.6784 200.326 73.585 200.172C73.7718 200.179 73.9553 200.185 74.1355 200.192C74.3223 200.192 74.4892 200.192 74.636 200.192C74.7828 200.192 74.8828 200.192 74.9362 200.192C75.023 200.192 75.0797 200.182 75.1064 200.162C75.1397 200.135 75.1564 200.092 75.1564 200.032V197.59ZM71.5332 197.59H72.7843V202.104C72.7843 202.271 72.801 202.397 72.8343 202.484C72.8677 202.564 72.9344 202.618 73.0345 202.644C73.1413 202.671 73.2981 202.684 73.5049 202.684C73.5583 202.684 73.6451 202.684 73.7652 202.684C73.892 202.684 74.0321 202.684 74.1855 202.684C74.3457 202.684 74.5025 202.684 74.656 202.684C74.8161 202.684 74.9596 202.684 75.0864 202.684C75.2131 202.684 75.3132 202.684 75.3866 202.684C75.5668 202.684 75.7036 202.654 75.797 202.594C75.8904 202.527 75.9571 202.407 75.9972 202.234C76.0439 202.06 76.0806 201.803 76.1073 201.463C76.2474 201.557 76.4276 201.65 76.6478 201.743C76.8746 201.83 77.0748 201.89 77.2483 201.924C77.1949 202.404 77.1082 202.784 76.9881 203.065C76.868 203.338 76.6911 203.532 76.4576 203.645C76.224 203.759 75.9004 203.815 75.4867 203.815C75.42 203.815 75.3132 203.815 75.1664 203.815C75.0263 203.815 74.8662 203.815 74.686 203.815C74.5125 203.815 74.3357 203.815 74.1555 203.815C73.982 203.815 73.8252 203.815 73.6851 203.815C73.545 203.815 73.4449 203.815 73.3848 203.815C72.9111 203.815 72.5374 203.765 72.2638 203.665C71.9969 203.572 71.8067 203.402 71.6933 203.155C71.5866 202.908 71.5332 202.564 71.5332 202.124V197.59ZM67.97 195.308H77.0181V196.419H67.97V195.308ZM70.0318 194.577H71.2629V197.229H70.0318V194.577ZM73.7051 194.577H74.9562V197.229H73.7051V194.577Z" fill="#8F95B2"/>
<rect opacity="0.5" x="95.0971" y="229.817" width="830.175" height="5.76345" rx="2.87914" fill="#E4E4E4"/>
<rect x="95.0971" y="229.691" width="817.734" height="6.00539" rx="2.87914" fill="#6C5DD3"/>
<rect x="95.0971" y="229.691" width="745.669" height="6.00539" rx="2.87914" fill="#FFB7F5"/>
<rect x="95.0971" y="229.691" width="521.468" height="6.00539" rx="2.87914" fill="#A0D7E7"/>
<rect x="95.0971" y="229.691" width="465.418" height="6.00539" rx="2.87914" fill="#3F8CFF"/>
<path d="M38.1732 227.226H46.7509V229.108H45.4998V228.377H39.3743V229.108H38.1732V227.226ZM41.5963 226.496L42.8574 226.155C42.9375 226.322 43.0276 226.512 43.1277 226.726C43.2278 226.933 43.3012 227.109 43.3479 227.256L42.0267 227.647C41.9866 227.493 41.9266 227.31 41.8465 227.096C41.7664 226.876 41.683 226.676 41.5963 226.496ZM38.7638 229.488H46.1804V234.433H44.9693V230.519H39.9148V234.483H38.7638V229.488ZM39.5044 231.25H45.5899V232.241H39.5044V231.25ZM39.4944 232.981H45.6299V234.022H39.4944V232.981ZM41.8265 228.627H43.0776V235.664H41.8265V228.627ZM48.4024 227.517H56.5497V228.567H48.4024V227.517ZM48.8628 229.078H56.1594V230.089H48.8628V229.078ZM48.2723 232.181H56.86V233.252H48.2723V232.181ZM47.972 230.619H57.0802V231.66H47.972V230.619ZM51.8355 228.177H53.0766V231.46H51.8355V228.177ZM49.6335 226.626L50.7045 226.205C50.8646 226.385 51.0147 226.586 51.1549 226.806C51.295 227.019 51.3951 227.213 51.4551 227.386L50.3341 227.867C50.2808 227.693 50.1873 227.49 50.0539 227.256C49.9204 227.023 49.7803 226.813 49.6335 226.626ZM54.0875 226.205L55.3787 226.536C55.2119 226.803 55.0384 227.059 54.8582 227.306C54.6847 227.547 54.5279 227.753 54.3878 227.927L53.2968 227.617C53.3902 227.483 53.487 227.336 53.5871 227.176C53.6871 227.009 53.7806 226.843 53.8673 226.676C53.9541 226.502 54.0275 226.345 54.0875 226.205ZM51.6954 231.45H52.9665C52.9198 231.897 52.8497 232.311 52.7563 232.691C52.6696 233.071 52.5294 233.418 52.3359 233.732C52.1491 234.039 51.8889 234.316 51.5552 234.563C51.2283 234.81 50.8046 235.023 50.2841 235.203C49.7636 235.384 49.1231 235.537 48.3624 235.664C48.3357 235.557 48.289 235.437 48.2222 235.303C48.1555 235.17 48.0788 235.037 47.992 234.903C47.912 234.776 47.8352 234.67 47.7618 234.583C48.4424 234.489 49.0096 234.379 49.4634 234.253C49.9238 234.119 50.2941 233.962 50.5744 233.782C50.8546 233.602 51.0681 233.398 51.2149 233.172C51.3684 232.945 51.4785 232.688 51.5452 232.401C51.612 232.114 51.662 231.797 51.6954 231.45ZM53.2267 232.551C53.527 233.172 54.0041 233.645 54.658 233.972C55.3186 234.293 56.1827 234.489 57.2503 234.563C57.1703 234.656 57.0802 234.766 56.9801 234.893C56.8867 235.027 56.7999 235.16 56.7199 235.293C56.6398 235.434 56.5764 235.564 56.5297 235.684C55.7423 235.577 55.0684 235.407 54.5079 235.173C53.9474 234.94 53.4736 234.626 53.0866 234.233C52.6996 233.832 52.376 233.338 52.1157 232.751L53.2267 232.551ZM63.506 226.325H64.7271C64.7204 227.033 64.7037 227.743 64.677 228.457C64.657 229.165 64.6003 229.859 64.5069 230.539C64.4201 231.22 64.2767 231.87 64.0765 232.491C63.883 233.112 63.6161 233.692 63.2758 234.233C62.9355 234.766 62.4984 235.243 61.9646 235.664C61.8645 235.504 61.7277 235.34 61.5542 235.173C61.3874 235.007 61.2206 234.87 61.0538 234.763C61.5609 234.396 61.9713 233.972 62.2849 233.492C62.5985 233.011 62.8387 232.491 63.0055 231.93C63.1723 231.37 63.2891 230.783 63.3558 230.169C63.4292 229.555 63.4693 228.924 63.4759 228.277C63.4893 227.623 63.4993 226.973 63.506 226.325ZM64.647 229.158C64.6603 229.358 64.6904 229.632 64.7371 229.979C64.7904 230.319 64.8705 230.703 64.9773 231.13C65.084 231.55 65.2308 231.981 65.4177 232.421C65.6112 232.861 65.8581 233.288 66.1583 233.702C66.4653 234.109 66.8423 234.469 67.2894 234.783C67.1225 234.896 66.9591 235.033 66.7989 235.193C66.6454 235.36 66.522 235.524 66.4286 235.684C65.9615 235.337 65.5678 234.933 65.2475 234.473C64.9272 234.006 64.6637 233.519 64.4568 233.011C64.2566 232.504 64.0965 232.011 63.9764 231.53C63.8563 231.043 63.7662 230.599 63.7061 230.199C63.6528 229.799 63.6094 229.482 63.576 229.248L64.647 229.158ZM58.6616 227.156L59.4523 226.395C59.6191 226.542 59.806 226.706 60.0128 226.886C60.2197 227.059 60.4199 227.233 60.6134 227.406C60.8069 227.58 60.9637 227.733 61.0838 227.867L60.253 228.728C60.1396 228.587 59.9895 228.427 59.8026 228.247C59.6225 228.06 59.429 227.873 59.2221 227.687C59.0153 227.493 58.8284 227.316 58.6616 227.156ZM59.3823 235.504L59.122 234.413L59.3823 234.032L61.4341 232.591C61.4675 232.751 61.5175 232.935 61.5842 233.142C61.6576 233.342 61.7244 233.502 61.7844 233.622C61.3107 233.962 60.927 234.243 60.6334 234.463C60.3398 234.683 60.1062 234.86 59.9328 234.993C59.7659 235.127 59.6425 235.23 59.5624 235.303C59.489 235.384 59.429 235.45 59.3823 235.504ZM57.8709 229.368H60.243V230.519H57.8709V229.368ZM59.3823 235.504C59.3489 235.417 59.2955 235.32 59.2221 235.213C59.1487 235.113 59.072 235.01 58.9919 234.903C58.9118 234.803 58.8384 234.723 58.7717 234.663C58.8918 234.569 59.0219 234.429 59.1621 234.243C59.3022 234.049 59.3723 233.815 59.3723 233.542V229.368H60.5333V234.192C60.5333 234.192 60.4933 234.223 60.4132 234.283C60.3398 234.343 60.2464 234.426 60.1329 234.533C60.0195 234.633 59.9027 234.74 59.7826 234.853C59.6692 234.973 59.5724 235.09 59.4924 235.203C59.419 235.317 59.3823 235.417 59.3823 235.504ZM73.3848 233.532H76.1273V234.663H73.3848V233.532ZM72.8544 227.146H76.6878V235.243H75.4767V228.267H74.0154V235.394H72.8544V227.146ZM69.7215 228.087H70.9326V230.009C70.9326 230.436 70.9026 230.9 70.8425 231.4C70.7892 231.9 70.6757 232.408 70.5022 232.921C70.3354 233.435 70.0952 233.929 69.7816 234.403C69.4747 234.87 69.071 235.287 68.5705 235.654C68.5171 235.567 68.4371 235.464 68.3303 235.344C68.2235 235.223 68.1134 235.107 68 234.993C67.8932 234.88 67.7965 234.796 67.7097 234.743C68.1701 234.416 68.5338 234.056 68.8007 233.662C69.0743 233.262 69.2745 232.851 69.4013 232.431C69.5347 232.004 69.6215 231.583 69.6615 231.17C69.7015 230.749 69.7215 230.359 69.7215 229.999V228.087ZM68.9008 227.547H72.3439V228.658H68.9008V227.547ZM67.8599 230.249H72.5841V231.38H67.8599V230.249ZM70.6424 231.65C70.7224 231.724 70.8325 231.837 70.9727 231.991C71.1195 232.137 71.2763 232.304 71.4431 232.491C71.6099 232.678 71.7767 232.865 71.9435 233.051C72.1104 233.238 72.2572 233.408 72.3839 233.562C72.5174 233.709 72.6141 233.819 72.6742 233.892L71.8635 234.913C71.77 234.766 71.6599 234.603 71.5332 234.423C71.4064 234.236 71.2696 234.046 71.1228 233.852C70.976 233.659 70.8292 233.469 70.6824 233.282C70.5356 233.095 70.3921 232.921 70.252 232.761C70.1186 232.594 70.0018 232.451 69.9017 232.331L70.6424 231.65ZM68.7907 226.285L69.9417 226.516C69.8617 226.956 69.7549 227.39 69.6215 227.817C69.488 228.237 69.3379 228.638 69.171 229.018C69.0042 229.392 68.8274 229.718 68.6406 229.999C68.5672 229.932 68.4704 229.855 68.3503 229.769C68.2369 229.682 68.1168 229.595 67.99 229.508C67.8632 229.422 67.7564 229.355 67.6697 229.308C67.9433 228.941 68.1735 228.487 68.3603 227.947C68.5538 227.406 68.6973 226.853 68.7907 226.285Z" fill="#8F95B2"/>
<path d="M11.5269 246.387H404.162V261.516C404.162 267.882 399.001 273.043 392.635 273.043H23.0538C16.6877 273.043 11.5269 267.882 11.5269 261.516V246.387Z" fill="#F9FAFC"/>
</g>
<defs>
<filter id="filter0_d_140_3113" x="5.34537e-05" y="2.67269e-05" width="1077" height="290.333" filterUnits="userSpaceOnUse" color-interpolation-filters="sRGB">
<feFlood flood-opacity="0" result="BackgroundImageFix"/>
<feColorMatrix in="SourceAlpha" type="matrix" values="0 0 0 0 0 0 0 0 0 0 0 0 0 0 0 0 0 0 127 0" result="hardAlpha"/>
<feOffset dy="5.75827"/>
<feGaussianBlur stdDeviation="5.75827"/>
<feComposite in2="hardAlpha" operator="out"/>
<feColorMatrix type="matrix" values="0 0 0 0 0.560784 0 0 0 0 0.584314 0 0 0 0 0.698039 0 0 0 0.15 0"/>
<feBlend mode="normal" in2="BackgroundImageFix" result="effect1_dropShadow_140_3113"/>
<feBlend mode="normal" in="SourceGraphic" in2="effect1_dropShadow_140_3113" result="shape"/>
</filter>
</defs>
</svg>
