<?xml version="1.0" encoding="UTF-8"?>
<svg width="1200" height="900" viewBox="0 0 1200 900" fill="none" xmlns="http://www.w3.org/2000/svg">
  <!-- 操作区域 -->
  <g transform="translate(50, 20)">
    <!-- 全部案例下拉框 -->
    <rect x="0" y="0" width="140" height="56" rx="12" fill="#FFFFFF" stroke="#E6E8F0" stroke-width="1"/>
    <text x="16" y="34" font-family="Noto Sans SC" font-size="16" font-weight="500" fill="#718096">全部案例</text>
    <path d="M116 28L124 36L132 28" stroke="#718096" stroke-width="2" fill="none"/>
    
    <!-- 全部价格下拉框 -->
    <rect x="160" y="0" width="140" height="56" rx="12" fill="#FFFFFF" stroke="#E6E8F0" stroke-width="1"/>
    <text x="176" y="34" font-family="Noto Sans SC" font-size="16" font-weight="500" fill="#718096">全部价格</text>
    <path d="M276 28L284 36L292 28" stroke="#718096" stroke-width="2" fill="none"/>
    
    <!-- 全部状态下拉框 -->
    <rect x="320" y="0" width="140" height="56" rx="12" fill="#FFFFFF" stroke="#E6E8F0" stroke-width="1"/>
    <text x="336" y="34" font-family="Noto Sans SC" font-size="16" font-weight="500" fill="#718096">全部状态</text>
    <path d="M436 28L444 36L452 28" stroke="#718096" stroke-width="2" fill="none"/>
  </g>

  <!-- 第一行案例卡片 -->
  <g transform="translate(50, 120)">
    <!-- 智达智能 -->
    <rect x="0" y="0" width="320" height="240" rx="16" fill="#FFFFFF" stroke="#F1F3F4" stroke-width="1"/>
    <rect x="24" y="24" width="48" height="48" rx="8" fill="#525BF5"/>
    <text x="88" y="48" font-family="Noto Sans SC" font-size="16" font-weight="500" fill="#111827">智达智能</text>
    <rect x="88" y="72" width="8" height="8" rx="4" fill="#168AFF"/>
    <text x="112" y="83" font-family="Noto Sans SC" font-size="14" fill="#718096">限免</text>
    <text x="24" y="110" font-family="Noto Sans SC" font-size="14" fill="#718096">
      <tspan x="24" dy="0">进军东南亚，凭借智能家居设备</tspan>
      <tspan x="24" dy="18">打开市场，成为区域技术领先</tspan>
      <tspan x="24" dy="18">品牌。</tspan>
    </text>
    <rect x="24" y="180" width="272" height="40" rx="12" stroke="#168AFF" stroke-width="1" fill="none"/>
    <text x="160" y="203" font-family="Noto Sans SC" font-size="14" font-weight="700" fill="#168AFF" text-anchor="middle">立即查看</text>
    <g transform="translate(276, 24)">
      <circle cx="8" cy="8" r="2" fill="#718096"/>
      <circle cx="8" cy="16" r="2" fill="#718096"/>
      <circle cx="8" cy="24" r="2" fill="#718096"/>
    </g>

    <!-- 景辰电机 -->
    <rect x="380" y="0" width="320" height="240" rx="16" fill="#FFFFFF" stroke="#F1F3F4" stroke-width="1"/>
    <rect x="404" y="24" width="48" height="48" rx="8" fill="#14864D"/>
    <text x="468" y="48" font-family="Noto Sans SC" font-size="16" font-weight="500" fill="#111827">景辰电机</text>
    <rect x="468" y="72" width="8" height="8" rx="4" fill="#168AFF"/>
    <text x="492" y="83" font-family="Noto Sans SC" font-size="14" fill="#718096">限免</text>
    <text x="404" y="110" font-family="Noto Sans SC" font-size="14" fill="#718096">
      <tspan x="404" dy="0">景辰电机凭借高效节能技术，与</tspan>
      <tspan x="404" dy="18">当地多家汽车制造商达成长期</tspan>
      <tspan x="404" dy="18">合作协议。</tspan>
    </text>
    <rect x="404" y="180" width="272" height="40" rx="12" stroke="#168AFF" stroke-width="1" fill="none"/>
    <text x="540" y="203" font-family="Noto Sans SC" font-size="14" font-weight="700" fill="#168AFF" text-anchor="middle">立即查看</text>
    <g transform="translate(676, 24)">
      <circle cx="8" cy="8" r="2" fill="#718096"/>
      <circle cx="8" cy="16" r="2" fill="#718096"/>
      <circle cx="8" cy="24" r="2" fill="#718096"/>
    </g>

    <!-- 云联电商 -->
    <rect x="760" y="0" width="320" height="240" rx="16" fill="#FFFFFF" stroke="#F1F3F4" stroke-width="1"/>
    <rect x="784" y="24" width="48" height="48" rx="8" fill="#0062FF"/>
    <text x="848" y="48" font-family="Noto Sans SC" font-size="16" font-weight="500" fill="#111827">云联电商</text>
    <rect x="848" y="72" width="8" height="8" rx="4" fill="#168AFF"/>
    <text x="872" y="83" font-family="Noto Sans SC" font-size="14" fill="#718096">限免</text>
    <text x="784" y="110" font-family="Noto Sans SC" font-size="14" fill="#718096">
      <tspan x="784" dy="0">云联跨境电商平台布局南亚地区，</tspan>
      <tspan x="784" dy="18">为本地小企业提供中国制造品</tspan>
      <tspan x="784" dy="18">优质货源。</tspan>
    </text>
    <rect x="784" y="180" width="272" height="40" rx="12" stroke="#168AFF" stroke-width="1" fill="none"/>
    <text x="920" y="203" font-family="Noto Sans SC" font-size="14" font-weight="700" fill="#168AFF" text-anchor="middle">立即查看</text>
    <g transform="translate(1056, 24)">
      <circle cx="8" cy="8" r="2" fill="#718096"/>
      <circle cx="8" cy="16" r="2" fill="#718096"/>
      <circle cx="8" cy="24" r="2" fill="#718096"/>
    </g>
  </g>

  <!-- 第二行案例卡片 -->
  <g transform="translate(50, 400)">
    <!-- 青禾食品 -->
    <rect x="0" y="0" width="320" height="240" rx="16" fill="#FFFFFF" stroke="#F1F3F4" stroke-width="1"/>
    <rect x="24" y="24" width="48" height="48" rx="8" fill="#FE8F24"/>
    <text x="88" y="48" font-family="Noto Sans SC" font-size="16" font-weight="500" fill="#111827">青禾食品</text>
    <g transform="translate(88, 72)">
      <path d="M1.34 6.33L13.31 6.33M7.33 0L11.97 6.33L7.33 12.66L2.69 6.33L7.33 0Z" fill="#FFD023" stroke="#FFD023" stroke-width="1.5"/>
      <text x="24" y="18" font-family="Helvetica Neue" font-size="14" fill="#0F1828">4.9 (6,789)</text>
    </g>
    <text x="24" y="110" font-family="Noto Sans SC" font-size="14" fill="#718096">
      <tspan x="24" dy="0">通过创新的苏南风味零食，成功</tspan>
      <tspan x="24" dy="18">打入当地市场，塑造健康食品</tspan>
      <tspan x="24" dy="18">新形象。</tspan>
    </text>
    <rect x="24" y="180" width="272" height="40" rx="12" stroke="#6C44D9" stroke-width="1" fill="none"/>
    <text x="160" y="203" font-family="Noto Sans SC" font-size="14" font-weight="700" fill="#6C44D9" text-anchor="middle">立即订购</text>
    <g transform="translate(276, 24)">
      <circle cx="8" cy="8" r="2" fill="#718096"/>
      <circle cx="8" cy="16" r="2" fill="#718096"/>
      <circle cx="8" cy="24" r="2" fill="#718096"/>
    </g>

    <!-- 润泽布艺 -->
    <rect x="380" y="0" width="320" height="240" rx="16" fill="#FFFFFF" stroke="#F1F3F4" stroke-width="1"/>
    <rect x="404" y="24" width="48" height="48" rx="8" fill="#32313F"/>
    <text x="468" y="48" font-family="Noto Sans SC" font-size="16" font-weight="500" fill="#111827">润泽布艺</text>
    <g transform="translate(468, 72)">
      <path d="M1.34 6.33L13.31 6.33M7.33 0L11.97 6.33L7.33 12.66L2.69 6.33L7.33 0Z" fill="#FFD023" stroke="#FFD023" stroke-width="1.5"/>
      <text x="24" y="18" font-family="Helvetica Neue" font-size="14" fill="#0F1828">4.9 (6,789)</text>
    </g>
    <text x="404" y="110" font-family="Noto Sans SC" font-size="14" fill="#718096">
      <tspan x="404" dy="0">以独特苏式刺绣风格征服当地</tspan>
      <tspan x="404" dy="18">市场，成功打造高端家居</tspan>
      <tspan x="404" dy="18">品牌。</tspan>
    </text>
    <rect x="404" y="180" width="272" height="40" rx="12" stroke="#6C44D9" stroke-width="1" fill="none"/>
    <text x="540" y="203" font-family="Noto Sans SC" font-size="14" font-weight="700" fill="#6C44D9" text-anchor="middle">立即订购</text>
    <g transform="translate(676, 24)">
      <circle cx="8" cy="8" r="2" fill="#718096"/>
      <circle cx="8" cy="16" r="2" fill="#718096"/>
      <circle cx="8" cy="24" r="2" fill="#718096"/>
    </g>

    <!-- 恒昌机器人 -->
    <rect x="760" y="0" width="320" height="240" rx="16" fill="#FFFFFF" stroke="#F1F3F4" stroke-width="1"/>
    <rect x="784" y="24" width="48" height="48" rx="8" fill="#32313F"/>
    <text x="848" y="48" font-family="Noto Sans SC" font-size="16" font-weight="500" fill="#111827">恒昌机器人</text>
    <g transform="translate(848, 72)">
      <path d="M1.34 6.33L13.31 6.33M7.33 0L11.97 6.33L7.33 12.66L2.69 6.33L7.33 0Z" fill="#FFD023" stroke="#FFD023" stroke-width="1.5"/>
      <text x="24" y="18" font-family="Helvetica Neue" font-size="14" fill="#0F1828">4.9 (6,789)</text>
    </g>
    <text x="784" y="110" font-family="Noto Sans SC" font-size="14" fill="#718096">
      <tspan x="784" dy="0">以高性价比切入当地市场，帮助</tspan>
      <tspan x="784" dy="18">本地企业提升制造效率。</tspan>
    </text>
    <rect x="784" y="180" width="272" height="40" rx="12" stroke="#6C44D9" stroke-width="1" fill="none"/>
    <text x="920" y="203" font-family="Noto Sans SC" font-size="14" font-weight="700" fill="#6C44D9" text-anchor="middle">立即订购</text>
    <g transform="translate(1056, 24)">
      <circle cx="8" cy="8" r="2" fill="#718096"/>
      <circle cx="8" cy="16" r="2" fill="#718096"/>
      <circle cx="8" cy="24" r="2" fill="#718096"/>
    </g>
  </g>

  <!-- 第三行案例卡片 -->
  <g transform="translate(50, 680)">
    <!-- 瑞禾服饰 -->
    <rect x="0" y="0" width="320" height="240" rx="16" fill="#FFFFFF" stroke="#F1F3F4" stroke-width="1"/>
    <rect x="24" y="24" width="48" height="48" rx="8" fill="#4DBEBD"/>
    <text x="88" y="48" font-family="Noto Sans SC" font-size="16" font-weight="500" fill="#111827">瑞禾服饰</text>
    <g transform="translate(88, 72)">
      <path d="M1.34 6.33L13.31 6.33M7.33 0L11.97 6.33L7.33 12.66L2.69 6.33L7.33 0Z" fill="#FFD023" stroke="#FFD023" stroke-width="1.5"/>
      <text x="24" y="18" font-family="Helvetica Neue" font-size="14" fill="#0F1828">4.9 (6,789)</text>
    </g>
    <text x="24" y="110" font-family="Noto Sans SC" font-size="14" fill="#718096">
      <tspan x="24" dy="0">通过与本地品牌联名，推出融合</tspan>
      <tspan x="24" dy="18">东方韵味的当季流行服装。</tspan>
    </text>
    <rect x="24" y="180" width="272" height="40" rx="12" stroke="#6C44D9" stroke-width="1" fill="none"/>
    <text x="160" y="203" font-family="Noto Sans SC" font-size="14" font-weight="700" fill="#6C44D9" text-anchor="middle">立即订购</text>
    <g transform="translate(276, 24)">
      <circle cx="8" cy="8" r="2" fill="#718096"/>
      <circle cx="8" cy="16" r="2" fill="#718096"/>
      <circle cx="8" cy="24" r="2" fill="#718096"/>
    </g>

    <!-- 金尚陶瓷 -->
    <rect x="380" y="0" width="320" height="240" rx="16" fill="#FFFFFF" stroke="#F1F3F4" stroke-width="1"/>
    <rect x="404" y="24" width="48" height="48" rx="8" fill="#32313F"/>
    <text x="468" y="48" font-family="Noto Sans SC" font-size="16" font-weight="500" fill="#111827">金尚陶瓷</text>
    <g transform="translate(468, 72)">
      <path d="M1.34 6.33L13.31 6.33M7.33 0L11.97 6.33L7.33 12.66L2.69 6.33L7.33 0Z" fill="#FFD023" stroke="#FFD023" stroke-width="1.5"/>
      <text x="24" y="18" font-family="Helvetica Neue" font-size="14" fill="#0F1828">4.9 (6,789)</text>
    </g>
    <text x="404" y="110" font-family="Noto Sans SC" font-size="14" fill="#718096">
      <tspan x="404" dy="0">与南亚知名建筑设计公司合作，</tspan>
      <tspan x="404" dy="18">成为多地标性建筑项目的</tspan>
      <tspan x="404" dy="18">供应商。</tspan>
    </text>
    <rect x="404" y="180" width="272" height="40" rx="12" stroke="#6C44D9" stroke-width="1" fill="none"/>
    <text x="540" y="203" font-family="Noto Sans SC" font-size="14" font-weight="700" fill="#6C44D9" text-anchor="middle">立即订购</text>
    <g transform="translate(676, 24)">
      <circle cx="8" cy="8" r="2" fill="#718096"/>
      <circle cx="8" cy="16" r="2" fill="#718096"/>
      <circle cx="8" cy="24" r="2" fill="#718096"/>
    </g>

    <!-- HY新能源 -->
    <rect x="760" y="0" width="320" height="240" rx="16" fill="#FFFFFF" stroke="#F1F3F4" stroke-width="1"/>
    <rect x="784" y="24" width="48" height="48" rx="8" fill="#E8AF15"/>
    <text x="848" y="48" font-family="Noto Sans SC" font-size="16" font-weight="500" fill="#111827">HY新能源</text>
    <g transform="translate(848, 72)">
      <path d="M1.34 6.33L13.31 6.33M7.33 0L11.97 6.33L7.33 12.66L2.69 6.33L7.33 0Z" fill="#FFD023" stroke="#FFD023" stroke-width="1.5"/>
      <text x="24" y="18" font-family="Helvetica Neue" font-size="14" fill="#0F1828">4.9 (6,789)</text>
    </g>
    <text x="784" y="110" font-family="Noto Sans SC" font-size="14" fill="#718096">
      <tspan x="784" dy="0">在印度开展光伏项目，为数十个</tspan>
      <tspan x="784" dy="18">村庄提供清洁电力，口碑广泛</tspan>
      <tspan x="784" dy="18">传播。</tspan>
    </text>
    <rect x="784" y="180" width="272" height="40" rx="12" stroke="#6C44D9" stroke-width="1" fill="none"/>
    <text x="920" y="203" font-family="Noto Sans SC" font-size="14" font-weight="700" fill="#6C44D9" text-anchor="middle">立即订购</text>
    <g transform="translate(1056, 24)">
      <circle cx="8" cy="8" r="2" fill="#718096"/>
      <circle cx="8" cy="16" r="2" fill="#718096"/>
      <circle cx="8" cy="24" r="2" fill="#718096"/>
    </g>
  </g>
</svg>