<svg width="416" height="56" viewBox="0 0 416 56" fill="none" xmlns="http://www.w3.org/2000/svg">
<g clip-path="url(#clip0_72_650)">
<g clip-path="url(#clip1_72_650)">
<path fill-rule="evenodd" clip-rule="evenodd" d="M0 12C0 5.37258 5.37258 0 12 0H116C122.627 0 128 5.37258 128 12V44C128 50.6274 122.627 56 116 56H12C5.37258 56 0 50.6274 0 44V12Z" fill="white"/>
<path d="M19.28 29.904H28.896V31.232H19.28V29.904ZM19.136 26.336H28.96V27.696H19.136V26.336ZM17.216 33.568H30.88V34.928H17.216V33.568ZM23.2 26.928H24.8V34.32H23.2V26.928ZM23.792 20.32L25.136 20.96C24.528 21.8773 23.808 22.752 22.976 23.584C22.1547 24.416 21.2693 25.1733 20.32 25.856C19.3707 26.528 18.3947 27.1093 17.392 27.6C17.2747 27.408 17.12 27.1947 16.928 26.96C16.736 26.7253 16.5387 26.5227 16.336 26.352C17.3173 25.9253 18.272 25.408 19.2 24.8C20.1387 24.1813 21.0027 23.4933 21.792 22.736C22.592 21.968 23.2587 21.1627 23.792 20.32ZM24.416 20.88C25.44 22.1067 26.56 23.1627 27.776 24.048C29.0027 24.9227 30.3093 25.7013 31.696 26.384C31.5147 26.544 31.3227 26.7467 31.12 26.992C30.928 27.2267 30.7787 27.456 30.672 27.68C29.7227 27.1467 28.816 26.5813 27.952 25.984C27.088 25.3867 26.2613 24.7253 25.472 24C24.6827 23.264 23.9093 22.432 23.152 21.504L24.416 20.88ZM42.104 21.312H46.264V22.672H43.448V35.296H42.104V21.312ZM45.96 21.312H46.248L46.472 21.248L47.512 21.904C47.2347 22.6613 46.9253 23.472 46.584 24.336C46.2533 25.1893 45.928 25.9733 45.608 26.688C46.2907 27.4347 46.7387 28.128 46.952 28.768C47.1653 29.3973 47.272 29.984 47.272 30.528C47.272 31.04 47.2133 31.488 47.096 31.872C46.9787 32.2453 46.7813 32.528 46.504 32.72C46.3653 32.8053 46.2053 32.88 46.024 32.944C45.8533 32.9973 45.6667 33.04 45.464 33.072C45.2827 33.0933 45.0747 33.1093 44.84 33.12C44.616 33.12 44.3867 33.1147 44.152 33.104C44.1413 32.9013 44.104 32.6667 44.04 32.4C43.9867 32.1227 43.896 31.8827 43.768 31.68C43.9813 31.7013 44.1787 31.7173 44.36 31.728C44.552 31.728 44.7227 31.7227 44.872 31.712C44.9893 31.7013 45.1013 31.6853 45.208 31.664C45.3147 31.632 45.4107 31.5947 45.496 31.552C45.6347 31.456 45.736 31.3013 45.8 31.088C45.864 30.8747 45.8907 30.6347 45.88 30.368C45.88 29.888 45.7627 29.36 45.528 28.784C45.2933 28.1973 44.84 27.5573 44.168 26.864C44.328 26.4587 44.4933 26.0267 44.664 25.568C44.8453 25.0987 45.016 24.6347 45.176 24.176C45.336 23.7067 45.4853 23.264 45.624 22.848C45.7627 22.432 45.8747 22.08 45.96 21.792V21.312ZM33.4 22.32H41.032V23.696H33.4V22.32ZM32.952 26.64H41.384V28.016H32.952V26.64ZM34.312 24.064L35.608 23.728C35.832 24.1333 36.0347 24.576 36.216 25.056C36.408 25.536 36.5413 25.9573 36.616 26.32L35.24 26.704C35.176 26.3413 35.0533 25.9147 34.872 25.424C34.7013 24.9333 34.5147 24.48 34.312 24.064ZM38.888 23.68L40.392 24.032C40.2427 24.3947 40.088 24.7733 39.928 25.168C39.768 25.552 39.608 25.92 39.448 26.272C39.288 26.624 39.1333 26.9333 38.984 27.2L37.704 26.88C37.8533 26.592 38.0027 26.2613 38.152 25.888C38.3013 25.5147 38.44 25.136 38.568 24.752C38.696 24.3573 38.8027 24 38.888 23.68ZM34.584 33.2H39.928V34.528H34.584V33.2ZM33.8 29.344H40.712V35.168H39.208V30.704H35.224V35.28H33.8V29.344ZM35.992 20.784L37.368 20.4C37.5387 20.7413 37.704 21.1147 37.864 21.52C38.0347 21.9253 38.1627 22.2667 38.248 22.544L36.792 23.008C36.728 22.72 36.616 22.368 36.456 21.952C36.3067 21.5253 36.152 21.136 35.992 20.784ZM55.6 29.056H57.12V35.328H55.6V29.056ZM49.616 21.632H63.248V24.016H61.776V22.896H51.024V24.016H49.616V21.632ZM49.36 24.368H63.488V25.568H49.36V24.368ZM49.184 30.288H63.648V31.552H49.184V30.288ZM55.136 30.976L56.272 31.488C55.792 32.0427 55.2 32.56 54.496 33.04C53.792 33.5093 53.0347 33.9253 52.224 34.288C51.424 34.6507 50.6133 34.9387 49.792 35.152C49.728 35.0347 49.6373 34.896 49.52 34.736C49.4133 34.5867 49.3013 34.4373 49.184 34.288C49.0667 34.1493 48.9547 34.032 48.848 33.936C49.6587 33.776 50.464 33.5467 51.264 33.248C52.064 32.9493 52.8 32.608 53.472 32.224C54.1547 31.8293 54.7093 31.4133 55.136 30.976ZM57.6 30.96C58.048 31.3973 58.6187 31.8133 59.312 32.208C60.0053 32.592 60.7627 32.928 61.584 33.216C62.4053 33.504 63.2213 33.728 64.032 33.888C63.936 33.9947 63.824 34.1227 63.696 34.272C63.568 34.4213 63.4453 34.5707 63.328 34.72C63.2213 34.88 63.1307 35.0293 63.056 35.168C62.2453 34.944 61.4293 34.6507 60.608 34.288C59.7973 33.9253 59.0347 33.504 58.32 33.024C57.6053 32.5333 56.9973 32.0107 56.496 31.456L57.6 30.96ZM59.184 24.848L60.576 25.248C60.1707 25.9947 59.648 26.6293 59.008 27.152C58.368 27.664 57.6053 28.0907 56.72 28.432C55.8453 28.7627 54.8373 29.024 53.696 29.216C52.5653 29.408 51.3013 29.5573 49.904 29.664C49.8507 29.4613 49.7707 29.2533 49.664 29.04C49.568 28.816 49.4667 28.6293 49.36 28.48C51.1093 28.3947 52.6347 28.2293 53.936 27.984C55.248 27.728 56.336 27.3493 57.2 26.848C58.0747 26.3467 58.736 25.68 59.184 24.848ZM51.312 27.216L52.336 26.272C53.36 26.4213 54.3733 26.592 55.376 26.784C56.3893 26.9653 57.3653 27.1627 58.304 27.376C59.2533 27.5787 60.1387 27.792 60.96 28.016C61.792 28.24 62.5227 28.4587 63.152 28.672L61.92 29.712C61.1307 29.4133 60.1813 29.1147 59.072 28.816C57.9627 28.5173 56.7467 28.2293 55.424 27.952C54.1013 27.6747 52.7307 27.4293 51.312 27.216ZM55.12 20.816L56.416 20.384C56.5867 20.6187 56.7573 20.8907 56.928 21.2C57.1093 21.5093 57.248 21.7707 57.344 21.984L56 22.496C55.904 22.272 55.7707 22.0053 55.6 21.696C55.4293 21.376 55.2693 21.0827 55.12 20.816ZM51.312 27.216C51.7173 26.8427 52.1493 26.416 52.608 25.936C53.0667 25.456 53.5093 24.9547 53.936 24.432C54.3627 23.9093 54.72 23.4133 55.008 22.944L56.4 23.36C56.08 23.8293 55.7067 24.304 55.28 24.784C54.8533 25.2533 54.4213 25.7013 53.984 26.128C53.5573 26.5547 53.1627 26.9173 52.8 27.216H51.312ZM69.352 21.312H74.872V22.736H69.352V21.312ZM70.952 21.904L72.376 22.128C72.1947 23.152 71.9707 24.144 71.704 25.104C71.4373 26.064 71.128 26.96 70.776 27.792C70.4347 28.6133 70.04 29.3387 69.592 29.968C69.5173 29.8827 69.4107 29.7813 69.272 29.664C69.144 29.536 69.0053 29.4133 68.856 29.296C68.7067 29.1787 68.5787 29.0827 68.472 29.008C68.8987 28.4427 69.2667 27.7867 69.576 27.04C69.896 26.2933 70.168 25.4827 70.392 24.608C70.6267 23.7333 70.8133 22.832 70.952 21.904ZM71.112 24.864H73.736V26.256H70.68L71.112 24.864ZM73.272 24.864H73.528L73.768 24.832L74.648 25.04C74.4027 27.5893 73.8907 29.7173 73.112 31.424C72.344 33.12 71.3307 34.4267 70.072 35.344C69.976 35.1627 69.8373 34.9547 69.656 34.72C69.4747 34.496 69.304 34.3147 69.144 34.176C69.88 33.7067 70.5307 33.0347 71.096 32.16C71.672 31.2853 72.1413 30.256 72.504 29.072C72.8773 27.888 73.1333 26.5813 73.272 25.152V24.864ZM70.28 29.52L71.08 28.48C71.3147 28.6507 71.5653 28.8427 71.832 29.056C72.0987 29.2587 72.3493 29.4613 72.584 29.664C72.8293 29.8667 73.0213 30.048 73.16 30.208L72.312 31.392C72.1733 31.2107 71.9867 31.0133 71.752 30.8C71.528 30.576 71.288 30.352 71.032 30.128C70.776 29.904 70.5253 29.7013 70.28 29.52ZM75.464 22.288H76.808V31.344H75.464V22.288ZM78.056 20.608H79.48V33.408C79.48 33.8453 79.4267 34.176 79.32 34.4C79.2133 34.6347 79.0267 34.816 78.76 34.944C78.4933 35.0613 78.136 35.136 77.688 35.168C77.2507 35.2107 76.712 35.2267 76.072 35.216C76.04 35.024 75.976 34.7787 75.88 34.48C75.784 34.192 75.688 33.9467 75.592 33.744C76.0613 33.7547 76.4933 33.7653 76.888 33.776C77.2827 33.776 77.5547 33.776 77.704 33.776C77.832 33.7653 77.9227 33.7333 77.976 33.68C78.0293 33.6267 78.056 33.536 78.056 33.408V20.608ZM67.752 20.512L69.112 20.896C68.8667 21.7813 68.568 22.6667 68.216 23.552C67.8747 24.4267 67.496 25.2587 67.08 26.048C66.664 26.8373 66.216 27.536 65.736 28.144C65.704 28.016 65.6453 27.8507 65.56 27.648C65.4747 27.4453 65.384 27.2427 65.288 27.04C65.2027 26.8373 65.1173 26.672 65.032 26.544C65.608 25.7973 66.1307 24.8907 66.6 23.824C67.08 22.7573 67.464 21.6533 67.752 20.512ZM66.664 24.864L68.056 23.456L68.072 23.488V35.312H66.664V24.864Z" fill="#718096"/>
<mask id="mask0_72_650" style="mask-type:luminance" maskUnits="userSpaceOnUse" x="96" y="20" width="16" height="16">
<path fill-rule="evenodd" clip-rule="evenodd" d="M96 20H112V36H96V20Z" fill="white"/>
</mask>
<g mask="url(#mask0_72_650)">
<path d="M100 26L104 30L108 26" stroke="#A0AEC0" stroke-width="2" stroke-linecap="round" stroke-linejoin="round"/>
</g>
</g>
<g clip-path="url(#clip2_72_650)">
<path fill-rule="evenodd" clip-rule="evenodd" d="M144 12C144 5.37258 149.373 0 156 0H260C266.627 0 272 5.37258 272 12V44C272 50.6274 266.627 56 260 56H156C149.373 56 144 50.6274 144 44V12Z" fill="white"/>
<path d="M163.28 30.92V32.248H172.88V30.92H163.28ZM163.12 27.352V28.696H172.944V27.352H163.12ZM161.216 34.584V35.944H174.864V34.584H161.216ZM167.2 27.928V35.336H168.784V27.928H167.2ZM167.776 21.336C166.176 23.864 163.248 26.088 160.336 27.368C160.72 27.704 161.168 28.216 161.392 28.616C164.384 27.128 167.296 24.744 169.12 21.96L167.776 21.336ZM168.416 21.896L167.152 22.52C169.408 25.304 171.808 27.096 174.656 28.68C174.864 28.248 175.312 27.72 175.696 27.4C172.912 26.04 170.448 24.344 168.416 21.896ZM186.104 22.312V36.296H187.448V23.688H190.264V22.312H186.104ZM189.96 22.312V22.792C189.576 23.992 188.84 26.264 188.152 27.88C189.496 29.256 189.88 30.424 189.88 31.368C189.88 31.912 189.784 32.376 189.48 32.552C189.304 32.664 189.096 32.712 188.856 32.728C188.568 32.728 188.184 32.728 187.768 32.68C187.992 33.096 188.12 33.72 188.152 34.104C188.6 34.12 189.08 34.12 189.464 34.072C189.864 34.024 190.216 33.928 190.488 33.72C191.048 33.336 191.272 32.568 191.272 31.528C191.272 30.456 190.968 29.176 189.592 27.704C190.248 26.264 190.952 24.424 191.512 22.904L190.456 22.248L190.232 22.312H189.96ZM177.384 23.336V24.696H185.016V23.336H177.384ZM176.952 27.656V29.032H185.384V27.656H176.952ZM178.296 25.08C178.712 25.896 179.112 26.984 179.24 27.704L180.6 27.32C180.456 26.616 180.056 25.56 179.592 24.744L178.296 25.08ZM182.888 24.696C182.632 25.656 182.136 27.032 181.704 27.896L182.984 28.216C183.416 27.4 183.928 26.136 184.376 25.032L182.888 24.696ZM178.584 34.2V35.544H183.928V34.2H178.584ZM177.784 30.36V36.28H179.208V31.72H183.192V36.184H184.696V30.36H177.784ZM179.992 21.784C180.296 22.488 180.648 23.432 180.776 24.008L182.232 23.56C182.072 23 181.704 22.088 181.352 21.4L179.992 21.784ZM203.792 27.832V36.328H205.36V27.832H203.792ZM199.328 27.848V30.04C199.328 31.496 199.152 33.88 196.96 35.432C197.328 35.672 197.84 36.152 198.08 36.488C200.528 34.6 200.864 31.928 200.864 30.056V27.848H199.328ZM202.88 22.104L201.6 22.568C202.816 24.904 204.88 27.176 206.928 28.408C207.168 28.024 207.648 27.464 207.984 27.192C206 26.152 203.936 24.104 202.88 22.104ZM201.824 21.464C201.04 23.528 199.344 25.848 196.464 27.4C196.8 27.672 197.216 28.248 197.392 28.616C200.512 26.824 202.368 24.264 203.408 21.736L201.824 21.464ZM196.528 21.512C195.712 23.88 194.352 26.232 192.896 27.736C193.152 28.104 193.584 28.904 193.744 29.272C195.392 27.448 196.96 24.664 197.968 21.944L196.528 21.512ZM194.88 25.832V36.344H196.4V24.344L196.384 24.328L194.88 25.832ZM217.496 23.208V24.52H221.88V23.208H217.496ZM215.96 30.424V36.36H217.368V31.72H221.336V36.312H222.808V30.424H215.96ZM216.536 34.408V35.72H222.136V34.408H216.536ZM217.848 21.48C217.112 23.4 215.816 25.224 214.344 26.36C214.68 26.584 215.272 27.112 215.512 27.384C216.984 26.088 218.424 24.04 219.288 21.88L217.848 21.48ZM221.48 23.208V23.464C220.376 26.76 217.288 29.224 214.024 30.232C214.328 30.536 214.712 31.096 214.888 31.464C218.392 30.184 221.608 27.608 222.968 23.592L222.008 23.16L221.752 23.208H221.48ZM217.48 24.168L216.36 24.808C217.464 27.208 219.832 29.864 223.352 31.096C223.544 30.728 223.976 30.136 224.28 29.848C220.808 28.824 218.488 26.376 217.48 24.168ZM209.368 24.872V26.296H215.032V24.872H209.368ZM211.656 21.496V36.344H213.08V21.496H211.656ZM211.608 25.816C211.16 28.008 210.104 30.648 208.984 32.072C209.24 32.424 209.592 33.016 209.736 33.416C210.936 31.8 212.008 28.696 212.52 26.12L211.608 25.816ZM213.016 26.792L212.296 27.432C212.76 28.04 213.816 29.64 214.2 30.376L215.064 29.224C214.76 28.824 213.4 27.16 213.016 26.792Z" fill="#718096"/>
<mask id="mask1_72_650" style="mask-type:luminance" maskUnits="userSpaceOnUse" x="240" y="20" width="16" height="16">
<path fill-rule="evenodd" clip-rule="evenodd" d="M240 20H256V36H240V20Z" fill="white"/>
</mask>
<g mask="url(#mask1_72_650)">
<path d="M244 26L248 30L252 26" stroke="#A0AEC0" stroke-width="2" stroke-linecap="round" stroke-linejoin="round"/>
</g>
</g>
<g clip-path="url(#clip3_72_650)">
<path fill-rule="evenodd" clip-rule="evenodd" d="M288 12C288 5.37258 293.373 0 300 0H404C410.627 0 416 5.37258 416 12V44C416 50.6274 410.627 56 404 56H300C293.373 56 288 50.6274 288 44V12Z" fill="white"/>
<path d="M307.28 30.92V32.248H316.88V30.92H307.28ZM307.12 27.352V28.696H316.944V27.352H307.12ZM305.216 34.584V35.944H318.864V34.584H305.216ZM311.2 27.928V35.336H312.784V27.928H311.2ZM311.776 21.336C310.176 23.864 307.248 26.088 304.336 27.368C304.72 27.704 305.168 28.216 305.392 28.616C308.384 27.128 311.296 24.744 313.12 21.96L311.776 21.336ZM312.416 21.896L311.152 22.52C313.408 25.304 315.808 27.096 318.656 28.68C318.864 28.248 319.312 27.72 319.696 27.4C316.912 26.04 314.448 24.344 312.416 21.896ZM330.104 22.312V36.296H331.448V23.688H334.264V22.312H330.104ZM333.96 22.312V22.792C333.576 23.992 332.84 26.264 332.152 27.88C333.496 29.256 333.88 30.424 333.88 31.368C333.88 31.912 333.784 32.376 333.48 32.552C333.304 32.664 333.096 32.712 332.856 32.728C332.568 32.728 332.184 32.728 331.768 32.68C331.992 33.096 332.12 33.72 332.152 34.104C332.6 34.12 333.08 34.12 333.464 34.072C333.864 34.024 334.216 33.928 334.488 33.72C335.048 33.336 335.272 32.568 335.272 31.528C335.272 30.456 334.968 29.176 333.592 27.704C334.248 26.264 334.952 24.424 335.512 22.904L334.456 22.248L334.232 22.312H333.96ZM321.384 23.336V24.696H329.016V23.336H321.384ZM320.952 27.656V29.032H329.384V27.656H320.952ZM322.296 25.08C322.712 25.896 323.112 26.984 323.24 27.704L324.6 27.32C324.456 26.616 324.056 25.56 323.592 24.744L322.296 25.08ZM326.888 24.696C326.632 25.656 326.136 27.032 325.704 27.896L326.984 28.216C327.416 27.4 327.928 26.136 328.376 25.032L326.888 24.696ZM322.584 34.2V35.544H327.928V34.2H322.584ZM321.784 30.36V36.28H323.208V31.72H327.192V36.184H328.696V30.36H321.784ZM323.992 21.784C324.296 22.488 324.648 23.432 324.776 24.008L326.232 23.56C326.072 23 325.704 22.088 325.352 21.4L323.992 21.784ZM342.16 26.104V27.608H351.648V26.104H342.16ZM347.216 26.792L345.952 27.064C346.768 31.176 348.256 34.536 350.928 36.312C351.168 35.912 351.68 35.336 352.032 35.048C349.456 33.576 347.936 30.424 347.216 26.792ZM348.208 22.6C348.896 23.48 349.68 24.696 350.032 25.448L351.264 24.696C350.88 23.96 350.048 22.808 349.36 21.96L348.208 22.6ZM345.696 21.528V25.416C345.696 28.392 345.296 32.312 341.632 35.368C342.032 35.624 342.56 36.024 342.848 36.328C346.672 33.128 347.2 28.872 347.2 25.416V21.528H345.696ZM340.176 21.48V36.312H341.68V21.48H340.176ZM337.072 24.264C337.776 25.224 338.624 26.504 338.96 27.32L340.224 26.52C339.856 25.72 338.976 24.472 338.24 23.56L337.072 24.264ZM336.88 31.704L337.696 33C338.736 32.104 339.968 30.952 341.072 29.88L340.464 28.664C339.168 29.832 337.776 31.016 336.88 31.704ZM353.432 23.672V25.064H367.816V23.672H353.432ZM359.88 21.4C359.544 24.856 358.968 28.04 353.256 29.48C353.576 29.8 353.944 30.392 354.104 30.76C360.168 29.08 361.048 25.448 361.448 21.4H359.88ZM361.704 23.768L360.312 24.088C361.464 27.448 363.544 29.656 367.048 30.616C367.256 30.2 367.704 29.56 368.056 29.24C364.76 28.488 362.664 26.552 361.704 23.768ZM358.648 28.584C359.576 29.112 360.728 29.944 361.256 30.52L362.632 29.656C362.024 29.064 360.872 28.28 359.944 27.784L358.648 28.584ZM356.856 31.128V34.088C356.856 35.592 357.384 36.008 359.4 36.008C359.832 36.008 362.424 36.008 362.872 36.008C364.52 36.008 364.984 35.48 365.176 33.336C364.76 33.24 364.12 33.016 363.8 32.776C363.704 34.408 363.576 34.648 362.76 34.648C362.152 34.648 359.976 34.648 359.528 34.648C358.536 34.648 358.36 34.568 358.36 34.088V31.128H356.856ZM359.112 30.824C359.992 31.672 361.048 32.84 361.512 33.608L362.76 32.808C362.248 32.056 361.16 30.92 360.28 30.136L359.112 30.824ZM364.52 31.288C365.304 32.664 366.104 34.52 366.376 35.656L367.816 35.144C367.512 33.992 366.664 32.2 365.864 30.872L364.52 31.288ZM354.888 31.08C354.6 32.408 354.056 34.008 353.352 35.064L354.712 35.752C355.4 34.632 355.912 32.888 356.248 31.528L354.888 31.08Z" fill="#718096"/>
<mask id="mask2_72_650" style="mask-type:luminance" maskUnits="userSpaceOnUse" x="384" y="20" width="16" height="16">
<path fill-rule="evenodd" clip-rule="evenodd" d="M384 20H400V36H384V20Z" fill="white"/>
</mask>
<g mask="url(#mask2_72_650)">
<path d="M388 26L392 30L396 26" stroke="#A0AEC0" stroke-width="2" stroke-linecap="round" stroke-linejoin="round"/>
</g>
</g>
</g>
<defs>
<clipPath id="clip0_72_650">
<rect width="416" height="56" fill="white"/>
</clipPath>
<clipPath id="clip1_72_650">
<rect width="128" height="56" fill="white"/>
</clipPath>
<clipPath id="clip2_72_650">
<rect width="128" height="56" fill="white" transform="translate(144)"/>
</clipPath>
<clipPath id="clip3_72_650">
<rect width="128" height="56" fill="white" transform="translate(288)"/>
</clipPath>
</defs>
</svg>
