<svg width="1052" height="469" viewBox="0 0 1052 469" fill="none" xmlns="http://www.w3.org/2000/svg">
<g clip-path="url(#clip0_117_5973)">
<path fill-rule="evenodd" clip-rule="evenodd" d="M0 16C0 7.16344 7.16344 0 16 0H1036C1044.84 0 1052 7.16344 1052 16V453C1052 461.837 1044.84 469 1036 469H16C7.16346 469 0 461.837 0 453V16Z" fill="white"/>
<path d="M29.744 87.704H39.28V89.08H29.744V87.704ZM31.808 85.496H33.248V91.048H31.808V85.496ZM35.808 85.496H37.28V91.048H35.808V85.496ZM30.368 91.656H38.752V100.216H37.296V92.984H31.744V100.296H30.368V91.656ZM31.136 94.904H37.952V96.2H31.136V94.904ZM31.184 98.168H38V99.496H31.184V98.168ZM33.824 92.296H35.184V99.112H33.824V92.296ZM24.4 93.832C25.0293 93.672 25.7867 93.4693 26.672 93.224C27.5573 92.968 28.4533 92.7067 29.36 92.44L29.552 93.8C28.72 94.0667 27.8827 94.3333 27.04 94.6C26.208 94.856 25.4453 95.0853 24.752 95.288L24.4 93.832ZM24.64 88.632H29.44V90.04H24.64V88.632ZM26.448 85.512H27.84V98.52C27.84 98.8933 27.7973 99.1867 27.712 99.4C27.6373 99.6133 27.488 99.784 27.264 99.912C27.0507 100.029 26.7733 100.104 26.432 100.136C26.0907 100.179 25.664 100.195 25.152 100.184C25.1413 100.003 25.0933 99.7733 25.008 99.496C24.9333 99.2293 24.848 98.9947 24.752 98.792C25.072 98.8027 25.3653 98.808 25.632 98.808C25.8987 98.808 26.08 98.808 26.176 98.808C26.2827 98.808 26.352 98.7867 26.384 98.744C26.4267 98.7013 26.448 98.6267 26.448 98.52V85.512ZM45.404 88.52H55.388V89.928H45.404V88.52ZM51.772 86.424L52.924 85.72C53.148 85.912 53.3773 86.1253 53.612 86.36C53.8573 86.5947 54.092 86.824 54.316 87.048C54.54 87.272 54.7213 87.4747 54.86 87.656L53.66 88.44C53.532 88.2587 53.3613 88.0507 53.148 87.816C52.9347 87.5813 52.7053 87.3413 52.46 87.096C52.2253 86.8507 51.996 86.6267 51.772 86.424ZM49.644 85.64H51.164V97.816H49.644V85.64ZM44.636 91.224V97.624H43.196V92.632H41.004V91.224H44.636ZM41.228 86.872L42.428 86.168C42.716 86.456 43.0147 86.776 43.324 87.128C43.6333 87.4693 43.9213 87.8107 44.188 88.152C44.4653 88.4933 44.684 88.8027 44.844 89.08L43.564 89.88C43.4253 89.6133 43.2227 89.304 42.956 88.952C42.7 88.6 42.4173 88.2427 42.108 87.88C41.8093 87.5067 41.516 87.1707 41.228 86.872ZM44.012 96.984C44.2893 96.984 44.556 97.0747 44.812 97.256C45.068 97.4373 45.4253 97.6507 45.884 97.896C46.4173 98.1627 47.0307 98.3387 47.724 98.424C48.428 98.5093 49.2067 98.552 50.06 98.552C50.6467 98.552 51.2813 98.5413 51.964 98.52C52.6467 98.488 53.324 98.4507 53.996 98.408C54.668 98.3547 55.26 98.3013 55.772 98.248C55.7187 98.3653 55.66 98.52 55.596 98.712C55.532 98.8933 55.4733 99.0747 55.42 99.256C55.3773 99.448 55.3507 99.6133 55.34 99.752C55.0733 99.7733 54.716 99.7893 54.268 99.8C53.8307 99.8213 53.356 99.8373 52.844 99.848C52.332 99.8693 51.8307 99.8853 51.34 99.896C50.8493 99.9067 50.412 99.912 50.028 99.912C49.068 99.912 48.2307 99.8587 47.516 99.752C46.812 99.6453 46.172 99.4373 45.596 99.128C45.244 98.9467 44.9347 98.7653 44.668 98.584C44.412 98.392 44.1827 98.296 43.98 98.296C43.7987 98.296 43.5853 98.3813 43.34 98.552C43.1053 98.7227 42.8547 98.9467 42.588 99.224C42.3213 99.512 42.0547 99.816 41.788 100.136L40.844 98.824C41.3987 98.3013 41.9533 97.864 42.508 97.512C43.0627 97.16 43.564 96.984 44.012 96.984ZM49.228 89.048L50.444 89.4C50.1453 90.3813 49.7773 91.336 49.34 92.264C48.9027 93.1813 48.412 94.0293 47.868 94.808C47.3347 95.5867 46.7693 96.2427 46.172 96.776C46.0973 96.6587 45.996 96.5307 45.868 96.392C45.74 96.2533 45.612 96.1147 45.484 95.976C45.356 95.8373 45.2333 95.7253 45.116 95.64C45.692 95.192 46.2413 94.616 46.764 93.912C47.2867 93.208 47.756 92.4347 48.172 91.592C48.5987 90.7493 48.9507 89.9013 49.228 89.048ZM50.044 90.36L51.116 89.624C51.5213 90.0507 51.9373 90.5093 52.364 91C52.8013 91.4907 53.2173 91.9867 53.612 92.488C54.0173 92.9787 54.3853 93.4587 54.716 93.928C55.0573 94.3973 55.3347 94.824 55.548 95.208L54.364 96.088C54.1613 95.6933 53.9 95.2613 53.58 94.792C53.26 94.312 52.9027 93.816 52.508 93.304C52.1133 92.7813 51.7027 92.2693 51.276 91.768C50.86 91.2667 50.4493 90.7973 50.044 90.36Z" fill="#111827"/>
<path d="M967.824 93H966.464V84.872H963.52V83.784C963.904 83.784 964.277 83.7573 964.64 83.704C965.003 83.64 965.328 83.528 965.616 83.368C965.915 83.208 966.165 82.9893 966.368 82.712C966.571 82.4347 966.709 82.0827 966.784 81.656H967.824V93ZM978.739 83.048H974.163L973.555 86.312L973.587 86.344C973.832 86.0667 974.147 85.864 974.531 85.736C974.925 85.5973 975.315 85.528 975.699 85.528C976.2 85.528 976.675 85.608 977.123 85.768C977.571 85.928 977.96 86.1733 978.291 86.504C978.621 86.824 978.883 87.2293 979.075 87.72C979.267 88.2 979.363 88.7653 979.363 89.416C979.363 89.896 979.277 90.3653 979.107 90.824C978.947 91.272 978.701 91.672 978.371 92.024C978.04 92.376 977.624 92.6587 977.123 92.872C976.632 93.0747 976.056 93.176 975.395 93.176C974.904 93.176 974.44 93.1067 974.003 92.968C973.576 92.8187 973.197 92.6107 972.867 92.344C972.536 92.0667 972.275 91.7253 972.083 91.32C971.891 90.9147 971.789 90.456 971.779 89.944H973.139C973.16 90.232 973.229 90.504 973.347 90.76C973.475 91.0053 973.64 91.224 973.843 91.416C974.056 91.5973 974.301 91.7413 974.579 91.848C974.867 91.944 975.181 91.992 975.523 91.992C975.843 91.992 976.147 91.9387 976.435 91.832C976.733 91.7147 976.989 91.544 977.203 91.32C977.427 91.096 977.603 90.8187 977.731 90.488C977.859 90.1467 977.923 89.752 977.923 89.304C977.923 88.9307 977.859 88.5893 977.731 88.28C977.613 87.96 977.443 87.688 977.219 87.464C976.995 87.2293 976.723 87.048 976.403 86.92C976.093 86.792 975.747 86.728 975.363 86.728C974.915 86.728 974.515 86.8293 974.163 87.032C973.821 87.224 973.517 87.48 973.251 87.8L972.083 87.736L973.139 81.848H978.739V83.048ZM984.757 81.304H985.925L981.189 93.256H980.037L984.757 81.304ZM986.541 85.672C986.509 85.096 986.568 84.5627 986.717 84.072C986.867 83.5813 987.096 83.16 987.405 82.808C987.725 82.4453 988.12 82.1627 988.589 81.96C989.059 81.7573 989.592 81.656 990.189 81.656C990.68 81.656 991.139 81.7307 991.565 81.88C992.003 82.0187 992.381 82.2267 992.701 82.504C993.021 82.7707 993.272 83.1067 993.453 83.512C993.645 83.9173 993.741 84.3867 993.741 84.92C993.741 85.4213 993.661 85.864 993.502 86.248C993.352 86.632 993.15 86.9787 992.893 87.288C992.637 87.5867 992.344 87.8587 992.013 88.104C991.683 88.3493 991.341 88.584 990.99 88.808C990.637 89.0213 990.285 89.2347 989.933 89.448C989.581 89.6507 989.256 89.8693 988.957 90.104C988.669 90.3387 988.419 90.5947 988.205 90.872C988.003 91.1387 987.869 91.448 987.805 91.8H993.629V93H986.221C986.275 92.328 986.392 91.7573 986.573 91.288C986.765 90.808 987.005 90.392 987.293 90.04C987.581 89.688 987.907 89.3787 988.269 89.112C988.632 88.8453 989.011 88.5947 989.405 88.36C989.885 88.0613 990.307 87.7893 990.669 87.544C991.032 87.288 991.331 87.032 991.565 86.776C991.811 86.52 991.992 86.2427 992.109 85.944C992.237 85.6453 992.301 85.2987 992.301 84.904C992.301 84.5947 992.243 84.3173 992.125 84.072C992.008 83.816 991.848 83.5973 991.645 83.416C991.453 83.2347 991.224 83.096 990.957 83C990.691 82.904 990.408 82.856 990.109 82.856C989.715 82.856 989.373 82.9413 989.085 83.112C988.808 83.272 988.579 83.4853 988.397 83.752C988.216 84.0187 988.083 84.3227 987.997 84.664C987.923 84.9947 987.891 85.3307 987.901 85.672H986.541ZM997.04 87.416C997.04 87.8427 997.051 88.3227 997.072 88.856C997.104 89.3787 997.189 89.8747 997.328 90.344C997.477 90.8027 997.712 91.192 998.032 91.512C998.352 91.832 998.8 91.992 999.376 91.992C999.952 91.992 1000.4 91.832 1000.72 91.512C1001.04 91.192 1001.27 90.8027 1001.41 90.344C1001.56 89.8747 1001.64 89.3787 1001.66 88.856C1001.7 88.3227 1001.71 87.8427 1001.71 87.416C1001.71 87.1387 1001.71 86.8347 1001.7 86.504C1001.7 86.1627 1001.67 85.8267 1001.62 85.496C1001.57 85.1547 1001.5 84.824 1001.41 84.504C1001.32 84.184 1001.19 83.9067 1001.01 83.672C1000.84 83.4267 1000.62 83.2293 1000.35 83.08C1000.09 82.9307 999.76 82.856 999.376 82.856C998.992 82.856 998.667 82.9307 998.4 83.08C998.133 83.2293 997.909 83.4267 997.728 83.672C997.557 83.9067 997.424 84.184 997.328 84.504C997.243 84.824 997.173 85.1547 997.12 85.496C997.077 85.8267 997.051 86.1627 997.04 86.504C997.04 86.8347 997.04 87.1387 997.04 87.416ZM995.6 87.432C995.6 87.016 995.611 86.584 995.632 86.136C995.653 85.688 995.707 85.2507 995.792 84.824C995.877 84.3973 996 83.992 996.16 83.608C996.32 83.224 996.539 82.888 996.816 82.6C997.093 82.312 997.44 82.0827 997.856 81.912C998.283 81.7413 998.789 81.656 999.376 81.656C999.963 81.656 1000.46 81.7413 1000.88 81.912C1001.31 82.0827 1001.66 82.312 1001.94 82.6C1002.21 82.888 1002.43 83.224 1002.59 83.608C1002.75 83.992 1002.87 84.3973 1002.96 84.824C1003.05 85.2507 1003.1 85.688 1003.12 86.136C1003.14 86.584 1003.15 87.016 1003.15 87.432C1003.15 87.848 1003.14 88.28 1003.12 88.728C1003.1 89.176 1003.05 89.6133 1002.96 90.04C1002.87 90.4667 1002.75 90.872 1002.59 91.256C1002.43 91.6293 1002.21 91.96 1001.94 92.248C1001.66 92.536 1001.31 92.7653 1000.9 92.936C1000.48 93.096 999.973 93.176 999.376 93.176C998.789 93.176 998.283 93.096 997.856 92.936C997.44 92.7653 997.093 92.536 996.816 92.248C996.539 91.96 996.32 91.6293 996.16 91.256C996 90.872 995.877 90.4667 995.792 90.04C995.707 89.6133 995.653 89.176 995.632 88.728C995.611 88.28 995.6 87.848 995.6 87.432ZM1006.13 87.416C1006.13 87.8427 1006.14 88.3227 1006.16 88.856C1006.19 89.3787 1006.28 89.8747 1006.42 90.344C1006.57 90.8027 1006.8 91.192 1007.12 91.512C1007.44 91.832 1007.89 91.992 1008.47 91.992C1009.04 91.992 1009.49 91.832 1009.81 91.512C1010.13 91.192 1010.36 90.8027 1010.5 90.344C1010.65 89.8747 1010.73 89.3787 1010.75 88.856C1010.79 88.3227 1010.8 87.8427 1010.8 87.416C1010.8 87.1387 1010.8 86.8347 1010.79 86.504C1010.79 86.1627 1010.76 85.8267 1010.71 85.496C1010.66 85.1547 1010.59 84.824 1010.5 84.504C1010.41 84.184 1010.28 83.9067 1010.1 83.672C1009.93 83.4267 1009.71 83.2293 1009.44 83.08C1009.18 82.9307 1008.85 82.856 1008.47 82.856C1008.08 82.856 1007.76 82.9307 1007.49 83.08C1007.22 83.2293 1007 83.4267 1006.82 83.672C1006.65 83.9067 1006.51 84.184 1006.42 84.504C1006.33 84.824 1006.26 85.1547 1006.21 85.496C1006.17 85.8267 1006.14 86.1627 1006.13 86.504C1006.13 86.8347 1006.13 87.1387 1006.13 87.416ZM1004.69 87.432C1004.69 87.016 1004.7 86.584 1004.72 86.136C1004.74 85.688 1004.8 85.2507 1004.88 84.824C1004.97 84.3973 1005.09 83.992 1005.25 83.608C1005.41 83.224 1005.63 82.888 1005.91 82.6C1006.18 82.312 1006.53 82.0827 1006.95 81.912C1007.37 81.7413 1007.88 81.656 1008.47 81.656C1009.05 81.656 1009.55 81.7413 1009.97 81.912C1010.4 82.0827 1010.75 82.312 1011.03 82.6C1011.3 82.888 1011.52 83.224 1011.68 83.608C1011.84 83.992 1011.97 84.3973 1012.05 84.824C1012.14 85.2507 1012.19 85.688 1012.21 86.136C1012.23 86.584 1012.24 87.016 1012.24 87.432C1012.24 87.848 1012.23 88.28 1012.21 88.728C1012.19 89.176 1012.14 89.6133 1012.05 90.04C1011.97 90.4667 1011.84 90.872 1011.68 91.256C1011.52 91.6293 1011.3 91.96 1011.03 92.248C1010.75 92.536 1010.4 92.7653 1009.99 92.936C1009.57 93.096 1009.06 93.176 1008.47 93.176C1007.88 93.176 1007.37 93.096 1006.95 92.936C1006.53 92.7653 1006.18 92.536 1005.91 92.248C1005.63 91.96 1005.41 91.6293 1005.25 91.256C1005.09 90.872 1004.97 90.4667 1004.88 90.04C1004.8 89.6133 1004.74 89.176 1004.72 88.728C1004.7 88.28 1004.69 87.848 1004.69 87.432ZM1015.22 87.416C1015.22 87.8427 1015.23 88.3227 1015.25 88.856C1015.29 89.3787 1015.37 89.8747 1015.51 90.344C1015.66 90.8027 1015.89 91.192 1016.21 91.512C1016.53 91.832 1016.98 91.992 1017.56 91.992C1018.13 91.992 1018.58 91.832 1018.9 91.512C1019.22 91.192 1019.45 90.8027 1019.59 90.344C1019.74 89.8747 1019.82 89.3787 1019.85 88.856C1019.88 88.3227 1019.89 87.8427 1019.89 87.416C1019.89 87.1387 1019.89 86.8347 1019.88 86.504C1019.88 86.1627 1019.85 85.8267 1019.8 85.496C1019.75 85.1547 1019.69 84.824 1019.59 84.504C1019.5 84.184 1019.37 83.9067 1019.19 83.672C1019.02 83.4267 1018.8 83.2293 1018.53 83.08C1018.27 82.9307 1017.94 82.856 1017.56 82.856C1017.17 82.856 1016.85 82.9307 1016.58 83.08C1016.31 83.2293 1016.09 83.4267 1015.91 83.672C1015.74 83.9067 1015.61 84.184 1015.51 84.504C1015.42 84.824 1015.35 85.1547 1015.3 85.496C1015.26 85.8267 1015.23 86.1627 1015.22 86.504C1015.22 86.8347 1015.22 87.1387 1015.22 87.416ZM1013.78 87.432C1013.78 87.016 1013.79 86.584 1013.81 86.136C1013.83 85.688 1013.89 85.2507 1013.97 84.824C1014.06 84.3973 1014.18 83.992 1014.34 83.608C1014.5 83.224 1014.72 82.888 1015 82.6C1015.27 82.312 1015.62 82.0827 1016.04 81.912C1016.46 81.7413 1016.97 81.656 1017.56 81.656C1018.14 81.656 1018.65 81.7413 1019.06 81.912C1019.49 82.0827 1019.84 82.312 1020.12 82.6C1020.39 82.888 1020.61 83.224 1020.77 83.608C1020.93 83.992 1021.06 84.3973 1021.14 84.824C1021.23 85.2507 1021.28 85.688 1021.3 86.136C1021.32 86.584 1021.33 87.016 1021.33 87.432C1021.33 87.848 1021.32 88.28 1021.3 88.728C1021.28 89.176 1021.23 89.6133 1021.14 90.04C1021.06 90.4667 1020.93 90.872 1020.77 91.256C1020.61 91.6293 1020.39 91.96 1020.12 92.248C1019.84 92.536 1019.49 92.7653 1019.08 92.936C1018.66 93.096 1018.15 93.176 1017.56 93.176C1016.97 93.176 1016.46 93.096 1016.04 92.936C1015.62 92.7653 1015.27 92.536 1015 92.248C1014.72 91.96 1014.5 91.6293 1014.34 91.256C1014.18 90.872 1014.06 90.4667 1013.97 90.04C1013.89 89.6133 1013.83 89.176 1013.81 88.728C1013.79 88.28 1013.78 87.848 1013.78 87.432Z" fill="#718096"/>
<g clip-path="url(#clip1_117_5973)">
<path d="M36 121.5H1040C1046.35 121.5 1051.5 126.649 1051.5 133V333C1051.5 339.351 1046.35 344.5 1040 344.5H36C29.6487 344.5 24.5 339.351 24.5 333V133L24.5146 132.408C24.8226 126.332 29.8472 121.5 36 121.5Z" stroke="#168AFF"/>
<path d="M43.392 139.624H44.48V143.032H43.392V139.624ZM41.744 142.472H46.736V148.296H41.744V147.288H45.76V143.48H41.744V142.472ZM41.168 142.472H42.128V149.064H41.168V142.472ZM43.488 142.904H44.384V147.736H44.464V152.008H43.392V147.736H43.488V142.904ZM40.656 152.024C41.1467 151.96 41.7067 151.885 42.336 151.8C42.9653 151.704 43.6373 151.603 44.352 151.496C45.0667 151.389 45.7867 151.288 46.512 151.192L46.56 152.264C45.536 152.435 44.5227 152.6 43.52 152.76C42.5173 152.92 41.6267 153.059 40.848 153.176L40.656 152.024ZM45.296 149.448L46.192 149.16C46.3947 149.576 46.5867 150.024 46.768 150.504C46.9493 150.984 47.104 151.453 47.232 151.912C47.36 152.371 47.456 152.787 47.52 153.16L46.576 153.464C46.5227 153.101 46.432 152.691 46.304 152.232C46.176 151.763 46.0267 151.288 45.856 150.808C45.6853 150.317 45.4987 149.864 45.296 149.448ZM47.296 141.912H55.184V144.792H54.048V142.952H48.384V144.792H47.296V141.912ZM48.784 144.616H49.904V152.216C49.904 152.536 49.9573 152.744 50.064 152.84C50.1813 152.936 50.4427 152.984 50.848 152.984C50.9333 152.984 51.0933 152.984 51.328 152.984C51.5733 152.984 51.84 152.984 52.128 152.984C52.416 152.984 52.688 152.984 52.944 152.984C53.2 152.984 53.3867 152.984 53.504 152.984C53.7493 152.984 53.9307 152.925 54.048 152.808C54.1653 152.68 54.2507 152.445 54.304 152.104C54.3573 151.752 54.3947 151.235 54.416 150.552C54.544 150.648 54.7093 150.739 54.912 150.824C55.1147 150.909 55.2907 150.973 55.44 151.016C55.3973 151.795 55.3173 152.403 55.2 152.84C55.0933 153.277 54.912 153.581 54.656 153.752C54.4107 153.933 54.0533 154.024 53.584 154.024C53.52 154.024 53.392 154.024 53.2 154.024C53.008 154.024 52.784 154.024 52.528 154.024C52.2827 154.024 52.032 154.024 51.776 154.024C51.5307 154.024 51.312 154.024 51.12 154.024C50.928 154.024 50.8 154.024 50.736 154.024C50.224 154.024 49.824 153.971 49.536 153.864C49.2587 153.768 49.0613 153.587 48.944 153.32C48.8373 153.053 48.784 152.685 48.784 152.216V144.616ZM53.888 145.944L54.704 146.728C54.224 147.048 53.6907 147.373 53.104 147.704C52.528 148.035 51.9467 148.344 51.36 148.632C50.7733 148.92 50.224 149.171 49.712 149.384L49.04 148.632C49.5413 148.408 50.0853 148.147 50.672 147.848C51.2693 147.539 51.8507 147.219 52.416 146.888C52.9813 146.557 53.472 146.243 53.888 145.944ZM50.032 139.848L51.104 139.496C51.3173 139.827 51.5307 140.189 51.744 140.584C51.9573 140.968 52.1227 141.299 52.24 141.576L51.104 142.024C50.9973 141.725 50.8427 141.373 50.64 140.968C50.4373 140.563 50.2347 140.189 50.032 139.848ZM60.732 139.496L61.948 139.816C61.6493 140.595 61.2973 141.357 60.892 142.104C60.4973 142.84 60.0653 143.528 59.596 144.168C59.1267 144.797 58.6413 145.352 58.14 145.832C58.0653 145.768 57.964 145.688 57.836 145.592C57.7187 145.485 57.5907 145.384 57.452 145.288C57.324 145.192 57.2067 145.117 57.1 145.064C57.612 144.616 58.092 144.104 58.54 143.528C58.9987 142.941 59.4147 142.307 59.788 141.624C60.1613 140.931 60.476 140.221 60.732 139.496ZM60.492 141.496H70.812V142.648H59.9L60.492 141.496ZM59.708 145.112H70.444V146.248H60.908V150.024H59.708V145.112ZM57.068 149.432H71.564V150.584H57.068V149.432ZM64.492 142.104H65.724V154.28H64.492V142.104ZM86.824 146.888L87.784 147.48C87.2933 147.928 86.7547 148.387 86.168 148.856C85.5813 149.315 85.0373 149.704 84.536 150.024L83.816 149.496C84.136 149.272 84.4827 149.011 84.856 148.712C85.2293 148.413 85.5867 148.104 85.928 147.784C86.28 147.453 86.5787 147.155 86.824 146.888ZM79.288 147.448L80.088 146.856C80.344 147.048 80.6 147.267 80.856 147.512C81.1227 147.757 81.3627 147.997 81.576 148.232C81.8 148.467 81.976 148.685 82.104 148.888L81.272 149.544C81.08 149.235 80.7973 148.888 80.424 148.504C80.0507 148.109 79.672 147.757 79.288 147.448ZM79.992 142.632H86.152V143.592H79.992V142.632ZM79.144 145.096H87.944V146.168H79.144V145.096ZM82.856 145.768H83.976V152.968C83.976 153.267 83.9387 153.496 83.864 153.656C83.8 153.827 83.6667 153.96 83.464 154.056C83.2613 154.131 83 154.179 82.68 154.2C82.3707 154.232 81.9813 154.248 81.512 154.248C81.4907 154.088 81.4427 153.907 81.368 153.704C81.304 153.501 81.2347 153.325 81.16 153.176C81.4907 153.187 81.7893 153.192 82.056 153.192C82.3333 153.192 82.52 153.192 82.616 153.192C82.776 153.192 82.856 153.117 82.856 152.968V145.768ZM78.584 151.928C78.9573 151.704 79.3893 151.443 79.88 151.144C80.3707 150.835 80.888 150.504 81.432 150.152C81.976 149.789 82.5147 149.432 83.048 149.08L83.4 149.928C82.696 150.451 81.9813 150.968 81.256 151.48C80.5307 151.992 79.864 152.456 79.256 152.872L78.584 151.928ZM83.896 148.088C84.152 148.675 84.4933 149.235 84.92 149.768C85.3467 150.291 85.8373 150.755 86.392 151.16C86.9467 151.565 87.5333 151.88 88.152 152.104C88.024 152.2 87.8853 152.339 87.736 152.52C87.5973 152.701 87.4853 152.867 87.4 153.016C86.7707 152.728 86.1787 152.349 85.624 151.88C85.0693 151.411 84.5733 150.872 84.136 150.264C83.7093 149.656 83.352 149.016 83.064 148.344L83.896 148.088ZM79.656 140.2H86.136V141.24H79.656V140.2ZM85.656 140.216H85.768L85.96 140.152L86.808 140.216C86.7973 140.728 86.7813 141.293 86.76 141.912C86.7387 142.52 86.712 143.133 86.68 143.752C86.648 144.371 86.6107 144.947 86.568 145.48L85.416 145.432C85.448 145.027 85.4747 144.589 85.496 144.12C85.528 143.651 85.5547 143.181 85.576 142.712C85.5973 142.243 85.6133 141.805 85.624 141.4C85.6453 140.995 85.656 140.648 85.656 140.36V140.216ZM73.656 150.088C73.6347 150.003 73.6027 149.896 73.56 149.768C73.5173 149.629 73.4693 149.491 73.416 149.352C73.3733 149.203 73.3307 149.08 73.288 148.984C73.448 148.952 73.6187 148.84 73.8 148.648C73.992 148.456 74.2053 148.216 74.44 147.928C74.568 147.779 74.7493 147.539 74.984 147.208C75.2293 146.877 75.5013 146.488 75.8 146.04C76.0987 145.581 76.3973 145.091 76.696 144.568C77.0053 144.035 77.288 143.496 77.544 142.952L78.552 143.56C77.976 144.627 77.3307 145.677 76.616 146.712C75.9013 147.747 75.1867 148.659 74.472 149.448V149.48C74.472 149.48 74.4293 149.501 74.344 149.544C74.2693 149.576 74.1733 149.624 74.056 149.688C73.9493 149.752 73.8533 149.821 73.768 149.896C73.6933 149.96 73.656 150.024 73.656 150.088ZM73.656 150.088L73.608 149.112L74.168 148.712L78.168 147.992C78.1573 148.152 78.1467 148.333 78.136 148.536C78.136 148.728 78.1413 148.888 78.152 149.016C77.2453 149.197 76.5093 149.347 75.944 149.464C75.3893 149.581 74.9573 149.677 74.648 149.752C74.3493 149.827 74.1307 149.891 73.992 149.944C73.8533 149.997 73.7413 150.045 73.656 150.088ZM73.56 146.232C73.5387 146.147 73.5013 146.035 73.448 145.896C73.4053 145.747 73.3573 145.597 73.304 145.448C73.2507 145.299 73.1973 145.171 73.144 145.064C73.2933 145.032 73.4373 144.925 73.576 144.744C73.7147 144.563 73.8693 144.339 74.04 144.072C74.1253 143.944 74.248 143.731 74.408 143.432C74.568 143.123 74.744 142.76 74.936 142.344C75.1387 141.928 75.336 141.48 75.528 141C75.7307 140.52 75.9013 140.045 76.04 139.576L77.224 140.088C76.968 140.749 76.68 141.411 76.36 142.072C76.0507 142.723 75.72 143.347 75.368 143.944C75.016 144.541 74.6587 145.08 74.296 145.56V145.592C74.296 145.592 74.2587 145.613 74.184 145.656C74.1093 145.699 74.0187 145.757 73.912 145.832C73.816 145.896 73.7307 145.965 73.656 146.04C73.592 146.104 73.56 146.168 73.56 146.232ZM73.56 146.232L73.528 145.352L74.104 144.968L76.904 144.696C76.8827 144.845 76.8613 145.016 76.84 145.208C76.8293 145.389 76.824 145.544 76.824 145.672C76.184 145.757 75.6613 145.832 75.256 145.896C74.8613 145.949 74.552 145.997 74.328 146.04C74.104 146.072 73.9333 146.104 73.816 146.136C73.7093 146.168 73.624 146.2 73.56 146.232ZM73.272 152.152C73.88 151.992 74.6107 151.789 75.464 151.544C76.328 151.299 77.2133 151.048 78.12 150.792L78.312 151.8C77.4693 152.067 76.632 152.333 75.8 152.6C74.968 152.856 74.2107 153.091 73.528 153.304L73.272 152.152ZM96.484 144.376H97.652V148.616H96.484V144.376ZM94.244 140.952H99.364V142.04H93.7L94.244 140.952ZM98.98 140.952H99.268L99.508 140.888L100.292 141.448C100.036 141.853 99.7373 142.275 99.396 142.712C99.0653 143.139 98.7133 143.544 98.34 143.928C97.9773 144.301 97.6253 144.632 97.284 144.92C97.1987 144.803 97.0813 144.68 96.932 144.552C96.7933 144.413 96.6707 144.301 96.564 144.216C96.8733 143.96 97.1827 143.656 97.492 143.304C97.8013 142.941 98.084 142.579 98.34 142.216C98.6067 141.853 98.82 141.517 98.98 141.208V140.952ZM91.62 143.992H92.788V151.72C92.788 152.04 92.836 152.285 92.932 152.456C93.0387 152.627 93.2413 152.744 93.54 152.808C93.8387 152.872 94.2813 152.904 94.868 152.904C95.0387 152.904 95.3267 152.904 95.732 152.904C96.1373 152.904 96.6013 152.904 97.124 152.904C97.6467 152.904 98.1693 152.904 98.692 152.904C99.2253 152.904 99.7107 152.904 100.148 152.904C100.585 152.904 100.911 152.904 101.124 152.904C101.657 152.904 102.052 152.84 102.308 152.712C102.575 152.584 102.761 152.333 102.868 151.96C102.985 151.587 103.076 151.048 103.14 150.344C103.3 150.44 103.492 150.531 103.716 150.616C103.94 150.701 104.137 150.76 104.308 150.792C104.233 151.411 104.137 151.933 104.02 152.36C103.903 152.776 103.732 153.101 103.508 153.336C103.295 153.581 102.996 153.752 102.612 153.848C102.228 153.955 101.737 154.008 101.14 154.008C101.033 154.008 100.82 154.008 100.5 154.008C100.191 154.008 99.8173 154.008 99.38 154.008C98.9533 154.008 98.5 154.008 98.02 154.008C97.5507 154.008 97.0973 154.008 96.66 154.008C96.2333 154.008 95.8653 154.008 95.556 154.008C95.2467 154.008 95.044 154.008 94.948 154.008C94.1053 154.008 93.4387 153.944 92.948 153.816C92.468 153.699 92.1267 153.469 91.924 153.128C91.7213 152.797 91.62 152.323 91.62 151.704V143.992ZM94.548 139.512L95.652 139.912C95.236 140.712 94.7347 141.485 94.148 142.232C93.5613 142.979 92.932 143.667 92.26 144.296C91.588 144.925 90.9 145.475 90.196 145.944C90.164 145.859 90.1053 145.747 90.02 145.608C89.9453 145.469 89.86 145.325 89.764 145.176C89.6787 145.027 89.5987 144.909 89.524 144.824C90.1853 144.419 90.8307 143.939 91.46 143.384C92.0893 142.829 92.6707 142.227 93.204 141.576C93.7373 140.915 94.1853 140.227 94.548 139.512ZM92.468 143.992H102.676V149.768H101.476V145.128H92.468V143.992ZM92.468 147.896H102.052V149.048H92.468V147.896ZM108.256 148.84H120V149.88H108.256V148.84ZM107.392 145.64H119.536V146.696H107.392V145.64ZM115.232 146.184H116.416V152.856C116.416 153.208 116.368 153.469 116.272 153.64C116.187 153.821 116.021 153.96 115.776 154.056C115.52 154.152 115.184 154.205 114.768 154.216C114.363 154.237 113.851 154.243 113.232 154.232C113.2 154.083 113.141 153.901 113.056 153.688C112.971 153.475 112.885 153.288 112.8 153.128C113.291 153.139 113.733 153.144 114.128 153.144C114.523 153.155 114.779 153.155 114.896 153.144C115.035 153.133 115.125 153.107 115.168 153.064C115.211 153.032 115.232 152.957 115.232 152.84V146.184ZM114.512 149.192L115.408 149.656C114.917 150.115 114.336 150.547 113.664 150.952C112.992 151.357 112.267 151.731 111.488 152.072C110.72 152.413 109.925 152.712 109.104 152.968C108.293 153.224 107.504 153.437 106.736 153.608C106.651 153.459 106.533 153.283 106.384 153.08C106.245 152.888 106.117 152.733 106 152.616C106.779 152.477 107.573 152.296 108.384 152.072C109.195 151.848 109.979 151.592 110.736 151.304C111.504 151.005 112.213 150.68 112.864 150.328C113.515 149.965 114.064 149.587 114.512 149.192ZM106.448 141.176H120V143.736H118.768V142.216H107.632V143.736H106.448V141.176ZM108.336 147.032L109.52 147.16C109.413 147.619 109.291 148.099 109.152 148.6C109.013 149.101 108.885 149.528 108.768 149.88H107.6C107.728 149.496 107.856 149.043 107.984 148.52C108.123 147.987 108.24 147.491 108.336 147.032ZM111.248 142.792L112.16 143.352C111.477 143.821 110.731 144.275 109.92 144.712C109.109 145.139 108.331 145.496 107.584 145.784L106.912 144.856C107.371 144.707 107.856 144.525 108.368 144.312C108.88 144.099 109.381 143.864 109.872 143.608C110.373 143.341 110.832 143.069 111.248 142.792ZM114.352 143.56L114.912 142.792C115.403 142.963 115.925 143.165 116.48 143.4C117.045 143.635 117.579 143.875 118.08 144.12C118.592 144.365 119.013 144.595 119.344 144.808L118.768 145.688C118.437 145.475 118.021 145.24 117.52 144.984C117.029 144.728 116.501 144.477 115.936 144.232C115.381 143.976 114.853 143.752 114.352 143.56ZM111.936 139.864L113.088 139.464C113.291 139.72 113.499 140.013 113.712 140.344C113.925 140.675 114.085 140.957 114.192 141.192L112.992 141.656C112.885 141.411 112.731 141.123 112.528 140.792C112.336 140.451 112.139 140.141 111.936 139.864ZM124.108 146.76V147.624H129.34V146.76H124.108ZM124.108 145.24V146.104H129.34V145.24H124.108ZM123.116 144.568H130.38V148.312H123.116V144.568ZM131.196 139.544H132.396C132.385 141.037 132.428 142.461 132.524 143.816C132.62 145.171 132.753 146.413 132.924 147.544C133.105 148.675 133.319 149.656 133.564 150.488C133.809 151.309 134.076 151.949 134.364 152.408C134.663 152.867 134.972 153.096 135.292 153.096C135.473 153.085 135.607 152.931 135.692 152.632C135.777 152.333 135.841 151.811 135.884 151.064C136.001 151.192 136.145 151.315 136.316 151.432C136.497 151.539 136.663 151.624 136.812 151.688C136.748 152.339 136.652 152.851 136.524 153.224C136.396 153.597 136.225 153.859 136.012 154.008C135.799 154.168 135.516 154.248 135.164 154.248C134.716 154.248 134.305 154.067 133.932 153.704C133.559 153.341 133.228 152.829 132.94 152.168C132.652 151.496 132.401 150.707 132.188 149.8C131.975 148.893 131.793 147.896 131.644 146.808C131.505 145.709 131.399 144.547 131.324 143.32C131.249 142.093 131.207 140.835 131.196 139.544ZM132.764 140.536L133.58 139.88C133.985 140.147 134.391 140.461 134.796 140.824C135.201 141.187 135.505 141.517 135.708 141.816L134.828 142.504C134.636 142.216 134.343 141.885 133.948 141.512C133.553 141.128 133.159 140.803 132.764 140.536ZM127.02 152.296L127.964 151.832C128.273 152.088 128.599 152.381 128.94 152.712C129.281 153.043 129.543 153.331 129.724 153.576L128.748 154.088C128.567 153.843 128.311 153.544 127.98 153.192C127.649 152.851 127.329 152.552 127.02 152.296ZM124.908 151.8L125.964 152.136C125.633 152.541 125.233 152.947 124.764 153.352C124.295 153.768 123.841 154.109 123.404 154.376C123.351 154.312 123.271 154.232 123.164 154.136C123.057 154.051 122.951 153.965 122.844 153.88C122.737 153.795 122.636 153.725 122.54 153.672C122.988 153.427 123.425 153.139 123.852 152.808C124.279 152.477 124.631 152.141 124.908 151.8ZM122.172 142.808H136.444V143.784H122.172V142.808ZM123.18 140.872H130.38V141.832H123.18V140.872ZM122.284 150.792H130.988V151.64H122.284V150.792ZM122.812 149.112H130.652V149.896H122.812V149.112ZM126.204 139.544H127.356V143.48H126.204V139.544ZM126.252 144.856H127.228V148.008H126.252V144.856ZM124.796 148.04H125.82V151.144H124.796V148.04ZM127.66 148.04H128.668V151.144H127.66V148.04ZM134.62 144.936L135.756 145.192C135.532 146.547 135.217 147.795 134.812 148.936C134.407 150.077 133.868 151.091 133.196 151.976C132.535 152.861 131.697 153.613 130.684 154.232C130.599 154.083 130.476 153.923 130.316 153.752C130.167 153.592 130.017 153.453 129.868 153.336C130.817 152.803 131.607 152.125 132.236 151.304C132.876 150.483 133.383 149.533 133.756 148.456C134.129 147.379 134.417 146.205 134.62 144.936ZM145.192 141.032H146.456V154.28H145.192V141.032ZM139.816 140.568H151.832V150.104H150.552V141.72H141.048V150.152H139.816V140.568ZM140.424 144.376H151.128V145.528H140.424V144.376ZM140.424 148.12H151.112V149.272H140.424V148.12ZM155.108 142.04H169.124V143.192H155.108V142.04ZM160.068 147.112H168.5V148.232H160.068V147.112ZM159.428 152.776H169.108V153.896H159.428V152.776ZM163.668 144.024H164.868V153.384H163.668V144.024ZM160.356 139.56L161.604 139.864C161.231 141.08 160.756 142.285 160.18 143.48C159.615 144.675 158.932 145.795 158.132 146.84C157.332 147.875 156.399 148.771 155.332 149.528C155.289 149.421 155.231 149.304 155.156 149.176C155.081 149.037 155.001 148.904 154.916 148.776C154.841 148.637 154.772 148.52 154.708 148.424C155.433 147.923 156.089 147.336 156.676 146.664C157.273 145.981 157.807 145.251 158.276 144.472C158.745 143.683 159.151 142.872 159.492 142.04C159.844 141.208 160.132 140.381 160.356 139.56ZM157.188 146.152H158.388V154.216H157.188V146.152ZM173.232 147.784V146.808L174.032 146.392H184.384V147.56H174.976C174.656 147.56 174.373 147.571 174.128 147.592C173.893 147.603 173.701 147.624 173.552 147.656C173.403 147.688 173.296 147.731 173.232 147.784ZM178.512 144.04H179.728V152.632C179.728 152.984 179.68 153.256 179.584 153.448C179.499 153.651 179.328 153.805 179.072 153.912C178.827 154.008 178.496 154.072 178.08 154.104C177.675 154.136 177.189 154.152 176.624 154.152C176.603 154.024 176.565 153.885 176.512 153.736C176.459 153.587 176.4 153.437 176.336 153.288C176.283 153.149 176.224 153.021 176.16 152.904C176.619 152.915 177.04 152.92 177.424 152.92C177.808 152.92 178.069 152.915 178.208 152.904C178.325 152.904 178.405 152.883 178.448 152.84C178.491 152.797 178.512 152.723 178.512 152.616V144.04ZM174.512 148.824L175.712 149.144C175.456 149.709 175.157 150.264 174.816 150.808C174.475 151.352 174.107 151.864 173.712 152.344C173.328 152.824 172.944 153.245 172.56 153.608C172.485 153.544 172.384 153.459 172.256 153.352C172.139 153.256 172.016 153.16 171.888 153.064C171.76 152.968 171.643 152.893 171.536 152.84C172.133 152.339 172.699 151.731 173.232 151.016C173.765 150.301 174.192 149.571 174.512 148.824ZM181.056 149.304L182.048 148.808C182.464 149.203 182.891 149.645 183.328 150.136C183.765 150.616 184.171 151.091 184.544 151.56C184.917 152.029 185.216 152.451 185.44 152.824L184.368 153.416C184.155 153.043 183.867 152.616 183.504 152.136C183.141 151.656 182.747 151.171 182.32 150.68C181.893 150.179 181.472 149.72 181.056 149.304ZM171.632 141.688H185.072V142.824H171.632V141.688ZM173.232 147.784C173.211 147.699 173.173 147.581 173.12 147.432C173.077 147.272 173.024 147.112 172.96 146.952C172.907 146.792 172.853 146.659 172.8 146.552C172.981 146.499 173.168 146.365 173.36 146.152C173.552 145.928 173.765 145.64 174 145.288C174.128 145.117 174.315 144.84 174.56 144.456C174.805 144.061 175.077 143.597 175.376 143.064C175.685 142.531 175.989 141.955 176.288 141.336C176.597 140.717 176.875 140.093 177.12 139.464L178.4 139.992C178.005 140.856 177.579 141.715 177.12 142.568C176.661 143.411 176.181 144.216 175.68 144.984C175.189 145.741 174.699 146.429 174.208 147.048V147.08C174.208 147.08 174.16 147.107 174.064 147.16C173.968 147.203 173.856 147.261 173.728 147.336C173.6 147.411 173.483 147.491 173.376 147.576C173.28 147.651 173.232 147.72 173.232 147.784ZM187.66 141.16H201.756V142.296H187.66V141.16ZM190.956 147.592H198.54V148.568H190.956V147.592ZM190.62 150.184H198.828V151.192H190.62V150.184ZM194.076 148.056H195.228V153.976H194.076V148.056ZM188.524 143.992H200.092V145.096H189.74V154.264H188.524V143.992ZM199.692 143.992H200.908V152.872C200.908 153.224 200.86 153.491 200.764 153.672C200.668 153.864 200.487 154.003 200.22 154.088C199.953 154.173 199.591 154.227 199.132 154.248C198.673 154.269 198.119 154.28 197.468 154.28C197.447 154.12 197.393 153.939 197.308 153.736C197.223 153.533 197.137 153.357 197.052 153.208C197.393 153.219 197.719 153.224 198.028 153.224C198.337 153.235 198.609 153.235 198.844 153.224C199.079 153.224 199.239 153.224 199.324 153.224C199.473 153.213 199.569 153.181 199.612 153.128C199.665 153.085 199.692 153 199.692 152.872V143.992ZM191.772 145.64L192.716 145.336C192.929 145.613 193.132 145.933 193.324 146.296C193.516 146.648 193.655 146.957 193.74 147.224L192.732 147.576C192.657 147.309 192.529 146.995 192.348 146.632C192.167 146.259 191.975 145.928 191.772 145.64ZM196.652 145.304L197.692 145.624C197.479 146.04 197.255 146.456 197.02 146.872C196.785 147.288 196.561 147.645 196.348 147.944L195.5 147.672C195.628 147.448 195.761 147.197 195.9 146.92C196.049 146.643 196.188 146.365 196.316 146.088C196.455 145.8 196.567 145.539 196.652 145.304ZM194.028 139.56H195.356V144.728H194.028V139.56ZM203.72 152.184H218.28V153.336H203.72V152.184ZM208.312 141.064H209.592V152.904H208.312V141.064ZM212.184 141.064H213.464V152.968H212.184V141.064ZM216.392 143.992L217.544 144.408C217.309 145.005 217.048 145.624 216.76 146.264C216.472 146.904 216.179 147.517 215.88 148.104C215.592 148.691 215.309 149.219 215.032 149.688L213.96 149.288C214.237 148.819 214.525 148.28 214.824 147.672C215.133 147.064 215.421 146.44 215.688 145.8C215.965 145.16 216.2 144.557 216.392 143.992ZM204.328 144.36L205.384 143.992C205.661 144.557 205.944 145.171 206.232 145.832C206.531 146.483 206.803 147.112 207.048 147.72C207.293 148.317 207.485 148.845 207.624 149.304L206.488 149.784C206.36 149.325 206.173 148.787 205.928 148.168C205.693 147.549 205.437 146.909 205.16 146.248C204.883 145.576 204.605 144.947 204.328 144.36ZM204.168 140.52H217.912V141.704H204.168V140.52ZM232.996 140.632L233.908 141.544C233.193 141.992 232.372 142.408 231.444 142.792C230.516 143.176 229.535 143.533 228.5 143.864C227.476 144.184 226.463 144.472 225.46 144.728C225.428 144.589 225.364 144.429 225.268 144.248C225.183 144.056 225.097 143.896 225.012 143.768C225.748 143.576 226.495 143.368 227.252 143.144C228.009 142.909 228.74 142.659 229.444 142.392C230.148 142.115 230.804 141.832 231.412 141.544C232.02 141.245 232.548 140.941 232.996 140.632ZM227.78 139.784H228.98V145.48C228.98 145.736 229.033 145.907 229.14 145.992C229.247 146.067 229.487 146.104 229.86 146.104C229.945 146.104 230.105 146.104 230.34 146.104C230.575 146.104 230.836 146.104 231.124 146.104C231.412 146.104 231.679 146.104 231.924 146.104C232.18 146.104 232.361 146.104 232.468 146.104C232.681 146.104 232.836 146.061 232.932 145.976C233.039 145.88 233.113 145.704 233.156 145.448C233.209 145.192 233.247 144.819 233.268 144.328C233.407 144.424 233.577 144.515 233.78 144.6C233.993 144.685 234.18 144.749 234.34 144.792C234.297 145.4 234.217 145.88 234.1 146.232C233.983 146.573 233.807 146.813 233.572 146.952C233.337 147.091 233.001 147.16 232.564 147.16C232.5 147.16 232.372 147.16 232.18 147.16C231.988 147.16 231.764 147.16 231.508 147.16C231.263 147.16 231.017 147.16 230.772 147.16C230.527 147.16 230.308 147.16 230.116 147.16C229.935 147.16 229.812 147.16 229.748 147.16C229.225 147.16 228.82 147.112 228.532 147.016C228.255 146.92 228.057 146.749 227.94 146.504C227.833 146.259 227.78 145.917 227.78 145.48V139.784ZM224.5 139.528L225.62 139.928C225.236 140.568 224.788 141.192 224.276 141.8C223.764 142.408 223.22 142.979 222.644 143.512C222.079 144.035 221.508 144.493 220.932 144.888C220.868 144.813 220.783 144.723 220.676 144.616C220.569 144.499 220.457 144.387 220.34 144.28C220.233 144.163 220.132 144.067 220.036 143.992C220.623 143.64 221.188 143.229 221.732 142.76C222.276 142.291 222.788 141.784 223.268 141.24C223.748 140.685 224.159 140.115 224.5 139.528ZM222.868 142.152L223.732 141.288L224.068 141.384V147.608H222.868V142.152ZM226.66 147.576H227.924V154.28H226.66V147.576ZM220.132 149.448H234.484V150.616H220.132V149.448ZM242.912 139.608H244.256C244.245 140.088 244.219 140.691 244.176 141.416C244.133 142.141 244.048 142.952 243.92 143.848C243.792 144.733 243.579 145.656 243.28 146.616C242.992 147.576 242.592 148.525 242.08 149.464C241.568 150.392 240.917 151.267 240.128 152.088C239.349 152.909 238.395 153.619 237.264 154.216C237.157 154.067 237.013 153.901 236.832 153.72C236.651 153.549 236.469 153.4 236.288 153.272C237.397 152.707 238.331 152.04 239.088 151.272C239.856 150.493 240.48 149.661 240.96 148.776C241.44 147.891 241.813 147 242.08 146.104C242.347 145.197 242.533 144.328 242.64 143.496C242.757 142.664 242.832 141.912 242.864 141.24C242.896 140.568 242.912 140.024 242.912 139.608ZM244.096 141.592C244.128 141.773 244.176 142.12 244.24 142.632C244.304 143.144 244.421 143.757 244.592 144.472C244.763 145.187 245.003 145.949 245.312 146.76C245.632 147.571 246.043 148.376 246.544 149.176C247.045 149.976 247.664 150.723 248.4 151.416C249.147 152.109 250.027 152.685 251.04 153.144C250.869 153.272 250.704 153.432 250.544 153.624C250.384 153.816 250.256 153.992 250.16 154.152C249.115 153.661 248.208 153.048 247.44 152.312C246.683 151.576 246.043 150.781 245.52 149.928C245.008 149.075 244.592 148.216 244.272 147.352C243.952 146.477 243.701 145.656 243.52 144.888C243.349 144.12 243.221 143.459 243.136 142.904C243.051 142.339 242.992 141.939 242.96 141.704L244.096 141.592ZM262.06 139.56H263.196V150.712H262.06V139.56ZM257.036 146.152L265.644 142.52L266.108 143.544L257.484 147.224L257.036 146.152ZM258.764 141.048H259.916V151.768C259.916 152.056 259.948 152.28 260.012 152.44C260.076 152.589 260.193 152.691 260.364 152.744C260.545 152.797 260.817 152.824 261.18 152.824C261.287 152.824 261.463 152.824 261.708 152.824C261.953 152.824 262.236 152.824 262.556 152.824C262.887 152.824 263.217 152.824 263.548 152.824C263.879 152.824 264.177 152.824 264.444 152.824C264.711 152.824 264.908 152.824 265.036 152.824C265.356 152.824 265.591 152.765 265.74 152.648C265.9 152.52 266.012 152.291 266.076 151.96C266.151 151.629 266.209 151.16 266.252 150.552C266.391 150.659 266.561 150.755 266.764 150.84C266.977 150.925 267.164 150.979 267.324 151C267.271 151.736 267.175 152.317 267.036 152.744C266.897 153.171 266.673 153.469 266.364 153.64C266.065 153.821 265.639 153.912 265.084 153.912C264.988 153.912 264.807 153.912 264.54 153.912C264.284 153.912 263.98 153.912 263.628 153.912C263.276 153.912 262.924 153.912 262.572 153.912C262.22 153.912 261.911 153.912 261.644 153.912C261.388 153.912 261.217 153.912 261.132 153.912C260.524 153.912 260.044 153.848 259.692 153.72C259.351 153.603 259.111 153.384 258.972 153.064C258.833 152.755 258.764 152.312 258.764 151.736V141.048ZM265.436 142.68H265.308L265.58 142.44L265.804 142.264L266.652 142.584L266.588 142.808C266.588 143.565 266.583 144.275 266.572 144.936C266.572 145.597 266.567 146.195 266.556 146.728C266.545 147.261 266.529 147.709 266.508 148.072C266.487 148.424 266.465 148.68 266.444 148.84C266.401 149.16 266.305 149.405 266.156 149.576C266.007 149.736 265.809 149.843 265.564 149.896C265.351 149.96 265.1 149.997 264.812 150.008C264.535 150.019 264.284 150.024 264.06 150.024C264.039 149.864 264.001 149.683 263.948 149.48C263.905 149.277 263.847 149.107 263.772 148.968C263.964 148.979 264.167 148.989 264.38 149C264.604 149 264.759 149 264.844 149C264.972 149 265.073 148.973 265.148 148.92C265.233 148.867 265.292 148.749 265.324 148.568C265.356 148.461 265.377 148.248 265.388 147.928C265.409 147.597 265.42 147.176 265.42 146.664C265.431 146.152 265.436 145.56 265.436 144.888C265.436 144.216 265.436 143.48 265.436 142.68ZM252.572 143.416H257.644V144.552H252.572V143.416ZM254.62 139.752H255.756V150.136H254.62V139.752ZM252.428 150.536C252.855 150.376 253.345 150.184 253.9 149.96C254.465 149.725 255.063 149.48 255.692 149.224C256.321 148.957 256.951 148.691 257.58 148.424L257.852 149.496C256.999 149.891 256.135 150.285 255.26 150.68C254.396 151.075 253.612 151.427 252.908 151.736L252.428 150.536ZM279.896 142.36L281.032 142.808C280.339 143.981 279.549 145.107 278.664 146.184C277.779 147.251 276.835 148.237 275.832 149.144C274.829 150.051 273.811 150.845 272.776 151.528C272.701 151.443 272.605 151.347 272.488 151.24C272.381 151.123 272.264 151.005 272.136 150.888C272.019 150.771 271.912 150.68 271.816 150.616C272.883 149.976 273.912 149.229 274.904 148.376C275.896 147.512 276.819 146.568 277.672 145.544C278.525 144.52 279.267 143.459 279.896 142.36ZM272.344 143.64L273.208 142.936C273.923 143.512 274.669 144.136 275.448 144.808C276.237 145.48 277.011 146.168 277.768 146.872C278.525 147.565 279.229 148.237 279.88 148.888C280.531 149.528 281.08 150.115 281.528 150.648L280.552 151.528C280.136 150.995 279.608 150.403 278.968 149.752C278.339 149.091 277.651 148.403 276.904 147.688C276.157 146.973 275.389 146.269 274.6 145.576C273.821 144.883 273.069 144.237 272.344 143.64ZM283.032 140.424V141.592H270.936V152.648H283.432V153.8H269.752V140.424H283.032Z" fill="#111827"/>
<path d="M287 157L287.1 137" stroke="#168AFF"/>
</g>
<g clip-path="url(#clip2_117_5973)">
<path d="M728 367.5H854C860.351 367.5 865.5 372.649 865.5 379V411C865.5 417.351 860.351 422.5 854 422.5H728C721.649 422.5 716.5 417.351 716.5 411V379C716.5 372.649 721.649 367.5 728 367.5Z" fill="white" stroke="#168AFF"/>
<path d="M784.728 392.064H786.648V401.44H784.728V392.064ZM780.504 394.08H790.792V395.808H780.504V394.08ZM787.016 394.848C787.315 395.424 787.688 395.995 788.136 396.56C788.595 397.125 789.091 397.648 789.624 398.128C790.168 398.608 790.717 399.008 791.272 399.328C791.133 399.435 790.973 399.579 790.792 399.76C790.621 399.941 790.456 400.128 790.296 400.32C790.147 400.512 790.019 400.688 789.912 400.848C789.357 400.453 788.808 399.963 788.264 399.376C787.731 398.789 787.229 398.155 786.76 397.472C786.301 396.779 785.907 396.075 785.576 395.36L787.016 394.848ZM784.456 394.688L785.96 395.216C785.619 395.963 785.203 396.693 784.712 397.408C784.221 398.112 783.683 398.757 783.096 399.344C782.509 399.92 781.896 400.411 781.256 400.816C781.16 400.656 781.032 400.48 780.872 400.288C780.723 400.096 780.563 399.915 780.392 399.744C780.232 399.563 780.077 399.408 779.928 399.28C780.547 398.96 781.144 398.56 781.72 398.08C782.296 397.589 782.819 397.056 783.288 396.48C783.768 395.893 784.157 395.296 784.456 394.688ZM783.384 388.8V390.944H788.088V388.8H783.384ZM781.576 387.104H790.024V392.624H781.576V387.104ZM779.48 386.448L781.256 387.024C780.904 387.931 780.483 388.837 779.992 389.744C779.512 390.64 778.989 391.493 778.424 392.304C777.869 393.104 777.299 393.808 776.712 394.416C776.659 394.256 776.573 394.053 776.456 393.808C776.339 393.563 776.211 393.312 776.072 393.056C775.933 392.8 775.805 392.597 775.688 392.448C776.189 391.957 776.675 391.392 777.144 390.752C777.613 390.112 778.045 389.424 778.44 388.688C778.845 387.952 779.192 387.205 779.48 386.448ZM777.928 390.864L779.752 389.04V389.056V401.392H777.928V390.864ZM797.184 395.6H806.992V397.392H797.184V395.6ZM798.416 391.568H804.528V393.296H798.416V391.568ZM801.248 394.496H803.184V399.408C803.184 399.899 803.125 400.277 803.008 400.544C802.901 400.811 802.677 401.019 802.336 401.168C802.005 401.296 801.6 401.376 801.12 401.408C800.64 401.44 800.08 401.451 799.44 401.44C799.397 401.163 799.323 400.853 799.216 400.512C799.12 400.171 799.013 399.867 798.896 399.6C799.163 399.611 799.435 399.621 799.712 399.632C799.989 399.643 800.235 399.648 800.448 399.648C800.672 399.648 800.827 399.648 800.912 399.648C801.04 399.637 801.125 399.616 801.168 399.584C801.221 399.541 801.248 399.467 801.248 399.36V394.496ZM804.064 391.568H804.544L804.928 391.472L806.144 392.448C805.792 392.821 805.397 393.2 804.96 393.584C804.533 393.968 804.085 394.336 803.616 394.688C803.157 395.029 802.704 395.333 802.256 395.6C802.139 395.429 801.973 395.237 801.76 395.024C801.557 394.8 801.387 394.624 801.248 394.496C801.6 394.272 801.957 394.011 802.32 393.712C802.683 393.403 803.019 393.093 803.328 392.784C803.637 392.464 803.883 392.181 804.064 391.936V391.568ZM792.48 388.496H806.752V390.336H792.48V388.496ZM797.488 386.4L799.488 386.88C799.093 388.171 798.592 389.445 797.984 390.704C797.387 391.952 796.661 393.115 795.808 394.192C794.965 395.269 793.963 396.203 792.8 396.992C792.747 396.811 792.661 396.608 792.544 396.384C792.437 396.16 792.325 395.936 792.208 395.712C792.091 395.488 791.984 395.301 791.888 395.152C792.624 394.672 793.285 394.101 793.872 393.44C794.469 392.779 795.003 392.059 795.472 391.28C795.941 390.501 796.341 389.696 796.672 388.864C797.013 388.032 797.285 387.211 797.488 386.4ZM794.304 393.088H796.24V401.408H794.304V393.088Z" fill="#168AFF"/>
</g>
<g clip-path="url(#clip3_117_5973)">
<path fill-rule="evenodd" clip-rule="evenodd" d="M902 379C902 372.373 907.373 367 914 367H1040C1046.63 367 1052 372.373 1052 379V411C1052 417.627 1046.63 423 1040 423H914C907.373 423 902 417.627 902 411V379Z" fill="#168AFF"/>
<path d="M951.944 387.9H953.896V393.468H951.944V387.9ZM949.288 394.396V396.46H956.632V394.396H949.288ZM947.448 392.62H958.6V398.236H947.448V392.62ZM952.856 389.324H959.656V391.116H952.856V389.324ZM950.104 399.452L951.928 399.276C952.013 399.628 952.088 400.012 952.152 400.428C952.216 400.833 952.269 401.223 952.312 401.596C952.355 401.969 952.376 402.3 952.376 402.588L950.44 402.828C950.44 402.551 950.424 402.215 950.392 401.82C950.371 401.436 950.333 401.036 950.28 400.62C950.237 400.204 950.179 399.815 950.104 399.452ZM953.4 399.468L955.16 399.068C955.32 399.409 955.48 399.777 955.64 400.172C955.811 400.556 955.96 400.929 956.088 401.292C956.216 401.655 956.312 401.98 956.376 402.268L954.504 402.748C954.451 402.471 954.365 402.14 954.248 401.756C954.141 401.372 954.013 400.983 953.864 400.588C953.715 400.183 953.56 399.809 953.4 399.468ZM956.664 399.372L958.376 398.748C958.643 399.079 958.909 399.447 959.176 399.852C959.453 400.257 959.709 400.657 959.944 401.052C960.179 401.436 960.36 401.788 960.488 402.108L958.632 402.828C958.515 402.519 958.349 402.161 958.136 401.756C957.923 401.361 957.683 400.956 957.416 400.54C957.16 400.113 956.909 399.724 956.664 399.372ZM947.48 398.86L949.32 399.34C949.096 399.969 948.797 400.609 948.424 401.26C948.051 401.911 947.656 402.449 947.24 402.876L945.464 402.012C945.859 401.66 946.237 401.196 946.6 400.62C946.963 400.044 947.256 399.457 947.48 398.86ZM962.952 390.14H975.176V392.028H962.952V390.14ZM961.8 393.884H976.232V395.804H961.8V393.884ZM968.072 387.916H970.12V401.564H968.072V387.916ZM972.904 396.716H974.904V402.94H972.904V396.716ZM963.128 396.748H965.176V400.332H974.296V402.204H963.128V396.748ZM980.328 390.812H991.464V392.684H980.328V390.812ZM979.656 395.516H990.84V397.372H979.656V395.516ZM977.816 400.604H992.28V402.476H977.816V400.604ZM984.024 387.9H986.04V401.516H984.024V387.9ZM980.328 388.108L982.312 388.556C982.088 389.377 981.811 390.188 981.48 390.988C981.149 391.788 980.792 392.535 980.408 393.228C980.024 393.911 979.624 394.508 979.208 395.02C979.08 394.903 978.909 394.775 978.696 394.636C978.493 394.487 978.28 394.343 978.056 394.204C977.832 394.065 977.64 393.953 977.48 393.868C977.907 393.42 978.296 392.887 978.648 392.268C979.011 391.649 979.331 390.983 979.608 390.268C979.896 389.553 980.136 388.833 980.328 388.108ZM995.912 393.932H999.608V395.676H995.912V393.932ZM998.872 393.932H1000.73C1000.73 393.932 1000.73 393.975 1000.73 394.06C1000.73 394.145 1000.73 394.247 1000.73 394.364C1000.73 394.471 1000.73 394.561 1000.73 394.636C1000.71 395.767 1000.68 396.695 1000.65 397.42C1000.62 398.135 1000.56 398.695 1000.49 399.1C1000.42 399.495 1000.33 399.772 1000.22 399.932C1000.06 400.135 999.885 400.279 999.704 400.364C999.533 400.449 999.331 400.513 999.096 400.556C998.883 400.599 998.611 400.625 998.28 400.636C997.96 400.636 997.608 400.631 997.224 400.62C997.213 400.343 997.16 400.033 997.064 399.692C996.968 399.351 996.851 399.063 996.712 398.828C997 398.849 997.267 398.865 997.512 398.876C997.768 398.887 997.96 398.892 998.088 398.892C998.195 398.892 998.285 398.881 998.36 398.86C998.445 398.828 998.515 398.775 998.568 398.7C998.643 398.604 998.696 398.407 998.728 398.108C998.771 397.799 998.803 397.335 998.824 396.716C998.845 396.087 998.861 395.255 998.872 394.22V393.932ZM1003.67 388.908L1004.84 387.756C1005.14 387.905 1005.45 388.081 1005.78 388.284C1006.11 388.487 1006.43 388.689 1006.73 388.892C1007.04 389.095 1007.29 389.292 1007.48 389.484L1006.25 390.764C1006.07 390.583 1005.83 390.38 1005.54 390.156C1005.26 389.932 1004.95 389.713 1004.62 389.5C1004.29 389.276 1003.97 389.079 1003.67 388.908ZM1005.56 393.036L1007.51 393.5C1006.84 395.58 1005.92 397.42 1004.76 399.02C1003.6 400.609 1002.22 401.895 1000.63 402.876C1000.55 402.737 1000.42 402.567 1000.25 402.364C1000.08 402.172 999.901 401.975 999.72 401.772C999.539 401.58 999.379 401.42 999.24 401.292C1000.78 400.46 1002.08 399.34 1003.14 397.932C1004.21 396.513 1005.02 394.881 1005.56 393.036ZM996.008 390.3H1008.36V392.188H996.008V390.3ZM994.728 390.3H996.744V395.02C996.744 395.617 996.723 396.273 996.68 396.988C996.637 397.692 996.557 398.417 996.44 399.164C996.323 399.9 996.147 400.609 995.912 401.292C995.688 401.975 995.395 402.588 995.032 403.132C994.925 402.993 994.765 402.839 994.552 402.668C994.349 402.497 994.141 402.327 993.928 402.156C993.725 401.996 993.549 401.884 993.4 401.82C993.805 401.18 994.099 400.465 994.28 399.676C994.472 398.876 994.595 398.071 994.648 397.26C994.701 396.449 994.728 395.697 994.728 395.004V390.3ZM1001.22 387.916H1003.24C1003.22 389.228 1003.26 390.513 1003.35 391.772C1003.45 393.031 1003.59 394.209 1003.77 395.308C1003.96 396.396 1004.18 397.361 1004.44 398.204C1004.7 399.036 1004.98 399.687 1005.29 400.156C1005.6 400.625 1005.91 400.86 1006.23 400.86C1006.41 400.86 1006.55 400.641 1006.65 400.204C1006.75 399.767 1006.83 399.047 1006.87 398.044C1007.1 398.257 1007.36 398.465 1007.66 398.668C1007.97 398.871 1008.25 399.02 1008.5 399.116C1008.41 400.108 1008.26 400.876 1008.07 401.42C1007.88 401.953 1007.62 402.321 1007.3 402.524C1006.98 402.727 1006.57 402.828 1006.07 402.828C1005.5 402.828 1004.97 402.631 1004.5 402.236C1004.05 401.841 1003.63 401.292 1003.27 400.588C1002.92 399.884 1002.62 399.057 1002.36 398.108C1002.1 397.159 1001.89 396.129 1001.72 395.02C1001.56 393.911 1001.44 392.759 1001.35 391.564C1001.28 390.359 1001.23 389.143 1001.22 387.916Z" fill="white"/>
</g>
<g clip-path="url(#clip4_117_5973)">
<path fill-rule="evenodd" clip-rule="evenodd" d="M24 378C24 371.373 29.3726 366 36 366H143C149.627 366 155 371.373 155 378V410C155 416.627 149.627 422 143 422H36C29.3726 422 24 416.627 24 410V378Z" fill="#168AFF"/>
<mask id="mask0_117_5973" style="mask-type:luminance" maskUnits="userSpaceOnUse" x="40" y="382" width="24" height="24">
<path fill-rule="evenodd" clip-rule="evenodd" d="M40 382H64V406H40V382Z" fill="white"/>
</mask>
<g mask="url(#mask0_117_5973)">
<path d="M52 387L52.1 401" stroke="white" stroke-width="2" stroke-linecap="round" stroke-linejoin="round"/>
<path d="M45 394L59 394.1" stroke="white" stroke-width="2" stroke-linecap="round" stroke-linejoin="round"/>
</g>
<path d="M80.532 395.424L81.7 395.872C81.572 396.299 81.4067 396.741 81.204 397.2C81.012 397.648 80.788 398.08 80.532 398.496C80.2867 398.901 79.9933 399.259 79.652 399.568L78.532 398.768C78.852 398.491 79.14 398.171 79.396 397.808C79.652 397.445 79.876 397.056 80.068 396.64C80.26 396.224 80.4147 395.819 80.532 395.424ZM84.292 396.064L85.412 395.664C85.5933 396.005 85.7587 396.379 85.908 396.784C86.0573 397.189 86.1907 397.584 86.308 397.968C86.4253 398.352 86.5107 398.699 86.564 399.008L85.364 399.456C85.3213 399.147 85.2413 398.8 85.124 398.416C85.0173 398.021 84.8893 397.621 84.74 397.216C84.6013 396.8 84.452 396.416 84.292 396.064ZM86.292 395.616L87.476 395.056C87.7747 395.461 88.068 395.899 88.356 396.368C88.644 396.827 88.9053 397.285 89.14 397.744C89.3747 398.203 89.556 398.613 89.684 398.976L88.42 399.632C88.3133 399.259 88.148 398.837 87.924 398.368C87.7 397.899 87.444 397.424 87.156 396.944C86.8787 396.464 86.5907 396.021 86.292 395.616ZM85.908 391.184C86.164 391.653 86.4893 392.107 86.884 392.544C87.2787 392.981 87.7213 393.376 88.212 393.728C88.7027 394.069 89.2093 394.347 89.732 394.56C89.6253 394.645 89.508 394.757 89.38 394.896C89.2627 395.035 89.1453 395.179 89.028 395.328C88.9213 395.477 88.8307 395.616 88.756 395.744C88.1907 395.477 87.6467 395.131 87.124 394.704C86.6013 394.277 86.1267 393.797 85.7 393.264C85.284 392.731 84.9267 392.171 84.628 391.584L85.908 391.184ZM78.66 390.608H89.444V392.016H78.66V390.608ZM79.396 387.344H88.884V388.768H79.396V387.344ZM82.548 393.712H83.94V399.776C83.94 400.128 83.9027 400.405 83.828 400.608C83.7533 400.821 83.588 400.987 83.332 401.104C83.0973 401.211 82.7987 401.275 82.436 401.296C82.0733 401.328 81.6307 401.344 81.108 401.344C81.0867 401.141 81.0333 400.912 80.948 400.656C80.8733 400.411 80.788 400.187 80.692 399.984C81.0547 399.995 81.3853 400 81.684 400C81.9827 400 82.18 399.995 82.276 399.984C82.3827 399.984 82.452 399.968 82.484 399.936C82.5267 399.904 82.548 399.845 82.548 399.76V393.712ZM75.396 387.712L76.26 386.624C76.5587 386.752 76.8733 386.907 77.204 387.088C77.5347 387.269 77.8493 387.461 78.148 387.664C78.4467 387.856 78.692 388.043 78.884 388.224L77.972 389.44C77.8013 389.259 77.5667 389.067 77.268 388.864C76.98 388.651 76.6707 388.443 76.34 388.24C76.02 388.037 75.7053 387.861 75.396 387.712ZM74.628 392.048L75.476 390.944C75.7853 391.051 76.1107 391.189 76.452 391.36C76.7933 391.531 77.1133 391.712 77.412 391.904C77.7213 392.085 77.972 392.261 78.164 392.432L77.284 393.664C77.092 393.493 76.8467 393.312 76.548 393.12C76.26 392.917 75.9453 392.725 75.604 392.544C75.2733 392.352 74.948 392.187 74.628 392.048ZM74.98 400.32C75.1933 399.904 75.428 399.424 75.684 398.88C75.9507 398.336 76.212 397.76 76.468 397.152C76.7347 396.533 76.98 395.931 77.204 395.344L78.42 396.192C78.2173 396.725 77.9987 397.285 77.764 397.872C77.5293 398.448 77.2947 399.019 77.06 399.584C76.8253 400.139 76.5853 400.661 76.34 401.152L74.98 400.32ZM82.932 387.84L84.5 388.064C84.2653 389.173 83.924 390.235 83.476 391.248C83.028 392.261 82.4467 393.179 81.732 394C81.0173 394.821 80.1373 395.499 79.092 396.032C79.028 395.915 78.9373 395.787 78.82 395.648C78.7133 395.509 78.6013 395.371 78.484 395.232C78.3667 395.093 78.2547 394.976 78.148 394.88C79.1187 394.421 79.924 393.829 80.564 393.104C81.2147 392.368 81.732 391.547 82.116 390.64C82.5 389.733 82.772 388.8 82.932 387.84ZM100.144 398.464H104.384V399.92H100.144V398.464ZM91.232 389.456H97.248V390.928H91.232V389.456ZM99.456 388.416H105.088V400.944H103.568V389.872H100.912V401.072H99.456V388.416ZM96.864 389.456H98.336C98.336 389.456 98.336 389.504 98.336 389.6C98.336 389.685 98.336 389.787 98.336 389.904C98.336 390.021 98.3307 390.117 98.32 390.192C98.288 391.941 98.256 393.419 98.224 394.624C98.192 395.829 98.1493 396.821 98.096 397.6C98.0427 398.368 97.9733 398.965 97.888 399.392C97.8133 399.808 97.712 400.107 97.584 400.288C97.424 400.523 97.2533 400.688 97.072 400.784C96.9013 400.891 96.688 400.965 96.432 401.008C96.208 401.04 95.9253 401.056 95.584 401.056C95.2427 401.067 94.8907 401.061 94.528 401.04C94.5173 400.816 94.4693 400.56 94.384 400.272C94.3093 399.984 94.208 399.733 94.08 399.52C94.432 399.541 94.7573 399.557 95.056 399.568C95.3547 399.579 95.5787 399.584 95.728 399.584C95.8453 399.584 95.9467 399.568 96.032 399.536C96.1173 399.493 96.192 399.419 96.256 399.312C96.352 399.184 96.4267 398.933 96.48 398.56C96.544 398.176 96.5973 397.616 96.64 396.88C96.6933 396.144 96.736 395.2 96.768 394.048C96.8 392.885 96.832 391.467 96.864 389.792V389.456ZM93.344 386.72H94.832C94.8213 388.235 94.7947 389.707 94.752 391.136C94.7093 392.555 94.5973 393.893 94.416 395.152C94.2453 396.411 93.9627 397.563 93.568 398.608C93.1733 399.653 92.6293 400.571 91.936 401.36C91.8507 401.232 91.744 401.099 91.616 400.96C91.488 400.832 91.3493 400.704 91.2 400.576C91.0613 400.448 90.928 400.347 90.8 400.272C91.312 399.717 91.728 399.077 92.048 398.352C92.3787 397.616 92.6293 396.816 92.8 395.952C92.9813 395.077 93.1093 394.144 93.184 393.152C93.2587 392.16 93.3013 391.125 93.312 390.048C93.3333 388.96 93.344 387.851 93.344 386.72ZM118.06 389.952L119.628 390.384C118.967 392.336 118.108 394.016 117.052 395.424C116.007 396.832 114.748 398.016 113.276 398.976C111.804 399.925 110.092 400.704 108.14 401.312C108.076 401.195 107.991 401.045 107.884 400.864C107.777 400.683 107.66 400.501 107.532 400.32C107.415 400.149 107.303 400.005 107.196 399.888C109.105 399.376 110.764 398.688 112.172 397.824C113.58 396.96 114.769 395.883 115.74 394.592C116.711 393.301 117.484 391.755 118.06 389.952ZM111.26 390.048C111.847 391.659 112.641 393.12 113.644 394.432C114.657 395.733 115.879 396.843 117.308 397.76C118.748 398.677 120.396 399.365 122.252 399.824C122.145 399.931 122.023 400.069 121.884 400.24C121.756 400.411 121.633 400.581 121.516 400.752C121.399 400.923 121.303 401.083 121.228 401.232C119.297 400.699 117.601 399.936 116.14 398.944C114.689 397.952 113.447 396.747 112.412 395.328C111.388 393.899 110.54 392.283 109.868 390.48L111.26 390.048ZM107.468 389.264H122.012V390.736H107.468V389.264ZM113.388 386.832L114.988 386.352C115.223 386.736 115.452 387.157 115.676 387.616C115.911 388.075 116.076 388.475 116.172 388.816L114.492 389.344C114.407 389.013 114.257 388.613 114.044 388.144C113.831 387.664 113.612 387.227 113.388 386.832ZM132.552 386.688H134.072V401.344H132.552V386.688ZM129.8 387.328L131.256 387.632C131.117 388.357 130.941 389.083 130.728 389.808C130.515 390.523 130.275 391.189 130.008 391.808C129.752 392.427 129.475 392.976 129.176 393.456C129.08 393.381 128.952 393.301 128.792 393.216C128.632 393.12 128.467 393.029 128.296 392.944C128.136 392.848 127.992 392.773 127.864 392.72C128.173 392.283 128.451 391.776 128.696 391.2C128.941 390.624 129.155 390.005 129.336 389.344C129.528 388.683 129.683 388.011 129.8 387.328ZM130.168 389.696H137.608V391.184H129.784L130.168 389.696ZM128.056 394.368H138.344V395.856H128.056V394.368ZM127.112 386.56L128.536 386.992C128.205 387.899 127.811 388.8 127.352 389.696C126.904 390.581 126.413 391.424 125.88 392.224C125.357 393.013 124.813 393.712 124.248 394.32C124.205 394.192 124.131 394.032 124.024 393.84C123.928 393.648 123.821 393.456 123.704 393.264C123.597 393.061 123.501 392.901 123.416 392.784C123.907 392.272 124.376 391.685 124.824 391.024C125.283 390.352 125.709 389.637 126.104 388.88C126.499 388.112 126.835 387.339 127.112 386.56ZM125.496 390.8L126.936 389.376L126.952 389.392V401.328H125.496V390.8Z" fill="white"/>
</g>
<path d="M27.744 35.212H38.418V37.084H27.744V35.212ZM27.492 31.216H38.58V33.124H27.492V31.216ZM25.368 39.262H40.758V41.188H25.368V39.262ZM31.866 32.062H34.134V40.324H31.866V32.062ZM32.622 24.538L34.548 25.438C33.84 26.494 33.018 27.484 32.082 28.408C31.146 29.32 30.144 30.148 29.076 30.892C28.008 31.636 26.904 32.284 25.764 32.836C25.608 32.548 25.392 32.236 25.116 31.9C24.84 31.564 24.564 31.276 24.288 31.036C25.368 30.592 26.43 30.046 27.474 29.398C28.518 28.738 29.484 28 30.372 27.184C31.272 26.356 32.022 25.474 32.622 24.538ZM33.594 25.222C34.734 26.566 35.982 27.706 37.338 28.642C38.706 29.566 40.182 30.376 41.766 31.072C41.49 31.312 41.214 31.606 40.938 31.954C40.662 32.29 40.452 32.614 40.308 32.926C39.228 32.35 38.196 31.738 37.212 31.09C36.24 30.442 35.31 29.716 34.422 28.912C33.534 28.096 32.658 27.16 31.794 26.104L33.594 25.222ZM49.866 34.546H52.026V41.602H49.866V34.546ZM43.278 25.924H58.758V28.678H56.688V27.688H45.276V28.678H43.278V25.924ZM42.972 29.02H59.028V30.712H42.972V29.02ZM42.828 35.77H59.226V37.552H42.828V35.77ZM49.326 36.796L50.928 37.516C50.376 38.116 49.71 38.674 48.93 39.19C48.162 39.694 47.328 40.138 46.428 40.522C45.54 40.906 44.634 41.212 43.71 41.44C43.626 41.26 43.506 41.062 43.35 40.846C43.194 40.63 43.032 40.414 42.864 40.198C42.696 39.994 42.534 39.826 42.378 39.694C43.278 39.538 44.172 39.316 45.06 39.028C45.948 38.74 46.758 38.41 47.49 38.038C48.234 37.654 48.846 37.24 49.326 36.796ZM52.566 36.76C53.07 37.192 53.7 37.6 54.456 37.984C55.224 38.356 56.058 38.68 56.958 38.956C57.87 39.232 58.788 39.442 59.712 39.586C59.556 39.742 59.388 39.928 59.208 40.144C59.028 40.36 58.86 40.576 58.704 40.792C58.56 41.02 58.434 41.23 58.326 41.422C57.414 41.194 56.502 40.888 55.59 40.504C54.69 40.12 53.844 39.67 53.052 39.154C52.26 38.626 51.576 38.056 51 37.444L52.566 36.76ZM53.808 29.722L55.788 30.262C55.308 31.15 54.708 31.888 53.988 32.476C53.268 33.064 52.416 33.544 51.432 33.916C50.46 34.288 49.338 34.582 48.066 34.798C46.806 35.002 45.384 35.17 43.8 35.302C43.728 35.014 43.62 34.72 43.476 34.42C43.332 34.12 43.188 33.862 43.044 33.646C44.976 33.55 46.65 33.376 48.066 33.124C49.494 32.872 50.682 32.476 51.63 31.936C52.578 31.384 53.304 30.646 53.808 29.722ZM45.078 32.458L46.518 31.126C47.658 31.282 48.792 31.468 49.92 31.684C51.06 31.888 52.164 32.116 53.232 32.368C54.312 32.608 55.32 32.86 56.256 33.124C57.192 33.376 58.02 33.628 58.74 33.88L56.994 35.338C56.106 34.99 55.038 34.642 53.79 34.294C52.542 33.934 51.174 33.598 49.686 33.286C48.198 32.974 46.662 32.698 45.078 32.458ZM49.308 25.168L51.18 24.556C51.36 24.844 51.546 25.168 51.738 25.528C51.93 25.888 52.08 26.188 52.188 26.428L50.226 27.148C50.13 26.884 49.992 26.566 49.812 26.194C49.632 25.822 49.464 25.48 49.308 25.168ZM45.078 32.458C45.546 32.014 46.038 31.516 46.554 30.964C47.082 30.412 47.586 29.836 48.066 29.236C48.546 28.624 48.954 28.042 49.29 27.49L51.288 28.102C50.916 28.63 50.484 29.164 49.992 29.704C49.512 30.244 49.026 30.754 48.534 31.234C48.054 31.702 47.61 32.11 47.202 32.458H45.078ZM63.744 27.976H76.272V30.082H63.744V27.976ZM62.988 33.268H75.57V35.356H62.988V33.268ZM60.918 38.992H77.19V41.098H60.918V38.992ZM67.902 24.7H70.17V40.018H67.902V24.7ZM63.744 24.934L65.976 25.438C65.724 26.362 65.412 27.274 65.04 28.174C64.668 29.074 64.266 29.914 63.834 30.694C63.402 31.462 62.952 32.134 62.484 32.71C62.34 32.578 62.148 32.434 61.908 32.278C61.68 32.11 61.44 31.948 61.188 31.792C60.936 31.636 60.72 31.51 60.54 31.414C61.02 30.91 61.458 30.31 61.854 29.614C62.262 28.918 62.622 28.168 62.934 27.364C63.258 26.56 63.528 25.75 63.744 24.934ZM81.276 31.486H85.434V33.448H81.276V31.486ZM84.606 31.486H86.694C86.694 31.486 86.694 31.534 86.694 31.63C86.694 31.726 86.694 31.84 86.694 31.972C86.694 32.092 86.694 32.194 86.694 32.278C86.67 33.55 86.64 34.594 86.604 35.41C86.568 36.214 86.508 36.844 86.424 37.3C86.352 37.744 86.25 38.056 86.118 38.236C85.938 38.464 85.746 38.626 85.542 38.722C85.35 38.818 85.122 38.89 84.858 38.938C84.618 38.986 84.312 39.016 83.94 39.028C83.58 39.028 83.184 39.022 82.752 39.01C82.74 38.698 82.68 38.35 82.572 37.966C82.464 37.582 82.332 37.258 82.176 36.994C82.5 37.018 82.8 37.036 83.076 37.048C83.364 37.06 83.58 37.066 83.724 37.066C83.844 37.066 83.946 37.054 84.03 37.03C84.126 36.994 84.204 36.934 84.264 36.85C84.348 36.742 84.408 36.52 84.444 36.184C84.492 35.836 84.528 35.314 84.552 34.618C84.576 33.91 84.594 32.974 84.606 31.81V31.486ZM90.006 25.834L91.32 24.538C91.656 24.706 92.01 24.904 92.382 25.132C92.754 25.36 93.108 25.588 93.444 25.816C93.792 26.044 94.074 26.266 94.29 26.482L92.904 27.922C92.7 27.718 92.436 27.49 92.112 27.238C91.788 26.986 91.44 26.74 91.068 26.5C90.696 26.248 90.342 26.026 90.006 25.834ZM92.13 30.478L94.326 31C93.57 33.34 92.538 35.41 91.23 37.21C89.922 38.998 88.374 40.444 86.586 41.548C86.49 41.392 86.346 41.2 86.154 40.972C85.962 40.756 85.764 40.534 85.56 40.306C85.356 40.09 85.176 39.91 85.02 39.766C86.748 38.83 88.212 37.57 89.412 35.986C90.612 34.39 91.518 32.554 92.13 30.478ZM81.384 27.4H95.28V29.524H81.384V27.4ZM79.944 27.4H82.212V32.71C82.212 33.382 82.188 34.12 82.14 34.924C82.092 35.716 82.002 36.532 81.87 37.372C81.738 38.2 81.54 38.998 81.276 39.766C81.024 40.534 80.694 41.224 80.286 41.836C80.166 41.68 79.986 41.506 79.746 41.314C79.518 41.122 79.284 40.93 79.044 40.738C78.816 40.558 78.618 40.432 78.45 40.36C78.906 39.64 79.236 38.836 79.44 37.948C79.656 37.048 79.794 36.142 79.854 35.23C79.914 34.318 79.944 33.472 79.944 32.692V27.4ZM87.252 24.718H89.52C89.496 26.194 89.538 27.64 89.646 29.056C89.754 30.472 89.91 31.798 90.114 33.034C90.33 34.258 90.582 35.344 90.87 36.292C91.158 37.228 91.476 37.96 91.824 38.488C92.172 39.016 92.526 39.28 92.886 39.28C93.09 39.28 93.246 39.034 93.354 38.542C93.474 38.05 93.558 37.24 93.606 36.112C93.858 36.352 94.152 36.586 94.488 36.814C94.836 37.042 95.154 37.21 95.442 37.318C95.334 38.434 95.172 39.298 94.956 39.91C94.74 40.51 94.452 40.924 94.092 41.152C93.732 41.38 93.27 41.494 92.706 41.494C92.058 41.494 91.47 41.272 90.942 40.828C90.426 40.384 89.964 39.766 89.556 38.974C89.16 38.182 88.818 37.252 88.53 36.184C88.242 35.116 88.002 33.958 87.81 32.71C87.63 31.462 87.492 30.166 87.396 28.822C87.312 27.466 87.264 26.098 87.252 24.718Z" fill="#111827"/>
<path d="M138 31L134 35L130 31" stroke="#8F95B2" stroke-width="2" stroke-linecap="round" stroke-linejoin="round"/>
<path d="M174.25 33C174.25 32.1136 174.425 31.2358 174.764 30.4169C175.103 29.5979 175.6 28.8538 176.227 28.227C176.854 27.6002 177.598 27.103 178.417 26.7638C179.236 26.4246 180.114 26.25 181 26.25C181.886 26.25 182.764 26.4246 183.583 26.7638C184.402 27.103 185.146 27.6002 185.773 28.227C186.4 28.8538 186.897 29.5979 187.236 30.4169C187.575 31.2358 187.75 32.1136 187.75 33C187.75 34.7902 187.039 36.5071 185.773 37.773C184.507 39.0388 182.79 39.75 181 39.75C179.21 39.75 177.493 39.0388 176.227 37.773C174.961 36.5071 174.25 34.7902 174.25 33V33Z" stroke="#6C5DD3" stroke-width="1.5" stroke-linecap="round"/>
<path d="M210.15 30.18L211.228 30.502C210.64 32.1913 209.884 33.652 208.96 34.884C208.036 36.116 206.93 37.1567 205.642 38.006C204.354 38.846 202.861 39.5413 201.162 40.092C201.125 40.008 201.069 39.9007 200.994 39.77C200.919 39.6487 200.835 39.5227 200.742 39.392C200.658 39.2707 200.579 39.1727 200.504 39.098C202.175 38.6127 203.631 37.9827 204.872 37.208C206.123 36.424 207.182 35.458 208.05 34.31C208.918 33.1527 209.618 31.776 210.15 30.18ZM203.78 30.236C204.312 31.6827 205.031 32.994 205.936 34.17C206.841 35.346 207.929 36.354 209.198 37.194C210.467 38.0247 211.914 38.6453 213.538 39.056C213.463 39.1307 213.379 39.224 213.286 39.336C213.193 39.4573 213.104 39.574 213.02 39.686C212.945 39.8073 212.875 39.9193 212.81 40.022C211.139 39.5647 209.665 38.8973 208.386 38.02C207.107 37.1333 206.006 36.06 205.082 34.8C204.167 33.54 203.411 32.126 202.814 30.558L203.78 30.236ZM200.7 29.704H213.356V30.74H200.7V29.704ZM205.922 27.478L207.014 27.142C207.229 27.478 207.439 27.8513 207.644 28.262C207.859 28.6633 208.017 29.0087 208.12 29.298L206.958 29.676C206.874 29.3867 206.734 29.0367 206.538 28.626C206.342 28.206 206.137 27.8233 205.922 27.478ZM220.44 34.618H221.49V40.106H220.44V34.618ZM215.12 28.29H226.95V30.306H225.928V29.186H216.114V30.306H215.12V28.29ZM214.896 30.656H227.16V31.51H214.896V30.656ZM214.728 35.78H227.286V36.676H214.728V35.78ZM220.062 36.242L220.832 36.606C220.421 37.0913 219.903 37.5533 219.278 37.992C218.662 38.4307 217.995 38.8133 217.276 39.14C216.557 39.476 215.843 39.7373 215.134 39.924C215.087 39.84 215.022 39.7467 214.938 39.644C214.863 39.5413 214.784 39.4387 214.7 39.336C214.625 39.2333 214.551 39.1447 214.476 39.07C215.185 38.9207 215.895 38.706 216.604 38.426C217.313 38.1367 217.971 37.8053 218.578 37.432C219.185 37.0493 219.679 36.6527 220.062 36.242ZM221.91 36.228C222.311 36.648 222.82 37.0447 223.436 37.418C224.061 37.7913 224.733 38.1227 225.452 38.412C226.18 38.692 226.899 38.9113 227.608 39.07C227.543 39.1353 227.463 39.2193 227.37 39.322C227.286 39.434 227.202 39.5413 227.118 39.644C227.043 39.756 226.983 39.8587 226.936 39.952C226.227 39.756 225.508 39.49 224.78 39.154C224.052 38.818 223.371 38.4307 222.736 37.992C222.101 37.5533 221.569 37.082 221.14 36.578L221.91 36.228ZM223.618 30.978L224.584 31.272C224.248 31.9067 223.8 32.448 223.24 32.896C222.689 33.344 222.027 33.7173 221.252 34.016C220.477 34.3053 219.586 34.5387 218.578 34.716C217.579 34.884 216.469 35.0147 215.246 35.108C215.209 34.968 215.153 34.8187 215.078 34.66C215.003 34.5013 214.929 34.366 214.854 34.254C216.422 34.17 217.785 34.016 218.942 33.792C220.109 33.5587 221.079 33.2133 221.854 32.756C222.638 32.2987 223.226 31.706 223.618 30.978ZM216.66 33.022L217.402 32.35C218.289 32.4807 219.171 32.63 220.048 32.798C220.935 32.9567 221.789 33.1293 222.61 33.316C223.441 33.4933 224.211 33.68 224.92 33.876C225.639 34.0627 226.278 34.2447 226.838 34.422L225.956 35.164C225.265 34.9027 224.435 34.646 223.464 34.394C222.493 34.1327 221.429 33.8853 220.272 33.652C219.115 33.4187 217.911 33.2087 216.66 33.022ZM220.034 27.478L220.916 27.156C221.065 27.3613 221.219 27.5947 221.378 27.856C221.537 28.1173 221.663 28.3367 221.756 28.514L220.832 28.892C220.757 28.696 220.641 28.4673 220.482 28.206C220.323 27.9353 220.174 27.6927 220.034 27.478ZM216.66 33.022C217.015 32.6953 217.388 32.3267 217.78 31.916C218.181 31.5053 218.564 31.076 218.928 30.628C219.301 30.18 219.619 29.7553 219.88 29.354L220.818 29.662C220.547 30.054 220.225 30.46 219.852 30.88C219.488 31.3 219.119 31.6967 218.746 32.07C218.373 32.434 218.027 32.7513 217.71 33.022H216.66Z" fill="#6C5DD3"/>
<path d="M263 40.875C261.442 40.875 259.92 40.4131 258.625 39.5478C257.33 38.6825 256.32 37.4526 255.724 36.0136C255.128 34.5747 254.972 32.9913 255.276 31.4637C255.58 29.9361 256.33 28.5329 257.432 27.4315C258.533 26.3302 259.936 25.5802 261.464 25.2763C262.991 24.9725 264.575 25.1284 266.014 25.7245C267.453 26.3205 268.683 27.3299 269.548 28.6249C270.413 29.9199 270.875 31.4425 270.875 33C270.873 35.0879 270.042 37.0895 268.566 38.5658C267.09 40.0422 265.088 40.8726 263 40.875ZM263 26.25C261.665 26.25 260.36 26.6459 259.25 27.3876C258.14 28.1293 257.275 29.1835 256.764 30.4169C256.253 31.6503 256.119 33.0075 256.38 34.3169C256.64 35.6262 257.283 36.829 258.227 37.773C259.171 38.717 260.374 39.3599 261.683 39.6203C262.993 39.8808 264.35 39.7471 265.583 39.2362C266.817 38.7253 267.871 37.8601 268.612 36.7501C269.354 35.6401 269.75 34.335 269.75 33C269.748 31.2104 269.036 29.4948 267.771 28.2293C266.505 26.9639 264.79 26.2521 263 26.25Z" fill="#3F8CFF"/>
<path d="M283.176 26.856H294.838V39.12H293.788V27.808H284.184V39.12H283.176V26.856ZM283.764 37.594H294.39V38.532H283.764V37.594ZM287.25 34.094L287.698 33.45C288.071 33.5247 288.463 33.6227 288.874 33.744C289.285 33.856 289.677 33.982 290.05 34.122C290.433 34.2527 290.755 34.3787 291.016 34.5L290.582 35.214C290.321 35.0833 289.999 34.948 289.616 34.808C289.243 34.6587 288.846 34.5233 288.426 34.402C288.015 34.2807 287.623 34.178 287.25 34.094ZM287.796 28.088L288.678 28.396C288.417 28.816 288.104 29.2313 287.74 29.642C287.385 30.0433 287.007 30.4167 286.606 30.762C286.214 31.1073 285.822 31.4107 285.43 31.672C285.383 31.6067 285.313 31.5367 285.22 31.462C285.127 31.378 285.033 31.2987 284.94 31.224C284.847 31.1493 284.763 31.0887 284.688 31.042C285.285 30.6873 285.864 30.2533 286.424 29.74C286.984 29.2173 287.441 28.6667 287.796 28.088ZM291.534 29.208H291.73L291.884 29.166L292.486 29.516C292.131 30.0947 291.669 30.6267 291.1 31.112C290.54 31.588 289.915 32.0127 289.224 32.386C288.543 32.7593 287.833 33.0813 287.096 33.352C286.368 33.6227 285.649 33.842 284.94 34.01C284.903 33.926 284.856 33.828 284.8 33.716C284.753 33.604 284.697 33.5013 284.632 33.408C284.567 33.3053 284.501 33.2213 284.436 33.156C285.127 33.016 285.827 32.8293 286.536 32.596C287.245 32.3627 287.922 32.0827 288.566 31.756C289.219 31.4293 289.803 31.0653 290.316 30.664C290.829 30.2627 291.235 29.8287 291.534 29.362V29.208ZM287.18 29.978C287.591 30.4633 288.132 30.9113 288.804 31.322C289.476 31.7327 290.218 32.0873 291.03 32.386C291.851 32.6753 292.682 32.8993 293.522 33.058C293.429 33.142 293.321 33.2633 293.2 33.422C293.088 33.5807 292.999 33.7253 292.934 33.856C292.085 33.6693 291.245 33.408 290.414 33.072C289.593 32.736 288.832 32.3347 288.132 31.868C287.441 31.4013 286.867 30.888 286.41 30.328L287.18 29.978ZM287.474 29.208H291.856V30.02H286.914L287.474 29.208ZM285.85 35.872L286.34 35.158C286.816 35.214 287.311 35.2887 287.824 35.382C288.347 35.466 288.865 35.564 289.378 35.676C289.891 35.7787 290.372 35.8907 290.82 36.012C291.277 36.1333 291.674 36.25 292.01 36.362L291.548 37.146C291.1 36.9873 290.554 36.8287 289.91 36.67C289.266 36.502 288.589 36.348 287.88 36.208C287.171 36.0587 286.494 35.9467 285.85 35.872ZM299.066 29.866H308.642V30.944H299.066V29.866ZM303.588 26.254H304.694V30.356H303.588V26.254ZM298.52 26.604H299.612V31.266C299.612 31.966 299.584 32.666 299.528 33.366C299.481 34.066 299.383 34.752 299.234 35.424C299.085 36.096 298.861 36.7447 298.562 37.37C298.263 37.9953 297.862 38.588 297.358 39.148C297.302 39.0547 297.223 38.9567 297.12 38.854C297.027 38.7607 296.929 38.6627 296.826 38.56C296.723 38.4667 296.625 38.3873 296.532 38.322C297.129 37.6593 297.568 36.9407 297.848 36.166C298.128 35.3913 298.31 34.5887 298.394 33.758C298.478 32.9273 298.52 32.0967 298.52 31.266V26.604ZM299.024 33.184H306.486V39.12H305.352V34.262H299.024V33.184Z" fill="#3F8CFF"/>
<path d="M370.3 27.926H376.698V35.374H375.648V28.85H371.322V35.374H370.3V27.926ZM373.394 35.136H374.374V38.608C374.374 38.804 374.407 38.9347 374.472 39C374.547 39.0747 374.682 39.112 374.878 39.112H376.012C376.18 39.112 376.301 39.0513 376.376 38.93C376.46 38.8087 376.516 38.58 376.544 38.244C376.581 37.8987 376.609 37.39 376.628 36.718C376.768 36.83 376.917 36.9233 377.076 36.998C377.235 37.0633 377.379 37.11 377.51 37.138C377.463 37.866 377.398 38.4353 377.314 38.846C377.239 39.2473 377.104 39.5227 376.908 39.672C376.712 39.8307 376.409 39.91 375.998 39.91H374.724C374.248 39.91 373.907 39.826 373.702 39.658C373.497 39.4993 373.394 39.1867 373.394 38.72V35.136ZM372.918 29.914H373.926V32.672C373.926 33.2693 373.87 33.904 373.758 34.576C373.655 35.248 373.455 35.9153 373.156 36.578C372.857 37.2407 372.423 37.88 371.854 38.496C371.285 39.1027 370.543 39.6487 369.628 40.134C369.591 40.05 369.53 39.9613 369.446 39.868C369.371 39.7747 369.287 39.6767 369.194 39.574C369.11 39.4713 369.031 39.3967 368.956 39.35C369.843 38.8927 370.547 38.3887 371.07 37.838C371.602 37.2873 371.999 36.718 372.26 36.13C372.531 35.542 372.708 34.954 372.792 34.366C372.876 33.7687 372.918 33.1947 372.918 32.644V29.914ZM364.882 29.648H368.886V30.614H364.882V29.648ZM366.66 33.764L367.654 32.574V40.106H366.66V33.764ZM367.668 32.826C367.761 32.9193 367.901 33.0687 368.088 33.274C368.284 33.4793 368.489 33.708 368.704 33.96C368.919 34.2027 369.115 34.4313 369.292 34.646C369.479 34.8513 369.614 35.0007 369.698 35.094L369.026 35.934C368.923 35.7753 368.783 35.5793 368.606 35.346C368.438 35.1033 368.256 34.856 368.06 34.604C367.864 34.3427 367.677 34.1 367.5 33.876C367.323 33.652 367.178 33.4747 367.066 33.344L367.668 32.826ZM368.578 29.648H368.802L368.998 29.606L369.558 29.984C369.259 30.8147 368.867 31.622 368.382 32.406C367.897 33.1807 367.365 33.89 366.786 34.534C366.207 35.178 365.624 35.7147 365.036 36.144C365.008 36.0507 364.966 35.9387 364.91 35.808C364.854 35.668 364.793 35.5373 364.728 35.416C364.663 35.2853 364.602 35.1873 364.546 35.122C365.097 34.7487 365.633 34.282 366.156 33.722C366.688 33.162 367.164 32.5507 367.584 31.888C368.013 31.216 368.345 30.544 368.578 29.872V29.648ZM366.156 27.744L366.954 27.268C367.234 27.5293 367.495 27.828 367.738 28.164C367.99 28.4907 368.181 28.7753 368.312 29.018L367.458 29.578C367.337 29.3167 367.15 29.0133 366.898 28.668C366.655 28.3227 366.408 28.0147 366.156 27.744ZM385.252 28.066H391.3V29.004H385.252V28.066ZM388.038 28.598L389.004 28.85C388.864 29.2233 388.724 29.6013 388.584 29.984C388.444 30.3573 388.309 30.6793 388.178 30.95L387.31 30.712C387.441 30.4227 387.576 30.0773 387.716 29.676C387.856 29.2653 387.963 28.906 388.038 28.598ZM385.616 30.474H390.908V37.054H389.956V31.3H386.512V37.082H385.616V30.474ZM387.814 31.986H388.696C388.696 33.022 388.673 33.9413 388.626 34.744C388.579 35.5373 388.486 36.228 388.346 36.816C388.206 37.404 387.991 37.9127 387.702 38.342C387.422 38.762 387.044 39.1167 386.568 39.406C386.092 39.7047 385.49 39.9567 384.762 40.162C384.725 40.05 384.65 39.9193 384.538 39.77C384.435 39.6207 384.337 39.504 384.244 39.42C384.925 39.2333 385.485 39.014 385.924 38.762C386.363 38.51 386.708 38.1973 386.96 37.824C387.221 37.4413 387.408 36.984 387.52 36.452C387.641 35.92 387.721 35.29 387.758 34.562C387.795 33.8247 387.814 32.966 387.814 31.986ZM388.192 37.824L388.78 37.236C389.097 37.46 389.429 37.7073 389.774 37.978C390.129 38.2487 390.46 38.5147 390.768 38.776C391.085 39.0373 391.347 39.2707 391.552 39.476L390.922 40.148C390.726 39.9427 390.474 39.7047 390.166 39.434C389.858 39.1633 389.531 38.888 389.186 38.608C388.841 38.3187 388.509 38.0573 388.192 37.824ZM382.158 28.976H384.706V29.872H382.158V28.976ZM378.546 31.594H385.028V32.546H378.546V31.594ZM381.724 27.226H382.676V32.126H381.724V27.226ZM379.596 28.458H380.464V32.14H379.596V28.458ZM383.992 33.596L384.902 33.806C384.65 34.8607 384.281 35.7987 383.796 36.62C383.311 37.432 382.695 38.132 381.948 38.72C381.201 39.308 380.296 39.7887 379.232 40.162C379.176 40.0313 379.097 39.8867 378.994 39.728C378.891 39.5787 378.789 39.4527 378.686 39.35C379.675 39.0327 380.52 38.6127 381.22 38.09C381.92 37.558 382.494 36.9187 382.942 36.172C383.399 35.4253 383.749 34.5667 383.992 33.596ZM379.862 33.442L380.744 33.638C380.585 34.2167 380.38 34.7813 380.128 35.332C379.876 35.8827 379.601 36.3493 379.302 36.732C379.246 36.6853 379.171 36.634 379.078 36.578C378.985 36.5127 378.887 36.452 378.784 36.396C378.691 36.3307 378.602 36.2793 378.518 36.242C378.817 35.878 379.078 35.4533 379.302 34.968C379.535 34.4733 379.722 33.9647 379.862 33.442ZM381.472 32.35H382.424V36.788H381.472V32.35Z" fill="#FF754C"/>
<path d="M345 40.875C343.442 40.875 341.92 40.4131 340.625 39.5478C339.33 38.6825 338.32 37.4526 337.724 36.0136C337.128 34.5747 336.972 32.9913 337.276 31.4637C337.58 29.9361 338.33 28.5329 339.432 27.4315C340.533 26.3302 341.936 25.5802 343.464 25.2763C344.991 24.9725 346.575 25.1284 348.014 25.7245C349.453 26.3205 350.683 27.3299 351.548 28.6249C352.413 29.9199 352.875 31.4425 352.875 33C352.873 35.0879 352.042 37.0895 350.566 38.5658C349.09 40.0422 347.088 40.8726 345 40.875ZM345 26.25C343.665 26.25 342.36 26.6459 341.25 27.3876C340.14 28.1293 339.275 29.1835 338.764 30.4169C338.253 31.6503 338.119 33.0075 338.38 34.3169C338.64 35.6262 339.283 36.829 340.227 37.773C341.171 38.717 342.374 39.3599 343.683 39.6203C344.993 39.8808 346.35 39.7471 347.583 39.2362C348.817 38.7253 349.871 37.8601 350.612 36.7501C351.354 35.6401 351.75 34.335 351.75 33C351.748 31.2104 351.036 29.4948 349.771 28.2293C348.505 26.9639 346.79 26.2521 345 26.25Z" fill="#FF754C"/>
</g>
<defs>
<clipPath id="clip0_117_5973">
<rect width="1052" height="469" fill="white"/>
</clipPath>
<clipPath id="clip1_117_5973">
<rect width="1028" height="224" fill="white" transform="translate(24 121)"/>
</clipPath>
<clipPath id="clip2_117_5973">
<rect width="150" height="56" fill="white" transform="translate(716 367)"/>
</clipPath>
<clipPath id="clip3_117_5973">
<rect width="150" height="56" fill="white" transform="translate(902 367)"/>
</clipPath>
<clipPath id="clip4_117_5973">
<rect width="131" height="56" fill="white" transform="translate(24 366)"/>
</clipPath>
</defs>
</svg>
