<svg width="552" height="378" viewBox="0 0 552 378" fill="none" xmlns="http://www.w3.org/2000/svg">
<g filter="url(#filter0_d_140_3118)">
<rect x="16" y="8" width="520" height="237" rx="24" fill="white" shape-rendering="crispEdges"/>
<path d="M52.0317 41.1795L53.4177 39.6855C54.0897 39.9615 54.7737 40.2615 55.4697 40.5855C56.1777 40.9095 56.8437 41.2275 57.4677 41.5395C58.1037 41.8395 58.6437 42.1215 59.0877 42.3855L57.3057 43.9695C56.9097 43.7055 56.4237 43.4115 55.8477 43.0875C55.2717 42.7635 54.6537 42.4395 53.9937 42.1155C53.3337 41.7795 52.6797 41.4675 52.0317 41.1795ZM42.3837 38.1375H58.8357V40.0635H42.3837V38.1375ZM46.0197 30.5595H54.8937V32.0895H46.0197V30.5595ZM46.0197 33.0435H54.8937V34.5735H46.0197V33.0435ZM46.0197 35.5635H54.8937V37.0935H46.0197V35.5635ZM47.2257 39.7935L49.1517 41.1435C48.6717 41.5035 48.1197 41.8575 47.4957 42.2055C46.8837 42.5535 46.2417 42.8775 45.5697 43.1775C44.9097 43.4775 44.2797 43.7415 43.6797 43.9695C43.4877 43.7295 43.2357 43.4595 42.9237 43.1595C42.6237 42.8595 42.3477 42.6075 42.0957 42.4035C42.7077 42.1995 43.3377 41.9535 43.9857 41.6655C44.6337 41.3655 45.2457 41.0535 45.8217 40.7295C46.3977 40.4055 46.8657 40.0935 47.2257 39.7935ZM45.2097 27.8775H56.0817V39.0375H53.9037V29.5875H47.2977V39.0375H45.2097V27.8775ZM63.5517 27.1035L65.6037 27.7335C65.2557 28.7415 64.8357 29.7615 64.3437 30.7935C63.8637 31.8135 63.3357 32.7855 62.7597 33.7095C62.1957 34.6215 61.6077 35.4255 60.9957 36.1215C60.9237 35.9415 60.8157 35.7135 60.6717 35.4375C60.5397 35.1495 60.3957 34.8615 60.2397 34.5735C60.0837 34.2855 59.9397 34.0515 59.8077 33.8715C60.3237 33.3195 60.8097 32.6835 61.2657 31.9635C61.7337 31.2315 62.1597 30.4515 62.5437 29.6235C62.9397 28.7955 63.2757 27.9555 63.5517 27.1035ZM62.0937 32.0895L64.1457 30.0375V30.0555V43.9155H62.0937V32.0895ZM69.7617 27.1215H71.8677V43.8075H69.7617V27.1215ZM65.1897 30.2535H76.8537V32.3055H65.1897V30.2535ZM67.3857 38.9835H74.2977V40.9095H67.3857V38.9835ZM72.6417 31.4055C72.9537 32.4135 73.3557 33.4335 73.8477 34.4655C74.3397 35.4855 74.8857 36.4395 75.4857 37.3275C76.0857 38.2035 76.7097 38.9475 77.3577 39.5595C77.1057 39.7395 76.8177 39.9915 76.4937 40.3155C76.1817 40.6395 75.9297 40.9455 75.7377 41.2335C75.0897 40.5135 74.4717 39.6495 73.8837 38.6415C73.2957 37.6335 72.7677 36.5475 72.2997 35.3835C71.8317 34.2075 71.4297 33.0255 71.0937 31.8375L72.6417 31.4055ZM69.0957 31.2255L70.6617 31.6575C70.3257 32.9055 69.9117 34.1295 69.4197 35.3295C68.9277 36.5295 68.3757 37.6395 67.7637 38.6595C67.1517 39.6795 66.4917 40.5555 65.7837 41.2875C65.6637 41.1195 65.5137 40.9335 65.3337 40.7295C65.1537 40.5135 64.9617 40.3095 64.7577 40.1175C64.5657 39.9255 64.3917 39.7695 64.2357 39.6495C64.9317 39.0375 65.5857 38.2815 66.1977 37.3815C66.8217 36.4695 67.3797 35.4855 67.8717 34.4295C68.3757 33.3615 68.7837 32.2935 69.0957 31.2255ZM83.6217 35.9775H95.0517V38.0295H83.6217V35.9775ZM84.0357 27.8775H94.3677V29.9295H84.0357V27.8775ZM88.2477 28.3455H90.4257V43.9335H88.2477V28.3455ZM92.3697 30.6135L94.4397 31.0455C94.2957 31.5495 94.1457 32.0655 93.9897 32.5935C93.8337 33.1215 93.6777 33.6195 93.5217 34.0875C93.3777 34.5555 93.2277 34.9755 93.0717 35.3475L91.3797 34.8975C91.5117 34.5135 91.6437 34.0695 91.7757 33.5655C91.9077 33.0615 92.0217 32.5515 92.1177 32.0355C92.2257 31.5195 92.3097 31.0455 92.3697 30.6135ZM84.3957 31.0455L86.2137 30.6135C86.3697 31.0455 86.5077 31.5135 86.6277 32.0175C86.7597 32.5215 86.8737 33.0135 86.9697 33.4935C87.0777 33.9615 87.1497 34.3875 87.1857 34.7715L85.2597 35.2575C85.2237 34.8735 85.1637 34.4415 85.0797 33.9615C84.9957 33.4695 84.8937 32.9715 84.7737 32.4675C84.6537 31.9635 84.5277 31.4895 84.3957 31.0455ZM78.9597 28.6695L80.3097 27.3735C80.6217 27.6375 80.9577 27.9315 81.3177 28.2555C81.6897 28.5795 82.0377 28.9035 82.3617 29.2275C82.6977 29.5515 82.9677 29.8455 83.1717 30.1095L81.7137 31.6035C81.5337 31.3275 81.2877 31.0215 80.9757 30.6855C80.6637 30.3495 80.3277 30.0075 79.9677 29.6595C79.6077 29.2995 79.2717 28.9695 78.9597 28.6695ZM80.3997 43.7175L79.9137 41.7735L80.2917 41.1075L83.5857 38.3715C83.6697 38.6595 83.7897 38.9835 83.9457 39.3435C84.1017 39.7035 84.2397 39.9915 84.3597 40.2075C83.5917 40.8555 82.9677 41.3835 82.4877 41.7915C82.0077 42.1995 81.6237 42.5235 81.3357 42.7635C81.0597 43.0155 80.8557 43.2075 80.7237 43.3395C80.5917 43.4715 80.4837 43.5975 80.3997 43.7175ZM78.2037 32.5935H81.4077V34.6635H78.2037V32.5935ZM80.3997 43.7175C80.3517 43.5375 80.2737 43.3335 80.1657 43.1055C80.0577 42.8775 79.9377 42.6555 79.8057 42.4395C79.6737 42.2235 79.5537 42.0495 79.4457 41.9175C79.6257 41.7855 79.8117 41.5875 80.0037 41.3235C80.1957 41.0475 80.2917 40.7115 80.2917 40.3155V32.5755H82.3077V41.7915C82.3077 41.7915 82.2117 41.8575 82.0197 41.9895C81.8277 42.1215 81.6057 42.2835 81.3537 42.4755C81.1017 42.6795 80.8797 42.8895 80.6877 43.1055C80.4957 43.3215 80.3997 43.5255 80.3997 43.7175ZM99.0837 33.6555H108.822V35.7795H99.0837V33.6555ZM108.102 33.6555H110.37C110.37 33.6555 110.37 33.7155 110.37 33.8355C110.37 33.9435 110.37 34.0755 110.37 34.2315C110.37 34.3755 110.364 34.4955 110.352 34.5915C110.304 35.9235 110.25 37.0695 110.19 38.0295C110.13 38.9895 110.058 39.7935 109.974 40.4415C109.902 41.0775 109.812 41.5875 109.704 41.9715C109.596 42.3555 109.464 42.6435 109.308 42.8355C109.08 43.1235 108.834 43.3215 108.57 43.4295C108.306 43.5495 108.006 43.6335 107.67 43.6815C107.358 43.7295 106.956 43.7535 106.464 43.7535C105.984 43.7655 105.474 43.7595 104.934 43.7355C104.91 43.4115 104.832 43.0395 104.7 42.6195C104.58 42.2115 104.424 41.8575 104.232 41.5575C104.724 41.6055 105.186 41.6355 105.618 41.6475C106.05 41.6475 106.38 41.6475 106.608 41.6475C106.932 41.6475 107.172 41.5695 107.328 41.4135C107.472 41.2575 107.592 40.9155 107.688 40.3875C107.784 39.8475 107.862 39.0615 107.922 38.0295C107.994 36.9975 108.054 35.6655 108.102 34.0335V33.6555ZM101.1 27.2655L103.44 27.9315C103.02 28.9635 102.522 29.9655 101.946 30.9375C101.37 31.8975 100.746 32.7915 100.074 33.6195C99.4017 34.4355 98.7057 35.1435 97.9857 35.7435C97.8657 35.5875 97.6917 35.4015 97.4637 35.1855C97.2357 34.9695 97.0017 34.7595 96.7617 34.5555C96.5337 34.3395 96.3297 34.1655 96.1497 34.0335C96.8457 33.5295 97.5057 32.9235 98.1297 32.2155C98.7657 31.4955 99.3357 30.7155 99.8397 29.8755C100.356 29.0355 100.776 28.1655 101.1 27.2655ZM107.958 27.2295C108.246 27.8055 108.582 28.3995 108.966 29.0115C109.35 29.6115 109.77 30.1995 110.226 30.7755C110.694 31.3515 111.168 31.8915 111.648 32.3955C112.14 32.8995 112.62 33.3495 113.088 33.7455C112.908 33.8775 112.704 34.0515 112.476 34.2675C112.26 34.4835 112.05 34.7055 111.846 34.9335C111.642 35.1615 111.474 35.3775 111.342 35.5815C110.862 35.1135 110.37 34.5915 109.866 34.0155C109.374 33.4275 108.894 32.8035 108.426 32.1435C107.958 31.4715 107.508 30.7875 107.076 30.0915C106.656 29.3955 106.278 28.7055 105.942 28.0215L107.958 27.2295ZM102.144 34.2675H104.43C104.334 35.2755 104.19 36.2535 103.998 37.2015C103.806 38.1495 103.488 39.0495 103.044 39.9015C102.612 40.7415 101.988 41.5095 101.172 42.2055C100.356 42.9015 99.2877 43.5015 97.9677 44.0055C97.8837 43.8015 97.7637 43.5795 97.6077 43.3395C97.4637 43.1115 97.3017 42.8835 97.1217 42.6555C96.9417 42.4275 96.7677 42.2355 96.5997 42.0795C97.7997 41.6955 98.7537 41.2215 99.4617 40.6575C100.17 40.0935 100.704 39.4695 101.064 38.7855C101.424 38.1015 101.676 37.3755 101.82 36.6075C101.964 35.8395 102.072 35.0595 102.144 34.2675Z" fill="#081735"/>
<line x1="17.0657" y1="48.3843" x2="536" y2="48.3843" stroke="#E6E8F0"/>
<rect x="42.2702" y="143.807" width="24.3513" height="37.6196" rx="5.22937" fill="#E6E8F0"/>
<rect x="81.2487" y="89.3237" width="24.3513" height="92.1031" rx="5.22937" fill="#E6E8F0"/>
<rect x="120.227" y="117.863" width="24.3513" height="63.5641" rx="5.22937" fill="url(#paint0_linear_140_3118)"/>
<rect x="158.787" y="137.988" width="24.5082" height="43.6595" rx="5.22937" fill="#E6E8F0"/>
<rect x="198.184" y="123.052" width="24.3513" height="58.3752" rx="5.22937" fill="#E6E8F0"/>
<rect x="237.163" y="77" width="24.3513" height="104.427" rx="5.22937" fill="url(#paint1_linear_140_3118)"/>
<rect x="276.141" y="130.835" width="24.3513" height="50.5918" rx="5.22937" fill="#E6E8F0"/>
<rect x="354" y="89" width="24.3513" height="92.1031" rx="5.22937" fill="url(#paint2_linear_140_3118)"/>
<rect x="316" y="156" width="24.3513" height="25.2959" rx="5.22937" fill="#E6E8F0"/>
<rect x="472" y="108" width="24.3513" height="72.6447" rx="5.22937" fill="url(#paint3_linear_140_3118)"/>
<rect x="432.055" y="140.564" width="24.3513" height="40.8626" rx="5.22937" fill="#E6E8F0"/>
<rect x="393" y="117" width="24.3513" height="63.5641" rx="5.22937" fill="#E6E8F0"/>
<path d="M50.7095 196.836H51.6335V203.184H50.7095V196.836ZM47.3135 196.848H48.2135V198.504C48.2135 198.848 48.1895 199.224 48.1415 199.632C48.1015 200.04 48.0095 200.46 47.8655 200.892C47.7295 201.324 47.5175 201.748 47.2295 202.164C46.9495 202.572 46.5735 202.952 46.1015 203.304C46.0295 203.208 45.9295 203.096 45.8015 202.968C45.6735 202.848 45.5535 202.752 45.4415 202.68C45.8735 202.376 46.2135 202.044 46.4615 201.684C46.7175 201.316 46.9055 200.944 47.0255 200.568C47.1455 200.184 47.2215 199.812 47.2535 199.452C47.2935 199.092 47.3135 198.772 47.3135 198.492V196.848ZM49.7735 192.624C50.0455 193.128 50.3935 193.628 50.8175 194.124C51.2415 194.62 51.7015 195.076 52.1975 195.492C52.6935 195.9 53.1855 196.236 53.6735 196.5C53.6095 196.548 53.5375 196.616 53.4575 196.704C53.3775 196.792 53.3015 196.88 53.2295 196.968C53.1575 197.056 53.0975 197.14 53.0495 197.22C52.5455 196.916 52.0415 196.54 51.5375 196.092C51.0335 195.636 50.5615 195.136 50.1215 194.592C49.6815 194.04 49.3095 193.48 49.0055 192.912L49.7735 192.624ZM49.1975 192.144L50.1455 192.3C49.8895 192.9 49.5575 193.504 49.1495 194.112C48.7415 194.72 48.2495 195.304 47.6735 195.864C47.1055 196.424 46.4415 196.928 45.6815 197.376C45.6415 197.312 45.5895 197.236 45.5255 197.148C45.4615 197.052 45.3935 196.964 45.3215 196.884C45.2495 196.796 45.1815 196.728 45.1175 196.68C45.8295 196.272 46.4535 195.816 46.9895 195.312C47.5255 194.8 47.9775 194.272 48.3455 193.728C48.7135 193.176 48.9975 192.648 49.1975 192.144ZM45.2495 192.18L46.1135 192.432C45.8655 193.104 45.5775 193.772 45.2495 194.436C44.9215 195.092 44.5655 195.712 44.1815 196.296C43.8055 196.88 43.4135 197.4 43.0055 197.856C42.9735 197.784 42.9255 197.692 42.8615 197.58C42.7975 197.468 42.7295 197.356 42.6575 197.244C42.5935 197.124 42.5335 197.032 42.4775 196.968C42.8535 196.576 43.2135 196.124 43.5575 195.612C43.9015 195.1 44.2175 194.552 44.5055 193.968C44.8015 193.376 45.0495 192.78 45.2495 192.18ZM44.0255 195.324L44.9135 194.436L44.9255 194.448V203.208H44.0255V195.324ZM57.9815 193.392H65.1695V194.196H57.9815V193.392ZM57.4655 202.08H65.5295V202.86H57.4655V202.08ZM58.6175 195.312H64.4615V202.296H63.6215V196.02H59.4335V202.296H58.6175V195.312ZM59.1815 197.028H63.8135V197.7H59.1815V197.028ZM59.1695 198.732H63.9935V199.38H59.1695V198.732ZM59.1695 200.424H63.8375V201.084H59.1695V200.424ZM61.2215 192.168L62.1815 192.228C62.1175 192.604 62.0415 193.004 61.9535 193.428C61.8655 193.844 61.7775 194.244 61.6895 194.628C61.6015 195.004 61.5135 195.332 61.4255 195.612L60.6455 195.528C60.7175 195.24 60.7895 194.896 60.8615 194.496C60.9415 194.096 61.0135 193.692 61.0775 193.284C61.1415 192.876 61.1895 192.504 61.2215 192.168ZM57.2015 192.18L58.0295 192.444C57.7815 193.116 57.4935 193.784 57.1655 194.448C56.8455 195.104 56.4935 195.724 56.1095 196.308C55.7255 196.892 55.3295 197.412 54.9215 197.868C54.8895 197.796 54.8415 197.704 54.7775 197.592C54.7215 197.48 54.6615 197.368 54.5975 197.256C54.5335 197.136 54.4735 197.04 54.4175 196.968C54.7855 196.576 55.1415 196.124 55.4855 195.612C55.8295 195.1 56.1495 194.552 56.4455 193.968C56.7415 193.384 56.9935 192.788 57.2015 192.18ZM55.9415 195.324L56.7695 194.472L56.7815 194.484V203.208H55.9415V195.324Z" fill="#8F95B2"/>
<path d="M82.0353 193.452H92.0433V195.42H91.1073V194.316H82.9353V195.42H82.0353V193.452ZM86.1873 192.336L87.1113 192.084C87.2233 192.284 87.3433 192.508 87.4713 192.756C87.6073 193.004 87.7033 193.216 87.7593 193.392L86.8113 193.692C86.7553 193.508 86.6673 193.288 86.5473 193.032C86.4273 192.776 86.3073 192.544 86.1873 192.336ZM82.7793 195.876H91.2993V201.54H90.3993V196.668H83.6433V201.6H82.7793V195.876ZM83.3313 197.988H90.8193V198.768H83.3313V197.988ZM83.3433 200.124H90.8793V200.928H83.3433V200.124ZM86.5593 194.712H87.4953V203.184H86.5593V194.712ZM94.2153 193.848H103.875V194.652H94.2153V193.848ZM94.8033 195.636H103.335V196.416H94.8033V195.636ZM94.0233 199.164H104.283V199.98H94.0233V199.164ZM93.7113 197.436H104.439V198.24H93.7113V197.436ZM98.5593 194.304H99.4713V198.012H98.5593V194.304ZM95.7513 192.456L96.5433 192.12C96.7593 192.352 96.9633 192.612 97.1553 192.9C97.3553 193.18 97.5033 193.428 97.5993 193.644L96.7593 194.028C96.6793 193.804 96.5433 193.544 96.3513 193.248C96.1593 192.952 95.9593 192.688 95.7513 192.456ZM101.379 192.12L102.315 192.408C102.115 192.736 101.899 193.068 101.667 193.404C101.435 193.732 101.219 194.012 101.019 194.244L100.251 193.968C100.379 193.808 100.511 193.62 100.647 193.404C100.791 193.18 100.927 192.956 101.055 192.732C101.183 192.508 101.291 192.304 101.379 192.12ZM98.4873 197.976H99.4353C99.3713 198.544 99.2793 199.068 99.1593 199.548C99.0393 200.02 98.8593 200.448 98.6193 200.832C98.3873 201.216 98.0713 201.56 97.6713 201.864C97.2793 202.16 96.7793 202.416 96.1713 202.632C95.5713 202.848 94.8433 203.028 93.9873 203.172C93.9713 203.092 93.9353 203 93.8793 202.896C93.8313 202.8 93.7753 202.704 93.7113 202.608C93.6473 202.512 93.5873 202.432 93.5313 202.368C94.3393 202.248 95.0193 202.096 95.5713 201.912C96.1313 201.728 96.5913 201.512 96.9513 201.264C97.3113 201.016 97.5913 200.732 97.7913 200.412C97.9993 200.084 98.1553 199.72 98.2593 199.32C98.3633 198.912 98.4393 198.464 98.4873 197.976ZM99.6033 199.428C99.9793 200.268 100.587 200.928 101.427 201.408C102.267 201.88 103.311 202.192 104.559 202.344C104.495 202.408 104.427 202.488 104.355 202.584C104.283 202.688 104.215 202.788 104.151 202.884C104.087 202.988 104.035 203.084 103.995 203.172C103.123 203.028 102.347 202.808 101.667 202.512C100.995 202.216 100.419 201.828 99.9393 201.348C99.4593 200.86 99.0673 200.28 98.7633 199.608L99.6033 199.428Z" fill="#8F95B2"/>
<path d="M120.825 194.16H125.037V195H120.825V194.16ZM120.561 196.944H125.181V197.796H120.561V196.944ZM122.541 192.288H123.393V196.176C123.393 196.712 123.373 197.284 123.333 197.892C123.293 198.5 123.197 199.116 123.045 199.74C122.901 200.356 122.677 200.952 122.373 201.528C122.069 202.104 121.653 202.624 121.125 203.088C121.085 203.024 121.025 202.952 120.945 202.872C120.873 202.792 120.797 202.712 120.717 202.632C120.637 202.56 120.557 202.5 120.477 202.452C120.973 202.044 121.361 201.58 121.641 201.06C121.921 200.532 122.125 199.984 122.253 199.416C122.381 198.84 122.461 198.276 122.493 197.724C122.525 197.172 122.541 196.66 122.541 196.188V192.288ZM123.189 198.372C123.277 198.452 123.389 198.572 123.525 198.732C123.669 198.884 123.825 199.06 123.993 199.26C124.169 199.46 124.341 199.664 124.509 199.872C124.677 200.072 124.829 200.252 124.965 200.412C125.101 200.572 125.201 200.692 125.265 200.772L124.641 201.444C124.537 201.284 124.397 201.084 124.221 200.844C124.045 200.596 123.857 200.34 123.657 200.076C123.457 199.812 123.265 199.568 123.081 199.344C122.905 199.112 122.761 198.932 122.649 198.804L123.189 198.372ZM125.757 192.756H130.833V199.14H129.933V193.548H126.621V199.14H125.757V192.756ZM128.265 198.768H129.081V201.828C129.081 201.996 129.109 202.108 129.165 202.164C129.229 202.212 129.333 202.236 129.477 202.236H130.329C130.457 202.236 130.553 202.188 130.617 202.092C130.681 201.996 130.729 201.804 130.761 201.516C130.793 201.228 130.813 200.808 130.821 200.256C130.933 200.336 131.057 200.408 131.193 200.472C131.329 200.536 131.449 200.58 131.553 200.604C131.521 201.228 131.473 201.712 131.409 202.056C131.345 202.392 131.229 202.624 131.061 202.752C130.901 202.888 130.657 202.956 130.329 202.956H129.357C128.973 202.956 128.693 202.884 128.517 202.74C128.349 202.596 128.265 202.324 128.265 201.924V198.768ZM127.869 194.568H128.709V196.884C128.709 197.396 128.661 197.936 128.565 198.504C128.477 199.072 128.305 199.64 128.049 200.208C127.793 200.768 127.421 201.304 126.933 201.816C126.453 202.328 125.817 202.788 125.025 203.196C124.993 203.14 124.941 203.068 124.869 202.98C124.805 202.9 124.737 202.816 124.665 202.728C124.593 202.648 124.525 202.588 124.461 202.548C125.213 202.164 125.817 201.74 126.273 201.276C126.729 200.804 127.073 200.32 127.305 199.824C127.537 199.32 127.689 198.82 127.761 198.324C127.833 197.82 127.869 197.336 127.869 196.872V194.568ZM137.469 195.756H142.053V196.608H137.469V195.756ZM132.945 202.428C133.201 202.188 133.497 201.904 133.833 201.576C134.169 201.24 134.509 200.884 134.853 200.508C135.205 200.132 135.537 199.76 135.849 199.392L136.341 200.076C136.061 200.412 135.765 200.764 135.453 201.132C135.141 201.492 134.821 201.848 134.493 202.2C134.173 202.544 133.865 202.868 133.569 203.172L132.945 202.428ZM133.437 195.912L133.941 195.324C134.181 195.444 134.437 195.584 134.709 195.744C134.989 195.896 135.257 196.048 135.513 196.2C135.769 196.344 135.981 196.472 136.149 196.584L135.633 197.268C135.465 197.148 135.253 197.008 134.997 196.848C134.749 196.688 134.485 196.524 134.205 196.356C133.933 196.188 133.677 196.04 133.437 195.912ZM132.717 198.192L133.209 197.58C133.449 197.684 133.709 197.804 133.989 197.94C134.277 198.068 134.553 198.2 134.817 198.336C135.081 198.464 135.301 198.58 135.477 198.684L134.973 199.38C134.805 199.268 134.593 199.144 134.337 199.008C134.081 198.864 133.809 198.72 133.521 198.576C133.233 198.432 132.965 198.304 132.717 198.192ZM141.597 195.756H142.497V198.792C142.497 199.04 142.461 199.236 142.389 199.38C142.325 199.524 142.185 199.632 141.969 199.704C141.769 199.768 141.497 199.808 141.153 199.824C140.809 199.84 140.381 199.848 139.869 199.848C139.845 199.72 139.797 199.576 139.725 199.416C139.661 199.256 139.593 199.116 139.521 198.996C139.809 199.004 140.073 199.012 140.313 199.02C140.561 199.02 140.773 199.02 140.949 199.02C141.133 199.012 141.257 199.008 141.321 199.008C141.433 199 141.505 198.98 141.537 198.948C141.577 198.916 141.597 198.864 141.597 198.792V195.756ZM136.965 195.756H137.889V201.468C137.889 201.652 137.913 201.796 137.961 201.9C138.009 201.996 138.101 202.06 138.237 202.092C138.381 202.124 138.589 202.14 138.861 202.14C138.941 202.14 139.077 202.14 139.269 202.14C139.461 202.14 139.677 202.14 139.917 202.14C140.165 202.14 140.409 202.14 140.649 202.14C140.897 202.14 141.121 202.14 141.321 202.14C141.529 202.14 141.681 202.14 141.777 202.14C142.025 202.14 142.205 202.1 142.317 202.02C142.437 201.94 142.525 201.78 142.581 201.54C142.637 201.3 142.677 200.956 142.701 200.508C142.813 200.58 142.949 200.652 143.109 200.724C143.277 200.788 143.429 200.836 143.565 200.868C143.517 201.42 143.441 201.852 143.337 202.164C143.233 202.468 143.061 202.684 142.821 202.812C142.589 202.94 142.257 203.004 141.825 203.004C141.753 203.004 141.617 203.004 141.417 203.004C141.217 203.004 140.985 203.004 140.721 203.004C140.457 203.004 140.189 203.004 139.917 203.004C139.653 203.004 139.421 203.004 139.221 203.004C139.021 203.004 138.889 203.004 138.825 203.004C138.353 203.004 137.981 202.96 137.709 202.872C137.437 202.792 137.245 202.64 137.133 202.416C137.021 202.192 136.965 201.876 136.965 201.468V195.756ZM132.741 193.212H143.373V194.052H132.741V193.212ZM135.441 192.168H136.353V195.216H135.441V192.168ZM139.701 192.168H140.625V195.216H139.701V192.168Z" fill="#8F95B2"/>
<path d="M160.047 193.452H170.055V195.42H169.119V194.316H160.947V195.42H160.047V193.452ZM164.199 192.336L165.123 192.084C165.235 192.284 165.355 192.508 165.483 192.756C165.619 193.004 165.715 193.216 165.771 193.392L164.823 193.692C164.767 193.508 164.679 193.288 164.559 193.032C164.439 192.776 164.319 192.544 164.199 192.336ZM160.791 195.876H169.311V201.54H168.411V196.668H161.655V201.6H160.791V195.876ZM161.343 197.988H168.831V198.768H161.343V197.988ZM161.355 200.124H168.891V200.928H161.355V200.124ZM164.571 194.712H165.507V203.184H164.571V194.712ZM172.227 193.848H181.887V194.652H172.227V193.848ZM172.815 195.636H181.347V196.416H172.815V195.636ZM172.035 199.164H182.295V199.98H172.035V199.164ZM171.723 197.436H182.451V198.24H171.723V197.436ZM176.571 194.304H177.483V198.012H176.571V194.304ZM173.763 192.456L174.555 192.12C174.771 192.352 174.975 192.612 175.167 192.9C175.367 193.18 175.515 193.428 175.611 193.644L174.771 194.028C174.691 193.804 174.555 193.544 174.363 193.248C174.171 192.952 173.971 192.688 173.763 192.456ZM179.391 192.12L180.327 192.408C180.127 192.736 179.911 193.068 179.679 193.404C179.447 193.732 179.231 194.012 179.031 194.244L178.263 193.968C178.391 193.808 178.523 193.62 178.659 193.404C178.803 193.18 178.939 192.956 179.067 192.732C179.195 192.508 179.303 192.304 179.391 192.12ZM176.499 197.976H177.447C177.383 198.544 177.291 199.068 177.171 199.548C177.051 200.02 176.871 200.448 176.631 200.832C176.399 201.216 176.083 201.56 175.683 201.864C175.291 202.16 174.791 202.416 174.183 202.632C173.583 202.848 172.855 203.028 171.999 203.172C171.983 203.092 171.947 203 171.891 202.896C171.843 202.8 171.787 202.704 171.723 202.608C171.659 202.512 171.599 202.432 171.543 202.368C172.351 202.248 173.031 202.096 173.583 201.912C174.143 201.728 174.603 201.512 174.963 201.264C175.323 201.016 175.603 200.732 175.803 200.412C176.011 200.084 176.167 199.72 176.271 199.32C176.375 198.912 176.451 198.464 176.499 197.976ZM177.615 199.428C177.991 200.268 178.599 200.928 179.439 201.408C180.279 201.88 181.323 202.192 182.571 202.344C182.507 202.408 182.439 202.488 182.367 202.584C182.295 202.688 182.227 202.788 182.163 202.884C182.099 202.988 182.047 203.084 182.007 203.172C181.135 203.028 180.359 202.808 179.679 202.512C179.007 202.216 178.431 201.828 177.951 201.348C177.471 200.86 177.079 200.28 176.775 199.608L177.615 199.428Z" fill="#8F95B2"/>
<path d="M198.837 194.16H203.049V195H198.837V194.16ZM198.573 196.944H203.193V197.796H198.573V196.944ZM200.553 192.288H201.405V196.176C201.405 196.712 201.385 197.284 201.345 197.892C201.305 198.5 201.209 199.116 201.057 199.74C200.913 200.356 200.689 200.952 200.385 201.528C200.081 202.104 199.665 202.624 199.137 203.088C199.097 203.024 199.037 202.952 198.957 202.872C198.885 202.792 198.809 202.712 198.729 202.632C198.649 202.56 198.569 202.5 198.489 202.452C198.985 202.044 199.373 201.58 199.653 201.06C199.933 200.532 200.137 199.984 200.265 199.416C200.393 198.84 200.473 198.276 200.505 197.724C200.537 197.172 200.553 196.66 200.553 196.188V192.288ZM201.201 198.372C201.289 198.452 201.401 198.572 201.537 198.732C201.681 198.884 201.837 199.06 202.005 199.26C202.181 199.46 202.353 199.664 202.521 199.872C202.689 200.072 202.841 200.252 202.977 200.412C203.113 200.572 203.213 200.692 203.277 200.772L202.653 201.444C202.549 201.284 202.409 201.084 202.233 200.844C202.057 200.596 201.869 200.34 201.669 200.076C201.469 199.812 201.277 199.568 201.093 199.344C200.917 199.112 200.773 198.932 200.661 198.804L201.201 198.372ZM203.769 192.756H208.845V199.14H207.945V193.548H204.633V199.14H203.769V192.756ZM206.277 198.768H207.093V201.828C207.093 201.996 207.121 202.108 207.177 202.164C207.241 202.212 207.345 202.236 207.489 202.236H208.341C208.469 202.236 208.565 202.188 208.629 202.092C208.693 201.996 208.741 201.804 208.773 201.516C208.805 201.228 208.825 200.808 208.833 200.256C208.945 200.336 209.069 200.408 209.205 200.472C209.341 200.536 209.461 200.58 209.565 200.604C209.533 201.228 209.485 201.712 209.421 202.056C209.357 202.392 209.241 202.624 209.073 202.752C208.913 202.888 208.669 202.956 208.341 202.956H207.369C206.985 202.956 206.705 202.884 206.529 202.74C206.361 202.596 206.277 202.324 206.277 201.924V198.768ZM205.881 194.568H206.721V196.884C206.721 197.396 206.673 197.936 206.577 198.504C206.489 199.072 206.317 199.64 206.061 200.208C205.805 200.768 205.433 201.304 204.945 201.816C204.465 202.328 203.829 202.788 203.037 203.196C203.005 203.14 202.953 203.068 202.881 202.98C202.817 202.9 202.749 202.816 202.677 202.728C202.605 202.648 202.537 202.588 202.473 202.548C203.225 202.164 203.829 201.74 204.285 201.276C204.741 200.804 205.085 200.32 205.317 199.824C205.549 199.32 205.701 198.82 205.773 198.324C205.845 197.82 205.881 197.336 205.881 196.872V194.568ZM215.481 195.756H220.065V196.608H215.481V195.756ZM210.957 202.428C211.213 202.188 211.509 201.904 211.845 201.576C212.181 201.24 212.521 200.884 212.865 200.508C213.217 200.132 213.549 199.76 213.861 199.392L214.353 200.076C214.073 200.412 213.777 200.764 213.465 201.132C213.153 201.492 212.833 201.848 212.505 202.2C212.185 202.544 211.877 202.868 211.581 203.172L210.957 202.428ZM211.449 195.912L211.953 195.324C212.193 195.444 212.449 195.584 212.721 195.744C213.001 195.896 213.269 196.048 213.525 196.2C213.781 196.344 213.993 196.472 214.161 196.584L213.645 197.268C213.477 197.148 213.265 197.008 213.009 196.848C212.761 196.688 212.497 196.524 212.217 196.356C211.945 196.188 211.689 196.04 211.449 195.912ZM210.729 198.192L211.221 197.58C211.461 197.684 211.721 197.804 212.001 197.94C212.289 198.068 212.565 198.2 212.829 198.336C213.093 198.464 213.313 198.58 213.489 198.684L212.985 199.38C212.817 199.268 212.605 199.144 212.349 199.008C212.093 198.864 211.821 198.72 211.533 198.576C211.245 198.432 210.977 198.304 210.729 198.192ZM219.609 195.756H220.509V198.792C220.509 199.04 220.473 199.236 220.401 199.38C220.337 199.524 220.197 199.632 219.981 199.704C219.781 199.768 219.509 199.808 219.165 199.824C218.821 199.84 218.393 199.848 217.881 199.848C217.857 199.72 217.809 199.576 217.737 199.416C217.673 199.256 217.605 199.116 217.533 198.996C217.821 199.004 218.085 199.012 218.325 199.02C218.573 199.02 218.785 199.02 218.961 199.02C219.145 199.012 219.269 199.008 219.333 199.008C219.445 199 219.517 198.98 219.549 198.948C219.589 198.916 219.609 198.864 219.609 198.792V195.756ZM214.977 195.756H215.901V201.468C215.901 201.652 215.925 201.796 215.973 201.9C216.021 201.996 216.113 202.06 216.249 202.092C216.393 202.124 216.601 202.14 216.873 202.14C216.953 202.14 217.089 202.14 217.281 202.14C217.473 202.14 217.689 202.14 217.929 202.14C218.177 202.14 218.421 202.14 218.661 202.14C218.909 202.14 219.133 202.14 219.333 202.14C219.541 202.14 219.693 202.14 219.789 202.14C220.037 202.14 220.217 202.1 220.329 202.02C220.449 201.94 220.537 201.78 220.593 201.54C220.649 201.3 220.689 200.956 220.713 200.508C220.825 200.58 220.961 200.652 221.121 200.724C221.289 200.788 221.441 200.836 221.577 200.868C221.529 201.42 221.453 201.852 221.349 202.164C221.245 202.468 221.073 202.684 220.833 202.812C220.601 202.94 220.269 203.004 219.837 203.004C219.765 203.004 219.629 203.004 219.429 203.004C219.229 203.004 218.997 203.004 218.733 203.004C218.469 203.004 218.201 203.004 217.929 203.004C217.665 203.004 217.433 203.004 217.233 203.004C217.033 203.004 216.901 203.004 216.837 203.004C216.365 203.004 215.993 202.96 215.721 202.872C215.449 202.792 215.257 202.64 215.145 202.416C215.033 202.192 214.977 201.876 214.977 201.468V195.756ZM210.753 193.212H221.385V194.052H210.753V193.212ZM213.453 192.168H214.365V195.216H213.453V192.168ZM217.713 192.168H218.637V195.216H217.713V192.168Z" fill="#8F95B2"/>
<path d="M280.113 197.052H287.385V197.892H280.113V197.052ZM279.189 195.648L280.041 195.936C279.809 196.416 279.537 196.9 279.225 197.388C278.913 197.868 278.585 198.32 278.241 198.744C277.897 199.16 277.545 199.528 277.185 199.848C277.145 199.792 277.085 199.72 277.005 199.632C276.933 199.536 276.857 199.44 276.777 199.344C276.697 199.248 276.625 199.172 276.561 199.116C276.905 198.828 277.237 198.5 277.557 198.132C277.877 197.756 278.177 197.36 278.457 196.944C278.745 196.52 278.989 196.088 279.189 195.648ZM284.865 195.756H285.753V202.068C285.753 202.348 285.713 202.56 285.633 202.704C285.553 202.848 285.409 202.96 285.201 203.04C285.001 203.104 284.721 203.144 284.361 203.16C284.001 203.176 283.549 203.184 283.005 203.184C282.989 203.056 282.949 202.908 282.885 202.74C282.821 202.572 282.757 202.428 282.693 202.308C282.981 202.316 283.253 202.32 283.509 202.32C283.765 202.32 283.985 202.32 284.169 202.32C284.361 202.32 284.493 202.32 284.565 202.32C284.685 202.312 284.765 202.292 284.805 202.26C284.845 202.228 284.865 202.16 284.865 202.056V195.756ZM278.073 193.308H281.769V194.088H278.073V193.308ZM282.693 193.308H287.277V194.088H282.693V193.308ZM278.253 192.132L279.129 192.336C278.985 192.768 278.813 193.2 278.613 193.632C278.413 194.056 278.197 194.456 277.965 194.832C277.741 195.2 277.505 195.528 277.257 195.816C277.209 195.768 277.137 195.712 277.041 195.648C276.945 195.584 276.849 195.524 276.753 195.468C276.657 195.404 276.573 195.352 276.501 195.312C276.877 194.92 277.217 194.444 277.521 193.884C277.825 193.316 278.069 192.732 278.253 192.132ZM282.981 192.132L283.833 192.336C283.633 193 283.361 193.632 283.017 194.232C282.681 194.824 282.317 195.324 281.925 195.732C281.869 195.684 281.793 195.628 281.697 195.564C281.609 195.5 281.517 195.436 281.421 195.372C281.325 195.308 281.241 195.256 281.169 195.216C281.569 194.848 281.925 194.392 282.237 193.848C282.557 193.304 282.805 192.732 282.981 192.132ZM278.925 193.92L279.693 193.704C279.837 193.968 279.989 194.268 280.149 194.604C280.317 194.94 280.449 195.216 280.545 195.432L279.741 195.708C279.653 195.484 279.529 195.204 279.369 194.868C279.209 194.524 279.061 194.208 278.925 193.92ZM283.809 193.92L284.565 193.644C284.741 193.884 284.929 194.156 285.129 194.46C285.337 194.756 285.493 195.008 285.597 195.216L284.805 195.54C284.709 195.332 284.561 195.076 284.361 194.772C284.169 194.46 283.985 194.176 283.809 193.92ZM280.809 198.924L281.541 198.54C281.717 198.788 281.901 199.056 282.093 199.344C282.293 199.632 282.481 199.912 282.657 200.184C282.833 200.448 282.977 200.676 283.089 200.868L282.321 201.336C282.225 201.136 282.089 200.896 281.913 200.616C281.737 200.336 281.553 200.048 281.361 199.752C281.169 199.456 280.985 199.18 280.809 198.924ZM278.349 197.628L279.213 196.776L279.225 196.8V203.208H278.349V197.628ZM291.189 193.464V195.096H296.901V193.464H291.189ZM290.289 192.66H297.849V195.888H290.289V192.66ZM288.825 196.968H299.265V197.796H288.825V196.968ZM291.057 199.14H297.177V199.956H291.057V199.14ZM296.901 199.14H297.861C297.861 199.14 297.857 199.164 297.849 199.212C297.841 199.26 297.833 199.316 297.825 199.38C297.825 199.444 297.821 199.5 297.813 199.548C297.717 200.22 297.617 200.776 297.513 201.216C297.409 201.656 297.297 202.004 297.177 202.26C297.065 202.516 296.933 202.712 296.781 202.848C296.637 202.968 296.485 203.048 296.325 203.088C296.165 203.136 295.969 203.164 295.737 203.172C295.537 203.18 295.253 203.18 294.885 203.172C294.517 203.172 294.125 203.16 293.709 203.136C293.693 203 293.657 202.852 293.601 202.692C293.545 202.54 293.477 202.4 293.397 202.272C293.821 202.312 294.225 202.336 294.609 202.344C295.001 202.36 295.281 202.368 295.449 202.368C295.593 202.368 295.709 202.36 295.797 202.344C295.885 202.336 295.961 202.308 296.025 202.26C296.145 202.164 296.253 202.004 296.349 201.78C296.453 201.548 296.549 201.228 296.637 200.82C296.725 200.404 296.813 199.884 296.901 199.26V199.14ZM291.441 197.328L292.401 197.46C292.313 197.74 292.221 198.032 292.125 198.336C292.029 198.64 291.929 198.932 291.825 199.212C291.721 199.492 291.629 199.74 291.549 199.956H290.505C290.609 199.716 290.717 199.448 290.829 199.152C290.941 198.848 291.049 198.54 291.153 198.228C291.265 197.908 291.361 197.608 291.441 197.328Z" fill="#8F95B2"/>
<path d="M316.071 193.452H326.079V195.42H325.143V194.316H316.971V195.42H316.071V193.452ZM320.223 192.336L321.147 192.084C321.259 192.284 321.379 192.508 321.507 192.756C321.643 193.004 321.739 193.216 321.795 193.392L320.847 193.692C320.791 193.508 320.703 193.288 320.583 193.032C320.463 192.776 320.343 192.544 320.223 192.336ZM316.815 195.876H325.335V201.54H324.435V196.668H317.679V201.6H316.815V195.876ZM317.367 197.988H324.855V198.768H317.367V197.988ZM317.379 200.124H324.915V200.928H317.379V200.124ZM320.595 194.712H321.531V203.184H320.595V194.712ZM328.251 193.848H337.911V194.652H328.251V193.848ZM328.839 195.636H337.371V196.416H328.839V195.636ZM328.059 199.164H338.319V199.98H328.059V199.164ZM327.747 197.436H338.475V198.24H327.747V197.436ZM332.595 194.304H333.507V198.012H332.595V194.304ZM329.787 192.456L330.579 192.12C330.795 192.352 330.999 192.612 331.191 192.9C331.391 193.18 331.539 193.428 331.635 193.644L330.795 194.028C330.715 193.804 330.579 193.544 330.387 193.248C330.195 192.952 329.995 192.688 329.787 192.456ZM335.415 192.12L336.351 192.408C336.151 192.736 335.935 193.068 335.703 193.404C335.471 193.732 335.255 194.012 335.055 194.244L334.287 193.968C334.415 193.808 334.547 193.62 334.683 193.404C334.827 193.18 334.963 192.956 335.091 192.732C335.219 192.508 335.327 192.304 335.415 192.12ZM332.523 197.976H333.471C333.407 198.544 333.315 199.068 333.195 199.548C333.075 200.02 332.895 200.448 332.655 200.832C332.423 201.216 332.107 201.56 331.707 201.864C331.315 202.16 330.815 202.416 330.207 202.632C329.607 202.848 328.879 203.028 328.023 203.172C328.007 203.092 327.971 203 327.915 202.896C327.867 202.8 327.811 202.704 327.747 202.608C327.683 202.512 327.623 202.432 327.567 202.368C328.375 202.248 329.055 202.096 329.607 201.912C330.167 201.728 330.627 201.512 330.987 201.264C331.347 201.016 331.627 200.732 331.827 200.412C332.035 200.084 332.191 199.72 332.295 199.32C332.399 198.912 332.475 198.464 332.523 197.976ZM333.639 199.428C334.015 200.268 334.623 200.928 335.463 201.408C336.303 201.88 337.347 202.192 338.595 202.344C338.531 202.408 338.463 202.488 338.391 202.584C338.319 202.688 338.251 202.788 338.187 202.884C338.123 202.988 338.071 203.084 338.031 203.172C337.159 203.028 336.383 202.808 335.703 202.512C335.031 202.216 334.455 201.828 333.975 201.348C333.495 200.86 333.103 200.28 332.799 199.608L333.639 199.428Z" fill="#8F95B2"/>
<path d="M362.757 196.836H363.681V203.184H362.757V196.836ZM359.361 196.848H360.261V198.504C360.261 198.848 360.237 199.224 360.189 199.632C360.149 200.04 360.057 200.46 359.913 200.892C359.777 201.324 359.565 201.748 359.277 202.164C358.997 202.572 358.621 202.952 358.149 203.304C358.077 203.208 357.977 203.096 357.849 202.968C357.721 202.848 357.601 202.752 357.489 202.68C357.921 202.376 358.261 202.044 358.509 201.684C358.765 201.316 358.953 200.944 359.073 200.568C359.193 200.184 359.269 199.812 359.301 199.452C359.341 199.092 359.361 198.772 359.361 198.492V196.848ZM361.821 192.624C362.093 193.128 362.441 193.628 362.865 194.124C363.289 194.62 363.749 195.076 364.245 195.492C364.741 195.9 365.233 196.236 365.721 196.5C365.657 196.548 365.585 196.616 365.505 196.704C365.425 196.792 365.349 196.88 365.277 196.968C365.205 197.056 365.145 197.14 365.097 197.22C364.593 196.916 364.089 196.54 363.585 196.092C363.081 195.636 362.609 195.136 362.169 194.592C361.729 194.04 361.357 193.48 361.053 192.912L361.821 192.624ZM361.245 192.144L362.193 192.3C361.937 192.9 361.605 193.504 361.197 194.112C360.789 194.72 360.297 195.304 359.721 195.864C359.153 196.424 358.489 196.928 357.729 197.376C357.689 197.312 357.637 197.236 357.573 197.148C357.509 197.052 357.441 196.964 357.369 196.884C357.297 196.796 357.229 196.728 357.165 196.68C357.877 196.272 358.501 195.816 359.037 195.312C359.573 194.8 360.025 194.272 360.393 193.728C360.761 193.176 361.045 192.648 361.245 192.144ZM357.297 192.18L358.161 192.432C357.913 193.104 357.625 193.772 357.297 194.436C356.969 195.092 356.613 195.712 356.229 196.296C355.853 196.88 355.461 197.4 355.053 197.856C355.021 197.784 354.973 197.692 354.909 197.58C354.845 197.468 354.777 197.356 354.705 197.244C354.641 197.124 354.581 197.032 354.525 196.968C354.901 196.576 355.261 196.124 355.605 195.612C355.949 195.1 356.265 194.552 356.553 193.968C356.849 193.376 357.097 192.78 357.297 192.18ZM356.073 195.324L356.961 194.436L356.973 194.448V203.208H356.073V195.324ZM370.029 193.392H377.217V194.196H370.029V193.392ZM369.513 202.08H377.577V202.86H369.513V202.08ZM370.665 195.312H376.509V202.296H375.669V196.02H371.481V202.296H370.665V195.312ZM371.229 197.028H375.861V197.7H371.229V197.028ZM371.217 198.732H376.041V199.38H371.217V198.732ZM371.217 200.424H375.885V201.084H371.217V200.424ZM373.269 192.168L374.229 192.228C374.165 192.604 374.089 193.004 374.001 193.428C373.913 193.844 373.825 194.244 373.737 194.628C373.649 195.004 373.561 195.332 373.473 195.612L372.693 195.528C372.765 195.24 372.837 194.896 372.909 194.496C372.989 194.096 373.061 193.692 373.125 193.284C373.189 192.876 373.237 192.504 373.269 192.168ZM369.249 192.18L370.077 192.444C369.829 193.116 369.541 193.784 369.213 194.448C368.893 195.104 368.541 195.724 368.157 196.308C367.773 196.892 367.377 197.412 366.969 197.868C366.937 197.796 366.889 197.704 366.825 197.592C366.769 197.48 366.709 197.368 366.645 197.256C366.581 197.136 366.521 197.04 366.465 196.968C366.833 196.576 367.189 196.124 367.533 195.612C367.877 195.1 368.197 194.552 368.493 193.968C368.789 193.384 369.041 192.788 369.249 192.18ZM367.989 195.324L368.817 194.472L368.829 194.484V203.208H367.989V195.324Z" fill="#8F95B2"/>
<path d="M397.347 192.6H404.175V193.404H397.347V192.6ZM396.927 197.184H404.583V198H396.927V197.184ZM397.923 198.996H403.767V203.172H402.879V199.8H398.787V203.208H397.923V198.996ZM398.355 201.948H403.239V202.74H398.355V201.948ZM399.867 192.912L400.767 193.008C400.679 193.504 400.571 194.04 400.443 194.616C400.315 195.184 400.187 195.736 400.059 196.272C399.939 196.8 399.831 197.256 399.735 197.64H398.787C398.875 197.344 398.967 197 399.063 196.608C399.167 196.216 399.267 195.808 399.363 195.384C399.459 194.96 399.551 194.536 399.639 194.112C399.727 193.68 399.803 193.28 399.867 192.912ZM397.779 194.76H402.759V195.54H397.779V194.76ZM402.543 194.76H402.627L402.771 194.712L403.407 194.772C403.375 195.22 403.331 195.7 403.275 196.212C403.227 196.724 403.175 197.192 403.119 197.616L402.267 197.556C402.307 197.26 402.343 196.948 402.375 196.62C402.415 196.284 402.447 195.96 402.471 195.648C402.503 195.336 402.527 195.076 402.543 194.868V194.76ZM394.263 193.044L394.839 192.492C395.055 192.668 395.279 192.864 395.511 193.08C395.751 193.296 395.975 193.508 396.183 193.716C396.399 193.924 396.567 194.112 396.687 194.28L396.075 194.928C395.947 194.752 395.783 194.556 395.583 194.34C395.383 194.116 395.167 193.892 394.935 193.668C394.703 193.436 394.479 193.228 394.263 193.044ZM393.627 195.924H395.775V196.8H393.627V195.924ZM395.319 202.848L395.187 202.008L395.451 201.636L397.575 200.232C397.599 200.344 397.635 200.476 397.683 200.628C397.731 200.772 397.775 200.892 397.815 200.988C397.311 201.332 396.903 201.616 396.591 201.84C396.287 202.056 396.047 202.228 395.871 202.356C395.703 202.484 395.579 202.58 395.499 202.644C395.427 202.716 395.367 202.784 395.319 202.848ZM395.319 202.848C395.295 202.768 395.255 202.676 395.199 202.572C395.151 202.476 395.095 202.38 395.031 202.284C394.967 202.188 394.911 202.108 394.863 202.044C394.951 201.98 395.043 201.88 395.139 201.744C395.243 201.6 395.295 201.404 395.295 201.156V195.924H396.135V201.96C396.135 201.96 396.095 201.992 396.015 202.056C395.935 202.112 395.839 202.184 395.727 202.272C395.615 202.368 395.519 202.464 395.439 202.56C395.359 202.664 395.319 202.76 395.319 202.848ZM407.943 201.924H414.291V202.692H407.943V201.924ZM407.487 197.544H414.723V198.288H407.487V197.544ZM407.487 195.744H414.723V196.488H407.487V195.744ZM405.735 193.968H416.499V194.76H405.735V193.968ZM407.367 199.428H414.855V203.16H413.943V200.196H408.255V203.196H407.367V199.428ZM410.031 192.408L410.907 192.144C411.139 192.4 411.371 192.684 411.603 192.996C411.835 193.308 412.003 193.584 412.107 193.824L411.195 194.124C411.091 193.892 410.927 193.616 410.703 193.296C410.487 192.968 410.263 192.672 410.031 192.408Z" fill="#8F95B2"/>
<path d="M432.873 194.16H437.085V195H432.873V194.16ZM432.609 196.944H437.229V197.796H432.609V196.944ZM434.589 192.288H435.441V196.176C435.441 196.712 435.421 197.284 435.381 197.892C435.341 198.5 435.245 199.116 435.093 199.74C434.949 200.356 434.725 200.952 434.421 201.528C434.117 202.104 433.701 202.624 433.173 203.088C433.133 203.024 433.073 202.952 432.993 202.872C432.921 202.792 432.845 202.712 432.765 202.632C432.685 202.56 432.605 202.5 432.525 202.452C433.021 202.044 433.409 201.58 433.689 201.06C433.969 200.532 434.173 199.984 434.301 199.416C434.429 198.84 434.509 198.276 434.541 197.724C434.573 197.172 434.589 196.66 434.589 196.188V192.288ZM435.237 198.372C435.325 198.452 435.437 198.572 435.573 198.732C435.717 198.884 435.873 199.06 436.041 199.26C436.217 199.46 436.389 199.664 436.557 199.872C436.725 200.072 436.877 200.252 437.013 200.412C437.149 200.572 437.249 200.692 437.313 200.772L436.689 201.444C436.585 201.284 436.445 201.084 436.269 200.844C436.093 200.596 435.905 200.34 435.705 200.076C435.505 199.812 435.313 199.568 435.129 199.344C434.953 199.112 434.809 198.932 434.697 198.804L435.237 198.372ZM437.805 192.756H442.881V199.14H441.981V193.548H438.669V199.14H437.805V192.756ZM440.313 198.768H441.129V201.828C441.129 201.996 441.157 202.108 441.213 202.164C441.277 202.212 441.381 202.236 441.525 202.236H442.377C442.505 202.236 442.601 202.188 442.665 202.092C442.729 201.996 442.777 201.804 442.809 201.516C442.841 201.228 442.861 200.808 442.869 200.256C442.981 200.336 443.105 200.408 443.241 200.472C443.377 200.536 443.497 200.58 443.601 200.604C443.569 201.228 443.521 201.712 443.457 202.056C443.393 202.392 443.277 202.624 443.109 202.752C442.949 202.888 442.705 202.956 442.377 202.956H441.405C441.021 202.956 440.741 202.884 440.565 202.74C440.397 202.596 440.313 202.324 440.313 201.924V198.768ZM439.917 194.568H440.757V196.884C440.757 197.396 440.709 197.936 440.613 198.504C440.525 199.072 440.353 199.64 440.097 200.208C439.841 200.768 439.469 201.304 438.981 201.816C438.501 202.328 437.865 202.788 437.073 203.196C437.041 203.14 436.989 203.068 436.917 202.98C436.853 202.9 436.785 202.816 436.713 202.728C436.641 202.648 436.573 202.588 436.509 202.548C437.261 202.164 437.865 201.74 438.321 201.276C438.777 200.804 439.121 200.32 439.353 199.824C439.585 199.32 439.737 198.82 439.809 198.324C439.881 197.82 439.917 197.336 439.917 196.872V194.568ZM449.517 195.756H454.101V196.608H449.517V195.756ZM444.993 202.428C445.249 202.188 445.545 201.904 445.881 201.576C446.217 201.24 446.557 200.884 446.901 200.508C447.253 200.132 447.585 199.76 447.897 199.392L448.389 200.076C448.109 200.412 447.813 200.764 447.501 201.132C447.189 201.492 446.869 201.848 446.541 202.2C446.221 202.544 445.913 202.868 445.617 203.172L444.993 202.428ZM445.485 195.912L445.989 195.324C446.229 195.444 446.485 195.584 446.757 195.744C447.037 195.896 447.305 196.048 447.561 196.2C447.817 196.344 448.029 196.472 448.197 196.584L447.681 197.268C447.513 197.148 447.301 197.008 447.045 196.848C446.797 196.688 446.533 196.524 446.253 196.356C445.981 196.188 445.725 196.04 445.485 195.912ZM444.765 198.192L445.257 197.58C445.497 197.684 445.757 197.804 446.037 197.94C446.325 198.068 446.601 198.2 446.865 198.336C447.129 198.464 447.349 198.58 447.525 198.684L447.021 199.38C446.853 199.268 446.641 199.144 446.385 199.008C446.129 198.864 445.857 198.72 445.569 198.576C445.281 198.432 445.013 198.304 444.765 198.192ZM453.645 195.756H454.545V198.792C454.545 199.04 454.509 199.236 454.437 199.38C454.373 199.524 454.233 199.632 454.017 199.704C453.817 199.768 453.545 199.808 453.201 199.824C452.857 199.84 452.429 199.848 451.917 199.848C451.893 199.72 451.845 199.576 451.773 199.416C451.709 199.256 451.641 199.116 451.569 198.996C451.857 199.004 452.121 199.012 452.361 199.02C452.609 199.02 452.821 199.02 452.997 199.02C453.181 199.012 453.305 199.008 453.369 199.008C453.481 199 453.553 198.98 453.585 198.948C453.625 198.916 453.645 198.864 453.645 198.792V195.756ZM449.013 195.756H449.937V201.468C449.937 201.652 449.961 201.796 450.009 201.9C450.057 201.996 450.149 202.06 450.285 202.092C450.429 202.124 450.637 202.14 450.909 202.14C450.989 202.14 451.125 202.14 451.317 202.14C451.509 202.14 451.725 202.14 451.965 202.14C452.213 202.14 452.457 202.14 452.697 202.14C452.945 202.14 453.169 202.14 453.369 202.14C453.577 202.14 453.729 202.14 453.825 202.14C454.073 202.14 454.253 202.1 454.365 202.02C454.485 201.94 454.573 201.78 454.629 201.54C454.685 201.3 454.725 200.956 454.749 200.508C454.861 200.58 454.997 200.652 455.157 200.724C455.325 200.788 455.477 200.836 455.613 200.868C455.565 201.42 455.489 201.852 455.385 202.164C455.281 202.468 455.109 202.684 454.869 202.812C454.637 202.94 454.305 203.004 453.873 203.004C453.801 203.004 453.665 203.004 453.465 203.004C453.265 203.004 453.033 203.004 452.769 203.004C452.505 203.004 452.237 203.004 451.965 203.004C451.701 203.004 451.469 203.004 451.269 203.004C451.069 203.004 450.937 203.004 450.873 203.004C450.401 203.004 450.029 202.96 449.757 202.872C449.485 202.792 449.293 202.64 449.181 202.416C449.069 202.192 449.013 201.876 449.013 201.468V195.756ZM444.789 193.212H455.421V194.052H444.789V193.212ZM447.489 192.168H448.401V195.216H447.489V192.168ZM451.749 192.168H452.673V195.216H451.749V192.168Z" fill="#8F95B2"/>
<path d="M472.095 193.452H482.103V195.42H481.167V194.316H472.995V195.42H472.095V193.452ZM476.247 192.336L477.171 192.084C477.283 192.284 477.403 192.508 477.531 192.756C477.667 193.004 477.763 193.216 477.819 193.392L476.871 193.692C476.815 193.508 476.727 193.288 476.607 193.032C476.487 192.776 476.367 192.544 476.247 192.336ZM472.839 195.876H481.359V201.54H480.459V196.668H473.703V201.6H472.839V195.876ZM473.391 197.988H480.879V198.768H473.391V197.988ZM473.403 200.124H480.939V200.928H473.403V200.124ZM476.619 194.712H477.555V203.184H476.619V194.712ZM484.275 193.848H493.935V194.652H484.275V193.848ZM484.863 195.636H493.395V196.416H484.863V195.636ZM484.083 199.164H494.343V199.98H484.083V199.164ZM483.771 197.436H494.499V198.24H483.771V197.436ZM488.619 194.304H489.531V198.012H488.619V194.304ZM485.811 192.456L486.603 192.12C486.819 192.352 487.023 192.612 487.215 192.9C487.415 193.18 487.563 193.428 487.659 193.644L486.819 194.028C486.739 193.804 486.603 193.544 486.411 193.248C486.219 192.952 486.019 192.688 485.811 192.456ZM491.439 192.12L492.375 192.408C492.175 192.736 491.959 193.068 491.727 193.404C491.495 193.732 491.279 194.012 491.079 194.244L490.311 193.968C490.439 193.808 490.571 193.62 490.707 193.404C490.851 193.18 490.987 192.956 491.115 192.732C491.243 192.508 491.351 192.304 491.439 192.12ZM488.547 197.976H489.495C489.431 198.544 489.339 199.068 489.219 199.548C489.099 200.02 488.919 200.448 488.679 200.832C488.447 201.216 488.131 201.56 487.731 201.864C487.339 202.16 486.839 202.416 486.231 202.632C485.631 202.848 484.903 203.028 484.047 203.172C484.031 203.092 483.995 203 483.939 202.896C483.891 202.8 483.835 202.704 483.771 202.608C483.707 202.512 483.647 202.432 483.591 202.368C484.399 202.248 485.079 202.096 485.631 201.912C486.191 201.728 486.651 201.512 487.011 201.264C487.371 201.016 487.651 200.732 487.851 200.412C488.059 200.084 488.215 199.72 488.319 199.32C488.423 198.912 488.499 198.464 488.547 197.976ZM489.663 199.428C490.039 200.268 490.647 200.928 491.487 201.408C492.327 201.88 493.371 202.192 494.619 202.344C494.555 202.408 494.487 202.488 494.415 202.584C494.343 202.688 494.275 202.788 494.211 202.884C494.147 202.988 494.095 203.084 494.055 203.172C493.183 203.028 492.407 202.808 491.727 202.512C491.055 202.216 490.479 201.828 489.999 201.348C489.519 200.86 489.127 200.28 488.823 199.608L489.663 199.428Z" fill="#8F95B2"/>
<path d="M241.323 192.6H248.151V193.404H241.323V192.6ZM240.903 197.184H248.559V198H240.903V197.184ZM241.899 198.996H247.743V203.172H246.855V199.8H242.763V203.208H241.899V198.996ZM242.331 201.948H247.215V202.74H242.331V201.948ZM243.843 192.912L244.743 193.008C244.655 193.504 244.547 194.04 244.419 194.616C244.291 195.184 244.163 195.736 244.035 196.272C243.915 196.8 243.807 197.256 243.711 197.64H242.763C242.851 197.344 242.943 197 243.039 196.608C243.143 196.216 243.243 195.808 243.339 195.384C243.435 194.96 243.527 194.536 243.615 194.112C243.703 193.68 243.779 193.28 243.843 192.912ZM241.755 194.76H246.735V195.54H241.755V194.76ZM246.519 194.76H246.603L246.747 194.712L247.383 194.772C247.351 195.22 247.307 195.7 247.251 196.212C247.203 196.724 247.151 197.192 247.095 197.616L246.243 197.556C246.283 197.26 246.319 196.948 246.351 196.62C246.391 196.284 246.423 195.96 246.447 195.648C246.479 195.336 246.503 195.076 246.519 194.868V194.76ZM238.239 193.044L238.815 192.492C239.031 192.668 239.255 192.864 239.487 193.08C239.727 193.296 239.951 193.508 240.159 193.716C240.375 193.924 240.543 194.112 240.663 194.28L240.051 194.928C239.923 194.752 239.759 194.556 239.559 194.34C239.359 194.116 239.143 193.892 238.911 193.668C238.679 193.436 238.455 193.228 238.239 193.044ZM237.603 195.924H239.751V196.8H237.603V195.924ZM239.295 202.848L239.163 202.008L239.427 201.636L241.551 200.232C241.575 200.344 241.611 200.476 241.659 200.628C241.707 200.772 241.751 200.892 241.791 200.988C241.287 201.332 240.879 201.616 240.567 201.84C240.263 202.056 240.023 202.228 239.847 202.356C239.679 202.484 239.555 202.58 239.475 202.644C239.403 202.716 239.343 202.784 239.295 202.848ZM239.295 202.848C239.271 202.768 239.231 202.676 239.175 202.572C239.127 202.476 239.071 202.38 239.007 202.284C238.943 202.188 238.887 202.108 238.839 202.044C238.927 201.98 239.019 201.88 239.115 201.744C239.219 201.6 239.271 201.404 239.271 201.156V195.924H240.111V201.96C240.111 201.96 240.071 201.992 239.991 202.056C239.911 202.112 239.815 202.184 239.703 202.272C239.591 202.368 239.495 202.464 239.415 202.56C239.335 202.664 239.295 202.76 239.295 202.848ZM251.919 201.924H258.267V202.692H251.919V201.924ZM251.463 197.544H258.699V198.288H251.463V197.544ZM251.463 195.744H258.699V196.488H251.463V195.744ZM249.711 193.968H260.475V194.76H249.711V193.968ZM251.343 199.428H258.831V203.16H257.919V200.196H252.231V203.196H251.343V199.428ZM254.007 192.408L254.883 192.144C255.115 192.4 255.347 192.684 255.579 192.996C255.811 193.308 255.979 193.584 256.083 193.824L255.171 194.124C255.067 193.892 254.903 193.616 254.679 193.296C254.463 192.968 254.239 192.672 254.007 192.408Z" fill="#8F95B2"/>
<rect x="40" y="220.086" width="12" height="7.66576" rx="3.83288" fill="url(#paint4_linear_140_3118)"/>
<path d="M68.9503 342.48V343.308H75.2383V342.48H68.9503ZM68.3863 346.992V347.832H75.7783V346.992H68.3863ZM68.2423 344.832V345.66H75.8623V344.832H68.2423ZM71.5903 340.98V345.264H72.4783V340.98H71.5903ZM73.2703 345.48V350.868C73.2703 351.036 73.2103 351.084 73.0183 351.096C72.8263 351.108 72.1663 351.108 71.4463 351.084C71.5663 351.336 71.6983 351.696 71.7463 351.948C72.6823 351.948 73.2823 351.936 73.6783 351.804C74.0503 351.66 74.1583 351.408 74.1583 350.88V345.48H73.2703ZM69.2983 348.564C69.8503 349.212 70.4623 350.112 70.7143 350.688L71.4823 350.244C71.2183 349.656 70.5943 348.792 70.0303 348.168L69.2983 348.564ZM67.5703 343.596C66.8863 344.844 65.7463 346.08 64.6543 346.872C64.8103 347.076 65.0623 347.556 65.1463 347.748C66.3103 346.8 67.5703 345.348 68.3743 343.92L67.5703 343.596ZM67.3783 340.956C66.8503 341.808 65.7823 342.804 64.8343 343.428C64.9783 343.608 65.2063 343.956 65.3023 344.16C66.3703 343.452 67.5103 342.324 68.2183 341.292L67.3783 340.956ZM66.5263 345.72V351.96H67.3903V344.892L67.3663 344.868L66.5263 345.72ZM78.8503 344.628V345.492H85.8463V344.628H78.8503ZM82.3063 347.46V348.312H86.3503V347.46H82.3063ZM81.8263 345.036V350.988L82.7623 351.108V345.036H81.8263ZM79.0063 346.464C78.7423 348.648 78.0943 350.364 76.7503 351.396C76.9663 351.54 77.3383 351.84 77.4823 351.996C78.8383 350.808 79.5823 348.984 79.9183 346.56L79.0063 346.464ZM79.5703 348L78.8383 348.288C79.8703 351.216 81.8263 351.768 84.6823 351.768H87.4903C87.5383 351.504 87.6943 351.084 87.8383 350.856C87.2503 350.88 85.1743 350.88 84.7303 350.88C82.2943 350.868 80.4223 350.448 79.5703 348ZM77.3023 342.276V344.904H78.1903V343.14H86.4103V344.904H87.3343V342.276H77.3023ZM81.4183 341.1C81.7063 341.58 81.9823 342.216 82.0903 342.612L83.0263 342.324C82.9063 341.916 82.5943 341.304 82.3063 340.848L81.4183 341.1ZM96.6583 346.44C96.6583 348.792 97.6063 350.688 99.0463 352.152L99.7663 351.78C98.3743 350.352 97.5223 348.588 97.5223 346.44C97.5223 344.304 98.3743 342.54 99.7663 341.112L99.0463 340.74C97.6063 342.204 96.6583 344.1 96.6583 346.44ZM101.374 351H106.198V350.088H104.422V342.204H103.582C103.114 342.492 102.55 342.696 101.758 342.828V343.536H103.33V350.088H101.374V351ZM110.311 351.168C111.967 351.168 113.035 349.644 113.035 346.572C113.035 343.524 111.967 342.048 110.311 342.048C108.631 342.048 107.563 343.524 107.563 346.572C107.563 349.644 108.631 351.168 110.311 351.168ZM110.311 350.28C109.303 350.28 108.619 349.164 108.619 346.572C108.619 344.016 109.303 342.924 110.311 342.924C111.307 342.924 111.979 344.016 111.979 346.572C111.979 349.164 111.307 350.28 110.311 350.28ZM116.091 347.592C117.303 347.592 118.095 346.584 118.095 344.808C118.095 343.044 117.303 342.048 116.091 342.048C114.879 342.048 114.087 343.044 114.087 344.808C114.087 346.584 114.879 347.592 116.091 347.592ZM116.091 346.92C115.395 346.92 114.915 346.2 114.915 344.808C114.915 343.404 115.395 342.72 116.091 342.72C116.787 342.72 117.255 343.404 117.255 344.808C117.255 346.2 116.787 346.92 116.091 346.92ZM116.343 351.168H117.087L121.935 342.048H121.191L116.343 351.168ZM122.223 351.168C123.411 351.168 124.215 350.16 124.215 348.372C124.215 346.62 123.411 345.612 122.223 345.612C121.011 345.612 120.219 346.62 120.219 348.372C120.219 350.16 121.011 351.168 122.223 351.168ZM122.223 350.496C121.527 350.496 121.047 349.776 121.047 348.372C121.047 346.968 121.527 346.296 122.223 346.296C122.907 346.296 123.387 346.968 123.387 348.372C123.387 349.776 122.907 350.496 122.223 350.496ZM128.33 346.44C128.33 344.1 127.382 342.204 125.942 340.74L125.222 341.112C126.614 342.54 127.466 344.304 127.466 346.44C127.466 348.588 126.614 350.352 125.222 351.78L125.942 352.152C127.382 350.688 128.33 348.792 128.33 346.44Z" fill="#8F95B2"/>
<rect x="157" y="220.086" width="12" height="7.66576" rx="3.83288" fill="url(#paint5_linear_140_3118)"/>
<rect x="282" y="220" width="12" height="7.66576" rx="3.83288" fill="url(#paint6_linear_140_3118)"/>
<path d="M196.004 343.752V349.776C196.004 351.276 196.616 351.624 198.572 351.624C199.016 351.624 202.592 351.624 203.084 351.624C205.064 351.624 205.448 350.976 205.688 348.756C205.412 348.708 205.016 348.552 204.764 348.384C204.608 350.328 204.404 350.736 203.084 350.736C202.28 350.736 199.148 350.736 198.512 350.736C197.192 350.736 196.928 350.556 196.928 349.8V343.752H196.004ZM196.508 345.72V346.62H203.588V345.72H196.508ZM195.38 341.676V342.564H203.228V347.208H204.152V341.676H195.38ZM209.792 346.176V346.932H214.676V346.176H209.792ZM208.256 341.988V342.732H211.976V341.988H208.256ZM212.852 341.988V342.732H217.52V341.988H212.852ZM208.484 340.872C208.1 342.06 207.452 343.236 206.696 344.016C206.912 344.124 207.284 344.364 207.44 344.508C208.16 343.656 208.88 342.372 209.324 341.088L208.484 340.872ZM213.152 340.872C212.828 341.736 212.288 342.588 211.64 343.164C211.856 343.284 212.216 343.512 212.384 343.656C213.008 343.032 213.632 342.06 213.992 341.076L213.152 340.872ZM209.072 342.576C209.384 343.116 209.72 343.848 209.852 344.304L210.656 344.064C210.524 343.608 210.176 342.9 209.852 342.372L209.072 342.576ZM214.112 342.552C214.544 343.092 215 343.848 215.192 344.316L216.032 344.1C215.84 343.608 215.36 342.888 214.904 342.36L214.112 342.552ZM212.648 343.872L212 344.196C213.224 345.432 215.408 346.632 217.244 347.172C217.376 346.944 217.628 346.608 217.832 346.428C215.984 345.972 213.776 344.916 212.648 343.872ZM212.288 343.32C211.076 344.76 208.784 345.948 206.684 346.572C206.888 346.752 207.092 347.064 207.224 347.28C209.384 346.56 211.652 345.264 213.02 343.68L212.288 343.32ZM207.02 350.844V351.648H217.472V350.844H207.02ZM215.36 347.448C214.82 348.696 214.04 350.136 213.296 351.072C213.512 351.168 213.872 351.384 214.052 351.516C214.748 350.532 215.576 349.008 216.176 347.676L215.36 347.448ZM211.34 347.652C211.772 348.432 212.24 349.464 212.408 350.1L213.164 349.788C212.984 349.164 212.504 348.144 212.06 347.388L211.34 347.652ZM208.364 347.988C208.892 348.72 209.456 349.704 209.684 350.328L210.44 349.944C210.2 349.332 209.612 348.384 209.096 347.664L208.364 347.988ZM226.064 342.06H228.092V343.224H226.064V342.06ZM223.232 342.06H225.224V343.224H223.232V342.06ZM220.484 342.06H222.404V343.224H220.484V342.06ZM219.62 341.4V343.884H228.98V341.4H219.62ZM218.936 346.356V347.1H229.616V346.356H218.936ZM220.136 344.724V345.444H227.048V344.724H220.136ZM221.912 349.38V350.004H227.996V349.38H221.912ZM221.888 350.88V351.564H227.984V350.88H221.888ZM228.272 344.292C226.124 346.44 222.332 347.94 218.672 348.732C218.816 348.912 219.044 349.308 219.128 349.5C222.788 348.6 226.64 347.064 228.992 344.748L228.272 344.292ZM223.46 343.884V346.704H224.336V343.884H223.46ZM222.296 347.916H221.972L221.456 348.432V351.948H222.296V348.588H228.068V347.916H222.296ZM227.636 347.916V351.924H228.5V347.916H227.636ZM233.24 344.844V345.684H239.3V344.844H233.24ZM233.024 350.424V351.276H239.456V350.424H233.024ZM232.616 347.124V351.936H233.516V347.94H239.12V351.9H240.068V347.124H232.616ZM236.456 340.896C235.232 342.756 233.024 344.352 230.732 345.252C230.984 345.468 231.236 345.804 231.392 346.044C233.708 345.024 235.916 343.296 237.248 341.292L236.456 340.896ZM236.636 341.592L235.868 341.988C237.464 343.812 239.204 344.952 241.256 345.936C241.388 345.66 241.652 345.324 241.88 345.12C239.864 344.268 238.1 343.212 236.636 341.592ZM245.228 343.656V344.448H251.336V343.656H245.228ZM245.84 345.708V350.4H246.68V345.708H245.84ZM246.296 345.708V346.464H249.848V348.744H246.296V349.524H250.688V345.708H246.296ZM243.308 341.544V351.984H244.184V342.408H252.896V341.544H243.308ZM252.344 341.544V350.82C252.344 351.024 252.272 351.096 252.056 351.108C251.852 351.12 251.144 351.12 250.388 351.096C250.532 351.336 250.676 351.732 250.712 351.972C251.756 351.984 252.356 351.96 252.716 351.804C253.088 351.66 253.232 351.384 253.232 350.82V341.544H252.344ZM257.132 353.364L257.804 353.052C256.772 351.348 256.268 349.32 256.268 347.28C256.268 345.24 256.772 343.212 257.804 341.508L257.132 341.184C256.016 342.984 255.356 344.928 255.356 347.28C255.356 349.644 256.016 351.564 257.132 353.364ZM260.682 351H261.822C261.966 347.568 262.338 345.516 264.402 342.864V342.204H258.906V343.14H263.166C261.438 345.54 260.838 347.676 260.682 351ZM268.31 351.168C269.966 351.168 271.034 349.644 271.034 346.572C271.034 343.524 269.966 342.048 268.31 342.048C266.63 342.048 265.562 343.524 265.562 346.572C265.562 349.644 266.63 351.168 268.31 351.168ZM268.31 350.28C267.302 350.28 266.618 349.164 266.618 346.572C266.618 344.016 267.302 342.924 268.31 342.924C269.306 342.924 269.978 344.016 269.978 346.572C269.978 349.164 269.306 350.28 268.31 350.28ZM274.091 347.592C275.303 347.592 276.095 346.584 276.095 344.808C276.095 343.044 275.303 342.048 274.091 342.048C272.879 342.048 272.087 343.044 272.087 344.808C272.087 346.584 272.879 347.592 274.091 347.592ZM274.091 346.92C273.395 346.92 272.915 346.2 272.915 344.808C272.915 343.404 273.395 342.72 274.091 342.72C274.787 342.72 275.255 343.404 275.255 344.808C275.255 346.2 274.787 346.92 274.091 346.92ZM274.343 351.168H275.087L279.935 342.048H279.191L274.343 351.168ZM280.223 351.168C281.411 351.168 282.215 350.16 282.215 348.372C282.215 346.62 281.411 345.612 280.223 345.612C279.011 345.612 278.219 346.62 278.219 348.372C278.219 350.16 279.011 351.168 280.223 351.168ZM280.223 350.496C279.527 350.496 279.047 349.776 279.047 348.372C279.047 346.968 279.527 346.296 280.223 346.296C280.907 346.296 281.387 346.968 281.387 348.372C281.387 349.776 280.907 350.496 280.223 350.496ZM283.87 353.364C284.974 351.564 285.634 349.644 285.634 347.28C285.634 344.928 284.974 342.984 283.87 341.184L283.186 341.508C284.218 343.212 284.722 345.24 284.722 347.28C284.722 349.32 284.218 351.348 283.186 353.052L283.87 353.364Z" fill="#8F95B2"/>
<rect x="399" y="220" width="12" height="7.66576" rx="3.83288" fill="url(#paint7_linear_140_3118)"/>
<path d="M352.294 344.844V345.684H358.354V344.844H352.294ZM352.078 350.424V351.276H358.51V350.424H352.078ZM351.67 347.124V351.936H352.57V347.94H358.174V351.9H359.122V347.124H351.67ZM355.51 340.896C354.286 342.756 352.078 344.352 349.786 345.252C350.038 345.468 350.29 345.804 350.446 346.044C352.762 345.024 354.97 343.296 356.302 341.292L355.51 340.896ZM355.69 341.592L354.922 341.988C356.518 343.812 358.258 344.952 360.31 345.936C360.442 345.66 360.706 345.324 360.934 345.12C358.918 344.268 357.154 343.212 355.69 341.592ZM364.282 343.656V344.448H370.39V343.656H364.282ZM364.894 345.708V350.4H365.734V345.708H364.894ZM365.35 345.708V346.464H368.902V348.744H365.35V349.524H369.742V345.708H365.35ZM362.362 341.544V351.984H363.238V342.408H371.95V341.544H362.362ZM371.398 341.544V350.82C371.398 351.024 371.326 351.096 371.11 351.108C370.906 351.12 370.198 351.12 369.442 351.096C369.586 351.336 369.73 351.732 369.766 351.972C370.81 351.984 371.41 351.96 371.77 351.804C372.142 351.66 372.286 351.384 372.286 350.82V341.544H371.398ZM373.666 347.46L373.834 348.324C374.926 347.976 376.354 347.52 377.71 347.076L377.59 346.26C376.138 346.728 374.65 347.196 373.666 347.46ZM373.81 343.344V344.184H377.59V343.344H373.81ZM375.334 340.932V350.808C375.334 350.988 375.262 351.036 375.118 351.036C374.974 351.048 374.482 351.048 373.954 351.024C374.074 351.288 374.194 351.684 374.23 351.924C375.01 351.924 375.502 351.888 375.802 351.744C376.114 351.6 376.222 351.336 376.222 350.82V340.932H375.334ZM379.402 342.072H382.75V343.62H379.402V342.072ZM378.514 341.388V344.304H383.662V341.388H378.514ZM380.662 346.764V347.952C380.662 348.9 380.386 350.256 377.134 351.144C377.338 351.336 377.578 351.684 377.686 351.9C381.094 350.82 381.538 349.224 381.538 347.964V346.764H380.662ZM381.538 350.124C382.462 350.7 383.698 351.516 384.322 352.008L384.886 351.348C384.25 350.868 382.99 350.088 382.078 349.548L381.538 350.124ZM378.19 345.192V349.548H379.042V345.936H383.17V349.512H384.046V345.192H378.19ZM385.954 346.32V347.232H396.682V346.32H385.954ZM388.15 341.088C387.706 342.732 386.962 344.328 386.026 345.348C386.254 345.456 386.698 345.684 386.89 345.828C387.79 344.736 388.582 343.056 389.086 341.292L388.15 341.088ZM388.03 343.032L387.598 343.932H395.674V343.032H388.03ZM391.846 346.512L391.018 346.716C391.87 349.476 393.538 351.228 396.358 351.972C396.502 351.72 396.766 351.336 396.97 351.144C394.246 350.544 392.578 348.924 391.846 346.512ZM390.79 340.92V344.652C390.79 347.1 390.298 349.68 385.81 351.204C386.002 351.384 386.278 351.756 386.374 351.984C391.162 350.328 391.726 347.424 391.726 344.664V340.92H390.79ZM405.658 346.44C405.658 348.792 406.606 350.688 408.046 352.152L408.766 351.78C407.374 350.352 406.522 348.588 406.522 346.44C406.522 344.304 407.374 342.54 408.766 341.112L408.046 340.74C406.606 342.204 405.658 344.1 405.658 346.44ZM409.846 351H415.366V350.064H412.93C412.486 350.064 411.958 350.1 411.49 350.148C413.566 348.192 414.946 346.404 414.946 344.64C414.946 343.068 413.962 342.048 412.39 342.048C411.274 342.048 410.506 342.564 409.786 343.344L410.422 343.956C410.914 343.38 411.538 342.936 412.258 342.936C413.35 342.936 413.866 343.68 413.866 344.688C413.866 346.188 412.606 347.952 409.846 350.364V351ZM419.31 351.168C420.966 351.168 422.034 349.644 422.034 346.572C422.034 343.524 420.966 342.048 419.31 342.048C417.63 342.048 416.562 343.524 416.562 346.572C416.562 349.644 417.63 351.168 419.31 351.168ZM419.31 350.28C418.302 350.28 417.618 349.164 417.618 346.572C417.618 344.016 418.302 342.924 419.31 342.924C420.306 342.924 420.978 344.016 420.978 346.572C420.978 349.164 420.306 350.28 419.31 350.28ZM425.091 347.592C426.303 347.592 427.095 346.584 427.095 344.808C427.095 343.044 426.303 342.048 425.091 342.048C423.879 342.048 423.087 343.044 423.087 344.808C423.087 346.584 423.879 347.592 425.091 347.592ZM425.091 346.92C424.395 346.92 423.915 346.2 423.915 344.808C423.915 343.404 424.395 342.72 425.091 342.72C425.787 342.72 426.255 343.404 426.255 344.808C426.255 346.2 425.787 346.92 425.091 346.92ZM425.343 351.168H426.087L430.935 342.048H430.191L425.343 351.168ZM431.223 351.168C432.411 351.168 433.215 350.16 433.215 348.372C433.215 346.62 432.411 345.612 431.223 345.612C430.011 345.612 429.219 346.62 429.219 348.372C429.219 350.16 430.011 351.168 431.223 351.168ZM431.223 350.496C430.527 350.496 430.047 349.776 430.047 348.372C430.047 346.968 430.527 346.296 431.223 346.296C431.907 346.296 432.387 346.968 432.387 348.372C432.387 349.776 431.907 350.496 431.223 350.496ZM437.329 346.44C437.329 344.1 436.381 342.204 434.941 340.74L434.221 341.112C435.613 342.54 436.465 344.304 436.465 346.44C436.465 348.588 435.613 350.352 434.221 351.78L434.941 352.152C436.381 350.688 437.329 348.792 437.329 346.44Z" fill="#8F95B2"/>
</g>
<defs>
<filter id="filter0_d_140_3118" x="0" y="0" width="552" height="377.364" filterUnits="userSpaceOnUse" color-interpolation-filters="sRGB">
<feFlood flood-opacity="0" result="BackgroundImageFix"/>
<feColorMatrix in="SourceAlpha" type="matrix" values="0 0 0 0 0 0 0 0 0 0 0 0 0 0 0 0 0 0 127 0" result="hardAlpha"/>
<feOffset dy="8"/>
<feGaussianBlur stdDeviation="8"/>
<feComposite in2="hardAlpha" operator="out"/>
<feColorMatrix type="matrix" values="0 0 0 0 0.560784 0 0 0 0 0.584314 0 0 0 0 0.698039 0 0 0 0.15 0"/>
<feBlend mode="normal" in2="BackgroundImageFix" result="effect1_dropShadow_140_3118"/>
<feBlend mode="normal" in="SourceGraphic" in2="effect1_dropShadow_140_3118" result="shape"/>
</filter>
<linearGradient id="paint0_linear_140_3118" x1="155.053" y1="111.53" x2="113.039" y2="107.531" gradientUnits="userSpaceOnUse">
<stop stop-color="#0049C6"/>
<stop offset="1" stop-color="#CDF4FF"/>
</linearGradient>
<linearGradient id="paint1_linear_140_3118" x1="237.163" y1="77" x2="283.354" y2="87.7712" gradientUnits="userSpaceOnUse">
<stop stop-color="#FFB7F5"/>
<stop offset="1" stop-color="#6C5DD3"/>
</linearGradient>
<linearGradient id="paint2_linear_140_3118" x1="366.175" y1="89" x2="366.175" y2="181.103" gradientUnits="userSpaceOnUse">
<stop stop-color="#B6FAFF"/>
<stop offset="1" stop-color="#0A979D"/>
</linearGradient>
<linearGradient id="paint3_linear_140_3118" x1="484.175" y1="224.958" x2="384.806" y2="159.555" gradientUnits="userSpaceOnUse">
<stop stop-color="#FFE3F3"/>
<stop offset="1" stop-color="#B0299D"/>
</linearGradient>
<linearGradient id="paint4_linear_140_3118" x1="57.1618" y1="219.323" x2="39.0154" y2="212.265" gradientUnits="userSpaceOnUse">
<stop stop-color="#0049C6"/>
<stop offset="1" stop-color="#CDF4FF"/>
</linearGradient>
<linearGradient id="paint5_linear_140_3118" x1="157" y1="220.086" x2="163.955" y2="230.975" gradientUnits="userSpaceOnUse">
<stop stop-color="#FFB7F5"/>
<stop offset="1" stop-color="#6C5DD3"/>
</linearGradient>
<linearGradient id="paint6_linear_140_3118" x1="282" y1="220" x2="288.955" y2="230.888" gradientUnits="userSpaceOnUse">
<stop stop-color="#B7F8FF"/>
<stop offset="1" stop-color="#0F9094"/>
</linearGradient>
<linearGradient id="paint7_linear_140_3118" x1="405" y1="232.342" x2="398.282" y2="211.694" gradientUnits="userSpaceOnUse">
<stop stop-color="#FFF7FA"/>
<stop offset="1" stop-color="#FFB7F5"/>
</linearGradient>
</defs>
</svg>
