<svg width="120" height="31" viewBox="0 0 120 31" fill="none" xmlns="http://www.w3.org/2000/svg">
<path d="M0.321089 30.2534V26.8429C3.02277 24.4355 5.3232 22.2019 7.2224 20.1422C9.14835 18.0825 10.6196 16.1699 11.636 14.4045C12.6525 12.6123 13.1607 10.9538 13.1607 9.42912C13.1607 8.46615 12.9869 7.62355 12.6391 6.90132C12.2914 6.17909 11.7832 5.63073 11.1144 5.25624C10.4724 4.855 9.66996 4.65438 8.70699 4.65438C7.63702 4.65438 6.64729 4.96199 5.73782 5.57723C4.85509 6.16571 4.03924 6.87457 3.29026 7.70379L9.79648e-05 4.53401C1.39106 3.03605 2.80877 1.91258 4.25323 1.1636C5.72444 0.387868 7.46315 3.3482e-06 9.46934 3.3482e-06C11.3418 3.3482e-06 12.9735 0.387868 14.3645 1.1636C15.7822 1.91258 16.8789 2.96917 17.6546 4.33339C18.4304 5.6976 18.8182 7.30256 18.8182 9.14826C18.8182 10.9405 18.3635 12.7728 17.454 14.6452C16.5713 16.4909 15.3809 18.3366 13.883 20.1823C12.385 22.028 10.7266 23.847 8.90761 25.6392C9.68334 25.5322 10.5126 25.4519 11.3953 25.3984C12.3048 25.3182 13.1072 25.2781 13.8027 25.2781H20.2226V30.2534H0.321089ZM34.0992 30.8152C32.093 30.8152 30.3275 30.2401 28.8028 29.0898C27.3048 27.9129 26.1279 26.1742 25.2719 23.8737C24.4427 21.5465 24.0281 18.671 24.0281 15.2471C24.0281 11.8499 24.4427 9.02788 25.2719 6.78094C26.1279 4.50726 27.3048 2.80868 28.8028 1.68521C30.3275 0.561738 32.093 3.3482e-06 34.0992 3.3482e-06C36.1321 3.3482e-06 37.8976 0.575113 39.3955 1.72533C40.8935 2.8488 42.0571 4.53401 42.8863 6.78094C43.7423 9.02788 44.1703 11.8499 44.1703 15.2471C44.1703 18.671 43.7423 21.5465 42.8863 23.8737C42.0571 26.1742 40.8935 27.9129 39.3955 29.0898C37.8976 30.2401 36.1321 30.8152 34.0992 30.8152ZM34.0992 26.2009C34.9819 26.2009 35.7576 25.8666 36.4263 25.1978C37.0951 24.5291 37.6167 23.4056 37.9912 21.8274C38.3657 20.2225 38.5529 18.029 38.5529 15.2471C38.5529 12.4919 38.3657 10.3386 37.9912 8.78714C37.6167 7.20893 37.0951 6.11221 36.4263 5.49698C35.7576 4.855 34.9819 4.53401 34.0992 4.53401C33.2699 4.53401 32.5076 4.855 31.8121 5.49698C31.1434 6.11221 30.6084 7.20893 30.2071 8.78714C29.8059 10.3386 29.6053 12.4919 29.6053 15.2471C29.6053 18.029 29.8059 20.2225 30.2071 21.8274C30.6084 23.4056 31.1434 24.5291 31.8121 25.1978C32.5076 25.8666 33.2699 26.2009 34.0992 26.2009ZM52.4696 30.8152C51.3997 30.8152 50.5169 30.4407 49.8215 29.6917C49.126 28.9427 48.7782 28.0332 48.7782 26.9633C48.7782 25.8398 49.126 24.917 49.8215 24.1947C50.5169 23.4725 51.3997 23.1114 52.4696 23.1114C53.5129 23.1114 54.3822 23.4725 55.0777 24.1947C55.7732 24.917 56.1209 25.8398 56.1209 26.9633C56.1209 28.0332 55.7732 28.9427 55.0777 29.6917C54.3822 30.4407 53.5129 30.8152 52.4696 30.8152ZM71.6567 30.8152C70.2658 30.8152 68.9149 30.5209 67.6042 29.9324C66.3202 29.344 65.1834 28.4479 64.1937 27.2441C63.2039 26.0137 62.4148 24.4622 61.8264 22.5898C61.2646 20.6906 60.9838 18.4303 60.9838 15.8088C60.9838 13.0537 61.2914 10.673 61.9066 8.66677C62.5486 6.66057 63.4046 5.02887 64.4745 3.77165C65.5445 2.48769 66.7616 1.53809 68.1258 0.922854C69.5168 0.30762 70.9746 3.3482e-06 72.4993 3.3482e-06C74.3183 3.3482e-06 75.8831 0.334369 77.1938 1.0031C78.5313 1.64508 79.6414 2.43419 80.5241 3.37041L77.3944 6.90132C76.8862 6.31283 76.2175 5.8046 75.3882 5.37661C74.559 4.94862 73.7164 4.73462 72.8604 4.73462C71.6567 4.73462 70.56 5.08237 69.5703 5.77785C68.6073 6.47333 67.8316 7.62355 67.2431 9.2285C66.6546 10.8335 66.3604 13.0269 66.3604 15.8088C66.3604 18.3768 66.5877 20.4365 67.0425 21.9879C67.524 23.5126 68.1526 24.6227 68.9283 25.3182C69.704 26.0137 70.5734 26.3614 71.5363 26.3614C72.2853 26.3614 72.9541 26.1608 73.5425 25.7596C74.1578 25.3316 74.6526 24.7163 75.0271 23.9139C75.4016 23.0846 75.5889 22.0682 75.5889 20.8644C75.5889 19.6875 75.4016 18.7245 75.0271 17.9755C74.6794 17.2265 74.1845 16.6648 73.5425 16.2903C72.9273 15.9158 72.1917 15.7286 71.3357 15.7286C70.5332 15.7286 69.6906 15.9827 68.8079 16.4909C67.9252 16.9724 67.1093 17.8284 66.3604 19.0589L66.0795 15.0866C66.6145 14.3376 67.2431 13.6956 67.9653 13.1606C68.7143 12.6257 69.4766 12.2244 70.2524 11.9569C71.0549 11.6894 71.7771 11.5557 72.4191 11.5557C74.0775 11.5557 75.5487 11.8901 76.8327 12.5588C78.1434 13.2275 79.1599 14.244 79.8821 15.6082C80.6043 16.9724 80.9655 18.7245 80.9655 20.8644C80.9655 22.8974 80.5375 24.6628 79.6815 26.1608C78.8523 27.632 77.7288 28.7822 76.3111 29.6115C74.8934 30.4139 73.3419 30.8152 71.6567 30.8152ZM91.1507 18.8181C89.7597 18.8181 88.5159 18.4436 87.4191 17.6947C86.3224 16.9457 85.4664 15.8623 84.8512 14.4446C84.236 13.0269 83.9284 11.3283 83.9284 9.34888C83.9284 7.36943 84.236 5.68422 84.8512 4.29326C85.4664 2.9023 86.3224 1.8457 87.4191 1.12347C88.5159 0.374493 89.7597 3.3482e-06 91.1507 3.3482e-06C92.5951 3.3482e-06 93.8523 0.374493 94.9223 1.12347C96.019 1.8457 96.875 2.9023 97.4902 4.29326C98.1055 5.68422 98.4131 7.36943 98.4131 9.34888C98.4131 11.3283 98.1055 13.0269 97.4902 14.4446C96.875 15.8623 96.019 16.9457 94.9223 17.6947C93.8523 18.4436 92.5951 18.8181 91.1507 18.8181ZM91.1507 15.4878C92.0066 15.4878 92.7289 15.0197 93.3174 14.0835C93.9326 13.1205 94.2402 11.5423 94.2402 9.34888C94.2402 7.18218 93.9326 5.6441 93.3174 4.73462C92.7289 3.7984 92.0066 3.33029 91.1507 3.33029C90.2947 3.33029 89.5591 3.7984 88.9439 4.73462C88.3554 5.6441 88.0611 7.18218 88.0611 9.34888C88.0611 11.5423 88.3554 13.1205 88.9439 14.0835C89.5591 15.0197 90.2947 15.4878 91.1507 15.4878ZM92.1136 30.8152L108.284 3.3482e-06H111.774L95.6445 30.8152H92.1136ZM112.777 30.8152C111.36 30.8152 110.103 30.4407 109.006 29.6917C107.936 28.9427 107.08 27.8594 106.438 26.4417C105.823 25.024 105.515 23.3254 105.515 21.3459C105.515 19.3397 105.823 17.6412 106.438 16.2502C107.08 14.8592 107.936 13.8026 109.006 13.0804C110.103 12.3314 111.36 11.9569 112.777 11.9569C114.168 11.9569 115.399 12.3314 116.469 13.0804C117.566 13.8026 118.422 14.8592 119.037 16.2502C119.679 17.6412 120 19.3397 120 21.3459C120 23.3254 119.679 25.024 119.037 26.4417C118.422 27.8594 117.566 28.9427 116.469 29.6917C115.399 30.4407 114.168 30.8152 112.777 30.8152ZM112.777 27.4448C113.633 27.4448 114.356 26.9767 114.944 26.0404C115.533 25.0775 115.827 23.5126 115.827 21.3459C115.827 19.1257 115.533 17.5743 114.944 16.6916C114.356 15.7821 113.633 15.3273 112.777 15.3273C111.895 15.3273 111.159 15.7821 110.571 16.6916C109.982 17.5743 109.688 19.1257 109.688 21.3459C109.688 23.5126 109.982 25.0775 110.571 26.0404C111.159 26.9767 111.895 27.4448 112.777 27.4448Z" fill="#081735"/>
</svg>
