<svg width="130" height="33" viewBox="0 0 130 33" fill="none" xmlns="http://www.w3.org/2000/svg">
<path d="M5.46934 32.0921C5.60339 29.5988 5.83128 27.3065 6.153 25.2153C6.50154 23.0972 6.97072 21.0999 7.56055 19.2231C8.17719 17.3464 8.9547 15.4965 9.89306 13.6734C10.8314 11.8502 11.9977 9.97351 13.3918 8.04315H2.99629e-08V3.09662H19.7861V6.71603C18.0971 8.78044 16.7297 10.7376 15.6841 12.5875C14.6385 14.4374 13.8342 16.3276 13.2712 18.2579C12.7082 20.1883 12.2926 22.2795 12.0245 24.5316C11.7564 26.7569 11.5553 29.277 11.4213 32.0921H5.46934ZM35.2629 32.0921V14.5983C35.2629 13.7136 35.2897 12.668 35.3433 11.4615C35.3969 10.255 35.4506 9.20941 35.5042 8.32466H35.3031C34.9546 9.10217 34.5792 9.87967 34.1771 10.6572C33.7749 11.4347 33.3593 12.2256 32.9304 13.0299L28.3056 20.3492H44.3114V24.8935H22.5547V20.8317L33.6543 3.09662H40.7724V32.0921H35.2629ZM56.5709 32.6552C54.9891 32.6552 53.5816 32.4675 52.3483 32.0921C51.115 31.7168 50.0158 31.2208 49.0506 30.6042C48.0854 29.9875 47.2275 29.3173 46.4768 28.5934L49.2114 24.8131C49.7745 25.3761 50.3777 25.8855 51.0212 26.3413C51.6914 26.7971 52.4153 27.159 53.1928 27.4271C53.9971 27.6952 54.8551 27.8293 55.7666 27.8293C56.7854 27.8293 57.6836 27.6282 58.4611 27.226C59.2654 26.8239 59.8954 26.2475 60.3512 25.4968C60.807 24.7461 61.0349 23.8345 61.0349 22.7621C61.0349 21.1535 60.5657 19.9202 59.6273 19.0623C58.7158 18.1775 57.5093 17.7351 56.0079 17.7351C55.15 17.7351 54.4127 17.8558 53.796 18.0971C53.1794 18.3384 52.4287 18.7405 51.544 19.3035L48.8495 17.5341L49.6538 3.09662H65.5792V8.04315H54.7612L54.1982 14.357C54.788 14.0889 55.3645 13.8878 55.9275 13.7538C56.4905 13.6197 57.1071 13.5527 57.7774 13.5527C59.4396 13.5527 60.9678 13.8744 62.362 14.5179C63.7561 15.1613 64.8688 16.1533 65.6999 17.4938C66.531 18.8344 66.9466 20.5368 66.9466 22.6012C66.9466 24.7193 66.4506 26.529 65.4586 28.0304C64.4934 29.5317 63.2199 30.6846 61.6381 31.4889C60.0831 32.2664 58.394 32.6552 56.5709 32.6552ZM75.7073 32.6552C74.6349 32.6552 73.7501 32.2798 73.0531 31.5291C72.356 30.7784 72.0075 29.8669 72.0075 28.7945C72.0075 27.6684 72.356 26.7435 73.0531 26.0196C73.7501 25.2957 74.6349 24.9337 75.7073 24.9337C76.7529 24.9337 77.6243 25.2957 78.3213 26.0196C79.0184 26.7435 79.3669 27.6684 79.3669 28.7945C79.3669 29.8669 79.0184 30.7784 78.3213 31.5291C77.6243 32.2798 76.7529 32.6552 75.7073 32.6552ZM85.5278 32.0921V27.2663H91.9623V9.28984H86.5332V5.58999C88.0346 5.29508 89.3215 4.94654 90.3939 4.54439C91.4931 4.14223 92.5119 3.65964 93.4503 3.09662H97.8338V27.2663H103.424V32.0921H85.5278ZM109.128 32.0921V1.19852e-05H114.959V19.2231H115.12L122.801 9.57135H129.276L121.555 18.8612L130 32.0921H123.566L118.096 22.7219L114.959 26.3815V32.0921H109.128Z" fill="#081735"/>
</svg>
