<svg width="120" height="31" viewBox="0 0 120 31" fill="none" xmlns="http://www.w3.org/2000/svg">
<path d="M10.7268 30.9705C9.3288 30.9705 7.97115 30.6748 6.65382 30.0834C5.36339 29.4919 4.22081 28.5913 3.2261 27.3815C2.23138 26.1448 1.4383 24.5855 0.84685 22.7037C0.282283 20.7949 3.00454e-08 18.5232 3.00454e-08 15.8885C3.00454e-08 13.1195 0.309168 10.7268 0.927503 8.71046C1.57272 6.69415 2.43301 5.05422 3.50838 3.79067C4.58375 2.50023 5.80697 1.54584 7.17807 0.927506C8.57604 0.309171 10.0412 3.36508e-06 11.5736 3.36508e-06C13.4017 3.36508e-06 14.9745 0.336055 16.2918 1.00816C17.636 1.65338 18.7517 2.44646 19.6389 3.3874L16.4934 6.93611C15.9826 6.34466 15.3105 5.83386 14.4771 5.40372C13.6437 4.97357 12.7969 4.75849 11.9366 4.75849C10.7268 4.75849 9.62452 5.10799 8.62981 5.80698C7.66198 6.50596 6.88234 7.66198 6.29089 9.27503C5.69944 10.8881 5.40371 13.0926 5.40371 15.8885C5.40371 18.4694 5.63223 20.5395 6.08926 22.0988C6.57317 23.6312 7.20495 24.7469 7.98459 25.4458C8.76423 26.1448 9.63796 26.4943 10.6058 26.4943C11.3585 26.4943 12.0307 26.2927 12.6221 25.8894C13.2404 25.4593 13.7378 24.8409 14.1142 24.0344C14.4906 23.201 14.6787 22.1794 14.6787 20.9696C14.6787 19.7867 14.4906 18.8189 14.1142 18.0661C13.7647 17.3134 13.2673 16.7488 12.6221 16.3724C12.0038 15.9961 11.2645 15.8079 10.4042 15.8079C9.59764 15.8079 8.75079 16.0633 7.86361 16.5741C6.97643 17.058 6.15647 17.9183 5.40371 19.155L5.12143 15.1627C5.65911 14.4099 6.29089 13.7647 7.01676 13.227C7.76952 12.6893 8.53571 12.2861 9.31535 12.0172C10.1219 11.7484 10.8478 11.614 11.493 11.614C13.1598 11.614 14.6384 11.95 15.9289 12.6221C17.2462 13.2942 18.2678 14.3158 18.9936 15.6869C19.7195 17.058 20.0825 18.8189 20.0825 20.9696C20.0825 23.0128 19.6523 24.7872 18.792 26.2927C17.9586 27.7713 16.8295 28.9273 15.4046 29.7607C13.9798 30.5673 12.4205 30.9705 10.7268 30.9705ZM33.6661 30.9705C31.6498 30.9705 29.8754 30.3925 28.343 29.2365C26.8375 28.0536 25.6546 26.3061 24.7943 23.9941C23.9609 21.6552 23.5442 18.7651 23.5442 15.324C23.5442 11.9097 23.9609 9.0734 24.7943 6.81513C25.6546 4.52998 26.8375 2.82284 28.343 1.6937C29.8754 0.56457 31.6498 3.36508e-06 33.6661 3.36508e-06C35.7093 3.36508e-06 37.4836 0.578012 38.9891 1.73403C40.4947 2.86316 41.6641 4.55686 42.4975 6.81513C43.3578 9.0734 43.788 11.9097 43.788 15.324C43.788 18.7651 43.3578 21.6552 42.4975 23.9941C41.6641 26.3061 40.4947 28.0536 38.9891 29.2365C37.4836 30.3925 35.7093 30.9705 33.6661 30.9705ZM33.6661 26.333C34.5533 26.333 35.3329 25.997 36.005 25.3249C36.6771 24.6528 37.2013 23.5236 37.5777 21.9375C37.9541 20.3244 38.1423 18.1199 38.1423 15.324C38.1423 12.5549 37.9541 10.3907 37.5777 8.83144C37.2013 7.24528 36.6771 6.14303 36.005 5.52469C35.3329 4.87947 34.5533 4.55686 33.6661 4.55686C32.8327 4.55686 32.0665 4.87947 31.3675 5.52469C30.6954 6.14303 30.1577 7.24528 29.7544 8.83144C29.3512 10.3907 29.1495 12.5549 29.1495 15.324C29.1495 18.1199 29.3512 20.3244 29.7544 21.9375C30.1577 23.5236 30.6954 24.6528 31.3675 25.3249C32.0665 25.997 32.8327 26.333 33.6661 26.333ZM52.1292 30.9705C51.0538 30.9705 50.1666 30.5942 49.4677 29.8414C48.7687 29.0886 48.4192 28.1746 48.4192 27.0992C48.4192 25.9701 48.7687 25.0426 49.4677 24.3167C50.1666 23.5908 51.0538 23.2279 52.1292 23.2279C53.1777 23.2279 54.0514 23.5908 54.7504 24.3167C55.4494 25.0426 55.7989 25.9701 55.7989 27.0992C55.7989 28.1746 55.4494 29.0886 54.7504 29.8414C54.0514 30.5942 53.1777 30.9705 52.1292 30.9705ZM60.4039 30.406V26.9782C63.1192 24.5587 65.4313 22.3138 67.34 20.2438C69.2757 18.1737 70.7543 16.2515 71.7759 14.4771C72.7975 12.6759 73.3083 11.0091 73.3083 9.47666C73.3083 8.50883 73.1336 7.66198 72.7841 6.93611C72.4346 6.21024 71.9238 5.65911 71.2517 5.28274C70.6065 4.87947 69.7999 4.67784 68.8321 4.67784C67.7567 4.67784 66.762 4.98701 65.848 5.60535C64.9608 6.1968 64.1408 6.90923 63.3881 7.74263L60.0813 4.55686C61.4793 3.05135 62.9042 1.92222 64.3559 1.16946C65.8345 0.389823 67.582 3.36508e-06 69.5983 3.36508e-06C71.4802 3.36508e-06 73.1201 0.389823 74.5181 1.16946C75.943 1.92222 77.0452 2.98414 77.8249 4.35523C78.6045 5.72632 78.9943 7.33937 78.9943 9.19438C78.9943 10.9956 78.5373 12.8372 77.6232 14.7191C76.736 16.5741 75.5397 18.4291 74.0342 20.2841C72.5287 22.1391 70.8619 23.9672 69.0337 25.7684C69.8134 25.6609 70.6468 25.5803 71.534 25.5265C72.448 25.4458 73.2545 25.4055 73.9535 25.4055H80.4057V30.406H60.4039ZM91.0052 18.913C89.6072 18.913 88.3571 18.5366 87.2549 17.7839C86.1526 17.0311 85.2923 15.9423 84.674 14.5174C84.0557 13.0926 83.7465 11.3854 83.7465 9.39601C83.7465 7.40658 84.0557 5.71288 84.674 4.31491C85.2923 2.91693 86.1526 1.85501 87.2549 1.12914C88.3571 0.376381 89.6072 3.36508e-06 91.0052 3.36508e-06C92.457 3.36508e-06 93.7205 0.376381 94.7959 1.12914C95.8981 1.85501 96.7584 2.91693 97.3768 4.31491C97.9951 5.71288 98.3043 7.40658 98.3043 9.39601C98.3043 11.3854 97.9951 13.0926 97.3768 14.5174C96.7584 15.9423 95.8981 17.0311 94.7959 17.7839C93.7205 18.5366 92.457 18.913 91.0052 18.913ZM91.0052 15.5659C91.8655 15.5659 92.5914 15.0954 93.1828 14.1545C93.8012 13.1867 94.1103 11.6005 94.1103 9.39601C94.1103 7.21839 93.8012 5.67255 93.1828 4.75849C92.5914 3.81755 91.8655 3.34708 91.0052 3.34708C90.1449 3.34708 89.4056 3.81755 88.7873 4.75849C88.1958 5.67255 87.9001 7.21839 87.9001 9.39601C87.9001 11.6005 88.1958 13.1867 88.7873 14.1545C89.4056 15.0954 90.1449 15.5659 91.0052 15.5659ZM91.9731 30.9705L108.225 3.36508e-06H111.733L95.5218 30.9705H91.9731ZM112.741 30.9705C111.316 30.9705 110.053 30.5942 108.95 29.8414C107.875 29.0886 107.015 27.9998 106.37 26.575C105.751 25.1501 105.442 23.443 105.442 21.4535C105.442 19.4372 105.751 17.7301 106.37 16.3321C107.015 14.9341 107.875 13.8722 108.95 13.1463C110.053 12.3936 111.316 12.0172 112.741 12.0172C114.139 12.0172 115.376 12.3936 116.451 13.1463C117.553 13.8722 118.414 14.9341 119.032 16.3321C119.677 17.7301 120 19.4372 120 21.4535C120 23.443 119.677 25.1501 119.032 26.575C118.414 27.9998 117.553 29.0886 116.451 29.8414C115.376 30.5942 114.139 30.9705 112.741 30.9705ZM112.741 27.5831C113.601 27.5831 114.327 27.1127 114.919 26.1717C115.51 25.2039 115.806 23.6312 115.806 21.4535C115.806 19.2222 115.51 17.6629 114.919 16.7757C114.327 15.8616 113.601 15.4046 112.741 15.4046C111.854 15.4046 111.115 15.8616 110.523 16.7757C109.932 17.6629 109.636 19.2222 109.636 21.4535C109.636 23.6312 109.932 25.2039 110.523 26.1717C111.115 27.1127 111.854 27.5831 112.741 27.5831Z" fill="#081735"/>
</svg>
