<svg width="29" height="26" viewBox="0 0 29 26" fill="none" xmlns="http://www.w3.org/2000/svg">
<path d="M24.5555 26C23.6167 26 22.7741 25.7294 22.0278 25.1882C21.2815 24.647 20.7639 23.9547 20.475 23.1111H13C11.4111 23.1111 10.0509 22.5454 8.91944 21.4139C7.78796 20.2824 7.22222 18.9222 7.22222 17.3333C7.22222 15.7444 7.78796 14.3843 8.91944 13.2528C10.0509 12.1213 11.4111 11.5556 13 11.5556H15.8889C16.6833 11.5556 17.3637 11.2729 17.9299 10.7077C18.4961 10.1424 18.7787 9.46207 18.7778 8.66666C18.7768 7.87126 18.4942 7.19141 17.9299 6.62711C17.3656 6.06281 16.6853 5.7797 15.8889 5.77778H8.41389C8.10092 6.62037 7.57707 7.31274 6.84233 7.85489C6.10759 8.39703 5.27126 8.66763 4.33333 8.66666C3.12963 8.66666 2.10648 8.24537 1.26389 7.40278C0.421296 6.56018 0 5.53704 0 4.33333C0 3.12963 0.421296 2.10648 1.26389 1.26389C2.10648 0.421296 3.12963 0 4.33333 0C5.27222 0 6.10903 0.271074 6.84378 0.813222C7.57852 1.35537 8.10189 2.04726 8.41389 2.88889H15.8889C17.4778 2.88889 18.838 3.45463 19.9694 4.58611C21.1009 5.71759 21.6667 7.07778 21.6667 8.66666C21.6667 10.2556 21.1009 11.6157 19.9694 12.7472C18.838 13.8787 17.4778 14.4444 15.8889 14.4444H13C12.2056 14.4444 11.5257 14.7276 10.9604 15.2938C10.3952 15.86 10.1121 16.5398 10.1111 17.3333C10.1101 18.1268 10.3933 18.8071 10.9604 19.3743C11.5276 19.9415 12.2075 20.2241 13 20.2222H20.475C20.788 19.3796 21.3118 18.6877 22.0465 18.1466C22.7813 17.6054 23.6176 17.3343 24.5555 17.3333C25.7592 17.3333 26.7824 17.7546 27.625 18.5972C28.4676 19.4398 28.8889 20.463 28.8889 21.6667C28.8889 22.8704 28.4676 23.8935 27.625 24.7361C26.7824 25.5787 25.7592 26 24.5555 26ZM4.33333 5.77778C4.74259 5.77778 5.08589 5.63911 5.36322 5.36178C5.64055 5.08444 5.77874 4.74163 5.77778 4.33333C5.77681 3.92504 5.63815 3.58222 5.36178 3.30489C5.08541 3.02755 4.74259 2.88889 4.33333 2.88889C3.92407 2.88889 3.58126 3.02755 3.30489 3.30489C3.02852 3.58222 2.88985 3.92504 2.88889 4.33333C2.88792 4.74163 3.02659 5.08492 3.30489 5.36322C3.58318 5.64152 3.926 5.7797 4.33333 5.77778Z" fill="#FFA2C0"/>
</svg>
