<svg width="120" height="31" viewBox="0 0 120 31" fill="none" xmlns="http://www.w3.org/2000/svg">
<path d="M9.99094 30.9393C8.08409 30.9393 6.37866 30.6036 4.87467 29.9322C3.37068 29.2607 2.17554 28.3207 1.28926 27.1122C0.429831 25.9036 0.000118109 24.5205 0.000118109 22.9628C0.000118109 21.6736 0.228403 20.5456 0.684973 19.5788C1.1684 18.5851 1.79954 17.7256 2.57839 17.0005C3.35725 16.2754 4.20324 15.6711 5.11638 15.1877V14.9862C3.98839 14.1805 3.04839 13.2002 2.29639 12.0454C1.5444 10.8637 1.1684 9.49396 1.1684 7.93626C1.1684 6.32483 1.55783 4.92827 2.33668 3.74656C3.11553 2.56485 4.17639 1.65171 5.51924 1.00714C6.88895 0.362573 8.43323 0.0402884 10.1521 0.0402884C11.9246 0.0402884 13.4555 0.376001 14.7446 1.04743C16.0338 1.69199 17.0275 2.60513 17.7258 3.78684C18.4509 4.96855 18.8135 6.36512 18.8135 7.97654C18.8135 8.94339 18.6255 9.85653 18.2495 10.716C17.9003 11.5754 17.4303 12.3542 16.8395 13.0525C16.2755 13.7239 15.6578 14.3014 14.9863 14.7848V14.9862C15.9263 15.4697 16.7723 16.0739 17.5243 16.7991C18.2763 17.5242 18.8806 18.3971 19.3372 19.4176C19.7938 20.4113 20.022 21.5931 20.022 22.9628C20.022 24.4668 19.5923 25.823 18.7329 27.0316C17.9003 28.2402 16.7321 29.1936 15.2281 29.8919C13.7241 30.5902 11.9784 30.9393 9.99094 30.9393ZM11.8441 13.3345C12.5692 12.5557 13.1064 11.75 13.4555 10.9174C13.8046 10.0848 13.9792 9.22539 13.9792 8.33911C13.9792 7.5334 13.8181 6.82169 13.4958 6.20398C13.2004 5.55941 12.7572 5.06255 12.1664 4.71341C11.5755 4.36427 10.8638 4.1897 10.0312 4.1897C9.01065 4.1897 8.15123 4.51198 7.45295 5.15655C6.75466 5.80112 6.40552 6.72769 6.40552 7.93626C6.40552 8.8494 6.63381 9.64168 7.09038 10.3131C7.5738 10.9577 8.2318 11.5217 9.06437 12.0051C9.89694 12.4617 10.8235 12.9048 11.8441 13.3345ZM10.1118 26.7496C10.9712 26.7496 11.7232 26.6019 12.3678 26.3065C13.0392 25.9842 13.5629 25.5276 13.9389 24.9368C14.3149 24.319 14.5029 23.5939 14.5029 22.7613C14.5029 21.9825 14.3283 21.3111 13.9792 20.7471C13.6569 20.1562 13.2004 19.6459 12.6095 19.2162C12.0186 18.7596 11.3204 18.3434 10.5146 17.9674C9.70894 17.5914 8.82265 17.1885 7.8558 16.7588C7.05009 17.4302 6.39209 18.2494 5.88181 19.2162C5.37153 20.1562 5.11638 21.1902 5.11638 22.3182C5.11638 23.2045 5.33124 23.9833 5.76095 24.6548C6.21752 25.2993 6.82181 25.8096 7.5738 26.1856C8.3258 26.5616 9.1718 26.7496 10.1118 26.7496ZM23.6012 30.3753V26.951C26.3137 24.5339 28.6234 22.2913 30.5303 20.2234C32.464 18.1554 33.9411 16.2351 34.9617 14.4625C35.9823 12.6631 36.4925 10.998 36.4925 9.46711C36.4925 8.50025 36.318 7.65426 35.9688 6.92912C35.6197 6.20398 35.1094 5.65341 34.438 5.27741C33.7934 4.87455 32.9877 4.67313 32.0208 4.67313C30.9466 4.67313 29.9528 4.98198 29.0397 5.5997C28.1534 6.19055 27.3343 6.90226 26.5823 7.73483L23.2789 4.55227C24.6754 3.04828 26.0989 1.92028 27.5491 1.16828C29.0263 0.38943 30.772 3.36169e-06 32.7863 3.36169e-06C34.6663 3.36169e-06 36.3045 0.38943 37.7011 1.16828C39.1245 1.92028 40.2257 2.98113 41.0045 4.35084C41.7834 5.72055 42.1728 7.33197 42.1728 9.18511C42.1728 10.9845 41.7162 12.8242 40.8031 14.7042C39.9168 16.5574 38.7217 18.4105 37.2177 20.2636C35.7137 22.1168 34.0485 23.9431 32.2223 25.7425C33.0011 25.635 33.8337 25.5545 34.72 25.5008C35.6331 25.4202 36.4388 25.3799 37.1371 25.3799H43.5828V30.3753H23.6012ZM52.1976 30.9393C51.1233 30.9393 50.237 30.5633 49.5388 29.8113C48.8405 29.0593 48.4913 28.1462 48.4913 27.0719C48.4913 25.9439 48.8405 25.0173 49.5388 24.2922C50.237 23.5671 51.1233 23.2045 52.1976 23.2045C53.245 23.2045 54.1179 23.5671 54.8162 24.2922C55.5144 25.0173 55.8636 25.9439 55.8636 27.0719C55.8636 28.1462 55.5144 29.0593 54.8162 29.8113C54.1179 30.5633 53.245 30.9393 52.1976 30.9393ZM70.616 30.9393C68.7091 30.9393 67.0037 30.6036 65.4997 29.9322C63.9957 29.2607 62.8006 28.3207 61.9143 27.1122C61.0549 25.9036 60.6252 24.5205 60.6252 22.9628C60.6252 21.6736 60.8534 20.5456 61.31 19.5788C61.7934 18.5851 62.4246 17.7256 63.2034 17.0005C63.9823 16.2754 64.8283 15.6711 65.7414 15.1877V14.9862C64.6134 14.1805 63.6734 13.2002 62.9214 12.0454C62.1694 10.8637 61.7934 9.49396 61.7934 7.93626C61.7934 6.32483 62.1829 4.92827 62.9617 3.74656C63.7406 2.56485 64.8014 1.65171 66.1443 1.00714C67.514 0.362573 69.0583 0.0402884 70.7771 0.0402884C72.5497 0.0402884 74.0805 0.376001 75.3697 1.04743C76.6588 1.69199 77.6525 2.60513 78.3508 3.78684C79.0759 4.96855 79.4385 6.36512 79.4385 7.97654C79.4385 8.94339 79.2505 9.85653 78.8745 10.716C78.5254 11.5754 78.0554 12.3542 77.4645 13.0525C76.9005 13.7239 76.2828 14.3014 75.6114 14.7848V14.9862C76.5514 15.4697 77.3974 16.0739 78.1494 16.7991C78.9014 17.5242 79.5057 18.3971 79.9622 19.4176C80.4188 20.4113 80.6471 21.5931 80.6471 22.9628C80.6471 24.4668 80.2174 25.823 79.3579 27.0316C78.5254 28.2402 77.3571 29.1936 75.8531 29.8919C74.3491 30.5902 72.6034 30.9393 70.616 30.9393ZM72.4691 13.3345C73.1942 12.5557 73.7314 11.75 74.0805 10.9174C74.4297 10.0848 74.6042 9.22539 74.6042 8.33911C74.6042 7.5334 74.4431 6.82169 74.1208 6.20398C73.8254 5.55941 73.3822 5.06255 72.7914 4.71341C72.2005 4.36427 71.4888 4.1897 70.6563 4.1897C69.6357 4.1897 68.7763 4.51198 68.078 5.15655C67.3797 5.80112 67.0306 6.72769 67.0306 7.93626C67.0306 8.8494 67.2588 9.64168 67.7154 10.3131C68.1988 10.9577 68.8568 11.5217 69.6894 12.0051C70.522 12.4617 71.4485 12.9048 72.4691 13.3345ZM70.7368 26.7496C71.5963 26.7496 72.3483 26.6019 72.9928 26.3065C73.6642 25.9842 74.188 25.5276 74.564 24.9368C74.94 24.319 75.128 23.5939 75.128 22.7613C75.128 21.9825 74.9534 21.3111 74.6042 20.7471C74.282 20.1562 73.8254 19.6459 73.2345 19.2162C72.6437 18.7596 71.9454 18.3434 71.1397 17.9674C70.334 17.5914 69.4477 17.1885 68.4808 16.7588C67.6751 17.4302 67.0171 18.2494 66.5068 19.2162C65.9966 20.1562 65.7414 21.1902 65.7414 22.3182C65.7414 23.2045 65.9563 23.9833 66.386 24.6548C66.8426 25.2993 67.4468 25.8096 68.1988 26.1856C68.9508 26.5616 69.7968 26.7496 70.7368 26.7496ZM91.0345 18.8939C89.6379 18.8939 88.389 18.5179 87.2879 17.7659C86.1868 17.0139 85.3273 15.9262 84.7096 14.5028C84.0919 13.0794 83.7831 11.374 83.7831 9.38654C83.7831 7.39912 84.0919 5.70712 84.7096 4.31056C85.3273 2.91399 86.1868 1.85314 87.2879 1.128C88.389 0.376002 89.6379 3.36169e-06 91.0345 3.36169e-06C92.4847 3.36169e-06 93.747 0.376002 94.8213 1.128C95.9224 1.85314 96.7819 2.91399 97.3996 4.31056C98.0173 5.70712 98.3261 7.39912 98.3261 9.38654C98.3261 11.374 98.0173 13.0794 97.3996 14.5028C96.7819 15.9262 95.9224 17.0139 94.8213 17.7659C93.747 18.5179 92.4847 18.8939 91.0345 18.8939ZM91.0345 15.5502C91.8939 15.5502 92.619 15.0802 93.2099 14.1402C93.8276 13.1734 94.1364 11.5888 94.1364 9.38654C94.1364 7.21112 93.8276 5.66684 93.2099 4.7537C92.619 3.8137 91.8939 3.3437 91.0345 3.3437C90.175 3.3437 89.4365 3.8137 88.8187 4.7537C88.2279 5.66684 87.9325 7.21112 87.9325 9.38654C87.9325 11.5888 88.2279 13.1734 88.8187 14.1402C89.4365 15.0802 90.175 15.5502 91.0345 15.5502ZM92.0013 30.9393L108.236 3.36169e-06H111.741L95.5464 30.9393H92.0013ZM112.748 30.9393C111.325 30.9393 110.063 30.5633 108.962 29.8113C107.887 29.0593 107.028 27.9716 106.383 26.5482C105.766 25.1248 105.457 23.4193 105.457 21.4319C105.457 19.4176 105.766 17.7122 106.383 16.3157C107.028 14.9191 107.887 13.8582 108.962 13.1331C110.063 12.3811 111.325 12.0051 112.748 12.0051C114.145 12.0051 115.38 12.3811 116.455 13.1331C117.556 13.8582 118.415 14.9191 119.033 16.3157C119.677 17.7122 120 19.4176 120 21.4319C120 23.4193 119.677 25.1248 119.033 26.5482C118.415 27.9716 117.556 29.0593 116.455 29.8113C115.38 30.5633 114.145 30.9393 112.748 30.9393ZM112.748 27.5553C113.608 27.5553 114.333 27.0853 114.924 26.1453C115.515 25.1785 115.81 23.6073 115.81 21.4319C115.81 19.2028 115.515 17.6451 114.924 16.7588C114.333 15.8457 113.608 15.3891 112.748 15.3891C111.862 15.3891 111.124 15.8457 110.533 16.7588C109.942 17.6451 109.646 19.2028 109.646 21.4319C109.646 23.6073 109.942 25.1785 110.533 26.1453C111.124 27.0853 111.862 27.5553 112.748 27.5553Z" fill="#081735"/>
</svg>
