<svg width="142" height="287" viewBox="0 0 142 287" fill="none" xmlns="http://www.w3.org/2000/svg">
<g filter="url(#filter0_d_117_5956)">
<rect x="16" y="8" width="109.321" height="255" rx="16" fill="white"/>
</g>
<path d="M16 24C16 15.1634 23.1634 8 32 8H109.321C118.157 8 125.321 15.1634 125.321 24V51.5154H16V24Z" fill="#D9EFFF"/>
<path fill-rule="evenodd" clip-rule="evenodd" d="M27.3278 78.8371C27.3395 78.6609 27.2842 78.498 27.2314 78.5531L26.5269 79.2877C26.4771 79.3396 26.4667 79.5488 26.5079 79.6702L26.6789 80.174C26.4942 80.4804 26.4049 80.8956 26.3609 81.1464C26.32 81.3791 26.2894 81.6416 26.2651 81.8507L26.2651 81.8507L26.2532 81.9516C26.2228 82.2082 26.1973 82.3938 26.1665 82.5365C26.1585 82.5735 26.1516 82.6008 26.146 82.6205C26.1153 82.6057 26.0717 82.5649 26.0152 82.4821C25.8985 82.311 25.7739 82.0352 25.6331 81.7236L25.5958 81.641C25.4474 81.3131 25.2801 80.9518 25.1067 80.7381C25.0196 80.6307 24.9179 80.5433 24.8021 80.5318C24.6823 80.5199 24.5337 80.5896 24.3733 80.8347C24.2059 81.0902 24.0944 81.4371 24.0233 81.7495C23.9538 82.0545 23.9106 82.3767 23.8812 82.6779C23.8224 83.2801 23.8032 83.9699 23.79 84.5957C23.7876 84.7132 23.7853 84.8284 23.7831 84.9411C23.773 85.4553 23.7639 85.9168 23.7407 86.302C23.7299 86.4802 23.7175 86.6144 23.7053 86.7101C23.6769 86.7131 23.6354 86.6883 23.5567 86.6162L23.5403 86.6009C23.4223 86.4904 23.1867 86.2699 22.831 86.8132C22.6202 87.1352 22.489 87.6023 22.4104 87.9656C22.3287 88.3433 22.2749 88.7416 22.2385 89.0812C22.2015 89.4269 22.179 89.7462 22.1657 89.9765C22.1591 90.0925 22.1546 90.188 22.1518 90.2554C22.1504 90.2891 22.1494 90.3159 22.1487 90.3349L22.148 90.3573L22.1478 90.364L22.1477 90.3661L22.1477 90.3668L22.1477 90.3671C22.1477 90.3673 22.1477 90.3674 22.4302 90.1248L22.1477 90.3674C22.1379 90.6992 22.2566 90.8596 22.4126 90.7256C22.5686 90.5917 22.7029 90.2143 22.7127 89.8826L22.7128 89.8823L22.7128 89.8821L22.7128 89.8796L22.7133 89.8651L22.7157 89.8033C22.718 89.7483 22.7218 89.6675 22.7275 89.5682C22.739 89.3677 22.7581 89.0998 22.7882 88.8193C22.8189 88.5326 22.8576 88.2657 22.9028 88.0568C22.944 87.8664 22.9718 87.8086 22.9749 87.8021C22.9751 87.8017 22.9752 87.8015 22.9752 87.8014L22.9757 87.8008C23.0101 87.7482 23.0276 87.7214 23.1729 87.8546L23.1864 87.8672C23.3069 87.9791 23.5439 88.1992 23.905 87.6477C24.0877 87.3686 24.1754 86.9677 24.2165 86.723C24.2609 86.4579 24.2857 86.1708 24.302 85.9016C24.329 85.4547 24.3393 84.9238 24.3493 84.4089L24.3493 84.4083C24.3514 84.3009 24.3535 84.1942 24.3557 84.0891C24.3691 83.452 24.3874 82.8621 24.4338 82.3869C24.457 82.1494 24.4833 81.9834 24.5073 81.8784C24.5124 81.8559 24.5166 81.8394 24.5199 81.8276C24.5244 81.8266 24.5305 81.826 24.5385 81.8268C24.5745 81.8304 24.6259 81.862 24.6922 81.9437C24.8256 82.1082 24.9665 82.4053 25.1202 82.7449L25.1614 82.8361C25.296 83.1345 25.4406 83.4554 25.5821 83.6627C25.6602 83.7772 25.7512 83.8791 25.8542 83.9118C25.9588 83.945 26.1055 83.9137 26.271 83.6609C26.4675 83.3607 26.5871 82.9607 26.6594 82.6254C26.7284 82.3049 26.7693 81.9749 26.7988 81.7256L26.8137 81.5996L26.8137 81.5995C26.8391 81.3838 26.8568 81.2328 26.8794 81.104C26.8831 81.083 26.8863 81.0662 26.889 81.0531C26.9073 81.0189 26.9244 80.9821 26.9402 80.9434L27.056 81.2847C27.0972 81.4061 27.1603 81.3522 27.1714 81.1861L27.3278 78.8371ZM22.9752 87.8014L22.9743 87.8029C22.9749 87.8019 22.9752 87.8014 22.9752 87.8014ZM24.5278 81.8027L24.5265 81.8061C24.5274 81.8037 24.5278 81.8026 24.5278 81.8027ZM24.5116 81.8309C24.5104 81.8322 24.5097 81.8326 24.5097 81.8325C24.5097 81.8324 24.5103 81.8317 24.5116 81.8309ZM26.8963 81.0199L26.8979 81.0142C26.8979 81.0142 26.8978 81.0144 26.8977 81.0147C26.8975 81.0155 26.897 81.0171 26.8963 81.0199ZM23.6849 86.8358C23.6849 86.8356 23.6855 86.8326 23.6869 86.8272C23.6856 86.8333 23.6849 86.836 23.6849 86.8358Z" fill="#3F8CFF"/>
<path d="M34.0732 79.4846H42.6692V80.7306H34.0732V79.4846ZM34.6752 83.3766H42.0532V84.5526H34.6752V83.3766ZM34.1292 85.2526H42.5012V86.5266H34.1292V85.2526ZM37.1952 76.5166H38.7912V87.4786H37.1952V76.5166ZM34.8292 77.5526H41.8992V82.7046H34.7592V81.4306H40.4152V78.8126H34.8292V77.5526ZM30.1812 77.2726H33.3592V78.7426H30.1812V77.2726ZM31.3572 81.2766H33.3452V82.7326H31.3152L31.3572 81.2766ZM32.7572 81.2766H33.0512L33.3452 81.2346L34.2832 81.4586C34.0966 83.5493 33.7232 85.2666 33.1632 86.6106C32.6126 87.9546 31.8752 88.9719 30.9512 89.6626C30.8766 89.5506 30.7646 89.4199 30.6152 89.2706C30.4659 89.1306 30.3119 88.9953 30.1532 88.8646C29.9946 88.7339 29.8592 88.6313 29.7472 88.5566C30.6246 87.9593 31.3106 87.0866 31.8052 85.9386C32.2999 84.7906 32.6172 83.3299 32.7572 81.5566V81.2766ZM31.4132 83.5306C31.6839 84.4639 32.0386 85.2199 32.4772 85.7986C32.9159 86.3679 33.4292 86.8066 34.0172 87.1146C34.6052 87.4133 35.2586 87.6186 35.9772 87.7306C36.6959 87.8333 37.4706 87.8846 38.3012 87.8846C38.4599 87.8846 38.6886 87.8846 38.9872 87.8846C39.2952 87.8846 39.6359 87.8846 40.0092 87.8846C40.3826 87.8846 40.7606 87.8846 41.1432 87.8846C41.5259 87.8753 41.8759 87.8706 42.1932 87.8706C42.5199 87.8613 42.7812 87.8566 42.9772 87.8566C42.9026 87.9686 42.8232 88.1179 42.7392 88.3046C42.6646 88.4819 42.5946 88.6639 42.5292 88.8506C42.4639 89.0466 42.4126 89.2239 42.3752 89.3826H41.6332H38.2452C37.2466 89.3826 36.3272 89.3126 35.4872 89.1726C34.6566 89.0326 33.9052 88.7713 33.2332 88.3886C32.5612 88.0059 31.9686 87.4599 31.4552 86.7506C30.9512 86.0319 30.5266 85.0986 30.1812 83.9506L31.4132 83.5306ZM30.6712 83.3626C30.6339 83.2599 30.5732 83.1293 30.4892 82.9706C30.4146 82.8026 30.3352 82.6393 30.2512 82.4806C30.1672 82.3126 30.0879 82.1773 30.0132 82.0746C30.1626 82.0373 30.3259 81.9299 30.5032 81.7526C30.6899 81.5753 30.8532 81.3699 30.9932 81.1366C31.0959 80.9779 31.2499 80.7073 31.4552 80.3246C31.6699 79.9326 31.8939 79.4799 32.1272 78.9666C32.3699 78.4439 32.5799 77.9119 32.7572 77.3706V77.3006L33.3452 77.0626L34.3532 77.7346C33.9706 78.6493 33.5506 79.5266 33.0932 80.3666C32.6359 81.2066 32.1972 81.9299 31.7772 82.5366V82.5646C31.7772 82.5646 31.7212 82.5926 31.6092 82.6486C31.4972 82.6953 31.3666 82.7606 31.2172 82.8446C31.0679 82.9286 30.9372 83.0173 30.8252 83.1106C30.7226 83.2039 30.6712 83.2879 30.6712 83.3626ZM49.9492 77.5806C50.2386 79.2979 50.6632 80.8659 51.2232 82.2846C51.7926 83.6939 52.5626 84.9073 53.5332 85.9246C54.5039 86.9326 55.7266 87.7073 57.2012 88.2486C57.0799 88.3606 56.9399 88.5053 56.7812 88.6826C56.6319 88.8599 56.4872 89.0373 56.3472 89.2146C56.2166 89.4013 56.1092 89.5739 56.0252 89.7326C54.8492 89.2473 53.8366 88.6313 52.9872 87.8846C52.1379 87.1286 51.4192 86.2513 50.8312 85.2526C50.2432 84.2446 49.7532 83.1246 49.3612 81.8926C48.9692 80.6513 48.6472 79.2979 48.3952 77.8326L49.9492 77.5806ZM50.7752 77.1606L52.2032 76.6006C52.3806 76.9273 52.5532 77.2773 52.7212 77.6506C52.8892 78.0146 53.0386 78.3739 53.1692 78.7286C53.2999 79.0833 53.3932 79.4006 53.4492 79.6806L51.8952 80.3246C51.8579 80.0446 51.7786 79.7273 51.6572 79.3726C51.5359 79.0086 51.4006 78.6353 51.2512 78.2526C51.1019 77.8606 50.9432 77.4966 50.7752 77.1606ZM54.6392 77.4686L56.3612 77.7346C56.1466 79.0319 55.8619 80.2826 55.5072 81.4866C55.1619 82.6906 54.6999 83.8153 54.1212 84.8606C53.5519 85.8966 52.8286 86.8393 51.9512 87.6886C51.0832 88.5286 50.0146 89.2426 48.7452 89.8306C48.6799 89.6906 48.5866 89.5319 48.4652 89.3546C48.3532 89.1866 48.2366 89.0186 48.1152 88.8506C47.9939 88.6826 47.8772 88.5379 47.7652 88.4166C48.9412 87.9219 49.9306 87.2966 50.7332 86.5406C51.5359 85.7846 52.1939 84.9306 52.7072 83.9786C53.2206 83.0173 53.6266 81.9906 53.9252 80.8986C54.2332 79.7973 54.4712 78.6539 54.6392 77.4686ZM44.6572 77.6226L45.8752 76.7546C46.0712 76.9786 46.2766 77.2306 46.4912 77.5106C46.7152 77.7813 46.9206 78.0519 47.1072 78.3226C47.3032 78.5839 47.4526 78.8219 47.5552 79.0366L46.2672 80.0166C46.1646 79.8019 46.0246 79.5546 45.8472 79.2746C45.6699 78.9946 45.4739 78.7099 45.2592 78.4206C45.0539 78.1313 44.8532 77.8653 44.6572 77.6226ZM45.8052 89.4106L45.4552 87.8846L45.8052 87.3526L48.7032 85.2946C48.7592 85.5279 48.8386 85.7893 48.9412 86.0786C49.0439 86.3586 49.1326 86.5826 49.2072 86.7506C48.5352 87.2359 47.9892 87.6326 47.5692 87.9406C47.1586 88.2486 46.8366 88.4959 46.6032 88.6826C46.3699 88.8693 46.1926 89.0139 46.0712 89.1166C45.9592 89.2286 45.8706 89.3266 45.8052 89.4106ZM43.9292 80.8146H47.0232V82.4246H43.9292V80.8146ZM45.8052 89.4106C45.7492 89.2893 45.6652 89.1539 45.5532 89.0046C45.4412 88.8646 45.3246 88.7246 45.2032 88.5846C45.0819 88.4446 44.9746 88.3326 44.8812 88.2486C45.0399 88.1086 45.1986 87.8986 45.3572 87.6186C45.5252 87.3386 45.6092 87.0026 45.6092 86.6106V80.8146H47.2472V87.4786C47.2472 87.4786 47.1959 87.5253 47.0932 87.6186C46.9999 87.7119 46.8786 87.8333 46.7292 87.9826C46.5892 88.1319 46.4446 88.2906 46.2952 88.4586C46.1552 88.6359 46.0386 88.8039 45.9452 88.9626C45.8519 89.1306 45.8052 89.2799 45.8052 89.4106ZM58.5452 88.4026V86.7226H60.7852V80.1846H58.8952V78.8966C59.4179 78.8033 59.8659 78.6913 60.2392 78.5606C60.6219 78.4206 60.9766 78.2433 61.3032 78.0286H62.8292V86.7226H64.7752V88.4026H58.5452ZM67.937 83.2786C67.5637 83.2786 67.2557 83.1526 67.013 82.9006C66.7704 82.6393 66.649 82.3219 66.649 81.9486C66.649 81.5566 66.7704 81.2346 67.013 80.9826C67.2557 80.7306 67.5637 80.6046 67.937 80.6046C68.301 80.6046 68.6044 80.7306 68.847 80.9826C69.0897 81.2346 69.211 81.5566 69.211 81.9486C69.211 82.3219 69.0897 82.6393 68.847 82.9006C68.6044 83.1526 68.301 83.2786 67.937 83.2786ZM67.937 88.5986C67.5637 88.5986 67.2557 88.4679 67.013 88.2066C66.7704 87.9453 66.649 87.6279 66.649 87.2546C66.649 86.8626 66.7704 86.5406 67.013 86.2886C67.2557 86.0366 67.5637 85.9106 67.937 85.9106C68.301 85.9106 68.6044 86.0366 68.847 86.2886C69.0897 86.5406 69.211 86.8626 69.211 87.2546C69.211 87.6279 69.0897 87.9453 68.847 88.2066C68.6044 88.4679 68.301 88.5986 67.937 88.5986Z" fill="#3F8CFF"/>
<path d="M73.3946 88.4026L76.8666 78.1406H78.3086L81.7946 88.4026H80.4226L78.6306 82.6626C78.444 82.0746 78.2666 81.5006 78.0986 80.9406C77.9306 80.3713 77.7626 79.7879 77.5946 79.1906H77.5386C77.38 79.7879 77.212 80.3713 77.0346 80.9406C76.8666 81.5006 76.694 82.0746 76.5166 82.6626L74.6966 88.4026H73.3946ZM75.2006 85.2666V84.2446H79.9326V85.2666H75.2006ZM83.1442 91.6086V80.8006H84.1942L84.3202 81.6826H84.3482C84.6935 81.3933 85.0715 81.1413 85.4822 80.9266C85.9022 80.7119 86.3315 80.6046 86.7702 80.6046C87.4235 80.6046 87.9742 80.7679 88.4222 81.0946C88.8795 81.4119 89.2202 81.8599 89.4442 82.4386C89.6775 83.0173 89.7942 83.6986 89.7942 84.4826C89.7942 85.3506 89.6355 86.0926 89.3182 86.7086C89.0102 87.3153 88.6042 87.7819 88.1002 88.1086C87.6055 88.4259 87.0689 88.5846 86.4902 88.5846C86.1449 88.5846 85.7949 88.5099 85.4402 88.3606C85.0855 88.2019 84.7355 87.9826 84.3902 87.7026L84.4322 89.0326V91.6086H83.1442ZM86.2802 87.5066C86.7002 87.5066 87.0735 87.3899 87.4002 87.1566C87.7362 86.9139 87.9975 86.5686 88.1842 86.1206C88.3709 85.6633 88.4642 85.1219 88.4642 84.4966C88.4642 83.9366 88.3942 83.4466 88.2542 83.0266C88.1235 82.5973 87.9135 82.2659 87.6242 82.0326C87.3349 81.7993 86.9429 81.6826 86.4482 81.6826C86.1309 81.6826 85.8042 81.7713 85.4682 81.9486C85.1415 82.1259 84.7962 82.3826 84.4322 82.7186V86.7226C84.7682 87.0119 85.0995 87.2173 85.4262 87.3386C85.7529 87.4506 86.0375 87.5066 86.2802 87.5066ZM91.8258 91.6086V80.8006H92.8758L93.0018 81.6826H93.0298C93.3752 81.3933 93.7532 81.1413 94.1638 80.9266C94.5838 80.7119 95.0132 80.6046 95.4518 80.6046C96.1052 80.6046 96.6558 80.7679 97.1038 81.0946C97.5612 81.4119 97.9018 81.8599 98.1258 82.4386C98.3592 83.0173 98.4758 83.6986 98.4758 84.4826C98.4758 85.3506 98.3172 86.0926 97.9998 86.7086C97.6918 87.3153 97.2858 87.7819 96.7818 88.1086C96.2872 88.4259 95.7505 88.5846 95.1718 88.5846C94.8265 88.5846 94.4765 88.5099 94.1218 88.3606C93.7672 88.2019 93.4172 87.9826 93.0718 87.7026L93.1138 89.0326V91.6086H91.8258ZM94.9618 87.5066C95.3818 87.5066 95.7552 87.3899 96.0818 87.1566C96.4178 86.9139 96.6792 86.5686 96.8658 86.1206C97.0525 85.6633 97.1458 85.1219 97.1458 84.4966C97.1458 83.9366 97.0758 83.4466 96.9358 83.0266C96.8052 82.5973 96.5952 82.2659 96.3058 82.0326C96.0165 81.7993 95.6245 81.6826 95.1298 81.6826C94.8125 81.6826 94.4858 81.7713 94.1498 81.9486C93.8232 82.1259 93.4778 82.3826 93.1138 82.7186V86.7226C93.4498 87.0119 93.7812 87.2173 94.1078 87.3386C94.4345 87.4506 94.7192 87.5066 94.9618 87.5066ZM101.851 88.5846C101.534 88.5846 101.277 88.5193 101.081 88.3886C100.885 88.2579 100.741 88.0666 100.647 87.8146C100.554 87.5533 100.507 87.2453 100.507 86.8906V77.2586H101.795V86.9746C101.795 87.1706 101.828 87.3106 101.893 87.3946C101.968 87.4786 102.052 87.5206 102.145 87.5206C102.183 87.5206 102.22 87.5206 102.257 87.5206C102.295 87.5113 102.346 87.5019 102.411 87.4926L102.593 88.4726C102.5 88.5006 102.397 88.5239 102.285 88.5426C102.173 88.5706 102.029 88.5846 101.851 88.5846ZM107.566 88.5846C106.885 88.5846 106.269 88.4259 105.718 88.1086C105.167 87.7913 104.729 87.3386 104.402 86.7506C104.085 86.1533 103.926 85.4393 103.926 84.6086C103.926 83.9833 104.019 83.4279 104.206 82.9426C104.393 82.4479 104.645 82.0279 104.962 81.6826C105.289 81.3279 105.657 81.0619 106.068 80.8846C106.479 80.6979 106.899 80.6046 107.328 80.6046C107.981 80.6046 108.532 80.7493 108.98 81.0386C109.428 81.3279 109.769 81.7433 110.002 82.2846C110.245 82.8166 110.366 83.4466 110.366 84.1746C110.366 84.3146 110.361 84.4453 110.352 84.5666C110.343 84.6879 110.329 84.7999 110.31 84.9026H105.186C105.214 85.4439 105.335 85.9153 105.55 86.3166C105.774 86.7086 106.068 87.0166 106.432 87.2406C106.796 87.4553 107.221 87.5626 107.706 87.5626C108.079 87.5626 108.415 87.5113 108.714 87.4086C109.022 87.2966 109.321 87.1473 109.61 86.9606L110.058 87.8146C109.731 88.0293 109.363 88.2113 108.952 88.3606C108.541 88.5099 108.079 88.5846 107.566 88.5846ZM105.172 83.9926H109.246C109.246 83.2273 109.078 82.6439 108.742 82.2426C108.415 81.8319 107.953 81.6266 107.356 81.6266C107.001 81.6266 106.665 81.7199 106.348 81.9066C106.04 82.0933 105.779 82.3593 105.564 82.7046C105.359 83.0499 105.228 83.4793 105.172 83.9926ZM30.8112 108.403V98.1406H32.0992V107.297H36.5932V108.403H30.8112ZM38.2868 108.403V100.801H39.5748V108.403H38.2868ZM38.9308 99.2326C38.6788 99.2326 38.4734 99.1579 38.3148 99.0086C38.1654 98.8499 38.0908 98.6399 38.0908 98.3786C38.0908 98.1266 38.1654 97.9259 38.3148 97.7766C38.4734 97.6273 38.6788 97.5526 38.9308 97.5526C39.1828 97.5526 39.3881 97.6273 39.5468 97.7766C39.7054 97.9259 39.7848 98.1266 39.7848 98.3786C39.7848 98.6399 39.7054 98.8499 39.5468 99.0086C39.3881 99.1579 39.1828 99.2326 38.9308 99.2326ZM43.7802 108.403L41.0362 100.801H42.3662L43.7942 105.127C43.9156 105.5 44.0322 105.878 44.1442 106.261C44.2656 106.634 44.3822 107.003 44.4942 107.367H44.5642C44.6856 107.003 44.8022 106.634 44.9142 106.261C45.0356 105.878 45.1522 105.5 45.2642 105.127L46.7062 100.801H47.9662L45.2782 108.403H43.7802ZM52.4273 108.585C51.746 108.585 51.13 108.426 50.5793 108.109C50.0287 107.791 49.59 107.339 49.2633 106.751C48.946 106.153 48.7873 105.439 48.7873 104.609C48.7873 103.983 48.8807 103.428 49.0673 102.943C49.254 102.448 49.506 102.028 49.8233 101.683C50.15 101.328 50.5187 101.062 50.9293 100.885C51.34 100.698 51.76 100.605 52.1893 100.605C52.8427 100.605 53.3933 100.749 53.8413 101.039C54.2893 101.328 54.63 101.743 54.8633 102.285C55.106 102.817 55.2273 103.447 55.2273 104.175C55.2273 104.315 55.2227 104.445 55.2133 104.567C55.204 104.688 55.19 104.8 55.1713 104.903H50.0473C50.0753 105.444 50.1967 105.915 50.4113 106.317C50.6353 106.709 50.9293 107.017 51.2933 107.241C51.6573 107.455 52.082 107.563 52.5673 107.563C52.9407 107.563 53.2767 107.511 53.5753 107.409C53.8833 107.297 54.182 107.147 54.4713 106.961L54.9193 107.815C54.5927 108.029 54.224 108.211 53.8133 108.361C53.4027 108.51 52.9407 108.585 52.4273 108.585ZM50.0333 103.993H54.1073C54.1073 103.227 53.9393 102.644 53.6033 102.243C53.2767 101.832 52.8147 101.627 52.2173 101.627C51.8627 101.627 51.5267 101.72 51.2093 101.907C50.9013 102.093 50.64 102.359 50.4253 102.705C50.22 103.05 50.0893 103.479 50.0333 103.993ZM57.6453 98.8966H61.9013V108.053H57.6453V107.101H60.9353V99.8346H57.6453V98.8966ZM57.0293 98.8966H57.9953V109.159H57.0293V98.8966ZM57.5753 102.789H61.4393V103.713H57.5753V102.789ZM59.1713 96.6146L60.3053 96.8106C60.1653 97.2493 60.0113 97.6926 59.8433 98.1406C59.6846 98.5886 59.5353 98.9713 59.3953 99.2886L58.5413 99.0786C58.6253 98.8453 58.7046 98.5839 58.7793 98.2946C58.8633 98.0053 58.9379 97.7113 59.0033 97.4126C59.0779 97.1139 59.1339 96.8479 59.1713 96.6146ZM63.9033 98.8546H68.2013V99.8206H63.9033V98.8546ZM67.8233 98.8546H68.8173C68.8173 98.8546 68.8173 98.8873 68.8173 98.9526C68.8173 99.0179 68.8173 99.0973 68.8173 99.1906C68.8173 99.2746 68.8126 99.3399 68.8033 99.3866C68.7473 100.992 68.6913 102.35 68.6353 103.461C68.5886 104.571 68.5279 105.481 68.4533 106.191C68.3786 106.891 68.2899 107.437 68.1873 107.829C68.0939 108.221 67.9773 108.501 67.8373 108.669C67.6786 108.874 67.5106 109.014 67.3333 109.089C67.1653 109.173 66.9553 109.229 66.7033 109.257C66.4699 109.275 66.1619 109.28 65.7793 109.271C65.4059 109.271 65.0186 109.257 64.6173 109.229C64.6079 109.079 64.5706 108.907 64.5053 108.711C64.4493 108.515 64.3699 108.351 64.2673 108.221C64.7339 108.258 65.1539 108.281 65.5273 108.291C65.9099 108.3 66.1853 108.305 66.3533 108.305C66.4933 108.305 66.6053 108.291 66.6893 108.263C66.7826 108.225 66.8713 108.16 66.9553 108.067C67.0673 107.945 67.1653 107.698 67.2493 107.325C67.3426 106.942 67.4219 106.401 67.4873 105.701C67.5526 105.001 67.6133 104.109 67.6693 103.027C67.7253 101.935 67.7766 100.619 67.8233 99.0786V98.8546ZM64.1833 96.5866L65.1913 96.8106C65.0233 97.5106 64.8179 98.1966 64.5753 98.8686C64.3419 99.5313 64.0806 100.157 63.7913 100.745C63.5113 101.333 63.2126 101.851 62.8953 102.299C62.8299 102.243 62.7413 102.177 62.6293 102.103C62.5266 102.019 62.4193 101.944 62.3073 101.879C62.1953 101.804 62.0973 101.743 62.0133 101.697C62.3399 101.277 62.6386 100.796 62.9093 100.255C63.1799 99.7039 63.4226 99.1159 63.6373 98.4906C63.8519 97.8653 64.0339 97.2306 64.1833 96.5866ZM63.5393 102.481L64.3653 102.019C64.6266 102.345 64.8973 102.705 65.1773 103.097C65.4666 103.489 65.7326 103.867 65.9753 104.231C66.2273 104.595 66.4279 104.917 66.5773 105.197L65.6813 105.757C65.5413 105.467 65.3499 105.136 65.1073 104.763C64.8739 104.38 64.6173 103.993 64.3373 103.601C64.0666 103.199 63.8006 102.826 63.5393 102.481ZM70.4273 108.403V107.647C71.5006 106.704 72.3826 105.845 73.0733 105.071C73.7733 104.296 74.2913 103.577 74.6273 102.915C74.9633 102.243 75.1313 101.613 75.1313 101.025C75.1313 100.633 75.0613 100.283 74.9213 99.9746C74.7906 99.6666 74.5853 99.4286 74.3053 99.2606C74.0253 99.0833 73.6706 98.9946 73.2413 98.9946C72.8213 98.9946 72.4293 99.1066 72.0653 99.3306C71.7106 99.5546 71.3933 99.8393 71.1133 100.185L70.3713 99.4566C70.7819 98.9993 71.2253 98.6353 71.7013 98.3646C72.1773 98.0939 72.7419 97.9586 73.3953 97.9586C74.0113 97.9586 74.5386 98.0846 74.9773 98.3366C75.4253 98.5793 75.7706 98.9293 76.0133 99.3866C76.2653 99.8346 76.3913 100.362 76.3913 100.969C76.3913 101.65 76.2186 102.341 75.8733 103.041C75.5373 103.741 75.0659 104.455 74.4593 105.183C73.8619 105.901 73.1619 106.639 72.3593 107.395C72.6299 107.376 72.9099 107.357 73.1993 107.339C73.4979 107.311 73.7779 107.297 74.0393 107.297H76.8813V108.403H70.4273ZM80.3489 108.403C80.3956 107.432 80.4749 106.541 80.5869 105.729C80.7082 104.907 80.8809 104.137 81.1049 103.419C81.3289 102.691 81.6136 101.986 81.9589 101.305C82.3136 100.623 82.7429 99.9326 83.2469 99.2326H78.2629V98.1406H84.6889V98.9106C84.0916 99.6853 83.6016 100.427 83.2189 101.137C82.8456 101.846 82.5516 102.569 82.3369 103.307C82.1316 104.044 81.9776 104.828 81.8749 105.659C81.7816 106.48 81.7162 107.395 81.6789 108.403H80.3489ZM92.4265 96.6286L93.3645 97.0626C92.8512 97.9119 92.2399 98.7193 91.5305 99.4846C90.8305 100.241 90.0559 100.927 89.2065 101.543C88.3665 102.159 87.5032 102.686 86.6165 103.125C86.5325 102.966 86.4159 102.798 86.2665 102.621C86.1265 102.443 85.9819 102.289 85.8325 102.159C86.7192 101.776 87.5732 101.305 88.3945 100.745C89.2252 100.175 89.9859 99.5406 90.6765 98.8406C91.3765 98.1406 91.9599 97.4033 92.4265 96.6286ZM92.7345 97.3986C93.3599 98.1639 94.0039 98.8406 94.6665 99.4286C95.3292 100.007 96.0152 100.521 96.7245 100.969C97.4339 101.407 98.1619 101.813 98.9085 102.187C98.7685 102.299 98.6239 102.443 98.4745 102.621C98.3345 102.798 98.2225 102.971 98.1385 103.139C97.3825 102.737 96.6499 102.294 95.9405 101.809C95.2405 101.323 94.5499 100.759 93.8685 100.115C93.1872 99.4706 92.5059 98.7193 91.8245 97.8606L92.7345 97.3986ZM91.7825 100.773H92.8745V109.509H91.7825V100.773ZM102.815 99.5126V100.507H109.885V99.5126H102.815ZM102.815 97.8326V98.8126H109.885V97.8326H102.815ZM101.807 97.0906H110.935V101.249H101.807V97.0906ZM100.029 102.033H112.629V102.915H100.029V102.033ZM106.441 103.783H111.453V104.651H106.441V103.783ZM101.989 103.853H105.433V104.637H101.989V103.853ZM101.989 105.631H105.433V106.415H101.989V105.631ZM107.855 104.483C108.265 105.5 108.9 106.373 109.759 107.101C110.627 107.829 111.653 108.347 112.839 108.655C112.727 108.748 112.61 108.874 112.489 109.033C112.367 109.201 112.274 109.35 112.209 109.481C110.977 109.107 109.917 108.515 109.031 107.703C108.144 106.881 107.467 105.892 107.001 104.735L107.855 104.483ZM111.257 103.783H111.425L111.621 103.741L112.223 104.007C111.924 104.959 111.495 105.794 110.935 106.513C110.384 107.222 109.749 107.824 109.031 108.319C108.312 108.804 107.551 109.191 106.749 109.481C106.702 109.369 106.623 109.233 106.511 109.075C106.408 108.916 106.31 108.795 106.217 108.711C106.945 108.477 107.645 108.141 108.317 107.703C108.998 107.264 109.595 106.727 110.109 106.093C110.631 105.458 111.014 104.744 111.257 103.951V103.783ZM100.001 107.801C100.561 107.754 101.2 107.693 101.919 107.619C102.647 107.535 103.412 107.446 104.215 107.353C105.027 107.259 105.839 107.171 106.651 107.087V107.941C105.867 108.034 105.083 108.132 104.299 108.235C103.524 108.328 102.777 108.417 102.059 108.501C101.34 108.594 100.687 108.673 100.099 108.739L100.001 107.801ZM104.887 102.313H105.895V109.523H104.887V102.313ZM101.373 102.341H102.339V108.025H101.373V102.341ZM33.1492 116.699L34.1292 116.993C33.8492 117.777 33.5226 118.556 33.1492 119.331C32.7759 120.096 32.3652 120.819 31.9172 121.501C31.4786 122.182 31.0212 122.789 30.5452 123.321C30.5172 123.237 30.4659 123.129 30.3912 122.999C30.3166 122.868 30.2372 122.737 30.1532 122.607C30.0786 122.467 30.0086 122.359 29.9432 122.285C30.3726 121.827 30.7832 121.3 31.1752 120.703C31.5766 120.105 31.9452 119.466 32.2812 118.785C32.6172 118.094 32.9066 117.399 33.1492 116.699ZM31.7352 120.395L32.7572 119.373L32.7712 119.387V129.523H31.7352V120.395ZM34.6612 118.477H41.9272V119.471H34.6612V118.477ZM34.3812 124.637H42.1652V125.631H34.3812V124.637ZM33.9892 121.473H42.5572V122.481H33.9892V121.473ZM33.5132 127.983H42.8372V128.991H33.5132V127.983ZM37.7132 116.643H38.7772V122.061H37.7132V116.643ZM37.7132 123.027H38.7772V128.697H37.7132V123.027ZM45.0492 117.819H48.9132V126.919H45.0492V125.967H47.9332V118.771H45.0492V117.819ZM45.0912 121.837H48.2972V122.775H45.0912V121.837ZM44.5312 117.819H45.5392V128.053H44.5312V117.819ZM49.5572 119.443H56.8652V120.493H49.5572V119.443ZM54.0932 116.713H55.1572V127.941C55.1572 128.323 55.1012 128.603 54.9892 128.781C54.8866 128.967 54.7092 129.103 54.4572 129.187C54.2052 129.28 53.8506 129.336 53.3932 129.355C52.9359 129.373 52.3572 129.383 51.6572 129.383C51.6292 129.233 51.5779 129.051 51.5032 128.837C51.4286 128.631 51.3492 128.454 51.2652 128.305C51.6386 128.314 51.9886 128.323 52.3152 128.333C52.6512 128.342 52.9406 128.347 53.1832 128.347C53.4259 128.337 53.5986 128.328 53.7012 128.319C53.8412 128.319 53.9392 128.291 53.9952 128.235C54.0606 128.179 54.0932 128.081 54.0932 127.941V116.713ZM50.0332 122.075L50.9012 121.613C51.1532 121.967 51.4192 122.35 51.6992 122.761C51.9792 123.171 52.2406 123.568 52.4832 123.951C52.7352 124.333 52.9406 124.669 53.0992 124.959L52.1752 125.491C52.0259 125.201 51.8299 124.861 51.5872 124.469C51.3539 124.067 51.0972 123.657 50.8172 123.237C50.5466 122.817 50.2852 122.429 50.0332 122.075ZM61.0092 116.839L61.9752 116.573C62.1712 116.843 62.3579 117.151 62.5352 117.497C62.7126 117.833 62.8339 118.127 62.8992 118.379L61.8632 118.687C61.8072 118.435 61.6952 118.136 61.5272 117.791C61.3686 117.445 61.1959 117.128 61.0092 116.839ZM58.1532 118.379H65.7972V119.345H58.1532V118.379ZM62.6892 126.429L63.4312 125.827C63.7112 126.06 64.0099 126.321 64.3272 126.611C64.6446 126.9 64.9479 127.185 65.2372 127.465C65.5359 127.735 65.7739 127.978 65.9512 128.193L65.1812 128.893C65.0039 128.669 64.7752 128.417 64.4952 128.137C64.2152 127.847 63.9166 127.553 63.5992 127.255C63.2912 126.956 62.9879 126.681 62.6892 126.429ZM58.8812 122.901C58.8626 122.826 58.8346 122.733 58.7972 122.621C58.7599 122.499 58.7179 122.373 58.6712 122.243C58.6339 122.112 58.5919 122.005 58.5452 121.921C58.6759 121.893 58.8019 121.827 58.9232 121.725C59.0539 121.622 59.1986 121.496 59.3572 121.347C59.4599 121.235 59.6279 121.039 59.8612 120.759C60.1039 120.479 60.3606 120.152 60.6312 119.779C60.9019 119.396 61.1446 119.009 61.3592 118.617L62.3112 119.079C61.9099 119.685 61.4619 120.283 60.9672 120.871C60.4819 121.459 59.9966 121.963 59.5112 122.383V122.411C59.5112 122.411 59.4786 122.429 59.4132 122.467C59.3479 122.495 59.2732 122.532 59.1892 122.579C59.1052 122.625 59.0306 122.677 58.9652 122.733C58.9092 122.789 58.8812 122.845 58.8812 122.901ZM58.8812 122.901L58.8532 122.145L59.3992 121.823L63.1932 121.669C63.1839 121.799 63.1746 121.949 63.1652 122.117C63.1652 122.285 63.1652 122.425 63.1652 122.537C62.2879 122.574 61.5786 122.611 61.0372 122.649C60.5052 122.686 60.0946 122.719 59.8052 122.747C59.5159 122.765 59.3059 122.789 59.1752 122.817C59.0446 122.845 58.9466 122.873 58.8812 122.901ZM63.8372 120.311L64.7892 120.619C64.3599 121.449 63.8419 122.224 63.2352 122.943C62.6286 123.652 61.9659 124.296 61.2472 124.875C60.5286 125.444 59.7726 125.939 58.9792 126.359C58.9419 126.293 58.8812 126.205 58.7972 126.093C58.7132 125.981 58.6292 125.873 58.5452 125.771C58.4612 125.668 58.3866 125.584 58.3212 125.519C59.4692 124.959 60.5332 124.235 61.5132 123.349C62.4932 122.453 63.2679 121.44 63.8372 120.311ZM64.7612 122.971L65.7132 123.349C65.1999 124.245 64.5839 125.075 63.8652 125.841C63.1559 126.606 62.3766 127.297 61.5272 127.913C60.6779 128.519 59.8006 129.047 58.8952 129.495C58.8579 129.42 58.7972 129.327 58.7132 129.215C58.6292 129.103 58.5406 128.991 58.4472 128.879C58.3632 128.776 58.2886 128.687 58.2232 128.613C59.1286 128.221 59.9919 127.745 60.8132 127.185C61.6346 126.625 62.3812 125.99 63.0532 125.281C63.7252 124.571 64.2946 123.801 64.7612 122.971ZM69.3112 116.811H70.3472V128.165C70.3472 128.491 70.3006 128.739 70.2072 128.907C70.1232 129.075 69.9692 129.205 69.7452 129.299C69.5306 129.373 69.2366 129.42 68.8632 129.439C68.4992 129.467 68.0186 129.481 67.4212 129.481C67.4026 129.341 67.3559 129.173 67.2812 128.977C67.2159 128.79 67.1459 128.622 67.0712 128.473C67.5006 128.491 67.8926 128.501 68.2472 128.501C68.6112 128.501 68.8539 128.496 68.9752 128.487C69.0966 128.487 69.1806 128.463 69.2272 128.417C69.2832 128.37 69.3112 128.286 69.3112 128.165V116.811ZM66.8052 118.253H67.7992V126.065H66.8052V118.253Z" fill="#8F95B2"/>
<path fill-rule="evenodd" clip-rule="evenodd" d="M27.3279 212.864C27.3396 212.688 27.2843 212.525 27.2315 212.58L26.527 213.315C26.4772 213.367 26.4668 213.576 26.508 213.698L26.6791 214.201C26.4944 214.508 26.4051 214.923 26.361 215.174C26.3202 215.406 26.2896 215.669 26.2652 215.878L26.2652 215.878L26.2534 215.979C26.2229 216.236 26.1974 216.421 26.1666 216.564C26.1587 216.601 26.1517 216.628 26.1462 216.648C26.1154 216.633 26.0718 216.592 26.0154 216.509C25.8986 216.338 25.774 216.063 25.6333 215.751L25.5959 215.668C25.4475 215.34 25.2802 214.979 25.1069 214.765C25.0197 214.658 24.918 214.571 24.8023 214.559C24.6824 214.547 24.5339 214.617 24.3734 214.862C24.2061 215.118 24.0946 215.464 24.0234 215.777C23.9539 216.082 23.9107 216.404 23.8813 216.705C23.8226 217.307 23.8033 217.997 23.7902 218.623C23.7877 218.741 23.7854 218.856 23.7832 218.968C23.7731 219.483 23.7641 219.944 23.7408 220.329C23.73 220.507 23.7176 220.642 23.7054 220.737C23.6771 220.74 23.6355 220.716 23.5568 220.643L23.5404 220.628C23.4224 220.518 23.1868 220.297 22.8312 220.841C22.6203 221.163 22.4891 221.63 22.4106 221.993C22.3289 222.371 22.275 222.769 22.2386 223.109C22.2016 223.454 22.1791 223.774 22.1659 224.004C22.1592 224.12 22.1547 224.215 22.1519 224.283C22.1505 224.316 22.1495 224.343 22.1488 224.362L22.1481 224.385L22.1479 224.391L22.1478 224.393L22.1478 224.394L22.1478 224.394C22.1478 224.395 22.1478 224.395 22.4303 224.152L22.1478 224.395C22.1381 224.727 22.2567 224.887 22.4127 224.753C22.5687 224.619 22.703 224.242 22.7129 223.91L22.7129 223.91L22.7129 223.909L22.713 223.907L22.7135 223.892L22.7158 223.831C22.7181 223.776 22.7219 223.695 22.7276 223.596C22.7392 223.395 22.7582 223.127 22.7883 222.847C22.819 222.56 22.8577 222.293 22.9029 222.084C22.9441 221.894 22.9719 221.836 22.9751 221.829C22.9753 221.829 22.9754 221.829 22.9754 221.829L22.9758 221.828C23.0102 221.776 23.0277 221.749 23.173 221.882L23.1865 221.895C23.307 222.006 23.544 222.227 23.9051 221.675C24.0879 221.396 24.1755 220.995 24.2166 220.75C24.2611 220.485 24.2858 220.198 24.3021 219.929C24.3291 219.482 24.3394 218.951 24.3494 218.436L24.3494 218.436C24.3515 218.328 24.3536 218.222 24.3558 218.116C24.3692 217.479 24.3876 216.889 24.434 216.414C24.4571 216.177 24.4835 216.011 24.5074 215.906C24.5125 215.883 24.5168 215.867 24.5201 215.855C24.5245 215.854 24.5306 215.853 24.5386 215.854C24.5746 215.858 24.626 215.889 24.6923 215.971C24.8257 216.136 24.9666 216.433 25.1204 216.772L25.1615 216.863C25.2961 217.162 25.4408 217.483 25.5822 217.69C25.6603 217.805 25.7514 217.906 25.8543 217.939C25.959 217.972 26.1056 217.941 26.2711 217.688C26.4677 217.388 26.5872 216.988 26.6595 216.653C26.7286 216.332 26.7694 216.002 26.799 215.753L26.8138 215.627L26.8138 215.627C26.8392 215.411 26.8569 215.26 26.8796 215.131C26.8832 215.11 26.8865 215.094 26.8891 215.08C26.9074 215.046 26.9245 215.009 26.9403 214.971L27.0561 215.312C27.0973 215.433 27.1604 215.38 27.1715 215.213L27.3279 212.864ZM22.9754 221.829L22.9744 221.83C22.975 221.829 22.9754 221.829 22.9754 221.829ZM24.528 215.83L24.5267 215.833C24.5275 215.831 24.528 215.83 24.528 215.83ZM24.5117 215.858C24.5105 215.86 24.5099 215.86 24.5098 215.86C24.5098 215.86 24.5104 215.859 24.5117 215.858ZM26.8965 215.047L26.898 215.042C26.898 215.042 26.8979 215.042 26.8978 215.042C26.8976 215.043 26.8971 215.044 26.8965 215.047ZM23.685 220.863C23.685 220.863 23.6856 220.86 23.687 220.855C23.6857 220.861 23.685 220.863 23.685 220.863Z" fill="#FF754C"/>
<path d="M32.351 162.599H40.947V163.845H32.351V162.599ZM32.953 166.491H40.331V167.667H32.953V166.491ZM32.407 168.367H40.779V169.641H32.407V168.367ZM35.473 159.631H37.069V170.593H35.473V159.631ZM33.107 160.667H40.177V165.819H33.037V164.545H38.693V161.927H33.107V160.667ZM28.459 160.387H31.637V161.857H28.459V160.387ZM29.635 164.391H31.623V165.847H29.593L29.635 164.391ZM31.035 164.391H31.329L31.623 164.349L32.561 164.573C32.3744 166.664 32.001 168.381 31.441 169.725C30.8904 171.069 30.153 172.086 29.229 172.777C29.1544 172.665 29.0424 172.534 28.893 172.385C28.7437 172.245 28.5897 172.11 28.431 171.979C28.2724 171.848 28.137 171.746 28.025 171.671C28.9024 171.074 29.5884 170.201 30.083 169.053C30.5777 167.905 30.895 166.444 31.035 164.671V164.391ZM29.691 166.645C29.9617 167.578 30.3164 168.334 30.755 168.913C31.1937 169.482 31.707 169.921 32.295 170.229C32.883 170.528 33.5364 170.733 34.255 170.845C34.9737 170.948 35.7484 170.999 36.579 170.999C36.7377 170.999 36.9664 170.999 37.265 170.999C37.573 170.999 37.9137 170.999 38.287 170.999C38.6604 170.999 39.0384 170.999 39.421 170.999C39.8037 170.99 40.1537 170.985 40.471 170.985C40.7977 170.976 41.059 170.971 41.255 170.971C41.1804 171.083 41.101 171.232 41.017 171.419C40.9424 171.596 40.8724 171.778 40.807 171.965C40.7417 172.161 40.6904 172.338 40.653 172.497H39.911H36.523C35.5244 172.497 34.605 172.427 33.765 172.287C32.9344 172.147 32.183 171.886 31.511 171.503C30.839 171.12 30.2464 170.574 29.733 169.865C29.229 169.146 28.8044 168.213 28.459 167.065L29.691 166.645ZM28.949 166.477C28.9117 166.374 28.851 166.244 28.767 166.085C28.6924 165.917 28.613 165.754 28.529 165.595C28.445 165.427 28.3657 165.292 28.291 165.189C28.4404 165.152 28.6037 165.044 28.781 164.867C28.9677 164.69 29.131 164.484 29.271 164.251C29.3737 164.092 29.5277 163.822 29.733 163.439C29.9477 163.047 30.1717 162.594 30.405 162.081C30.6477 161.558 30.8577 161.026 31.035 160.485V160.415L31.623 160.177L32.631 160.849C32.2484 161.764 31.8284 162.641 31.371 163.481C30.9137 164.321 30.475 165.044 30.055 165.651V165.679C30.055 165.679 29.999 165.707 29.887 165.763C29.775 165.81 29.6444 165.875 29.495 165.959C29.3457 166.043 29.215 166.132 29.103 166.225C29.0004 166.318 28.949 166.402 28.949 166.477ZM48.227 160.695C48.5164 162.412 48.941 163.98 49.501 165.399C50.0704 166.808 50.8404 168.022 51.811 169.039C52.7817 170.047 54.0044 170.822 55.479 171.363C55.3577 171.475 55.2177 171.62 55.059 171.797C54.9097 171.974 54.765 172.152 54.625 172.329C54.4944 172.516 54.387 172.688 54.303 172.847C53.127 172.362 52.1144 171.746 51.265 170.999C50.4157 170.243 49.697 169.366 49.109 168.367C48.521 167.359 48.031 166.239 47.639 165.007C47.247 163.766 46.925 162.412 46.673 160.947L48.227 160.695ZM49.053 160.275L50.481 159.715C50.6584 160.042 50.831 160.392 50.999 160.765C51.167 161.129 51.3164 161.488 51.447 161.843C51.5777 162.198 51.671 162.515 51.727 162.795L50.173 163.439C50.1357 163.159 50.0564 162.842 49.935 162.487C49.8137 162.123 49.6784 161.75 49.529 161.367C49.3797 160.975 49.221 160.611 49.053 160.275ZM52.917 160.583L54.639 160.849C54.4244 162.146 54.1397 163.397 53.785 164.601C53.4397 165.805 52.9777 166.93 52.399 167.975C51.8297 169.011 51.1064 169.954 50.229 170.803C49.361 171.643 48.2924 172.357 47.023 172.945C46.9577 172.805 46.8644 172.646 46.743 172.469C46.631 172.301 46.5144 172.133 46.393 171.965C46.2717 171.797 46.155 171.652 46.043 171.531C47.219 171.036 48.2084 170.411 49.011 169.655C49.8137 168.899 50.4717 168.045 50.985 167.093C51.4984 166.132 51.9044 165.105 52.203 164.013C52.511 162.912 52.749 161.768 52.917 160.583ZM42.935 160.737L44.153 159.869C44.349 160.093 44.5544 160.345 44.769 160.625C44.993 160.896 45.1984 161.166 45.385 161.437C45.581 161.698 45.7304 161.936 45.833 162.151L44.545 163.131C44.4424 162.916 44.3024 162.669 44.125 162.389C43.9477 162.109 43.7517 161.824 43.537 161.535C43.3317 161.246 43.131 160.98 42.935 160.737ZM44.083 172.525L43.733 170.999L44.083 170.467L46.981 168.409C47.037 168.642 47.1164 168.904 47.219 169.193C47.3217 169.473 47.4104 169.697 47.485 169.865C46.813 170.35 46.267 170.747 45.847 171.055C45.4364 171.363 45.1144 171.61 44.881 171.797C44.6477 171.984 44.4704 172.128 44.349 172.231C44.237 172.343 44.1484 172.441 44.083 172.525ZM42.207 163.929H45.301V165.539H42.207V163.929ZM44.083 172.525C44.027 172.404 43.943 172.268 43.831 172.119C43.719 171.979 43.6024 171.839 43.481 171.699C43.3597 171.559 43.2524 171.447 43.159 171.363C43.3177 171.223 43.4764 171.013 43.635 170.733C43.803 170.453 43.887 170.117 43.887 169.725V163.929H45.525V170.593C45.525 170.593 45.4737 170.64 45.371 170.733C45.2777 170.826 45.1564 170.948 45.007 171.097C44.867 171.246 44.7224 171.405 44.573 171.573C44.433 171.75 44.3164 171.918 44.223 172.077C44.1297 172.245 44.083 172.394 44.083 172.525ZM56.277 171.517V170.327C57.2197 169.487 58.0224 168.708 58.685 167.989C59.357 167.27 59.8704 166.603 60.225 165.987C60.5797 165.362 60.757 164.783 60.757 164.251C60.757 163.915 60.6964 163.621 60.575 163.369C60.4537 163.117 60.2764 162.926 60.043 162.795C59.819 162.655 59.539 162.585 59.203 162.585C58.8297 162.585 58.4844 162.692 58.167 162.907C57.859 163.112 57.5744 163.36 57.313 163.649L56.165 162.543C56.6504 162.02 57.145 161.628 57.649 161.367C58.1624 161.096 58.769 160.961 59.469 160.961C60.1224 160.961 60.6917 161.096 61.177 161.367C61.6717 161.628 62.0544 161.997 62.325 162.473C62.5957 162.949 62.731 163.509 62.731 164.153C62.731 164.778 62.5724 165.418 62.255 166.071C61.947 166.715 61.5317 167.359 61.009 168.003C60.4864 168.647 59.9077 169.282 59.273 169.907C59.5437 169.87 59.833 169.842 60.141 169.823C60.4584 169.795 60.7384 169.781 60.981 169.781H63.221V171.517H56.277ZM67.4329 164.951C67.0595 164.951 66.7422 164.825 66.4809 164.573C66.2289 164.321 66.1029 164.008 66.1029 163.635C66.1029 163.252 66.2289 162.935 66.4809 162.683C66.7422 162.431 67.0595 162.305 67.4329 162.305C67.8062 162.305 68.1189 162.431 68.3709 162.683C68.6322 162.935 68.7629 163.252 68.7629 163.635C68.7629 164.008 68.6322 164.321 68.3709 164.573C68.1189 164.825 67.8062 164.951 67.4329 164.951ZM67.4329 171.629C67.0595 171.629 66.7422 171.503 66.4809 171.251C66.2289 170.999 66.1029 170.686 66.1029 170.313C66.1029 169.93 66.2289 169.613 66.4809 169.361C66.7422 169.109 67.0595 168.983 67.4329 168.983C67.8062 168.983 68.1189 169.109 68.3709 169.361C68.6322 169.613 68.7629 169.93 68.7629 170.313C68.7629 170.686 68.6322 170.999 68.3709 171.251C68.1189 171.503 67.8062 171.629 67.4329 171.629Z" fill="#FF754C"/>
<path d="M84.3309 159.799H85.5069C85.4975 160.219 85.4742 160.746 85.4369 161.381C85.3995 162.016 85.3249 162.725 85.2129 163.509C85.1009 164.284 84.9142 165.091 84.6529 165.931C84.4009 166.771 84.0509 167.602 83.6029 168.423C83.1549 169.235 82.5855 170 81.8949 170.719C81.2135 171.438 80.3782 172.058 79.3889 172.581C79.2955 172.45 79.1695 172.306 79.0109 172.147C78.8522 171.998 78.6935 171.867 78.5349 171.755C79.5055 171.26 80.3222 170.677 80.9849 170.005C81.6569 169.324 82.2029 168.596 82.6229 167.821C83.0429 167.046 83.3695 166.267 83.6029 165.483C83.8362 164.69 83.9995 163.929 84.0929 163.201C84.1955 162.473 84.2609 161.815 84.2889 161.227C84.3169 160.639 84.3309 160.163 84.3309 159.799ZM85.3669 161.535C85.3949 161.694 85.4369 161.997 85.4929 162.445C85.5489 162.893 85.6515 163.43 85.8009 164.055C85.9502 164.68 86.1602 165.348 86.4309 166.057C86.7109 166.766 87.0702 167.471 87.5089 168.171C87.9475 168.871 88.4889 169.524 89.1329 170.131C89.7862 170.738 90.5562 171.242 91.4429 171.643C91.2935 171.755 91.1489 171.895 91.0089 172.063C90.8689 172.231 90.7569 172.385 90.6729 172.525C89.7582 172.096 88.9649 171.559 88.2929 170.915C87.6302 170.271 87.0702 169.576 86.6129 168.829C86.1649 168.082 85.8009 167.331 85.5209 166.575C85.2409 165.81 85.0215 165.091 84.8629 164.419C84.7135 163.747 84.6015 163.168 84.5269 162.683C84.4522 162.188 84.4009 161.838 84.3729 161.633L85.3669 161.535ZM99.9829 160.275H104.197V161.227H99.9829V160.275ZM103.791 160.275H104.841V171.307C104.841 171.624 104.799 171.867 104.715 172.035C104.631 172.203 104.482 172.334 104.267 172.427C104.052 172.502 103.758 172.548 103.385 172.567C103.021 172.586 102.564 172.595 102.013 172.595C101.994 172.464 101.952 172.296 101.887 172.091C101.822 171.895 101.752 171.732 101.677 171.601C102.078 171.61 102.452 171.615 102.797 171.615C103.152 171.624 103.385 171.624 103.497 171.615C103.609 171.606 103.684 171.578 103.721 171.531C103.768 171.494 103.791 171.414 103.791 171.293V160.275ZM97.2669 160.205L98.0789 159.771C98.2842 160.042 98.4942 160.34 98.7089 160.667C98.9235 160.994 99.1242 161.316 99.3109 161.633C99.4975 161.941 99.6469 162.216 99.7589 162.459L98.8909 162.963C98.7882 162.72 98.6482 162.44 98.4709 162.123C98.2935 161.806 98.0975 161.479 97.8829 161.143C97.6775 160.807 97.4722 160.494 97.2669 160.205ZM96.6649 162.585H97.6869V172.637H96.6649V162.585ZM95.0829 159.841L96.0629 160.107C95.8295 160.91 95.5542 161.708 95.2369 162.501C94.9289 163.294 94.5835 164.046 94.2009 164.755C93.8275 165.455 93.4262 166.08 92.9969 166.631C92.9689 166.547 92.9175 166.44 92.8429 166.309C92.7775 166.169 92.7075 166.034 92.6329 165.903C92.5675 165.763 92.5022 165.651 92.4369 165.567C92.8009 165.091 93.1462 164.545 93.4729 163.929C93.8089 163.313 94.1122 162.655 94.3829 161.955C94.6629 161.255 94.8962 160.55 95.0829 159.841ZM93.9769 163.355L94.9429 162.389L94.9709 162.417V172.623H93.9769V163.355ZM35.781 180.723L36.593 180.177C37.0224 180.429 37.4657 180.723 37.923 181.059C38.3804 181.386 38.8097 181.717 39.211 182.053C39.6217 182.389 39.953 182.702 40.205 182.991L39.337 183.621C39.0944 183.341 38.777 183.028 38.385 182.683C37.993 182.338 37.5684 181.997 37.111 181.661C36.663 181.316 36.2197 181.003 35.781 180.723ZM28.417 184.279H40.975V185.217H28.417V184.279ZM35.347 185.903L36.215 186.365C35.8417 186.636 35.4124 186.892 34.927 187.135C34.4417 187.378 33.9377 187.597 33.415 187.793C32.8924 187.98 32.3884 188.143 31.903 188.283C31.8284 188.171 31.7304 188.045 31.609 187.905C31.4877 187.765 31.3617 187.644 31.231 187.541C31.6977 187.429 32.1877 187.289 32.701 187.121C33.2144 186.953 33.7044 186.766 34.171 186.561C34.6377 186.346 35.0297 186.127 35.347 185.903ZM36.565 187.541L37.447 187.975C36.9804 188.339 36.425 188.675 35.781 188.983C35.1464 189.282 34.4697 189.548 33.751 189.781C33.0324 190.014 32.323 190.21 31.623 190.369C31.5484 190.248 31.455 190.108 31.343 189.949C31.2404 189.79 31.133 189.66 31.021 189.557C31.6837 189.436 32.365 189.277 33.065 189.081C33.765 188.876 34.4184 188.642 35.025 188.381C35.641 188.12 36.1544 187.84 36.565 187.541ZM38.329 189.039L39.281 189.501C38.7024 190.089 37.965 190.593 37.069 191.013C36.1824 191.424 35.193 191.764 34.101 192.035C33.009 192.306 31.861 192.516 30.657 192.665C30.601 192.525 30.5264 192.366 30.433 192.189C30.3397 192.012 30.2417 191.867 30.139 191.755C31.2964 191.634 32.3977 191.456 33.443 191.223C34.4884 190.99 35.431 190.696 36.271 190.341C37.1204 189.977 37.8064 189.543 38.329 189.039ZM33.457 182.655L34.521 182.907C33.989 184.279 33.2424 185.455 32.281 186.435C31.329 187.415 30.2417 188.204 29.019 188.801C28.9724 188.726 28.9024 188.638 28.809 188.535C28.7157 188.432 28.613 188.33 28.501 188.227C28.3984 188.124 28.305 188.04 28.221 187.975C29.4344 187.452 30.4937 186.743 31.399 185.847C32.3137 184.951 32.9997 183.887 33.457 182.655ZM36.803 184.503C37.111 184.97 37.4984 185.422 37.965 185.861C38.441 186.29 38.959 186.682 39.519 187.037C40.079 187.382 40.639 187.658 41.199 187.863C41.1244 187.938 41.0404 188.026 40.947 188.129C40.8537 188.222 40.765 188.325 40.681 188.437C40.6064 188.54 40.541 188.638 40.485 188.731C39.9157 188.47 39.3417 188.138 38.763 187.737C38.1844 187.336 37.6477 186.888 37.153 186.393C36.6677 185.898 36.2524 185.385 35.907 184.853L36.803 184.503ZM30.181 183.243C30.1717 183.168 30.1484 183.07 30.111 182.949C30.0737 182.828 30.0317 182.702 29.985 182.571C29.9477 182.44 29.9104 182.328 29.873 182.235C30.013 182.226 30.167 182.184 30.335 182.109C30.503 182.034 30.6804 181.936 30.867 181.815C31.0164 181.731 31.2497 181.586 31.567 181.381C31.8937 181.166 32.2484 180.91 32.631 180.611C33.0137 180.312 33.373 180.004 33.709 179.687L34.661 180.205C34.0544 180.728 33.4244 181.208 32.771 181.647C32.127 182.076 31.497 182.44 30.881 182.739V182.767C30.881 182.767 30.8437 182.781 30.769 182.809C30.7037 182.837 30.6244 182.874 30.531 182.921C30.4377 182.968 30.3537 183.019 30.279 183.075C30.2137 183.131 30.181 183.187 30.181 183.243ZM30.181 183.243L30.167 182.501L30.881 182.151L38.623 181.871C38.6417 182.002 38.6697 182.151 38.707 182.319C38.7444 182.478 38.777 182.608 38.805 182.711C37.321 182.776 36.0844 182.832 35.095 182.879C34.115 182.926 33.317 182.968 32.701 183.005C32.0944 183.033 31.623 183.061 31.287 183.089C30.9604 183.108 30.7177 183.131 30.559 183.159C30.4097 183.178 30.2837 183.206 30.181 183.243ZM44.853 185.217H53.337V186.211H44.853V185.217ZM45.553 181.689H53.939V182.697H45.553V181.689ZM42.473 188.185H51.209V189.207H42.473V188.185ZM53.071 185.217H54.149C54.149 185.217 54.1444 185.25 54.135 185.315C54.135 185.38 54.1304 185.455 54.121 185.539C54.121 185.614 54.1164 185.679 54.107 185.735C53.9764 187.07 53.841 188.162 53.701 189.011C53.561 189.851 53.407 190.504 53.239 190.971C53.0804 191.438 52.8937 191.774 52.679 191.979C52.5017 192.156 52.3104 192.278 52.105 192.343C51.909 192.408 51.657 192.45 51.349 192.469C51.097 192.478 50.7424 192.478 50.285 192.469C49.8277 192.46 49.347 192.441 48.843 192.413C48.8337 192.254 48.7917 192.077 48.717 191.881C48.6517 191.685 48.563 191.512 48.451 191.363C48.9924 191.41 49.5057 191.442 49.991 191.461C50.4857 191.47 50.8357 191.475 51.041 191.475C51.2184 191.475 51.363 191.466 51.475 191.447C51.587 191.428 51.685 191.382 51.769 191.307C51.965 191.148 52.1377 190.85 52.287 190.411C52.4364 189.963 52.5717 189.328 52.693 188.507C52.8237 187.686 52.945 186.65 53.057 185.399L53.071 185.217ZM45.329 180.065L46.379 180.177C46.2857 180.662 46.183 181.18 46.071 181.731C45.9684 182.272 45.8564 182.818 45.735 183.369C45.623 183.91 45.511 184.428 45.399 184.923C45.287 185.408 45.1797 185.838 45.077 186.211L43.971 186.197C44.083 185.805 44.1997 185.362 44.321 184.867C44.4424 184.363 44.5637 183.831 44.685 183.271C44.8064 182.711 44.9184 182.156 45.021 181.605C45.133 181.054 45.2357 180.541 45.329 180.065ZM63.025 181.087V182.963H67.169V181.087H63.025ZM62.031 180.219H68.191V183.845H62.031V180.219ZM61.625 184.867H68.205V185.777H62.661V192.623H61.625V184.867ZM62.045 186.953H68.037V187.835H62.045V186.953ZM62.045 189.053H68.037V189.935H62.045V189.053ZM67.561 184.867H68.625V191.405C68.625 191.694 68.5877 191.918 68.513 192.077C68.4384 192.236 68.2984 192.357 68.093 192.441C67.8877 192.525 67.617 192.572 67.281 192.581C66.945 192.6 66.525 192.609 66.021 192.609C66.0024 192.469 65.9604 192.306 65.895 192.119C65.8297 191.932 65.7644 191.769 65.699 191.629C66.063 191.638 66.3944 191.643 66.693 191.643C67.001 191.652 67.2064 191.652 67.309 191.643C67.477 191.643 67.561 191.564 67.561 191.405V184.867ZM56.179 187.163C56.599 187.06 57.075 186.939 57.607 186.799C58.139 186.65 58.7037 186.491 59.301 186.323C59.8984 186.155 60.4864 185.987 61.065 185.819L61.205 186.785C60.3837 187.028 59.5577 187.275 58.727 187.527C57.8964 187.77 57.1497 187.989 56.487 188.185L56.179 187.163ZM56.347 182.585H61.163V183.579H56.347V182.585ZM58.321 179.757H59.343V191.391C59.343 191.68 59.3057 191.904 59.231 192.063C59.1564 192.222 59.0257 192.343 58.839 192.427C58.6524 192.511 58.405 192.562 58.097 192.581C57.789 192.609 57.397 192.618 56.921 192.609C56.9024 192.488 56.8604 192.334 56.795 192.147C56.739 191.96 56.6737 191.797 56.599 191.657C56.9257 191.666 57.2244 191.671 57.495 191.671C57.775 191.671 57.957 191.671 58.041 191.671C58.1437 191.662 58.2137 191.638 58.251 191.601C58.2977 191.564 58.321 191.494 58.321 191.391V179.757ZM79.153 184.293H80.147V184.965C80.147 185.497 80.119 186.085 80.063 186.729C80.007 187.364 79.8857 188.022 79.699 188.703C79.5124 189.384 79.223 190.061 78.831 190.733C78.4484 191.405 77.9257 192.044 77.263 192.651C77.1977 192.576 77.1184 192.492 77.025 192.399C76.9317 192.315 76.8337 192.231 76.731 192.147C76.6284 192.072 76.535 192.007 76.451 191.951C77.0764 191.391 77.571 190.803 77.935 190.187C78.299 189.571 78.565 188.955 78.733 188.339C78.9104 187.723 79.0224 187.126 79.069 186.547C79.125 185.959 79.153 185.427 79.153 184.951V184.293ZM80.049 186.015C80.217 186.855 80.4364 187.658 80.707 188.423C80.987 189.179 81.337 189.846 81.757 190.425C82.1864 190.994 82.6904 191.438 83.269 191.755C83.1944 191.82 83.1104 191.904 83.017 192.007C82.9237 192.11 82.835 192.212 82.751 192.315C82.6764 192.427 82.6064 192.53 82.541 192.623C81.9344 192.24 81.4117 191.727 80.973 191.083C80.5344 190.439 80.175 189.702 79.895 188.871C79.615 188.031 79.3864 187.13 79.209 186.169L80.049 186.015ZM70.389 181.087H76.857V181.983H70.389V181.087ZM70.221 187.079H76.997V187.975H70.221V187.079ZM70.711 183.187H76.577V184.069H70.711V183.187ZM70.865 185.119H76.409V186.001H70.865V185.119ZM73.147 187.429H74.127V191.531C74.127 191.783 74.099 191.979 74.043 192.119C73.987 192.259 73.8704 192.371 73.693 192.455C73.525 192.53 73.3057 192.572 73.035 192.581C72.7737 192.6 72.4424 192.609 72.041 192.609C72.0224 192.478 71.9804 192.324 71.915 192.147C71.859 191.979 71.7984 191.83 71.733 191.699C72.013 191.708 72.265 191.713 72.489 191.713C72.713 191.713 72.8624 191.708 72.937 191.699C73.077 191.699 73.147 191.638 73.147 191.517V187.429ZM73.133 179.799H74.127V183.747H73.133V179.799ZM71.411 188.451L72.293 188.675C72.1157 189.188 71.9057 189.72 71.663 190.271C71.4204 190.812 71.187 191.284 70.963 191.685C70.8697 191.62 70.7344 191.545 70.557 191.461C70.389 191.377 70.2444 191.316 70.123 191.279C70.3657 190.896 70.599 190.453 70.823 189.949C71.0564 189.436 71.2524 188.936 71.411 188.451ZM74.939 188.773L75.737 188.451C75.8677 188.684 76.003 188.936 76.143 189.207C76.283 189.468 76.4137 189.725 76.535 189.977C76.6564 190.229 76.7497 190.453 76.815 190.649L75.975 191.041C75.9097 190.845 75.8164 190.621 75.695 190.369C75.583 190.108 75.4617 189.837 75.331 189.557C75.2097 189.268 75.079 189.006 74.939 188.773ZM78.005 182.291H82.247V183.257H78.005V182.291ZM78.075 179.757L79.097 179.911C78.985 180.714 78.8404 181.498 78.663 182.263C78.4857 183.028 78.2804 183.742 78.047 184.405C77.8137 185.068 77.543 185.651 77.235 186.155C77.1697 186.099 77.0857 186.034 76.983 185.959C76.8804 185.875 76.7684 185.8 76.647 185.735C76.535 185.66 76.437 185.595 76.353 185.539C76.661 185.082 76.927 184.545 77.151 183.929C77.375 183.313 77.5617 182.65 77.711 181.941C77.8604 181.232 77.9817 180.504 78.075 179.757ZM81.967 182.291H82.121L82.303 182.249L83.003 182.459C82.919 182.879 82.8164 183.313 82.695 183.761C82.583 184.209 82.4617 184.638 82.331 185.049C82.2097 185.45 82.0884 185.805 81.967 186.113L81.099 185.861C81.211 185.572 81.323 185.236 81.435 184.853C81.547 184.461 81.645 184.06 81.729 183.649C81.8224 183.238 81.9017 182.851 81.967 182.487V182.291ZM85.873 193.015L85.565 192.273C86.1344 192.04 86.5684 191.741 86.867 191.377C87.175 191.013 87.329 190.565 87.329 190.033L87.077 188.857L87.833 189.921C87.7304 190.042 87.6137 190.126 87.483 190.173C87.3524 190.21 87.2217 190.229 87.091 190.229C86.8017 190.229 86.5544 190.145 86.349 189.977C86.1437 189.809 86.041 189.562 86.041 189.235C86.041 188.899 86.1437 188.647 86.349 188.479C86.5637 188.311 86.8157 188.227 87.105 188.227C87.497 188.227 87.791 188.376 87.987 188.675C88.1924 188.964 88.295 189.352 88.295 189.837C88.295 190.593 88.0757 191.246 87.637 191.797C87.1984 192.348 86.6104 192.754 85.873 193.015ZM28.599 200.863H35.151V201.717H28.599V200.863ZM28.375 204.657H35.235V205.511H28.375V204.657ZM28.893 202.739H34.857V203.565H28.893V202.739ZM35.851 200.345H39.897V201.255H36.859V207.275H35.851V200.345ZM39.687 200.345H39.897L40.079 200.303L40.807 200.737C40.5457 201.101 40.261 201.484 39.953 201.885C39.6544 202.286 39.3604 202.664 39.071 203.019C39.6684 203.392 40.0837 203.747 40.317 204.083C40.5597 204.419 40.681 204.746 40.681 205.063C40.6904 205.371 40.6344 205.628 40.513 205.833C40.3917 206.029 40.219 206.192 39.995 206.323C39.883 206.379 39.7477 206.426 39.589 206.463C39.4397 206.5 39.295 206.528 39.155 206.547C38.9217 206.566 38.6604 206.58 38.371 206.589C38.0817 206.589 37.8017 206.575 37.531 206.547C37.5217 206.416 37.4844 206.267 37.419 206.099C37.3537 205.931 37.279 205.786 37.195 205.665C37.4937 205.693 37.769 205.712 38.021 205.721C38.2824 205.721 38.511 205.716 38.707 205.707C38.8097 205.698 38.9124 205.684 39.015 205.665C39.1177 205.646 39.2064 205.623 39.281 205.595C39.5237 205.492 39.645 205.292 39.645 204.993C39.645 204.741 39.519 204.461 39.267 204.153C39.015 203.845 38.5764 203.518 37.951 203.173C38.1657 202.874 38.3804 202.571 38.595 202.263C38.8097 201.946 39.0104 201.638 39.197 201.339C39.393 201.031 39.5564 200.765 39.687 200.541V200.345ZM31.511 199.757H32.575V203.901C32.575 204.19 32.5237 204.512 32.421 204.867C32.3184 205.222 32.1504 205.586 31.917 205.959C31.6837 206.332 31.3617 206.692 30.951 207.037C30.5404 207.373 30.0177 207.667 29.383 207.919C29.299 207.807 29.1824 207.676 29.033 207.527C28.893 207.378 28.7624 207.256 28.641 207.163C29.2197 206.967 29.691 206.734 30.055 206.463C30.4284 206.183 30.7177 205.889 30.923 205.581C31.1377 205.273 31.287 204.974 31.371 204.685C31.4644 204.386 31.511 204.125 31.511 203.901V199.757ZM34.087 206.743H35.179V212.609H34.087V206.743ZM29.775 207.849H39.169V208.801H30.839V211.881H29.775V207.849ZM38.721 207.849H39.799V210.733C39.799 210.985 39.757 211.19 39.673 211.349C39.589 211.498 39.435 211.615 39.211 211.699C38.987 211.774 38.6837 211.816 38.301 211.825C37.9184 211.844 37.433 211.853 36.845 211.853C36.817 211.713 36.7657 211.559 36.691 211.391C36.6257 211.223 36.5557 211.074 36.481 210.943C36.7797 210.943 37.0597 210.948 37.321 210.957C37.5917 210.957 37.825 210.957 38.021 210.957C38.217 210.957 38.3524 210.957 38.427 210.957C38.5484 210.948 38.6277 210.929 38.665 210.901C38.7024 210.864 38.721 210.798 38.721 210.705V207.849ZM48.199 202.935H54.135V203.929H48.199V202.935ZM53.673 202.935H54.681C54.681 202.935 54.681 202.972 54.681 203.047C54.681 203.112 54.681 203.187 54.681 203.271C54.681 203.346 54.681 203.406 54.681 203.453C54.6437 204.937 54.6064 206.192 54.569 207.219C54.5317 208.236 54.485 209.072 54.429 209.725C54.3824 210.369 54.317 210.868 54.233 211.223C54.149 211.578 54.051 211.83 53.939 211.979C53.8084 212.166 53.6637 212.296 53.505 212.371C53.3464 212.446 53.155 212.497 52.931 212.525C52.7164 212.544 52.4317 212.548 52.077 212.539C51.7317 212.539 51.3724 212.53 50.999 212.511C50.9897 212.362 50.957 212.189 50.901 211.993C50.845 211.806 50.7704 211.643 50.677 211.503C51.0784 211.531 51.447 211.55 51.783 211.559C52.119 211.568 52.357 211.573 52.497 211.573C52.6184 211.573 52.721 211.559 52.805 211.531C52.889 211.503 52.9637 211.447 53.029 211.363C53.1224 211.251 53.2017 211.027 53.267 210.691C53.3324 210.355 53.3884 209.874 53.435 209.249C53.491 208.614 53.5377 207.798 53.575 206.799C53.6124 205.8 53.645 204.587 53.673 203.159V202.935ZM50.537 199.757H51.559C51.559 200.83 51.545 201.885 51.517 202.921C51.489 203.948 51.4144 204.937 51.293 205.889C51.1717 206.841 50.971 207.737 50.691 208.577C50.4204 209.408 50.0377 210.168 49.543 210.859C49.0484 211.55 48.4137 212.152 47.639 212.665C47.555 212.534 47.4384 212.394 47.289 212.245C47.1397 212.096 46.9997 211.974 46.869 211.881C47.6157 211.414 48.2224 210.864 48.689 210.229C49.1557 209.585 49.515 208.871 49.767 208.087C50.0284 207.294 50.2104 206.449 50.313 205.553C50.4157 204.657 50.4764 203.724 50.495 202.753C50.523 201.773 50.537 200.774 50.537 199.757ZM43.159 200.443H47.737V209.557H46.743V201.395H44.111V210.439H43.159V200.443ZM42.151 210.187C42.6737 210.084 43.2804 209.963 43.971 209.823C44.6617 209.683 45.3944 209.529 46.169 209.361C46.953 209.193 47.7324 209.025 48.507 208.857L48.591 209.809C47.8537 209.977 47.1117 210.15 46.365 210.327C45.6184 210.504 44.8997 210.672 44.209 210.831C43.5277 210.99 42.907 211.134 42.347 211.265L42.151 210.187ZM43.663 203.453H47.205V204.391H43.663V203.453ZM43.663 206.449H47.205V207.387H43.663V206.449ZM56.557 201.577H68.821V202.557H56.557V201.577ZM59.987 206.575H66.553V207.471H59.987V206.575ZM59.245 204.181H66.385V205.133H60.281V212.623H59.245V204.181ZM66.147 204.181H67.183V211.321C67.183 211.629 67.141 211.867 67.057 212.035C66.973 212.212 66.8144 212.348 66.581 212.441C66.3477 212.516 66.0304 212.558 65.629 212.567C65.237 212.586 64.7424 212.595 64.145 212.595C64.117 212.455 64.0704 212.287 64.005 212.091C63.9397 211.895 63.8697 211.727 63.795 211.587C64.103 211.596 64.3924 211.601 64.663 211.601C64.943 211.61 65.1857 211.61 65.391 211.601C65.5964 211.601 65.7457 211.601 65.839 211.601C65.9604 211.601 66.0397 211.578 66.077 211.531C66.1237 211.494 66.147 211.419 66.147 211.307V204.181ZM61.149 199.757L62.213 200.009C61.8957 201.026 61.4944 202.034 61.009 203.033C60.5237 204.032 59.9404 204.965 59.259 205.833C58.5777 206.692 57.7937 207.438 56.907 208.073C56.8604 207.989 56.795 207.9 56.711 207.807C56.627 207.704 56.543 207.606 56.459 207.513C56.375 207.41 56.3004 207.326 56.235 207.261C56.8604 206.832 57.4297 206.332 57.943 205.763C58.4657 205.194 58.9324 204.582 59.343 203.929C59.7537 203.266 60.1084 202.585 60.407 201.885C60.7057 201.176 60.953 200.466 61.149 199.757ZM59.987 208.941H66.553V209.851H59.987V208.941ZM71.551 200.317H81.785V201.157H71.551V200.317ZM70.585 206.533H82.807V207.387H70.585V206.533ZM72.391 203.523H75.401V204.223H72.391V203.523ZM72.083 204.993H75.415V205.693H72.083V204.993ZM77.865 204.993H81.295V205.707H77.865V204.993ZM77.865 203.523H80.959V204.223H77.865V203.523ZM76.129 200.639H77.137V206.071H76.129V200.639ZM74.743 208.941H75.709V212.525H74.743V208.941ZM77.851 208.941H78.817V212.525H77.851V208.941ZM70.739 201.983H82.625V204.657H81.645V202.753H71.691V204.657H70.739V201.983ZM71.677 208.381H81.267V209.249H72.671V212.609H71.677V208.381ZM81.001 208.381H82.023V211.587C82.023 211.83 81.995 212.016 81.939 212.147C81.883 212.287 81.7664 212.394 81.589 212.469C81.4117 212.553 81.1877 212.6 80.917 212.609C80.6557 212.628 80.3337 212.637 79.951 212.637C79.9324 212.506 79.8857 212.357 79.811 212.189C79.7457 212.03 79.6804 211.886 79.615 211.755C79.895 211.764 80.1424 211.769 80.357 211.769C80.581 211.769 80.7304 211.764 80.805 211.755C80.889 211.755 80.9404 211.741 80.959 211.713C80.987 211.685 81.001 211.638 81.001 211.573V208.381ZM76.143 206.841L77.277 206.897C77.1557 207.27 77.025 207.639 76.885 208.003C76.745 208.358 76.6144 208.666 76.493 208.927L75.569 208.829C75.681 208.549 75.7884 208.222 75.891 207.849C76.003 207.466 76.087 207.13 76.143 206.841ZM84.431 207.345H96.933V208.283H84.431V207.345ZM84.641 200.359H96.695V201.297H84.641V200.359ZM93.363 207.723L94.357 208.017C94.0397 208.773 93.6104 209.422 93.069 209.963C92.5277 210.495 91.8697 210.938 91.095 211.293C90.3204 211.648 89.4197 211.928 88.393 212.133C87.3664 212.348 86.2137 212.506 84.935 212.609C84.8977 212.46 84.837 212.301 84.753 212.133C84.6784 211.965 84.5944 211.82 84.501 211.699C86.1437 211.606 87.553 211.419 88.729 211.139C89.905 210.85 90.871 210.43 91.627 209.879C92.3924 209.328 92.971 208.61 93.363 207.723ZM86.279 210.103L87.035 209.361C87.931 209.52 88.8224 209.697 89.709 209.893C90.605 210.089 91.4684 210.294 92.299 210.509C93.139 210.724 93.923 210.943 94.651 211.167C95.3884 211.391 96.0417 211.61 96.611 211.825L95.715 212.637C95.015 212.348 94.1657 212.049 93.167 211.741C92.1777 211.442 91.095 211.153 89.919 210.873C88.7524 210.593 87.539 210.336 86.279 210.103ZM88.463 200.709H89.457V205.609H88.463V200.709ZM91.739 200.709H92.733V205.609H91.739V200.709ZM86.335 203.355V205.259H95.071V203.355H86.335ZM85.341 202.487H96.107V206.113H85.341V202.487ZM86.279 210.103C86.6057 209.748 86.9417 209.338 87.287 208.871C87.6417 208.404 87.9824 207.924 88.309 207.429C88.6357 206.934 88.911 206.463 89.135 206.015L90.199 206.267C89.975 206.715 89.7044 207.177 89.387 207.653C89.079 208.12 88.7617 208.568 88.435 208.997C88.1084 209.426 87.8097 209.795 87.539 210.103H86.279ZM29.509 222.011H33.765V231.167H29.509V230.215H32.799V222.949H29.509V222.011ZM28.893 222.011H29.859V232.273H28.893V222.011ZM29.439 225.903H33.303V226.827H29.439V225.903ZM31.035 219.729L32.169 219.925C32.029 220.364 31.875 220.807 31.707 221.255C31.5484 221.703 31.399 222.086 31.259 222.403L30.405 222.193C30.489 221.96 30.5684 221.698 30.643 221.409C30.727 221.12 30.8017 220.826 30.867 220.527C30.9417 220.228 30.9977 219.962 31.035 219.729ZM35.767 221.969H40.065V222.935H35.767V221.969ZM39.687 221.969H40.681C40.681 221.969 40.681 222.002 40.681 222.067C40.681 222.132 40.681 222.212 40.681 222.305C40.681 222.389 40.6764 222.454 40.667 222.501C40.611 224.106 40.555 225.464 40.499 226.575C40.4524 227.686 40.3917 228.596 40.317 229.305C40.2424 230.005 40.1537 230.551 40.051 230.943C39.9577 231.335 39.841 231.615 39.701 231.783C39.5424 231.988 39.3744 232.128 39.197 232.203C39.029 232.287 38.819 232.343 38.567 232.371C38.3337 232.39 38.0257 232.394 37.643 232.385C37.2697 232.385 36.8824 232.371 36.481 232.343C36.4717 232.194 36.4344 232.021 36.369 231.825C36.313 231.629 36.2337 231.466 36.131 231.335C36.5977 231.372 37.0177 231.396 37.391 231.405C37.7737 231.414 38.049 231.419 38.217 231.419C38.357 231.419 38.469 231.405 38.553 231.377C38.6464 231.34 38.735 231.274 38.819 231.181C38.931 231.06 39.029 230.812 39.113 230.439C39.2064 230.056 39.2857 229.515 39.351 228.815C39.4164 228.115 39.477 227.224 39.533 226.141C39.589 225.049 39.6404 223.733 39.687 222.193V221.969ZM36.047 219.701L37.055 219.925C36.887 220.625 36.6817 221.311 36.439 221.983C36.2057 222.646 35.9444 223.271 35.655 223.859C35.375 224.447 35.0764 224.965 34.759 225.413C34.6937 225.357 34.605 225.292 34.493 225.217C34.3904 225.133 34.283 225.058 34.171 224.993C34.059 224.918 33.961 224.858 33.877 224.811C34.2037 224.391 34.5024 223.91 34.773 223.369C35.0437 222.818 35.2864 222.23 35.501 221.605C35.7157 220.98 35.8977 220.345 36.047 219.701ZM35.403 225.595L36.229 225.133C36.4904 225.46 36.761 225.819 37.041 226.211C37.3304 226.603 37.5964 226.981 37.839 227.345C38.091 227.709 38.2917 228.031 38.441 228.311L37.545 228.871C37.405 228.582 37.2137 228.25 36.971 227.877C36.7377 227.494 36.481 227.107 36.201 226.715C35.9304 226.314 35.6644 225.94 35.403 225.595ZM48.073 219.799H49.249C49.2397 220.219 49.2164 220.746 49.179 221.381C49.1417 222.016 49.067 222.725 48.955 223.509C48.843 224.284 48.6564 225.091 48.395 225.931C48.143 226.771 47.793 227.602 47.345 228.423C46.897 229.235 46.3277 230 45.637 230.719C44.9557 231.438 44.1204 232.058 43.131 232.581C43.0377 232.45 42.9117 232.306 42.753 232.147C42.5944 231.998 42.4357 231.867 42.277 231.755C43.2477 231.26 44.0644 230.677 44.727 230.005C45.399 229.324 45.945 228.596 46.365 227.821C46.785 227.046 47.1117 226.267 47.345 225.483C47.5784 224.69 47.7417 223.929 47.835 223.201C47.9377 222.473 48.003 221.815 48.031 221.227C48.059 220.639 48.073 220.163 48.073 219.799ZM49.109 221.535C49.137 221.694 49.179 221.997 49.235 222.445C49.291 222.893 49.3937 223.43 49.543 224.055C49.6924 224.68 49.9024 225.348 50.173 226.057C50.453 226.766 50.8124 227.471 51.251 228.171C51.6897 228.871 52.231 229.524 52.875 230.131C53.5284 230.738 54.2984 231.242 55.185 231.643C55.0357 231.755 54.891 231.895 54.751 232.063C54.611 232.231 54.499 232.385 54.415 232.525C53.5004 232.096 52.707 231.559 52.035 230.915C51.3724 230.271 50.8124 229.576 50.355 228.829C49.907 228.082 49.543 227.331 49.263 226.575C48.983 225.81 48.7637 225.091 48.605 224.419C48.4557 223.747 48.3437 223.168 48.269 222.683C48.1944 222.188 48.143 221.838 48.115 221.633L49.109 221.535Z" fill="#8F95B2"/>
<ellipse cx="64.3983" cy="31.5854" rx="1.69819" ry="1.39249" fill="#8F95B2"/>
<ellipse cx="71.1911" cy="31.5854" rx="1.69819" ry="1.39249" fill="#8F95B2"/>
<ellipse cx="77.9838" cy="31.5854" rx="1.69819" ry="1.39249" fill="#8F95B2"/>
<defs>
<filter id="filter0_d_117_5956" x="0" y="0" width="141.321" height="287" filterUnits="userSpaceOnUse" color-interpolation-filters="sRGB">
<feFlood flood-opacity="0" result="BackgroundImageFix"/>
<feColorMatrix in="SourceAlpha" type="matrix" values="0 0 0 0 0 0 0 0 0 0 0 0 0 0 0 0 0 0 127 0" result="hardAlpha"/>
<feOffset dy="8"/>
<feGaussianBlur stdDeviation="8"/>
<feComposite in2="hardAlpha" operator="out"/>
<feColorMatrix type="matrix" values="0 0 0 0 0.560784 0 0 0 0 0.584314 0 0 0 0 0.698039 0 0 0 0.15 0"/>
<feBlend mode="normal" in2="BackgroundImageFix" result="effect1_dropShadow_117_5956"/>
<feBlend mode="normal" in="SourceGraphic" in2="effect1_dropShadow_117_5956" result="shape"/>
</filter>
</defs>
</svg>
