<svg width="322" height="278" viewBox="0 0 322 278" fill="none" xmlns="http://www.w3.org/2000/svg">
<g clip-path="url(#clip0_147_3229)">
<path fill-rule="evenodd" clip-rule="evenodd" d="M0 16C0 7.16344 7.16344 0 16 0H306C314.837 0 322 7.16344 322 16V262C322 270.837 314.837 278 306 278H16C7.16343 278 0 270.837 0 262V16Z" fill="#FAFAFA"/>
<path fill-rule="evenodd" clip-rule="evenodd" d="M129 72C129 54.3269 143.327 40 161 40C178.673 40 193 54.3269 193 72C193 89.6731 178.673 104 161 104C143.327 104 129 89.6731 129 72Z" fill="white"/>
<mask id="mask0_147_3229" style="mask-type:luminance" maskUnits="userSpaceOnUse" x="129" y="40" width="64" height="64">
<path fill-rule="evenodd" clip-rule="evenodd" d="M129 72C129 54.3269 143.327 40 161 40C178.673 40 193 54.3269 193 72C193 89.6731 178.673 104 161 104C143.327 104 129 89.6731 129 72Z" fill="white"/>
</mask>
<g mask="url(#mask0_147_3229)">
<path d="M161 63.4131H174.333" stroke="#168AFF" stroke-width="2" stroke-linecap="round" stroke-linejoin="round"/>
<path fill-rule="evenodd" clip-rule="evenodd" d="M163.96 58.667H171.373C173.747 58.667 174.333 59.2537 174.333 61.6003V67.0803C174.333 69.427 173.747 70.0137 171.373 70.0137H163.96C161.587 70.0137 161 69.427 161 67.0803V61.6003C161 59.2537 161.587 58.667 163.96 58.667Z" stroke="#168AFF" stroke-width="2" stroke-linecap="round" stroke-linejoin="round"/>
<path d="M147.667 78.7471H161" stroke="#168AFF" stroke-width="2" stroke-linecap="round" stroke-linejoin="round"/>
<path fill-rule="evenodd" clip-rule="evenodd" d="M150.627 74H158.04C160.413 74 161 74.5867 161 76.9333V82.4133C161 84.76 160.413 85.3467 158.04 85.3467H150.627C148.253 85.3467 147.667 84.76 147.667 82.4133V76.9333C147.667 74.5867 148.253 74 150.627 74Z" stroke="#168AFF" stroke-width="2" stroke-linecap="round" stroke-linejoin="round"/>
<path d="M174.333 76C174.333 81.16 170.16 85.3333 165 85.3333L166.4 83" stroke="#168AFF" stroke-width="2" stroke-linecap="round" stroke-linejoin="round"/>
<path d="M147.667 68.0003C147.667 62.8403 151.84 58.667 157 58.667L155.6 61.0003" stroke="#168AFF" stroke-width="2" stroke-linecap="round" stroke-linejoin="round"/>
</g>
<path d="M121.28 134.36H130V135.82H121.28V134.36ZM125.08 135.26L126.56 135.62C126.373 136.14 126.18 136.66 125.98 137.18C125.78 137.7 125.587 138.153 125.4 138.54L124.08 138.2C124.253 137.8 124.44 137.32 124.64 136.76C124.84 136.2 124.987 135.7 125.08 135.26ZM121.64 137.86H129.36V147.24H127.84V139.24H123.12V147.3H121.64V137.86ZM124.82 140.06H126.26C126.26 141.567 126.227 142.893 126.16 144.04C126.093 145.187 125.953 146.18 125.74 147.02C125.54 147.86 125.227 148.58 124.8 149.18C124.387 149.767 123.82 150.267 123.1 150.68C122.393 151.093 121.493 151.447 120.4 151.74C120.333 151.54 120.213 151.307 120.04 151.04C119.867 150.787 119.707 150.587 119.56 150.44C120.573 150.2 121.4 149.907 122.04 149.56C122.693 149.213 123.207 148.787 123.58 148.28C123.967 147.773 124.24 147.153 124.4 146.42C124.573 145.673 124.68 144.78 124.72 143.74C124.773 142.687 124.807 141.46 124.82 140.06ZM112.3 135.08H120.94V136.64H112.3V135.08ZM113.38 139.3H120.92V140.84H113.38V139.3ZM118.64 136.74L120.18 137.12C119.94 137.627 119.693 138.127 119.44 138.62C119.187 139.113 118.94 139.54 118.7 139.9L117.3 139.54C117.46 139.287 117.62 139 117.78 138.68C117.953 138.347 118.113 138.007 118.26 137.66C118.42 137.313 118.547 137.007 118.64 136.74ZM113.62 137.12L115.08 136.66C115.307 137.007 115.513 137.393 115.7 137.82C115.9 138.233 116.04 138.6 116.12 138.92L114.58 139.44C114.513 139.133 114.387 138.76 114.2 138.32C114.027 137.88 113.833 137.48 113.62 137.12ZM112.7 139.3H114.36V143.42C114.36 144.02 114.34 144.68 114.3 145.4C114.273 146.107 114.213 146.833 114.12 147.58C114.04 148.313 113.907 149.033 113.72 149.74C113.547 150.447 113.32 151.093 113.04 151.68C112.947 151.587 112.807 151.48 112.62 151.36C112.433 151.253 112.247 151.147 112.06 151.04C111.873 150.933 111.707 150.853 111.56 150.8C111.907 150.067 112.16 149.267 112.32 148.4C112.48 147.533 112.58 146.667 112.62 145.8C112.673 144.92 112.7 144.12 112.7 143.4V139.3ZM118.9 141L120.42 141.64C119.993 142.04 119.5 142.42 118.94 142.78C118.393 143.127 117.813 143.44 117.2 143.72C116.587 143.987 115.98 144.22 115.38 144.42C115.247 144.233 115.073 144.027 114.86 143.8C114.647 143.56 114.433 143.367 114.22 143.22C114.78 143.06 115.347 142.867 115.92 142.64C116.507 142.4 117.06 142.14 117.58 141.86C118.113 141.58 118.553 141.293 118.9 141ZM119.2 143.64L120.7 144.28C120.247 144.787 119.713 145.26 119.1 145.7C118.487 146.14 117.833 146.54 117.14 146.9C116.46 147.247 115.773 147.547 115.08 147.8C114.96 147.6 114.793 147.373 114.58 147.12C114.38 146.867 114.173 146.66 113.96 146.5C114.6 146.3 115.247 146.053 115.9 145.76C116.553 145.467 117.167 145.14 117.74 144.78C118.327 144.42 118.813 144.04 119.2 143.64ZM119.48 146.48L121.12 147.2C120.64 147.773 120.067 148.313 119.4 148.82C118.747 149.313 118.027 149.753 117.24 150.14C116.467 150.54 115.673 150.88 114.86 151.16C114.727 150.96 114.553 150.727 114.34 150.46C114.127 150.207 113.913 149.993 113.7 149.82C114.46 149.607 115.207 149.333 115.94 149C116.673 148.653 117.347 148.267 117.96 147.84C118.587 147.413 119.093 146.96 119.48 146.48ZM115.48 133.5L117.04 133.06C117.227 133.393 117.4 133.767 117.56 134.18C117.72 134.593 117.833 134.953 117.9 135.26L116.26 135.76C116.207 135.453 116.107 135.087 115.96 134.66C115.813 134.233 115.653 133.847 115.48 133.5ZM125.8 148.66L126.8 147.64C127.227 147.92 127.66 148.233 128.1 148.58C128.553 148.913 128.973 149.26 129.36 149.62C129.76 149.967 130.08 150.287 130.32 150.58L129.26 151.74C129.033 151.433 128.727 151.093 128.34 150.72C127.967 150.36 127.553 150 127.1 149.64C126.66 149.267 126.227 148.94 125.8 148.66ZM140.28 139.28H142.14V144.6H140.28V139.28ZM137.78 134.78H144.06V136.46H136.92L137.78 134.78ZM143.52 134.78H143.96L144.34 134.68L145.56 135.58C145.213 136.087 144.813 136.62 144.36 137.18C143.907 137.74 143.44 138.273 142.96 138.78C142.48 139.273 142.007 139.707 141.54 140.08C141.407 139.907 141.227 139.713 141 139.5C140.787 139.273 140.6 139.093 140.44 138.96C140.827 138.627 141.22 138.24 141.62 137.8C142.02 137.347 142.387 136.887 142.72 136.42C143.053 135.953 143.32 135.533 143.52 135.16V134.78ZM134.22 138.68H136.04V148.14C136.04 148.54 136.1 148.847 136.22 149.06C136.353 149.273 136.6 149.42 136.96 149.5C137.333 149.567 137.887 149.6 138.62 149.6C138.833 149.6 139.18 149.6 139.66 149.6C140.14 149.6 140.687 149.6 141.3 149.6C141.913 149.6 142.527 149.6 143.14 149.6C143.767 149.6 144.333 149.6 144.84 149.6C145.36 149.6 145.747 149.6 146 149.6C146.653 149.6 147.14 149.527 147.46 149.38C147.793 149.22 148.027 148.92 148.16 148.48C148.307 148.027 148.42 147.373 148.5 146.52C148.74 146.667 149.033 146.807 149.38 146.94C149.74 147.06 150.053 147.147 150.32 147.2C150.213 148 150.08 148.667 149.92 149.2C149.76 149.733 149.527 150.153 149.22 150.46C148.927 150.78 148.52 151.007 148 151.14C147.493 151.273 146.847 151.34 146.06 151.34C145.913 151.34 145.653 151.34 145.28 151.34C144.907 151.34 144.46 151.34 143.94 151.34C143.433 151.34 142.9 151.34 142.34 151.34C141.793 151.34 141.267 151.34 140.76 151.34C140.253 151.34 139.813 151.34 139.44 151.34C139.08 151.34 138.833 151.34 138.7 151.34C137.567 151.34 136.667 151.253 136 151.08C135.347 150.907 134.887 150.587 134.62 150.12C134.353 149.653 134.22 148.993 134.22 148.14V138.68ZM137.9 133.02L139.62 133.66C139.087 134.66 138.447 135.633 137.7 136.58C136.953 137.513 136.153 138.38 135.3 139.18C134.447 139.967 133.58 140.66 132.7 141.26C132.647 141.127 132.56 140.947 132.44 140.72C132.32 140.493 132.187 140.267 132.04 140.04C131.907 139.8 131.787 139.613 131.68 139.48C132.48 138.987 133.267 138.407 134.04 137.74C134.827 137.06 135.553 136.32 136.22 135.52C136.887 134.72 137.447 133.887 137.9 133.02ZM135.66 138.68H148.3V146.02H146.42V140.42H135.66V138.68ZM135.66 143.44H147.32V145.24H135.66V143.44ZM155.82 140.76H167.54V142.52H155.82V140.76ZM156.76 135.74H168.62V137.56H156.76V135.74ZM152.08 145.04H164.56V146.86H152.08V145.04ZM167.06 140.76H169.02C169.02 140.76 169.013 140.813 169 140.92C169 141.027 168.993 141.153 168.98 141.3C168.98 141.433 168.967 141.547 168.94 141.64C168.767 143.533 168.58 145.087 168.38 146.3C168.193 147.513 167.98 148.46 167.74 149.14C167.513 149.807 167.247 150.293 166.94 150.6C166.647 150.907 166.34 151.113 166.02 151.22C165.7 151.327 165.3 151.393 164.82 151.42C164.433 151.447 163.907 151.453 163.24 151.44C162.573 151.427 161.88 151.407 161.16 151.38C161.147 151.1 161.073 150.78 160.94 150.42C160.807 150.06 160.64 149.747 160.44 149.48C161.227 149.547 161.973 149.593 162.68 149.62C163.4 149.633 163.913 149.64 164.22 149.64C164.473 149.64 164.68 149.627 164.84 149.6C165 149.573 165.153 149.507 165.3 149.4C165.553 149.187 165.787 148.76 166 148.12C166.213 147.48 166.407 146.58 166.58 145.42C166.753 144.26 166.913 142.807 167.06 141.06V140.76ZM156.1 133.5L158.02 133.7C157.9 134.42 157.76 135.18 157.6 135.98C157.453 136.78 157.293 137.58 157.12 138.38C156.96 139.167 156.8 139.92 156.64 140.64C156.493 141.347 156.353 141.973 156.22 142.52H154.2C154.36 141.933 154.527 141.273 154.7 140.54C154.873 139.807 155.04 139.033 155.2 138.22C155.373 137.407 155.533 136.6 155.68 135.8C155.84 134.987 155.98 134.22 156.1 133.5ZM177.9 141.18H189.88V142.92H177.9V141.18ZM176.08 138.94L177.88 139.54C177.48 140.353 177.013 141.173 176.48 142C175.947 142.827 175.38 143.6 174.78 144.32C174.18 145.027 173.573 145.653 172.96 146.2C172.88 146.067 172.76 145.9 172.6 145.7C172.453 145.5 172.293 145.3 172.12 145.1C171.96 144.9 171.82 144.733 171.7 144.6C172.26 144.147 172.807 143.613 173.34 143C173.887 142.387 174.393 141.733 174.86 141.04C175.34 140.347 175.747 139.647 176.08 138.94ZM185.5 139.12H187.36V149.44C187.36 149.987 187.287 150.4 187.14 150.68C186.993 150.973 186.733 151.193 186.36 151.34C185.987 151.487 185.487 151.573 184.86 151.6C184.247 151.64 183.493 151.66 182.6 151.66C182.56 151.393 182.473 151.08 182.34 150.72C182.22 150.373 182.093 150.073 181.96 149.82C182.413 149.833 182.847 149.847 183.26 149.86C183.673 149.86 184.033 149.86 184.34 149.86C184.66 149.847 184.88 149.84 185 149.84C185.187 149.84 185.313 149.813 185.38 149.76C185.46 149.693 185.5 149.58 185.5 149.42V139.12ZM174.4 134.94H180.56V136.54H174.4V134.94ZM182.18 134.94H189.8V136.54H182.18V134.94ZM174.56 133.04L176.38 133.5C176.127 134.22 175.827 134.94 175.48 135.66C175.147 136.367 174.78 137.033 174.38 137.66C173.993 138.273 173.6 138.82 173.2 139.3C173.08 139.193 172.92 139.073 172.72 138.94C172.533 138.807 172.333 138.68 172.12 138.56C171.92 138.44 171.747 138.34 171.6 138.26C172.227 137.62 172.8 136.84 173.32 135.92C173.84 134.987 174.253 134.027 174.56 133.04ZM182.54 133.04L184.34 133.46C183.993 134.567 183.527 135.627 182.94 136.64C182.353 137.64 181.733 138.48 181.08 139.16C180.973 139.053 180.82 138.933 180.62 138.8C180.433 138.667 180.233 138.54 180.02 138.42C179.82 138.287 179.647 138.18 179.5 138.1C180.167 137.5 180.767 136.753 181.3 135.86C181.833 134.953 182.247 134.013 182.54 133.04ZM175.6 136.22L177.2 135.74C177.44 136.167 177.707 136.66 178 137.22C178.293 137.767 178.52 138.22 178.68 138.58L177 139.18C176.853 138.807 176.64 138.34 176.36 137.78C176.093 137.207 175.84 136.687 175.6 136.22ZM183.94 136.22L185.52 135.62C185.813 136.02 186.127 136.467 186.46 136.96C186.793 137.453 187.053 137.867 187.24 138.2L185.58 138.88C185.42 138.533 185.173 138.107 184.84 137.6C184.52 137.093 184.22 136.633 183.94 136.22ZM178.84 144.66L180.34 143.84C180.633 144.227 180.94 144.653 181.26 145.12C181.593 145.587 181.907 146.04 182.2 146.48C182.493 146.92 182.733 147.3 182.92 147.62L181.32 148.58C181.16 148.26 180.933 147.873 180.64 147.42C180.36 146.967 180.06 146.5 179.74 146.02C179.42 145.527 179.12 145.073 178.84 144.66ZM174.74 142.44L176.54 140.64L176.56 140.68V151.68H174.74V142.44ZM196.48 135.54V137.9H205.4V135.54H196.48ZM194.6 133.88H207.4V139.56H194.6V133.88ZM192.16 141.12H209.74V142.84H192.16V141.12ZM196 144.74H206V146.46H196V144.74ZM205.44 144.74H207.46C207.46 144.74 207.453 144.793 207.44 144.9C207.44 145.007 207.433 145.127 207.42 145.26C207.407 145.38 207.387 145.487 207.36 145.58C207.227 146.647 207.073 147.547 206.9 148.28C206.74 149 206.56 149.573 206.36 150C206.173 150.427 205.953 150.753 205.7 150.98C205.447 151.207 205.167 151.36 204.86 151.44C204.553 151.533 204.187 151.593 203.76 151.62C203.4 151.633 202.913 151.633 202.3 151.62C201.687 151.62 201.033 151.607 200.34 151.58C200.327 151.3 200.26 150.987 200.14 150.64C200.02 150.307 199.867 150.013 199.68 149.76C200.373 149.827 201.047 149.873 201.7 149.9C202.353 149.913 202.827 149.92 203.12 149.92C203.36 149.92 203.547 149.913 203.68 149.9C203.827 149.873 203.96 149.813 204.08 149.72C204.267 149.587 204.433 149.333 204.58 148.96C204.74 148.587 204.887 148.08 205.02 147.44C205.167 146.787 205.3 145.973 205.42 145L205.44 144.74ZM196.44 141.82L198.48 142.1C198.333 142.58 198.173 143.087 198 143.62C197.827 144.153 197.653 144.667 197.48 145.16C197.307 145.653 197.147 146.087 197 146.46H194.82C195.007 146.047 195.193 145.573 195.38 145.04C195.58 144.507 195.767 143.96 195.94 143.4C196.127 142.84 196.293 142.313 196.44 141.82Z" fill="#111827"/>
<path d="M77.826 175.256H90.188V176.53H77.826V175.256ZM82.264 179.736H89.628V180.954H82.264V179.736ZM81.718 184.608H90.174V185.84H81.718V184.608ZM85.302 177.188H86.632V185.266H85.302V177.188ZM82.348 173.17L83.734 173.506C83.398 174.598 82.9733 175.681 82.46 176.754C81.956 177.818 81.3447 178.812 80.626 179.736C79.9073 180.651 79.0673 181.449 78.106 182.13C78.0593 181.999 77.994 181.859 77.91 181.71C77.8353 181.561 77.756 181.411 77.672 181.262C77.588 181.103 77.5133 180.973 77.448 180.87C78.0827 180.441 78.6567 179.937 79.17 179.358C79.6927 178.77 80.1547 178.135 80.556 177.454C80.9667 176.773 81.3213 176.068 81.62 175.34C81.9187 174.612 82.1613 173.889 82.348 173.17ZM79.576 178.994H80.906V186.134H79.576V178.994ZM102.62 179.358H103.978C103.978 179.358 103.973 179.395 103.964 179.47C103.964 179.535 103.959 179.615 103.95 179.708C103.95 179.801 103.945 179.881 103.936 179.946C103.824 181.159 103.712 182.153 103.6 182.928C103.488 183.693 103.362 184.291 103.222 184.72C103.082 185.149 102.919 185.457 102.732 185.644C102.555 185.821 102.368 185.943 102.172 186.008C101.985 186.083 101.757 186.134 101.486 186.162C101.243 186.181 100.926 186.185 100.534 186.176C100.142 186.176 99.722 186.167 99.274 186.148C99.2647 185.952 99.2227 185.733 99.148 185.49C99.0733 185.257 98.9753 185.051 98.854 184.874C99.2927 184.921 99.708 184.949 100.1 184.958C100.492 184.958 100.777 184.958 100.954 184.958C101.103 184.958 101.225 184.949 101.318 184.93C101.421 184.911 101.514 184.869 101.598 184.804C101.747 184.673 101.878 184.417 101.99 184.034C102.111 183.642 102.223 183.082 102.326 182.354C102.429 181.626 102.527 180.697 102.62 179.568V179.358ZM92.806 173.968H101.038V175.256H92.806V173.968ZM94.066 176.124L95.382 176.222C95.354 176.698 95.312 177.207 95.256 177.748C95.2 178.28 95.144 178.793 95.088 179.288C95.032 179.783 94.976 180.217 94.92 180.59H93.59C93.6553 180.207 93.716 179.759 93.772 179.246C93.8373 178.733 93.8933 178.205 93.94 177.664C93.996 177.113 94.038 176.6 94.066 176.124ZM94.01 179.358H103.026V180.604H94.01V179.358ZM91.77 182.116H100.982V183.39H91.77V182.116ZM100.744 173.968H100.87L101.094 173.912L102.088 174.01C102.06 174.449 102.018 174.929 101.962 175.452C101.915 175.965 101.864 176.493 101.808 177.034C101.752 177.575 101.691 178.117 101.626 178.658C101.561 179.19 101.495 179.694 101.43 180.17L100.114 180.058C100.179 179.582 100.24 179.073 100.296 178.532C100.361 177.981 100.422 177.435 100.478 176.894C100.543 176.343 100.595 175.83 100.632 175.354C100.679 174.869 100.716 174.458 100.744 174.122V173.968ZM105.756 179.344H118.258V180.618H105.756V179.344ZM106.428 174.794H117.698V176.068H106.428V174.794ZM111.3 173.184H112.7V186.162H111.3V173.184ZM115.458 176.194L116.844 176.614C116.676 176.931 116.499 177.258 116.312 177.594C116.135 177.921 115.953 178.233 115.766 178.532C115.589 178.821 115.421 179.083 115.262 179.316L114.128 178.924C114.287 178.681 114.445 178.401 114.604 178.084C114.772 177.757 114.931 177.431 115.08 177.104C115.229 176.768 115.355 176.465 115.458 176.194ZM107.464 176.684L108.654 176.25C108.831 176.511 109.004 176.796 109.172 177.104C109.349 177.412 109.503 177.715 109.634 178.014C109.765 178.303 109.863 178.565 109.928 178.798L108.668 179.302C108.612 179.069 108.523 178.803 108.402 178.504C108.281 178.196 108.136 177.883 107.968 177.566C107.809 177.249 107.641 176.955 107.464 176.684ZM111.02 179.848L112.084 180.296C111.757 180.847 111.375 181.383 110.936 181.906C110.507 182.419 110.04 182.909 109.536 183.376C109.032 183.833 108.509 184.253 107.968 184.636C107.436 185.019 106.899 185.345 106.358 185.616C106.293 185.504 106.204 185.378 106.092 185.238C105.98 185.107 105.863 184.977 105.742 184.846C105.63 184.706 105.518 184.594 105.406 184.51C105.938 184.286 106.475 184.006 107.016 183.67C107.557 183.334 108.075 182.961 108.57 182.55C109.065 182.13 109.522 181.691 109.942 181.234C110.362 180.777 110.721 180.315 111.02 179.848ZM113.008 179.862C113.307 180.329 113.661 180.791 114.072 181.248C114.492 181.705 114.949 182.144 115.444 182.564C115.939 182.975 116.452 183.348 116.984 183.684C117.525 184.02 118.062 184.305 118.594 184.538C118.501 184.622 118.393 184.734 118.272 184.874C118.151 185.005 118.034 185.135 117.922 185.266C117.819 185.406 117.735 185.537 117.67 185.658C117.129 185.387 116.587 185.061 116.046 184.678C115.505 184.295 114.982 183.871 114.478 183.404C113.983 182.928 113.517 182.429 113.078 181.906C112.649 181.383 112.271 180.851 111.944 180.31L113.008 179.862ZM121.254 184.062H130.858V185.28H121.254V184.062ZM120.498 177.118H131.628V186.092H130.298V178.336H121.786V186.12H120.498V177.118ZM119.77 174.024H132.202V175.312H119.77V174.024ZM123.858 174.822H125.048V177.902C125.048 178.434 124.983 178.98 124.852 179.54C124.731 180.091 124.474 180.618 124.082 181.122C123.699 181.617 123.135 182.046 122.388 182.41C122.341 182.317 122.267 182.209 122.164 182.088C122.071 181.967 121.968 181.85 121.856 181.738C121.753 181.617 121.66 181.523 121.576 181.458C122.257 181.15 122.761 180.8 123.088 180.408C123.415 180.007 123.625 179.591 123.718 179.162C123.811 178.733 123.858 178.303 123.858 177.874V174.822ZM126.84 174.808H128.1V180.226C128.1 180.441 128.128 180.576 128.184 180.632C128.24 180.679 128.38 180.702 128.604 180.702C128.651 180.702 128.735 180.702 128.856 180.702C128.987 180.702 129.131 180.702 129.29 180.702C129.449 180.702 129.593 180.702 129.724 180.702C129.864 180.702 129.967 180.702 130.032 180.702C130.153 180.702 130.237 180.697 130.284 180.688C130.331 180.669 130.363 180.646 130.382 180.618C130.513 180.711 130.685 180.805 130.9 180.898C131.115 180.982 131.32 181.043 131.516 181.08C131.432 181.407 131.283 181.635 131.068 181.766C130.863 181.887 130.559 181.948 130.158 181.948C130.093 181.948 129.976 181.948 129.808 181.948C129.64 181.948 129.463 181.948 129.276 181.948C129.089 181.948 128.917 181.948 128.758 181.948C128.599 181.948 128.487 181.948 128.422 181.948C127.993 181.948 127.661 181.897 127.428 181.794C127.204 181.691 127.05 181.519 126.966 181.276C126.882 181.024 126.84 180.679 126.84 180.24V174.808ZM133.546 184.132H146.426V185.406H133.546V184.132ZM137.494 174.57H138.922V184.986H137.494V174.57ZM140.91 174.57H142.338V185.056H140.91V174.57ZM144.522 177.062L145.81 177.496C145.623 178.047 145.409 178.607 145.166 179.176C144.933 179.745 144.695 180.296 144.452 180.828C144.219 181.351 143.99 181.822 143.766 182.242L142.576 181.808C142.8 181.397 143.033 180.921 143.276 180.38C143.519 179.829 143.747 179.265 143.962 178.686C144.186 178.107 144.373 177.566 144.522 177.062ZM134.078 177.496L135.24 177.062C135.473 177.575 135.711 178.121 135.954 178.7C136.206 179.279 136.435 179.843 136.64 180.394C136.845 180.935 137.009 181.411 137.13 181.822L135.856 182.354C135.753 181.934 135.604 181.449 135.408 180.898C135.212 180.338 134.997 179.759 134.764 179.162C134.531 178.565 134.302 178.009 134.078 177.496ZM133.98 173.996H146.09V175.312H133.98V173.996ZM149.422 186.68L149.058 185.77C149.637 185.555 150.08 185.275 150.388 184.93C150.696 184.585 150.85 184.174 150.85 183.698L150.654 182.438L151.424 183.586C151.312 183.698 151.186 183.777 151.046 183.824C150.915 183.871 150.78 183.894 150.64 183.894C150.323 183.894 150.047 183.801 149.814 183.614C149.581 183.418 149.464 183.143 149.464 182.788C149.464 182.424 149.581 182.149 149.814 181.962C150.057 181.766 150.337 181.668 150.654 181.668C151.093 181.668 151.424 181.827 151.648 182.144C151.881 182.461 151.998 182.886 151.998 183.418C151.998 184.183 151.765 184.855 151.298 185.434C150.841 186.013 150.215 186.428 149.422 186.68ZM161.742 176.628H174.314V177.846H161.742V176.628ZM162.736 174.332H173.362V175.508H162.736V174.332ZM165.144 173.184H166.488V177.216H165.144V173.184ZM169.554 173.184H170.912V177.216H169.554V173.184ZM167.314 177.3H168.686V183.124H167.314V177.3ZM164.486 181.598V182.648H171.598V181.598H164.486ZM164.486 179.666V180.702H171.598V179.666H164.486ZM163.198 178.714H172.928V183.6H163.198V178.714ZM169.162 184.496L169.918 183.656C170.441 183.824 170.963 184.006 171.486 184.202C172.018 184.398 172.517 184.589 172.984 184.776C173.46 184.953 173.871 185.121 174.216 185.28L173.264 186.176C172.947 186.017 172.564 185.84 172.116 185.644C171.677 185.457 171.206 185.261 170.702 185.056C170.198 184.86 169.685 184.673 169.162 184.496ZM165.872 183.67L167.02 184.454C166.647 184.687 166.208 184.911 165.704 185.126C165.209 185.35 164.696 185.555 164.164 185.742C163.641 185.929 163.142 186.087 162.666 186.218C162.563 186.078 162.419 185.915 162.232 185.728C162.055 185.551 161.896 185.401 161.756 185.28C162.232 185.159 162.731 185.009 163.254 184.832C163.777 184.655 164.267 184.463 164.724 184.258C165.191 184.053 165.573 183.857 165.872 183.67ZM181.496 177.496H182.798V181.22H181.496V177.496ZM179.746 174.346H184.142V175.522H179.144L179.746 174.346ZM183.764 174.346H184.072L184.338 174.276L185.192 174.906C184.949 175.261 184.669 175.634 184.352 176.026C184.035 176.418 183.708 176.791 183.372 177.146C183.036 177.491 182.705 177.795 182.378 178.056C182.285 177.935 182.159 177.799 182 177.65C181.851 177.491 181.72 177.365 181.608 177.272C181.879 177.039 182.154 176.768 182.434 176.46C182.714 176.143 182.971 175.821 183.204 175.494C183.437 175.167 183.624 174.873 183.764 174.612V174.346ZM177.254 177.076H178.528V183.698C178.528 183.978 178.57 184.193 178.654 184.342C178.747 184.491 178.92 184.594 179.172 184.65C179.433 184.697 179.821 184.72 180.334 184.72C180.483 184.72 180.726 184.72 181.062 184.72C181.398 184.72 181.781 184.72 182.21 184.72C182.639 184.72 183.069 184.72 183.498 184.72C183.937 184.72 184.333 184.72 184.688 184.72C185.052 184.72 185.323 184.72 185.5 184.72C185.957 184.72 186.298 184.669 186.522 184.566C186.755 184.454 186.919 184.244 187.012 183.936C187.115 183.619 187.194 183.161 187.25 182.564C187.418 182.667 187.623 182.765 187.866 182.858C188.118 182.942 188.337 183.003 188.524 183.04C188.449 183.6 188.356 184.067 188.244 184.44C188.132 184.813 187.969 185.107 187.754 185.322C187.549 185.546 187.264 185.705 186.9 185.798C186.545 185.891 186.093 185.938 185.542 185.938C185.439 185.938 185.257 185.938 184.996 185.938C184.735 185.938 184.422 185.938 184.058 185.938C183.703 185.938 183.33 185.938 182.938 185.938C182.555 185.938 182.187 185.938 181.832 185.938C181.477 185.938 181.169 185.938 180.908 185.938C180.656 185.938 180.483 185.938 180.39 185.938C179.597 185.938 178.967 185.877 178.5 185.756C178.043 185.635 177.721 185.411 177.534 185.084C177.347 184.757 177.254 184.295 177.254 183.698V177.076ZM179.83 173.114L181.034 173.562C180.661 174.262 180.213 174.943 179.69 175.606C179.167 176.259 178.607 176.866 178.01 177.426C177.413 177.977 176.806 178.462 176.19 178.882C176.153 178.789 176.092 178.663 176.008 178.504C175.924 178.345 175.831 178.187 175.728 178.028C175.635 177.86 175.551 177.729 175.476 177.636C176.036 177.291 176.587 176.885 177.128 176.418C177.679 175.942 178.187 175.424 178.654 174.864C179.121 174.304 179.513 173.721 179.83 173.114ZM178.262 177.076H187.11V182.214H185.794V178.294H178.262V177.076ZM178.262 180.408H186.424V181.668H178.262V180.408ZM193.746 179.722L194.628 179.064C195.375 179.475 195.991 179.932 196.476 180.436C196.961 180.94 197.325 181.453 197.568 181.976C197.811 182.499 197.941 183.003 197.96 183.488C197.988 183.964 197.918 184.393 197.75 184.776C197.582 185.149 197.33 185.434 196.994 185.63C196.742 185.807 196.495 185.924 196.252 185.98C196.019 186.045 195.739 186.083 195.412 186.092C195.244 186.092 195.053 186.087 194.838 186.078C194.633 186.069 194.418 186.059 194.194 186.05C194.185 185.873 194.147 185.667 194.082 185.434C194.026 185.21 193.942 185.014 193.83 184.846C194.091 184.874 194.339 184.893 194.572 184.902C194.815 184.911 195.02 184.916 195.188 184.916C195.375 184.916 195.547 184.902 195.706 184.874C195.874 184.846 196.023 184.781 196.154 184.678C196.415 184.519 196.579 184.258 196.644 183.894C196.719 183.53 196.672 183.11 196.504 182.634C196.345 182.158 196.042 181.668 195.594 181.164C195.146 180.66 194.53 180.179 193.746 179.722ZM195.23 180.324L196.14 180.786C195.832 181.047 195.473 181.309 195.062 181.57C194.661 181.822 194.222 182.06 193.746 182.284C193.279 182.508 192.808 182.713 192.332 182.9C191.856 183.077 191.394 183.227 190.946 183.348C190.862 183.217 190.75 183.063 190.61 182.886C190.47 182.699 190.339 182.55 190.218 182.438C190.806 182.307 191.417 182.135 192.052 181.92C192.687 181.696 193.284 181.449 193.844 181.178C194.404 180.907 194.866 180.623 195.23 180.324ZM196.294 181.696L197.246 182.2C196.863 182.545 196.415 182.881 195.902 183.208C195.398 183.525 194.857 183.829 194.278 184.118C193.709 184.398 193.13 184.655 192.542 184.888C191.954 185.112 191.385 185.303 190.834 185.462C190.75 185.313 190.633 185.14 190.484 184.944C190.335 184.748 190.195 184.589 190.064 184.468C190.615 184.347 191.184 184.193 191.772 184.006C192.36 183.81 192.934 183.591 193.494 183.348C194.054 183.096 194.572 182.83 195.048 182.55C195.533 182.27 195.949 181.985 196.294 181.696ZM193.396 174.094H197.512V175.102H193.396V174.094ZM196.196 176.362L197.246 176.712C196.835 177.552 196.285 178.28 195.594 178.896C194.903 179.503 194.119 180.021 193.242 180.45C192.365 180.879 191.431 181.234 190.442 181.514C190.405 181.43 190.344 181.327 190.26 181.206C190.185 181.085 190.106 180.963 190.022 180.842C189.938 180.721 189.863 180.623 189.798 180.548C190.759 180.324 191.66 180.03 192.5 179.666C193.34 179.293 194.077 178.835 194.712 178.294C195.347 177.743 195.841 177.099 196.196 176.362ZM200.186 179.47L201.25 180.254C200.858 180.515 200.433 180.772 199.976 181.024C199.528 181.267 199.075 181.5 198.618 181.724C198.17 181.948 197.75 182.144 197.358 182.312L196.532 181.598C196.924 181.421 197.339 181.215 197.778 180.982C198.226 180.739 198.66 180.487 199.08 180.226C199.509 179.955 199.878 179.703 200.186 179.47ZM192.458 177.034V178.35H199.64V177.034H192.458ZM191.212 176.054H200.956V179.33H191.212V176.054ZM193.62 173.128L195.006 173.408C194.483 174.145 193.858 174.869 193.13 175.578C192.402 176.287 191.539 176.941 190.54 177.538C190.484 177.426 190.4 177.314 190.288 177.202C190.185 177.081 190.078 176.969 189.966 176.866C189.854 176.754 189.751 176.665 189.658 176.6C190.274 176.273 190.834 175.914 191.338 175.522C191.842 175.121 192.285 174.715 192.668 174.304C193.06 173.893 193.377 173.501 193.62 173.128ZM197.008 174.094H197.302L197.512 174.038L198.408 174.626C198.249 174.887 198.063 175.163 197.848 175.452C197.643 175.741 197.423 176.017 197.19 176.278C196.957 176.53 196.733 176.754 196.518 176.95C196.397 176.857 196.243 176.749 196.056 176.628C195.869 176.507 195.701 176.409 195.552 176.334C195.739 176.157 195.925 175.951 196.112 175.718C196.308 175.475 196.485 175.233 196.644 174.99C196.803 174.738 196.924 174.519 197.008 174.332V174.094ZM199.052 180.702C199.201 181.141 199.43 181.598 199.738 182.074C200.046 182.55 200.424 182.998 200.872 183.418C201.329 183.829 201.847 184.16 202.426 184.412C202.342 184.496 202.239 184.603 202.118 184.734C202.006 184.865 201.899 185 201.796 185.14C201.693 185.289 201.609 185.425 201.544 185.546C200.947 185.238 200.415 184.841 199.948 184.356C199.481 183.861 199.089 183.343 198.772 182.802C198.455 182.251 198.207 181.733 198.03 181.248L199.052 180.702ZM206.682 176.306L207.858 176.782C207.541 177.342 207.172 177.907 206.752 178.476C206.341 179.036 205.903 179.563 205.436 180.058C204.979 180.553 204.517 180.991 204.05 181.374C204.022 181.271 203.966 181.136 203.882 180.968C203.807 180.8 203.723 180.632 203.63 180.464C203.537 180.287 203.453 180.142 203.378 180.03C203.789 179.731 204.195 179.381 204.596 178.98C205.007 178.579 205.389 178.154 205.744 177.706C206.108 177.249 206.421 176.782 206.682 176.306ZM206.36 173.212L207.62 173.702C207.34 174.113 207.013 174.533 206.64 174.962C206.276 175.382 205.889 175.779 205.478 176.152C205.067 176.525 204.657 176.857 204.246 177.146C204.199 177.034 204.134 176.913 204.05 176.782C203.975 176.642 203.891 176.507 203.798 176.376C203.714 176.236 203.635 176.119 203.56 176.026C203.915 175.793 204.269 175.522 204.624 175.214C204.988 174.897 205.319 174.565 205.618 174.22C205.926 173.865 206.173 173.529 206.36 173.212ZM205.352 179.148L206.64 177.86L206.696 177.888V186.176H205.352V179.148ZM208.404 174.178H216.09V175.424H208.404V174.178ZM212.436 179.148H215.852V180.38H212.436V179.148ZM207.536 184.552H216.524V185.812H207.536V184.552ZM208.866 178.028H210.126V185.252H208.866V178.028ZM211.792 174.57H213.122V185.322H211.792V174.57ZM218.68 180.45H229.39V181.584H218.68V180.45ZM219.352 182.564H228.788V183.684H219.352V182.564ZM217.798 184.72H230.244V185.882H217.798V184.72ZM220.542 177.496V178.532H227.472V177.496H220.542ZM220.542 175.494V176.502H227.472V175.494H220.542ZM219.212 174.444H228.844V179.582H219.212V174.444ZM223.37 181.01H224.756V185.322H223.37V181.01ZM223.3 173.184L224.91 173.324C224.77 173.669 224.616 173.996 224.448 174.304C224.289 174.612 224.145 174.883 224.014 175.116L222.684 174.92C222.805 174.668 222.922 174.379 223.034 174.052C223.146 173.725 223.235 173.436 223.3 173.184ZM237.3 180.576H238.658V185.168H237.3V180.576ZM233.408 176.656H242.676V177.804H233.408V176.656ZM231.812 184.608H244.244V185.784H231.812V184.608ZM233.072 181.878H243.054V183.026H233.072V181.878ZM239.456 178.378L240.422 177.748C240.739 177.991 241.071 178.266 241.416 178.574C241.771 178.873 242.107 179.176 242.424 179.484C242.741 179.783 242.993 180.053 243.18 180.296L242.158 181.024C241.981 180.772 241.738 180.492 241.43 180.184C241.131 179.876 240.805 179.563 240.45 179.246C240.105 178.929 239.773 178.639 239.456 178.378ZM231.924 174.374H244.09V176.95H242.746V175.578H233.212V176.95H231.924V174.374ZM233.66 180.884C233.641 180.8 233.609 180.688 233.562 180.548C233.515 180.399 233.469 180.249 233.422 180.1C233.375 179.941 233.329 179.811 233.282 179.708C233.422 179.68 233.571 179.624 233.73 179.54C233.898 179.456 234.071 179.344 234.248 179.204C234.388 179.111 234.603 178.947 234.892 178.714C235.191 178.471 235.513 178.182 235.858 177.846C236.213 177.51 236.539 177.16 236.838 176.796L237.888 177.524C237.375 178.047 236.819 178.551 236.222 179.036C235.625 179.512 235.032 179.927 234.444 180.282V180.31C234.444 180.31 234.402 180.329 234.318 180.366C234.243 180.394 234.155 180.441 234.052 180.506C233.949 180.562 233.856 180.623 233.772 180.688C233.697 180.753 233.66 180.819 233.66 180.884ZM233.66 180.884L233.632 180.03L234.36 179.624L241.584 179.12C241.603 179.269 241.631 179.442 241.668 179.638C241.715 179.825 241.757 179.974 241.794 180.086C240.413 180.198 239.26 180.291 238.336 180.366C237.412 180.441 236.661 180.506 236.082 180.562C235.513 180.609 235.069 180.651 234.752 180.688C234.435 180.716 234.197 180.749 234.038 180.786C233.889 180.814 233.763 180.847 233.66 180.884ZM236.992 173.38L238.28 173.016C238.429 173.268 238.579 173.543 238.728 173.842C238.877 174.141 238.98 174.402 239.036 174.626L237.678 175.046C237.631 174.822 237.543 174.556 237.412 174.248C237.281 173.931 237.141 173.641 236.992 173.38Z" fill="#718096"/>
<path d="M134.589 232.224C133.831 232.224 133.154 232.091 132.557 231.824C131.959 231.557 131.485 231.184 131.133 230.704C130.791 230.224 130.621 229.675 130.621 229.056C130.621 228.544 130.711 228.096 130.893 227.712C131.085 227.317 131.335 226.976 131.645 226.688C131.954 226.4 132.29 226.16 132.653 225.968V225.888C132.205 225.568 131.831 225.179 131.533 224.72C131.234 224.251 131.085 223.707 131.085 223.088C131.085 222.448 131.239 221.893 131.549 221.424C131.858 220.955 132.279 220.592 132.813 220.336C133.357 220.08 133.97 219.952 134.653 219.952C135.357 219.952 135.965 220.085 136.477 220.352C136.989 220.608 137.383 220.971 137.661 221.44C137.949 221.909 138.093 222.464 138.093 223.104C138.093 223.488 138.018 223.851 137.869 224.192C137.73 224.533 137.543 224.843 137.309 225.12C137.085 225.387 136.839 225.616 136.573 225.808V225.888C136.946 226.08 137.282 226.32 137.581 226.608C137.879 226.896 138.119 227.243 138.301 227.648C138.482 228.043 138.573 228.512 138.573 229.056C138.573 229.653 138.402 230.192 138.061 230.672C137.73 231.152 137.266 231.531 136.669 231.808C136.071 232.085 135.378 232.224 134.589 232.224ZM135.325 225.232C135.613 224.923 135.826 224.603 135.965 224.272C136.103 223.941 136.173 223.6 136.173 223.248C136.173 222.928 136.109 222.645 135.981 222.4C135.863 222.144 135.687 221.947 135.453 221.808C135.218 221.669 134.935 221.6 134.605 221.6C134.199 221.6 133.858 221.728 133.581 221.984C133.303 222.24 133.165 222.608 133.165 223.088C133.165 223.451 133.255 223.765 133.437 224.032C133.629 224.288 133.89 224.512 134.221 224.704C134.551 224.885 134.919 225.061 135.325 225.232ZM134.637 230.56C134.978 230.56 135.277 230.501 135.533 230.384C135.799 230.256 136.007 230.075 136.157 229.84C136.306 229.595 136.381 229.307 136.381 228.976C136.381 228.667 136.311 228.4 136.173 228.176C136.045 227.941 135.863 227.739 135.629 227.568C135.394 227.387 135.117 227.221 134.797 227.072C134.477 226.923 134.125 226.763 133.741 226.592C133.421 226.859 133.159 227.184 132.957 227.568C132.754 227.941 132.653 228.352 132.653 228.8C132.653 229.152 132.738 229.461 132.909 229.728C133.09 229.984 133.33 230.187 133.629 230.336C133.927 230.485 134.263 230.56 134.637 230.56ZM148.139 229.728H157.243V230.816H148.139V229.728ZM146.699 222.992H157.627V226.576H146.699V225.44H156.187V224.144H146.699V222.992ZM147.419 227.472H157.227V228.608H148.779V233.28H147.419V227.472ZM156.603 227.472H158.011V232.048C158.011 232.368 157.969 232.608 157.883 232.768C157.809 232.928 157.665 233.056 157.451 233.152C157.227 233.237 156.945 233.291 156.603 233.312C156.262 233.333 155.851 233.344 155.371 233.344C155.339 233.173 155.286 232.987 155.211 232.784C155.137 232.592 155.057 232.416 154.971 232.256C155.291 232.267 155.579 232.272 155.835 232.272C156.102 232.272 156.278 232.272 156.363 232.272C156.459 232.272 156.523 232.256 156.555 232.224C156.587 232.192 156.603 232.133 156.603 232.048V227.472ZM150.491 228.016H151.755V232.928H150.491V228.016ZM153.483 228.016H154.747V232.928H153.483V228.016ZM146.203 219.696H151.227V220.848H146.203V219.696ZM152.443 219.696H158.603V220.848H152.443V219.696ZM146.395 218.4L147.819 218.768C147.606 219.291 147.355 219.813 147.067 220.336C146.79 220.848 146.486 221.328 146.155 221.776C145.835 222.224 145.51 222.619 145.179 222.96C145.094 222.885 144.971 222.8 144.811 222.704C144.662 222.597 144.507 222.496 144.347 222.4C144.187 222.293 144.049 222.208 143.931 222.144C144.443 221.685 144.918 221.125 145.355 220.464C145.793 219.792 146.139 219.104 146.395 218.4ZM152.795 218.4L154.235 218.752C153.979 219.403 153.638 220.032 153.211 220.64C152.795 221.237 152.358 221.744 151.899 222.16C151.803 222.075 151.675 221.989 151.515 221.904C151.355 221.808 151.19 221.717 151.019 221.632C150.859 221.547 150.715 221.477 150.587 221.424C151.067 221.061 151.499 220.613 151.883 220.08C152.278 219.536 152.582 218.976 152.795 218.4ZM147.163 220.576L148.427 220.16C148.63 220.448 148.827 220.773 149.019 221.136C149.211 221.488 149.355 221.797 149.451 222.064L148.123 222.528C148.049 222.261 147.921 221.947 147.739 221.584C147.558 221.211 147.366 220.875 147.163 220.576ZM154.027 220.56L155.323 220.096C155.579 220.373 155.835 220.693 156.091 221.056C156.347 221.408 156.539 221.723 156.667 222L155.291 222.512C155.185 222.256 155.009 221.941 154.763 221.568C154.518 221.195 154.273 220.859 154.027 220.56ZM146.059 222.992H147.467V225.632C147.467 226.453 147.419 227.317 147.323 228.224C147.238 229.12 147.041 230.011 146.731 230.896C146.433 231.771 145.958 232.597 145.307 233.376C145.222 233.269 145.11 233.157 144.971 233.04C144.833 232.923 144.689 232.805 144.539 232.688C144.39 232.571 144.251 232.48 144.123 232.416C144.71 231.723 145.142 230.987 145.419 230.208C145.697 229.429 145.873 228.651 145.947 227.872C146.022 227.083 146.059 226.331 146.059 225.616V222.992ZM150.603 222.112L151.963 221.6C152.145 221.845 152.331 222.117 152.523 222.416C152.715 222.715 152.854 222.981 152.939 223.216L151.515 223.792C151.43 223.557 151.302 223.285 151.131 222.976C150.961 222.656 150.785 222.368 150.603 222.112ZM171.191 221.952L172.759 222.384C172.098 224.336 171.239 226.016 170.183 227.424C169.138 228.832 167.879 230.016 166.407 230.976C164.935 231.925 163.223 232.704 161.271 233.312C161.207 233.195 161.122 233.045 161.015 232.864C160.909 232.683 160.791 232.501 160.663 232.32C160.546 232.149 160.434 232.005 160.327 231.888C162.237 231.376 163.895 230.688 165.303 229.824C166.711 228.96 167.901 227.883 168.871 226.592C169.842 225.301 170.615 223.755 171.191 221.952ZM164.391 222.048C164.978 223.659 165.773 225.12 166.775 226.432C167.789 227.733 169.01 228.843 170.439 229.76C171.879 230.677 173.527 231.365 175.383 231.824C175.277 231.931 175.154 232.069 175.015 232.24C174.887 232.411 174.765 232.581 174.647 232.752C174.53 232.923 174.434 233.083 174.359 233.232C172.429 232.699 170.733 231.936 169.271 230.944C167.821 229.952 166.578 228.747 165.543 227.328C164.519 225.899 163.671 224.283 162.999 222.48L164.391 222.048ZM160.599 221.264H175.143V222.736H160.599V221.264ZM166.519 218.832L168.119 218.352C168.354 218.736 168.583 219.157 168.807 219.616C169.042 220.075 169.207 220.475 169.303 220.816L167.623 221.344C167.538 221.013 167.389 220.613 167.175 220.144C166.962 219.664 166.743 219.227 166.519 218.832ZM176.867 230.304H191.379V231.52H176.867V230.304ZM183.299 228.864H184.899V233.344H183.299V228.864ZM180.147 227.312V228.288H188.067V227.312H180.147ZM180.147 225.36V226.32H188.067V225.36H180.147ZM178.675 224.304H189.603V229.344H178.675V224.304ZM177.939 219.696H190.371V220.896H177.939V219.696ZM176.899 222.368H191.363V223.584H176.899V222.368ZM186.547 220.848L188.147 221.152C187.966 221.493 187.79 221.819 187.619 222.128C187.449 222.437 187.289 222.709 187.139 222.944L185.683 222.656C185.779 222.475 185.881 222.283 185.987 222.08C186.105 221.867 186.211 221.653 186.307 221.44C186.414 221.216 186.494 221.019 186.547 220.848ZM180.227 221.2L181.667 220.88C181.838 221.136 181.998 221.424 182.147 221.744C182.297 222.053 182.409 222.331 182.483 222.576L180.979 222.96C180.915 222.715 180.809 222.427 180.659 222.096C180.521 221.765 180.377 221.467 180.227 221.2ZM182.931 218.608L184.435 218.272C184.606 218.549 184.766 218.853 184.915 219.184C185.075 219.515 185.198 219.808 185.283 220.064L183.731 220.448C183.657 220.192 183.539 219.893 183.379 219.552C183.23 219.2 183.081 218.885 182.931 218.608Z" fill="#168AFF"/>
</g>
<defs>
<clipPath id="clip0_147_3229">
<rect width="322" height="278" fill="white"/>
</clipPath>
</defs>
</svg>
