<svg width="322" height="278" viewBox="0 0 322 278" fill="none" xmlns="http://www.w3.org/2000/svg">
<g clip-path="url(#clip0_147_3230)">
<path fill-rule="evenodd" clip-rule="evenodd" d="M0 16C0 7.16344 7.16344 0 16 0H306C314.837 0 322 7.16344 322 16V262C322 270.837 314.837 278 306 278H16C7.16343 278 0 270.837 0 262V16Z" fill="#FAFAFA"/>
<path fill-rule="evenodd" clip-rule="evenodd" d="M129 72C129 54.3269 143.327 40 161 40C178.673 40 193 54.3269 193 72C193 89.6731 178.673 104 161 104C143.327 104 129 89.6731 129 72Z" fill="white"/>
<mask id="mask0_147_3230" style="mask-type:luminance" maskUnits="userSpaceOnUse" x="129" y="40" width="64" height="64">
<path fill-rule="evenodd" clip-rule="evenodd" d="M129 72C129 54.3269 143.327 40 161 40C178.673 40 193 54.3269 193 72C193 89.6731 178.673 104 161 104C143.327 104 129 89.6731 129 72Z" fill="white"/>
</mask>
<g mask="url(#mask0_147_3230)">
<path fill-rule="evenodd" clip-rule="evenodd" d="M157 70.6667C159.946 70.6667 162.333 68.2789 162.333 65.3333C162.333 62.3878 159.946 60 157 60C154.055 60 151.667 62.3878 151.667 65.3333C151.667 68.2789 154.055 70.6667 157 70.6667Z" stroke="#168AFF" stroke-width="2" stroke-linecap="round" stroke-linejoin="round"/>
<path d="M149 84V81.3333C149 79.9188 149.562 78.5623 150.562 77.5621C151.562 76.5619 152.919 76 154.333 76H159.667C161.081 76 162.438 76.5619 163.438 77.5621C164.438 78.5623 165 79.9188 165 81.3333V84" stroke="#168AFF" stroke-width="2" stroke-linecap="round" stroke-linejoin="round"/>
<path d="M166.333 60.1729C167.48 60.4666 168.497 61.1338 169.223 62.0693C169.95 63.0047 170.344 64.1553 170.344 65.3395C170.344 66.5238 169.95 67.6743 169.223 68.6098C168.497 69.5452 167.48 70.2125 166.333 70.5062" stroke="#168AFF" stroke-width="2" stroke-linecap="round" stroke-linejoin="round"/>
<path d="M173 84.0002V81.3335C172.993 80.1564 172.597 79.0146 171.874 78.0861C171.15 77.1575 170.14 76.4945 169 76.2002" stroke="#168AFF" stroke-width="2" stroke-linecap="round" stroke-linejoin="round"/>
</g>
<path d="M122.5 135.1H139.6V139.58H137.66V136.88H124.38V139.58H122.5V135.1ZM125.74 138.9H136.18V140.6H125.74V138.9ZM122.24 142.6H139.78V144.4H122.24V142.6ZM130.02 143.54H131.96V149.52C131.96 150.027 131.893 150.413 131.76 150.68C131.64 150.96 131.393 151.173 131.02 151.32C130.647 151.453 130.18 151.533 129.62 151.56C129.073 151.587 128.407 151.6 127.62 151.6C127.58 151.333 127.5 151.027 127.38 150.68C127.26 150.347 127.133 150.053 127 149.8C127.373 149.8 127.733 149.807 128.08 149.82C128.44 149.833 128.753 149.84 129.02 149.84C129.3 149.827 129.493 149.82 129.6 149.82C129.76 149.807 129.867 149.78 129.92 149.74C129.987 149.7 130.02 149.613 130.02 149.48V143.54ZM125.48 145.58L127.34 146.18C127.02 146.753 126.633 147.327 126.18 147.9C125.74 148.473 125.273 149.007 124.78 149.5C124.3 149.993 123.833 150.427 123.38 150.8C123.26 150.68 123.1 150.54 122.9 150.38C122.713 150.233 122.52 150.087 122.32 149.94C122.12 149.78 121.947 149.653 121.8 149.56C122.507 149.08 123.193 148.487 123.86 147.78C124.527 147.06 125.067 146.327 125.48 145.58ZM134.44 146.5L136.02 145.62C136.473 146.033 136.947 146.493 137.44 147C137.933 147.507 138.393 148.013 138.82 148.52C139.247 149.013 139.593 149.46 139.86 149.86L138.16 150.88C137.92 150.48 137.587 150.027 137.16 149.52C136.747 149.013 136.3 148.5 135.82 147.98C135.353 147.447 134.893 146.953 134.44 146.5ZM129.46 133.38L131.28 132.86C131.533 133.26 131.78 133.7 132.02 134.18C132.26 134.647 132.427 135.053 132.52 135.4L130.58 136C130.5 135.653 130.353 135.233 130.14 134.74C129.927 134.247 129.7 133.793 129.46 133.38ZM143.42 141.34H149.3V142.84H143.42V141.34ZM142.52 135.08H149.02V136.7H142.52V135.08ZM141.72 138.42H151.44V140.06H141.72V138.42ZM145 133.12H146.76V139.24H145V133.12ZM150.38 133.58L152.14 134.08C151.167 136.56 149.88 138.74 148.28 140.62C146.693 142.5 144.873 144.033 142.82 145.22C142.74 145.087 142.62 144.933 142.46 144.76C142.3 144.573 142.133 144.393 141.96 144.22C141.8 144.033 141.653 143.887 141.52 143.78C143.547 142.727 145.313 141.333 146.82 139.6C148.34 137.853 149.527 135.847 150.38 133.58ZM145.86 144.46H147.64V149.8C147.64 150.227 147.587 150.56 147.48 150.8C147.373 151.053 147.167 151.247 146.86 151.38C146.54 151.513 146.147 151.593 145.68 151.62C145.227 151.647 144.687 151.66 144.06 151.66C144.02 151.407 143.947 151.127 143.84 150.82C143.733 150.527 143.613 150.267 143.48 150.04C143.947 150.053 144.367 150.06 144.74 150.06C145.127 150.06 145.387 150.053 145.52 150.04C145.653 150.04 145.74 150.02 145.78 149.98C145.833 149.94 145.86 149.867 145.86 149.76V144.46ZM148.9 141.34H149.3L149.64 141.24L150.72 142.04C150.187 142.653 149.56 143.267 148.84 143.88C148.133 144.493 147.447 145.007 146.78 145.42C146.673 145.273 146.52 145.107 146.32 144.92C146.133 144.72 145.973 144.567 145.84 144.46C146.227 144.207 146.613 143.92 147 143.6C147.387 143.267 147.747 142.933 148.08 142.6C148.413 142.253 148.687 141.933 148.9 141.64V141.34ZM141.68 146.16C142.507 146.08 143.453 145.993 144.52 145.9C145.6 145.807 146.74 145.707 147.94 145.6C149.153 145.48 150.36 145.367 151.56 145.26V146.88C150.413 147 149.26 147.12 148.1 147.24C146.94 147.36 145.827 147.473 144.76 147.58C143.693 147.687 142.733 147.78 141.88 147.86L141.68 146.16ZM153.08 136.82H160.3V138.56H153.08V136.82ZM153.5 133.1L155.4 133.42C155.173 134.7 154.887 135.947 154.54 137.16C154.193 138.373 153.787 139.5 153.32 140.54C152.867 141.58 152.34 142.493 151.74 143.28C151.647 143.16 151.507 143.013 151.32 142.84C151.133 142.667 150.94 142.5 150.74 142.34C150.54 142.18 150.367 142.053 150.22 141.96C150.78 141.267 151.267 140.453 151.68 139.52C152.107 138.587 152.467 137.573 152.76 136.48C153.067 135.387 153.313 134.26 153.5 133.1ZM157.2 137.82L159.12 138.02C158.813 140.313 158.347 142.333 157.72 144.08C157.107 145.813 156.26 147.313 155.18 148.58C154.113 149.833 152.74 150.893 151.06 151.76C151.007 151.6 150.913 151.413 150.78 151.2C150.647 150.987 150.507 150.773 150.36 150.56C150.213 150.347 150.08 150.173 149.96 150.04C151.507 149.333 152.767 148.42 153.74 147.3C154.727 146.18 155.487 144.833 156.02 143.26C156.567 141.687 156.96 139.873 157.2 137.82ZM154.08 138.24C154.36 140.013 154.76 141.68 155.28 143.24C155.813 144.787 156.5 146.153 157.34 147.34C158.193 148.513 159.24 149.42 160.48 150.06C160.333 150.18 160.173 150.333 160 150.52C159.827 150.72 159.667 150.92 159.52 151.12C159.373 151.333 159.247 151.527 159.14 151.7C157.82 150.913 156.72 149.873 155.84 148.58C154.96 147.287 154.24 145.793 153.68 144.1C153.133 142.393 152.693 140.533 152.36 138.52L154.08 138.24ZM168.66 139.28H178.54V140.8H168.66V139.28ZM168.66 142.14H178.54V143.66H168.66V142.14ZM169.52 149.42H177.66V150.96H169.52V149.42ZM167.22 136.34H180.06V137.9H167.22V136.34ZM168.38 145.1H178.76V151.6H177.08V146.64H170V151.66H168.38V145.1ZM171.8 133.72L173.42 133.1C173.7 133.5 173.98 133.947 174.26 134.44C174.54 134.933 174.747 135.36 174.88 135.72L173.22 136.46C173.087 136.087 172.88 135.647 172.6 135.14C172.333 134.62 172.067 134.147 171.8 133.72ZM165.94 133.2L167.62 133.7C167.233 134.82 166.773 135.933 166.24 137.04C165.707 138.147 165.127 139.193 164.5 140.18C163.887 141.167 163.247 142.04 162.58 142.8C162.513 142.653 162.42 142.467 162.3 142.24C162.193 142 162.073 141.767 161.94 141.54C161.807 141.3 161.68 141.113 161.56 140.98C162.147 140.34 162.713 139.607 163.26 138.78C163.807 137.94 164.307 137.047 164.76 136.1C165.227 135.14 165.62 134.173 165.94 133.2ZM164.28 138.56L166 136.82L166.02 136.84V151.74H164.28V138.56ZM192.14 133.5L193.42 134.9C192.66 135.22 191.82 135.527 190.9 135.82C189.98 136.113 189.107 136.367 188.28 136.58C188.24 136.393 188.167 136.173 188.06 135.92C187.953 135.653 187.847 135.433 187.74 135.26C188.26 135.1 188.787 134.927 189.32 134.74C189.867 134.54 190.387 134.333 190.88 134.12C191.373 133.893 191.793 133.687 192.14 133.5ZM193.22 135.46H198.92V137.12H195.04V151.68H193.22V135.46ZM197.76 135.46H199.58V146.36C199.58 146.8 199.527 147.16 199.42 147.44C199.327 147.72 199.133 147.94 198.84 148.1C198.547 148.247 198.187 148.34 197.76 148.38C197.333 148.42 196.807 148.44 196.18 148.44C196.153 148.267 196.107 148.073 196.04 147.86C195.987 147.647 195.913 147.433 195.82 147.22C195.74 146.993 195.653 146.8 195.56 146.64C195.987 146.653 196.373 146.66 196.72 146.66C197.08 146.66 197.32 146.66 197.44 146.66C197.653 146.66 197.76 146.547 197.76 146.32V135.46ZM187.8 148.74L187.58 147.12L188.28 146.48L192.42 145.08C192.42 145.32 192.44 145.593 192.48 145.9C192.52 146.207 192.553 146.46 192.58 146.66C191.633 147.02 190.867 147.32 190.28 147.56C189.707 147.8 189.253 147.993 188.92 148.14C188.587 148.273 188.34 148.387 188.18 148.48C188.02 148.573 187.893 148.66 187.8 148.74ZM185.54 133.12L187.3 133.62C186.927 134.78 186.48 135.94 185.96 137.1C185.453 138.247 184.9 139.34 184.3 140.38C183.7 141.407 183.073 142.313 182.42 143.1C182.367 142.953 182.28 142.753 182.16 142.5C182.053 142.233 181.933 141.973 181.8 141.72C181.667 141.467 181.553 141.26 181.46 141.1C182.02 140.433 182.553 139.673 183.06 138.82C183.567 137.967 184.033 137.053 184.46 136.08C184.887 135.107 185.247 134.12 185.54 133.12ZM183.92 138.36L185.68 136.6L185.74 136.64V151.68H183.92V138.36ZM187.8 148.74C187.747 148.62 187.667 148.48 187.56 148.32C187.453 148.147 187.34 147.98 187.22 147.82C187.1 147.66 186.993 147.533 186.9 147.44C187.073 147.293 187.253 147.08 187.44 146.8C187.64 146.507 187.74 146.113 187.74 145.62V135.26H189.44V146.8C189.44 146.8 189.353 146.873 189.18 147.02C189.007 147.153 188.813 147.327 188.6 147.54C188.4 147.74 188.213 147.953 188.04 148.18C187.88 148.393 187.8 148.58 187.8 148.74Z" fill="#111827"/>
<path d="M88.2 177.356H97.482V178.588H88.2V177.356ZM89.124 174.108H96.53V182.55H95.228V175.354H89.124V174.108ZM88.956 180.618H95.942V181.85H88.956V180.618ZM91.476 174.542H92.792V179.19C92.792 179.685 92.764 180.193 92.708 180.716C92.6613 181.229 92.5633 181.743 92.414 182.256C92.274 182.76 92.064 183.255 91.784 183.74C91.5133 184.216 91.1493 184.664 90.692 185.084C90.244 185.504 89.684 185.882 89.012 186.218C88.9467 186.134 88.8627 186.027 88.76 185.896C88.6573 185.775 88.55 185.649 88.438 185.518C88.326 185.397 88.2187 185.294 88.116 185.21C88.7413 184.939 89.2593 184.622 89.67 184.258C90.09 183.894 90.4213 183.502 90.664 183.082C90.9067 182.662 91.084 182.233 91.196 181.794C91.3173 181.355 91.392 180.917 91.42 180.478C91.4573 180.03 91.476 179.601 91.476 179.19V174.542ZM87.738 173.212L88.97 173.618C88.6527 174.402 88.2793 175.186 87.85 175.97C87.43 176.745 86.9727 177.477 86.478 178.168C85.9833 178.849 85.47 179.451 84.938 179.974C84.9007 179.862 84.84 179.722 84.756 179.554C84.672 179.386 84.5833 179.218 84.49 179.05C84.3967 178.882 84.308 178.742 84.224 178.63C84.6907 178.191 85.1387 177.687 85.568 177.118C86.0067 176.539 86.4127 175.919 86.786 175.256C87.1593 174.584 87.4767 173.903 87.738 173.212ZM86.324 176.936L87.584 175.676L87.598 175.69V186.162H86.324V176.936ZM98.672 174.948H105.42V176.11H98.672V174.948ZM100.366 177.216H103.824V178.238H100.366V177.216ZM100.366 179.372H103.852V180.408H100.366V179.372ZM98.49 181.626H105.49V182.788H98.49V181.626ZM99.778 173.338H100.982V182.088H99.778V173.338ZM103.264 173.338H104.482V182.088H103.264V173.338ZM100.366 182.998L101.612 183.362C101.388 183.866 101.094 184.365 100.73 184.86C100.366 185.345 100.002 185.751 99.638 186.078C99.5633 186.003 99.4607 185.915 99.33 185.812C99.2087 185.719 99.078 185.625 98.938 185.532C98.8073 185.439 98.6907 185.364 98.588 185.308C98.952 185.019 99.288 184.669 99.596 184.258C99.9133 183.847 100.17 183.427 100.366 182.998ZM102.326 183.516L103.376 183.026C103.609 183.297 103.847 183.6 104.09 183.936C104.342 184.272 104.529 184.566 104.65 184.818L103.544 185.378C103.432 185.126 103.259 184.823 103.026 184.468C102.793 184.113 102.559 183.796 102.326 183.516ZM106.414 177.86H111.51V179.078H106.414V177.86ZM108.906 178.49H110.152V186.176H108.906V178.49ZM110.376 173.17L111.44 174.122C110.983 174.337 110.469 174.542 109.9 174.738C109.331 174.934 108.743 175.111 108.136 175.27C107.539 175.419 106.951 175.555 106.372 175.676C106.335 175.536 106.274 175.368 106.19 175.172C106.115 174.976 106.036 174.808 105.952 174.668C106.484 174.547 107.021 174.407 107.562 174.248C108.113 174.089 108.635 173.917 109.13 173.73C109.625 173.534 110.04 173.347 110.376 173.17ZM105.952 174.668H107.17V179.638C107.17 180.497 107.119 181.323 107.016 182.116C106.923 182.909 106.727 183.67 106.428 184.398C106.139 185.117 105.7 185.793 105.112 186.428C105 186.288 104.851 186.139 104.664 185.98C104.487 185.821 104.323 185.686 104.174 185.574C104.697 184.995 105.084 184.384 105.336 183.74C105.588 183.096 105.751 182.429 105.826 181.738C105.91 181.047 105.952 180.343 105.952 179.624V174.668ZM114.94 173.758L116.046 173.212C116.251 173.464 116.461 173.735 116.676 174.024C116.891 174.304 117.087 174.584 117.264 174.864C117.441 175.144 117.581 175.396 117.684 175.62L116.494 176.25C116.401 176.026 116.27 175.769 116.102 175.48C115.934 175.191 115.747 174.897 115.542 174.598C115.337 174.299 115.136 174.019 114.94 173.758ZM121.828 173.184L123.2 173.604C122.995 173.977 122.771 174.36 122.528 174.752C122.295 175.144 122.057 175.517 121.814 175.872C121.581 176.227 121.357 176.539 121.142 176.81L120.008 176.418C120.223 176.129 120.442 175.797 120.666 175.424C120.89 175.051 121.105 174.668 121.31 174.276C121.525 173.875 121.697 173.511 121.828 173.184ZM114.016 180.142H123.76V181.458H114.016V180.142ZM112.728 184.23H125.216V185.546H112.728V184.23ZM113.218 176.264H124.796V177.58H113.218V176.264ZM127.694 178.938H131.81V179.988H127.694V178.938ZM127.064 174.556H131.614V175.69H127.064V174.556ZM126.504 176.894H133.308V178.042H126.504V176.894ZM128.8 173.184H130.032V177.468H128.8V173.184ZM132.566 173.506L133.798 173.856C133.117 175.592 132.216 177.118 131.096 178.434C129.985 179.75 128.711 180.823 127.274 181.654C127.218 181.561 127.134 181.453 127.022 181.332C126.91 181.201 126.793 181.075 126.672 180.954C126.56 180.823 126.457 180.721 126.364 180.646C127.783 179.909 129.019 178.933 130.074 177.72C131.138 176.497 131.969 175.093 132.566 173.506ZM129.402 181.122H130.648V184.86C130.648 185.159 130.611 185.392 130.536 185.56C130.461 185.737 130.317 185.873 130.102 185.966C129.878 186.059 129.603 186.115 129.276 186.134C128.959 186.153 128.581 186.162 128.142 186.162C128.114 185.985 128.063 185.789 127.988 185.574C127.913 185.369 127.829 185.187 127.736 185.028C128.063 185.037 128.357 185.042 128.618 185.042C128.889 185.042 129.071 185.037 129.164 185.028C129.257 185.028 129.318 185.014 129.346 184.986C129.383 184.958 129.402 184.907 129.402 184.832V181.122ZM131.53 178.938H131.81L132.048 178.868L132.804 179.428C132.431 179.857 131.992 180.287 131.488 180.716C130.993 181.145 130.513 181.505 130.046 181.794C129.971 181.691 129.864 181.575 129.724 181.444C129.593 181.304 129.481 181.197 129.388 181.122C129.659 180.945 129.929 180.744 130.2 180.52C130.471 180.287 130.723 180.053 130.956 179.82C131.189 179.577 131.381 179.353 131.53 179.148V178.938ZM126.476 182.312C127.055 182.256 127.717 182.195 128.464 182.13C129.22 182.065 130.018 181.995 130.858 181.92C131.707 181.836 132.552 181.757 133.392 181.682V182.816C132.589 182.9 131.782 182.984 130.97 183.068C130.158 183.152 129.379 183.231 128.632 183.306C127.885 183.381 127.213 183.446 126.616 183.502L126.476 182.312ZM134.456 175.774H139.51V176.992H134.456V175.774ZM134.75 173.17L136.08 173.394C135.921 174.29 135.721 175.163 135.478 176.012C135.235 176.861 134.951 177.65 134.624 178.378C134.307 179.106 133.938 179.745 133.518 180.296C133.453 180.212 133.355 180.109 133.224 179.988C133.093 179.867 132.958 179.75 132.818 179.638C132.678 179.526 132.557 179.437 132.454 179.372C132.846 178.887 133.187 178.317 133.476 177.664C133.775 177.011 134.027 176.301 134.232 175.536C134.447 174.771 134.619 173.982 134.75 173.17ZM137.34 176.474L138.684 176.614C138.469 178.219 138.143 179.633 137.704 180.856C137.275 182.069 136.682 183.119 135.926 184.006C135.179 184.883 134.218 185.625 133.042 186.232C133.005 186.12 132.939 185.989 132.846 185.84C132.753 185.691 132.655 185.541 132.552 185.392C132.449 185.243 132.356 185.121 132.272 185.028C133.355 184.533 134.237 183.894 134.918 183.11C135.609 182.326 136.141 181.383 136.514 180.282C136.897 179.181 137.172 177.911 137.34 176.474ZM135.156 176.768C135.352 178.009 135.632 179.176 135.996 180.268C136.369 181.351 136.85 182.307 137.438 183.138C138.035 183.959 138.768 184.594 139.636 185.042C139.533 185.126 139.421 185.233 139.3 185.364C139.179 185.504 139.067 185.644 138.964 185.784C138.861 185.933 138.773 186.069 138.698 186.19C137.774 185.639 137.004 184.911 136.388 184.006C135.772 183.101 135.268 182.055 134.876 180.87C134.493 179.675 134.185 178.373 133.952 176.964L135.156 176.768ZM143.71 185.854C143.421 185.499 143.099 185.135 142.744 184.762C142.399 184.389 142.044 184.029 141.68 183.684C141.325 183.339 140.985 183.031 140.658 182.76L141.806 181.752C142.142 182.023 142.497 182.34 142.87 182.704C143.243 183.059 143.607 183.427 143.962 183.81C144.326 184.183 144.639 184.529 144.9 184.846L143.71 185.854ZM159.376 178.014H165.704V176.39H158.396V175.256H166.894V179.148H159.376V178.014ZM158.62 178.014H159.782C159.726 178.434 159.661 178.882 159.586 179.358C159.511 179.834 159.437 180.291 159.362 180.73C159.297 181.169 159.231 181.551 159.166 181.878H157.976C158.051 181.533 158.125 181.141 158.2 180.702C158.284 180.254 158.363 179.797 158.438 179.33C158.513 178.863 158.573 178.425 158.62 178.014ZM158.802 180.744H166.474V181.878H158.522L158.802 180.744ZM166.138 180.744H167.3C167.3 180.744 167.3 180.8 167.3 180.912C167.3 181.024 167.295 181.117 167.286 181.192C167.277 181.911 167.253 182.503 167.216 182.97C167.188 183.427 167.151 183.787 167.104 184.048C167.057 184.3 166.987 184.482 166.894 184.594C166.801 184.706 166.698 184.79 166.586 184.846C166.474 184.902 166.339 184.944 166.18 184.972C166.049 184.991 165.867 185 165.634 185C165.41 185.009 165.172 185.009 164.92 185C164.911 184.823 164.883 184.631 164.836 184.426C164.789 184.211 164.724 184.034 164.64 183.894C164.845 183.913 165.027 183.927 165.186 183.936C165.354 183.936 165.475 183.936 165.55 183.936C165.709 183.945 165.825 183.908 165.9 183.824C165.947 183.749 165.984 183.614 166.012 183.418C166.04 183.222 166.063 182.923 166.082 182.522C166.11 182.121 166.129 181.584 166.138 180.912V180.744ZM163.226 173.352H164.402V186.162H163.226V173.352ZM160.734 173.338H161.896V179.876C161.896 180.548 161.859 181.192 161.784 181.808C161.709 182.424 161.56 183.003 161.336 183.544C161.112 184.085 160.79 184.585 160.37 185.042C159.95 185.499 159.395 185.896 158.704 186.232C158.648 186.148 158.569 186.05 158.466 185.938C158.373 185.835 158.275 185.728 158.172 185.616C158.069 185.513 157.976 185.429 157.892 185.364C158.517 185.056 159.017 184.701 159.39 184.3C159.773 183.889 160.057 183.451 160.244 182.984C160.44 182.508 160.571 182.009 160.636 181.486C160.701 180.963 160.734 180.427 160.734 179.876V173.338ZM157.528 173.24L158.788 173.618C158.48 174.411 158.121 175.2 157.71 175.984C157.299 176.768 156.856 177.505 156.38 178.196C155.904 178.887 155.414 179.498 154.91 180.03C154.863 179.918 154.798 179.778 154.714 179.61C154.63 179.442 154.537 179.269 154.434 179.092C154.341 178.915 154.257 178.779 154.182 178.686C154.63 178.238 155.059 177.725 155.47 177.146C155.89 176.567 156.277 175.942 156.632 175.27C156.987 174.598 157.285 173.921 157.528 173.24ZM156.128 176.95L157.374 175.704L157.388 175.718V186.162H156.128V176.95ZM169.694 178.938H173.81V179.988H169.694V178.938ZM169.064 174.556H173.614V175.69H169.064V174.556ZM168.504 176.894H175.308V178.042H168.504V176.894ZM170.8 173.184H172.032V177.468H170.8V173.184ZM174.566 173.506L175.798 173.856C175.117 175.592 174.216 177.118 173.096 178.434C171.985 179.75 170.711 180.823 169.274 181.654C169.218 181.561 169.134 181.453 169.022 181.332C168.91 181.201 168.793 181.075 168.672 180.954C168.56 180.823 168.457 180.721 168.364 180.646C169.783 179.909 171.019 178.933 172.074 177.72C173.138 176.497 173.969 175.093 174.566 173.506ZM171.402 181.122H172.648V184.86C172.648 185.159 172.611 185.392 172.536 185.56C172.461 185.737 172.317 185.873 172.102 185.966C171.878 186.059 171.603 186.115 171.276 186.134C170.959 186.153 170.581 186.162 170.142 186.162C170.114 185.985 170.063 185.789 169.988 185.574C169.913 185.369 169.829 185.187 169.736 185.028C170.063 185.037 170.357 185.042 170.618 185.042C170.889 185.042 171.071 185.037 171.164 185.028C171.257 185.028 171.318 185.014 171.346 184.986C171.383 184.958 171.402 184.907 171.402 184.832V181.122ZM173.53 178.938H173.81L174.048 178.868L174.804 179.428C174.431 179.857 173.992 180.287 173.488 180.716C172.993 181.145 172.513 181.505 172.046 181.794C171.971 181.691 171.864 181.575 171.724 181.444C171.593 181.304 171.481 181.197 171.388 181.122C171.659 180.945 171.929 180.744 172.2 180.52C172.471 180.287 172.723 180.053 172.956 179.82C173.189 179.577 173.381 179.353 173.53 179.148V178.938ZM168.476 182.312C169.055 182.256 169.717 182.195 170.464 182.13C171.22 182.065 172.018 181.995 172.858 181.92C173.707 181.836 174.552 181.757 175.392 181.682V182.816C174.589 182.9 173.782 182.984 172.97 183.068C172.158 183.152 171.379 183.231 170.632 183.306C169.885 183.381 169.213 183.446 168.616 183.502L168.476 182.312ZM176.456 175.774H181.51V176.992H176.456V175.774ZM176.75 173.17L178.08 173.394C177.921 174.29 177.721 175.163 177.478 176.012C177.235 176.861 176.951 177.65 176.624 178.378C176.307 179.106 175.938 179.745 175.518 180.296C175.453 180.212 175.355 180.109 175.224 179.988C175.093 179.867 174.958 179.75 174.818 179.638C174.678 179.526 174.557 179.437 174.454 179.372C174.846 178.887 175.187 178.317 175.476 177.664C175.775 177.011 176.027 176.301 176.232 175.536C176.447 174.771 176.619 173.982 176.75 173.17ZM179.34 176.474L180.684 176.614C180.469 178.219 180.143 179.633 179.704 180.856C179.275 182.069 178.682 183.119 177.926 184.006C177.179 184.883 176.218 185.625 175.042 186.232C175.005 186.12 174.939 185.989 174.846 185.84C174.753 185.691 174.655 185.541 174.552 185.392C174.449 185.243 174.356 185.121 174.272 185.028C175.355 184.533 176.237 183.894 176.918 183.11C177.609 182.326 178.141 181.383 178.514 180.282C178.897 179.181 179.172 177.911 179.34 176.474ZM177.156 176.768C177.352 178.009 177.632 179.176 177.996 180.268C178.369 181.351 178.85 182.307 179.438 183.138C180.035 183.959 180.768 184.594 181.636 185.042C181.533 185.126 181.421 185.233 181.3 185.364C181.179 185.504 181.067 185.644 180.964 185.784C180.861 185.933 180.773 186.069 180.698 186.19C179.774 185.639 179.004 184.911 178.388 184.006C177.772 183.101 177.268 182.055 176.876 180.87C176.493 179.675 176.185 178.373 175.952 176.964L177.156 176.768ZM185.71 185.854C185.421 185.499 185.099 185.135 184.744 184.762C184.399 184.389 184.044 184.029 183.68 183.684C183.325 183.339 182.985 183.031 182.658 182.76L183.806 181.752C184.142 182.023 184.497 182.34 184.87 182.704C185.243 183.059 185.607 183.427 185.962 183.81C186.326 184.183 186.639 184.529 186.9 184.846L185.71 185.854ZM203.714 179.162C204.162 180.562 204.876 181.761 205.856 182.76C206.836 183.759 208.087 184.468 209.608 184.888C209.505 184.991 209.393 185.112 209.272 185.252C209.16 185.392 209.053 185.537 208.95 185.686C208.847 185.845 208.763 185.985 208.698 186.106C207.634 185.761 206.701 185.28 205.898 184.664C205.105 184.048 204.428 183.306 203.868 182.438C203.308 181.561 202.841 180.571 202.468 179.47L203.714 179.162ZM197.414 174.192H208.53V175.55H197.414V174.192ZM196.91 178.462H209.118V179.82H196.91V178.462ZM202.202 174.654H203.588V177.118C203.588 177.697 203.551 178.308 203.476 178.952C203.401 179.596 203.247 180.249 203.014 180.912C202.79 181.565 202.449 182.209 201.992 182.844C201.535 183.479 200.933 184.076 200.186 184.636C199.439 185.187 198.501 185.686 197.372 186.134C197.316 186.022 197.237 185.896 197.134 185.756C197.041 185.616 196.938 185.476 196.826 185.336C196.714 185.196 196.607 185.084 196.504 185C197.54 184.608 198.403 184.165 199.094 183.67C199.785 183.166 200.335 182.634 200.746 182.074C201.166 181.514 201.479 180.949 201.684 180.38C201.899 179.801 202.039 179.237 202.104 178.686C202.169 178.126 202.202 177.599 202.202 177.104V174.654ZM211.386 175.914H222.586V177.216H211.386V175.914ZM212.072 180.016H221.97V181.29H212.072V180.016ZM210.756 184.426H223.3V185.714H210.756V184.426ZM216.272 176.992H217.728V185.098H216.272V176.992ZM215.054 173.954L216.146 173.198C216.445 173.403 216.762 173.637 217.098 173.898C217.434 174.159 217.751 174.421 218.05 174.682C218.358 174.943 218.605 175.186 218.792 175.41L217.616 176.25C217.448 176.035 217.219 175.793 216.93 175.522C216.65 175.242 216.342 174.967 216.006 174.696C215.679 174.416 215.362 174.169 215.054 173.954ZM225.694 178.938H229.81V179.988H225.694V178.938ZM225.064 174.556H229.614V175.69H225.064V174.556ZM224.504 176.894H231.308V178.042H224.504V176.894ZM226.8 173.184H228.032V177.468H226.8V173.184ZM230.566 173.506L231.798 173.856C231.117 175.592 230.216 177.118 229.096 178.434C227.985 179.75 226.711 180.823 225.274 181.654C225.218 181.561 225.134 181.453 225.022 181.332C224.91 181.201 224.793 181.075 224.672 180.954C224.56 180.823 224.457 180.721 224.364 180.646C225.783 179.909 227.019 178.933 228.074 177.72C229.138 176.497 229.969 175.093 230.566 173.506ZM227.402 181.122H228.648V184.86C228.648 185.159 228.611 185.392 228.536 185.56C228.461 185.737 228.317 185.873 228.102 185.966C227.878 186.059 227.603 186.115 227.276 186.134C226.959 186.153 226.581 186.162 226.142 186.162C226.114 185.985 226.063 185.789 225.988 185.574C225.913 185.369 225.829 185.187 225.736 185.028C226.063 185.037 226.357 185.042 226.618 185.042C226.889 185.042 227.071 185.037 227.164 185.028C227.257 185.028 227.318 185.014 227.346 184.986C227.383 184.958 227.402 184.907 227.402 184.832V181.122ZM229.53 178.938H229.81L230.048 178.868L230.804 179.428C230.431 179.857 229.992 180.287 229.488 180.716C228.993 181.145 228.513 181.505 228.046 181.794C227.971 181.691 227.864 181.575 227.724 181.444C227.593 181.304 227.481 181.197 227.388 181.122C227.659 180.945 227.929 180.744 228.2 180.52C228.471 180.287 228.723 180.053 228.956 179.82C229.189 179.577 229.381 179.353 229.53 179.148V178.938ZM224.476 182.312C225.055 182.256 225.717 182.195 226.464 182.13C227.22 182.065 228.018 181.995 228.858 181.92C229.707 181.836 230.552 181.757 231.392 181.682V182.816C230.589 182.9 229.782 182.984 228.97 183.068C228.158 183.152 227.379 183.231 226.632 183.306C225.885 183.381 225.213 183.446 224.616 183.502L224.476 182.312ZM232.456 175.774H237.51V176.992H232.456V175.774ZM232.75 173.17L234.08 173.394C233.921 174.29 233.721 175.163 233.478 176.012C233.235 176.861 232.951 177.65 232.624 178.378C232.307 179.106 231.938 179.745 231.518 180.296C231.453 180.212 231.355 180.109 231.224 179.988C231.093 179.867 230.958 179.75 230.818 179.638C230.678 179.526 230.557 179.437 230.454 179.372C230.846 178.887 231.187 178.317 231.476 177.664C231.775 177.011 232.027 176.301 232.232 175.536C232.447 174.771 232.619 173.982 232.75 173.17ZM235.34 176.474L236.684 176.614C236.469 178.219 236.143 179.633 235.704 180.856C235.275 182.069 234.682 183.119 233.926 184.006C233.179 184.883 232.218 185.625 231.042 186.232C231.005 186.12 230.939 185.989 230.846 185.84C230.753 185.691 230.655 185.541 230.552 185.392C230.449 185.243 230.356 185.121 230.272 185.028C231.355 184.533 232.237 183.894 232.918 183.11C233.609 182.326 234.141 181.383 234.514 180.282C234.897 179.181 235.172 177.911 235.34 176.474ZM233.156 176.768C233.352 178.009 233.632 179.176 233.996 180.268C234.369 181.351 234.85 182.307 235.438 183.138C236.035 183.959 236.768 184.594 237.636 185.042C237.533 185.126 237.421 185.233 237.3 185.364C237.179 185.504 237.067 185.644 236.964 185.784C236.861 185.933 236.773 186.069 236.698 186.19C235.774 185.639 235.004 184.911 234.388 184.006C233.772 183.101 233.268 182.055 232.876 180.87C232.493 179.675 232.185 178.373 231.952 176.964L233.156 176.768Z" fill="#718096"/>
<path d="M126.312 232V230.08H128.872V222.608H126.712V221.136C127.309 221.029 127.821 220.901 128.248 220.752C128.685 220.592 129.091 220.389 129.464 220.144H131.208V230.08H133.432V232H126.312ZM139.458 232.224C138.658 232.224 137.954 231.995 137.346 231.536C136.748 231.067 136.279 230.373 135.938 229.456C135.607 228.528 135.442 227.381 135.442 226.016C135.442 224.661 135.607 223.536 135.938 222.64C136.279 221.733 136.748 221.056 137.346 220.608C137.954 220.16 138.658 219.936 139.458 219.936C140.268 219.936 140.972 220.165 141.57 220.624C142.167 221.072 142.631 221.744 142.962 222.64C143.303 223.536 143.474 224.661 143.474 226.016C143.474 227.381 143.303 228.528 142.962 229.456C142.631 230.373 142.167 231.067 141.57 231.536C140.972 231.995 140.268 232.224 139.458 232.224ZM139.458 230.384C139.81 230.384 140.119 230.251 140.386 229.984C140.652 229.717 140.86 229.269 141.01 228.64C141.159 228 141.234 227.125 141.234 226.016C141.234 224.917 141.159 224.059 141.01 223.44C140.86 222.811 140.652 222.373 140.386 222.128C140.119 221.872 139.81 221.744 139.458 221.744C139.127 221.744 138.823 221.872 138.546 222.128C138.279 222.373 138.066 222.811 137.906 223.44C137.746 224.059 137.666 224.917 137.666 226.016C137.666 227.125 137.746 228 137.906 228.64C138.066 229.269 138.279 229.717 138.546 229.984C138.823 230.251 139.127 230.384 139.458 230.384ZM153.008 229.728H162.112V230.816H153.008V229.728ZM151.568 222.992H162.496V226.576H151.568V225.44H161.056V224.144H151.568V222.992ZM152.288 227.472H162.096V228.608H153.648V233.28H152.288V227.472ZM161.472 227.472H162.88V232.048C162.88 232.368 162.837 232.608 162.752 232.768C162.677 232.928 162.533 233.056 162.32 233.152C162.096 233.237 161.813 233.291 161.472 233.312C161.131 233.333 160.72 233.344 160.24 233.344C160.208 233.173 160.155 232.987 160.08 232.784C160.005 232.592 159.925 232.416 159.84 232.256C160.16 232.267 160.448 232.272 160.704 232.272C160.971 232.272 161.147 232.272 161.232 232.272C161.328 232.272 161.392 232.256 161.424 232.224C161.456 232.192 161.472 232.133 161.472 232.048V227.472ZM155.36 228.016H156.624V232.928H155.36V228.016ZM158.352 228.016H159.616V232.928H158.352V228.016ZM151.072 219.696H156.096V220.848H151.072V219.696ZM157.312 219.696H163.472V220.848H157.312V219.696ZM151.264 218.4L152.688 218.768C152.475 219.291 152.224 219.813 151.936 220.336C151.659 220.848 151.355 221.328 151.024 221.776C150.704 222.224 150.379 222.619 150.048 222.96C149.963 222.885 149.84 222.8 149.68 222.704C149.531 222.597 149.376 222.496 149.216 222.4C149.056 222.293 148.917 222.208 148.8 222.144C149.312 221.685 149.787 221.125 150.224 220.464C150.661 219.792 151.008 219.104 151.264 218.4ZM157.664 218.4L159.104 218.752C158.848 219.403 158.507 220.032 158.08 220.64C157.664 221.237 157.227 221.744 156.768 222.16C156.672 222.075 156.544 221.989 156.384 221.904C156.224 221.808 156.059 221.717 155.888 221.632C155.728 221.547 155.584 221.477 155.456 221.424C155.936 221.061 156.368 220.613 156.752 220.08C157.147 219.536 157.451 218.976 157.664 218.4ZM152.032 220.576L153.296 220.16C153.499 220.448 153.696 220.773 153.888 221.136C154.08 221.488 154.224 221.797 154.32 222.064L152.992 222.528C152.917 222.261 152.789 221.947 152.608 221.584C152.427 221.211 152.235 220.875 152.032 220.576ZM158.896 220.56L160.192 220.096C160.448 220.373 160.704 220.693 160.96 221.056C161.216 221.408 161.408 221.723 161.536 222L160.16 222.512C160.053 222.256 159.877 221.941 159.632 221.568C159.387 221.195 159.141 220.859 158.896 220.56ZM150.928 222.992H152.336V225.632C152.336 226.453 152.288 227.317 152.192 228.224C152.107 229.12 151.909 230.011 151.6 230.896C151.301 231.771 150.827 232.597 150.176 233.376C150.091 233.269 149.979 233.157 149.84 233.04C149.701 232.923 149.557 232.805 149.408 232.688C149.259 232.571 149.12 232.48 148.992 232.416C149.579 231.723 150.011 230.987 150.288 230.208C150.565 229.429 150.741 228.651 150.816 227.872C150.891 227.083 150.928 226.331 150.928 225.616V222.992ZM155.472 222.112L156.832 221.6C157.013 221.845 157.2 222.117 157.392 222.416C157.584 222.715 157.723 222.981 157.808 223.216L156.384 223.792C156.299 223.557 156.171 223.285 156 222.976C155.829 222.656 155.653 222.368 155.472 222.112ZM176.06 221.952L177.628 222.384C176.967 224.336 176.108 226.016 175.052 227.424C174.007 228.832 172.748 230.016 171.276 230.976C169.804 231.925 168.092 232.704 166.14 233.312C166.076 233.195 165.991 233.045 165.884 232.864C165.777 232.683 165.66 232.501 165.532 232.32C165.415 232.149 165.303 232.005 165.196 231.888C167.105 231.376 168.764 230.688 170.172 229.824C171.58 228.96 172.769 227.883 173.74 226.592C174.711 225.301 175.484 223.755 176.06 221.952ZM169.26 222.048C169.847 223.659 170.641 225.12 171.644 226.432C172.657 227.733 173.879 228.843 175.308 229.76C176.748 230.677 178.396 231.365 180.252 231.824C180.145 231.931 180.023 232.069 179.884 232.24C179.756 232.411 179.633 232.581 179.516 232.752C179.399 232.923 179.303 233.083 179.228 233.232C177.297 232.699 175.601 231.936 174.14 230.944C172.689 229.952 171.447 228.747 170.412 227.328C169.388 225.899 168.54 224.283 167.868 222.48L169.26 222.048ZM165.468 221.264H180.012V222.736H165.468V221.264ZM171.388 218.832L172.988 218.352C173.223 218.736 173.452 219.157 173.676 219.616C173.911 220.075 174.076 220.475 174.172 220.816L172.492 221.344C172.407 221.013 172.257 220.613 172.044 220.144C171.831 219.664 171.612 219.227 171.388 218.832ZM181.736 230.304H196.248V231.52H181.736V230.304ZM188.168 228.864H189.768V233.344H188.168V228.864ZM185.016 227.312V228.288H192.936V227.312H185.016ZM185.016 225.36V226.32H192.936V225.36H185.016ZM183.544 224.304H194.472V229.344H183.544V224.304ZM182.808 219.696H195.24V220.896H182.808V219.696ZM181.768 222.368H196.232V223.584H181.768V222.368ZM191.416 220.848L193.016 221.152C192.835 221.493 192.659 221.819 192.488 222.128C192.317 222.437 192.157 222.709 192.008 222.944L190.552 222.656C190.648 222.475 190.749 222.283 190.856 222.08C190.973 221.867 191.08 221.653 191.176 221.44C191.283 221.216 191.363 221.019 191.416 220.848ZM185.096 221.2L186.536 220.88C186.707 221.136 186.867 221.424 187.016 221.744C187.165 222.053 187.277 222.331 187.352 222.576L185.848 222.96C185.784 222.715 185.677 222.427 185.528 222.096C185.389 221.765 185.245 221.467 185.096 221.2ZM187.8 218.608L189.304 218.272C189.475 218.549 189.635 218.853 189.784 219.184C189.944 219.515 190.067 219.808 190.152 220.064L188.6 220.448C188.525 220.192 188.408 219.893 188.248 219.552C188.099 219.2 187.949 218.885 187.8 218.608Z" fill="#168AFF"/>
</g>
<defs>
<clipPath id="clip0_147_3230">
<rect width="322" height="278" fill="white"/>
</clipPath>
</defs>
</svg>
