<svg width="322" height="278" viewBox="0 0 322 278" fill="none" xmlns="http://www.w3.org/2000/svg">
<g clip-path="url(#clip0_147_3225)">
<path fill-rule="evenodd" clip-rule="evenodd" d="M0 16C0 7.16344 7.16344 0 16 0H306C314.837 0 322 7.16344 322 16V262C322 270.837 314.837 278 306 278H16C7.16343 278 0 270.837 0 262V16Z" fill="#FAFAFA"/>
<path fill-rule="evenodd" clip-rule="evenodd" d="M129 72C129 54.3269 143.327 40 161 40C178.673 40 193 54.3269 193 72C193 89.6731 178.673 104 161 104C143.327 104 129 89.6731 129 72Z" fill="white"/>
<mask id="mask0_147_3225" style="mask-type:luminance" maskUnits="userSpaceOnUse" x="129" y="40" width="64" height="64">
<path fill-rule="evenodd" clip-rule="evenodd" d="M129 72C129 54.3269 143.327 40 161 40C178.673 40 193 54.3269 193 72C193 89.6731 178.673 104 161 104C143.327 104 129 89.6731 129 72Z" fill="white"/>
</mask>
<g mask="url(#mask0_147_3225)">
<path d="M173.375 75.6008C173.887 75.3938 174.134 74.8109 173.927 74.2989C173.72 73.7868 173.137 73.5396 172.625 73.7466L173.375 75.6008ZM161 77.0003L161.001 76.0003H161V77.0003ZM149.375 73.7467C148.863 73.5396 148.28 73.7866 148.073 74.2986C147.866 74.8105 148.113 75.3935 148.625 75.6007L149.375 73.7467ZM166.333 65.0003V66.0003C166.886 66.0003 167.333 65.5526 167.333 65.0003H166.333ZM156.448 60.448L157.155 61.1551L157.155 61.1551L156.448 60.448ZM155.667 65.0003H154.667C154.667 65.5526 155.114 66.0003 155.667 66.0003V65.0003ZM172.219 82.8856L172.926 83.5927L172.926 83.5926L172.219 82.8856ZM172.219 65.781L172.926 65.074L172.926 65.0739L172.219 65.781ZM149.781 65.781L149.074 65.0739L149.074 65.0739L149.781 65.781ZM172.625 73.7466C168.932 75.2399 164.985 76.0051 161.001 76.0003L160.999 78.0003C165.24 78.0055 169.443 77.1907 173.375 75.6008L172.625 73.7466ZM161 76.0003C156.887 76.0003 152.965 75.1994 149.375 73.7467L148.625 75.6007C152.449 77.148 156.625 78.0003 161 78.0003V76.0003ZM167.333 65.0003V62.3337H165.333V65.0003H167.333ZM167.333 62.3337C167.333 61.3612 166.947 60.4286 166.259 59.7409L164.845 61.1551C165.158 61.4677 165.333 61.8916 165.333 62.3337H167.333ZM166.259 59.7409C165.572 59.0533 164.639 58.667 163.667 58.667V60.667C164.109 60.667 164.533 60.8426 164.845 61.1551L166.259 59.7409ZM163.667 58.667H158.333V60.667H163.667V58.667ZM158.333 58.667C157.361 58.667 156.428 59.0533 155.741 59.7409L157.155 61.1551C157.467 60.8426 157.891 60.667 158.333 60.667V58.667ZM155.741 59.7409C155.053 60.4286 154.667 61.3612 154.667 62.3337H156.667C156.667 61.8916 156.842 61.4677 157.155 61.1551L155.741 59.7409ZM154.667 62.3337V65.0003H156.667V62.3337H154.667ZM155.667 66.0003H166.333V64.0003H155.667V66.0003ZM151.667 84.6667H170.333V82.6667H151.667V84.6667ZM170.333 84.6667C171.306 84.6667 172.238 84.2803 172.926 83.5927L171.512 82.1785C171.199 82.491 170.775 82.6667 170.333 82.6667V84.6667ZM172.926 83.5926C173.614 82.905 174 81.9725 174 81H172C172 81.442 171.824 81.8659 171.512 82.1785L172.926 83.5926ZM174 81V67.6667H172V81H174ZM174 67.6667C174 66.6942 173.614 65.7616 172.926 65.074L171.512 66.4881C171.824 66.8007 172 67.2247 172 67.6667H174ZM172.926 65.0739C172.238 64.3863 171.306 64 170.333 64V66C170.775 66 171.199 66.1756 171.512 66.4882L172.926 65.0739ZM170.333 64H151.667V66H170.333V64ZM151.667 64C150.694 64 149.762 64.3863 149.074 65.0739L150.488 66.4882C150.801 66.1756 151.225 66 151.667 66V64ZM149.074 65.0739C148.386 65.7616 148 66.6942 148 67.6667H150C150 67.2246 150.176 66.8007 150.488 66.4881L149.074 65.0739ZM148 67.6667V81H150V67.6667H148ZM148 81C148 81.9725 148.386 82.9051 149.074 83.5927L150.488 82.1785C150.176 81.8659 150 81.442 150 81H148ZM149.074 83.5927C149.762 84.2803 150.694 84.6667 151.667 84.6667V82.6667C151.225 82.6667 150.801 82.4911 150.488 82.1785L149.074 83.5927Z" fill="#168AFF"/>
</g>
<path d="M126.22 140.22H128.18V146.78C128.18 147.313 128.107 147.74 127.96 148.06C127.827 148.367 127.553 148.6 127.14 148.76C126.727 148.907 126.193 148.993 125.54 149.02C124.9 149.047 124.107 149.06 123.16 149.06C123.133 148.767 123.067 148.433 122.96 148.06C122.853 147.687 122.733 147.36 122.6 147.08C123.04 147.093 123.473 147.107 123.9 147.12C124.327 147.12 124.7 147.12 125.02 147.12C125.353 147.12 125.58 147.113 125.7 147.1C125.9 147.1 126.033 147.073 126.1 147.02C126.18 146.967 126.22 146.873 126.22 146.74V140.22ZM117.96 141.4H119.96V151.64H117.96V141.4ZM112.94 140.22H127.08V142.04H112.94V140.22ZM112.06 135.26H129.98V137.06H112.06V135.26ZM116.58 133.12H118.5V139.2H116.58V133.12ZM123.52 133.12H125.52V139.2H123.52V133.12ZM134.34 134.4H147.82V151.38H145.78V136.32H136.28V151.46H134.34V134.4ZM135.64 141.24H146.64V143.12H135.64V141.24ZM135.62 148.24H146.66V150.14H135.62V148.24ZM155.82 140.76H167.54V142.52H155.82V140.76ZM156.76 135.74H168.62V137.56H156.76V135.74ZM152.08 145.04H164.56V146.86H152.08V145.04ZM167.06 140.76H169.02C169.02 140.76 169.013 140.813 169 140.92C169 141.027 168.993 141.153 168.98 141.3C168.98 141.433 168.967 141.547 168.94 141.64C168.767 143.533 168.58 145.087 168.38 146.3C168.193 147.513 167.98 148.46 167.74 149.14C167.513 149.807 167.247 150.293 166.94 150.6C166.647 150.907 166.34 151.113 166.02 151.22C165.7 151.327 165.3 151.393 164.82 151.42C164.433 151.447 163.907 151.453 163.24 151.44C162.573 151.427 161.88 151.407 161.16 151.38C161.147 151.1 161.073 150.78 160.94 150.42C160.807 150.06 160.64 149.747 160.44 149.48C161.227 149.547 161.973 149.593 162.68 149.62C163.4 149.633 163.913 149.64 164.22 149.64C164.473 149.64 164.68 149.627 164.84 149.6C165 149.573 165.153 149.507 165.3 149.4C165.553 149.187 165.787 148.76 166 148.12C166.213 147.48 166.407 146.58 166.58 145.42C166.753 144.26 166.913 142.807 167.06 141.06V140.76ZM156.1 133.5L158.02 133.7C157.9 134.42 157.76 135.18 157.6 135.98C157.453 136.78 157.293 137.58 157.12 138.38C156.96 139.167 156.8 139.92 156.64 140.64C156.493 141.347 156.353 141.973 156.22 142.52H154.2C154.36 141.933 154.527 141.273 154.7 140.54C154.873 139.807 155.04 139.033 155.2 138.22C155.373 137.407 155.533 136.6 155.68 135.8C155.84 134.987 155.98 134.22 156.1 133.5ZM173.26 134.44H187.62V136.26H173.26V134.44ZM175.52 138.88L176.78 137.64C177.34 138.027 177.947 138.46 178.6 138.94C179.267 139.407 179.9 139.873 180.5 140.34C181.1 140.807 181.6 141.213 182 141.56L180.64 143.02C180.28 142.647 179.807 142.22 179.22 141.74C178.633 141.247 178.007 140.753 177.34 140.26C176.687 139.753 176.08 139.293 175.52 138.88ZM187.02 134.44H188.92C188.92 134.44 188.92 134.513 188.92 134.66C188.92 134.793 188.92 134.94 188.92 135.1C188.92 135.26 188.92 135.387 188.92 135.48C188.893 138.067 188.853 140.253 188.8 142.04C188.76 143.813 188.7 145.26 188.62 146.38C188.553 147.5 188.46 148.367 188.34 148.98C188.22 149.593 188.053 150.04 187.84 150.32C187.6 150.693 187.333 150.96 187.04 151.12C186.747 151.28 186.4 151.38 186 151.42C185.573 151.473 185.047 151.493 184.42 151.48C183.793 151.48 183.173 151.467 182.56 151.44C182.547 151.173 182.48 150.867 182.36 150.52C182.253 150.173 182.113 149.873 181.94 149.62C182.673 149.673 183.333 149.707 183.92 149.72C184.507 149.72 184.94 149.72 185.22 149.72C185.433 149.733 185.6 149.713 185.72 149.66C185.853 149.607 185.967 149.513 186.06 149.38C186.233 149.193 186.373 148.793 186.48 148.18C186.587 147.553 186.673 146.667 186.74 145.52C186.807 144.373 186.86 142.92 186.9 141.16C186.953 139.4 186.993 137.3 187.02 134.86V134.44ZM172.94 147.1C173.913 146.82 175.053 146.467 176.36 146.04C177.667 145.613 179.053 145.153 180.52 144.66C181.987 144.153 183.44 143.653 184.88 143.16L185.22 144.9C183.873 145.393 182.5 145.887 181.1 146.38C179.713 146.873 178.373 147.347 177.08 147.8C175.8 148.253 174.64 148.66 173.6 149.02L172.94 147.1ZM198.5 144.06H208.04V151.56H206.16V145.74H200.32V151.7H198.5V144.06ZM199.3 149.2H207.02V150.88H199.3V149.2ZM200.88 133.34L202.64 133.96C202.28 134.613 201.86 135.273 201.38 135.94C200.9 136.593 200.407 137.22 199.9 137.82C199.393 138.407 198.907 138.92 198.44 139.36C198.32 139.253 198.167 139.127 197.98 138.98C197.793 138.833 197.6 138.687 197.4 138.54C197.2 138.393 197.027 138.273 196.88 138.18C197.373 137.78 197.867 137.32 198.36 136.8C198.853 136.267 199.313 135.707 199.74 135.12C200.18 134.52 200.56 133.927 200.88 133.34ZM204.26 134.28L205.72 133.32C206.187 133.773 206.693 134.28 207.24 134.84C207.787 135.387 208.307 135.933 208.8 136.48C209.293 137.013 209.693 137.493 210 137.92L208.44 139.06C208.16 138.647 207.78 138.16 207.3 137.6C206.833 137.04 206.333 136.473 205.8 135.9C205.267 135.313 204.753 134.773 204.26 134.28ZM202.76 136.64L204.48 137.26C203.973 138.407 203.36 139.48 202.64 140.48C201.933 141.467 201.133 142.36 200.24 143.16C199.347 143.947 198.38 144.627 197.34 145.2C197.207 144.96 197.02 144.693 196.78 144.4C196.553 144.107 196.32 143.86 196.08 143.66C197.053 143.18 197.96 142.593 198.8 141.9C199.653 141.193 200.42 140.4 201.1 139.52C201.78 138.627 202.333 137.667 202.76 136.64ZM204 137.62C204.573 138.607 205.193 139.467 205.86 140.2C206.527 140.933 207.247 141.58 208.02 142.14C208.807 142.7 209.647 143.207 210.54 143.66C210.313 143.847 210.087 144.087 209.86 144.38C209.633 144.673 209.453 144.96 209.32 145.24C208.373 144.68 207.493 144.073 206.68 143.42C205.88 142.767 205.127 142.02 204.42 141.18C203.727 140.327 203.073 139.34 202.46 138.22L204 137.62ZM196.02 133.2L197.8 133.74C197.373 134.873 196.88 136 196.32 137.12C195.76 138.227 195.147 139.28 194.48 140.28C193.827 141.267 193.147 142.14 192.44 142.9C192.387 142.74 192.293 142.54 192.16 142.3C192.04 142.06 191.907 141.82 191.76 141.58C191.627 141.327 191.507 141.127 191.4 140.98C192.013 140.34 192.607 139.607 193.18 138.78C193.753 137.94 194.28 137.047 194.76 136.1C195.253 135.14 195.673 134.173 196.02 133.2ZM194.04 138.52L195.84 136.72V136.74V151.66H194.04V138.52Z" fill="#111827"/>
<path d="M107.338 174.08H116.774V185.966H115.346V175.424H108.696V186.022H107.338V174.08ZM108.248 178.868H115.948V180.184H108.248V178.868ZM108.234 183.768H115.962V185.098H108.234V183.768ZM120.148 176.432H121.52V186.176H120.148V176.432ZM120.358 173.954L121.394 173.324C121.609 173.52 121.828 173.739 122.052 173.982C122.285 174.225 122.495 174.467 122.682 174.71C122.878 174.953 123.032 175.172 123.144 175.368L122.024 176.096C121.931 175.891 121.791 175.667 121.604 175.424C121.427 175.172 121.226 174.92 121.002 174.668C120.787 174.407 120.573 174.169 120.358 173.954ZM123.844 173.926H131.306V175.172H123.844V173.926ZM130.564 173.926H131.936V184.664C131.936 185 131.894 185.257 131.81 185.434C131.735 185.621 131.6 185.77 131.404 185.882C131.189 185.985 130.923 186.045 130.606 186.064C130.289 186.092 129.915 186.106 129.486 186.106C129.449 185.938 129.393 185.733 129.318 185.49C129.253 185.257 129.173 185.061 129.08 184.902C129.351 184.911 129.603 184.916 129.836 184.916C130.079 184.916 130.242 184.916 130.326 184.916C130.429 184.907 130.494 184.883 130.522 184.846C130.55 184.809 130.564 184.748 130.564 184.664V173.926ZM124.46 180.954V182.606H127.54V180.954H124.46ZM124.46 178.238V179.862H127.54V178.238H124.46ZM123.27 177.16H128.772V183.684H123.27V177.16ZM137.76 175.662H145.992V176.936H137.76V175.662ZM139.636 173.506H140.952V178.266C140.952 178.733 140.924 179.227 140.868 179.75C140.821 180.263 140.723 180.781 140.574 181.304C140.434 181.817 140.219 182.307 139.93 182.774C139.65 183.231 139.281 183.642 138.824 184.006C138.768 183.913 138.679 183.805 138.558 183.684C138.437 183.563 138.311 183.446 138.18 183.334C138.059 183.213 137.951 183.124 137.858 183.068C138.399 182.629 138.796 182.144 139.048 181.612C139.3 181.071 139.459 180.511 139.524 179.932C139.599 179.353 139.636 178.793 139.636 178.252V173.506ZM137.648 179.204H146.258V180.478H137.648V179.204ZM136.752 178.252V183.74H135.464V179.484H133.658V178.252H136.752ZM136.08 183.096C136.323 183.096 136.551 183.185 136.766 183.362C136.99 183.53 137.298 183.735 137.69 183.978C138.157 184.249 138.698 184.426 139.314 184.51C139.93 184.585 140.635 184.622 141.428 184.622C141.82 184.622 142.24 184.617 142.688 184.608C143.145 184.589 143.603 184.566 144.06 184.538C144.527 184.51 144.975 184.482 145.404 184.454C145.833 184.417 146.221 184.375 146.566 184.328C146.51 184.44 146.454 184.58 146.398 184.748C146.342 184.916 146.291 185.084 146.244 185.252C146.207 185.429 146.183 185.579 146.174 185.7C145.922 185.719 145.6 185.737 145.208 185.756C144.816 185.775 144.387 185.789 143.92 185.798C143.463 185.817 143.01 185.831 142.562 185.84C142.114 185.849 141.717 185.854 141.372 185.854C140.495 185.854 139.743 185.798 139.118 185.686C138.502 185.583 137.947 185.387 137.452 185.098C137.144 184.921 136.873 184.743 136.64 184.566C136.416 184.379 136.225 184.286 136.066 184.286C135.907 184.286 135.735 184.375 135.548 184.552C135.361 184.72 135.161 184.935 134.946 185.196C134.741 185.467 134.535 185.751 134.33 186.05L133.448 184.818C133.924 184.314 134.395 183.903 134.862 183.586C135.329 183.259 135.735 183.096 136.08 183.096ZM134.008 174.192L134.96 173.464C135.221 173.688 135.487 173.935 135.758 174.206C136.038 174.477 136.304 174.747 136.556 175.018C136.808 175.279 137.013 175.513 137.172 175.718L136.15 176.558C136.01 176.343 135.819 176.101 135.576 175.83C135.333 175.55 135.077 175.265 134.806 174.976C134.535 174.687 134.269 174.425 134.008 174.192ZM142.954 173.52H144.256V183.866H142.954V173.52ZM150.752 179.036H157.22V180.016H150.752V179.036ZM158.438 181.514L159.418 182.298C158.914 182.662 158.373 183.021 157.794 183.376C157.215 183.731 156.679 184.029 156.184 184.272L155.372 183.544C155.699 183.376 156.049 183.175 156.422 182.942C156.795 182.709 157.159 182.466 157.514 182.214C157.869 181.962 158.177 181.729 158.438 181.514ZM150.696 177.006H158.032V182.116H150.696V181.066H156.702V178.056H150.696V177.006ZM154.49 173.674C154.807 174.057 155.195 174.425 155.652 174.78C156.119 175.125 156.627 175.447 157.178 175.746C157.729 176.045 158.307 176.311 158.914 176.544C159.521 176.768 160.132 176.95 160.748 177.09C160.655 177.183 160.552 177.3 160.44 177.44C160.328 177.571 160.221 177.706 160.118 177.846C160.025 177.986 159.95 178.117 159.894 178.238C159.269 178.061 158.648 177.837 158.032 177.566C157.425 177.286 156.837 176.973 156.268 176.628C155.708 176.273 155.185 175.886 154.7 175.466C154.224 175.037 153.799 174.593 153.426 174.136L154.49 173.674ZM153.888 173.058L155.078 173.618C154.555 174.327 153.935 174.985 153.216 175.592C152.507 176.199 151.732 176.74 150.892 177.216C150.061 177.683 149.198 178.084 148.302 178.42C148.209 178.261 148.083 178.079 147.924 177.874C147.775 177.669 147.625 177.491 147.476 177.342C148.325 177.062 149.156 176.712 149.968 176.292C150.78 175.872 151.527 175.391 152.208 174.85C152.889 174.299 153.449 173.702 153.888 173.058ZM152.908 176.026L154.07 175.704C154.229 175.919 154.387 176.161 154.546 176.432C154.714 176.703 154.835 176.936 154.91 177.132L153.706 177.51C153.641 177.314 153.529 177.076 153.37 176.796C153.221 176.507 153.067 176.25 152.908 176.026ZM149.926 186.134C149.907 186.031 149.87 185.91 149.814 185.77C149.767 185.63 149.711 185.49 149.646 185.35C149.59 185.21 149.529 185.098 149.464 185.014C149.576 184.958 149.683 184.865 149.786 184.734C149.889 184.594 149.94 184.393 149.94 184.132V177.006H151.256V185.084C151.256 185.084 151.209 185.107 151.116 185.154C151.032 185.201 150.925 185.261 150.794 185.336C150.663 185.411 150.528 185.495 150.388 185.588C150.257 185.681 150.145 185.77 150.052 185.854C149.968 185.947 149.926 186.041 149.926 186.134ZM149.926 186.134L149.87 185.084L150.514 184.636L154.574 183.964C154.565 184.141 154.56 184.342 154.56 184.566C154.569 184.79 154.579 184.972 154.588 185.112C153.655 185.289 152.899 185.434 152.32 185.546C151.741 185.658 151.293 185.747 150.976 185.812C150.668 185.887 150.439 185.947 150.29 185.994C150.141 186.041 150.019 186.087 149.926 186.134ZM153.09 182.97L153.958 182.186C154.415 182.382 154.901 182.611 155.414 182.872C155.927 183.133 156.436 183.404 156.94 183.684C157.444 183.955 157.915 184.225 158.354 184.496C158.802 184.767 159.185 185.019 159.502 185.252L158.564 186.162C158.275 185.929 157.915 185.672 157.486 185.392C157.057 185.121 156.59 184.841 156.086 184.552C155.591 184.263 155.083 183.983 154.56 183.712C154.047 183.441 153.557 183.194 153.09 182.97ZM164.374 178.532H172.578V179.764H164.374V178.532ZM165.032 175.018H173.334V176.292H165.032V175.018ZM161.756 181.528H170.492V182.802H161.756V181.528ZM172.242 178.532H173.614C173.614 178.532 173.609 178.569 173.6 178.644C173.6 178.719 173.595 178.807 173.586 178.91C173.586 179.003 173.577 179.083 173.558 179.148C173.437 180.473 173.306 181.561 173.166 182.41C173.035 183.259 172.886 183.922 172.718 184.398C172.559 184.865 172.373 185.205 172.158 185.42C171.953 185.635 171.738 185.779 171.514 185.854C171.29 185.929 171.01 185.975 170.674 185.994C170.403 186.013 170.035 186.017 169.568 186.008C169.101 185.999 168.616 185.985 168.112 185.966C168.103 185.77 168.051 185.546 167.958 185.294C167.865 185.042 167.748 184.823 167.608 184.636C168.159 184.683 168.681 184.715 169.176 184.734C169.68 184.743 170.039 184.748 170.254 184.748C170.431 184.748 170.576 184.739 170.688 184.72C170.8 184.701 170.907 184.655 171.01 184.58C171.187 184.431 171.351 184.132 171.5 183.684C171.649 183.236 171.785 182.606 171.906 181.794C172.027 180.982 172.139 179.965 172.242 178.742V178.532ZM164.57 173.45L165.914 173.59C165.83 174.094 165.732 174.626 165.62 175.186C165.517 175.746 165.405 176.306 165.284 176.866C165.172 177.417 165.06 177.944 164.948 178.448C164.845 178.943 164.747 179.381 164.654 179.764H163.24C163.352 179.353 163.469 178.891 163.59 178.378C163.711 177.865 163.828 177.323 163.94 176.754C164.061 176.185 164.173 175.62 164.276 175.06C164.388 174.491 164.486 173.954 164.57 173.45ZM182.252 178.882H186.564V180.058H182.252V178.882ZM186.354 178.882H186.606L186.844 178.826L187.698 179.19C187.334 180.413 186.816 181.481 186.144 182.396C185.481 183.311 184.702 184.081 183.806 184.706C182.919 185.331 181.963 185.835 180.936 186.218C180.88 186.097 180.81 185.966 180.726 185.826C180.642 185.695 180.553 185.56 180.46 185.42C180.367 185.28 180.273 185.168 180.18 185.084C180.889 184.86 181.566 184.566 182.21 184.202C182.863 183.829 183.461 183.39 184.002 182.886C184.553 182.382 185.029 181.813 185.43 181.178C185.831 180.534 186.139 179.839 186.354 179.092V178.882ZM182.35 180.212C182.649 180.753 183.017 181.276 183.456 181.78C183.904 182.275 184.399 182.741 184.94 183.18C185.491 183.609 186.074 183.992 186.69 184.328C187.306 184.664 187.941 184.939 188.594 185.154C188.501 185.238 188.398 185.341 188.286 185.462C188.183 185.593 188.085 185.723 187.992 185.854C187.899 185.994 187.819 186.12 187.754 186.232C187.082 185.98 186.433 185.663 185.808 185.28C185.183 184.897 184.59 184.463 184.03 183.978C183.479 183.493 182.971 182.97 182.504 182.41C182.037 181.841 181.627 181.243 181.272 180.618L182.35 180.212ZM183.092 173.254L184.408 173.408C184.156 175.06 183.815 176.586 183.386 177.986C182.957 179.377 182.406 180.632 181.734 181.752C181.071 182.863 180.25 183.824 179.27 184.636C179.223 184.533 179.144 184.412 179.032 184.272C178.929 184.132 178.817 183.992 178.696 183.852C178.584 183.703 178.481 183.581 178.388 183.488C179.312 182.779 180.077 181.915 180.684 180.898C181.3 179.881 181.799 178.733 182.182 177.454C182.565 176.166 182.868 174.766 183.092 173.254ZM185.178 174.304L186.074 173.66C186.373 173.921 186.676 174.211 186.984 174.528C187.301 174.845 187.553 175.116 187.74 175.34L186.816 176.11C186.639 175.867 186.391 175.578 186.074 175.242C185.766 174.897 185.467 174.584 185.178 174.304ZM179.536 177.86C179.508 177.767 179.471 177.65 179.424 177.51C179.377 177.361 179.326 177.211 179.27 177.062C179.214 176.903 179.158 176.773 179.102 176.67C179.195 176.633 179.284 176.567 179.368 176.474C179.452 176.381 179.531 176.259 179.606 176.11C179.653 176.017 179.727 175.849 179.83 175.606C179.942 175.354 180.054 175.06 180.166 174.724C180.278 174.379 180.367 174.033 180.432 173.688L181.79 173.94C181.697 174.323 181.575 174.71 181.426 175.102C181.277 175.494 181.118 175.867 180.95 176.222C180.782 176.567 180.619 176.871 180.46 177.132V177.146C180.46 177.146 180.413 177.169 180.32 177.216C180.227 177.263 180.119 177.323 179.998 177.398C179.877 177.473 179.769 177.552 179.676 177.636C179.583 177.711 179.536 177.785 179.536 177.86ZM179.536 177.86V176.852L180.278 176.46H188.286V177.664H180.992C180.609 177.664 180.287 177.683 180.026 177.72C179.765 177.757 179.601 177.804 179.536 177.86ZM176.218 174.262L177.058 173.408C177.301 173.576 177.567 173.767 177.856 173.982C178.145 174.197 178.421 174.407 178.682 174.612C178.943 174.808 179.158 174.985 179.326 175.144L178.458 176.124C178.299 175.956 178.089 175.765 177.828 175.55C177.576 175.326 177.31 175.102 177.03 174.878C176.75 174.654 176.479 174.449 176.218 174.262ZM175.574 177.874L176.4 176.992C176.671 177.169 176.96 177.365 177.268 177.58C177.585 177.795 177.884 178.009 178.164 178.224C178.453 178.439 178.691 178.635 178.878 178.812L178.01 179.82C177.842 179.643 177.618 179.442 177.338 179.218C177.058 178.994 176.759 178.765 176.442 178.532C176.134 178.289 175.845 178.07 175.574 177.874ZM175.742 185C175.957 184.645 176.185 184.23 176.428 183.754C176.68 183.269 176.932 182.755 177.184 182.214C177.445 181.673 177.688 181.141 177.912 180.618L178.99 181.43C178.803 181.915 178.593 182.415 178.36 182.928C178.136 183.432 177.907 183.931 177.674 184.426C177.441 184.921 177.207 185.387 176.974 185.826L175.742 185ZM189.91 176.698H193.802V178.042H189.91V176.698ZM195.342 173.198H196.742V184.44C196.742 184.841 196.691 185.154 196.588 185.378C196.495 185.602 196.327 185.775 196.084 185.896C195.851 186.017 195.538 186.097 195.146 186.134C194.763 186.171 194.297 186.19 193.746 186.19C193.727 186.059 193.69 185.905 193.634 185.728C193.578 185.551 193.517 185.373 193.452 185.196C193.387 185.019 193.317 184.865 193.242 184.734C193.643 184.743 194.007 184.753 194.334 184.762C194.67 184.762 194.899 184.757 195.02 184.748C195.132 184.748 195.211 184.729 195.258 184.692C195.314 184.645 195.342 184.561 195.342 184.44V173.198ZM193.354 176.698H193.62L193.858 176.656L194.74 176.978C194.525 178.219 194.208 179.349 193.788 180.366C193.377 181.374 192.892 182.256 192.332 183.012C191.781 183.768 191.175 184.384 190.512 184.86C190.437 184.757 190.335 184.641 190.204 184.51C190.083 184.379 189.952 184.253 189.812 184.132C189.672 184.001 189.546 183.903 189.434 183.838C190.087 183.409 190.675 182.863 191.198 182.2C191.721 181.528 192.164 180.758 192.528 179.89C192.901 179.013 193.177 178.047 193.354 176.992V176.698ZM196.658 176.348C196.929 177.113 197.265 177.86 197.666 178.588C198.067 179.316 198.525 179.997 199.038 180.632C199.551 181.267 200.116 181.836 200.732 182.34C201.348 182.835 202.006 183.245 202.706 183.572C202.603 183.656 202.487 183.773 202.356 183.922C202.235 184.062 202.113 184.211 201.992 184.37C201.88 184.519 201.787 184.659 201.712 184.79C201.003 184.407 200.34 183.936 199.724 183.376C199.108 182.807 198.543 182.167 198.03 181.458C197.526 180.749 197.073 179.983 196.672 179.162C196.271 178.341 195.921 177.491 195.622 176.614L196.658 176.348ZM200.326 175.746L201.558 176.6C201.203 176.973 200.83 177.361 200.438 177.762C200.046 178.163 199.649 178.546 199.248 178.91C198.856 179.274 198.487 179.591 198.142 179.862L197.218 179.134C197.554 178.845 197.913 178.504 198.296 178.112C198.679 177.72 199.047 177.319 199.402 176.908C199.766 176.497 200.074 176.11 200.326 175.746ZM213.654 178.154H215.026V182.746C215.026 183.119 214.975 183.418 214.872 183.642C214.779 183.857 214.587 184.02 214.298 184.132C214.009 184.235 213.635 184.295 213.178 184.314C212.73 184.333 212.175 184.342 211.512 184.342C211.493 184.137 211.447 183.903 211.372 183.642C211.297 183.381 211.213 183.152 211.12 182.956C211.428 182.965 211.731 182.975 212.03 182.984C212.329 182.984 212.59 182.984 212.814 182.984C213.047 182.984 213.206 182.979 213.29 182.97C213.43 182.97 213.523 182.951 213.57 182.914C213.626 182.877 213.654 182.811 213.654 182.718V178.154ZM207.872 178.98H209.272V186.148H207.872V178.98ZM204.358 178.154H214.256V179.428H204.358V178.154ZM203.742 174.682H216.286V175.942H203.742V174.682ZM206.906 173.184H208.25V177.44H206.906V173.184ZM211.764 173.184H213.164V177.44H211.764V173.184Z" fill="#718096"/>
<path d="M125.688 232V230.64C126.765 229.68 127.683 228.789 128.44 227.968C129.208 227.147 129.795 226.384 130.2 225.68C130.605 224.965 130.808 224.304 130.808 223.696C130.808 223.312 130.739 222.976 130.6 222.688C130.461 222.4 130.259 222.181 129.992 222.032C129.736 221.872 129.416 221.792 129.032 221.792C128.605 221.792 128.211 221.915 127.848 222.16C127.496 222.395 127.171 222.677 126.872 223.008L125.56 221.744C126.115 221.147 126.68 220.699 127.256 220.4C127.843 220.091 128.536 219.936 129.336 219.936C130.083 219.936 130.733 220.091 131.288 220.4C131.853 220.699 132.291 221.12 132.6 221.664C132.909 222.208 133.064 222.848 133.064 223.584C133.064 224.299 132.883 225.029 132.52 225.776C132.168 226.512 131.693 227.248 131.096 227.984C130.499 228.72 129.837 229.445 129.112 230.16C129.421 230.117 129.752 230.085 130.104 230.064C130.467 230.032 130.787 230.016 131.064 230.016H133.624V232H125.688ZM139.458 232.224C138.658 232.224 137.954 231.995 137.346 231.536C136.748 231.067 136.279 230.373 135.938 229.456C135.607 228.528 135.442 227.381 135.442 226.016C135.442 224.661 135.607 223.536 135.938 222.64C136.279 221.733 136.748 221.056 137.346 220.608C137.954 220.16 138.658 219.936 139.458 219.936C140.268 219.936 140.972 220.165 141.57 220.624C142.167 221.072 142.631 221.744 142.962 222.64C143.303 223.536 143.474 224.661 143.474 226.016C143.474 227.381 143.303 228.528 142.962 229.456C142.631 230.373 142.167 231.067 141.57 231.536C140.972 231.995 140.268 232.224 139.458 232.224ZM139.458 230.384C139.81 230.384 140.119 230.251 140.386 229.984C140.652 229.717 140.86 229.269 141.01 228.64C141.159 228 141.234 227.125 141.234 226.016C141.234 224.917 141.159 224.059 141.01 223.44C140.86 222.811 140.652 222.373 140.386 222.128C140.119 221.872 139.81 221.744 139.458 221.744C139.127 221.744 138.823 221.872 138.546 222.128C138.279 222.373 138.066 222.811 137.906 223.44C137.746 224.059 137.666 224.917 137.666 226.016C137.666 227.125 137.746 228 137.906 228.64C138.066 229.269 138.279 229.717 138.546 229.984C138.823 230.251 139.127 230.384 139.458 230.384ZM153.008 229.728H162.112V230.816H153.008V229.728ZM151.568 222.992H162.496V226.576H151.568V225.44H161.056V224.144H151.568V222.992ZM152.288 227.472H162.096V228.608H153.648V233.28H152.288V227.472ZM161.472 227.472H162.88V232.048C162.88 232.368 162.837 232.608 162.752 232.768C162.677 232.928 162.533 233.056 162.32 233.152C162.096 233.237 161.813 233.291 161.472 233.312C161.131 233.333 160.72 233.344 160.24 233.344C160.208 233.173 160.155 232.987 160.08 232.784C160.005 232.592 159.925 232.416 159.84 232.256C160.16 232.267 160.448 232.272 160.704 232.272C160.971 232.272 161.147 232.272 161.232 232.272C161.328 232.272 161.392 232.256 161.424 232.224C161.456 232.192 161.472 232.133 161.472 232.048V227.472ZM155.36 228.016H156.624V232.928H155.36V228.016ZM158.352 228.016H159.616V232.928H158.352V228.016ZM151.072 219.696H156.096V220.848H151.072V219.696ZM157.312 219.696H163.472V220.848H157.312V219.696ZM151.264 218.4L152.688 218.768C152.475 219.291 152.224 219.813 151.936 220.336C151.659 220.848 151.355 221.328 151.024 221.776C150.704 222.224 150.379 222.619 150.048 222.96C149.963 222.885 149.84 222.8 149.68 222.704C149.531 222.597 149.376 222.496 149.216 222.4C149.056 222.293 148.917 222.208 148.8 222.144C149.312 221.685 149.787 221.125 150.224 220.464C150.661 219.792 151.008 219.104 151.264 218.4ZM157.664 218.4L159.104 218.752C158.848 219.403 158.507 220.032 158.08 220.64C157.664 221.237 157.227 221.744 156.768 222.16C156.672 222.075 156.544 221.989 156.384 221.904C156.224 221.808 156.059 221.717 155.888 221.632C155.728 221.547 155.584 221.477 155.456 221.424C155.936 221.061 156.368 220.613 156.752 220.08C157.147 219.536 157.451 218.976 157.664 218.4ZM152.032 220.576L153.296 220.16C153.499 220.448 153.696 220.773 153.888 221.136C154.08 221.488 154.224 221.797 154.32 222.064L152.992 222.528C152.917 222.261 152.789 221.947 152.608 221.584C152.427 221.211 152.235 220.875 152.032 220.576ZM158.896 220.56L160.192 220.096C160.448 220.373 160.704 220.693 160.96 221.056C161.216 221.408 161.408 221.723 161.536 222L160.16 222.512C160.053 222.256 159.877 221.941 159.632 221.568C159.387 221.195 159.141 220.859 158.896 220.56ZM150.928 222.992H152.336V225.632C152.336 226.453 152.288 227.317 152.192 228.224C152.107 229.12 151.909 230.011 151.6 230.896C151.301 231.771 150.827 232.597 150.176 233.376C150.091 233.269 149.979 233.157 149.84 233.04C149.701 232.923 149.557 232.805 149.408 232.688C149.259 232.571 149.12 232.48 148.992 232.416C149.579 231.723 150.011 230.987 150.288 230.208C150.565 229.429 150.741 228.651 150.816 227.872C150.891 227.083 150.928 226.331 150.928 225.616V222.992ZM155.472 222.112L156.832 221.6C157.013 221.845 157.2 222.117 157.392 222.416C157.584 222.715 157.723 222.981 157.808 223.216L156.384 223.792C156.299 223.557 156.171 223.285 156 222.976C155.829 222.656 155.653 222.368 155.472 222.112ZM176.06 221.952L177.628 222.384C176.967 224.336 176.108 226.016 175.052 227.424C174.007 228.832 172.748 230.016 171.276 230.976C169.804 231.925 168.092 232.704 166.14 233.312C166.076 233.195 165.991 233.045 165.884 232.864C165.777 232.683 165.66 232.501 165.532 232.32C165.415 232.149 165.303 232.005 165.196 231.888C167.105 231.376 168.764 230.688 170.172 229.824C171.58 228.96 172.769 227.883 173.74 226.592C174.711 225.301 175.484 223.755 176.06 221.952ZM169.26 222.048C169.847 223.659 170.641 225.12 171.644 226.432C172.657 227.733 173.879 228.843 175.308 229.76C176.748 230.677 178.396 231.365 180.252 231.824C180.145 231.931 180.023 232.069 179.884 232.24C179.756 232.411 179.633 232.581 179.516 232.752C179.399 232.923 179.303 233.083 179.228 233.232C177.297 232.699 175.601 231.936 174.14 230.944C172.689 229.952 171.447 228.747 170.412 227.328C169.388 225.899 168.54 224.283 167.868 222.48L169.26 222.048ZM165.468 221.264H180.012V222.736H165.468V221.264ZM171.388 218.832L172.988 218.352C173.223 218.736 173.452 219.157 173.676 219.616C173.911 220.075 174.076 220.475 174.172 220.816L172.492 221.344C172.407 221.013 172.257 220.613 172.044 220.144C171.831 219.664 171.612 219.227 171.388 218.832ZM181.736 230.304H196.248V231.52H181.736V230.304ZM188.168 228.864H189.768V233.344H188.168V228.864ZM185.016 227.312V228.288H192.936V227.312H185.016ZM185.016 225.36V226.32H192.936V225.36H185.016ZM183.544 224.304H194.472V229.344H183.544V224.304ZM182.808 219.696H195.24V220.896H182.808V219.696ZM181.768 222.368H196.232V223.584H181.768V222.368ZM191.416 220.848L193.016 221.152C192.835 221.493 192.659 221.819 192.488 222.128C192.317 222.437 192.157 222.709 192.008 222.944L190.552 222.656C190.648 222.475 190.749 222.283 190.856 222.08C190.973 221.867 191.08 221.653 191.176 221.44C191.283 221.216 191.363 221.019 191.416 220.848ZM185.096 221.2L186.536 220.88C186.707 221.136 186.867 221.424 187.016 221.744C187.165 222.053 187.277 222.331 187.352 222.576L185.848 222.96C185.784 222.715 185.677 222.427 185.528 222.096C185.389 221.765 185.245 221.467 185.096 221.2ZM187.8 218.608L189.304 218.272C189.475 218.549 189.635 218.853 189.784 219.184C189.944 219.515 190.067 219.808 190.152 220.064L188.6 220.448C188.525 220.192 188.408 219.893 188.248 219.552C188.099 219.2 187.949 218.885 187.8 218.608Z" fill="#168AFF"/>
</g>
<defs>
<clipPath id="clip0_147_3225">
<rect width="322" height="278" fill="white"/>
</clipPath>
</defs>
</svg>
