<svg width="322" height="278" viewBox="0 0 322 278" fill="none" xmlns="http://www.w3.org/2000/svg">
<g clip-path="url(#clip0_147_3226)">
<path fill-rule="evenodd" clip-rule="evenodd" d="M0 16C0 7.16344 7.16344 0 16 0H306C314.837 0 322 7.16344 322 16V262C322 270.837 314.837 278 306 278H16C7.16343 278 0 270.837 0 262V16Z" fill="#FAFAFA"/>
<path fill-rule="evenodd" clip-rule="evenodd" d="M129 72C129 54.3269 143.327 40 161 40C178.673 40 193 54.3269 193 72C193 89.6731 178.673 104 161 104C143.327 104 129 89.6731 129 72Z" fill="white"/>
<mask id="mask0_147_3226" style="mask-type:luminance" maskUnits="userSpaceOnUse" x="129" y="40" width="64" height="64">
<path fill-rule="evenodd" clip-rule="evenodd" d="M129 72C129 54.3269 143.327 40 161 40C178.673 40 193 54.3269 193 72C193 89.6731 178.673 104 161 104C143.327 104 129 89.6731 129 72Z" fill="white"/>
</mask>
<g mask="url(#mask0_147_3226)">
<path d="M147.667 68.3398H174.333" stroke="#168AFF" stroke-width="2" stroke-linecap="round" stroke-linejoin="round"/>
<path d="M153 79.0068H155.667" stroke="#168AFF" stroke-width="2" stroke-linecap="round" stroke-linejoin="round"/>
<path d="M159 79.0068H164.333" stroke="#168AFF" stroke-width="2" stroke-linecap="round" stroke-linejoin="round"/>
<path fill-rule="evenodd" clip-rule="evenodd" d="M153.587 61.6729H168.4C173.147 61.6729 174.333 62.8462 174.333 67.5262V78.4729C174.333 83.1529 173.147 84.3262 168.413 84.3262H153.587C148.853 84.3395 147.667 83.1662 147.667 78.4862V67.5262C147.667 62.8462 148.853 61.6729 153.587 61.6729Z" stroke="#168AFF" stroke-width="2" stroke-linecap="round" stroke-linejoin="round"/>
</g>
<path d="M129.78 142.38H138.08V144H129.78V142.38ZM129.74 145.88H138.08V147.5H129.74V145.88ZM138.06 133.62L139.9 134.32C139.567 135 139.207 135.68 138.82 136.36C138.433 137.027 138.073 137.607 137.74 138.1L136.1 137.44C136.327 137.093 136.56 136.707 136.8 136.28C137.04 135.84 137.273 135.387 137.5 134.92C137.727 134.453 137.913 134.02 138.06 133.62ZM127.96 134.46L129.56 133.76C129.827 134.12 130.1 134.52 130.38 134.96C130.66 135.4 130.907 135.833 131.12 136.26C131.333 136.673 131.493 137.053 131.6 137.4L129.88 138.22C129.787 137.873 129.64 137.487 129.44 137.06C129.24 136.62 129.013 136.173 128.76 135.72C128.507 135.267 128.24 134.847 127.96 134.46ZM128.54 138.78H138.12V140.54H130.4V151.66H128.54V138.78ZM137.22 138.78H139.06V149.48C139.06 149.96 139 150.34 138.88 150.62C138.773 150.913 138.547 151.133 138.2 151.28C137.867 151.427 137.433 151.513 136.9 151.54C136.38 151.58 135.74 151.6 134.98 151.6C134.953 151.347 134.88 151.047 134.76 150.7C134.653 150.353 134.533 150.053 134.4 149.8C134.92 149.827 135.413 149.847 135.88 149.86C136.347 149.86 136.66 149.853 136.82 149.84C137.087 149.827 137.22 149.7 137.22 149.46V138.78ZM132.92 133.1H134.84V139.92H132.92V133.1ZM122.62 134.62L123.72 133.32C124.133 133.507 124.567 133.733 125.02 134C125.473 134.267 125.893 134.54 126.28 134.82C126.68 135.1 127.007 135.367 127.26 135.62L126.08 137.08C125.853 136.827 125.547 136.553 125.16 136.26C124.773 135.967 124.353 135.673 123.9 135.38C123.46 135.087 123.033 134.833 122.62 134.62ZM121.68 139.96L122.76 138.62C123.173 138.807 123.607 139.033 124.06 139.3C124.527 139.567 124.967 139.84 125.38 140.12C125.793 140.4 126.127 140.66 126.38 140.9L125.24 142.38C125 142.14 124.68 141.873 124.28 141.58C123.88 141.287 123.453 141 123 140.72C122.547 140.427 122.107 140.173 121.68 139.96ZM122.28 150.3C122.613 149.793 122.973 149.187 123.36 148.48C123.76 147.76 124.16 147 124.56 146.2C124.973 145.4 125.353 144.62 125.7 143.86L127.1 145C126.793 145.707 126.46 146.44 126.1 147.2C125.753 147.96 125.393 148.707 125.02 149.44C124.647 150.173 124.28 150.867 123.92 151.52L122.28 150.3ZM144.52 136.82H156.8V135.6H143.14V134.28H158.54V138.1H144.52V136.82ZM144.18 139.32H158.58V140.62H143.8L144.18 139.32ZM157.98 139.32H159.76C159.76 139.32 159.753 139.387 159.74 139.52C159.74 139.653 159.733 139.78 159.72 139.9C159.667 140.567 159.6 141.087 159.52 141.46C159.44 141.833 159.313 142.107 159.14 142.28C159.007 142.427 158.847 142.533 158.66 142.6C158.487 142.653 158.3 142.687 158.1 142.7C157.913 142.713 157.653 142.72 157.32 142.72C157 142.707 156.653 142.693 156.28 142.68C156.267 142.507 156.227 142.307 156.16 142.08C156.093 141.84 156.02 141.633 155.94 141.46C156.22 141.487 156.473 141.507 156.7 141.52C156.927 141.533 157.093 141.533 157.2 141.52C157.307 141.52 157.393 141.513 157.46 141.5C157.54 141.487 157.607 141.453 157.66 141.4C157.727 141.307 157.787 141.12 157.84 140.84C157.893 140.56 157.94 140.127 157.98 139.54V139.32ZM147.96 133.12H149.68V137.36C149.68 138.107 149.6 138.813 149.44 139.48C149.293 140.147 148.987 140.767 148.52 141.34C148.067 141.913 147.393 142.427 146.5 142.88C145.62 143.333 144.447 143.72 142.98 144.04C142.94 143.907 142.867 143.753 142.76 143.58C142.653 143.393 142.533 143.213 142.4 143.04C142.28 142.853 142.167 142.707 142.06 142.6C143.367 142.32 144.413 142 145.2 141.64C145.987 141.267 146.58 140.853 146.98 140.4C147.38 139.947 147.64 139.467 147.76 138.96C147.893 138.453 147.96 137.913 147.96 137.34V133.12ZM152.44 133.12H154.24V142.72H152.44V133.12ZM144.6 143.18H157.52V148.54H155.6V144.74H146.42V148.72H144.6V143.18ZM150.3 145.5H152.2C152 146.367 151.707 147.14 151.32 147.82C150.933 148.5 150.38 149.087 149.66 149.58C148.94 150.073 148 150.487 146.84 150.82C145.693 151.167 144.267 151.447 142.56 151.66C142.52 151.513 142.453 151.34 142.36 151.14C142.28 150.94 142.18 150.74 142.06 150.54C141.953 150.353 141.847 150.193 141.74 150.06C143.327 149.913 144.633 149.713 145.66 149.46C146.7 149.207 147.527 148.9 148.14 148.54C148.767 148.18 149.247 147.747 149.58 147.24C149.913 146.733 150.153 146.153 150.3 145.5ZM151.38 149.04L152.36 147.78C152.987 147.927 153.647 148.1 154.34 148.3C155.047 148.5 155.753 148.713 156.46 148.94C157.167 149.153 157.833 149.373 158.46 149.6C159.087 149.813 159.627 150.027 160.08 150.24L159.04 151.68C158.613 151.48 158.093 151.26 157.48 151.02C156.867 150.793 156.213 150.56 155.52 150.32C154.827 150.08 154.12 149.853 153.4 149.64C152.693 149.413 152.02 149.213 151.38 149.04ZM143.8 136.82H145.5C145.42 137.46 145.327 138.133 145.22 138.84C145.113 139.533 145.013 140.127 144.92 140.62H143.18C143.3 140.1 143.413 139.493 143.52 138.8C143.64 138.107 143.733 137.447 143.8 136.82ZM169.8 134.3H179.6V136.1H169.8V134.3ZM175.32 140.38H177.24V149.38C177.24 149.927 177.167 150.347 177.02 150.64C176.887 150.947 176.627 151.173 176.24 151.32C175.867 151.467 175.367 151.553 174.74 151.58C174.127 151.607 173.347 151.62 172.4 151.62C172.36 151.353 172.28 151.04 172.16 150.68C172.053 150.32 171.933 150.007 171.8 149.74C172.24 149.753 172.667 149.767 173.08 149.78C173.493 149.78 173.853 149.78 174.16 149.78C174.467 149.78 174.68 149.773 174.8 149.76C175 149.76 175.133 149.733 175.2 149.68C175.28 149.613 175.32 149.507 175.32 149.36V140.38ZM168.94 139.82H180.16V141.62H168.94V139.82ZM164.72 141.72L166.38 140.06L166.62 140.16V151.72H164.72V141.72ZM167.02 137.42L168.8 138.1C168.293 138.967 167.7 139.827 167.02 140.68C166.34 141.533 165.633 142.34 164.9 143.1C164.167 143.86 163.44 144.527 162.72 145.1C162.64 144.967 162.52 144.8 162.36 144.6C162.2 144.387 162.033 144.18 161.86 143.98C161.7 143.767 161.553 143.6 161.42 143.48C162.1 143 162.78 142.433 163.46 141.78C164.153 141.127 164.807 140.427 165.42 139.68C166.033 138.933 166.567 138.18 167.02 137.42ZM166.22 133.1L168.04 133.86C167.587 134.46 167.06 135.073 166.46 135.7C165.86 136.313 165.24 136.907 164.6 137.48C163.96 138.04 163.327 138.54 162.7 138.98C162.62 138.833 162.513 138.667 162.38 138.48C162.26 138.28 162.133 138.087 162 137.9C161.867 137.713 161.74 137.56 161.62 137.44C162.18 137.067 162.747 136.633 163.32 136.14C163.907 135.647 164.453 135.133 164.96 134.6C165.467 134.067 165.887 133.567 166.22 133.1ZM182.56 137.86H197.94V139.78H182.56V137.86ZM197.16 137.86H199.14C199.14 137.86 199.133 137.927 199.12 138.06C199.12 138.18 199.12 138.313 199.12 138.46C199.12 138.593 199.113 138.707 199.1 138.8C199.033 140.773 198.96 142.453 198.88 143.84C198.8 145.227 198.713 146.367 198.62 147.26C198.527 148.153 198.407 148.86 198.26 149.38C198.127 149.887 197.96 150.26 197.76 150.5C197.507 150.833 197.24 151.06 196.96 151.18C196.68 151.313 196.347 151.4 195.96 151.44C195.6 151.493 195.127 151.513 194.54 151.5C193.967 151.5 193.373 151.48 192.76 151.44C192.733 151.16 192.66 150.833 192.54 150.46C192.42 150.087 192.267 149.76 192.08 149.48C192.733 149.533 193.34 149.567 193.9 149.58C194.46 149.58 194.867 149.58 195.12 149.58C195.32 149.593 195.487 149.58 195.62 149.54C195.753 149.5 195.873 149.413 195.98 149.28C196.14 149.12 196.273 148.807 196.38 148.34C196.5 147.86 196.607 147.187 196.7 146.32C196.807 145.453 196.893 144.36 196.96 143.04C197.027 141.707 197.093 140.113 197.16 138.26V137.86ZM188.98 133.16H190.92V135.68C190.92 136.573 190.88 137.54 190.8 138.58C190.72 139.62 190.547 140.7 190.28 141.82C190.027 142.94 189.633 144.06 189.1 145.18C188.567 146.3 187.847 147.387 186.94 148.44C186.047 149.48 184.913 150.453 183.54 151.36C183.447 151.213 183.307 151.053 183.12 150.88C182.947 150.707 182.76 150.533 182.56 150.36C182.373 150.2 182.2 150.067 182.04 149.96C183.347 149.133 184.42 148.24 185.26 147.28C186.113 146.32 186.793 145.327 187.3 144.3C187.807 143.273 188.18 142.253 188.42 141.24C188.66 140.227 188.813 139.247 188.88 138.3C188.947 137.353 188.98 136.48 188.98 135.68V133.16ZM184 134.34L185.66 133.64C186.047 134.093 186.44 134.6 186.84 135.16C187.253 135.72 187.553 136.207 187.74 136.62L186 137.4C185.88 137.12 185.713 136.807 185.5 136.46C185.287 136.1 185.047 135.733 184.78 135.36C184.527 134.987 184.267 134.647 184 134.34ZM190.82 142.74L192.4 141.98C192.733 142.367 193.067 142.787 193.4 143.24C193.747 143.693 194.067 144.14 194.36 144.58C194.653 145.007 194.887 145.393 195.06 145.74L193.36 146.62C193.213 146.273 193 145.873 192.72 145.42C192.44 144.953 192.133 144.487 191.8 144.02C191.48 143.553 191.153 143.127 190.82 142.74Z" fill="#111827"/>
<path d="M112.686 174.066H117.46V175.298H112.686V174.066ZM112.896 178.112H117.166V179.33H112.896V178.112ZM112.476 183.446C112.905 183.343 113.391 183.222 113.932 183.082C114.483 182.942 115.061 182.788 115.668 182.62C116.275 182.443 116.881 182.27 117.488 182.102L117.656 183.32C116.807 183.563 115.948 183.81 115.08 184.062C114.221 184.305 113.447 184.524 112.756 184.72L112.476 183.446ZM114.492 174.598H115.766V183.18L114.492 183.404V174.598ZM118.02 173.842H124.544V181.29H123.228V174.99H119.28V181.29H118.02V173.842ZM121.198 181.15H122.416V184.37C122.416 184.566 122.449 184.701 122.514 184.776C122.579 184.841 122.701 184.874 122.878 184.874H123.844C123.984 184.874 124.091 184.813 124.166 184.692C124.241 184.571 124.297 184.347 124.334 184.02C124.371 183.684 124.399 183.194 124.418 182.55C124.577 182.671 124.749 182.774 124.936 182.858C125.132 182.942 125.309 183.007 125.468 183.054C125.431 183.782 125.365 184.351 125.272 184.762C125.188 185.163 125.034 185.443 124.81 185.602C124.595 185.77 124.269 185.854 123.83 185.854H122.654C122.131 185.854 121.758 185.761 121.534 185.574C121.31 185.387 121.198 185.033 121.198 184.51V181.15ZM120.61 176.054H121.842V178.56C121.842 179.176 121.786 179.829 121.674 180.52C121.562 181.201 121.352 181.887 121.044 182.578C120.736 183.269 120.293 183.927 119.714 184.552C119.145 185.177 118.393 185.733 117.46 186.218C117.413 186.125 117.339 186.017 117.236 185.896C117.133 185.775 117.026 185.653 116.914 185.532C116.811 185.42 116.713 185.331 116.62 185.266C117.516 184.799 118.23 184.291 118.762 183.74C119.294 183.189 119.691 182.62 119.952 182.032C120.213 181.435 120.386 180.842 120.47 180.254C120.563 179.657 120.61 179.083 120.61 178.532V176.054ZM129.304 177.314H136.654V178.546H129.304V177.314ZM127.596 180.254H138.404V181.458H127.596V180.254ZM126.938 184.594H139.09V185.812H126.938V184.594ZM132.258 177.874H133.672V185.182H132.258V177.874ZM128.66 182.032L129.738 181.598C129.925 181.841 130.102 182.111 130.27 182.41C130.447 182.699 130.606 182.989 130.746 183.278C130.895 183.558 131.003 183.81 131.068 184.034L129.92 184.538C129.855 184.314 129.757 184.057 129.626 183.768C129.495 183.479 129.346 183.18 129.178 182.872C129.01 182.564 128.837 182.284 128.66 182.032ZM136.122 181.598L137.382 182.074C137.121 182.513 136.845 182.956 136.556 183.404C136.267 183.852 136.001 184.235 135.758 184.552L134.75 184.118C134.909 183.894 135.072 183.637 135.24 183.348C135.408 183.049 135.571 182.746 135.73 182.438C135.889 182.13 136.019 181.85 136.122 181.598ZM133.504 173.842C133.831 174.206 134.227 174.57 134.694 174.934C135.17 175.298 135.683 175.643 136.234 175.97C136.785 176.287 137.354 176.577 137.942 176.838C138.539 177.099 139.118 177.314 139.678 177.482C139.585 177.575 139.477 177.692 139.356 177.832C139.235 177.972 139.123 178.112 139.02 178.252C138.917 178.392 138.829 178.523 138.754 178.644C138.185 178.439 137.606 178.187 137.018 177.888C136.439 177.589 135.865 177.253 135.296 176.88C134.736 176.497 134.209 176.096 133.714 175.676C133.219 175.256 132.781 174.822 132.398 174.374L133.504 173.842ZM132.916 173.044L134.148 173.604C133.635 174.388 133.019 175.107 132.3 175.76C131.581 176.404 130.793 176.973 129.934 177.468C129.075 177.953 128.184 178.364 127.26 178.7C127.167 178.513 127.036 178.308 126.868 178.084C126.7 177.851 126.532 177.65 126.364 177.482C127.251 177.211 128.109 176.861 128.94 176.432C129.771 176.003 130.527 175.503 131.208 174.934C131.899 174.365 132.468 173.735 132.916 173.044ZM144.578 174.08H153.062V175.396H144.578V174.08ZM149.422 178.392L150.388 177.594C150.705 177.902 151.051 178.243 151.424 178.616C151.807 178.989 152.171 179.353 152.516 179.708C152.871 180.053 153.151 180.357 153.356 180.618L152.362 181.57C152.147 181.29 151.872 180.968 151.536 180.604C151.2 180.24 150.845 179.867 150.472 179.484C150.108 179.092 149.758 178.728 149.422 178.392ZM149.016 174.458L150.318 174.878C149.907 175.793 149.413 176.67 148.834 177.51C148.265 178.341 147.639 179.101 146.958 179.792C146.286 180.483 145.581 181.085 144.844 181.598C144.779 181.505 144.685 181.393 144.564 181.262C144.452 181.122 144.326 180.987 144.186 180.856C144.055 180.716 143.943 180.604 143.85 180.52C144.578 180.072 145.264 179.54 145.908 178.924C146.561 178.299 147.149 177.608 147.672 176.852C148.204 176.087 148.652 175.289 149.016 174.458ZM147.938 176.894L148.624 176.194L149.296 176.418V184.006H147.938V176.894ZM143.598 177.888V184.034H142.268V179.19H140.532V177.888H143.598ZM141.078 174.052L142.1 173.324C142.352 173.557 142.618 173.814 142.898 174.094C143.178 174.365 143.439 174.64 143.682 174.92C143.925 175.191 144.121 175.433 144.27 175.648L143.164 176.488C143.024 176.264 142.837 176.012 142.604 175.732C142.371 175.452 142.119 175.163 141.848 174.864C141.587 174.565 141.33 174.295 141.078 174.052ZM142.926 183.124C143.159 183.124 143.388 183.217 143.612 183.404C143.836 183.581 144.153 183.791 144.564 184.034C145.04 184.333 145.595 184.524 146.23 184.608C146.865 184.683 147.593 184.72 148.414 184.72C148.815 184.72 149.249 184.715 149.716 184.706C150.183 184.687 150.654 184.664 151.13 184.636C151.606 184.608 152.063 184.575 152.502 184.538C152.941 184.491 153.337 184.449 153.692 184.412C153.645 184.533 153.589 184.683 153.524 184.86C153.468 185.037 153.417 185.219 153.37 185.406C153.323 185.593 153.295 185.751 153.286 185.882C153.034 185.901 152.703 185.919 152.292 185.938C151.891 185.957 151.457 185.971 150.99 185.98C150.523 185.999 150.057 186.013 149.59 186.022C149.123 186.031 148.713 186.036 148.358 186.036C147.434 186.036 146.655 185.98 146.02 185.868C145.395 185.765 144.821 185.565 144.298 185.266C143.99 185.07 143.715 184.879 143.472 184.692C143.239 184.496 143.047 184.398 142.898 184.398C142.749 184.398 142.581 184.487 142.394 184.664C142.217 184.841 142.03 185.07 141.834 185.35C141.638 185.639 141.437 185.938 141.232 186.246L140.252 184.944C140.737 184.393 141.213 183.955 141.68 183.628C142.147 183.292 142.562 183.124 142.926 183.124ZM154.812 179.274H167.216V180.45H154.812V179.274ZM161.056 181.78H166.306V182.942H161.056V181.78ZM160.468 179.834H161.798V185.084H160.468V179.834ZM157.976 182.088C158.247 182.816 158.625 183.367 159.11 183.74C159.595 184.113 160.183 184.365 160.874 184.496C161.565 184.617 162.349 184.678 163.226 184.678C163.357 184.678 163.557 184.678 163.828 184.678C164.108 184.678 164.421 184.678 164.766 184.678C165.121 184.678 165.475 184.678 165.83 184.678C166.194 184.678 166.525 184.678 166.824 184.678C167.132 184.669 167.37 184.664 167.538 184.664C167.473 184.757 167.407 184.879 167.342 185.028C167.286 185.187 167.235 185.345 167.188 185.504C167.141 185.663 167.104 185.803 167.076 185.924H166.236H163.156C162.344 185.924 161.611 185.877 160.958 185.784C160.305 185.691 159.721 185.518 159.208 185.266C158.704 185.023 158.256 184.678 157.864 184.23C157.481 183.782 157.15 183.199 156.87 182.48L157.976 182.088ZM157.108 180.828L158.424 181.024C158.2 182.181 157.836 183.194 157.332 184.062C156.828 184.93 156.189 185.644 155.414 186.204C155.349 186.111 155.255 186.003 155.134 185.882C155.022 185.77 154.896 185.653 154.756 185.532C154.625 185.42 154.513 185.331 154.42 185.266C155.148 184.809 155.731 184.202 156.17 183.446C156.618 182.69 156.931 181.817 157.108 180.828ZM157.5 176.53V177.482H164.416V176.53H157.5ZM157.5 174.682V175.62H164.416V174.682H157.5ZM156.212 173.716H165.76V178.462H156.212V173.716ZM173.362 177.496H180.278V178.56H173.362V177.496ZM173.362 179.498H180.278V180.562H173.362V179.498ZM173.964 184.594H179.662V185.672H173.964V184.594ZM172.354 175.438H181.342V176.53H172.354V175.438ZM173.166 181.57H180.432V186.12H179.256V182.648H174.3V186.162H173.166V181.57ZM175.56 173.604L176.694 173.17C176.89 173.45 177.086 173.763 177.282 174.108C177.478 174.453 177.623 174.752 177.716 175.004L176.554 175.522C176.461 175.261 176.316 174.953 176.12 174.598C175.933 174.234 175.747 173.903 175.56 173.604ZM171.458 173.24L172.634 173.59C172.363 174.374 172.041 175.153 171.668 175.928C171.295 176.703 170.889 177.435 170.45 178.126C170.021 178.817 169.573 179.428 169.106 179.96C169.059 179.857 168.994 179.727 168.91 179.568C168.835 179.4 168.751 179.237 168.658 179.078C168.565 178.91 168.476 178.779 168.392 178.686C168.803 178.238 169.199 177.725 169.582 177.146C169.965 176.558 170.315 175.933 170.632 175.27C170.959 174.598 171.234 173.921 171.458 173.24ZM170.296 176.992L171.5 175.774L171.514 175.788V186.218H170.296V176.992ZM184.828 174.15H193.69V175.41H184.828V174.15ZM184.828 177.398H193.69V178.63H184.828V177.398ZM184.772 180.716H193.732V181.976H184.772V180.716ZM184.072 174.15H185.388V179.204C185.388 179.745 185.36 180.329 185.304 180.954C185.257 181.579 185.169 182.214 185.038 182.858C184.907 183.493 184.711 184.104 184.45 184.692C184.198 185.271 183.857 185.793 183.428 186.26C183.363 186.167 183.265 186.064 183.134 185.952C183.013 185.84 182.882 185.733 182.742 185.63C182.611 185.527 182.495 185.448 182.392 185.392C182.784 184.953 183.092 184.482 183.316 183.978C183.54 183.465 183.703 182.937 183.806 182.396C183.918 181.845 183.988 181.299 184.016 180.758C184.053 180.207 184.072 179.685 184.072 179.19V174.15ZM193.186 174.15H194.502V184.51C194.502 184.893 194.451 185.187 194.348 185.392C194.245 185.607 194.068 185.77 193.816 185.882C193.564 185.985 193.223 186.045 192.794 186.064C192.365 186.092 191.819 186.101 191.156 186.092C191.137 185.924 191.081 185.714 190.988 185.462C190.904 185.21 190.815 184.995 190.722 184.818C191.021 184.837 191.315 184.851 191.604 184.86C191.893 184.86 192.145 184.86 192.36 184.86C192.584 184.851 192.738 184.846 192.822 184.846C192.962 184.846 193.055 184.823 193.102 184.776C193.158 184.72 193.186 184.627 193.186 184.496V174.15ZM188.44 174.64H189.77V186.036H188.44V174.64ZM196.686 178.252H209.342V179.554H196.686V178.252ZM202.832 175.018H207.956V176.292H202.832V175.018ZM201.964 173.184H203.35V178.868H201.964V173.184ZM202.02 179.106H203.406V186.176H202.02V179.106ZM203.392 181.92L204.092 180.898C204.447 181.029 204.834 181.178 205.254 181.346C205.683 181.514 206.113 181.687 206.542 181.864C206.971 182.032 207.377 182.2 207.76 182.368C208.143 182.536 208.469 182.69 208.74 182.83L208.012 184.006C207.751 183.866 207.433 183.707 207.06 183.53C206.687 183.353 206.285 183.171 205.856 182.984C205.436 182.788 205.011 182.601 204.582 182.424C204.162 182.237 203.765 182.069 203.392 181.92Z" fill="#718096"/>
<path d="M125.688 232V230.64C126.765 229.68 127.683 228.789 128.44 227.968C129.208 227.147 129.795 226.384 130.2 225.68C130.605 224.965 130.808 224.304 130.808 223.696C130.808 223.312 130.739 222.976 130.6 222.688C130.461 222.4 130.259 222.181 129.992 222.032C129.736 221.872 129.416 221.792 129.032 221.792C128.605 221.792 128.211 221.915 127.848 222.16C127.496 222.395 127.171 222.677 126.872 223.008L125.56 221.744C126.115 221.147 126.68 220.699 127.256 220.4C127.843 220.091 128.536 219.936 129.336 219.936C130.083 219.936 130.733 220.091 131.288 220.4C131.853 220.699 132.291 221.12 132.6 221.664C132.909 222.208 133.064 222.848 133.064 223.584C133.064 224.299 132.883 225.029 132.52 225.776C132.168 226.512 131.693 227.248 131.096 227.984C130.499 228.72 129.837 229.445 129.112 230.16C129.421 230.117 129.752 230.085 130.104 230.064C130.467 230.032 130.787 230.016 131.064 230.016H133.624V232H125.688ZM139.17 232.224C138.54 232.224 137.98 232.149 137.49 232C136.999 231.851 136.562 231.653 136.178 231.408C135.794 231.163 135.452 230.896 135.154 230.608L136.242 229.104C136.466 229.328 136.706 229.531 136.962 229.712C137.228 229.893 137.516 230.037 137.826 230.144C138.146 230.251 138.487 230.304 138.85 230.304C139.255 230.304 139.612 230.219 139.922 230.048C140.242 229.877 140.492 229.632 140.674 229.312C140.855 228.981 140.946 228.587 140.946 228.128C140.946 227.445 140.759 226.917 140.386 226.544C140.023 226.171 139.543 225.984 138.946 225.984C138.604 225.984 138.311 226.032 138.066 226.128C137.82 226.213 137.522 226.368 137.17 226.592L136.098 225.904L136.418 220.144H142.754V222.128H138.45L138.226 224.64C138.46 224.533 138.69 224.453 138.914 224.4C139.138 224.347 139.383 224.32 139.65 224.32C140.311 224.32 140.919 224.453 141.474 224.72C142.028 224.976 142.471 225.381 142.802 225.936C143.132 226.491 143.298 227.2 143.298 228.064C143.298 228.939 143.1 229.691 142.706 230.32C142.322 230.939 141.815 231.413 141.186 231.744C140.567 232.064 139.895 232.224 139.17 232.224ZM153.008 229.728H162.112V230.816H153.008V229.728ZM151.568 222.992H162.496V226.576H151.568V225.44H161.056V224.144H151.568V222.992ZM152.288 227.472H162.096V228.608H153.648V233.28H152.288V227.472ZM161.472 227.472H162.88V232.048C162.88 232.368 162.837 232.608 162.752 232.768C162.677 232.928 162.533 233.056 162.32 233.152C162.096 233.237 161.813 233.291 161.472 233.312C161.131 233.333 160.72 233.344 160.24 233.344C160.208 233.173 160.155 232.987 160.08 232.784C160.005 232.592 159.925 232.416 159.84 232.256C160.16 232.267 160.448 232.272 160.704 232.272C160.971 232.272 161.147 232.272 161.232 232.272C161.328 232.272 161.392 232.256 161.424 232.224C161.456 232.192 161.472 232.133 161.472 232.048V227.472ZM155.36 228.016H156.624V232.928H155.36V228.016ZM158.352 228.016H159.616V232.928H158.352V228.016ZM151.072 219.696H156.096V220.848H151.072V219.696ZM157.312 219.696H163.472V220.848H157.312V219.696ZM151.264 218.4L152.688 218.768C152.475 219.291 152.224 219.813 151.936 220.336C151.659 220.848 151.355 221.328 151.024 221.776C150.704 222.224 150.379 222.619 150.048 222.96C149.963 222.885 149.84 222.8 149.68 222.704C149.531 222.597 149.376 222.496 149.216 222.4C149.056 222.293 148.917 222.208 148.8 222.144C149.312 221.685 149.787 221.125 150.224 220.464C150.661 219.792 151.008 219.104 151.264 218.4ZM157.664 218.4L159.104 218.752C158.848 219.403 158.507 220.032 158.08 220.64C157.664 221.237 157.227 221.744 156.768 222.16C156.672 222.075 156.544 221.989 156.384 221.904C156.224 221.808 156.059 221.717 155.888 221.632C155.728 221.547 155.584 221.477 155.456 221.424C155.936 221.061 156.368 220.613 156.752 220.08C157.147 219.536 157.451 218.976 157.664 218.4ZM152.032 220.576L153.296 220.16C153.499 220.448 153.696 220.773 153.888 221.136C154.08 221.488 154.224 221.797 154.32 222.064L152.992 222.528C152.917 222.261 152.789 221.947 152.608 221.584C152.427 221.211 152.235 220.875 152.032 220.576ZM158.896 220.56L160.192 220.096C160.448 220.373 160.704 220.693 160.96 221.056C161.216 221.408 161.408 221.723 161.536 222L160.16 222.512C160.053 222.256 159.877 221.941 159.632 221.568C159.387 221.195 159.141 220.859 158.896 220.56ZM150.928 222.992H152.336V225.632C152.336 226.453 152.288 227.317 152.192 228.224C152.107 229.12 151.909 230.011 151.6 230.896C151.301 231.771 150.827 232.597 150.176 233.376C150.091 233.269 149.979 233.157 149.84 233.04C149.701 232.923 149.557 232.805 149.408 232.688C149.259 232.571 149.12 232.48 148.992 232.416C149.579 231.723 150.011 230.987 150.288 230.208C150.565 229.429 150.741 228.651 150.816 227.872C150.891 227.083 150.928 226.331 150.928 225.616V222.992ZM155.472 222.112L156.832 221.6C157.013 221.845 157.2 222.117 157.392 222.416C157.584 222.715 157.723 222.981 157.808 223.216L156.384 223.792C156.299 223.557 156.171 223.285 156 222.976C155.829 222.656 155.653 222.368 155.472 222.112ZM176.06 221.952L177.628 222.384C176.967 224.336 176.108 226.016 175.052 227.424C174.007 228.832 172.748 230.016 171.276 230.976C169.804 231.925 168.092 232.704 166.14 233.312C166.076 233.195 165.991 233.045 165.884 232.864C165.777 232.683 165.66 232.501 165.532 232.32C165.415 232.149 165.303 232.005 165.196 231.888C167.105 231.376 168.764 230.688 170.172 229.824C171.58 228.96 172.769 227.883 173.74 226.592C174.711 225.301 175.484 223.755 176.06 221.952ZM169.26 222.048C169.847 223.659 170.641 225.12 171.644 226.432C172.657 227.733 173.879 228.843 175.308 229.76C176.748 230.677 178.396 231.365 180.252 231.824C180.145 231.931 180.023 232.069 179.884 232.24C179.756 232.411 179.633 232.581 179.516 232.752C179.399 232.923 179.303 233.083 179.228 233.232C177.297 232.699 175.601 231.936 174.14 230.944C172.689 229.952 171.447 228.747 170.412 227.328C169.388 225.899 168.54 224.283 167.868 222.48L169.26 222.048ZM165.468 221.264H180.012V222.736H165.468V221.264ZM171.388 218.832L172.988 218.352C173.223 218.736 173.452 219.157 173.676 219.616C173.911 220.075 174.076 220.475 174.172 220.816L172.492 221.344C172.407 221.013 172.257 220.613 172.044 220.144C171.831 219.664 171.612 219.227 171.388 218.832ZM181.736 230.304H196.248V231.52H181.736V230.304ZM188.168 228.864H189.768V233.344H188.168V228.864ZM185.016 227.312V228.288H192.936V227.312H185.016ZM185.016 225.36V226.32H192.936V225.36H185.016ZM183.544 224.304H194.472V229.344H183.544V224.304ZM182.808 219.696H195.24V220.896H182.808V219.696ZM181.768 222.368H196.232V223.584H181.768V222.368ZM191.416 220.848L193.016 221.152C192.835 221.493 192.659 221.819 192.488 222.128C192.317 222.437 192.157 222.709 192.008 222.944L190.552 222.656C190.648 222.475 190.749 222.283 190.856 222.08C190.973 221.867 191.08 221.653 191.176 221.44C191.283 221.216 191.363 221.019 191.416 220.848ZM185.096 221.2L186.536 220.88C186.707 221.136 186.867 221.424 187.016 221.744C187.165 222.053 187.277 222.331 187.352 222.576L185.848 222.96C185.784 222.715 185.677 222.427 185.528 222.096C185.389 221.765 185.245 221.467 185.096 221.2ZM187.8 218.608L189.304 218.272C189.475 218.549 189.635 218.853 189.784 219.184C189.944 219.515 190.067 219.808 190.152 220.064L188.6 220.448C188.525 220.192 188.408 219.893 188.248 219.552C188.099 219.2 187.949 218.885 187.8 218.608Z" fill="#168AFF"/>
</g>
<defs>
<clipPath id="clip0_147_3226">
<rect width="322" height="278" fill="white"/>
</clipPath>
</defs>
</svg>
