<svg width="961" height="307" viewBox="0 0 961 307" fill="none" xmlns="http://www.w3.org/2000/svg">
<line x1="44" y1="96.5" x2="910" y2="96.5" stroke="#D8DAE5" stroke-dasharray="3 3"/>
<line x1="44" y1="136.5" x2="910" y2="136.5" stroke="#D8DAE5" stroke-dasharray="3 3"/>
<line x1="44" y1="176.5" x2="910" y2="176.5" stroke="#D8DAE5" stroke-dasharray="3 3"/>
<line x1="44" y1="216.5" x2="910" y2="216.5" stroke="#D8DAE5" stroke-dasharray="3 3"/>
<line x1="44" y1="256.5" x2="910" y2="256.5" stroke="#D8DAE5"/>
<path d="M0.605578 103H7.54958V101.264H5.28158C4.79158 101.264 4.10558 101.334 3.58758 101.39C5.43558 99.458 7.07358 97.624 7.07358 95.874C7.07358 93.956 5.75758 92.724 3.81158 92.724C2.39758 92.724 1.45958 93.27 0.507578 94.292L1.64158 95.412C2.17358 94.852 2.77558 94.334 3.54558 94.334C4.53958 94.334 5.08558 94.95 5.08558 95.972C5.08558 97.484 3.30758 99.234 0.605578 101.824V103ZM12.4054 103.196C14.5194 103.196 15.9054 101.348 15.9054 97.918C15.9054 94.502 14.5194 92.724 12.4054 92.724C10.2634 92.724 8.89139 94.488 8.89139 97.918C8.89139 101.348 10.2634 103.196 12.4054 103.196ZM12.4054 101.586C11.5094 101.586 10.8374 100.732 10.8374 97.918C10.8374 95.104 11.5094 94.32 12.4054 94.32C13.3014 94.32 13.9594 95.104 13.9594 97.918C13.9594 100.732 13.3014 101.586 12.4054 101.586ZM17.6392 103H19.6552V101.026L20.7612 99.752L22.6652 103H24.8912L21.9652 98.394L24.6532 95.174H22.3852L19.7252 98.534H19.6552V91.842H17.6392V103Z" fill="#081735"/>
<path d="M1.15158 143H7.39558V141.334H5.44958V132.906H3.92358C3.25158 133.312 2.55158 133.578 1.50158 133.788V135.062H3.39158V141.334H1.15158V143ZM12.1394 143.196C14.0434 143.196 15.7654 141.922 15.7654 139.696C15.7654 137.54 14.3094 136.56 12.5734 136.56C12.0974 136.56 11.7334 136.644 11.3274 136.84L11.5234 134.642H15.2894V132.906H9.74539L9.45139 137.946L10.4034 138.562C11.0054 138.17 11.3414 138.002 11.9574 138.002C12.9934 138.002 13.6934 138.646 13.6934 139.752C13.6934 140.886 12.9514 141.53 11.8594 141.53C10.9074 141.53 10.1654 141.054 9.59139 140.48L8.62539 141.782C9.40939 142.552 10.5014 143.196 12.1394 143.196ZM17.6392 143H19.6552V141.026L20.7612 139.752L22.6652 143H24.8912L21.9652 138.394L24.6532 135.174H22.3852L19.7252 138.534H19.6552V131.842H17.6392V143Z" fill="#081735"/>
<path d="M1.15158 183H7.39558V181.334H5.44958V172.906H3.92358C3.25158 173.312 2.55158 173.578 1.50158 173.788V175.062H3.39158V181.334H1.15158V183ZM12.4054 183.196C14.5194 183.196 15.9054 181.348 15.9054 177.918C15.9054 174.502 14.5194 172.724 12.4054 172.724C10.2634 172.724 8.89139 174.488 8.89139 177.918C8.89139 181.348 10.2634 183.196 12.4054 183.196ZM12.4054 181.586C11.5094 181.586 10.8374 180.732 10.8374 177.918C10.8374 175.104 11.5094 174.32 12.4054 174.32C13.3014 174.32 13.9594 175.104 13.9594 177.918C13.9594 180.732 13.3014 181.586 12.4054 181.586ZM17.6392 183H19.6552V181.026L20.7612 179.752L22.6652 183H24.8912L21.9652 178.394L24.6532 175.174H22.3852L19.7252 178.534H19.6552V171.842H17.6392V183Z" fill="#081735"/>
<path d="M4.01048 223.196C5.91448 223.196 7.63648 221.922 7.63648 219.696C7.63648 217.54 6.18048 216.56 4.44448 216.56C3.96848 216.56 3.60448 216.644 3.19848 216.84L3.39448 214.642H7.16049V212.906H1.61648L1.32248 217.946L2.27448 218.562C2.87648 218.17 3.21248 218.002 3.82848 218.002C4.86448 218.002 5.56448 218.646 5.56448 219.752C5.56448 220.886 4.82248 221.53 3.73048 221.53C2.77848 221.53 2.03648 221.054 1.46248 220.48L0.496484 221.782C1.28048 222.552 2.37248 223.196 4.01048 223.196ZM9.5103 223H11.5263V221.026L12.6323 219.752L14.5363 223H16.7623L13.8363 218.394L16.5243 215.174H14.2563L11.5963 218.534H11.5263V211.842H9.5103V223Z" fill="#081735"/>
<path d="M4.50109 263.196C6.60109 263.196 8.00109 261.362 8.00109 257.778C8.00109 254.208 6.60109 252.458 4.50109 252.458C2.38709 252.458 0.987094 254.208 0.987094 257.778C0.987094 261.362 2.38709 263.196 4.50109 263.196ZM4.50109 261.586C3.60509 261.586 2.93309 260.69 2.93309 257.778C2.93309 254.88 3.60509 254.04 4.50109 254.04C5.39709 254.04 6.05509 254.88 6.05509 257.778C6.05509 260.69 5.39709 261.586 4.50109 261.586Z" fill="#081735"/>
<path d="M931.629 103H937.873V101.334H935.927V92.906H934.401C933.729 93.312 933.029 93.578 931.979 93.788V95.062H933.869V101.334H931.629V103ZM942.883 103.196C944.997 103.196 946.383 101.348 946.383 97.918C946.383 94.502 944.997 92.724 942.883 92.724C940.741 92.724 939.369 94.488 939.369 97.918C939.369 101.348 940.741 103.196 942.883 103.196ZM942.883 101.586C941.987 101.586 941.315 100.732 941.315 97.918C941.315 95.104 941.987 94.32 942.883 94.32C943.779 94.32 944.437 95.104 944.437 97.918C944.437 100.732 943.779 101.586 942.883 101.586ZM948.117 103H950.175V97.61C950.707 97.022 951.225 96.742 951.659 96.742C952.415 96.742 952.765 97.148 952.765 98.38V103H954.823V97.61C955.383 97.022 955.873 96.742 956.321 96.742C957.077 96.742 957.413 97.148 957.413 98.38V103H959.471V98.114C959.471 96.154 958.715 94.978 957.049 94.978C956.027 94.978 955.271 95.594 954.543 96.336C954.179 95.468 953.521 94.978 952.387 94.978C951.379 94.978 950.651 95.538 949.993 96.21H949.951L949.783 95.174H948.117V103Z" fill="#081735"/>
<path d="M934.24 143.196C936.326 143.196 937.726 142.006 937.726 140.438C937.726 139.08 936.928 138.324 935.99 137.792V137.722C936.648 137.26 937.32 136.448 937.32 135.468C937.32 133.816 936.144 132.724 934.31 132.724C932.504 132.724 931.174 133.774 931.174 135.454C931.174 136.504 931.776 137.246 932.546 137.82V137.876C931.608 138.38 930.782 139.178 930.782 140.438C930.782 142.062 932.252 143.196 934.24 143.196ZM934.898 137.232C933.82 136.798 932.994 136.378 932.994 135.454C932.994 134.614 933.554 134.166 934.268 134.166C935.122 134.166 935.64 134.754 935.64 135.594C935.64 136.182 935.374 136.714 934.898 137.232ZM934.282 141.74C933.316 141.74 932.546 141.138 932.546 140.2C932.546 139.486 932.952 138.87 933.512 138.436C934.828 138.996 935.808 139.346 935.808 140.354C935.808 141.25 935.178 141.74 934.282 141.74ZM939.488 143H941.546V137.61C942.078 137.022 942.596 136.742 943.03 136.742C943.786 136.742 944.136 137.148 944.136 138.38V143H946.194V137.61C946.754 137.022 947.244 136.742 947.692 136.742C948.448 136.742 948.784 137.148 948.784 138.38V143H950.842V138.114C950.842 136.154 950.086 134.978 948.42 134.978C947.398 134.978 946.642 135.594 945.914 136.336C945.55 135.468 944.892 134.978 943.758 134.978C942.75 134.978 942.022 135.538 941.364 136.21H941.322L941.154 135.174H939.488V143Z" fill="#081735"/>
<path d="M934.534 183.196C936.298 183.196 937.782 181.908 937.782 179.85C937.782 177.736 936.536 176.742 934.8 176.742C934.1 176.742 933.162 177.204 932.602 177.988L932.686 179.388C933.218 178.506 933.862 178.198 934.422 178.198C935.318 178.198 935.906 178.716 935.906 179.85C935.906 181.04 935.276 181.642 934.478 181.642C933.47 181.642 932.686 180.732 932.686 178.226C932.686 175.342 933.694 174.39 934.94 174.39C935.542 174.39 936.172 174.712 936.536 175.132L937.628 173.886C937.012 173.256 936.088 172.724 934.814 172.724C932.728 172.724 930.796 174.376 930.796 178.226C930.796 181.698 932.56 183.196 934.534 183.196ZM939.488 183H941.546V177.61C942.078 177.022 942.596 176.742 943.03 176.742C943.786 176.742 944.136 177.148 944.136 178.38V183H946.194V177.61C946.754 177.022 947.244 176.742 947.692 176.742C948.448 176.742 948.784 177.148 948.784 178.38V183H950.842V178.114C950.842 176.154 950.086 174.978 948.42 174.978C947.398 174.978 946.642 175.594 945.914 176.336C945.55 175.468 944.892 174.978 943.758 174.978C942.75 174.978 942.022 175.538 941.364 176.21H941.322L941.154 175.174H939.488V183Z" fill="#081735"/>
<path d="M934.828 223H936.746V212.906H934.268L930.418 219.08V220.494H937.978V218.912H932.42L934.016 216.378C934.31 215.804 934.59 215.286 934.856 214.74H934.912C934.884 215.342 934.828 216.308 934.828 216.91V223ZM939.488 223H941.546V217.61C942.078 217.022 942.596 216.742 943.03 216.742C943.786 216.742 944.136 217.148 944.136 218.38V223H946.194V217.61C946.754 217.022 947.244 216.742 947.692 216.742C948.448 216.742 948.784 217.148 948.784 218.38V223H950.842V218.114C950.842 216.154 950.086 214.978 948.42 214.978C947.398 214.978 946.642 215.594 945.914 216.336C945.55 215.468 944.892 214.978 943.758 214.978C942.75 214.978 942.022 215.538 941.364 216.21H941.322L941.154 215.174H939.488V223Z" fill="#081735"/>
<path d="M934.501 263.196C936.601 263.196 938.001 261.362 938.001 257.778C938.001 254.208 936.601 252.458 934.501 252.458C932.387 252.458 930.987 254.208 930.987 257.778C930.987 261.362 932.387 263.196 934.501 263.196ZM934.501 261.586C933.605 261.586 932.933 260.69 932.933 257.778C932.933 254.88 933.605 254.04 934.501 254.04C935.397 254.04 936.055 254.88 936.055 257.778C936.055 260.69 935.397 261.586 934.501 261.586Z" fill="#081735"/>
<path d="M44.9411 303.196C46.9991 303.196 48.9171 301.502 48.9171 297.582C48.9171 293.998 47.1531 292.458 45.1791 292.458C43.4151 292.458 41.9311 293.774 41.9311 295.916C41.9311 298.114 43.1631 299.164 44.8991 299.164C45.6271 299.164 46.5651 298.702 47.1251 297.932L47.0131 296.532C46.5091 297.386 45.8651 297.708 45.2771 297.708C44.3951 297.708 43.8071 297.12 43.8071 295.916C43.8071 294.628 44.4371 293.998 45.2211 293.998C46.2291 293.998 47.0271 294.936 47.0271 297.582C47.0271 300.55 46.0331 301.53 44.8151 301.53C44.1991 301.53 43.5691 301.208 43.1771 300.774L42.0851 302.02C42.7151 302.664 43.6391 303.196 44.9411 303.196Z" fill="#8F95B2"/>
<path d="M100.376 303H106.62V301.334H104.674V292.64H103.148C102.476 293.046 101.776 293.312 100.726 293.508V294.782H102.616V301.334H100.376V303ZM111.63 303.196C113.73 303.196 115.13 301.362 115.13 297.778C115.13 294.208 113.73 292.458 111.63 292.458C109.516 292.458 108.116 294.208 108.116 297.778C108.116 301.362 109.516 303.196 111.63 303.196ZM111.63 301.586C110.734 301.586 110.062 300.69 110.062 297.778C110.062 294.88 110.734 294.04 111.63 294.04C112.526 294.04 113.184 294.88 113.184 297.778C113.184 300.69 112.526 301.586 111.63 301.586Z" fill="#8F95B2"/>
<path d="M166.376 303H172.62V301.334H170.674V292.64H169.148C168.476 293.046 167.776 293.312 166.726 293.508V294.782H168.616V301.334H166.376V303ZM174.634 303H180.878V301.334H178.932V292.64H177.406C176.734 293.046 176.034 293.312 174.984 293.508V294.782H176.874V301.334H174.634V303Z" fill="#8F95B2"/>
<path d="M232.376 303H238.62V301.334H236.674V292.64H235.148C234.476 293.046 233.776 293.312 232.726 293.508V294.782H234.616V301.334H232.376V303ZM240.088 303H247.032V301.264H244.792C244.302 301.264 243.616 301.334 243.098 301.39C244.988 299.542 246.556 297.526 246.556 295.636C246.556 293.704 245.24 292.458 243.294 292.458C241.88 292.458 240.942 293.004 239.99 294.026L241.124 295.146C241.656 294.558 242.258 294.068 243.028 294.068C244.022 294.068 244.568 294.712 244.568 295.748C244.568 297.344 242.916 299.29 240.088 301.824V303Z" fill="#8F95B2"/>
<path d="M298.376 303H304.62V301.334H302.674V292.64H301.148C300.476 293.046 299.776 293.312 298.726 293.508V294.782H300.616V301.334H298.376V303ZM309.322 303.196C311.31 303.196 312.976 302.104 312.976 300.2C312.976 298.828 312.08 297.974 310.904 297.638V297.568C312.01 297.148 312.626 296.322 312.626 295.216C312.626 293.438 311.268 292.458 309.266 292.458C308.062 292.458 307.068 292.948 306.172 293.718L307.222 294.992C307.838 294.418 308.44 294.068 309.182 294.068C310.064 294.068 310.568 294.558 310.568 295.37C310.568 296.294 309.952 296.938 308.048 296.938V298.422C310.302 298.422 310.904 299.052 310.904 300.074C310.904 300.998 310.19 301.53 309.126 301.53C308.188 301.53 307.446 301.054 306.83 300.452L305.85 301.754C306.578 302.594 307.684 303.196 309.322 303.196Z" fill="#8F95B2"/>
<path d="M364.376 303H370.62V301.334H368.674V292.64H367.148C366.476 293.046 365.776 293.312 364.726 293.508V294.782H366.616V301.334H364.376V303ZM376.204 303H378.122V292.64H375.644L371.794 298.912V300.326H379.354V298.744H373.796L375.392 296.168C375.686 295.608 375.966 295.034 376.232 294.474H376.288C376.26 295.09 376.204 296.028 376.204 296.63V303Z" fill="#8F95B2"/>
<path d="M430.376 303H436.62V301.334H434.674V292.64H433.148C432.476 293.046 431.776 293.312 430.726 293.508V294.782H432.616V301.334H430.376V303ZM441.364 303.196C443.268 303.196 444.99 301.866 444.99 299.57C444.99 297.302 443.534 296.28 441.798 296.28C441.322 296.28 440.958 296.378 440.552 296.56L440.748 294.362H444.514V292.64H438.97L438.676 297.666L439.628 298.282C440.23 297.89 440.566 297.736 441.182 297.736C442.218 297.736 442.918 298.408 442.918 299.612C442.918 300.844 442.176 301.53 441.084 301.53C440.132 301.53 439.39 301.054 438.816 300.48L437.85 301.782C438.634 302.552 439.726 303.196 441.364 303.196Z" fill="#8F95B2"/>
<path d="M496.376 303H502.62V301.334H500.674V292.64H499.148C498.476 293.046 497.776 293.312 496.726 293.508V294.782H498.616V301.334H496.376V303ZM507.91 303.196C509.674 303.196 511.172 301.866 511.172 299.738C511.172 297.512 509.926 296.49 508.19 296.49C507.49 296.49 506.524 296.938 505.978 297.708L506.062 299.108C506.58 298.254 507.238 297.946 507.812 297.946C508.694 297.946 509.282 298.506 509.282 299.738C509.282 300.998 508.652 301.642 507.882 301.642C506.86 301.642 506.076 300.648 506.076 297.96C506.076 295.076 507.07 294.11 508.33 294.11C508.918 294.11 509.562 294.446 509.912 294.852L511.018 293.634C510.388 292.976 509.464 292.458 508.204 292.458C506.104 292.458 504.186 294.11 504.186 297.96C504.186 301.614 505.95 303.196 507.91 303.196Z" fill="#8F95B2"/>
<path d="M562.376 303H568.62V301.334H566.674V292.64H565.148C564.476 293.046 563.776 293.312 562.726 293.508V294.782H564.616V301.334H562.376V303ZM572.09 303H574.176C574.358 298.954 574.666 296.826 577.074 293.886V292.64H570.2V294.362H574.862C572.874 297.106 572.286 299.416 572.09 303Z" fill="#8F95B2"/>
<path d="M628.376 303H634.62V301.334H632.674V292.64H631.148C630.476 293.046 629.776 293.312 628.726 293.508V294.782H630.616V301.334H628.376V303ZM639.616 303.196C641.702 303.196 643.102 302.006 643.102 300.438C643.102 299.01 642.318 298.184 641.366 297.666V297.596C642.038 297.106 642.696 296.252 642.696 295.216C642.696 293.564 641.52 292.472 639.686 292.472C637.88 292.472 636.55 293.536 636.55 295.202C636.55 296.294 637.138 297.092 637.922 297.666V297.722C636.97 298.226 636.158 299.108 636.158 300.438C636.158 302.062 637.628 303.196 639.616 303.196ZM640.274 297.092C639.182 296.658 638.37 296.168 638.37 295.202C638.37 294.376 638.93 293.914 639.644 293.914C640.498 293.914 641.016 294.502 641.016 295.356C641.016 295.972 640.778 296.56 640.274 297.092ZM639.658 301.74C638.692 301.74 637.922 301.138 637.922 300.2C637.922 299.43 638.314 298.73 638.888 298.282C640.218 298.842 641.184 299.276 641.184 300.354C641.184 301.25 640.554 301.74 639.658 301.74Z" fill="#8F95B2"/>
<path d="M694.376 303H700.62V301.334H698.674V292.64H697.148C696.476 293.046 695.776 293.312 694.726 293.508V294.782H696.616V301.334H694.376V303ZM705.07 303.196C707.128 303.196 709.046 301.502 709.046 297.582C709.046 293.998 707.282 292.458 705.308 292.458C703.544 292.458 702.06 293.774 702.06 295.916C702.06 298.114 703.292 299.164 705.028 299.164C705.756 299.164 706.694 298.702 707.254 297.932L707.142 296.532C706.638 297.386 705.994 297.708 705.406 297.708C704.524 297.708 703.936 297.12 703.936 295.916C703.936 294.628 704.566 293.998 705.35 293.998C706.358 293.998 707.156 294.936 707.156 297.582C707.156 300.55 706.162 301.53 704.944 301.53C704.328 301.53 703.698 301.208 703.306 300.774L702.214 302.02C702.844 302.664 703.768 303.196 705.07 303.196Z" fill="#081735"/>
<path d="M759.83 303H766.774V301.264H764.534C764.044 301.264 763.358 301.334 762.84 301.39C764.73 299.542 766.298 297.526 766.298 295.636C766.298 293.704 764.982 292.458 763.036 292.458C761.622 292.458 760.684 293.004 759.732 294.026L760.866 295.146C761.398 294.558 762 294.068 762.77 294.068C763.764 294.068 764.31 294.712 764.31 295.748C764.31 297.344 762.658 299.29 759.83 301.824V303ZM771.63 303.196C773.73 303.196 775.13 301.362 775.13 297.778C775.13 294.208 773.73 292.458 771.63 292.458C769.516 292.458 768.116 294.208 768.116 297.778C768.116 301.362 769.516 303.196 771.63 303.196ZM771.63 301.586C770.734 301.586 770.062 300.69 770.062 297.778C770.062 294.88 770.734 294.04 771.63 294.04C772.526 294.04 773.184 294.88 773.184 297.778C773.184 300.69 772.526 301.586 771.63 301.586Z" fill="#8F95B2"/>
<path d="M825.83 303H832.774V301.264H830.534C830.044 301.264 829.358 301.334 828.84 301.39C830.73 299.542 832.298 297.526 832.298 295.636C832.298 293.704 830.982 292.458 829.036 292.458C827.622 292.458 826.684 293.004 825.732 294.026L826.866 295.146C827.398 294.558 828 294.068 828.77 294.068C829.764 294.068 830.31 294.712 830.31 295.748C830.31 297.344 828.658 299.29 825.83 301.824V303ZM834.634 303H840.878V301.334H838.932V292.64H837.406C836.734 293.046 836.034 293.312 834.984 293.508V294.782H836.874V301.334H834.634V303Z" fill="#8F95B2"/>
<path d="M891.83 303H898.774V301.264H896.534C896.044 301.264 895.358 301.334 894.84 301.39C896.73 299.542 898.298 297.526 898.298 295.636C898.298 293.704 896.982 292.458 895.036 292.458C893.622 292.458 892.684 293.004 891.732 294.026L892.866 295.146C893.398 294.558 894 294.068 894.77 294.068C895.764 294.068 896.31 294.712 896.31 295.748C896.31 297.344 894.658 299.29 891.83 301.824V303ZM900.088 303H907.032V301.264H904.792C904.302 301.264 903.616 301.334 903.098 301.39C904.988 299.542 906.556 297.526 906.556 295.636C906.556 293.704 905.24 292.458 903.294 292.458C901.88 292.458 900.942 293.004 899.99 294.026L901.124 295.146C901.656 294.558 902.258 294.068 903.028 294.068C904.022 294.068 904.568 294.712 904.568 295.748C904.568 297.344 902.916 299.29 900.088 301.824V303Z" fill="#8F95B2"/>
<path d="M791.65 204.939C836.608 196.6 889.282 208.413 910 215.362V256H44.0001V97C87.5072 101.77 115.476 140.988 122.468 165.897C128.171 186.213 128.425 200.699 158.724 204.939C189.186 209.201 225.302 195.638 255.861 177.265C280.308 162.567 316.805 171.141 331.998 177.265C358.931 187.924 403.297 195.152 438.931 184.27C483.474 170.667 508.077 174.553 564.273 184.27C620.47 193.986 614.773 200.169 661.647 215.362C708.52 230.554 735.453 215.362 791.65 204.939Z" fill="url(#paint0_linear_36_6747)"/>
<path d="M910 215.57C889.282 208.609 836.608 196.775 791.65 205.128C735.453 215.57 708.52 230.789 661.647 215.57C614.773 200.35 620.47 194.156 564.273 184.423C508.077 174.69 483.474 170.796 438.931 184.423C403.297 195.324 358.931 188.083 331.998 177.406C316.805 171.271 280.308 162.682 255.861 177.406C225.302 195.811 189.186 209.398 158.724 205.128C128.425 200.881 128.171 186.37 122.468 166.018C115.476 141.065 87.5072 101.778 44 97" stroke="#3F8CFF" stroke-width="1.90714"/>
<path d="M161.58 187.84C116.915 179.506 64.5829 191.312 44 198.257V256H910V119.358C866.776 124.125 830.057 122.889 823.111 147.784C817.445 168.088 817.193 182.567 787.09 186.804C756.827 191.064 739.235 166.146 708.875 147.784C684.587 133.094 643.683 152.209 628.588 158.33C601.831 168.983 541.002 145.74 514.641 127.47C477 101.383 427.499 98.9966 390.114 127.47C352.729 155.944 315.647 132.6 269.078 147.784C222.509 162.968 217.411 198.257 161.58 187.84Z" fill="url(#paint1_linear_36_6747)" fill-opacity="0.54"/>
<path d="M44 198C64.5829 191.075 116.915 179.302 161.58 187.612C217.411 198 222.509 162.81 269.078 147.669C315.647 132.527 352.729 155.806 390.114 127.413C427.499 99.0191 477 101.398 514.641 127.413C541.002 145.631 601.831 168.808 628.588 158.186C643.683 152.082 684.587 133.02 708.875 147.669C739.235 165.98 756.827 190.827 787.09 186.579C817.193 182.354 817.445 167.916 823.111 147.669C830.057 122.844 866.776 124.077 910 119.323" stroke="#6C5DD3" stroke-width="1.90714"/>
<path d="M693 110L696.232 113.232C697.209 114.209 698.791 114.209 699.768 113.232L703 110H693Z" fill="#081735"/>
<rect x="612" width="172" height="110" rx="6" fill="#081735"/>
<path d="M646.213 49H652.457V47.334H650.511V38.64H648.985C648.313 39.046 647.613 39.312 646.563 39.508V40.782H648.453V47.334H646.213V49ZM657.747 49.196C659.511 49.196 661.009 47.866 661.009 45.738C661.009 43.512 659.763 42.49 658.027 42.49C657.327 42.49 656.361 42.938 655.815 43.708L655.899 45.108C656.417 44.254 657.075 43.946 657.649 43.946C658.531 43.946 659.119 44.506 659.119 45.738C659.119 46.998 658.489 47.642 657.719 47.642C656.697 47.642 655.913 46.648 655.913 43.96C655.913 41.076 656.907 40.11 658.167 40.11C658.755 40.11 659.399 40.446 659.749 40.852L660.855 39.634C660.225 38.976 659.301 38.458 658.041 38.458C655.941 38.458 654.023 40.11 654.023 43.96C654.023 47.614 655.787 49.196 657.747 49.196ZM662.757 51.996C664.465 51.436 665.403 50.19 665.403 48.538C665.403 47.278 664.871 46.522 663.933 46.522C663.191 46.522 662.589 46.998 662.589 47.74C662.589 48.51 663.205 48.958 663.877 48.958C664.185 48.958 664.465 48.86 664.675 48.65L663.947 47.446L664.017 48.902C664.031 49.728 663.429 50.47 662.337 50.876L662.757 51.996ZM670.851 49H672.769V38.64H670.291L666.441 44.912V46.326H674.001V44.744H668.443L670.039 42.168C670.333 41.608 670.613 41.034 670.879 40.474H670.935C670.907 41.09 670.851 42.028 670.851 42.63V49ZM678.521 49.196C680.607 49.196 682.007 48.006 682.007 46.438C682.007 45.01 681.223 44.184 680.271 43.666V43.596C680.943 43.106 681.601 42.252 681.601 41.216C681.601 39.564 680.425 38.472 678.591 38.472C676.785 38.472 675.455 39.536 675.455 41.202C675.455 42.294 676.043 43.092 676.827 43.666V43.722C675.875 44.226 675.063 45.108 675.063 46.438C675.063 48.062 676.533 49.196 678.521 49.196ZM679.179 43.092C678.087 42.658 677.275 42.168 677.275 41.202C677.275 40.376 677.835 39.914 678.549 39.914C679.403 39.914 679.921 40.502 679.921 41.356C679.921 41.972 679.683 42.56 679.179 43.092ZM678.563 47.74C677.597 47.74 676.827 47.138 676.827 46.2C676.827 45.43 677.219 44.73 677.793 44.282C679.123 44.842 680.089 45.276 680.089 46.354C680.089 47.25 679.459 47.74 678.563 47.74ZM687.073 49.196C688.837 49.196 690.335 47.866 690.335 45.738C690.335 43.512 689.089 42.49 687.353 42.49C686.653 42.49 685.687 42.938 685.141 43.708L685.225 45.108C685.743 44.254 686.401 43.946 686.975 43.946C687.857 43.946 688.445 44.506 688.445 45.738C688.445 46.998 687.815 47.642 687.045 47.642C686.023 47.642 685.239 46.648 685.239 43.96C685.239 41.076 686.233 40.11 687.493 40.11C688.081 40.11 688.725 40.446 689.075 40.852L690.181 39.634C689.551 38.976 688.627 38.458 687.367 38.458C685.267 38.458 683.349 40.11 683.349 43.96C683.349 47.614 685.113 49.196 687.073 49.196Z" fill="white"/>
<circle cx="630" cy="21" r="5" fill="#6C5DD3"/>
<path d="M653.948 16.76C655.052 17.456 656.372 18.512 656.984 19.232L657.728 18.692C657.08 17.96 655.736 16.952 654.644 16.28L653.948 16.76ZM647.624 19.796V20.612H658.388V19.796H647.624ZM653.576 21.2C652.748 21.764 651.236 22.316 650.048 22.604C650.264 22.772 650.48 23.048 650.624 23.24C651.848 22.892 653.36 22.292 654.32 21.596L653.576 21.2ZM654.608 22.592C653.564 23.372 651.572 24.008 649.856 24.32C650.048 24.512 650.252 24.812 650.372 25.016C652.184 24.62 654.164 23.924 655.376 22.964L654.608 22.592ZM656.12 23.876C654.776 25.184 652.052 25.904 649.112 26.204C649.28 26.42 649.46 26.744 649.544 26.996C652.64 26.6 655.424 25.796 656.948 24.284L656.12 23.876ZM651.956 18.416C651.164 20.516 649.544 22.076 647.468 22.976C647.672 23.144 648.02 23.504 648.152 23.684C650.228 22.652 651.944 20.972 652.868 18.632L651.956 18.416ZM654.812 19.988L654.044 20.3C654.92 21.68 656.492 22.952 657.98 23.612C658.112 23.384 658.388 23.048 658.592 22.88C657.14 22.34 655.604 21.188 654.812 19.988ZM649.136 18.908C649.136 18.728 649.736 18.5 649.736 18.5V18.476C650.804 17.972 651.944 17.192 652.988 16.316L652.16 15.86C651.308 16.712 650.108 17.48 649.736 17.696C649.4 17.888 649.112 18.032 648.872 18.056C648.98 18.296 649.1 18.728 649.136 18.908ZM649.136 18.908C649.556 18.764 650.192 18.74 656.54 18.452C656.48 18.284 656.408 17.96 656.384 17.732L649.736 17.972L649.136 18.284V18.908ZM661.712 20.612V21.452H668.996V20.612H661.712ZM662.312 17.588V18.452H669.512V17.588H662.312ZM659.684 23.144V24.02H667.16V23.144H659.684ZM668.756 20.612V20.756C668.456 23.996 668.12 25.436 667.652 25.82C667.496 25.952 667.328 25.964 667.028 25.964C666.668 25.964 665.732 25.964 664.796 25.88C664.988 26.12 665.12 26.504 665.144 26.768C665.996 26.828 666.848 26.84 667.292 26.816C667.796 26.792 668.108 26.708 668.432 26.396C668.972 25.868 669.296 24.476 669.644 21.044C669.668 20.912 669.692 20.612 669.692 20.612H668.756ZM662.12 16.184C661.832 17.84 661.34 20.108 660.968 21.452H661.916C662.252 20.168 662.72 17.96 663.032 16.28L662.12 16.184ZM672.572 17.852V18.656H675.38V24.884H672.572V25.7H676.22V17.852H672.572ZM672.032 17.852V26.66H672.872V17.852H672.032ZM672.512 21.188V21.992H675.824V21.188H672.512ZM673.868 15.896C673.772 16.52 673.544 17.432 673.34 18.008L674.06 18.188C674.3 17.648 674.6 16.82 674.84 16.076L673.868 15.896ZM677.924 17.816V18.656H681.608V17.816H677.924ZM681.296 17.816V18.008C681.128 23.3 680.936 25.292 680.54 25.724C680.408 25.88 680.264 25.916 680.024 25.916C679.748 25.916 679.028 25.904 678.248 25.844C678.416 26.084 678.524 26.456 678.548 26.72C679.22 26.756 679.928 26.78 680.336 26.732C680.756 26.696 681.032 26.588 681.296 26.24C681.776 25.652 681.944 23.792 682.136 18.284C682.136 18.152 682.136 17.816 682.136 17.816H681.296ZM678.176 15.872C677.792 17.54 677.132 19.196 676.316 20.252C676.532 20.372 676.904 20.624 677.06 20.768C677.888 19.628 678.596 17.864 679.04 16.076L678.176 15.872ZM677.624 20.936C678.284 21.812 679.088 23 679.448 23.732L680.216 23.252C679.832 22.544 679.004 21.38 678.32 20.528L677.624 20.936ZM683.864 19.388V21.836H684.704V20.192H693.26V21.836H694.136V19.388H683.864ZM685.316 21.548V22.388H692.024V21.548H685.316ZM692.828 15.884C690.776 16.316 687.08 16.628 683.972 16.772C684.056 16.976 684.164 17.312 684.188 17.54C687.308 17.42 691.052 17.108 693.464 16.604L692.828 15.884ZM684.98 17.792C685.304 18.308 685.652 18.992 685.796 19.424L686.612 19.16C686.468 18.728 686.108 18.056 685.76 17.564L684.98 17.792ZM688.172 17.54C688.448 18.104 688.7 18.848 688.772 19.316L689.624 19.112C689.552 18.644 689.264 17.912 688.988 17.36L688.172 17.54ZM692.276 17.336C691.988 18.008 691.46 18.968 691.04 19.568L691.76 19.82C692.192 19.256 692.756 18.368 693.188 17.6L692.276 17.336ZM691.7 21.548V21.704C690.452 24.356 687.212 25.628 683.612 26.12C683.792 26.312 684.044 26.708 684.14 26.936C687.8 26.324 691.196 24.932 692.672 21.884L692.072 21.512L691.904 21.548H691.7ZM686.492 22.1L685.7 22.436C687.272 24.932 690.164 26.396 693.824 26.924C693.932 26.672 694.184 26.288 694.364 26.084C690.752 25.652 687.86 24.308 686.492 22.1ZM698.168 22.676C699.02 23.36 700.016 24.356 700.508 24.98L701.144 24.32C700.652 23.72 699.632 22.796 698.744 22.112L698.168 22.676ZM703.268 21.752L702.572 22.184C703.004 23.732 703.988 25.808 705.752 26.84C705.896 26.612 706.184 26.24 706.388 26.06C704.648 25.172 703.676 23.24 703.268 21.752ZM698.312 20.228C698 22.964 697.244 25.064 695.588 26.324C695.804 26.444 696.212 26.732 696.368 26.888C698.012 25.472 698.852 23.288 699.224 20.324L698.312 20.228ZM702.644 20.3C702.38 23.096 701.648 25.16 699.932 26.396C700.16 26.516 700.556 26.816 700.712 26.96C702.404 25.58 703.22 23.432 703.556 20.396L702.644 20.3ZM701.36 16.604L700.64 16.88C701.732 18.716 703.736 20.288 705.884 20.984C706.028 20.732 706.316 20.36 706.52 20.168C704.384 19.604 702.344 18.164 701.36 16.604ZM700.916 15.848C699.932 17.912 697.928 19.436 695.564 20.216C695.804 20.432 696.068 20.792 696.2 21.056C698.672 20.096 700.676 18.44 701.792 16.208L700.916 15.848Z" fill="#E6E8F0"/>
<path d="M648.635 97H650.721C650.903 92.954 651.211 90.826 653.619 87.886V86.64H646.745V88.362H651.407C649.419 91.106 648.831 93.416 648.635 97ZM655.465 99.996C657.173 99.436 658.111 98.19 658.111 96.538C658.111 95.278 657.579 94.522 656.641 94.522C655.899 94.522 655.297 94.998 655.297 95.74C655.297 96.51 655.913 96.958 656.585 96.958C656.893 96.958 657.173 96.86 657.383 96.65L656.655 95.446L656.725 96.902C656.739 97.728 656.137 98.47 655.045 98.876L655.465 99.996ZM663.559 97H665.477V86.64H662.999L659.149 92.912V94.326H666.709V92.744H661.151L662.747 90.168C663.041 89.608 663.321 89.034 663.587 88.474H663.643C663.615 89.09 663.559 90.028 663.559 90.63V97ZM669.703 97H671.789C671.971 92.954 672.279 90.826 674.687 87.886V86.64H667.813V88.362H672.475C670.487 91.106 669.899 93.416 669.703 97ZM679.193 97.196C681.181 97.196 682.847 96.104 682.847 94.2C682.847 92.828 681.951 91.974 680.775 91.638V91.568C681.881 91.148 682.497 90.322 682.497 89.216C682.497 87.438 681.139 86.458 679.137 86.458C677.933 86.458 676.939 86.948 676.043 87.718L677.093 88.992C677.709 88.418 678.311 88.068 679.053 88.068C679.935 88.068 680.439 88.558 680.439 89.37C680.439 90.294 679.823 90.938 677.919 90.938V92.422C680.173 92.422 680.775 93.052 680.775 94.074C680.775 94.998 680.061 95.53 678.997 95.53C678.059 95.53 677.317 95.054 676.701 94.452L675.721 95.754C676.449 96.594 677.555 97.196 679.193 97.196ZM685.897 97.196C686.625 97.196 687.185 96.622 687.185 95.852C687.185 95.082 686.625 94.522 685.897 94.522C685.155 94.522 684.623 95.082 684.623 95.852C684.623 96.622 685.155 97.196 685.897 97.196ZM692.298 97.196C694.384 97.196 695.784 96.006 695.784 94.438C695.784 93.01 695 92.184 694.048 91.666V91.596C694.72 91.106 695.378 90.252 695.378 89.216C695.378 87.564 694.202 86.472 692.368 86.472C690.562 86.472 689.232 87.536 689.232 89.202C689.232 90.294 689.82 91.092 690.604 91.666V91.722C689.652 92.226 688.84 93.108 688.84 94.438C688.84 96.062 690.31 97.196 692.298 97.196ZM692.956 91.092C691.864 90.658 691.052 90.168 691.052 89.202C691.052 88.376 691.612 87.914 692.326 87.914C693.18 87.914 693.698 88.502 693.698 89.356C693.698 89.972 693.46 90.56 692.956 91.092ZM692.34 95.74C691.374 95.74 690.604 95.138 690.604 94.2C690.604 93.43 690.996 92.73 691.57 92.282C692.9 92.842 693.866 93.276 693.866 94.354C693.866 95.25 693.236 95.74 692.34 95.74ZM699.029 97H701.115C701.297 92.954 701.605 90.826 704.013 87.886V86.64H697.139V88.362H701.801C699.813 91.106 699.225 93.416 699.029 97ZM709.401 97H711.319V86.64H708.841L704.991 92.912V94.326H712.551V92.744H706.993L708.589 90.168C708.883 89.608 709.163 89.034 709.429 88.474H709.485C709.457 89.09 709.401 90.028 709.401 90.63V97Z" fill="white"/>
<circle cx="630" cy="69" r="5" fill="#3F8CFF"/>
<path d="M647.876 64.58V65.42H658.22V64.58H647.876ZM652.496 65.012C652.34 65.624 652.004 66.512 651.74 67.076L652.532 67.244C652.844 66.704 653.216 65.9 653.528 65.168L652.496 65.012ZM652.556 68.456V70.628C652.556 71.912 652.052 73.34 647.6 74.24C647.792 74.42 648.044 74.78 648.14 74.96C652.808 73.964 653.492 72.296 653.492 70.652V68.456H652.556ZM653.54 72.692C654.932 73.328 656.732 74.324 657.608 74.996L658.172 74.288C657.248 73.628 655.424 72.668 654.056 72.08L653.54 72.692ZM649.052 66.872V72.464H649.964V67.7H656.108V72.452H657.068V66.872H649.052ZM663.26 69.26V70.004H666.548V69.26H663.26ZM663.26 71.348V72.092H666.584V71.348H663.26ZM660.788 73.496V74.336H669.26V73.496H660.788ZM660.236 67.088V74.972H661.112V67.928H668.84V74.972H669.752V67.088H660.236ZM662.84 67.616V73.88H663.656V67.616H662.84ZM666.2 67.616V73.844H667.028V67.616H666.2ZM664.4 65.12C664.316 65.816 664.076 66.812 663.884 67.46L664.7 67.688C664.94 67.088 665.192 66.164 665.444 65.36L664.4 65.12ZM659.696 64.724V65.588H670.328V64.724H659.696ZM672.668 68.156V69.032H676.46V68.156H672.668ZM681.056 64.772V71.912C681.056 72.104 681.008 72.164 680.816 72.164C680.612 72.164 679.952 72.176 679.22 72.152C679.364 72.404 679.52 72.848 679.568 73.112C680.468 73.112 681.092 73.1 681.476 72.932C681.86 72.764 681.968 72.452 681.968 71.936V64.772H681.056ZM677.396 64.772V74.948H678.296V65.66H681.56V64.772H677.396ZM675.74 64.16C674.912 64.592 673.484 65.024 672.224 65.324C672.332 65.528 672.464 65.84 672.524 66.044C673.832 65.768 675.368 65.36 676.46 64.88L675.74 64.16ZM672.224 65.324V71.816C672.224 72.284 671.924 72.512 671.708 72.62C671.864 72.848 672.044 73.328 672.116 73.556L673.148 72.716V65.324H672.224ZM672.116 73.556C672.416 73.376 672.872 73.22 676.472 72.296C676.448 72.092 676.412 71.72 676.424 71.456L672.548 72.392L672.056 72.74L672.116 73.556ZM687.188 69.392C689.876 70.988 690.164 73.244 689.24 73.844C689 74.024 688.7 74.048 688.388 74.048C688.112 74.048 687.68 74.036 687.248 73.988C687.392 74.228 687.476 74.576 687.5 74.816C687.896 74.84 688.256 74.852 688.544 74.852C689.06 74.84 689.408 74.768 689.816 74.48C691.172 73.628 690.884 70.712 687.776 68.924L687.188 69.392ZM688.472 70.04C687.512 70.808 685.652 71.552 684.164 71.876C684.332 72.032 684.56 72.332 684.68 72.524C686.168 72.116 688.064 71.264 689.108 70.364L688.472 70.04ZM689.36 71.192C688.172 72.224 685.88 73.208 683.996 73.64C684.176 73.808 684.416 74.12 684.536 74.324C686.396 73.796 688.724 72.716 690.02 71.54L689.36 71.192ZM686.756 64.724V65.444H690.296V64.724H686.756ZM689.168 66.584C688.316 68.588 686.264 69.716 683.768 70.292C683.912 70.448 684.14 70.784 684.224 70.952C686.768 70.244 688.928 69.032 689.912 66.812L689.168 66.584ZM692.6 69.248C691.808 69.836 690.476 70.64 689.504 71.084L690.068 71.564C691.052 71.132 692.36 70.436 693.32 69.788L692.6 69.248ZM685.76 67.076H692.3V68.372H685.76V67.076ZM684.908 66.38V69.068H693.188V66.38H684.908ZM687.092 63.884C686.432 64.868 685.22 66.056 683.612 66.92C683.816 67.052 684.092 67.34 684.224 67.544C685.916 66.548 687.152 65.288 688.028 64.076L687.092 63.884ZM689.96 64.724V64.904C689.72 65.396 689.192 66.14 688.712 66.572C688.916 66.68 689.204 66.872 689.372 66.992C689.9 66.524 690.524 65.756 690.908 65.084L690.308 64.688L690.164 64.724H689.96ZM691.436 70.328L690.752 70.748C691.196 71.948 692.252 73.568 693.824 74.348C693.944 74.108 694.232 73.748 694.424 73.58C692.864 72.92 691.844 71.468 691.436 70.328Z" fill="#E6E8F0"/>
<rect x="681" y="255" width="40" height="2" rx="1" fill="#3F8CFF"/>
<g filter="url(#filter0_d_36_6747)">
<circle cx="698" cy="222" r="4" fill="#3F8CFF"/>
<circle cx="698" cy="222" r="5" stroke="white" stroke-width="2"/>
</g>
<g filter="url(#filter1_d_36_6747)">
<circle cx="698" cy="143" r="4" fill="#6C5DD3"/>
<circle cx="698" cy="143" r="5" stroke="white" stroke-width="2"/>
</g>
<defs>
<filter id="filter0_d_36_6747" x="672" y="200" width="60" height="60" filterUnits="userSpaceOnUse" color-interpolation-filters="sRGB">
<feFlood flood-opacity="0" result="BackgroundImageFix"/>
<feColorMatrix in="SourceAlpha" type="matrix" values="0 0 0 0 0 0 0 0 0 0 0 0 0 0 0 0 0 0 127 0" result="hardAlpha"/>
<feOffset dx="4" dy="8"/>
<feGaussianBlur stdDeviation="12"/>
<feComposite in2="hardAlpha" operator="out"/>
<feColorMatrix type="matrix" values="0 0 0 0 0.247059 0 0 0 0 0.54902 0 0 0 0 1 0 0 0 1 0"/>
<feBlend mode="normal" in2="BackgroundImageFix" result="effect1_dropShadow_36_6747"/>
<feBlend mode="normal" in="SourceGraphic" in2="effect1_dropShadow_36_6747" result="shape"/>
</filter>
<filter id="filter1_d_36_6747" x="672" y="121" width="60" height="60" filterUnits="userSpaceOnUse" color-interpolation-filters="sRGB">
<feFlood flood-opacity="0" result="BackgroundImageFix"/>
<feColorMatrix in="SourceAlpha" type="matrix" values="0 0 0 0 0 0 0 0 0 0 0 0 0 0 0 0 0 0 127 0" result="hardAlpha"/>
<feOffset dx="4" dy="8"/>
<feGaussianBlur stdDeviation="12"/>
<feComposite in2="hardAlpha" operator="out"/>
<feColorMatrix type="matrix" values="0 0 0 0 0.422202 0 0 0 0 0.364556 0 0 0 0 0.825719 0 0 0 1 0"/>
<feBlend mode="normal" in2="BackgroundImageFix" result="effect1_dropShadow_36_6747"/>
<feBlend mode="normal" in="SourceGraphic" in2="effect1_dropShadow_36_6747" result="shape"/>
</filter>
<linearGradient id="paint0_linear_36_6747" x1="477" y1="97" x2="477" y2="256" gradientUnits="userSpaceOnUse">
<stop stop-color="#6C5DD3" stop-opacity="0.56"/>
<stop offset="1" stop-color="#FFEBF6" stop-opacity="0.22"/>
</linearGradient>
<linearGradient id="paint1_linear_36_6747" x1="477" y1="107" x2="477" y2="256" gradientUnits="userSpaceOnUse">
<stop stop-color="#CDF4FF"/>
<stop offset="1" stop-color="#3F8CFF" stop-opacity="0.34"/>
</linearGradient>
</defs>
</svg>
