<svg width="347" height="240" viewBox="0 0 347 240" fill="none" xmlns="http://www.w3.org/2000/svg">
<g clip-path="url(#clip0_73_1075)">
<path fill-rule="evenodd" clip-rule="evenodd" d="M0 16C0 7.16344 7.16344 0 16 0H331C339.837 0 347 7.16344 347 16V224C347 232.837 339.837 240 331 240H16C7.16344 240 0 232.837 0 224V16Z" fill="white"/>
<path d="M29.12 31.512V32.872H39.136V31.512H29.12ZM33.136 37.272V43.656H34.48V37.272H33.136ZM30.352 37.256V38.824C30.352 40.248 30.144 41.992 28.24 43.304C28.576 43.528 29.088 43.992 29.296 44.296C31.472 42.744 31.728 40.616 31.728 38.872V37.256H30.352ZM35.376 33.608C36.336 34.712 37.52 36.216 38.048 37.16L39.264 36.36C38.704 35.432 37.472 33.976 36.512 32.92L35.376 33.608ZM35.904 37.256V42.2C35.904 43.208 36 43.512 36.256 43.752C36.496 43.976 36.88 44.072 37.232 44.072C37.424 44.072 37.808 44.072 38.032 44.072C38.32 44.072 38.656 44.008 38.848 43.88C39.088 43.752 39.232 43.528 39.328 43.208C39.424 42.92 39.472 42.072 39.504 41.368C39.152 41.24 38.704 41.032 38.464 40.792C38.448 41.544 38.432 42.12 38.4 42.376C38.368 42.632 38.32 42.744 38.256 42.808C38.192 42.856 38.08 42.872 37.968 42.872C37.872 42.872 37.696 42.872 37.6 42.872C37.52 42.872 37.424 42.84 37.392 42.792C37.328 42.728 37.312 42.568 37.312 42.28V37.256H35.904ZM29.664 36.76C29.664 36.344 31.408 35.848 31.408 35.848C32.256 34.92 33.712 33 34.528 31.912H32.816C32.304 32.632 30.864 34.472 30.448 34.856C30.128 35.144 29.616 35.256 29.28 35.336C29.392 35.656 29.6 36.392 29.664 36.76ZM29.664 36.76C30.208 36.552 31.024 36.488 37.872 36.008C37.776 35.704 37.648 35.16 37.6 34.776L30.48 35.176L29.632 35.656L29.664 36.76ZM32.88 29.832C33.216 30.568 33.568 31.576 33.696 32.2L35.168 31.8C35.008 31.192 34.624 30.216 34.256 29.496L32.88 29.832ZM25.264 30.792C26.24 31.32 27.472 32.168 28.048 32.776L28.944 31.576C28.336 30.968 27.088 30.184 26.128 29.704L25.264 30.792ZM24.576 35.208C25.6 35.656 26.896 36.408 27.52 36.968L28.368 35.704C27.696 35.16 26.4 34.472 25.376 34.072L24.576 35.208ZM24.928 43.128L26.192 44.152C27.152 42.632 28.224 40.712 29.072 39.016L27.968 38.024C27.024 39.848 25.776 41.912 24.928 43.128ZM44.556 32.36H51.948V33.096H44.556V32.36ZM44.556 30.84H51.948V31.56H44.556V30.84ZM43.1 30.008V33.928H53.468V30.008H43.1ZM44.236 38.68H52.412V39.448H44.236V38.68ZM44.236 37.112H52.412V37.864H44.236V37.112ZM42.812 36.248V40.312H53.9V36.248H42.812ZM47.532 36.552V43.432H49.004V36.552H47.532ZM41.084 34.52V35.64H55.532V34.52H41.084ZM42.412 41.032V42.04H54.236V41.032H42.412ZM41.02 42.824V43.96H55.596V42.824H41.02ZM57.464 36.552V38.008H71.752V36.552H57.464ZM58.216 31.352V32.792H71.096V31.352H58.216ZM63.784 29.496V44.344H65.384V29.496H63.784ZM68.536 32.936C68.2 33.896 67.544 35.224 67.016 36.056L68.328 36.504C68.872 35.736 69.544 34.52 70.12 33.416L68.536 32.936ZM59.416 33.512C60.008 34.44 60.6 35.704 60.776 36.504L62.216 35.928C62.008 35.128 61.384 33.912 60.76 33L59.416 33.512ZM63.464 37.128C62.12 39.256 59.512 41.4 57.064 42.456C57.416 42.76 57.896 43.336 58.136 43.704C60.6 42.472 63.176 40.136 64.696 37.624L63.464 37.128ZM65.752 37.144L64.52 37.64C66.04 40.12 68.6 42.52 71.064 43.752C71.304 43.368 71.784 42.792 72.136 42.488C69.704 41.432 67.096 39.272 65.752 37.144ZM78.724 30.312V31.672H88.164V30.312H78.724ZM78.244 30.312V34.712C78.244 37.336 78.084 40.984 76.276 43.512C76.628 43.672 77.268 44.072 77.54 44.328C79.444 41.64 79.716 37.528 79.716 34.712V30.312H78.244ZM81.844 36.664H86.212V37.848H81.844V36.664ZM81.844 34.44H86.212V35.592H81.844V34.44ZM80.484 33.32V38.968H87.62V33.32H80.484ZM80.932 39.752C80.484 40.792 79.812 41.912 79.124 42.68C79.46 42.872 80.036 43.208 80.324 43.432C80.98 42.6 81.764 41.288 82.276 40.136L80.932 39.752ZM85.46 40.104C86.052 41.128 86.756 42.472 87.092 43.288L88.484 42.664C88.116 41.896 87.364 40.568 86.772 39.592L85.46 40.104ZM83.236 31.768C83.124 32.328 82.868 33.144 82.66 33.704L83.86 34.04C84.18 33.56 84.564 32.824 84.932 32.088L83.236 31.768ZM83.22 38.456V42.824C83.22 43 83.156 43.048 82.964 43.064C82.772 43.064 82.084 43.064 81.412 43.048C81.588 43.416 81.764 43.96 81.812 44.344C82.852 44.36 83.572 44.344 84.052 44.136C84.548 43.928 84.66 43.544 84.66 42.856V38.456H83.22ZM74.196 30.728C75.06 31.256 76.26 32.024 76.852 32.504L77.764 31.304C77.14 30.856 75.924 30.136 75.092 29.656L74.196 30.728ZM73.428 35.048C74.292 35.528 75.492 36.28 76.1 36.728L76.996 35.496C76.356 35.08 75.14 34.408 74.292 33.96L73.428 35.048ZM73.7 43.304L75.076 44.136C75.812 42.6 76.644 40.68 77.284 38.968L76.052 38.136C75.348 39.976 74.388 42.056 73.7 43.304Z" fill="#111827"/>
<g clip-path="url(#clip1_73_1075)">
<path fill-rule="evenodd" clip-rule="evenodd" d="M230 28C230 25.7909 231.791 24 234 24H319C321.209 24 323 25.7909 323 28V44C323 46.2091 321.209 48 319 48H234C231.791 48 230 46.2091 230 44V28Z" fill="#F9FAFB"/>
<g clip-path="url(#clip2_73_1075)">
<path d="M250.157 34.47V35.32H256.257V34.47H250.157ZM254.307 35C253.977 37.41 252.727 38.53 250.177 39.05C250.347 39.25 250.557 39.65 250.627 39.87C253.437 39.17 254.827 37.88 255.327 35.06L254.307 35ZM250.747 36.97C252.397 37.78 254.537 39.04 255.557 39.87L256.237 39.14C255.147 38.31 252.967 37.11 251.367 36.35L250.747 36.97ZM252.497 30.66C252.657 31.15 252.847 31.81 252.907 32.23L253.897 32.05C253.807 31.63 253.627 30.99 253.447 30.51L252.497 30.66ZM250.747 36.97L251.647 37.33C252.227 36.24 252.957 34.55 253.367 33.12L252.407 32.98C252.057 34.29 251.337 35.94 250.747 36.97ZM250.467 31.79V33.82H251.357V32.62H255.207V33.81H256.127V31.79H250.467ZM246.897 36.12L247.107 37.03C248.057 36.75 249.277 36.38 250.417 36.02L250.287 35.17C249.057 35.53 247.767 35.9 246.897 36.12ZM247.027 32.52V33.4H250.237V32.52H247.027ZM248.307 30.56V38.81C248.307 38.95 248.247 39 248.117 39C247.987 39 247.577 39 247.147 38.99C247.267 39.23 247.397 39.61 247.417 39.84C248.097 39.85 248.537 39.82 248.827 39.68C249.117 39.54 249.217 39.29 249.217 38.81V30.56H248.307ZM259.237 31.07V31.99H264.357V31.07H259.237ZM259.247 33.47V34.37H264.407V33.47H259.247ZM259.177 35.86V36.78H264.347V35.86H259.177ZM258.617 31.07V34.25C258.617 35.82 258.467 37.81 256.887 39.17C257.097 39.3 257.477 39.65 257.617 39.85C259.327 38.39 259.587 35.99 259.587 34.25V31.07H258.617ZM263.927 31.07V38.54C263.927 38.76 263.857 38.83 263.617 38.84C263.387 38.84 262.567 38.85 261.787 38.82C261.947 39.08 262.127 39.53 262.187 39.81C263.247 39.81 263.927 39.8 264.357 39.63C264.767 39.47 264.927 39.17 264.927 38.56V31.07H263.927Z" fill="#718096"/>
</g>
<g clip-path="url(#clip3_73_1075)" filter="url(#filter0_d_73_1075)">
<g filter="url(#filter1_d_73_1075)">
<path fill-rule="evenodd" clip-rule="evenodd" d="M279 30C279 27.7909 280.791 26 283 26H317C319.209 26 321 27.7909 321 30V42C321 44.2091 319.209 46 317 46H283C280.791 46 279 44.2091 279 42V30Z" fill="white"/>
</g>
<path d="M294.752 34.47V35.32H300.852V34.47H294.752ZM298.902 35C298.572 37.41 297.322 38.53 294.772 39.05C294.942 39.25 295.152 39.65 295.222 39.87C298.032 39.17 299.422 37.88 299.922 35.06L298.902 35ZM295.342 36.97C296.992 37.78 299.132 39.04 300.152 39.87L300.832 39.14C299.742 38.31 297.562 37.11 295.962 36.35L295.342 36.97ZM297.092 30.66C297.252 31.15 297.442 31.81 297.502 32.23L298.492 32.05C298.402 31.63 298.222 30.99 298.042 30.51L297.092 30.66ZM295.342 36.97L296.242 37.33C296.822 36.24 297.552 34.55 297.962 33.12L297.002 32.98C296.652 34.29 295.932 35.94 295.342 36.97ZM295.062 31.79V33.82H295.952V32.62H299.802V33.81H300.722V31.79H295.062ZM291.492 36.12L291.702 37.03C292.652 36.75 293.872 36.38 295.012 36.02L294.882 35.17C293.652 35.53 292.362 35.9 291.492 36.12ZM291.622 32.52V33.4H294.832V32.52H291.622ZM292.902 30.56V38.81C292.902 38.95 292.842 39 292.712 39C292.582 39 292.172 39 291.742 38.99C291.862 39.23 291.992 39.61 292.012 39.84C292.692 39.85 293.132 39.82 293.422 39.68C293.712 39.54 293.812 39.29 293.812 38.81V30.56H292.902ZM303.182 31.04V31.92H309.542V31.04H303.182ZM304.152 32.88V33.62H308.472V32.88H304.152ZM303.922 34.44V35.21H308.702V34.44H303.922ZM302.612 31.04V34.39C302.612 35.9 302.522 37.9 301.512 39.29C301.722 39.41 302.122 39.72 302.272 39.9C303.392 38.39 303.552 36.04 303.552 34.39V31.04H302.612ZM309.172 31.04V38.73C309.172 38.9 309.112 38.96 308.932 38.96C308.762 38.97 308.152 38.98 307.562 38.95C307.692 39.19 307.832 39.59 307.862 39.83C308.752 39.83 309.302 39.82 309.652 39.68C310.002 39.52 310.122 39.27 310.122 38.73V31.04H309.172ZM305.822 32.1V34.87H306.722V32.1H305.822ZM304.852 35.93V36.67H307.362V37.87H304.852V38.6H308.242V35.93H304.852ZM304.362 35.93V39.16H305.222V35.93H304.362Z" fill="#168AFF"/>
</g>
</g>
<path d="M25.056 210.5H29.88V209.588H28.104V201.956H27.264C26.796 202.232 26.232 202.436 25.44 202.58V203.288H27.012V209.588H25.056V210.5ZM33.9923 210.668C35.6843 210.668 36.7162 209.072 36.7162 206.204C36.7162 203.336 35.6843 201.8 33.9923 201.8C32.2763 201.8 31.2443 203.336 31.2443 206.204C31.2443 209.072 32.2763 210.668 33.9923 210.668ZM33.9923 209.78C32.9843 209.78 32.3003 208.712 32.3003 206.204C32.3003 203.684 32.9843 202.676 33.9923 202.676C34.9883 202.676 35.6603 203.684 35.6603 206.204C35.6603 208.712 34.9883 209.78 33.9923 209.78ZM38.4165 210.5H39.4965V208.784L40.7085 207.356L42.6165 210.5H43.8045L41.3565 206.612L43.5285 203.984H42.3045L39.5325 207.428H39.4965V200.96H38.4165V210.5Z" fill="#A0AEC0"/>
<path d="M92.6384 210.5H98.1584V209.564H95.6744C95.2304 209.564 94.6904 209.6 94.2344 209.648C96.2624 207.512 97.7384 205.916 97.7384 204.308C97.7384 202.784 96.7544 201.8 95.1824 201.8C94.0664 201.8 93.2984 202.304 92.5784 203.084L93.2144 203.708C93.7064 203.132 94.3304 202.676 95.0504 202.676C96.1424 202.676 96.6584 203.372 96.6584 204.344C96.6584 205.748 95.2184 207.296 92.6384 209.864V210.5ZM102.103 210.668C103.795 210.668 104.827 209.072 104.827 206.204C104.827 203.336 103.795 201.8 102.103 201.8C100.387 201.8 99.3546 203.336 99.3546 206.204C99.3546 209.072 100.387 210.668 102.103 210.668ZM102.103 209.78C101.095 209.78 100.411 208.712 100.411 206.204C100.411 203.684 101.095 202.676 102.103 202.676C103.099 202.676 103.771 203.684 103.771 206.204C103.771 208.712 103.099 209.78 102.103 209.78ZM106.527 210.5H107.607V208.784L108.819 207.356L110.727 210.5H111.915L109.467 206.612L111.639 203.984H110.415L107.643 207.428H107.607V200.96H106.527V210.5Z" fill="#A0AEC0"/>
<path d="M166.877 210.668C168.449 210.668 169.709 209.744 169.709 208.22C169.709 207.056 168.869 206.288 167.837 206.048V206C168.773 205.652 169.397 204.992 169.397 203.96C169.397 202.58 168.317 201.8 166.841 201.8C165.833 201.8 165.053 202.244 164.393 202.856L164.981 203.552C165.473 203.048 166.097 202.676 166.805 202.676C167.717 202.676 168.281 203.204 168.281 204.032C168.281 204.932 167.669 205.64 165.857 205.64V206.48C167.885 206.48 168.593 207.164 168.593 208.184C168.593 209.144 167.849 209.756 166.805 209.756C165.797 209.756 165.137 209.276 164.621 208.736L164.069 209.456C164.645 210.092 165.497 210.668 166.877 210.668ZM173.713 210.668C175.405 210.668 176.437 209.072 176.437 206.204C176.437 203.336 175.405 201.8 173.713 201.8C171.997 201.8 170.965 203.336 170.965 206.204C170.965 209.072 171.997 210.668 173.713 210.668ZM173.713 209.78C172.705 209.78 172.021 208.712 172.021 206.204C172.021 203.684 172.705 202.676 173.713 202.676C174.709 202.676 175.381 203.684 175.381 206.204C175.381 208.712 174.709 209.78 173.713 209.78ZM178.137 210.5H179.217V208.784L180.429 207.356L182.337 210.5H183.525L181.077 206.612L183.249 203.984H182.025L179.253 207.428H179.217V200.96H178.137V210.5Z" fill="#A0AEC0"/>
<path d="M237.649 210.5H238.681V201.956H237.469L233.809 207.416V208.136H239.857V207.272H234.961L236.965 204.332C237.205 203.912 237.445 203.528 237.661 203.132H237.721C237.685 203.576 237.649 204.32 237.649 204.764V210.5ZM243.573 210.668C245.265 210.668 246.297 209.072 246.297 206.204C246.297 203.336 245.265 201.8 243.573 201.8C241.857 201.8 240.825 203.336 240.825 206.204C240.825 209.072 241.857 210.668 243.573 210.668ZM243.573 209.78C242.565 209.78 241.881 208.712 241.881 206.204C241.881 203.684 242.565 202.676 243.573 202.676C244.569 202.676 245.241 203.684 245.241 206.204C245.241 208.712 244.569 209.78 243.573 209.78ZM247.998 210.5H249.078V208.784L250.29 207.356L252.198 210.5H253.386L250.938 206.612L253.11 203.984H251.886L249.114 207.428H249.078V200.96H247.998V210.5Z" fill="#A0AEC0"/>
<path d="M306.573 210.668C308.049 210.668 309.453 209.624 309.453 207.764C309.453 205.916 308.265 205.088 306.801 205.088C306.273 205.088 305.877 205.22 305.481 205.436L305.709 202.892H309.033V201.956H304.749L304.473 206.072L305.061 206.444C305.565 206.108 305.937 205.916 306.525 205.916C307.617 205.916 308.337 206.624 308.337 207.8C308.337 209 307.509 209.756 306.465 209.756C305.457 209.756 304.809 209.288 304.317 208.772L303.765 209.492C304.365 210.092 305.205 210.668 306.573 210.668ZM313.434 210.668C315.126 210.668 316.158 209.072 316.158 206.204C316.158 203.336 315.126 201.8 313.434 201.8C311.718 201.8 310.686 203.336 310.686 206.204C310.686 209.072 311.718 210.668 313.434 210.668ZM313.434 209.78C312.426 209.78 311.742 208.712 311.742 206.204C311.742 203.684 312.426 202.676 313.434 202.676C314.43 202.676 315.102 203.684 315.102 206.204C315.102 208.712 314.43 209.78 313.434 209.78ZM317.858 210.5H318.938V208.784L320.15 207.356L322.058 210.5H323.246L320.798 206.612L322.97 203.984H321.746L318.974 207.428H318.938V200.96H317.858V210.5Z" fill="#A0AEC0"/>
<path d="M102 64V189" stroke="#F1F2F4" stroke-dasharray="12 6"/>
<path d="M172 64V189" stroke="#F1F2F4" stroke-dasharray="12 6"/>
<path d="M242 64V189" stroke="#F1F2F4" stroke-dasharray="12 6"/>
<path d="M313 64V189" stroke="#F1F2F4" stroke-dasharray="12 6"/>
<g clip-path="url(#clip4_73_1075)">
<path d="M24.636 70.068V71.112H29.376V70.068H24.636ZM24.516 76.74L24.78 77.868C26.04 77.556 27.72 77.148 29.292 76.752L29.184 75.708C27.492 76.104 25.704 76.512 24.516 76.74ZM25.08 71.784C25.332 73.092 25.572 74.808 25.62 75.948L26.556 75.768C26.484 74.616 26.244 72.936 25.968 71.616L25.08 71.784ZM27.816 71.484C27.684 72.948 27.372 75.024 27.06 76.26L27.9 76.452C28.236 75.24 28.62 73.236 28.872 71.676L27.816 71.484ZM26.016 68.22C26.328 68.784 26.664 69.552 26.796 70.044L27.816 69.696C27.672 69.216 27.336 68.484 27 67.932L26.016 68.22ZM32.1 70.236V71.316H35.556V70.236H32.1ZM30.06 77.376V78.432H34.488V77.376H30.06ZM31.452 67.86V74.04H32.616V67.86H31.452ZM29.544 73.572V78.996H30.648V74.64H33.936V78.948H35.088V73.572H29.544ZM41.34 72.948C42.492 74.016 43.98 75.516 44.664 76.44L45.6 75.708C44.856 74.784 43.344 73.344 42.192 72.336L41.34 72.948ZM41.424 67.872V70.452C41.424 72.072 41.244 74.292 38.424 75.78C38.688 75.984 39.072 76.392 39.24 76.632C42.18 74.904 42.588 72.408 42.588 70.452V67.872H41.424ZM37.128 69.9V79.032H38.256V71.016H46.272V69.9H37.128ZM45.768 69.9V77.616C45.768 77.82 45.696 77.892 45.468 77.904C45.228 77.904 44.424 77.916 43.632 77.88C43.788 78.18 43.968 78.696 44.016 79.02C45.084 79.02 45.84 79.008 46.296 78.828C46.74 78.636 46.896 78.3 46.896 77.628V69.9H45.768ZM48.396 74.148L48.684 75.228C49.704 74.856 51.012 74.376 52.224 73.908L52.032 72.9C50.712 73.38 49.32 73.872 48.396 74.148ZM48.504 70.236V71.28H52.092V70.236H48.504ZM49.872 67.872V77.688C49.872 77.844 49.812 77.892 49.68 77.892C49.536 77.892 49.128 77.892 48.684 77.88C48.828 78.204 48.96 78.684 48.996 78.972C49.716 78.984 50.196 78.936 50.52 78.756C50.844 78.564 50.952 78.252 50.952 77.688V67.872H49.872ZM54.552 68.268C54.108 68.58 53.352 68.928 52.656 69.156C52.776 69.36 52.932 69.696 52.98 69.9C53.748 69.696 54.636 69.396 55.344 69.012L54.552 68.268ZM52.656 69.156V73.404H53.628V69.468L52.656 69.156ZM52.968 72.492V73.404H59.052V68.808H56.724V69.732H58.032V72.492H52.968ZM53.088 70.692V71.532H54.78V70.692H53.088ZM56.76 70.692V71.52H58.536V70.692H56.76ZM55.272 67.872V74.892H56.292V67.872H55.272ZM52.548 74.448V75.408H58.248V74.448H52.548ZM57.948 74.448V74.604C57.036 76.704 54.468 77.76 51.66 78.12C51.84 78.348 52.056 78.768 52.152 79.032C55.176 78.54 57.9 77.376 59.028 74.724L58.344 74.412L58.164 74.448H57.948ZM53.868 75.12L52.956 75.48C54.168 77.316 56.352 78.492 58.956 78.984C59.1 78.708 59.388 78.288 59.616 78.072C57.072 77.676 54.9 76.656 53.868 75.12ZM65.4 67.872V71.28H66.6V67.872H65.4ZM67.908 74.148C68.76 74.868 69.816 75.924 70.284 76.584L71.148 76.008C70.632 75.336 69.552 74.34 68.712 73.644L67.908 74.148ZM67.524 76.86C68.52 77.412 69.804 78.24 70.416 78.78L71.34 78.132C70.656 77.592 69.348 76.8 68.388 76.296L67.524 76.86ZM63.348 76.368C62.676 76.992 61.608 77.64 60.636 78.06C60.876 78.24 61.296 78.612 61.5 78.816C62.436 78.336 63.6 77.532 64.38 76.788L63.348 76.368ZM60.888 68.88V69.864H71.1V68.88H60.888ZM60.708 70.812V73.176H61.788V71.772H70.188V73.176H71.304V70.812H60.708ZM61.464 76.308C61.464 76.128 62.1 75.912 62.1 75.912V75.864C64.344 75.18 66.708 74.196 68.844 72.9L68.052 72.228C66.216 73.44 63.576 74.568 62.808 74.856C62.112 75.144 61.608 75.3 61.188 75.348C61.284 75.612 61.428 76.104 61.464 76.308ZM61.464 76.308C61.932 76.152 62.616 76.104 69.612 75.66C69.552 75.48 69.48 75.12 69.456 74.868L62.1 75.276L61.452 75.612L61.464 76.308ZM62.34 74.292C62.34 74.112 62.832 73.872 62.832 73.872V73.836C64.008 73.392 65.208 72.744 66.228 72.024L65.448 71.412C64.596 72.144 63.312 72.828 62.94 73.02C62.58 73.2 62.292 73.308 62.052 73.344C62.148 73.608 62.292 74.088 62.34 74.292ZM62.34 74.292C62.616 74.196 63.06 74.136 66.804 73.92C66.828 73.752 66.9 73.428 66.96 73.212L62.832 73.416L62.328 73.68L62.34 74.292ZM65.652 75.42V77.748C65.652 77.892 65.604 77.928 65.4 77.94C65.208 77.952 64.536 77.952 63.828 77.928C63.996 78.216 64.176 78.648 64.248 78.972C65.124 78.972 65.748 78.96 66.192 78.792C66.636 78.624 66.756 78.336 66.756 77.784V75.42H65.652Z" fill="#111827"/>
<path d="M277.664 73.928H280.208V70.232H280.184L277.664 73.928ZM282.584 75.008H281.504V77H280.208V75.008H276.608V73.652L280.208 68.6H281.504V73.928H282.584V75.008ZM286.324 69.512C285.956 69.512 285.644 69.624 285.388 69.848C285.132 70.064 285.004 70.38 285.004 70.796C285.004 71.196 285.128 71.504 285.376 71.72C285.624 71.928 285.94 72.032 286.324 72.032C286.708 72.032 287.024 71.928 287.272 71.72C287.52 71.504 287.644 71.196 287.644 70.796C287.644 70.38 287.516 70.064 287.26 69.848C287.004 69.624 286.692 69.512 286.324 69.512ZM286.324 77.168C285.9 77.168 285.504 77.108 285.136 76.988C284.776 76.868 284.464 76.696 284.2 76.472C283.936 76.24 283.728 75.96 283.576 75.632C283.432 75.304 283.36 74.936 283.36 74.528C283.36 74 283.496 73.556 283.768 73.196C284.048 72.836 284.424 72.596 284.896 72.476V72.452C284.512 72.308 284.216 72.088 284.008 71.792C283.808 71.488 283.708 71.132 283.708 70.724C283.708 70.004 283.932 69.444 284.38 69.044C284.836 68.636 285.484 68.432 286.324 68.432C287.164 68.432 287.808 68.636 288.256 69.044C288.712 69.444 288.94 70.004 288.94 70.724C288.94 71.132 288.836 71.488 288.628 71.792C288.428 72.088 288.136 72.308 287.752 72.452V72.476C288.224 72.596 288.596 72.836 288.868 73.196C289.148 73.556 289.288 74 289.288 74.528C289.288 74.936 289.212 75.304 289.06 75.632C288.916 75.96 288.712 76.24 288.448 76.472C288.184 76.696 287.868 76.868 287.5 76.988C287.14 77.108 286.748 77.168 286.324 77.168ZM286.324 76.088C286.78 76.088 287.16 75.952 287.464 75.68C287.768 75.408 287.92 75.024 287.92 74.528C287.92 74.064 287.768 73.704 287.464 73.448C287.16 73.184 286.78 73.052 286.324 73.052C285.868 73.052 285.488 73.184 285.184 73.448C284.88 73.704 284.728 74.064 284.728 74.528C284.728 75.024 284.88 75.408 285.184 75.68C285.488 75.952 285.868 76.088 286.324 76.088ZM290.484 75.38H292.152V77C292.144 77.496 291.992 77.912 291.696 78.248C291.4 78.584 291.012 78.8 290.532 78.896V78.164C290.796 78.1 290.992 77.952 291.12 77.72C291.256 77.496 291.32 77.256 291.312 77H290.484V75.38ZM295.732 72.08C295.956 72.088 296.18 72.072 296.404 72.032C296.628 71.992 296.828 71.924 297.004 71.828C297.18 71.724 297.32 71.584 297.424 71.408C297.536 71.232 297.592 71.016 297.592 70.76C297.592 70.4 297.468 70.112 297.22 69.896C296.98 69.68 296.668 69.572 296.284 69.572C296.044 69.572 295.836 69.62 295.66 69.716C295.484 69.812 295.336 69.944 295.216 70.112C295.104 70.272 295.02 70.456 294.964 70.664C294.908 70.864 294.884 71.072 294.892 71.288H293.524C293.54 70.88 293.616 70.504 293.752 70.16C293.888 69.808 294.072 69.504 294.304 69.248C294.544 68.992 294.832 68.792 295.168 68.648C295.504 68.504 295.884 68.432 296.308 68.432C296.636 68.432 296.956 68.48 297.268 68.576C297.588 68.672 297.872 68.812 298.12 68.996C298.376 69.18 298.58 69.416 298.732 69.704C298.884 69.984 298.96 70.308 298.96 70.676C298.96 71.1 298.864 71.472 298.672 71.792C298.48 72.104 298.18 72.332 297.772 72.476V72.5C298.252 72.596 298.624 72.836 298.888 73.22C299.16 73.596 299.296 74.056 299.296 74.6C299.296 75 299.216 75.36 299.056 75.68C298.896 75.992 298.68 76.26 298.408 76.484C298.136 76.7 297.82 76.868 297.46 76.988C297.1 77.108 296.72 77.168 296.32 77.168C295.832 77.168 295.404 77.1 295.036 76.964C294.676 76.82 294.372 76.62 294.124 76.364C293.884 76.108 293.7 75.8 293.572 75.44C293.444 75.08 293.376 74.68 293.368 74.24H294.736C294.72 74.752 294.844 75.18 295.108 75.524C295.38 75.86 295.784 76.028 296.32 76.028C296.776 76.028 297.156 75.9 297.46 75.644C297.772 75.38 297.928 75.008 297.928 74.528C297.928 74.2 297.864 73.94 297.736 73.748C297.608 73.556 297.44 73.412 297.232 73.316C297.024 73.212 296.788 73.148 296.524 73.124C296.268 73.1 296.004 73.092 295.732 73.1V72.08ZM301.008 73.928H303.552V70.232H303.528L301.008 73.928ZM305.928 75.008H304.848V77H303.552V75.008H299.952V73.652L303.552 68.6H304.848V73.928H305.928V75.008ZM307.808 68.6H312.152V69.824H308.828L308.396 71.96L308.42 71.984C308.604 71.776 308.836 71.62 309.116 71.516C309.404 71.404 309.688 71.348 309.968 71.348C310.384 71.348 310.756 71.42 311.084 71.564C311.412 71.7 311.688 71.896 311.912 72.152C312.136 72.4 312.304 72.696 312.416 73.04C312.536 73.384 312.596 73.756 312.596 74.156C312.596 74.492 312.54 74.84 312.428 75.2C312.324 75.552 312.152 75.876 311.912 76.172C311.68 76.46 311.38 76.7 311.012 76.892C310.644 77.076 310.204 77.168 309.692 77.168C309.284 77.168 308.904 77.112 308.552 77C308.208 76.896 307.904 76.736 307.64 76.52C307.376 76.304 307.164 76.04 307.004 75.728C306.852 75.408 306.768 75.036 306.752 74.612H308.12C308.16 75.068 308.316 75.42 308.588 75.668C308.86 75.908 309.22 76.028 309.668 76.028C309.956 76.028 310.2 75.98 310.4 75.884C310.6 75.788 310.76 75.656 310.88 75.488C311.008 75.32 311.096 75.124 311.144 74.9C311.2 74.676 311.228 74.436 311.228 74.18C311.228 73.948 311.196 73.728 311.132 73.52C311.068 73.304 310.972 73.116 310.844 72.956C310.716 72.796 310.548 72.668 310.34 72.572C310.14 72.476 309.904 72.428 309.632 72.428C309.344 72.428 309.072 72.484 308.816 72.596C308.568 72.7 308.388 72.9 308.276 73.196H306.908L307.808 68.6Z" fill="#718096"/>
<g clip-path="url(#clip5_73_1075)">
<path fill-rule="evenodd" clip-rule="evenodd" d="M24 89C24 87.8954 24.8954 87 26 87H311C312.105 87 313 87.8954 313 89V93C313 94.1046 312.105 95 311 95H26C24.8954 95 24 94.1046 24 93V89Z" fill="#F9FAFB"/>
<path fill-rule="evenodd" clip-rule="evenodd" d="M24 89C24 87.8954 24.8954 87 26 87H283.91C285.015 87 285.91 87.8954 285.91 89V93C285.91 94.1046 285.015 95 283.91 95H26C24.8954 95 24 94.1046 24 93V89Z" fill="#168AFF"/>
</g>
</g>
<g clip-path="url(#clip6_73_1075)">
<path d="M26.496 113.404V116.584C26.496 118.06 26.364 120.112 24.408 121.3C24.612 121.456 24.9 121.768 25.032 121.972C27.096 120.568 27.396 118.324 27.396 116.584V113.404H26.496ZM27.072 119.656C27.66 120.328 28.392 121.252 28.728 121.828L29.52 121.204C29.16 120.652 28.404 119.764 27.828 119.128L27.072 119.656ZM24.876 111.568V118.876H25.752V112.588H28.092V118.828H29.004V111.568H24.876ZM30.732 110.872C30.372 112.384 29.736 113.908 28.956 114.88C29.208 115.036 29.664 115.396 29.856 115.576C30.66 114.496 31.38 112.792 31.824 111.112L30.732 110.872ZM30.816 112.732L30.288 113.764H34.668V112.732H30.816ZM34.176 112.732V112.972C34.056 118.312 33.912 120.292 33.564 120.7C33.444 120.868 33.324 120.904 33.12 120.904C32.868 120.904 32.316 120.904 31.692 120.856C31.884 121.168 32.016 121.66 32.04 121.984C32.64 122.008 33.228 122.02 33.6 121.96C34.02 121.9 34.284 121.78 34.548 121.396C34.98 120.808 35.112 118.9 35.256 113.284C35.256 113.14 35.256 112.732 35.256 112.732H34.176ZM29.844 119.512C30.096 119.356 30.504 119.224 33.264 118.648C33.192 118.444 33.12 118.06 33.084 117.796L30.228 118.336L29.772 118.672L29.844 119.512ZM29.844 119.512C29.844 119.296 30.48 118.96 30.48 118.96V118.948C31.056 117.892 31.668 116.344 32.028 114.916L30.984 114.616C30.744 115.972 30.204 117.46 30.024 117.832C29.856 118.228 29.688 118.492 29.508 118.552C29.628 118.816 29.784 119.296 29.844 119.512ZM32.016 116.488C32.388 117.436 32.76 118.696 32.892 119.44L33.756 119.116C33.6 118.396 33.204 117.172 32.808 116.236L32.016 116.488ZM42.312 110.872C41.928 112.672 41.232 114.4 40.248 115.468C40.488 115.612 40.932 115.936 41.112 116.116C42.108 114.916 42.9 113.056 43.344 111.076L42.312 110.872ZM46.404 112.828V113.08C46.176 118.276 45.924 120.172 45.552 120.604C45.408 120.772 45.3 120.82 45.108 120.82C44.88 120.82 44.424 120.808 43.932 120.76C44.112 121.072 44.22 121.552 44.244 121.876C44.772 121.912 45.288 121.912 45.612 121.864C45.996 121.804 46.236 121.684 46.5 121.324C46.968 120.724 47.208 118.804 47.46 113.368C47.472 113.224 47.484 112.828 47.484 112.828H46.404ZM42.42 112.828L41.916 113.884H46.872V112.828H42.42ZM43.476 113.164C42.996 115.228 41.892 117.52 40.488 118.624C40.788 118.792 41.148 119.056 41.376 119.272C42.708 118.072 43.812 115.684 44.316 113.584L43.476 113.164ZM45.168 113.26C44.604 116.404 43.308 119.608 41.22 121.108C41.532 121.264 41.94 121.552 42.156 121.78C44.16 120.148 45.468 116.86 46.068 113.68L45.168 113.26ZM36.372 117.484L36.66 118.576C37.896 118.204 39.528 117.7 41.04 117.22L40.896 116.224C39.252 116.704 37.524 117.208 36.372 117.484ZM38.58 110.884V122.008H39.624V110.884H38.58ZM37.044 111.568C36.924 113.02 36.696 114.532 36.276 115.528C36.504 115.636 36.936 115.9 37.104 116.032C37.548 114.964 37.848 113.32 38.016 111.724L37.044 111.568ZM37.236 113.272L37.032 114.364H40.764V113.272H37.236ZM48.876 112.6V113.692H59.136V112.6H48.876ZM48.66 118.72V119.824H59.352V118.72H48.66ZM54 114.316V122.02H55.212V114.316H54ZM49.992 117.292C49.992 117.052 50.796 116.644 50.796 116.644V116.608C51.84 115.204 52.98 113.176 53.808 111.136L52.5 110.788C51.876 112.672 50.796 114.676 50.436 115.18C50.1 115.708 49.86 116.044 49.572 116.116C49.716 116.452 49.932 117.04 49.992 117.292ZM49.992 117.292C50.112 117.172 50.64 117.112 51.324 117.112H58.344V116.032H50.664L49.992 116.404V117.292Z" fill="#111827"/>
<path d="M279.056 115.08C279.28 115.088 279.504 115.072 279.728 115.032C279.952 114.992 280.152 114.924 280.328 114.828C280.504 114.724 280.644 114.584 280.748 114.408C280.86 114.232 280.916 114.016 280.916 113.76C280.916 113.4 280.792 113.112 280.544 112.896C280.304 112.68 279.992 112.572 279.608 112.572C279.368 112.572 279.16 112.62 278.984 112.716C278.808 112.812 278.66 112.944 278.54 113.112C278.428 113.272 278.344 113.456 278.288 113.664C278.232 113.864 278.208 114.072 278.216 114.288H276.848C276.864 113.88 276.94 113.504 277.076 113.16C277.212 112.808 277.396 112.504 277.628 112.248C277.868 111.992 278.156 111.792 278.492 111.648C278.828 111.504 279.208 111.432 279.632 111.432C279.96 111.432 280.28 111.48 280.592 111.576C280.912 111.672 281.196 111.812 281.444 111.996C281.7 112.18 281.904 112.416 282.056 112.704C282.208 112.984 282.284 113.308 282.284 113.676C282.284 114.1 282.188 114.472 281.996 114.792C281.804 115.104 281.504 115.332 281.096 115.476V115.5C281.576 115.596 281.948 115.836 282.212 116.22C282.484 116.596 282.62 117.056 282.62 117.6C282.62 118 282.54 118.36 282.38 118.68C282.22 118.992 282.004 119.26 281.732 119.484C281.46 119.7 281.144 119.868 280.784 119.988C280.424 120.108 280.044 120.168 279.644 120.168C279.156 120.168 278.728 120.1 278.36 119.964C278 119.82 277.696 119.62 277.448 119.364C277.208 119.108 277.024 118.8 276.896 118.44C276.768 118.08 276.7 117.68 276.692 117.24H278.06C278.044 117.752 278.168 118.18 278.432 118.524C278.704 118.86 279.108 119.028 279.644 119.028C280.1 119.028 280.48 118.9 280.784 118.644C281.096 118.38 281.252 118.008 281.252 117.528C281.252 117.2 281.188 116.94 281.06 116.748C280.932 116.556 280.764 116.412 280.556 116.316C280.348 116.212 280.112 116.148 279.848 116.124C279.592 116.1 279.328 116.092 279.056 116.1V115.08ZM286.324 111.432C286.924 111.432 287.412 111.572 287.788 111.852C288.172 112.124 288.468 112.476 288.676 112.908C288.892 113.332 289.036 113.8 289.108 114.312C289.188 114.824 289.228 115.32 289.228 115.8C289.228 116.28 289.188 116.776 289.108 117.288C289.036 117.8 288.892 118.272 288.676 118.704C288.468 119.128 288.172 119.48 287.788 119.76C287.412 120.032 286.924 120.168 286.324 120.168C285.724 120.168 285.232 120.032 284.848 119.76C284.472 119.48 284.176 119.128 283.96 118.704C283.752 118.272 283.608 117.8 283.528 117.288C283.456 116.776 283.42 116.28 283.42 115.8C283.42 115.32 283.456 114.824 283.528 114.312C283.608 113.8 283.752 113.332 283.96 112.908C284.176 112.476 284.472 112.124 284.848 111.852C285.232 111.572 285.724 111.432 286.324 111.432ZM286.324 119.028C286.62 119.028 286.868 118.944 287.068 118.776C287.268 118.6 287.424 118.368 287.536 118.08C287.656 117.784 287.74 117.44 287.788 117.048C287.836 116.656 287.86 116.24 287.86 115.8C287.86 115.36 287.836 114.948 287.788 114.564C287.74 114.172 287.656 113.828 287.536 113.532C287.424 113.236 287.268 113.004 287.068 112.836C286.868 112.66 286.62 112.572 286.324 112.572C286.02 112.572 285.768 112.66 285.568 112.836C285.376 113.004 285.22 113.236 285.1 113.532C284.988 113.828 284.908 114.172 284.86 114.564C284.812 114.948 284.788 115.36 284.788 115.8C284.788 116.24 284.812 116.656 284.86 117.048C284.908 117.44 284.988 117.784 285.1 118.08C285.22 118.368 285.376 118.6 285.568 118.776C285.768 118.944 286.02 119.028 286.324 119.028ZM290.484 118.38H292.152V120C292.144 120.496 291.992 120.912 291.696 121.248C291.4 121.584 291.012 121.8 290.532 121.896V121.164C290.796 121.1 290.992 120.952 291.12 120.72C291.256 120.496 291.32 120.256 291.312 120H290.484V118.38ZM296.332 111.432C296.932 111.432 297.42 111.572 297.796 111.852C298.18 112.124 298.476 112.476 298.684 112.908C298.9 113.332 299.044 113.8 299.116 114.312C299.196 114.824 299.236 115.32 299.236 115.8C299.236 116.28 299.196 116.776 299.116 117.288C299.044 117.8 298.9 118.272 298.684 118.704C298.476 119.128 298.18 119.48 297.796 119.76C297.42 120.032 296.932 120.168 296.332 120.168C295.732 120.168 295.24 120.032 294.856 119.76C294.48 119.48 294.184 119.128 293.968 118.704C293.76 118.272 293.616 117.8 293.536 117.288C293.464 116.776 293.428 116.28 293.428 115.8C293.428 115.32 293.464 114.824 293.536 114.312C293.616 113.8 293.76 113.332 293.968 112.908C294.184 112.476 294.48 112.124 294.856 111.852C295.24 111.572 295.732 111.432 296.332 111.432ZM296.332 119.028C296.628 119.028 296.876 118.944 297.076 118.776C297.276 118.6 297.432 118.368 297.544 118.08C297.664 117.784 297.748 117.44 297.796 117.048C297.844 116.656 297.868 116.24 297.868 115.8C297.868 115.36 297.844 114.948 297.796 114.564C297.748 114.172 297.664 113.828 297.544 113.532C297.432 113.236 297.276 113.004 297.076 112.836C296.876 112.66 296.628 112.572 296.332 112.572C296.028 112.572 295.776 112.66 295.576 112.836C295.384 113.004 295.228 113.236 295.108 113.532C294.996 113.828 294.916 114.172 294.868 114.564C294.82 114.948 294.796 115.36 294.796 115.8C294.796 116.24 294.82 116.656 294.868 117.048C294.916 117.44 294.996 117.784 295.108 118.08C295.228 118.368 295.384 118.6 295.576 118.776C295.776 118.944 296.028 119.028 296.332 119.028ZM303 111.432C303.6 111.432 304.088 111.572 304.464 111.852C304.848 112.124 305.144 112.476 305.352 112.908C305.568 113.332 305.712 113.8 305.784 114.312C305.864 114.824 305.904 115.32 305.904 115.8C305.904 116.28 305.864 116.776 305.784 117.288C305.712 117.8 305.568 118.272 305.352 118.704C305.144 119.128 304.848 119.48 304.464 119.76C304.088 120.032 303.6 120.168 303 120.168C302.4 120.168 301.908 120.032 301.524 119.76C301.148 119.48 300.852 119.128 300.636 118.704C300.428 118.272 300.284 117.8 300.204 117.288C300.132 116.776 300.096 116.28 300.096 115.8C300.096 115.32 300.132 114.824 300.204 114.312C300.284 113.8 300.428 113.332 300.636 112.908C300.852 112.476 301.148 112.124 301.524 111.852C301.908 111.572 302.4 111.432 303 111.432ZM303 119.028C303.296 119.028 303.544 118.944 303.744 118.776C303.944 118.6 304.1 118.368 304.212 118.08C304.332 117.784 304.416 117.44 304.464 117.048C304.512 116.656 304.536 116.24 304.536 115.8C304.536 115.36 304.512 114.948 304.464 114.564C304.416 114.172 304.332 113.828 304.212 113.532C304.1 113.236 303.944 113.004 303.744 112.836C303.544 112.66 303.296 112.572 303 112.572C302.696 112.572 302.444 112.66 302.244 112.836C302.052 113.004 301.896 113.236 301.776 113.532C301.664 113.828 301.584 114.172 301.536 114.564C301.488 114.948 301.464 115.36 301.464 115.8C301.464 116.24 301.488 116.656 301.536 117.048C301.584 117.44 301.664 117.784 301.776 118.08C301.896 118.368 302.052 118.6 302.244 118.776C302.444 118.944 302.696 119.028 303 119.028ZM309.668 111.432C310.268 111.432 310.756 111.572 311.132 111.852C311.516 112.124 311.812 112.476 312.02 112.908C312.236 113.332 312.38 113.8 312.452 114.312C312.532 114.824 312.572 115.32 312.572 115.8C312.572 116.28 312.532 116.776 312.452 117.288C312.38 117.8 312.236 118.272 312.02 118.704C311.812 119.128 311.516 119.48 311.132 119.76C310.756 120.032 310.268 120.168 309.668 120.168C309.068 120.168 308.576 120.032 308.192 119.76C307.816 119.48 307.52 119.128 307.304 118.704C307.096 118.272 306.952 117.8 306.872 117.288C306.8 116.776 306.764 116.28 306.764 115.8C306.764 115.32 306.8 114.824 306.872 114.312C306.952 113.8 307.096 113.332 307.304 112.908C307.52 112.476 307.816 112.124 308.192 111.852C308.576 111.572 309.068 111.432 309.668 111.432ZM309.668 119.028C309.964 119.028 310.212 118.944 310.412 118.776C310.612 118.6 310.768 118.368 310.88 118.08C311 117.784 311.084 117.44 311.132 117.048C311.18 116.656 311.204 116.24 311.204 115.8C311.204 115.36 311.18 114.948 311.132 114.564C311.084 114.172 311 113.828 310.88 113.532C310.768 113.236 310.612 113.004 310.412 112.836C310.212 112.66 309.964 112.572 309.668 112.572C309.364 112.572 309.112 112.66 308.912 112.836C308.72 113.004 308.564 113.236 308.444 113.532C308.332 113.828 308.252 114.172 308.204 114.564C308.156 114.948 308.132 115.36 308.132 115.8C308.132 116.24 308.156 116.656 308.204 117.048C308.252 117.44 308.332 117.784 308.444 118.08C308.564 118.368 308.72 118.6 308.912 118.776C309.112 118.944 309.364 119.028 309.668 119.028Z" fill="#718096"/>
<g clip-path="url(#clip7_73_1075)">
<path fill-rule="evenodd" clip-rule="evenodd" d="M24 132C24 130.895 24.8954 130 26 130H311C312.105 130 313 130.895 313 132V136C313 137.105 312.105 138 311 138H26C24.8954 138 24 137.105 24 136V132Z" fill="#F9FAFB"/>
<path fill-rule="evenodd" clip-rule="evenodd" d="M24 132C24 130.895 24.8954 130 26 130H169.51C170.615 130 171.51 130.895 171.51 132V136C171.51 137.105 170.615 138 169.51 138H26C24.8954 138 24 137.105 24 136V132Z" fill="#FFD023"/>
</g>
</g>
<g clip-path="url(#clip8_73_1075)">
<path d="M25.248 154.784C25.896 155.396 26.724 156.248 27.108 156.788L27.912 155.984C27.516 155.456 26.652 154.64 26.016 154.064L25.248 154.784ZM24.564 157.616V158.708H27.324V157.616H24.564ZM28.824 154.844V155.984H35.556V154.844H28.824ZM32.292 155.228V163.448C32.292 163.664 32.208 163.736 31.968 163.748C31.716 163.76 30.84 163.772 30 163.724C30.192 164.048 30.408 164.612 30.468 164.96C31.596 164.96 32.364 164.924 32.856 164.732C33.336 164.528 33.492 164.168 33.492 163.46V155.228H32.292ZM26.376 164.768C26.592 164.504 27 164.216 29.592 162.428C29.472 162.2 29.328 161.72 29.268 161.396L26.46 163.232L26.148 163.664L26.376 164.768ZM26.376 164.768C26.376 164.348 27.576 163.592 27.576 163.592V157.616H26.484V162.716C26.484 163.256 26.076 163.64 25.824 163.796C26.016 164.024 26.292 164.492 26.376 164.768ZM40.296 158.792H43.584V160.04H40.296V158.792ZM39.288 157.88V160.952H44.64V157.88H39.288ZM40.584 160.664C40.44 161.924 40.068 162.86 38.544 163.4C38.772 163.58 39.06 163.988 39.168 164.24C40.92 163.508 41.412 162.296 41.592 160.664H40.584ZM43.284 155.984C43.02 156.596 42.528 157.484 42.132 158.036L43.08 158.3C43.476 157.772 43.956 156.992 44.388 156.248L43.284 155.984ZM39.684 156.416C40.068 156.908 40.464 157.58 40.608 158.012L41.532 157.58C41.376 157.124 40.956 156.488 40.56 156.008L39.684 156.416ZM45.924 154.52V163.724C45.924 163.892 45.876 163.94 45.708 163.94C45.552 163.952 45.06 163.952 44.568 163.928C44.712 164.204 44.856 164.672 44.892 164.96C45.672 164.96 46.212 164.936 46.56 164.768C46.908 164.576 47.016 164.3 47.016 163.736V154.52H45.924ZM36.984 156.656V165.008H38.088V156.656H36.984ZM37.152 154.544C37.692 155.072 38.292 155.804 38.556 156.296L39.48 155.672C39.192 155.18 38.556 154.484 38.016 153.992L37.152 154.544ZM40.164 154.52V155.516H46.56V154.52H40.164ZM42.288 160.652V162.764C42.288 163.664 42.48 163.94 43.38 163.94C43.56 163.94 44.196 163.94 44.364 163.94C45.036 163.94 45.3 163.64 45.396 162.44C45.132 162.368 44.724 162.224 44.532 162.068C44.496 162.932 44.46 163.052 44.244 163.052C44.112 163.052 43.632 163.052 43.536 163.052C43.308 163.052 43.272 163.016 43.272 162.752V160.652H42.288ZM54.612 158.048V159.092H59.052V158.048H54.612ZM52.092 163.376V164.384H57.924V163.376H52.092ZM54.072 156.752V161.18H55.236V156.752H54.072ZM51.492 160.484V164.864H52.608V161.528H57.324V164.852H58.476V160.484H51.492ZM49.944 155.288V156.368H59.388V155.288H49.944ZM49.428 155.288V158.384C49.428 160.148 49.344 162.632 48.312 164.36C48.588 164.48 49.092 164.828 49.308 165.02C50.424 163.16 50.592 160.304 50.592 158.396V155.288H49.428ZM53.52 154.136C53.832 154.664 54.132 155.384 54.228 155.864L55.416 155.564C55.308 155.096 54.984 154.4 54.648 153.896L53.52 154.136ZM62.064 153.908C61.692 155 61.056 156.044 60.336 156.74C60.516 156.98 60.78 157.532 60.864 157.76C61.74 156.884 62.532 155.528 63.012 154.184L62.064 153.908ZM61.872 155.132L61.668 156.152H64.668V155.132H61.872ZM62.184 164.96C62.376 164.732 62.724 164.48 64.872 163.184C64.8 162.968 64.704 162.548 64.656 162.272L62.328 163.544L62.004 163.952L62.184 164.96ZM61.32 157.34V158.36H64.488V157.34H61.32ZM60.66 159.788V160.82H64.8V159.788H60.66ZM65.064 155.444V156.404H71.4V155.444H65.064ZM65.988 159.368V160.304H70.488V159.368H65.988ZM65.988 161.432V162.38H70.488V161.432H65.988ZM65.352 157.328V165.008H66.324V158.3H70.428V157.328H65.352ZM70.104 157.328V163.844C70.104 163.964 70.068 164 69.96 164C69.852 164 69.552 164.012 69.204 163.988C69.348 164.264 69.468 164.696 69.504 164.972C70.068 164.972 70.464 164.948 70.752 164.792C71.052 164.612 71.124 164.324 71.124 163.856V157.328H70.104ZM67.716 153.872V158.228H67.764V164.924H68.7V158.228H68.748V153.872H67.716ZM69.12 154.4C69.564 154.748 70.152 155.24 70.452 155.54L71.148 154.94C70.836 154.652 70.224 154.196 69.792 153.884L69.12 154.4ZM62.184 164.96C62.184 164.564 63.288 163.856 63.288 163.856V157.604H62.268V162.944C62.268 163.46 61.884 163.82 61.644 163.976C61.836 164.216 62.088 164.684 62.184 164.96Z" fill="#111827"/>
<path d="M282.524 163H276.788C276.796 162.304 276.964 161.696 277.292 161.176C277.62 160.656 278.068 160.204 278.636 159.82C278.908 159.62 279.192 159.428 279.488 159.244C279.784 159.052 280.056 158.848 280.304 158.632C280.552 158.416 280.756 158.184 280.916 157.936C281.076 157.68 281.16 157.388 281.168 157.06C281.168 156.908 281.148 156.748 281.108 156.58C281.076 156.404 281.008 156.244 280.904 156.1C280.8 155.948 280.656 155.824 280.472 155.728C280.288 155.624 280.048 155.572 279.752 155.572C279.48 155.572 279.252 155.628 279.068 155.74C278.892 155.844 278.748 155.992 278.636 156.184C278.532 156.368 278.452 156.588 278.396 156.844C278.348 157.1 278.32 157.376 278.312 157.672H276.944C276.944 157.208 277.004 156.78 277.124 156.388C277.252 155.988 277.44 155.644 277.688 155.356C277.936 155.068 278.236 154.844 278.588 154.684C278.948 154.516 279.364 154.432 279.836 154.432C280.348 154.432 280.776 154.516 281.12 154.684C281.464 154.852 281.74 155.064 281.948 155.32C282.164 155.576 282.316 155.856 282.404 156.16C282.492 156.456 282.536 156.74 282.536 157.012C282.536 157.348 282.484 157.652 282.38 157.924C282.276 158.196 282.136 158.448 281.96 158.68C281.784 158.904 281.584 159.112 281.36 159.304C281.136 159.496 280.904 159.676 280.664 159.844C280.424 160.012 280.184 160.172 279.944 160.324C279.704 160.476 279.48 160.628 279.272 160.78C279.072 160.932 278.896 161.092 278.744 161.26C278.592 161.42 278.488 161.592 278.432 161.776H282.524V163ZM285.724 158.08C285.948 158.088 286.172 158.072 286.396 158.032C286.62 157.992 286.82 157.924 286.996 157.828C287.172 157.724 287.312 157.584 287.416 157.408C287.528 157.232 287.584 157.016 287.584 156.76C287.584 156.4 287.46 156.112 287.212 155.896C286.972 155.68 286.66 155.572 286.276 155.572C286.036 155.572 285.828 155.62 285.652 155.716C285.476 155.812 285.328 155.944 285.208 156.112C285.096 156.272 285.012 156.456 284.956 156.664C284.9 156.864 284.876 157.072 284.884 157.288H283.516C283.532 156.88 283.608 156.504 283.744 156.16C283.88 155.808 284.064 155.504 284.296 155.248C284.536 154.992 284.824 154.792 285.16 154.648C285.496 154.504 285.876 154.432 286.3 154.432C286.628 154.432 286.948 154.48 287.26 154.576C287.58 154.672 287.864 154.812 288.112 154.996C288.368 155.18 288.572 155.416 288.724 155.704C288.876 155.984 288.952 156.308 288.952 156.676C288.952 157.1 288.856 157.472 288.664 157.792C288.472 158.104 288.172 158.332 287.764 158.476V158.5C288.244 158.596 288.616 158.836 288.88 159.22C289.152 159.596 289.288 160.056 289.288 160.6C289.288 161 289.208 161.36 289.048 161.68C288.888 161.992 288.672 162.26 288.4 162.484C288.128 162.7 287.812 162.868 287.452 162.988C287.092 163.108 286.712 163.168 286.312 163.168C285.824 163.168 285.396 163.1 285.028 162.964C284.668 162.82 284.364 162.62 284.116 162.364C283.876 162.108 283.692 161.8 283.564 161.44C283.436 161.08 283.368 160.68 283.36 160.24H284.728C284.712 160.752 284.836 161.18 285.1 161.524C285.372 161.86 285.776 162.028 286.312 162.028C286.768 162.028 287.148 161.9 287.452 161.644C287.764 161.38 287.92 161.008 287.92 160.528C287.92 160.2 287.856 159.94 287.728 159.748C287.6 159.556 287.432 159.412 287.224 159.316C287.016 159.212 286.78 159.148 286.516 159.124C286.26 159.1 285.996 159.092 285.724 159.1V158.08ZM290.484 161.38H292.152V163C292.144 163.496 291.992 163.912 291.696 164.248C291.4 164.584 291.012 164.8 290.532 164.896V164.164C290.796 164.1 290.992 163.952 291.12 163.72C291.256 163.496 291.32 163.256 291.312 163H290.484V161.38ZM293.416 154.6H299.164V155.74C298.724 156.236 298.324 156.752 297.964 157.288C297.604 157.816 297.288 158.38 297.016 158.98C296.752 159.572 296.536 160.2 296.368 160.864C296.2 161.528 296.088 162.24 296.032 163H294.532C294.58 162.336 294.692 161.68 294.868 161.032C295.052 160.384 295.284 159.756 295.564 159.148C295.852 158.54 296.184 157.956 296.56 157.396C296.936 156.836 297.34 156.312 297.772 155.824H293.416V154.6ZM303 155.512C302.632 155.512 302.32 155.624 302.064 155.848C301.808 156.064 301.68 156.38 301.68 156.796C301.68 157.196 301.804 157.504 302.052 157.72C302.3 157.928 302.616 158.032 303 158.032C303.384 158.032 303.7 157.928 303.948 157.72C304.196 157.504 304.32 157.196 304.32 156.796C304.32 156.38 304.192 156.064 303.936 155.848C303.68 155.624 303.368 155.512 303 155.512ZM303 163.168C302.576 163.168 302.18 163.108 301.812 162.988C301.452 162.868 301.14 162.696 300.876 162.472C300.612 162.24 300.404 161.96 300.252 161.632C300.108 161.304 300.036 160.936 300.036 160.528C300.036 160 300.172 159.556 300.444 159.196C300.724 158.836 301.1 158.596 301.572 158.476V158.452C301.188 158.308 300.892 158.088 300.684 157.792C300.484 157.488 300.384 157.132 300.384 156.724C300.384 156.004 300.608 155.444 301.056 155.044C301.512 154.636 302.16 154.432 303 154.432C303.84 154.432 304.484 154.636 304.932 155.044C305.388 155.444 305.616 156.004 305.616 156.724C305.616 157.132 305.512 157.488 305.304 157.792C305.104 158.088 304.812 158.308 304.428 158.452V158.476C304.9 158.596 305.272 158.836 305.544 159.196C305.824 159.556 305.964 160 305.964 160.528C305.964 160.936 305.888 161.304 305.736 161.632C305.592 161.96 305.388 162.24 305.124 162.472C304.86 162.696 304.544 162.868 304.176 162.988C303.816 163.108 303.424 163.168 303 163.168ZM303 162.088C303.456 162.088 303.836 161.952 304.14 161.68C304.444 161.408 304.596 161.024 304.596 160.528C304.596 160.064 304.444 159.704 304.14 159.448C303.836 159.184 303.456 159.052 303 159.052C302.544 159.052 302.164 159.184 301.86 159.448C301.556 159.704 301.404 160.064 301.404 160.528C301.404 161.024 301.556 161.408 301.86 161.68C302.164 161.952 302.544 162.088 303 162.088ZM308.264 160.876C308.296 161.22 308.416 161.5 308.624 161.716C308.84 161.924 309.128 162.028 309.488 162.028C309.856 162.028 310.148 161.932 310.364 161.74C310.588 161.54 310.76 161.296 310.88 161.008C311 160.712 311.08 160.4 311.12 160.072C311.168 159.736 311.204 159.428 311.228 159.148L311.204 159.124C311.02 159.452 310.768 159.704 310.448 159.88C310.128 160.048 309.776 160.132 309.392 160.132C308.992 160.132 308.628 160.064 308.3 159.928C307.98 159.792 307.704 159.604 307.472 159.364C307.24 159.116 307.06 158.82 306.932 158.476C306.804 158.124 306.74 157.732 306.74 157.3C306.74 156.892 306.804 156.516 306.932 156.172C307.06 155.82 307.248 155.516 307.496 155.26C307.744 154.996 308.048 154.792 308.408 154.648C308.768 154.504 309.176 154.432 309.632 154.432C310.224 154.432 310.712 154.548 311.096 154.78C311.48 155.004 311.78 155.316 311.996 155.716C312.22 156.108 312.376 156.572 312.464 157.108C312.552 157.644 312.596 158.216 312.596 158.824C312.596 159.328 312.54 159.836 312.428 160.348C312.324 160.86 312.148 161.328 311.9 161.752C311.652 162.168 311.324 162.508 310.916 162.772C310.516 163.036 310.02 163.168 309.428 163.168C309.092 163.168 308.776 163.112 308.48 163C308.184 162.888 307.92 162.732 307.688 162.532C307.464 162.332 307.28 162.092 307.136 161.812C306.992 161.532 306.912 161.22 306.896 160.876H308.264ZM309.572 155.572C309.324 155.572 309.108 155.62 308.924 155.716C308.74 155.804 308.588 155.928 308.468 156.088C308.348 156.248 308.256 156.432 308.192 156.64C308.136 156.848 308.108 157.064 308.108 157.288C308.108 157.52 308.136 157.744 308.192 157.96C308.256 158.168 308.348 158.352 308.468 158.512C308.588 158.672 308.74 158.804 308.924 158.908C309.108 159.004 309.324 159.052 309.572 159.052C309.828 159.052 310.052 159.004 310.244 158.908C310.436 158.812 310.592 158.684 310.712 158.524C310.84 158.356 310.936 158.168 311 157.96C311.064 157.744 311.096 157.52 311.096 157.288C311.096 157.064 311.064 156.848 311 156.64C310.936 156.432 310.84 156.252 310.712 156.1C310.592 155.94 310.436 155.812 310.244 155.716C310.052 155.62 309.828 155.572 309.572 155.572Z" fill="#718096"/>
<g clip-path="url(#clip9_73_1075)">
<path fill-rule="evenodd" clip-rule="evenodd" d="M24 175C24 173.895 24.8954 173 26 173H311C312.105 173 313 173.895 313 175V179C313 180.105 312.105 181 311 181H26C24.8954 181 24 180.105 24 179V175Z" fill="#F9FAFB"/>
<path fill-rule="evenodd" clip-rule="evenodd" d="M24 175C24 173.895 24.8954 173 26 173H128.37C129.475 173 130.37 173.895 130.37 175V179C130.37 180.105 129.475 181 128.37 181H26C24.8954 181 24 180.105 24 179V175Z" fill="#FD6A6A"/>
</g>
</g>
</g>
<defs>
<filter id="filter0_d_73_1075" x="275" y="24" width="50" height="28" filterUnits="userSpaceOnUse" color-interpolation-filters="sRGB">
<feFlood flood-opacity="0" result="BackgroundImageFix"/>
<feColorMatrix in="SourceAlpha" type="matrix" values="0 0 0 0 0 0 0 0 0 0 0 0 0 0 0 0 0 0 127 0" result="hardAlpha"/>
<feOffset dy="2"/>
<feGaussianBlur stdDeviation="2"/>
<feColorMatrix type="matrix" values="0 0 0 0 0.0666667 0 0 0 0 0.0941176 0 0 0 0 0.152941 0 0 0 0.04 0"/>
<feBlend mode="normal" in2="BackgroundImageFix" result="effect1_dropShadow_73_1075"/>
<feBlend mode="normal" in="SourceGraphic" in2="effect1_dropShadow_73_1075" result="shape"/>
</filter>
<filter id="filter1_d_73_1075" x="275" y="24" width="50" height="28" filterUnits="userSpaceOnUse" color-interpolation-filters="sRGB">
<feFlood flood-opacity="0" result="BackgroundImageFix"/>
<feColorMatrix in="SourceAlpha" type="matrix" values="0 0 0 0 0 0 0 0 0 0 0 0 0 0 0 0 0 0 127 0" result="hardAlpha"/>
<feOffset dy="2"/>
<feGaussianBlur stdDeviation="2"/>
<feColorMatrix type="matrix" values="0 0 0 0 0.0666667 0 0 0 0 0.0941176 0 0 0 0 0.152941 0 0 0 0.04 0"/>
<feBlend mode="normal" in2="BackgroundImageFix" result="effect1_dropShadow_73_1075"/>
<feBlend mode="normal" in="SourceGraphic" in2="effect1_dropShadow_73_1075" result="shape"/>
</filter>
<clipPath id="clip0_73_1075">
<rect width="347" height="240" fill="white"/>
</clipPath>
<clipPath id="clip1_73_1075">
<rect width="93" height="24" fill="white" transform="translate(230 24)"/>
</clipPath>
<clipPath id="clip2_73_1075">
<rect width="47" height="20" fill="white" transform="translate(232 26)"/>
</clipPath>
<clipPath id="clip3_73_1075">
<rect width="42" height="20" fill="white" transform="translate(279 26)"/>
</clipPath>
<clipPath id="clip4_73_1075">
<rect width="289" height="32" fill="white" transform="translate(24 63)"/>
</clipPath>
<clipPath id="clip5_73_1075">
<rect width="289" height="8" fill="white" transform="translate(24 87)"/>
</clipPath>
<clipPath id="clip6_73_1075">
<rect width="289" height="32" fill="white" transform="translate(24 106)"/>
</clipPath>
<clipPath id="clip7_73_1075">
<rect width="289" height="8" fill="white" transform="translate(24 130)"/>
</clipPath>
<clipPath id="clip8_73_1075">
<rect width="289" height="32" fill="white" transform="translate(24 149)"/>
</clipPath>
<clipPath id="clip9_73_1075">
<rect width="289" height="8" fill="white" transform="translate(24 173)"/>
</clipPath>
</defs>
</svg>
