<svg width="520" height="403" viewBox="0 0 520 403" fill="none" xmlns="http://www.w3.org/2000/svg">
<g filter="url(#filter0_d_37_5361)">
<rect x="16" y="8" width="488" height="371" rx="24" fill="white" shape-rendering="crispEdges"/>
<path d="M51.376 43.368L53.554 43.998C52.87 45.606 51.976 46.968 50.872 48.084C49.768 49.2 48.478 50.124 47.002 50.856C45.526 51.576 43.894 52.158 42.106 52.602C42.022 52.434 41.902 52.23 41.746 51.99C41.59 51.75 41.428 51.51 41.26 51.27C41.092 51.03 40.936 50.832 40.792 50.676C42.544 50.34 44.116 49.866 45.508 49.254C46.9 48.642 48.094 47.856 49.09 46.896C50.086 45.936 50.848 44.76 51.376 43.368ZM45.328 40.254L47.452 41.064C47.032 41.592 46.546 42.114 45.994 42.63C45.454 43.146 44.89 43.632 44.302 44.088C43.726 44.544 43.174 44.94 42.646 45.276C42.514 45.132 42.346 44.958 42.142 44.754C41.938 44.55 41.722 44.352 41.494 44.16C41.278 43.968 41.086 43.812 40.918 43.692C41.47 43.416 42.016 43.098 42.556 42.738C43.108 42.366 43.624 41.97 44.104 41.55C44.584 41.118 44.992 40.686 45.328 40.254ZM46.714 43.458C47.506 45.39 48.778 46.956 50.53 48.156C52.294 49.356 54.538 50.16 57.262 50.568C57.118 50.724 56.956 50.916 56.776 51.144C56.608 51.372 56.452 51.606 56.308 51.846C56.164 52.098 56.044 52.32 55.948 52.512C54.028 52.152 52.354 51.606 50.926 50.874C49.51 50.142 48.298 49.212 47.29 48.084C46.294 46.944 45.454 45.6 44.77 44.052L46.714 43.458ZM41.062 37.986H56.938V40.092H41.062V37.986ZM50.728 41.37L52.42 40.146C52.948 40.506 53.506 40.908 54.094 41.352C54.694 41.796 55.258 42.246 55.786 42.702C56.314 43.146 56.746 43.56 57.082 43.944L55.228 45.366C54.94 44.994 54.544 44.574 54.04 44.106C53.536 43.626 52.99 43.146 52.402 42.666C51.826 42.186 51.268 41.754 50.728 41.37ZM47.218 36.204L49.27 35.484C49.51 35.868 49.756 36.294 50.008 36.762C50.272 37.23 50.464 37.632 50.584 37.968L48.406 38.778C48.31 38.442 48.148 38.028 47.92 37.536C47.692 37.044 47.458 36.6 47.218 36.204ZM63.274 40.938V42.072H70.852V40.938H63.274ZM63.274 38.202V39.318H70.852V38.202H63.274ZM61.168 36.474H73.066V43.8H61.168V36.474ZM62.266 44.88H72.814V46.77H62.266V44.88ZM72.31 44.88H74.506C74.506 44.88 74.5 44.934 74.488 45.042C74.488 45.138 74.482 45.258 74.47 45.402C74.47 45.534 74.458 45.648 74.434 45.744C74.314 47.052 74.182 48.126 74.038 48.966C73.894 49.794 73.744 50.442 73.588 50.91C73.432 51.378 73.252 51.714 73.048 51.918C72.832 52.158 72.604 52.326 72.364 52.422C72.124 52.518 71.86 52.578 71.572 52.602C71.32 52.638 70.99 52.656 70.582 52.656C70.186 52.656 69.766 52.644 69.322 52.62C69.31 52.356 69.25 52.05 69.142 51.702C69.046 51.354 68.92 51.054 68.764 50.802C69.136 50.838 69.484 50.862 69.808 50.874C70.144 50.874 70.39 50.874 70.546 50.874C70.702 50.874 70.828 50.862 70.924 50.838C71.02 50.814 71.116 50.754 71.212 50.658C71.344 50.526 71.476 50.262 71.608 49.866C71.752 49.458 71.878 48.876 71.986 48.12C72.106 47.364 72.214 46.386 72.31 45.186V44.88ZM63.382 42.846L65.452 43.512C65.02 44.256 64.504 44.964 63.904 45.636C63.316 46.308 62.692 46.932 62.032 47.508C61.372 48.072 60.706 48.564 60.034 48.984C59.914 48.84 59.752 48.672 59.548 48.48C59.356 48.276 59.158 48.078 58.954 47.886C58.75 47.694 58.564 47.544 58.396 47.436C59.404 46.92 60.352 46.26 61.24 45.456C62.128 44.64 62.842 43.77 63.382 42.846ZM65.146 45.546L67.18 46.176C66.748 47.004 66.22 47.796 65.596 48.552C64.984 49.296 64.324 49.98 63.616 50.604C62.908 51.228 62.182 51.768 61.438 52.224C61.33 52.08 61.18 51.906 60.988 51.702C60.796 51.51 60.592 51.318 60.376 51.126C60.172 50.934 59.992 50.784 59.836 50.676C60.952 50.112 61.978 49.386 62.914 48.498C63.862 47.598 64.606 46.614 65.146 45.546ZM68.818 45.672L70.87 46.158C70.39 47.514 69.76 48.768 68.98 49.92C68.212 51.06 67.378 52.002 66.478 52.746C66.358 52.626 66.19 52.482 65.974 52.314C65.77 52.146 65.56 51.978 65.344 51.81C65.128 51.642 64.936 51.51 64.768 51.414C65.68 50.778 66.484 49.956 67.18 48.948C67.888 47.928 68.434 46.836 68.818 45.672ZM76.882 36.474H82.642V38.346H76.882V36.474ZM76.468 42.396H83.308V44.304H76.468V42.396ZM79.15 43.296H81.238V50.298C81.238 50.802 81.178 51.204 81.058 51.504C80.95 51.804 80.728 52.038 80.392 52.206C80.056 52.362 79.66 52.464 79.204 52.512C78.748 52.56 78.22 52.584 77.62 52.584C77.572 52.272 77.482 51.918 77.35 51.522C77.23 51.126 77.104 50.79 76.972 50.514C77.356 50.526 77.728 50.532 78.088 50.532C78.46 50.532 78.706 50.532 78.826 50.532C78.958 50.52 79.042 50.496 79.078 50.46C79.126 50.424 79.15 50.358 79.15 50.262V43.296ZM81.976 36.474H82.444L82.822 36.366L84.118 37.266C83.83 37.746 83.5 38.238 83.128 38.742C82.756 39.234 82.372 39.708 81.976 40.164C81.58 40.62 81.19 41.016 80.806 41.352C80.674 41.16 80.488 40.938 80.248 40.686C80.008 40.434 79.804 40.242 79.636 40.11C79.924 39.822 80.218 39.486 80.518 39.102C80.83 38.718 81.118 38.328 81.382 37.932C81.646 37.524 81.844 37.164 81.976 36.852V36.474ZM82.678 42.396H82.966L83.254 42.342L84.586 42.63C84.394 43.386 84.178 44.154 83.938 44.934C83.71 45.714 83.494 46.374 83.29 46.914L81.688 46.572C81.808 46.248 81.922 45.864 82.03 45.42C82.15 44.964 82.27 44.496 82.39 44.016C82.51 43.536 82.606 43.08 82.678 42.648V42.396ZM77.206 40.542L78.34 39.156C78.772 39.396 79.252 39.678 79.78 40.002C80.32 40.314 80.842 40.632 81.346 40.956C81.862 41.268 82.282 41.538 82.606 41.766L81.418 43.368C81.118 43.116 80.722 42.828 80.23 42.504C79.738 42.168 79.222 41.826 78.682 41.478C78.154 41.13 77.662 40.818 77.206 40.542ZM84.208 36.402H93.478V38.292H84.208V36.402ZM87.808 37.392L90.202 37.68C90.022 38.232 89.842 38.778 89.662 39.318C89.482 39.858 89.314 40.32 89.158 40.704L87.322 40.362C87.43 39.93 87.532 39.438 87.628 38.886C87.724 38.334 87.784 37.836 87.808 37.392ZM87.718 42.414H89.734V45.726C89.734 46.314 89.668 46.92 89.536 47.544C89.416 48.168 89.176 48.78 88.816 49.38C88.456 49.968 87.934 50.526 87.25 51.054C86.578 51.594 85.678 52.08 84.55 52.512C84.418 52.296 84.22 52.038 83.956 51.738C83.704 51.438 83.452 51.192 83.2 51C84.208 50.664 85.006 50.28 85.594 49.848C86.194 49.416 86.644 48.96 86.944 48.48C87.256 48 87.46 47.526 87.556 47.058C87.664 46.578 87.718 46.128 87.718 45.708V42.414ZM89.032 49.812L90.418 48.516C90.754 48.78 91.12 49.08 91.516 49.416C91.912 49.74 92.296 50.064 92.668 50.388C93.04 50.7 93.346 50.982 93.586 51.234L92.092 52.692C91.888 52.428 91.606 52.128 91.246 51.792C90.886 51.456 90.508 51.114 90.112 50.766C89.728 50.418 89.368 50.1 89.032 49.812ZM84.784 39.588H92.776V48.21H90.67V41.514H86.782V48.282H84.784V39.588ZM102.694 49.596L103.99 48.822C104.266 49.098 104.548 49.41 104.836 49.758C105.136 50.094 105.412 50.424 105.664 50.748C105.928 51.072 106.138 51.36 106.294 51.612L104.926 52.494C104.782 52.23 104.584 51.924 104.332 51.576C104.08 51.24 103.81 50.898 103.522 50.55C103.246 50.202 102.97 49.884 102.694 49.596ZM99.49 36.654H105.916V48.39H104.224V38.202H101.11V48.498H99.49V36.654ZM109.228 36.006H110.92V50.442C110.92 50.922 110.866 51.3 110.758 51.576C110.65 51.852 110.452 52.062 110.164 52.206C109.888 52.35 109.522 52.446 109.066 52.494C108.622 52.542 108.07 52.56 107.41 52.548C107.374 52.308 107.302 52.014 107.194 51.666C107.086 51.33 106.978 51.036 106.87 50.784C107.302 50.796 107.704 50.802 108.076 50.802C108.46 50.802 108.724 50.802 108.868 50.802C109.108 50.802 109.228 50.682 109.228 50.442V36.006ZM106.762 37.356H108.4V48.462H106.762V37.356ZM101.848 39.192H103.414V46.104C103.414 46.704 103.366 47.31 103.27 47.922C103.174 48.534 102.994 49.134 102.73 49.722C102.478 50.298 102.106 50.832 101.614 51.324C101.122 51.816 100.468 52.248 99.652 52.62C99.604 52.5 99.52 52.35 99.4 52.17C99.292 52.002 99.178 51.834 99.058 51.666C98.938 51.51 98.83 51.39 98.734 51.306C99.442 50.982 100.006 50.628 100.426 50.244C100.846 49.848 101.158 49.428 101.362 48.984C101.566 48.528 101.698 48.054 101.758 47.562C101.818 47.07 101.848 46.578 101.848 46.086V39.192ZM95.188 37.428L96.466 35.862C96.778 36.006 97.12 36.186 97.492 36.402C97.876 36.618 98.248 36.834 98.608 37.05C98.968 37.254 99.256 37.446 99.472 37.626L98.158 39.372C97.954 39.192 97.678 38.988 97.33 38.76C96.994 38.52 96.634 38.286 96.25 38.058C95.878 37.83 95.524 37.62 95.188 37.428ZM94.504 42.252L95.728 40.686C96.04 40.83 96.382 41.004 96.754 41.208C97.138 41.412 97.504 41.616 97.852 41.82C98.212 42.024 98.512 42.21 98.752 42.378L97.456 44.106C97.252 43.926 96.976 43.728 96.628 43.512C96.28 43.296 95.92 43.074 95.548 42.846C95.176 42.618 94.828 42.42 94.504 42.252ZM94.81 51.306C95.038 50.838 95.284 50.286 95.548 49.65C95.824 49.014 96.1 48.342 96.376 47.634C96.652 46.914 96.904 46.206 97.132 45.51L98.878 46.626C98.686 47.274 98.47 47.934 98.23 48.606C97.99 49.266 97.744 49.92 97.492 50.568C97.252 51.204 97.006 51.822 96.754 52.422L94.81 51.306Z" fill="#081735"/>
<circle cx="465.6" cy="45.6" r="1.6" fill="#8F95B2"/>
<circle cx="472" cy="45.6" r="1.6" fill="#8F95B2"/>
<circle cx="478.4" cy="45.6" r="1.6" fill="#8F95B2"/>
<line x1="17" y1="71.5" x2="504" y2="71.5" stroke="#E6E8F0"/>
<path d="M48.896 126.448C53.92 126.448 56.672 123.568 56.672 119.472C56.672 112.304 46.912 112.912 46.912 108.976C46.912 107.216 48 106.32 49.888 106.32C51.52 106.32 52.64 106.96 53.952 108.208L56.32 105.488C54.688 103.728 52.704 102.512 49.632 102.512C45.248 102.512 42.432 105.104 42.432 109.2C42.432 115.888 52.16 115.472 52.16 119.824C52.16 121.616 51.104 122.64 48.896 122.64C47.04 122.64 45.376 121.808 43.616 120.432L41.504 123.6C43.456 125.392 46.528 126.448 48.896 126.448ZM47.872 130H51.04V124.56H47.872V130ZM47.872 104.016H51.04V98.928H47.872V104.016ZM61.467 126H75.739V122.192H71.291V102.32H67.803C66.267 103.248 64.667 103.856 62.267 104.304V107.216H66.587V122.192H61.467V126ZM80.342 126H94.614V122.192H90.166V102.32H86.678C85.142 103.248 83.542 103.856 81.142 104.304V107.216H85.462V122.192H80.342V126ZM97.969 126H113.841V122.032H108.721C107.601 122.032 106.033 122.192 104.849 122.32C109.169 118.096 112.753 113.488 112.753 109.168C112.753 104.752 109.745 101.904 105.297 101.904C102.065 101.904 99.921 103.152 97.745 105.488L100.337 108.048C101.553 106.704 102.929 105.584 104.689 105.584C106.961 105.584 108.209 107.056 108.209 109.424C108.209 113.072 104.433 117.52 97.969 123.312V126ZM118.156 132.848C122.06 131.568 124.204 128.72 124.204 124.944C124.204 122.064 122.988 120.336 120.844 120.336C119.148 120.336 117.772 121.424 117.772 123.12C117.772 124.88 119.18 125.904 120.716 125.904C121.42 125.904 122.06 125.68 122.54 125.2L120.876 122.448L121.036 125.776C121.068 127.664 119.692 129.36 117.196 130.288L118.156 132.848ZM134.642 126.448C139.186 126.448 142.994 123.952 142.994 119.6C142.994 116.464 140.946 114.512 138.258 113.744V113.584C140.786 112.624 142.194 110.736 142.194 108.208C142.194 104.144 139.09 101.904 134.514 101.904C131.762 101.904 129.49 103.024 127.442 104.784L129.842 107.696C131.25 106.384 132.626 105.584 134.322 105.584C136.338 105.584 137.49 106.704 137.49 108.56C137.49 110.672 136.082 112.144 131.73 112.144V115.536C136.882 115.536 138.258 116.976 138.258 119.312C138.258 121.424 136.626 122.64 134.194 122.64C132.05 122.64 130.354 121.552 128.946 120.176L126.706 123.152C128.37 125.072 130.898 126.448 134.642 126.448ZM155.533 126H159.917V102.32H154.253L145.453 116.656V119.888H162.733V116.272H150.029L153.677 110.384C154.349 109.104 154.989 107.792 155.597 106.512H155.725C155.661 107.92 155.533 110.064 155.533 111.44V126ZM173.096 126.448C177.896 126.448 181.096 122.256 181.096 114.064C181.096 105.904 177.896 101.904 173.096 101.904C168.264 101.904 165.064 105.904 165.064 114.064C165.064 122.256 168.264 126.448 173.096 126.448ZM173.096 122.768C171.048 122.768 169.512 120.72 169.512 114.064C169.512 107.44 171.048 105.52 173.096 105.52C175.144 105.52 176.648 107.44 176.648 114.064C176.648 120.72 175.144 122.768 173.096 122.768Z" fill="#081735"/>
<rect x="40.6537" y="253.865" width="22.8528" height="37.9129" rx="5.22937" fill="#E6E8F0"/>
<rect x="77.2336" y="198.956" width="22.8527" height="92.8213" rx="5.22937" fill="#E6E8F0"/>
<rect x="113.813" y="227.718" width="22.8527" height="64.0598" rx="5.22937" fill="url(#paint0_linear_37_5361)"/>
<rect x="150" y="248" width="23" height="44" rx="5.22937" fill="#E6E8F0"/>
<rect x="186.973" y="232.947" width="22.8528" height="58.8304" rx="5.22937" fill="#E6E8F0"/>
<rect x="223.553" y="186.537" width="22.8528" height="105.241" rx="5.22937" fill="url(#paint1_linear_37_5361)"/>
<rect x="260.133" y="240.791" width="22.8528" height="50.9863" rx="5.22937" fill="#E6E8F0"/>
<rect x="296.713" y="198.956" width="22.8528" height="92.8213" rx="5.22937" fill="#E6E8F0"/>
<rect x="333.293" y="266.284" width="22.8528" height="25.4932" rx="5.22937" fill="#E6E8F0"/>
<rect x="369.872" y="218.566" width="22.8528" height="73.2112" rx="5.22937" fill="url(#paint2_linear_37_5361)"/>
<rect x="406.452" y="250.596" width="22.8528" height="41.1813" rx="5.22937" fill="#E6E8F0"/>
<rect x="443.032" y="227.718" width="22.8528" height="64.0598" rx="5.22937" fill="#E6E8F0"/>
<path d="M44.2711 312.829C45.9871 312.829 46.6951 311.605 46.6951 310.081V303.865H45.5791V309.985C45.5791 311.317 45.1231 311.845 44.1631 311.845C43.5391 311.845 43.0351 311.569 42.6511 310.861L41.8471 311.425C42.3751 312.349 43.1551 312.829 44.2711 312.829ZM50.465 312.829C51.269 312.829 52.001 312.409 52.613 311.893H52.661L52.757 312.661H53.657V308.665C53.657 307.045 52.985 305.989 51.389 305.989C50.345 305.989 49.433 306.445 48.833 306.829L49.265 307.597C49.769 307.249 50.453 306.889 51.221 306.889C52.289 306.889 52.553 307.693 52.553 308.533C49.781 308.845 48.557 309.553 48.557 310.969C48.557 312.145 49.373 312.829 50.465 312.829ZM50.765 311.941C50.129 311.941 49.625 311.641 49.625 310.897C49.625 310.057 50.357 309.517 52.553 309.265V311.077C51.929 311.641 51.401 311.941 50.765 311.941ZM55.7267 312.661H56.8187V307.933C57.4667 307.285 57.9347 306.937 58.5947 306.937C59.4587 306.937 59.8307 307.453 59.8307 308.677V312.661H60.9347V308.533C60.9347 306.877 60.3107 305.989 58.9427 305.989C58.0427 305.989 57.3707 306.481 56.7587 307.093H56.7227L56.6147 306.145H55.7267V312.661Z" fill="#8F95B2"/>
<path d="M79.2623 312.661H80.3783V308.713H83.7263V307.789H80.3783V304.801H84.3263V303.865H79.2623V312.661ZM88.2044 312.829C89.0924 312.829 89.7764 312.529 90.3524 312.157L89.9564 311.425C89.4764 311.749 88.9604 311.953 88.3364 311.953C87.0884 311.953 86.2484 311.053 86.1644 309.673H90.5564C90.5924 309.505 90.6044 309.277 90.6044 309.049C90.6044 307.177 89.6684 305.989 88.0124 305.989C86.5124 305.989 85.0844 307.297 85.0844 309.421C85.0844 311.557 86.4644 312.829 88.2044 312.829ZM86.1524 308.881C86.2964 307.597 87.1124 306.865 88.0244 306.865C89.0564 306.865 89.6444 307.573 89.6444 308.881H86.1524ZM95.077 312.829C96.577 312.829 97.909 311.533 97.909 309.301C97.909 307.297 96.997 305.989 95.317 305.989C94.585 305.989 93.865 306.385 93.265 306.901L93.313 305.725V303.121H92.221V312.661H93.085L93.193 311.989H93.229C93.793 312.517 94.477 312.829 95.077 312.829ZM94.909 311.905C94.477 311.905 93.877 311.725 93.313 311.233V307.801C93.925 307.213 94.501 306.901 95.053 306.901C96.289 306.901 96.781 307.873 96.781 309.325C96.781 310.933 95.977 311.905 94.909 311.905Z" fill="#8F95B2"/>
<path d="M115.528 312.661H116.536V307.801C116.536 307.033 116.452 305.977 116.392 305.197H116.44L117.136 307.201L118.804 311.785H119.548L121.216 307.201L121.912 305.197H121.972C121.912 305.977 121.828 307.033 121.828 307.801V312.661H122.86V303.865H121.516L119.848 308.581C119.644 309.181 119.452 309.793 119.236 310.417H119.188C118.972 309.793 118.768 309.181 118.552 308.581L116.86 303.865H115.528V312.661ZM126.67 312.829C127.474 312.829 128.206 312.409 128.818 311.893H128.866L128.962 312.661H129.862V308.665C129.862 307.045 129.19 305.989 127.594 305.989C126.55 305.989 125.638 306.445 125.038 306.829L125.47 307.597C125.974 307.249 126.658 306.889 127.426 306.889C128.494 306.889 128.758 307.693 128.758 308.533C125.986 308.845 124.762 309.553 124.762 310.969C124.762 312.145 125.578 312.829 126.67 312.829ZM126.97 311.941C126.334 311.941 125.83 311.641 125.83 310.897C125.83 310.057 126.562 309.517 128.758 309.265V311.077C128.134 311.641 127.606 311.941 126.97 311.941ZM131.932 312.661H133.024V308.485C133.456 307.369 134.128 306.973 134.668 306.973C134.932 306.973 135.076 307.009 135.304 307.081L135.508 306.121C135.292 306.025 135.1 305.989 134.812 305.989C134.08 305.989 133.408 306.505 132.964 307.333H132.928L132.82 306.145H131.932V312.661Z" fill="#8F95B2"/>
<path d="M151.848 312.661H152.976L154.524 307.741C154.848 306.757 155.124 305.797 155.412 304.777H155.46C155.748 305.797 156.024 306.757 156.336 307.741L157.884 312.661H159.048L156.072 303.865H154.824L151.848 312.661ZM153.408 309.973H157.464V309.097H153.408V309.973ZM160.217 315.409H161.309V313.213L161.285 312.073C161.873 312.553 162.485 312.829 163.073 312.829C164.573 312.829 165.905 311.533 165.905 309.313C165.905 307.297 165.005 305.989 163.313 305.989C162.557 305.989 161.837 306.409 161.249 306.901H161.213L161.105 306.145H160.217V315.409ZM162.905 311.905C162.473 311.905 161.897 311.725 161.309 311.233V307.801C161.945 307.213 162.497 306.901 163.049 306.901C164.285 306.901 164.777 307.873 164.777 309.325C164.777 310.933 163.973 311.905 162.905 311.905ZM167.659 312.661H168.751V308.485C169.183 307.369 169.855 306.973 170.395 306.973C170.659 306.973 170.803 307.009 171.031 307.081L171.235 306.121C171.019 306.025 170.827 305.989 170.539 305.989C169.807 305.989 169.135 306.505 168.691 307.333H168.655L168.547 306.145H167.659V312.661Z" fill="#8F95B2"/>
<path d="M187.936 312.661H188.944V307.801C188.944 307.033 188.86 305.977 188.8 305.197H188.848L189.544 307.201L191.212 311.785H191.956L193.624 307.201L194.32 305.197H194.38C194.32 305.977 194.236 307.033 194.236 307.801V312.661H195.268V303.865H193.924L192.256 308.581C192.052 309.181 191.86 309.793 191.644 310.417H191.596C191.38 309.793 191.176 309.181 190.96 308.581L189.268 303.865H187.936V312.661ZM199.079 312.829C199.883 312.829 200.615 312.409 201.227 311.893H201.275L201.371 312.661H202.271V308.665C202.271 307.045 201.599 305.989 200.003 305.989C198.959 305.989 198.047 306.445 197.447 306.829L197.879 307.597C198.383 307.249 199.067 306.889 199.835 306.889C200.903 306.889 201.167 307.693 201.167 308.533C198.395 308.845 197.171 309.553 197.171 310.969C197.171 312.145 197.987 312.829 199.079 312.829ZM199.379 311.941C198.743 311.941 198.239 311.641 198.239 310.897C198.239 310.057 198.971 309.517 201.167 309.265V311.077C200.543 311.641 200.015 311.941 199.379 311.941ZM204.436 315.481C205.744 315.481 206.416 314.497 206.872 313.213L209.332 306.145H208.264L207.088 309.769C206.92 310.357 206.728 311.005 206.548 311.605H206.488C206.272 311.005 206.056 310.345 205.852 309.769L204.52 306.145H203.392L206.008 312.673L205.864 313.165C205.588 313.969 205.12 314.569 204.388 314.569C204.208 314.569 204.016 314.521 203.896 314.473L203.68 315.349C203.884 315.433 204.136 315.481 204.436 315.481Z" fill="#8F95B2"/>
<path d="M265.598 312.829C267.314 312.829 268.022 311.605 268.022 310.081V303.865H266.906V309.985C266.906 311.317 266.45 311.845 265.49 311.845C264.866 311.845 264.362 311.569 263.978 310.861L263.174 311.425C263.702 312.349 264.482 312.829 265.598 312.829ZM272.188 312.829C273.088 312.829 273.736 312.349 274.348 311.641H274.372L274.468 312.661H275.368V306.145H274.276V310.777C273.664 311.545 273.184 311.869 272.524 311.869C271.66 311.869 271.288 311.353 271.288 310.141V306.145H270.196V310.273C270.196 311.941 270.82 312.829 272.188 312.829ZM278.733 312.829C279.033 312.829 279.201 312.781 279.357 312.733L279.213 311.893C279.081 311.917 279.033 311.917 278.985 311.917C278.817 311.917 278.673 311.785 278.673 311.437V303.121H277.581V311.365C277.581 312.301 277.905 312.829 278.733 312.829Z" fill="#8F95B2"/>
<path d="M297.339 312.661H298.467L300.015 307.741C300.339 306.757 300.615 305.797 300.903 304.777H300.951C301.239 305.797 301.515 306.757 301.827 307.741L303.375 312.661H304.539L301.563 303.865H300.315L297.339 312.661ZM298.899 309.973H302.955V309.097H298.899V309.973ZM307.498 312.829C308.398 312.829 309.046 312.349 309.658 311.641H309.682L309.778 312.661H310.678V306.145H309.586V310.777C308.974 311.545 308.494 311.869 307.834 311.869C306.97 311.869 306.598 311.353 306.598 310.141V306.145H305.506V310.273C305.506 311.941 306.13 312.829 307.498 312.829ZM315.087 315.661C317.091 315.661 318.375 314.629 318.375 313.417C318.375 312.337 317.619 311.869 316.107 311.869H314.835C313.959 311.869 313.683 311.569 313.683 311.149C313.683 310.801 313.875 310.573 314.103 310.381C314.403 310.525 314.763 310.597 315.075 310.597C316.407 310.597 317.463 309.733 317.463 308.341C317.463 307.777 317.247 307.297 316.935 306.997H318.267V306.145H315.999C315.771 306.061 315.447 305.989 315.075 305.989C313.755 305.989 312.627 306.877 312.627 308.317C312.627 309.097 313.059 309.721 313.491 310.069V310.117C313.143 310.357 312.759 310.777 312.759 311.317C312.759 311.833 313.011 312.181 313.347 312.397V312.445C312.747 312.829 312.387 313.369 312.387 313.921C312.387 315.037 313.491 315.661 315.087 315.661ZM315.075 309.865C314.319 309.865 313.683 309.253 313.683 308.317C313.683 307.345 314.307 306.781 315.075 306.781C315.843 306.781 316.467 307.357 316.467 308.317C316.467 309.253 315.831 309.865 315.075 309.865ZM315.231 314.917C314.055 314.917 313.347 314.473 313.347 313.765C313.347 313.393 313.539 312.997 314.007 312.661C314.307 312.745 314.607 312.769 314.859 312.769H315.987C316.839 312.769 317.307 312.973 317.307 313.585C317.307 314.257 316.491 314.917 315.231 314.917Z" fill="#8F95B2"/>
<path d="M337.556 312.829C339.404 312.829 340.544 311.725 340.544 310.333C340.544 309.025 339.764 308.413 338.732 307.969L337.484 307.429C336.8 307.141 336.032 306.829 336.032 305.965C336.032 305.185 336.68 304.681 337.676 304.681C338.48 304.681 339.128 305.005 339.668 305.509L340.256 304.801C339.644 304.153 338.72 303.709 337.676 303.709C336.068 303.709 334.904 304.693 334.904 306.049C334.904 307.333 335.864 307.957 336.692 308.305L337.952 308.857C338.78 309.217 339.416 309.505 339.416 310.417C339.416 311.269 338.732 311.845 337.58 311.845C336.668 311.845 335.78 311.425 335.144 310.753L334.484 311.521C335.252 312.325 336.32 312.829 337.556 312.829ZM344.801 312.829C345.689 312.829 346.373 312.529 346.949 312.157L346.553 311.425C346.073 311.749 345.557 311.953 344.933 311.953C343.685 311.953 342.845 311.053 342.761 309.673H347.153C347.189 309.505 347.201 309.277 347.201 309.049C347.201 307.177 346.265 305.989 344.609 305.989C343.109 305.989 341.681 307.297 341.681 309.421C341.681 311.557 343.061 312.829 344.801 312.829ZM342.749 308.881C342.893 307.597 343.709 306.865 344.621 306.865C345.653 306.865 346.241 307.573 346.241 308.881H342.749ZM348.817 315.409H349.909V313.213L349.885 312.073C350.473 312.553 351.085 312.829 351.673 312.829C353.173 312.829 354.505 311.533 354.505 309.313C354.505 307.297 353.605 305.989 351.913 305.989C351.157 305.989 350.437 306.409 349.849 306.901H349.813L349.705 306.145H348.817V315.409ZM351.505 311.905C351.073 311.905 350.497 311.725 349.909 311.233V307.801C350.545 307.213 351.097 306.901 351.649 306.901C352.885 306.901 353.377 307.873 353.377 309.325C353.377 310.933 352.573 311.905 351.505 311.905Z" fill="#8F95B2"/>
<path d="M375.904 312.829C378.112 312.829 379.648 311.053 379.648 308.233C379.648 305.425 378.112 303.709 375.904 303.709C373.684 303.709 372.148 305.413 372.148 308.233C372.148 311.053 373.684 312.829 375.904 312.829ZM375.904 311.845C374.32 311.845 373.288 310.429 373.288 308.233C373.288 306.037 374.32 304.681 375.904 304.681C377.476 304.681 378.52 306.037 378.52 308.233C378.52 310.429 377.476 311.845 375.904 311.845ZM384.018 312.829C384.798 312.829 385.554 312.517 386.13 312.001L385.662 311.269C385.254 311.629 384.714 311.917 384.126 311.917C382.926 311.917 382.098 310.909 382.098 309.421C382.098 307.909 382.962 306.901 384.162 306.901C384.666 306.901 385.074 307.129 385.458 307.477L386.01 306.757C385.554 306.337 384.954 305.989 384.102 305.989C382.434 305.989 380.97 307.237 380.97 309.421C380.97 311.569 382.29 312.829 384.018 312.829ZM389.455 312.829C389.863 312.829 390.295 312.709 390.655 312.577L390.439 311.761C390.235 311.845 389.935 311.941 389.707 311.941C388.951 311.941 388.699 311.473 388.699 310.681V307.033H390.463V306.145H388.699V304.309H387.775L387.655 306.145L386.635 306.217V307.033H387.607V310.657C387.607 311.953 388.063 312.829 389.455 312.829Z" fill="#8F95B2"/>
<path d="M407.886 312.661H408.942V308.053C408.942 307.117 408.858 306.193 408.798 305.305H408.858L409.806 307.117L412.998 312.661H414.15V303.865H413.082V308.437C413.082 309.349 413.166 310.345 413.238 311.233H413.178L412.23 309.409L409.026 303.865H407.886V312.661ZM418.994 312.829C420.59 312.829 422.006 311.569 422.006 309.421C422.006 307.237 420.59 305.989 418.994 305.989C417.386 305.989 415.97 307.237 415.97 309.421C415.97 311.569 417.386 312.829 418.994 312.829ZM418.994 311.917C417.854 311.917 417.098 310.909 417.098 309.421C417.098 307.909 417.854 306.901 418.994 306.901C420.122 306.901 420.878 307.909 420.878 309.421C420.878 310.909 420.122 311.917 418.994 311.917ZM425.061 312.661H426.333L428.637 306.145H427.569L426.321 309.865C426.129 310.501 425.925 311.161 425.721 311.773H425.673C425.469 311.161 425.265 310.501 425.073 309.865L423.837 306.145H422.709L425.061 312.661Z" fill="#8F95B2"/>
<path d="M445.043 312.661H447.299C449.951 312.661 451.391 311.029 451.391 308.233C451.391 305.437 449.951 303.865 447.239 303.865H445.043V312.661ZM446.159 311.749V304.777H447.155C449.219 304.777 450.251 306.001 450.251 308.233C450.251 310.465 449.219 311.749 447.155 311.749H446.159ZM455.836 312.829C456.724 312.829 457.408 312.529 457.984 312.157L457.588 311.425C457.108 311.749 456.592 311.953 455.968 311.953C454.72 311.953 453.88 311.053 453.796 309.673H458.188C458.224 309.505 458.236 309.277 458.236 309.049C458.236 307.177 457.3 305.989 455.644 305.989C454.144 305.989 452.716 307.297 452.716 309.421C452.716 311.557 454.096 312.829 455.836 312.829ZM453.784 308.881C453.928 307.597 454.744 306.865 455.656 306.865C456.688 306.865 457.276 307.573 457.276 308.881H453.784ZM462.409 312.829C463.189 312.829 463.945 312.517 464.521 312.001L464.053 311.269C463.645 311.629 463.105 311.917 462.517 311.917C461.317 311.917 460.489 310.909 460.489 309.421C460.489 307.909 461.353 306.901 462.553 306.901C463.057 306.901 463.465 307.129 463.849 307.477L464.401 306.757C463.945 306.337 463.345 305.989 462.493 305.989C460.825 305.989 459.361 307.237 459.361 309.421C459.361 311.569 460.681 312.829 462.409 312.829Z" fill="#8F95B2"/>
<path d="M227.035 312.829C228.751 312.829 229.459 311.605 229.459 310.081V303.865H228.343V309.985C228.343 311.317 227.887 311.845 226.927 311.845C226.303 311.845 225.799 311.569 225.415 310.861L224.611 311.425C225.139 312.349 225.919 312.829 227.035 312.829ZM233.625 312.829C234.525 312.829 235.173 312.349 235.785 311.641H235.809L235.905 312.661H236.805V306.145H235.713V310.777C235.101 311.545 234.621 311.869 233.961 311.869C233.097 311.869 232.725 311.353 232.725 310.141V306.145H231.633V310.273C231.633 311.941 232.257 312.829 233.625 312.829ZM239.018 312.661H240.11V307.933C240.758 307.285 241.226 306.937 241.886 306.937C242.75 306.937 243.122 307.453 243.122 308.677V312.661H244.226V308.533C244.226 306.877 243.602 305.989 242.234 305.989C241.334 305.989 240.662 306.481 240.05 307.093H240.014L239.906 306.145H239.018V312.661Z" fill="#8F95B2"/>
<circle cx="235" cy="167" r="4" fill="url(#paint3_linear_37_5361)"/>
<circle cx="235" cy="167" r="2" fill="white"/>
<path d="M248 163L245.414 165.586C244.633 166.367 244.633 167.633 245.414 168.414L248 171V163Z" fill="#081735"/>
<rect x="248" y="152" width="62" height="30" rx="6" fill="#081735"/>
<path d="M266.281 173.196C268.479 173.196 269.683 171.936 269.683 170.144C269.683 167.008 265.413 167.274 265.413 165.552C265.413 164.782 265.889 164.39 266.715 164.39C267.429 164.39 267.919 164.67 268.493 165.216L269.529 164.026C268.815 163.256 267.947 162.724 266.603 162.724C264.685 162.724 263.453 163.858 263.453 165.65C263.453 168.576 267.709 168.394 267.709 170.298C267.709 171.082 267.247 171.53 266.281 171.53C265.469 171.53 264.741 171.166 263.971 170.564L263.047 171.95C263.901 172.734 265.245 173.196 266.281 173.196ZM265.833 174.75H267.219V172.37H265.833V174.75ZM265.833 163.382H267.219V161.156H265.833V163.382ZM275.35 173H277.268V162.906H274.79L270.94 169.08V170.494H278.5V168.912H272.942L274.538 166.378C274.832 165.804 275.112 165.286 275.378 164.74H275.434C275.406 165.342 275.35 166.308 275.35 166.91V173ZM281.494 173H283.58C283.762 169.066 284.126 167.05 286.478 164.18V162.906H279.604V164.642H284.266C282.334 167.316 281.69 169.528 281.494 173ZM288.268 173H290.284V171.026L291.39 169.752L293.294 173H295.52L292.594 168.394L295.282 165.174H293.014L290.354 168.534H290.284V161.842H288.268V173Z" fill="white"/>
<circle cx="379" cy="199" r="4" fill="url(#paint4_linear_37_5361)"/>
<circle cx="379" cy="199" r="2" fill="white"/>
<path d="M392 195L389.414 197.586C388.633 198.367 388.633 199.633 389.414 200.414L392 203V195Z" fill="#081735"/>
<rect x="392" y="184" width="62" height="30" rx="6" fill="#081735"/>
<path d="M410.281 205.196C412.479 205.196 413.683 203.936 413.683 202.144C413.683 199.008 409.413 199.274 409.413 197.552C409.413 196.782 409.889 196.39 410.715 196.39C411.429 196.39 411.919 196.67 412.493 197.216L413.529 196.026C412.815 195.256 411.947 194.724 410.603 194.724C408.685 194.724 407.453 195.858 407.453 197.65C407.453 200.576 411.709 200.394 411.709 202.298C411.709 203.082 411.247 203.53 410.281 203.53C409.469 203.53 408.741 203.166 407.971 202.564L407.047 203.95C407.901 204.734 409.245 205.196 410.281 205.196ZM409.833 206.75H411.219V204.37H409.833V206.75ZM409.833 195.382H411.219V193.156H409.833V195.382ZM415.234 205H422.178V203.264H419.91C419.42 203.264 418.734 203.334 418.216 203.39C420.064 201.458 421.702 199.624 421.702 197.874C421.702 195.956 420.386 194.724 418.44 194.724C417.026 194.724 416.088 195.27 415.136 196.292L416.27 197.412C416.802 196.852 417.404 196.334 418.174 196.334C419.168 196.334 419.714 196.95 419.714 197.972C419.714 199.484 417.936 201.234 415.234 203.824V205ZM425.494 205H427.58C427.762 201.066 428.126 199.05 430.478 196.18V194.906H423.604V196.642H428.266C426.334 199.316 425.69 201.528 425.494 205ZM432.268 205H434.284V203.026L435.39 201.752L437.294 205H439.52L436.594 200.394L439.282 197.174H437.014L434.354 200.534H434.284V193.842H432.268V205Z" fill="white"/>
<circle cx="125" cy="204" r="4" fill="url(#paint5_linear_37_5361)"/>
<circle cx="125" cy="204" r="2" fill="white"/>
<path d="M138 200L135.414 202.586C134.633 203.367 134.633 204.633 135.414 205.414L138 208V200Z" fill="#081735"/>
<rect x="138" y="189" width="62" height="30" rx="6" fill="#081735"/>
<path d="M156.281 210.196C158.479 210.196 159.683 208.936 159.683 207.144C159.683 204.008 155.413 204.274 155.413 202.552C155.413 201.782 155.889 201.39 156.715 201.39C157.429 201.39 157.919 201.67 158.493 202.216L159.529 201.026C158.815 200.256 157.947 199.724 156.603 199.724C154.685 199.724 153.453 200.858 153.453 202.65C153.453 205.576 157.709 205.394 157.709 207.298C157.709 208.082 157.247 208.53 156.281 208.53C155.469 208.53 154.741 208.166 153.971 207.564L153.047 208.95C153.901 209.734 155.245 210.196 156.281 210.196ZM155.833 211.75H157.219V209.37H155.833V211.75ZM155.833 200.382H157.219V198.156H155.833V200.382ZM161.78 210H168.024V208.334H166.078V199.906H164.552C163.88 200.312 163.18 200.578 162.13 200.788V202.062H164.02V208.334H161.78V210ZM169.492 210H176.436V208.264H174.168C173.678 208.264 172.992 208.334 172.474 208.39C174.322 206.458 175.96 204.624 175.96 202.874C175.96 200.956 174.644 199.724 172.698 199.724C171.284 199.724 170.346 200.27 169.394 201.292L170.528 202.412C171.06 201.852 171.662 201.334 172.432 201.334C173.426 201.334 173.972 201.95 173.972 202.972C173.972 204.484 172.194 206.234 169.492 208.824V210ZM178.268 210H180.284V208.026L181.39 206.752L183.294 210H185.52L182.594 205.394L185.282 202.174H183.014L180.354 205.534H180.284V198.842H178.268V210Z" fill="white"/>
<rect x="40" y="340" width="12" height="12" rx="4" fill="url(#paint6_linear_37_5361)"/>
<path d="M68.9504 342.48V343.308H75.2384V342.48H68.9504ZM68.3864 346.992V347.832H75.7784V346.992H68.3864ZM68.2424 344.832V345.66H75.8624V344.832H68.2424ZM71.5904 340.98V345.264H72.4784V340.98H71.5904ZM73.2704 345.48V350.868C73.2704 351.036 73.2104 351.084 73.0184 351.096C72.8264 351.108 72.1664 351.108 71.4464 351.084C71.5664 351.336 71.6984 351.696 71.7464 351.948C72.6824 351.948 73.2824 351.936 73.6784 351.804C74.0504 351.66 74.1584 351.408 74.1584 350.88V345.48H73.2704ZM69.2984 348.564C69.8504 349.212 70.4624 350.112 70.7144 350.688L71.4824 350.244C71.2184 349.656 70.5944 348.792 70.0304 348.168L69.2984 348.564ZM67.5704 343.596C66.8864 344.844 65.7464 346.08 64.6544 346.872C64.8104 347.076 65.0624 347.556 65.1464 347.748C66.3104 346.8 67.5704 345.348 68.3744 343.92L67.5704 343.596ZM67.3784 340.956C66.8504 341.808 65.7824 342.804 64.8344 343.428C64.9784 343.608 65.2064 343.956 65.3024 344.16C66.3704 343.452 67.5104 342.324 68.2184 341.292L67.3784 340.956ZM66.5264 345.72V351.96H67.3904V344.892L67.3664 344.868L66.5264 345.72ZM78.8504 344.628V345.492H85.8464V344.628H78.8504ZM82.3064 347.46V348.312H86.3504V347.46H82.3064ZM81.8264 345.036V350.988L82.7624 351.108V345.036H81.8264ZM79.0064 346.464C78.7424 348.648 78.0944 350.364 76.7504 351.396C76.9664 351.54 77.3384 351.84 77.4824 351.996C78.8384 350.808 79.5824 348.984 79.9184 346.56L79.0064 346.464ZM79.5704 348L78.8384 348.288C79.8704 351.216 81.8264 351.768 84.6824 351.768H87.4904C87.5384 351.504 87.6944 351.084 87.8384 350.856C87.2504 350.88 85.1744 350.88 84.7304 350.88C82.2944 350.868 80.4224 350.448 79.5704 348ZM77.3024 342.276V344.904H78.1904V343.14H86.4104V344.904H87.3344V342.276H77.3024ZM81.4184 341.1C81.7064 341.58 81.9824 342.216 82.0904 342.612L83.0264 342.324C82.9064 341.916 82.5944 341.304 82.3064 340.848L81.4184 341.1ZM96.6584 346.44C96.6584 348.792 97.6064 350.688 99.0464 352.152L99.7664 351.78C98.3744 350.352 97.5224 348.588 97.5224 346.44C97.5224 344.304 98.3744 342.54 99.7664 341.112L99.0464 340.74C97.6064 342.204 96.6584 344.1 96.6584 346.44ZM101.374 351H106.198V350.088H104.422V342.204H103.582C103.114 342.492 102.55 342.696 101.758 342.828V343.536H103.33V350.088H101.374V351ZM110.311 351.168C111.967 351.168 113.035 349.644 113.035 346.572C113.035 343.524 111.967 342.048 110.311 342.048C108.631 342.048 107.563 343.524 107.563 346.572C107.563 349.644 108.631 351.168 110.311 351.168ZM110.311 350.28C109.303 350.28 108.619 349.164 108.619 346.572C108.619 344.016 109.303 342.924 110.311 342.924C111.307 342.924 111.979 344.016 111.979 346.572C111.979 349.164 111.307 350.28 110.311 350.28ZM116.091 347.592C117.303 347.592 118.095 346.584 118.095 344.808C118.095 343.044 117.303 342.048 116.091 342.048C114.879 342.048 114.087 343.044 114.087 344.808C114.087 346.584 114.879 347.592 116.091 347.592ZM116.091 346.92C115.395 346.92 114.915 346.2 114.915 344.808C114.915 343.404 115.395 342.72 116.091 342.72C116.787 342.72 117.255 343.404 117.255 344.808C117.255 346.2 116.787 346.92 116.091 346.92ZM116.343 351.168H117.087L121.935 342.048H121.191L116.343 351.168ZM122.223 351.168C123.411 351.168 124.215 350.16 124.215 348.372C124.215 346.62 123.411 345.612 122.223 345.612C121.011 345.612 120.219 346.62 120.219 348.372C120.219 350.16 121.011 351.168 122.223 351.168ZM122.223 350.496C121.527 350.496 121.047 349.776 121.047 348.372C121.047 346.968 121.527 346.296 122.223 346.296C122.907 346.296 123.387 346.968 123.387 348.372C123.387 349.776 122.907 350.496 122.223 350.496ZM128.33 346.44C128.33 344.1 127.382 342.204 125.942 340.74L125.222 341.112C126.614 342.54 127.466 344.304 127.466 346.44C127.466 348.588 126.614 350.352 125.222 351.78L125.942 352.152C127.382 350.688 128.33 348.792 128.33 346.44Z" fill="#8F95B2"/>
<rect x="157" y="340" width="12" height="12" rx="4" fill="url(#paint7_linear_37_5361)"/>
<path d="M196.004 343.752V349.776C196.004 351.276 196.616 351.624 198.572 351.624C199.016 351.624 202.592 351.624 203.084 351.624C205.064 351.624 205.448 350.976 205.688 348.756C205.412 348.708 205.016 348.552 204.764 348.384C204.608 350.328 204.404 350.736 203.084 350.736C202.28 350.736 199.148 350.736 198.512 350.736C197.192 350.736 196.928 350.556 196.928 349.8V343.752H196.004ZM196.508 345.72V346.62H203.588V345.72H196.508ZM195.38 341.676V342.564H203.228V347.208H204.152V341.676H195.38ZM209.792 346.176V346.932H214.676V346.176H209.792ZM208.256 341.988V342.732H211.976V341.988H208.256ZM212.852 341.988V342.732H217.52V341.988H212.852ZM208.484 340.872C208.1 342.06 207.452 343.236 206.696 344.016C206.912 344.124 207.284 344.364 207.44 344.508C208.16 343.656 208.88 342.372 209.324 341.088L208.484 340.872ZM213.152 340.872C212.828 341.736 212.288 342.588 211.64 343.164C211.856 343.284 212.216 343.512 212.384 343.656C213.008 343.032 213.632 342.06 213.992 341.076L213.152 340.872ZM209.072 342.576C209.384 343.116 209.72 343.848 209.852 344.304L210.656 344.064C210.524 343.608 210.176 342.9 209.852 342.372L209.072 342.576ZM214.112 342.552C214.544 343.092 215 343.848 215.192 344.316L216.032 344.1C215.84 343.608 215.36 342.888 214.904 342.36L214.112 342.552ZM212.648 343.872L212 344.196C213.224 345.432 215.408 346.632 217.244 347.172C217.376 346.944 217.628 346.608 217.832 346.428C215.984 345.972 213.776 344.916 212.648 343.872ZM212.288 343.32C211.076 344.76 208.784 345.948 206.684 346.572C206.888 346.752 207.092 347.064 207.224 347.28C209.384 346.56 211.652 345.264 213.02 343.68L212.288 343.32ZM207.02 350.844V351.648H217.472V350.844H207.02ZM215.36 347.448C214.82 348.696 214.04 350.136 213.296 351.072C213.512 351.168 213.872 351.384 214.052 351.516C214.748 350.532 215.576 349.008 216.176 347.676L215.36 347.448ZM211.34 347.652C211.772 348.432 212.24 349.464 212.408 350.1L213.164 349.788C212.984 349.164 212.504 348.144 212.06 347.388L211.34 347.652ZM208.364 347.988C208.892 348.72 209.456 349.704 209.684 350.328L210.44 349.944C210.2 349.332 209.612 348.384 209.096 347.664L208.364 347.988ZM226.064 342.06H228.092V343.224H226.064V342.06ZM223.232 342.06H225.224V343.224H223.232V342.06ZM220.484 342.06H222.404V343.224H220.484V342.06ZM219.62 341.4V343.884H228.98V341.4H219.62ZM218.936 346.356V347.1H229.616V346.356H218.936ZM220.136 344.724V345.444H227.048V344.724H220.136ZM221.912 349.38V350.004H227.996V349.38H221.912ZM221.888 350.88V351.564H227.984V350.88H221.888ZM228.272 344.292C226.124 346.44 222.332 347.94 218.672 348.732C218.816 348.912 219.044 349.308 219.128 349.5C222.788 348.6 226.64 347.064 228.992 344.748L228.272 344.292ZM223.46 343.884V346.704H224.336V343.884H223.46ZM222.296 347.916H221.972L221.456 348.432V351.948H222.296V348.588H228.068V347.916H222.296ZM227.636 347.916V351.924H228.5V347.916H227.636ZM233.24 344.844V345.684H239.3V344.844H233.24ZM233.024 350.424V351.276H239.456V350.424H233.024ZM232.616 347.124V351.936H233.516V347.94H239.12V351.9H240.068V347.124H232.616ZM236.456 340.896C235.232 342.756 233.024 344.352 230.732 345.252C230.984 345.468 231.236 345.804 231.392 346.044C233.708 345.024 235.916 343.296 237.248 341.292L236.456 340.896ZM236.636 341.592L235.868 341.988C237.464 343.812 239.204 344.952 241.256 345.936C241.388 345.66 241.652 345.324 241.88 345.12C239.864 344.268 238.1 343.212 236.636 341.592ZM245.228 343.656V344.448H251.336V343.656H245.228ZM245.84 345.708V350.4H246.68V345.708H245.84ZM246.296 345.708V346.464H249.848V348.744H246.296V349.524H250.688V345.708H246.296ZM243.308 341.544V351.984H244.184V342.408H252.896V341.544H243.308ZM252.344 341.544V350.82C252.344 351.024 252.272 351.096 252.056 351.108C251.852 351.12 251.144 351.12 250.388 351.096C250.532 351.336 250.676 351.732 250.712 351.972C251.756 351.984 252.356 351.96 252.716 351.804C253.088 351.66 253.232 351.384 253.232 350.82V341.544H252.344ZM257.132 353.364L257.804 353.052C256.772 351.348 256.268 349.32 256.268 347.28C256.268 345.24 256.772 343.212 257.804 341.508L257.132 341.184C256.016 342.984 255.356 344.928 255.356 347.28C255.356 349.644 256.016 351.564 257.132 353.364ZM260.682 351H261.822C261.966 347.568 262.338 345.516 264.402 342.864V342.204H258.906V343.14H263.166C261.438 345.54 260.838 347.676 260.682 351ZM268.311 351.168C269.967 351.168 271.035 349.644 271.035 346.572C271.035 343.524 269.967 342.048 268.311 342.048C266.631 342.048 265.563 343.524 265.563 346.572C265.563 349.644 266.631 351.168 268.311 351.168ZM268.311 350.28C267.303 350.28 266.619 349.164 266.619 346.572C266.619 344.016 267.303 342.924 268.311 342.924C269.307 342.924 269.979 344.016 269.979 346.572C269.979 349.164 269.307 350.28 268.311 350.28ZM274.091 347.592C275.303 347.592 276.095 346.584 276.095 344.808C276.095 343.044 275.303 342.048 274.091 342.048C272.879 342.048 272.087 343.044 272.087 344.808C272.087 346.584 272.879 347.592 274.091 347.592ZM274.091 346.92C273.395 346.92 272.915 346.2 272.915 344.808C272.915 343.404 273.395 342.72 274.091 342.72C274.787 342.72 275.255 343.404 275.255 344.808C275.255 346.2 274.787 346.92 274.091 346.92ZM274.343 351.168H275.087L279.935 342.048H279.191L274.343 351.168ZM280.223 351.168C281.411 351.168 282.215 350.16 282.215 348.372C282.215 346.62 281.411 345.612 280.223 345.612C279.011 345.612 278.219 346.62 278.219 348.372C278.219 350.16 279.011 351.168 280.223 351.168ZM280.223 350.496C279.527 350.496 279.047 349.776 279.047 348.372C279.047 346.968 279.527 346.296 280.223 346.296C280.907 346.296 281.387 346.968 281.387 348.372C281.387 349.776 280.907 350.496 280.223 350.496ZM283.87 353.364C284.974 351.564 285.634 349.644 285.634 347.28C285.634 344.928 284.974 342.984 283.87 341.184L283.186 341.508C284.218 343.212 284.722 345.24 284.722 347.28C284.722 349.32 284.218 351.348 283.186 353.052L283.87 353.364Z" fill="#8F95B2"/>
<rect x="320" y="340" width="12" height="12" rx="4" fill="url(#paint8_linear_37_5361)"/>
<path d="M352.294 344.844V345.684H358.354V344.844H352.294ZM352.078 350.424V351.276H358.51V350.424H352.078ZM351.67 347.124V351.936H352.57V347.94H358.174V351.9H359.122V347.124H351.67ZM355.51 340.896C354.286 342.756 352.078 344.352 349.786 345.252C350.038 345.468 350.29 345.804 350.446 346.044C352.762 345.024 354.97 343.296 356.302 341.292L355.51 340.896ZM355.69 341.592L354.922 341.988C356.518 343.812 358.258 344.952 360.31 345.936C360.442 345.66 360.706 345.324 360.934 345.12C358.918 344.268 357.154 343.212 355.69 341.592ZM364.282 343.656V344.448H370.39V343.656H364.282ZM364.894 345.708V350.4H365.734V345.708H364.894ZM365.35 345.708V346.464H368.902V348.744H365.35V349.524H369.742V345.708H365.35ZM362.362 341.544V351.984H363.238V342.408H371.95V341.544H362.362ZM371.398 341.544V350.82C371.398 351.024 371.326 351.096 371.11 351.108C370.906 351.12 370.198 351.12 369.442 351.096C369.586 351.336 369.73 351.732 369.766 351.972C370.81 351.984 371.41 351.96 371.77 351.804C372.142 351.66 372.286 351.384 372.286 350.82V341.544H371.398ZM373.666 347.46L373.834 348.324C374.926 347.976 376.354 347.52 377.71 347.076L377.59 346.26C376.138 346.728 374.65 347.196 373.666 347.46ZM373.81 343.344V344.184H377.59V343.344H373.81ZM375.334 340.932V350.808C375.334 350.988 375.262 351.036 375.118 351.036C374.974 351.048 374.482 351.048 373.954 351.024C374.074 351.288 374.194 351.684 374.23 351.924C375.01 351.924 375.502 351.888 375.802 351.744C376.114 351.6 376.222 351.336 376.222 350.82V340.932H375.334ZM379.402 342.072H382.75V343.62H379.402V342.072ZM378.514 341.388V344.304H383.662V341.388H378.514ZM380.662 346.764V347.952C380.662 348.9 380.386 350.256 377.134 351.144C377.338 351.336 377.578 351.684 377.686 351.9C381.094 350.82 381.538 349.224 381.538 347.964V346.764H380.662ZM381.538 350.124C382.462 350.7 383.698 351.516 384.322 352.008L384.886 351.348C384.25 350.868 382.99 350.088 382.078 349.548L381.538 350.124ZM378.19 345.192V349.548H379.042V345.936H383.17V349.512H384.046V345.192H378.19ZM385.954 346.32V347.232H396.682V346.32H385.954ZM388.15 341.088C387.706 342.732 386.962 344.328 386.026 345.348C386.254 345.456 386.698 345.684 386.89 345.828C387.79 344.736 388.582 343.056 389.086 341.292L388.15 341.088ZM388.03 343.032L387.598 343.932H395.674V343.032H388.03ZM391.846 346.512L391.018 346.716C391.87 349.476 393.538 351.228 396.358 351.972C396.502 351.72 396.766 351.336 396.97 351.144C394.246 350.544 392.578 348.924 391.846 346.512ZM390.79 340.92V344.652C390.79 347.1 390.298 349.68 385.81 351.204C386.002 351.384 386.278 351.756 386.374 351.984C391.162 350.328 391.726 347.424 391.726 344.664V340.92H390.79ZM405.658 346.44C405.658 348.792 406.606 350.688 408.046 352.152L408.766 351.78C407.374 350.352 406.522 348.588 406.522 346.44C406.522 344.304 407.374 342.54 408.766 341.112L408.046 340.74C406.606 342.204 405.658 344.1 405.658 346.44ZM409.846 351H415.366V350.064H412.93C412.486 350.064 411.958 350.1 411.49 350.148C413.566 348.192 414.946 346.404 414.946 344.64C414.946 343.068 413.962 342.048 412.39 342.048C411.274 342.048 410.506 342.564 409.786 343.344L410.422 343.956C410.914 343.38 411.538 342.936 412.258 342.936C413.35 342.936 413.866 343.68 413.866 344.688C413.866 346.188 412.606 347.952 409.846 350.364V351ZM419.311 351.168C420.967 351.168 422.035 349.644 422.035 346.572C422.035 343.524 420.967 342.048 419.311 342.048C417.631 342.048 416.563 343.524 416.563 346.572C416.563 349.644 417.631 351.168 419.311 351.168ZM419.311 350.28C418.303 350.28 417.619 349.164 417.619 346.572C417.619 344.016 418.303 342.924 419.311 342.924C420.307 342.924 420.979 344.016 420.979 346.572C420.979 349.164 420.307 350.28 419.311 350.28ZM425.091 347.592C426.303 347.592 427.095 346.584 427.095 344.808C427.095 343.044 426.303 342.048 425.091 342.048C423.879 342.048 423.087 343.044 423.087 344.808C423.087 346.584 423.879 347.592 425.091 347.592ZM425.091 346.92C424.395 346.92 423.915 346.2 423.915 344.808C423.915 343.404 424.395 342.72 425.091 342.72C425.787 342.72 426.255 343.404 426.255 344.808C426.255 346.2 425.787 346.92 425.091 346.92ZM425.343 351.168H426.087L430.935 342.048H430.191L425.343 351.168ZM431.223 351.168C432.411 351.168 433.215 350.16 433.215 348.372C433.215 346.62 432.411 345.612 431.223 345.612C430.011 345.612 429.219 346.62 429.219 348.372C429.219 350.16 430.011 351.168 431.223 351.168ZM431.223 350.496C430.527 350.496 430.047 349.776 430.047 348.372C430.047 346.968 430.527 346.296 431.223 346.296C431.907 346.296 432.387 346.968 432.387 348.372C432.387 349.776 431.907 350.496 431.223 350.496ZM437.33 346.44C437.33 344.1 436.382 342.204 434.942 340.74L434.222 341.112C435.614 342.54 436.466 344.304 436.466 346.44C436.466 348.588 435.614 350.352 434.222 351.78L434.942 352.152C436.382 350.688 437.33 348.792 437.33 346.44Z" fill="#8F95B2"/>
<g filter="url(#filter1_d_37_5361)">
<g clip-path="url(#clip0_37_5361)">
<rect x="332" y="55" width="150" height="116" rx="8" fill="white"/>
<path d="M357 79.25C358.243 79.25 359.25 78.2426 359.25 77C359.25 75.7574 358.243 74.75 357 74.75C355.757 74.75 354.75 75.7574 354.75 77C354.75 78.2426 355.757 79.25 357 79.25Z" fill="#8F95B2"/>
<path d="M365.404 76.8088C364.742 75.0974 363.594 73.6175 362.1 72.5518C360.607 71.4861 358.833 70.8814 357 70.8125C355.167 70.8814 353.393 71.4861 351.9 72.5518C350.406 73.6175 349.258 75.0974 348.596 76.8088C348.552 76.9323 348.552 77.0677 348.596 77.1912C349.258 78.9026 350.406 80.3825 351.9 81.4482C353.393 82.5139 355.167 83.1186 357 83.1875C358.833 83.1186 360.607 82.5139 362.1 81.4482C363.594 80.3825 364.742 78.9026 365.404 77.1912C365.448 77.0677 365.448 76.9323 365.404 76.8088ZM357 80.6562C356.277 80.6562 355.57 80.4418 354.969 80.0401C354.367 79.6383 353.899 79.0673 353.622 78.3992C353.345 77.7311 353.273 76.9959 353.414 76.2867C353.555 75.5775 353.903 74.926 354.415 74.4146C354.926 73.9033 355.577 73.5551 356.287 73.414C356.996 73.2729 357.731 73.3453 358.399 73.6221C359.067 73.8988 359.638 74.3674 360.04 74.9687C360.442 75.57 360.656 76.2769 360.656 77C360.655 77.9692 360.269 78.8984 359.584 79.5837C358.898 80.2691 357.969 80.6548 357 80.6562Z" fill="#8F95B2"/>
<path d="M382.13 79.962H387.8V81.124H382.13V79.962ZM382.13 78.072H387.8V79.22H382.13V78.072ZM381.094 77.316V81.88H388.878V77.316H381.094ZM378.798 73.032V73.956H391.216V73.032H378.798ZM384.426 71.24V76.882H385.476V71.24H384.426ZM383.824 73.298C382.704 74.866 380.506 76.378 378.49 77.064C378.714 77.274 379.022 77.652 379.176 77.904C381.234 77.092 383.446 75.454 384.706 73.648L383.824 73.298ZM386.05 73.312L385.196 73.648C386.47 75.412 388.71 77.022 390.796 77.806C390.95 77.526 391.258 77.134 391.496 76.938C389.424 76.28 387.184 74.838 386.05 73.312ZM379.022 82.734V83.672H391.02V82.734H379.022ZM395.626 77.47V84.162H396.634V78.31H402.738V84.162H403.788V77.47H395.626ZM392.812 75.622V76.49H405.174V75.622H392.812ZM393.834 73.746V74.586H404.362V73.746H393.834ZM396.312 79.262V80.004H403.186V79.262H396.312ZM396.312 80.998V81.726H403.186V80.998H396.312ZM396.214 82.762V83.602H403.186V82.762H396.214ZM403.55 71.352C401.324 71.814 397.054 72.01 393.638 72.038C393.736 72.262 393.834 72.626 393.862 72.864C397.32 72.85 401.618 72.64 404.222 72.122L403.55 71.352ZM397.81 72.318C397.068 75.412 395.43 78.478 392.462 80.186C392.672 80.382 392.98 80.774 393.12 80.998C396.256 79.136 397.964 75.93 398.902 72.542L397.81 72.318Z" fill="#8F95B2"/>
<path d="M356.25 116H357.75V109.25H360L357 105.5L354 109.25H356.25V116Z" fill="#8F95B2"/>
<path d="M351.75 120.5H362.25C363.077 120.5 363.75 119.827 363.75 119V112.25C363.75 111.423 363.077 110.75 362.25 110.75H359.25V112.25H362.25V119H351.75V112.25H354.75V110.75H351.75C350.923 110.75 350.25 111.423 350.25 112.25V119C350.25 119.827 350.923 120.5 351.75 120.5Z" fill="#8F95B2"/>
<path d="M378.854 114.926V115.92H391.216V114.926H378.854ZM387.058 113.848V118.86C387.058 119.07 386.974 119.14 386.708 119.14C386.442 119.154 385.434 119.168 384.398 119.126C384.538 119.406 384.72 119.798 384.762 120.078C386.12 120.078 386.96 120.078 387.464 119.924C387.968 119.784 388.136 119.49 388.136 118.874V113.848H387.058ZM380.954 116.452C381.822 117.194 382.816 118.258 383.236 118.986L384.02 118.286C383.558 117.572 382.564 116.55 381.682 115.836L380.954 116.452ZM379.89 108.234V111.902C379.89 113.204 380.576 113.498 382.886 113.498C383.418 113.498 387.912 113.498 388.486 113.498C390.25 113.498 390.698 113.148 390.88 111.72C390.572 111.664 390.138 111.538 389.872 111.384C389.746 112.42 389.55 112.616 388.402 112.616C387.422 112.616 383.544 112.616 382.816 112.616C381.262 112.616 380.982 112.476 380.982 111.888V108.234H379.89ZM380.254 110.194V111.132H389.55V107.8H379.89V108.724H388.528V110.194H380.254ZM398.398 107.254V118.748H399.546V107.254H398.398ZM403.382 114.24V120.092H404.53V114.24H403.382ZM394.086 108.514V113.344H403.97V108.514H402.836V112.322H395.178V108.514H394.086ZM393.456 114.24V119.308H403.942V118.258H394.604V114.24H393.456Z" fill="#8F95B2"/>
<path d="M350.25 144.5H363.75" stroke="#FF754C" stroke-width="1.5" stroke-linecap="round" stroke-linejoin="round"/>
<path d="M354 144.5V143C354 142.602 354.158 142.221 354.439 141.939C354.721 141.658 355.102 141.5 355.5 141.5H358.5C358.898 141.5 359.279 141.658 359.561 141.939C359.842 142.221 360 142.602 360 143V144.5M362.25 144.5V155C362.25 155.398 362.092 155.779 361.811 156.061C361.529 156.342 361.148 156.5 360.75 156.5H353.25C352.852 156.5 352.471 156.342 352.189 156.061C351.908 155.779 351.75 155.398 351.75 155V144.5H362.25Z" stroke="#FF754C" stroke-width="1.5" stroke-linecap="round" stroke-linejoin="round"/>
<path d="M355.5 148.25V152.75" stroke="#FF754C" stroke-width="1.5" stroke-linecap="round" stroke-linejoin="round"/>
<path d="M358.5 148.25V152.75" stroke="#FF754C" stroke-width="1.5" stroke-linecap="round" stroke-linejoin="round"/>
<path d="M387.912 144.794V152.704H388.766V144.794H387.912ZM389.956 143.478V154.93C389.956 155.14 389.886 155.196 389.69 155.21C389.508 155.21 388.92 155.21 388.248 155.196C388.388 155.462 388.528 155.882 388.57 156.12C389.466 156.134 390.04 156.106 390.39 155.938C390.726 155.798 390.866 155.504 390.866 154.944V143.478H389.956ZM379.848 143.702V144.626H382.312V143.702H379.848ZM379.498 143.702V150.366C379.498 152.102 379.428 154.188 378.546 155.602C378.756 155.714 379.148 155.98 379.302 156.134C380.254 154.636 380.38 152.228 380.38 150.366V143.702H379.498ZM381.682 143.702V154.832C381.682 155 381.626 155.042 381.486 155.056C381.346 155.056 380.884 155.07 380.394 155.042C380.506 155.294 380.632 155.714 380.66 155.966C381.402 155.966 381.864 155.952 382.172 155.784C382.48 155.63 382.578 155.336 382.578 154.846V143.702H381.682ZM383.88 143.702V144.64H386.344V143.702H383.88ZM383.558 143.702V149.764C383.558 151.612 383.502 154.02 382.704 155.658C382.928 155.742 383.32 155.966 383.474 156.12C384.314 154.398 384.426 151.71 384.426 149.764V143.702H383.558ZM385.728 143.702V154.846C385.728 155 385.686 155.056 385.546 155.056C385.392 155.056 384.944 155.07 384.44 155.042C384.566 155.294 384.678 155.714 384.706 155.966C385.448 155.966 385.91 155.952 386.218 155.784C386.526 155.63 386.624 155.336 386.624 154.846V143.702H385.728ZM378.602 148.7V149.666H387.338V148.7H378.602ZM393.078 143.814V156.092H394.016V144.766H396.34V143.814H393.078ZM396.06 143.814V144.094C395.724 145.046 395.178 146.67 394.632 147.93C395.71 149.05 395.976 150.002 395.99 150.772C395.99 151.206 395.906 151.584 395.668 151.738C395.556 151.836 395.388 151.878 395.206 151.878C394.968 151.892 394.66 151.892 394.324 151.864C394.492 152.13 394.576 152.536 394.576 152.788C394.912 152.802 395.304 152.802 395.584 152.774C395.892 152.732 396.144 152.662 396.354 152.508C396.76 152.214 396.928 151.64 396.928 150.87C396.914 149.988 396.662 148.98 395.57 147.818C396.074 146.712 396.634 145.34 397.068 144.178L396.382 143.772L396.228 143.814H396.06ZM398.496 147.538V148.476H404.026V147.538H398.496ZM397.194 150.184V151.15H405.342V150.184H397.194ZM398.622 151.92C398.16 152.914 397.432 153.978 396.704 154.706C396.928 154.832 397.334 155.126 397.502 155.28C398.216 154.496 399.028 153.306 399.56 152.186L398.622 151.92ZM402.682 152.2C403.438 153.096 404.306 154.342 404.698 155.154L405.524 154.664C405.132 153.88 404.264 152.676 403.48 151.794L402.682 152.2ZM400.862 147.762V154.902C400.862 155.084 400.806 155.154 400.596 155.168C400.386 155.168 399.714 155.168 398.93 155.14C399.084 155.42 399.238 155.84 399.294 156.12C400.302 156.12 400.946 156.106 401.338 155.938C401.744 155.77 401.884 155.49 401.884 154.902V147.762H400.862ZM401.254 143.156C400.316 144.836 398.566 146.446 396.816 147.356C397.068 147.552 397.348 147.874 397.516 148.126C399.336 147.076 401.086 145.368 402.15 143.506L401.254 143.156ZM401.716 143.898L400.89 144.248C402.22 146.04 403.55 147.118 404.922 147.986C405.076 147.706 405.384 147.356 405.636 147.16C404.306 146.418 402.948 145.466 401.716 143.898Z" fill="#FF754C"/>
</g>
<rect x="332.5" y="55.5" width="149" height="115" rx="7.5" stroke="#E6E8F0"/>
</g>
</g>
<defs>
<filter id="filter0_d_37_5361" x="0" y="0" width="520" height="403" filterUnits="userSpaceOnUse" color-interpolation-filters="sRGB">
<feFlood flood-opacity="0" result="BackgroundImageFix"/>
<feColorMatrix in="SourceAlpha" type="matrix" values="0 0 0 0 0 0 0 0 0 0 0 0 0 0 0 0 0 0 127 0" result="hardAlpha"/>
<feOffset dy="8"/>
<feGaussianBlur stdDeviation="8"/>
<feComposite in2="hardAlpha" operator="out"/>
<feColorMatrix type="matrix" values="0 0 0 0 0.560784 0 0 0 0 0.584314 0 0 0 0 0.698039 0 0 0 0.15 0"/>
<feBlend mode="normal" in2="BackgroundImageFix" result="effect1_dropShadow_37_5361"/>
<feBlend mode="normal" in="SourceGraphic" in2="effect1_dropShadow_37_5361" result="shape"/>
</filter>
<filter id="filter1_d_37_5361" x="316" y="47" width="182" height="148" filterUnits="userSpaceOnUse" color-interpolation-filters="sRGB">
<feFlood flood-opacity="0" result="BackgroundImageFix"/>
<feColorMatrix in="SourceAlpha" type="matrix" values="0 0 0 0 0 0 0 0 0 0 0 0 0 0 0 0 0 0 127 0" result="hardAlpha"/>
<feOffset dy="8"/>
<feGaussianBlur stdDeviation="8"/>
<feComposite in2="hardAlpha" operator="out"/>
<feColorMatrix type="matrix" values="0 0 0 0 0.560784 0 0 0 0 0.584314 0 0 0 0 0.698039 0 0 0 0.15 0"/>
<feBlend mode="normal" in2="BackgroundImageFix" result="effect1_dropShadow_37_5361"/>
<feBlend mode="normal" in="SourceGraphic" in2="effect1_dropShadow_37_5361" result="shape"/>
</filter>
<linearGradient id="paint0_linear_37_5361" x1="146.496" y1="221.336" x2="107.021" y2="217.837" gradientUnits="userSpaceOnUse">
<stop stop-color="#0049C6"/>
<stop offset="1" stop-color="#CDF4FF"/>
</linearGradient>
<linearGradient id="paint1_linear_37_5361" x1="223.553" y1="186.537" x2="267.2" y2="196.015" gradientUnits="userSpaceOnUse">
<stop stop-color="#FFB7F5"/>
<stop offset="1" stop-color="#6C5DD3"/>
</linearGradient>
<linearGradient id="paint2_linear_37_5361" x1="381.299" y1="336.436" x2="284.142" y2="276.89" gradientUnits="userSpaceOnUse">
<stop stop-color="#FF754C"/>
<stop offset="1" stop-color="#FFB7F5"/>
</linearGradient>
<linearGradient id="paint3_linear_37_5361" x1="231" y1="163" x2="239" y2="171" gradientUnits="userSpaceOnUse">
<stop stop-color="#FFB7F5"/>
<stop offset="1" stop-color="#6C5DD3"/>
</linearGradient>
<linearGradient id="paint4_linear_37_5361" x1="379" y1="207.88" x2="369.363" y2="188.959" gradientUnits="userSpaceOnUse">
<stop stop-color="#FF754C"/>
<stop offset="1" stop-color="#FFB7F5"/>
</linearGradient>
<linearGradient id="paint5_linear_37_5361" x1="132.441" y1="199.203" x2="119.323" y2="195.944" gradientUnits="userSpaceOnUse">
<stop stop-color="#0049C6"/>
<stop offset="1" stop-color="#CDF4FF"/>
</linearGradient>
<linearGradient id="paint6_linear_37_5361" x1="57.1618" y1="338.804" x2="37.485" y2="333.915" gradientUnits="userSpaceOnUse">
<stop stop-color="#0049C6"/>
<stop offset="1" stop-color="#CDF4FF"/>
</linearGradient>
<linearGradient id="paint7_linear_37_5361" x1="157" y1="340" x2="169" y2="352" gradientUnits="userSpaceOnUse">
<stop stop-color="#FFB7F5"/>
<stop offset="1" stop-color="#6C5DD3"/>
</linearGradient>
<linearGradient id="paint8_linear_37_5361" x1="326" y1="359.32" x2="311.545" y2="330.938" gradientUnits="userSpaceOnUse">
<stop stop-color="#FF754C"/>
<stop offset="1" stop-color="#FFB7F5"/>
</linearGradient>
<clipPath id="clip0_37_5361">
<rect x="332" y="55" width="150" height="116" rx="8" fill="white"/>
</clipPath>
</defs>
</svg>
