<svg width="520" height="394" viewBox="0 0 520 394" fill="none" xmlns="http://www.w3.org/2000/svg">
<g filter="url(#filter0_d_37_5361)">
<rect x="16" y="8" width="488" height="362" rx="24" fill="white" shape-rendering="crispEdges"/>
<path d="M51.376 42.7858L53.554 43.4158C52.87 45.0238 51.976 46.3858 50.872 47.5018C49.768 48.6178 48.478 49.5418 47.002 50.2738C45.526 50.9938 43.894 51.5758 42.106 52.0198C42.022 51.8518 41.902 51.6478 41.746 51.4078C41.59 51.1678 41.428 50.9278 41.26 50.6878C41.092 50.4478 40.936 50.2498 40.792 50.0938C42.544 49.7578 44.116 49.2838 45.508 48.6718C46.9 48.0598 48.094 47.2738 49.09 46.3138C50.086 45.3538 50.848 44.1778 51.376 42.7858ZM45.328 39.6718L47.452 40.4818C47.032 41.0098 46.546 41.5318 45.994 42.0478C45.454 42.5638 44.89 43.0498 44.302 43.5058C43.726 43.9618 43.174 44.3578 42.646 44.6938C42.514 44.5498 42.346 44.3758 42.142 44.1718C41.938 43.9678 41.722 43.7698 41.494 43.5778C41.278 43.3858 41.086 43.2298 40.918 43.1098C41.47 42.8338 42.016 42.5158 42.556 42.1558C43.108 41.7838 43.624 41.3878 44.104 40.9678C44.584 40.5358 44.992 40.1038 45.328 39.6718ZM46.714 42.8758C47.506 44.8078 48.778 46.3738 50.53 47.5738C52.294 48.7738 54.538 49.5778 57.262 49.9858C57.118 50.1418 56.956 50.3338 56.776 50.5618C56.608 50.7898 56.452 51.0238 56.308 51.2638C56.164 51.5158 56.044 51.7378 55.948 51.9298C54.028 51.5698 52.354 51.0238 50.926 50.2918C49.51 49.5598 48.298 48.6298 47.29 47.5018C46.294 46.3618 45.454 45.0178 44.77 43.4698L46.714 42.8758ZM41.062 37.4038H56.938V39.5098H41.062V37.4038ZM50.728 40.7878L52.42 39.5638C52.948 39.9238 53.506 40.3258 54.094 40.7698C54.694 41.2138 55.258 41.6638 55.786 42.1198C56.314 42.5638 56.746 42.9778 57.082 43.3618L55.228 44.7838C54.94 44.4118 54.544 43.9918 54.04 43.5238C53.536 43.0438 52.99 42.5638 52.402 42.0838C51.826 41.6038 51.268 41.1718 50.728 40.7878ZM47.218 35.6218L49.27 34.9018C49.51 35.2858 49.756 35.7118 50.008 36.1798C50.272 36.6478 50.464 37.0498 50.584 37.3858L48.406 38.1958C48.31 37.8598 48.148 37.4458 47.92 36.9538C47.692 36.4618 47.458 36.0178 47.218 35.6218ZM63.274 40.3558V41.4898H70.852V40.3558H63.274ZM63.274 37.6198V38.7358H70.852V37.6198H63.274ZM61.168 35.8918H73.066V43.2178H61.168V35.8918ZM62.266 44.2978H72.814V46.1878H62.266V44.2978ZM72.31 44.2978H74.506C74.506 44.2978 74.5 44.3518 74.488 44.4598C74.488 44.5558 74.482 44.6758 74.47 44.8198C74.47 44.9518 74.458 45.0658 74.434 45.1618C74.314 46.4698 74.182 47.5438 74.038 48.3838C73.894 49.2118 73.744 49.8598 73.588 50.3278C73.432 50.7958 73.252 51.1318 73.048 51.3358C72.832 51.5758 72.604 51.7438 72.364 51.8398C72.124 51.9358 71.86 51.9958 71.572 52.0198C71.32 52.0558 70.99 52.0738 70.582 52.0738C70.186 52.0738 69.766 52.0618 69.322 52.0378C69.31 51.7738 69.25 51.4678 69.142 51.1198C69.046 50.7718 68.92 50.4718 68.764 50.2198C69.136 50.2558 69.484 50.2798 69.808 50.2918C70.144 50.2918 70.39 50.2918 70.546 50.2918C70.702 50.2918 70.828 50.2798 70.924 50.2558C71.02 50.2318 71.116 50.1718 71.212 50.0758C71.344 49.9438 71.476 49.6798 71.608 49.2838C71.752 48.8758 71.878 48.2938 71.986 47.5378C72.106 46.7818 72.214 45.8038 72.31 44.6038V44.2978ZM63.382 42.2638L65.452 42.9298C65.02 43.6738 64.504 44.3818 63.904 45.0538C63.316 45.7258 62.692 46.3498 62.032 46.9258C61.372 47.4898 60.706 47.9818 60.034 48.4018C59.914 48.2578 59.752 48.0898 59.548 47.8978C59.356 47.6938 59.158 47.4958 58.954 47.3038C58.75 47.1118 58.564 46.9618 58.396 46.8538C59.404 46.3378 60.352 45.6778 61.24 44.8738C62.128 44.0578 62.842 43.1878 63.382 42.2638ZM65.146 44.9638L67.18 45.5938C66.748 46.4218 66.22 47.2138 65.596 47.9698C64.984 48.7138 64.324 49.3978 63.616 50.0218C62.908 50.6458 62.182 51.1858 61.438 51.6418C61.33 51.4978 61.18 51.3238 60.988 51.1198C60.796 50.9278 60.592 50.7358 60.376 50.5438C60.172 50.3518 59.992 50.2018 59.836 50.0938C60.952 49.5298 61.978 48.8038 62.914 47.9158C63.862 47.0158 64.606 46.0318 65.146 44.9638ZM68.818 45.0898L70.87 45.5758C70.39 46.9318 69.76 48.1858 68.98 49.3378C68.212 50.4778 67.378 51.4198 66.478 52.1638C66.358 52.0438 66.19 51.8998 65.974 51.7318C65.77 51.5638 65.56 51.3958 65.344 51.2278C65.128 51.0598 64.936 50.9278 64.768 50.8318C65.68 50.1958 66.484 49.3738 67.18 48.3658C67.888 47.3458 68.434 46.2538 68.818 45.0898ZM76.882 35.8918H82.642V37.7638H76.882V35.8918ZM76.468 41.8138H83.308V43.7218H76.468V41.8138ZM79.15 42.7138H81.238V49.7158C81.238 50.2198 81.178 50.6218 81.058 50.9218C80.95 51.2218 80.728 51.4558 80.392 51.6238C80.056 51.7798 79.66 51.8818 79.204 51.9298C78.748 51.9778 78.22 52.0018 77.62 52.0018C77.572 51.6898 77.482 51.3358 77.35 50.9398C77.23 50.5438 77.104 50.2078 76.972 49.9318C77.356 49.9438 77.728 49.9498 78.088 49.9498C78.46 49.9498 78.706 49.9498 78.826 49.9498C78.958 49.9378 79.042 49.9138 79.078 49.8778C79.126 49.8418 79.15 49.7758 79.15 49.6798V42.7138ZM81.976 35.8918H82.444L82.822 35.7838L84.118 36.6838C83.83 37.1638 83.5 37.6558 83.128 38.1598C82.756 38.6518 82.372 39.1258 81.976 39.5818C81.58 40.0378 81.19 40.4338 80.806 40.7698C80.674 40.5778 80.488 40.3558 80.248 40.1038C80.008 39.8518 79.804 39.6598 79.636 39.5278C79.924 39.2398 80.218 38.9038 80.518 38.5198C80.83 38.1358 81.118 37.7458 81.382 37.3498C81.646 36.9418 81.844 36.5818 81.976 36.2698V35.8918ZM82.678 41.8138H82.966L83.254 41.7598L84.586 42.0478C84.394 42.8038 84.178 43.5718 83.938 44.3518C83.71 45.1318 83.494 45.7918 83.29 46.3318L81.688 45.9898C81.808 45.6658 81.922 45.2818 82.03 44.8378C82.15 44.3818 82.27 43.9138 82.39 43.4338C82.51 42.9538 82.606 42.4978 82.678 42.0658V41.8138ZM77.206 39.9598L78.34 38.5738C78.772 38.8138 79.252 39.0958 79.78 39.4198C80.32 39.7318 80.842 40.0498 81.346 40.3738C81.862 40.6858 82.282 40.9558 82.606 41.1838L81.418 42.7858C81.118 42.5338 80.722 42.2458 80.23 41.9218C79.738 41.5858 79.222 41.2438 78.682 40.8958C78.154 40.5478 77.662 40.2358 77.206 39.9598ZM84.208 35.8198H93.478V37.7098H84.208V35.8198ZM87.808 36.8098L90.202 37.0978C90.022 37.6498 89.842 38.1958 89.662 38.7358C89.482 39.2758 89.314 39.7378 89.158 40.1218L87.322 39.7798C87.43 39.3478 87.532 38.8558 87.628 38.3038C87.724 37.7518 87.784 37.2538 87.808 36.8098ZM87.718 41.8318H89.734V45.1438C89.734 45.7318 89.668 46.3378 89.536 46.9618C89.416 47.5858 89.176 48.1978 88.816 48.7978C88.456 49.3858 87.934 49.9438 87.25 50.4718C86.578 51.0118 85.678 51.4978 84.55 51.9298C84.418 51.7138 84.22 51.4558 83.956 51.1558C83.704 50.8558 83.452 50.6098 83.2 50.4178C84.208 50.0818 85.006 49.6978 85.594 49.2658C86.194 48.8338 86.644 48.3778 86.944 47.8978C87.256 47.4178 87.46 46.9438 87.556 46.4758C87.664 45.9958 87.718 45.5458 87.718 45.1258V41.8318ZM89.032 49.2298L90.418 47.9338C90.754 48.1978 91.12 48.4978 91.516 48.8338C91.912 49.1578 92.296 49.4818 92.668 49.8058C93.04 50.1178 93.346 50.3998 93.586 50.6518L92.092 52.1098C91.888 51.8458 91.606 51.5458 91.246 51.2098C90.886 50.8738 90.508 50.5318 90.112 50.1838C89.728 49.8358 89.368 49.5178 89.032 49.2298ZM84.784 39.0058H92.776V47.6278H90.67V40.9318H86.782V47.6998H84.784V39.0058ZM102.694 49.0138L103.99 48.2398C104.266 48.5158 104.548 48.8278 104.836 49.1758C105.136 49.5118 105.412 49.8418 105.664 50.1658C105.928 50.4898 106.138 50.7778 106.294 51.0298L104.926 51.9118C104.782 51.6478 104.584 51.3418 104.332 50.9938C104.08 50.6578 103.81 50.3158 103.522 49.9678C103.246 49.6198 102.97 49.3018 102.694 49.0138ZM99.49 36.0718H105.916V47.8078H104.224V37.6198H101.11V47.9158H99.49V36.0718ZM109.228 35.4238H110.92V49.8598C110.92 50.3398 110.866 50.7178 110.758 50.9938C110.65 51.2698 110.452 51.4798 110.164 51.6238C109.888 51.7678 109.522 51.8638 109.066 51.9118C108.622 51.9598 108.07 51.9778 107.41 51.9658C107.374 51.7258 107.302 51.4318 107.194 51.0838C107.086 50.7478 106.978 50.4538 106.87 50.2018C107.302 50.2138 107.704 50.2198 108.076 50.2198C108.46 50.2198 108.724 50.2198 108.868 50.2198C109.108 50.2198 109.228 50.0998 109.228 49.8598V35.4238ZM106.762 36.7738H108.4V47.8798H106.762V36.7738ZM101.848 38.6098H103.414V45.5218C103.414 46.1218 103.366 46.7278 103.27 47.3398C103.174 47.9518 102.994 48.5518 102.73 49.1398C102.478 49.7158 102.106 50.2498 101.614 50.7418C101.122 51.2338 100.468 51.6658 99.652 52.0378C99.604 51.9178 99.52 51.7678 99.4 51.5878C99.292 51.4198 99.178 51.2518 99.058 51.0838C98.938 50.9278 98.83 50.8078 98.734 50.7238C99.442 50.3998 100.006 50.0458 100.426 49.6618C100.846 49.2658 101.158 48.8458 101.362 48.4018C101.566 47.9458 101.698 47.4718 101.758 46.9798C101.818 46.4878 101.848 45.9958 101.848 45.5038V38.6098ZM95.188 36.8458L96.466 35.2798C96.778 35.4238 97.12 35.6038 97.492 35.8198C97.876 36.0358 98.248 36.2518 98.608 36.4678C98.968 36.6718 99.256 36.8638 99.472 37.0438L98.158 38.7898C97.954 38.6098 97.678 38.4058 97.33 38.1778C96.994 37.9378 96.634 37.7038 96.25 37.4758C95.878 37.2478 95.524 37.0378 95.188 36.8458ZM94.504 41.6698L95.728 40.1038C96.04 40.2478 96.382 40.4218 96.754 40.6258C97.138 40.8298 97.504 41.0338 97.852 41.2378C98.212 41.4418 98.512 41.6278 98.752 41.7958L97.456 43.5238C97.252 43.3438 96.976 43.1458 96.628 42.9298C96.28 42.7138 95.92 42.4918 95.548 42.2638C95.176 42.0358 94.828 41.8378 94.504 41.6698ZM94.81 50.7238C95.038 50.2558 95.284 49.7038 95.548 49.0678C95.824 48.4318 96.1 47.7598 96.376 47.0518C96.652 46.3318 96.904 45.6238 97.132 44.9278L98.878 46.0438C98.686 46.6918 98.47 47.3518 98.23 48.0238C97.99 48.6838 97.744 49.3378 97.492 49.9858C97.252 50.6218 97.006 51.2398 96.754 51.8398L94.81 50.7238Z" fill="#081735"/>
<ellipse cx="465.6" cy="44.6879" rx="1.6" ry="1.56119" fill="#8F95B2"/>
<ellipse cx="472" cy="44.6879" rx="1.6" ry="1.56119" fill="#8F95B2"/>
<ellipse cx="478.4" cy="44.6879" rx="1.6" ry="1.56119" fill="#8F95B2"/>
<line x1="17" y1="69.9474" x2="504" y2="69.9474" stroke="#E6E8F0"/>
<path d="M48.896 123.313C48.1067 123.313 47.264 123.196 46.368 122.961C45.472 122.727 44.5973 122.407 43.744 122.001C42.912 121.575 42.176 121.063 41.536 120.465L43.616 117.265C44.4907 117.969 45.3547 118.513 46.208 118.897C47.0827 119.281 47.9787 119.473 48.896 119.473C50.0267 119.473 50.848 119.239 51.36 118.769C51.8933 118.279 52.16 117.575 52.16 116.657C52.16 116.039 51.9893 115.505 51.648 115.057C51.3067 114.609 50.8373 114.204 50.24 113.841C49.664 113.479 49.0347 113.127 48.352 112.785C47.6693 112.423 46.976 112.049 46.272 111.665C45.5893 111.281 44.9493 110.833 44.352 110.321C43.776 109.809 43.3173 109.212 42.976 108.529C42.6347 107.825 42.464 106.993 42.464 106.033C42.464 104.689 42.752 103.516 43.328 102.513C43.9253 101.511 44.7573 100.732 45.824 100.177C46.912 99.6226 48.192 99.3452 49.664 99.3452C51.2 99.3452 52.4907 99.6226 53.536 100.177C54.6027 100.732 55.5413 101.447 56.352 102.321L53.984 105.041C53.3227 104.423 52.6827 103.964 52.064 103.665C51.4453 103.345 50.72 103.185 49.888 103.185C48.9493 103.185 48.224 103.409 47.712 103.857C47.2 104.284 46.944 104.945 46.944 105.841C46.944 106.396 47.1147 106.876 47.456 107.281C47.8187 107.687 48.288 108.049 48.864 108.369C49.44 108.689 50.0693 109.02 50.752 109.361C51.456 109.681 52.1493 110.033 52.832 110.417C53.536 110.801 54.176 111.26 54.752 111.793C55.328 112.305 55.7867 112.935 56.128 113.681C56.4907 114.407 56.672 115.281 56.672 116.305C56.672 117.671 56.3733 118.887 55.776 119.953C55.2 120.999 54.3253 121.82 53.152 122.417C52 123.015 50.5813 123.313 48.896 123.313ZM47.872 126.833V121.425H51.04V126.833H47.872ZM47.872 100.849V95.7932H51.04V100.849H47.872ZM61.499 122.865V119.025H66.619V104.081H62.299V101.137C63.4937 100.924 64.5177 100.668 65.371 100.369C66.2457 100.049 67.0563 99.6439 67.803 99.1532H71.291V119.025H75.739V122.865H61.499ZM80.374 122.865V119.025H85.494V104.081H81.174V101.137C82.3687 100.924 83.3927 100.668 84.246 100.369C85.1207 100.049 85.9313 99.6439 86.678 99.1532H90.166V119.025H94.614V122.865H80.374ZM98.001 122.865V120.145C100.156 118.225 101.99 116.444 103.505 114.801C105.041 113.159 106.214 111.633 107.025 110.225C107.836 108.796 108.241 107.473 108.241 106.257C108.241 105.489 108.102 104.817 107.825 104.241C107.548 103.665 107.142 103.228 106.609 102.929C106.097 102.609 105.457 102.449 104.689 102.449C103.836 102.449 103.046 102.695 102.321 103.185C101.617 103.655 100.966 104.22 100.369 104.881L97.745 102.353C98.8543 101.159 99.985 100.263 101.137 99.6652C102.31 99.0466 103.697 98.7372 105.297 98.7372C106.79 98.7372 108.092 99.0466 109.201 99.6652C110.332 100.263 111.206 101.105 111.825 102.193C112.444 103.281 112.753 104.561 112.753 106.033C112.753 107.463 112.39 108.924 111.665 110.417C110.961 111.889 110.012 113.361 108.817 114.833C107.622 116.305 106.3 117.756 104.849 119.185C105.468 119.1 106.129 119.036 106.833 118.993C107.558 118.929 108.198 118.897 108.753 118.897H113.873V122.865H98.001ZM118.188 129.713L117.196 127.153C118.433 126.663 119.383 126.023 120.044 125.233C120.727 124.444 121.068 123.58 121.068 122.641L120.908 119.281L122.572 122.065C122.316 122.3 122.028 122.471 121.708 122.577C121.409 122.684 121.089 122.737 120.748 122.737C119.98 122.737 119.297 122.503 118.7 122.033C118.103 121.543 117.804 120.849 117.804 119.953C117.804 119.121 118.103 118.449 118.7 117.937C119.297 117.425 120.023 117.169 120.876 117.169C121.943 117.169 122.764 117.585 123.34 118.417C123.937 119.228 124.236 120.359 124.236 121.809C124.236 123.687 123.713 125.308 122.668 126.673C121.623 128.039 120.129 129.052 118.188 129.713ZM134.642 123.313C133.405 123.313 132.296 123.164 131.314 122.865C130.333 122.588 129.458 122.204 128.69 121.713C127.944 121.201 127.293 120.636 126.738 120.017L128.946 117.041C129.672 117.703 130.461 118.279 131.314 118.769C132.189 119.239 133.16 119.473 134.226 119.473C135.037 119.473 135.741 119.345 136.338 119.089C136.957 118.833 137.426 118.46 137.746 117.969C138.088 117.479 138.258 116.881 138.258 116.177C138.258 115.388 138.066 114.716 137.682 114.161C137.32 113.585 136.669 113.148 135.73 112.849C134.792 112.551 133.469 112.401 131.762 112.401V109.009C133.213 109.009 134.354 108.86 135.186 108.561C136.018 108.241 136.605 107.815 136.946 107.281C137.309 106.727 137.49 106.097 137.49 105.393C137.49 104.476 137.213 103.761 136.658 103.249C136.104 102.716 135.325 102.449 134.322 102.449C133.49 102.449 132.712 102.641 131.986 103.025C131.282 103.388 130.578 103.889 129.874 104.529L127.442 101.617C128.488 100.743 129.586 100.049 130.738 99.5372C131.89 99.0039 133.16 98.7372 134.546 98.7372C136.061 98.7372 137.394 98.9826 138.546 99.4732C139.72 99.9639 140.626 100.679 141.266 101.617C141.906 102.556 142.226 103.697 142.226 105.041C142.226 106.321 141.885 107.42 141.202 108.337C140.52 109.255 139.549 109.959 138.29 110.449V110.609C139.165 110.844 139.954 111.228 140.658 111.761C141.384 112.273 141.949 112.924 142.354 113.713C142.781 114.503 142.994 115.42 142.994 116.465C142.994 117.895 142.61 119.121 141.842 120.145C141.096 121.169 140.082 121.959 138.802 122.513C137.544 123.047 136.157 123.313 134.642 123.313ZM155.565 122.865V108.305C155.565 107.623 155.587 106.812 155.629 105.873C155.672 104.913 155.715 104.081 155.757 103.377H155.597C155.32 104.017 155.021 104.657 154.701 105.297C154.381 105.937 154.051 106.588 153.709 107.249L150.029 113.137H162.765V116.721H145.453V113.521L154.285 99.1532H159.949V122.865H155.565ZM173.096 123.313C171.496 123.313 170.088 122.855 168.872 121.937C167.678 120.999 166.739 119.612 166.056 117.777C165.395 115.921 165.064 113.628 165.064 110.897C165.064 108.188 165.395 105.937 166.056 104.145C166.739 102.332 167.678 100.977 168.872 100.081C170.088 99.1852 171.496 98.7372 173.096 98.7372C174.718 98.7372 176.126 99.1959 177.32 100.113C178.515 101.009 179.443 102.353 180.104 104.145C180.787 105.937 181.128 108.188 181.128 110.897C181.128 113.628 180.787 115.921 180.104 117.777C179.443 119.612 178.515 120.999 177.32 121.937C176.126 122.855 174.718 123.313 173.096 123.313ZM173.096 119.633C173.8 119.633 174.419 119.367 174.952 118.833C175.486 118.3 175.902 117.404 176.2 116.145C176.499 114.865 176.648 113.116 176.648 110.897C176.648 108.7 176.499 106.983 176.2 105.745C175.902 104.487 175.486 103.612 174.952 103.121C174.419 102.609 173.8 102.353 173.096 102.353C172.435 102.353 171.827 102.609 171.272 103.121C170.739 103.612 170.312 104.487 169.992 105.745C169.672 106.983 169.512 108.7 169.512 110.897C169.512 113.116 169.672 114.865 169.992 116.145C170.312 117.404 170.739 118.3 171.272 118.833C171.827 119.367 172.435 119.633 173.096 119.633Z" fill="#081735"/>
<rect x="40.6537" y="247.9" width="22.8528" height="36.9932" rx="5.22937" fill="#E6E8F0"/>
<rect x="77.2336" y="194.324" width="22.8527" height="90.5696" rx="5.22937" fill="#E6E8F0"/>
<rect x="113.813" y="222.388" width="22.8527" height="62.5057" rx="5.22937" fill="url(#paint0_linear_37_5361)"/>
<rect x="150" y="242.178" width="23" height="42.9326" rx="5.22937" fill="#E6E8F0"/>
<rect x="186.973" y="227.49" width="22.8528" height="57.4032" rx="5.22937" fill="#E6E8F0"/>
<rect x="223.553" y="182.206" width="22.8528" height="102.688" rx="5.22937" fill="url(#paint1_linear_37_5361)"/>
<rect x="260.133" y="235.144" width="22.8528" height="49.7495" rx="5.22937" fill="#E6E8F0"/>
<rect x="296.713" y="194.324" width="22.8528" height="90.5696" rx="5.22937" fill="#E6E8F0"/>
<rect x="333.293" y="260.019" width="22.8528" height="24.8747" rx="5.22937" fill="#E6E8F0"/>
<rect x="369.872" y="213.458" width="22.8528" height="71.4352" rx="5.22937" fill="url(#paint2_linear_37_5361)"/>
<rect x="406.452" y="244.711" width="22.8528" height="40.1823" rx="5.22937" fill="#E6E8F0"/>
<rect x="443.032" y="222.388" width="22.8528" height="62.5057" rx="5.22937" fill="#E6E8F0"/>
<path d="M44.2831 305.741C43.7231 305.741 43.2431 305.625 42.8431 305.393C42.4511 305.153 42.1231 304.805 41.8591 304.349L42.6511 303.773C42.8511 304.133 43.0751 304.389 43.3231 304.541C43.5791 304.693 43.8631 304.769 44.1751 304.769C44.6551 304.769 45.0111 304.625 45.2431 304.337C45.4751 304.041 45.5911 303.561 45.5911 302.897V296.789H46.7071V303.005C46.7071 303.509 46.6231 303.969 46.4551 304.385C46.2871 304.801 46.0231 305.133 45.6631 305.381C45.3111 305.621 44.8511 305.741 44.2831 305.741ZM50.465 305.741C50.105 305.741 49.781 305.669 49.493 305.525C49.205 305.381 48.977 305.173 48.809 304.901C48.649 304.621 48.569 304.285 48.569 303.893C48.569 303.181 48.885 302.637 49.517 302.261C50.157 301.877 51.173 301.609 52.565 301.457C52.565 301.177 52.525 300.913 52.445 300.665C52.373 300.409 52.241 300.205 52.049 300.053C51.857 299.893 51.581 299.813 51.221 299.813C50.845 299.813 50.489 299.889 50.153 300.041C49.825 300.185 49.529 300.341 49.265 300.509L48.845 299.753C49.045 299.625 49.277 299.497 49.541 299.369C49.805 299.233 50.093 299.121 50.405 299.033C50.717 298.945 51.049 298.901 51.401 298.901C51.929 298.901 52.357 299.013 52.685 299.237C53.021 299.461 53.265 299.773 53.417 300.173C53.577 300.565 53.657 301.033 53.657 301.577V305.585H52.757L52.661 304.805H52.625C52.321 305.061 51.985 305.281 51.617 305.465C51.257 305.649 50.873 305.741 50.465 305.741ZM50.777 304.853C51.089 304.853 51.385 304.781 51.665 304.637C51.953 304.493 52.253 304.281 52.565 304.001V302.189C51.837 302.269 51.257 302.385 50.825 302.537C50.393 302.681 50.085 302.861 49.901 303.077C49.717 303.285 49.625 303.533 49.625 303.821C49.625 304.197 49.737 304.465 49.961 304.625C50.185 304.777 50.457 304.853 50.777 304.853ZM55.7267 305.585V299.069H56.6267L56.7347 300.017H56.7587C57.0707 299.705 57.3987 299.441 57.7427 299.225C58.0947 299.009 58.4947 298.901 58.9427 298.901C59.6307 298.901 60.1347 299.121 60.4547 299.561C60.7747 299.993 60.9347 300.625 60.9347 301.457V305.585H59.8427V301.601C59.8427 300.985 59.7427 300.541 59.5427 300.269C59.3507 299.997 59.0387 299.861 58.6067 299.861C58.2707 299.861 57.9707 299.945 57.7067 300.113C57.4427 300.281 57.1507 300.529 56.8307 300.857V305.585H55.7267Z" fill="#8F95B2"/>
<path d="M79.2743 305.585V296.789H84.3383V297.725H80.3783V300.701H83.7383V301.637H80.3783V305.585H79.2743ZM88.2164 305.741C87.6324 305.741 87.1044 305.605 86.6324 305.333C86.1604 305.061 85.7844 304.673 85.5044 304.169C85.2324 303.657 85.0964 303.045 85.0964 302.333C85.0964 301.797 85.1764 301.321 85.3364 300.905C85.4964 300.481 85.7124 300.121 85.9844 299.825C86.2644 299.521 86.5804 299.293 86.9324 299.141C87.2844 298.981 87.6444 298.901 88.0124 298.901C88.5724 298.901 89.0444 299.025 89.4284 299.273C89.8124 299.521 90.1044 299.877 90.3044 300.341C90.5124 300.797 90.6164 301.337 90.6164 301.961C90.6164 302.081 90.6124 302.193 90.6044 302.297C90.5964 302.401 90.5844 302.497 90.5684 302.585H86.1764C86.2004 303.049 86.3044 303.453 86.4884 303.797C86.6804 304.133 86.9324 304.397 87.2444 304.589C87.5564 304.773 87.9204 304.865 88.3364 304.865C88.6564 304.865 88.9444 304.821 89.2004 304.733C89.4644 304.637 89.7204 304.509 89.9684 304.349L90.3524 305.081C90.0724 305.265 89.7564 305.421 89.4044 305.549C89.0524 305.677 88.6564 305.741 88.2164 305.741ZM86.1644 301.805H89.6564C89.6564 301.149 89.5124 300.649 89.2244 300.305C88.9444 299.953 88.5484 299.777 88.0364 299.777C87.7324 299.777 87.4444 299.857 87.1724 300.017C86.9084 300.177 86.6844 300.405 86.5004 300.701C86.3244 300.997 86.2124 301.365 86.1644 301.805ZM95.089 305.741C94.793 305.741 94.481 305.669 94.153 305.525C93.825 305.381 93.521 305.177 93.241 304.913H93.193L93.097 305.585H92.221V296.033H93.325V298.649L93.277 299.813C93.573 299.557 93.897 299.341 94.249 299.165C94.601 298.989 94.961 298.901 95.329 298.901C95.889 298.901 96.361 299.041 96.745 299.321C97.129 299.593 97.421 299.977 97.621 300.473C97.821 300.969 97.921 301.553 97.921 302.225C97.921 302.961 97.785 303.593 97.513 304.121C97.249 304.649 96.901 305.053 96.469 305.333C96.045 305.605 95.585 305.741 95.089 305.741ZM94.909 304.817C95.269 304.817 95.589 304.717 95.869 304.517C96.157 304.309 96.381 304.013 96.541 303.629C96.701 303.237 96.781 302.773 96.781 302.237C96.781 301.757 96.721 301.337 96.601 300.977C96.489 300.609 96.309 300.325 96.061 300.125C95.813 299.925 95.477 299.825 95.053 299.825C94.781 299.825 94.501 299.901 94.213 300.053C93.925 300.205 93.629 300.425 93.325 300.713V304.145C93.605 304.393 93.885 304.569 94.165 304.673C94.453 304.769 94.701 304.817 94.909 304.817Z" fill="#8F95B2"/>
<path d="M115.54 305.585V296.789H116.872L118.552 301.493C118.664 301.789 118.772 302.093 118.876 302.405C118.98 302.717 119.084 303.025 119.188 303.329H119.236C119.348 303.025 119.452 302.717 119.548 302.405C119.652 302.093 119.752 301.789 119.848 301.493L121.528 296.789H122.86V305.585H121.828V300.713C121.828 300.457 121.836 300.181 121.852 299.885C121.868 299.581 121.888 299.277 121.912 298.973C121.936 298.661 121.956 298.377 121.972 298.121H121.924L121.216 300.125L119.56 304.697H118.816L117.148 300.125L116.44 298.121H116.392C116.424 298.377 116.448 298.661 116.464 298.973C116.488 299.277 116.504 299.581 116.512 299.885C116.528 300.181 116.536 300.457 116.536 300.713V305.585H115.54ZM126.67 305.741C126.31 305.741 125.986 305.669 125.698 305.525C125.41 305.381 125.182 305.173 125.014 304.901C124.854 304.621 124.774 304.285 124.774 303.893C124.774 303.181 125.09 302.637 125.722 302.261C126.362 301.877 127.378 301.609 128.77 301.457C128.77 301.177 128.73 300.913 128.65 300.665C128.578 300.409 128.446 300.205 128.254 300.053C128.062 299.893 127.786 299.813 127.426 299.813C127.05 299.813 126.694 299.889 126.358 300.041C126.03 300.185 125.734 300.341 125.47 300.509L125.05 299.753C125.25 299.625 125.482 299.497 125.746 299.369C126.01 299.233 126.298 299.121 126.61 299.033C126.922 298.945 127.254 298.901 127.606 298.901C128.134 298.901 128.562 299.013 128.89 299.237C129.226 299.461 129.47 299.773 129.622 300.173C129.782 300.565 129.862 301.033 129.862 301.577V305.585H128.962L128.866 304.805H128.83C128.526 305.061 128.19 305.281 127.822 305.465C127.462 305.649 127.078 305.741 126.67 305.741ZM126.982 304.853C127.294 304.853 127.59 304.781 127.87 304.637C128.158 304.493 128.458 304.281 128.77 304.001V302.189C128.042 302.269 127.462 302.385 127.03 302.537C126.598 302.681 126.29 302.861 126.106 303.077C125.922 303.285 125.83 303.533 125.83 303.821C125.83 304.197 125.942 304.465 126.166 304.625C126.39 304.777 126.662 304.853 126.982 304.853ZM131.932 305.585V299.069H132.832L132.94 300.257H132.964C133.188 299.841 133.46 299.513 133.78 299.273C134.108 299.025 134.452 298.901 134.812 298.901C134.964 298.901 135.092 298.913 135.196 298.937C135.308 298.953 135.412 298.989 135.508 299.045L135.304 299.993C135.192 299.961 135.092 299.937 135.004 299.921C134.916 299.897 134.804 299.885 134.668 299.885C134.404 299.885 134.12 300.001 133.816 300.233C133.512 300.457 133.252 300.845 133.036 301.397V305.585H131.932Z" fill="#8F95B2"/>
<path d="M151.86 305.585L154.836 296.789H156.072L159.06 305.585H157.884L156.348 300.665C156.188 300.161 156.036 299.669 155.892 299.189C155.748 298.701 155.604 298.201 155.46 297.689H155.412C155.276 298.201 155.132 298.701 154.98 299.189C154.836 299.669 154.688 300.161 154.536 300.665L152.976 305.585H151.86ZM153.408 302.897V302.021H157.464V302.897H153.408ZM160.217 308.333V299.069H161.117L161.225 299.825H161.249C161.545 299.577 161.869 299.361 162.221 299.177C162.581 298.993 162.949 298.901 163.325 298.901C163.885 298.901 164.357 299.041 164.741 299.321C165.133 299.593 165.425 299.977 165.617 300.473C165.817 300.969 165.917 301.553 165.917 302.225C165.917 302.969 165.781 303.605 165.509 304.133C165.245 304.653 164.897 305.053 164.465 305.333C164.041 305.605 163.581 305.741 163.085 305.741C162.789 305.741 162.489 305.677 162.185 305.549C161.881 305.413 161.581 305.225 161.285 304.985L161.321 306.125V308.333H160.217ZM162.905 304.817C163.265 304.817 163.585 304.717 163.865 304.517C164.153 304.309 164.377 304.013 164.537 303.629C164.697 303.237 164.777 302.773 164.777 302.237C164.777 301.757 164.717 301.337 164.597 300.977C164.485 300.609 164.305 300.325 164.057 300.125C163.809 299.925 163.473 299.825 163.049 299.825C162.777 299.825 162.497 299.901 162.209 300.053C161.929 300.205 161.633 300.425 161.321 300.713V304.145C161.609 304.393 161.893 304.569 162.173 304.673C162.453 304.769 162.697 304.817 162.905 304.817ZM167.659 305.585V299.069H168.559L168.667 300.257H168.691C168.915 299.841 169.187 299.513 169.507 299.273C169.835 299.025 170.179 298.901 170.539 298.901C170.691 298.901 170.819 298.913 170.923 298.937C171.035 298.953 171.139 298.989 171.235 299.045L171.031 299.993C170.919 299.961 170.819 299.937 170.731 299.921C170.643 299.897 170.531 299.885 170.395 299.885C170.131 299.885 169.847 300.001 169.543 300.233C169.239 300.457 168.979 300.845 168.763 301.397V305.585H167.659Z" fill="#8F95B2"/>
<path d="M187.948 305.585V296.789H189.28L190.96 301.493C191.072 301.789 191.18 302.093 191.284 302.405C191.388 302.717 191.492 303.025 191.596 303.329H191.644C191.756 303.025 191.86 302.717 191.956 302.405C192.06 302.093 192.16 301.789 192.256 301.493L193.936 296.789H195.268V305.585H194.236V300.713C194.236 300.457 194.244 300.181 194.26 299.885C194.276 299.581 194.296 299.277 194.32 298.973C194.344 298.661 194.364 298.377 194.38 298.121H194.332L193.624 300.125L191.968 304.697H191.224L189.556 300.125L188.848 298.121H188.8C188.832 298.377 188.856 298.661 188.872 298.973C188.896 299.277 188.912 299.581 188.92 299.885C188.936 300.181 188.944 300.457 188.944 300.713V305.585H187.948ZM199.079 305.741C198.719 305.741 198.395 305.669 198.107 305.525C197.819 305.381 197.591 305.173 197.423 304.901C197.263 304.621 197.183 304.285 197.183 303.893C197.183 303.181 197.499 302.637 198.131 302.261C198.771 301.877 199.787 301.609 201.179 301.457C201.179 301.177 201.139 300.913 201.059 300.665C200.987 300.409 200.855 300.205 200.663 300.053C200.471 299.893 200.195 299.813 199.835 299.813C199.459 299.813 199.103 299.889 198.767 300.041C198.439 300.185 198.143 300.341 197.879 300.509L197.459 299.753C197.659 299.625 197.891 299.497 198.155 299.369C198.419 299.233 198.707 299.121 199.019 299.033C199.331 298.945 199.663 298.901 200.015 298.901C200.543 298.901 200.971 299.013 201.299 299.237C201.635 299.461 201.879 299.773 202.031 300.173C202.191 300.565 202.271 301.033 202.271 301.577V305.585H201.371L201.275 304.805H201.239C200.935 305.061 200.599 305.281 200.231 305.465C199.871 305.649 199.487 305.741 199.079 305.741ZM199.391 304.853C199.703 304.853 199.999 304.781 200.279 304.637C200.567 304.493 200.867 304.281 201.179 304.001V302.189C200.451 302.269 199.871 302.385 199.439 302.537C199.007 302.681 198.699 302.861 198.515 303.077C198.331 303.285 198.239 303.533 198.239 303.821C198.239 304.197 198.351 304.465 198.575 304.625C198.799 304.777 199.071 304.853 199.391 304.853ZM204.448 308.393C204.296 308.393 204.156 308.381 204.028 308.357C203.9 308.333 203.784 308.301 203.68 308.261L203.896 307.385C203.96 307.409 204.036 307.433 204.124 307.457C204.212 307.481 204.304 307.493 204.4 307.493C204.768 307.493 205.068 307.357 205.3 307.085C205.54 306.821 205.728 306.489 205.864 306.089L206.008 305.597L203.392 299.069H204.532L205.852 302.681C205.956 302.969 206.06 303.273 206.164 303.593C206.276 303.913 206.388 304.225 206.5 304.529H206.56C206.648 304.225 206.736 303.917 206.824 303.605C206.92 303.285 207.008 302.977 207.088 302.681L208.264 299.069H209.332L206.884 306.137C206.732 306.561 206.548 306.941 206.332 307.277C206.116 307.621 205.856 307.893 205.552 308.093C205.248 308.293 204.88 308.393 204.448 308.393Z" fill="#8F95B2"/>
<path d="M265.61 305.741C265.05 305.741 264.57 305.625 264.17 305.393C263.778 305.153 263.45 304.805 263.186 304.349L263.978 303.773C264.178 304.133 264.402 304.389 264.65 304.541C264.906 304.693 265.19 304.769 265.502 304.769C265.982 304.769 266.338 304.625 266.57 304.337C266.802 304.041 266.918 303.561 266.918 302.897V296.789H268.034V303.005C268.034 303.509 267.95 303.969 267.782 304.385C267.614 304.801 267.35 305.133 266.99 305.381C266.638 305.621 266.178 305.741 265.61 305.741ZM272.2 305.741C271.512 305.741 271.004 305.525 270.676 305.093C270.356 304.661 270.196 304.029 270.196 303.197V299.069H271.3V303.065C271.3 303.665 271.396 304.105 271.588 304.385C271.78 304.657 272.092 304.793 272.524 304.793C272.86 304.793 273.16 304.705 273.424 304.529C273.688 304.353 273.976 304.073 274.288 303.689V299.069H275.38V305.585H274.468L274.384 304.565H274.348C274.044 304.917 273.72 305.201 273.376 305.417C273.04 305.633 272.648 305.741 272.2 305.741ZM278.733 305.741C278.461 305.741 278.241 305.685 278.073 305.573C277.905 305.461 277.781 305.297 277.701 305.081C277.621 304.857 277.581 304.593 277.581 304.289V296.033H278.685V304.361C278.685 304.529 278.713 304.649 278.769 304.721C278.833 304.793 278.905 304.829 278.985 304.829C279.017 304.829 279.049 304.829 279.081 304.829C279.113 304.821 279.157 304.813 279.213 304.805L279.369 305.645C279.289 305.669 279.201 305.689 279.105 305.705C279.009 305.729 278.885 305.741 278.733 305.741Z" fill="#8F95B2"/>
<path d="M297.351 305.585L300.327 296.789H301.563L304.551 305.585H303.375L301.839 300.665C301.679 300.161 301.527 299.669 301.383 299.189C301.239 298.701 301.095 298.201 300.951 297.689H300.903C300.767 298.201 300.623 298.701 300.471 299.189C300.327 299.669 300.179 300.161 300.027 300.665L298.467 305.585H297.351ZM298.899 302.897V302.021H302.955V302.897H298.899ZM307.51 305.741C306.822 305.741 306.314 305.525 305.986 305.093C305.666 304.661 305.506 304.029 305.506 303.197V299.069H306.61V303.065C306.61 303.665 306.706 304.105 306.898 304.385C307.09 304.657 307.402 304.793 307.834 304.793C308.17 304.793 308.47 304.705 308.734 304.529C308.998 304.353 309.286 304.073 309.598 303.689V299.069H310.69V305.585H309.778L309.694 304.565H309.658C309.354 304.917 309.03 305.201 308.686 305.417C308.35 305.633 307.958 305.741 307.51 305.741ZM315.087 308.585C314.559 308.585 314.091 308.517 313.683 308.381C313.275 308.245 312.959 308.045 312.735 307.781C312.511 307.525 312.399 307.213 312.399 306.845C312.399 306.565 312.483 306.293 312.651 306.029C312.819 305.773 313.055 305.553 313.359 305.369V305.309C313.191 305.205 313.051 305.065 312.939 304.889C312.827 304.713 312.771 304.497 312.771 304.241C312.771 303.969 312.847 303.729 312.999 303.521C313.159 303.313 313.323 303.149 313.491 303.029V302.981C313.275 302.813 313.079 302.577 312.903 302.273C312.727 301.969 312.639 301.621 312.639 301.229C312.639 300.749 312.751 300.337 312.975 299.993C313.199 299.641 313.495 299.373 313.863 299.189C314.239 298.997 314.643 298.901 315.075 298.901C315.267 298.901 315.439 298.917 315.591 298.949C315.751 298.981 315.887 299.021 315.999 299.069H318.267V299.909H316.935C317.095 300.061 317.223 300.253 317.319 300.485C317.415 300.717 317.463 300.973 317.463 301.253C317.463 301.717 317.355 302.121 317.139 302.465C316.931 302.801 316.647 303.061 316.287 303.245C315.927 303.429 315.523 303.521 315.075 303.521C314.923 303.521 314.759 303.501 314.583 303.461C314.415 303.421 314.259 303.365 314.115 303.293C313.995 303.389 313.895 303.497 313.815 303.617C313.735 303.737 313.695 303.889 313.695 304.073C313.695 304.273 313.775 304.441 313.935 304.577C314.095 304.713 314.395 304.781 314.835 304.781H316.119C316.871 304.781 317.435 304.905 317.811 305.153C318.195 305.401 318.387 305.793 318.387 306.329C318.387 306.729 318.251 307.101 317.979 307.445C317.707 307.789 317.323 308.065 316.827 308.273C316.339 308.481 315.759 308.585 315.087 308.585ZM315.075 302.777C315.331 302.777 315.563 302.713 315.771 302.585C315.987 302.457 316.155 302.277 316.275 302.045C316.403 301.813 316.467 301.541 316.467 301.229C316.467 300.909 316.403 300.637 316.275 300.413C316.155 300.181 315.991 300.005 315.783 299.885C315.575 299.765 315.339 299.705 315.075 299.705C314.827 299.705 314.595 299.765 314.379 299.885C314.171 300.005 314.003 300.177 313.875 300.401C313.755 300.625 313.695 300.901 313.695 301.229C313.695 301.541 313.759 301.813 313.887 302.045C314.015 302.277 314.183 302.457 314.391 302.585C314.599 302.713 314.827 302.777 315.075 302.777ZM315.243 307.829C315.659 307.829 316.019 307.765 316.323 307.637C316.635 307.509 316.875 307.341 317.043 307.133C317.219 306.933 317.307 306.725 317.307 306.509C317.307 306.197 317.195 305.981 316.971 305.861C316.747 305.741 316.419 305.681 315.987 305.681H314.859C314.739 305.681 314.603 305.673 314.451 305.657C314.307 305.649 314.163 305.625 314.019 305.585C313.787 305.745 313.619 305.921 313.515 306.113C313.411 306.313 313.359 306.505 313.359 306.689C313.359 307.033 313.523 307.309 313.851 307.517C314.187 307.725 314.651 307.829 315.243 307.829Z" fill="#8F95B2"/>
<path d="M337.568 305.741C336.944 305.741 336.368 305.625 335.84 305.393C335.32 305.161 334.872 304.845 334.496 304.445L335.156 303.677C335.468 304.005 335.836 304.269 336.26 304.469C336.684 304.669 337.124 304.769 337.58 304.769C338.164 304.769 338.616 304.637 338.936 304.373C339.264 304.109 339.428 303.765 339.428 303.341C339.428 303.029 339.36 302.781 339.224 302.597C339.096 302.413 338.92 302.261 338.696 302.141C338.48 302.013 338.232 301.889 337.952 301.769L336.692 301.217C336.42 301.097 336.144 300.945 335.864 300.761C335.592 300.577 335.364 300.337 335.18 300.041C334.996 299.745 334.904 299.385 334.904 298.961C334.904 298.505 335.024 298.105 335.264 297.761C335.504 297.409 335.832 297.133 336.248 296.933C336.664 296.733 337.14 296.633 337.676 296.633C338.204 296.633 338.688 296.733 339.128 296.933C339.576 297.133 339.952 297.393 340.256 297.713L339.68 298.421C339.408 298.173 339.108 297.977 338.78 297.833C338.46 297.681 338.092 297.605 337.676 297.605C337.18 297.605 336.78 297.721 336.476 297.953C336.18 298.177 336.032 298.485 336.032 298.877C336.032 299.165 336.104 299.401 336.248 299.585C336.4 299.769 336.588 299.917 336.812 300.029C337.036 300.141 337.264 300.249 337.496 300.353L338.744 300.893C339.08 301.037 339.384 301.209 339.656 301.409C339.936 301.609 340.156 301.857 340.316 302.153C340.476 302.449 340.556 302.813 340.556 303.245C340.556 303.709 340.436 304.133 340.196 304.517C339.956 304.893 339.612 305.193 339.164 305.417C338.716 305.633 338.184 305.741 337.568 305.741ZM344.813 305.741C344.229 305.741 343.701 305.605 343.229 305.333C342.757 305.061 342.381 304.673 342.101 304.169C341.829 303.657 341.693 303.045 341.693 302.333C341.693 301.797 341.773 301.321 341.933 300.905C342.093 300.481 342.309 300.121 342.581 299.825C342.861 299.521 343.177 299.293 343.529 299.141C343.881 298.981 344.241 298.901 344.609 298.901C345.169 298.901 345.641 299.025 346.025 299.273C346.409 299.521 346.701 299.877 346.901 300.341C347.109 300.797 347.213 301.337 347.213 301.961C347.213 302.081 347.209 302.193 347.201 302.297C347.193 302.401 347.181 302.497 347.165 302.585H342.773C342.797 303.049 342.901 303.453 343.085 303.797C343.277 304.133 343.529 304.397 343.841 304.589C344.153 304.773 344.517 304.865 344.933 304.865C345.253 304.865 345.541 304.821 345.797 304.733C346.061 304.637 346.317 304.509 346.565 304.349L346.949 305.081C346.669 305.265 346.353 305.421 346.001 305.549C345.649 305.677 345.253 305.741 344.813 305.741ZM342.761 301.805H346.253C346.253 301.149 346.109 300.649 345.821 300.305C345.541 299.953 345.145 299.777 344.633 299.777C344.329 299.777 344.041 299.857 343.769 300.017C343.505 300.177 343.281 300.405 343.097 300.701C342.921 300.997 342.809 301.365 342.761 301.805ZM348.817 308.333V299.069H349.717L349.825 299.825H349.849C350.145 299.577 350.469 299.361 350.821 299.177C351.181 298.993 351.549 298.901 351.925 298.901C352.485 298.901 352.957 299.041 353.341 299.321C353.733 299.593 354.025 299.977 354.217 300.473C354.417 300.969 354.517 301.553 354.517 302.225C354.517 302.969 354.381 303.605 354.109 304.133C353.845 304.653 353.497 305.053 353.065 305.333C352.641 305.605 352.181 305.741 351.685 305.741C351.389 305.741 351.089 305.677 350.785 305.549C350.481 305.413 350.181 305.225 349.885 304.985L349.921 306.125V308.333H348.817ZM351.505 304.817C351.865 304.817 352.185 304.717 352.465 304.517C352.753 304.309 352.977 304.013 353.137 303.629C353.297 303.237 353.377 302.773 353.377 302.237C353.377 301.757 353.317 301.337 353.197 300.977C353.085 300.609 352.905 300.325 352.657 300.125C352.409 299.925 352.073 299.825 351.649 299.825C351.377 299.825 351.097 299.901 350.809 300.053C350.529 300.205 350.233 300.425 349.921 300.713V304.145C350.209 304.393 350.493 304.569 350.773 304.673C351.053 304.769 351.297 304.817 351.505 304.817Z" fill="#8F95B2"/>
<path d="M375.904 305.741C375.168 305.741 374.516 305.557 373.948 305.189C373.388 304.813 372.948 304.281 372.628 303.593C372.308 302.905 372.148 302.093 372.148 301.157C372.148 300.213 372.308 299.405 372.628 298.733C372.948 298.053 373.388 297.533 373.948 297.173C374.516 296.813 375.168 296.633 375.904 296.633C376.64 296.633 377.288 296.817 377.848 297.185C378.416 297.545 378.86 298.061 379.18 298.733C379.5 299.405 379.66 300.213 379.66 301.157C379.66 302.093 379.5 302.905 379.18 303.593C378.86 304.281 378.416 304.813 377.848 305.189C377.288 305.557 376.64 305.741 375.904 305.741ZM375.904 304.769C376.432 304.769 376.892 304.621 377.284 304.325C377.676 304.029 377.98 303.609 378.196 303.065C378.412 302.521 378.52 301.885 378.52 301.157C378.52 300.421 378.412 299.789 378.196 299.261C377.98 298.725 377.676 298.317 377.284 298.037C376.892 297.749 376.432 297.605 375.904 297.605C375.384 297.605 374.924 297.749 374.524 298.037C374.132 298.317 373.828 298.725 373.612 299.261C373.396 299.789 373.288 300.421 373.288 301.157C373.288 301.885 373.396 302.521 373.612 303.065C373.828 303.609 374.132 304.029 374.524 304.325C374.924 304.621 375.384 304.769 375.904 304.769ZM384.03 305.741C383.454 305.741 382.934 305.609 382.47 305.345C382.014 305.073 381.65 304.685 381.378 304.181C381.114 303.669 380.982 303.053 380.982 302.333C380.982 301.605 381.126 300.989 381.414 300.485C381.702 299.973 382.086 299.581 382.566 299.309C383.046 299.037 383.562 298.901 384.114 298.901C384.538 298.901 384.902 298.977 385.206 299.129C385.518 299.281 385.786 299.461 386.01 299.669L385.458 300.389C385.274 300.221 385.074 300.085 384.858 299.981C384.65 299.877 384.418 299.825 384.162 299.825C383.77 299.825 383.418 299.929 383.106 300.137C382.794 300.345 382.55 300.637 382.374 301.013C382.198 301.389 382.11 301.829 382.11 302.333C382.11 302.829 382.194 303.265 382.362 303.641C382.538 304.017 382.774 304.309 383.07 304.517C383.374 304.725 383.726 304.829 384.126 304.829C384.43 304.829 384.71 304.769 384.966 304.649C385.222 304.521 385.454 304.365 385.662 304.181L386.142 304.925C385.846 305.181 385.518 305.381 385.158 305.525C384.798 305.669 384.422 305.741 384.03 305.741ZM389.455 305.741C388.999 305.741 388.635 305.653 388.363 305.477C388.091 305.293 387.895 305.037 387.775 304.709C387.663 304.381 387.607 304.001 387.607 303.569V299.957H386.635V299.129L387.667 299.069L387.787 297.233H388.699V299.069H390.475V299.957H388.699V303.605C388.699 303.997 388.771 304.305 388.915 304.529C389.067 304.745 389.331 304.853 389.707 304.853C389.827 304.853 389.955 304.837 390.091 304.805C390.227 304.765 390.347 304.721 390.451 304.673L390.667 305.501C390.483 305.565 390.287 305.621 390.079 305.669C389.871 305.717 389.663 305.741 389.455 305.741Z" fill="#8F95B2"/>
<path d="M407.898 305.585V296.789H409.026L412.242 302.333L413.19 304.145H413.25C413.21 303.705 413.174 303.245 413.142 302.765C413.11 302.285 413.094 301.817 413.094 301.361V296.789H414.15V305.585H413.01L409.806 300.029L408.858 298.229H408.81C408.834 298.669 408.862 299.121 408.894 299.585C408.926 300.041 408.942 300.501 408.942 300.965V305.585H407.898ZM418.994 305.741C418.466 305.741 417.97 305.609 417.506 305.345C417.042 305.073 416.67 304.685 416.39 304.181C416.118 303.669 415.982 303.053 415.982 302.333C415.982 301.605 416.118 300.989 416.39 300.485C416.67 299.973 417.042 299.581 417.506 299.309C417.97 299.037 418.466 298.901 418.994 298.901C419.394 298.901 419.774 298.977 420.134 299.129C420.502 299.281 420.826 299.505 421.106 299.801C421.386 300.097 421.606 300.457 421.766 300.881C421.926 301.305 422.006 301.789 422.006 302.333C422.006 303.053 421.866 303.669 421.586 304.181C421.306 304.685 420.938 305.073 420.482 305.345C420.026 305.609 419.53 305.741 418.994 305.741ZM418.994 304.829C419.37 304.829 419.698 304.725 419.978 304.517C420.266 304.309 420.49 304.017 420.65 303.641C420.81 303.265 420.89 302.829 420.89 302.333C420.89 301.829 420.81 301.389 420.65 301.013C420.49 300.637 420.266 300.345 419.978 300.137C419.698 299.929 419.37 299.825 418.994 299.825C418.618 299.825 418.286 299.929 417.998 300.137C417.718 300.345 417.498 300.637 417.338 301.013C417.186 301.389 417.11 301.829 417.11 302.333C417.11 302.829 417.186 303.265 417.338 303.641C417.498 304.017 417.718 304.309 417.998 304.517C418.286 304.725 418.618 304.829 418.994 304.829ZM425.061 305.585L422.709 299.069H423.849L425.073 302.777C425.177 303.097 425.277 303.421 425.373 303.749C425.477 304.069 425.577 304.385 425.673 304.697H425.733C425.837 304.385 425.937 304.069 426.033 303.749C426.137 303.421 426.237 303.097 426.333 302.777L427.569 299.069H428.649L426.345 305.585H425.061Z" fill="#8F95B2"/>
<path d="M445.055 305.585V296.789H447.251C448.155 296.789 448.915 296.961 449.531 297.305C450.147 297.641 450.611 298.133 450.923 298.781C451.235 299.429 451.391 300.221 451.391 301.157C451.391 302.085 451.235 302.881 450.923 303.545C450.611 304.209 450.151 304.717 449.543 305.069C448.935 305.413 448.187 305.585 447.299 305.585H445.055ZM446.159 304.673H447.155C447.843 304.673 448.415 304.537 448.871 304.265C449.335 303.985 449.679 303.581 449.903 303.053C450.135 302.525 450.251 301.893 450.251 301.157C450.251 300.405 450.135 299.773 449.903 299.261C449.679 298.749 449.335 298.361 448.871 298.097C448.415 297.825 447.843 297.689 447.155 297.689H446.159V304.673ZM455.848 305.741C455.264 305.741 454.736 305.605 454.264 305.333C453.792 305.061 453.416 304.673 453.136 304.169C452.864 303.657 452.728 303.045 452.728 302.333C452.728 301.797 452.808 301.321 452.968 300.905C453.128 300.481 453.344 300.121 453.616 299.825C453.896 299.521 454.212 299.293 454.564 299.141C454.916 298.981 455.276 298.901 455.644 298.901C456.204 298.901 456.676 299.025 457.06 299.273C457.444 299.521 457.736 299.877 457.936 300.341C458.144 300.797 458.248 301.337 458.248 301.961C458.248 302.081 458.244 302.193 458.236 302.297C458.228 302.401 458.216 302.497 458.2 302.585H453.808C453.832 303.049 453.936 303.453 454.12 303.797C454.312 304.133 454.564 304.397 454.876 304.589C455.188 304.773 455.552 304.865 455.968 304.865C456.288 304.865 456.576 304.821 456.832 304.733C457.096 304.637 457.352 304.509 457.6 304.349L457.984 305.081C457.704 305.265 457.388 305.421 457.036 305.549C456.684 305.677 456.288 305.741 455.848 305.741ZM453.796 301.805H457.288C457.288 301.149 457.144 300.649 456.856 300.305C456.576 299.953 456.18 299.777 455.668 299.777C455.364 299.777 455.076 299.857 454.804 300.017C454.54 300.177 454.316 300.405 454.132 300.701C453.956 300.997 453.844 301.365 453.796 301.805ZM462.421 305.741C461.845 305.741 461.325 305.609 460.861 305.345C460.405 305.073 460.041 304.685 459.769 304.181C459.505 303.669 459.373 303.053 459.373 302.333C459.373 301.605 459.517 300.989 459.805 300.485C460.093 299.973 460.477 299.581 460.957 299.309C461.437 299.037 461.953 298.901 462.505 298.901C462.929 298.901 463.293 298.977 463.597 299.129C463.909 299.281 464.177 299.461 464.401 299.669L463.849 300.389C463.665 300.221 463.465 300.085 463.249 299.981C463.041 299.877 462.809 299.825 462.553 299.825C462.161 299.825 461.809 299.929 461.497 300.137C461.185 300.345 460.941 300.637 460.765 301.013C460.589 301.389 460.501 301.829 460.501 302.333C460.501 302.829 460.585 303.265 460.753 303.641C460.929 304.017 461.165 304.309 461.461 304.517C461.765 304.725 462.117 304.829 462.517 304.829C462.821 304.829 463.101 304.769 463.357 304.649C463.613 304.521 463.845 304.365 464.053 304.181L464.533 304.925C464.237 305.181 463.909 305.381 463.549 305.525C463.189 305.669 462.813 305.741 462.421 305.741Z" fill="#8F95B2"/>
<path d="M227.047 305.741C226.487 305.741 226.007 305.625 225.607 305.393C225.215 305.153 224.887 304.805 224.623 304.349L225.415 303.773C225.615 304.133 225.839 304.389 226.087 304.541C226.343 304.693 226.627 304.769 226.939 304.769C227.419 304.769 227.775 304.625 228.007 304.337C228.239 304.041 228.355 303.561 228.355 302.897V296.789H229.471V303.005C229.471 303.509 229.387 303.969 229.219 304.385C229.051 304.801 228.787 305.133 228.427 305.381C228.075 305.621 227.615 305.741 227.047 305.741ZM233.637 305.741C232.949 305.741 232.441 305.525 232.113 305.093C231.793 304.661 231.633 304.029 231.633 303.197V299.069H232.737V303.065C232.737 303.665 232.833 304.105 233.025 304.385C233.217 304.657 233.529 304.793 233.961 304.793C234.297 304.793 234.597 304.705 234.861 304.529C235.125 304.353 235.413 304.073 235.725 303.689V299.069H236.817V305.585H235.905L235.821 304.565H235.785C235.481 304.917 235.157 305.201 234.813 305.417C234.477 305.633 234.085 305.741 233.637 305.741ZM239.018 305.585V299.069H239.918L240.026 300.017H240.05C240.362 299.705 240.69 299.441 241.034 299.225C241.386 299.009 241.786 298.901 242.234 298.901C242.922 298.901 243.426 299.121 243.746 299.561C244.066 299.993 244.226 300.625 244.226 301.457V305.585H243.134V301.601C243.134 300.985 243.034 300.541 242.834 300.269C242.642 299.997 242.33 299.861 241.898 299.861C241.562 299.861 241.262 299.945 240.998 300.113C240.734 300.281 240.442 300.529 240.122 300.857V305.585H239.018Z" fill="#8F95B2"/>
<circle cx="235" cy="163.24" r="4" fill="url(#paint3_linear_37_5361)"/>
<circle cx="235" cy="163.24" r="2" fill="white"/>
<path d="M248 159.507L245.414 162.093C244.633 162.874 244.633 164.14 245.414 164.921L248 167.507V159.507Z" fill="#081735"/>
<rect x="248" y="148.507" width="62" height="30" rx="6" fill="#081735"/>
<path d="M266.281 169.703C268.479 169.703 269.683 168.443 269.683 166.651C269.683 163.515 265.413 163.781 265.413 162.059C265.413 161.289 265.889 160.897 266.715 160.897C267.429 160.897 267.919 161.177 268.493 161.723L269.529 160.533C268.815 159.763 267.947 159.231 266.603 159.231C264.685 159.231 263.453 160.365 263.453 162.157C263.453 165.083 267.709 164.901 267.709 166.805C267.709 167.589 267.247 168.037 266.281 168.037C265.469 168.037 264.741 167.673 263.971 167.071L263.047 168.457C263.901 169.241 265.245 169.703 266.281 169.703ZM265.833 171.257H267.219V168.877H265.833V171.257ZM265.833 159.889H267.219V157.663H265.833V159.889ZM275.35 169.507H277.268V159.413H274.79L270.94 165.587V167.001H278.5V165.419H272.942L274.538 162.885C274.832 162.311 275.112 161.793 275.378 161.247H275.434C275.406 161.849 275.35 162.815 275.35 163.417V169.507ZM281.494 169.507H283.58C283.762 165.573 284.126 163.557 286.478 160.687V159.413H279.604V161.149H284.266C282.334 163.823 281.69 166.035 281.494 169.507ZM288.268 169.507H290.284V167.533L291.39 166.259L293.294 169.507H295.52L292.594 164.901L295.282 161.681H293.014L290.354 165.041H290.284V158.349H288.268V169.507Z" fill="white"/>
<circle cx="379" cy="194.464" r="4" fill="url(#paint4_linear_37_5361)"/>
<circle cx="379" cy="194.464" r="2" fill="white"/>
<path d="M392 190.73L389.414 193.316C388.633 194.097 388.633 195.364 389.414 196.145L392 198.73V190.73Z" fill="#081735"/>
<rect x="392" y="179.73" width="62" height="30" rx="6" fill="#081735"/>
<path d="M410.281 200.926C412.479 200.926 413.683 199.666 413.683 197.874C413.683 194.738 409.413 195.004 409.413 193.282C409.413 192.512 409.889 192.12 410.715 192.12C411.429 192.12 411.919 192.4 412.493 192.946L413.529 191.756C412.815 190.986 411.947 190.454 410.603 190.454C408.685 190.454 407.453 191.588 407.453 193.38C407.453 196.306 411.709 196.124 411.709 198.028C411.709 198.812 411.247 199.26 410.281 199.26C409.469 199.26 408.741 198.896 407.971 198.294L407.047 199.68C407.901 200.464 409.245 200.926 410.281 200.926ZM409.833 202.48H411.219V200.1H409.833V202.48ZM409.833 191.112H411.219V188.886H409.833V191.112ZM415.234 200.73H422.178V198.994H419.91C419.42 198.994 418.734 199.064 418.216 199.12C420.064 197.188 421.702 195.354 421.702 193.604C421.702 191.686 420.386 190.454 418.44 190.454C417.026 190.454 416.088 191 415.136 192.022L416.27 193.142C416.802 192.582 417.404 192.064 418.174 192.064C419.168 192.064 419.714 192.68 419.714 193.702C419.714 195.214 417.936 196.964 415.234 199.554V200.73ZM425.494 200.73H427.58C427.762 196.796 428.126 194.78 430.478 191.91V190.636H423.604V192.372H428.266C426.334 195.046 425.69 197.258 425.494 200.73ZM432.268 200.73H434.284V198.756L435.39 197.482L437.294 200.73H439.52L436.594 196.124L439.282 192.904H437.014L434.354 196.264H434.284V189.572H432.268V200.73Z" fill="white"/>
<circle cx="125" cy="199.342" r="4" fill="url(#paint5_linear_37_5361)"/>
<circle cx="125" cy="199.342" r="2" fill="white"/>
<path d="M138 195.609L135.414 198.195C134.633 198.976 134.633 200.242 135.414 201.023L138 203.609V195.609Z" fill="#081735"/>
<rect x="138" y="184.609" width="62" height="30" rx="6" fill="#081735"/>
<path d="M156.281 205.805C158.479 205.805 159.683 204.545 159.683 202.753C159.683 199.617 155.413 199.883 155.413 198.161C155.413 197.391 155.889 196.999 156.715 196.999C157.429 196.999 157.919 197.279 158.493 197.825L159.529 196.635C158.815 195.865 157.947 195.333 156.603 195.333C154.685 195.333 153.453 196.467 153.453 198.259C153.453 201.185 157.709 201.003 157.709 202.907C157.709 203.691 157.247 204.139 156.281 204.139C155.469 204.139 154.741 203.775 153.971 203.173L153.047 204.559C153.901 205.343 155.245 205.805 156.281 205.805ZM155.833 207.359H157.219V204.979H155.833V207.359ZM155.833 195.991H157.219V193.765H155.833V195.991ZM161.78 205.609H168.024V203.943H166.078V195.515H164.552C163.88 195.921 163.18 196.187 162.13 196.397V197.671H164.02V203.943H161.78V205.609ZM169.492 205.609H176.436V203.873H174.168C173.678 203.873 172.992 203.943 172.474 203.999C174.322 202.067 175.96 200.233 175.96 198.483C175.96 196.565 174.644 195.333 172.698 195.333C171.284 195.333 170.346 195.879 169.394 196.901L170.528 198.021C171.06 197.461 171.662 196.943 172.432 196.943C173.426 196.943 173.972 197.559 173.972 198.581C173.972 200.093 172.194 201.843 169.492 204.433V205.609ZM178.268 205.609H180.284V203.635L181.39 202.361L183.294 205.609H185.52L182.594 201.003L185.282 197.783H183.014L180.354 201.143H180.284V194.451H178.268V205.609Z" fill="white"/>
<rect x="40" y="331.946" width="12" height="11.7089" rx="4" fill="url(#paint6_linear_37_5361)"/>
<path d="M68.9504 342.48V343.308H75.2384V342.48H68.9504ZM68.3864 346.992V347.832H75.7784V346.992H68.3864ZM68.2424 344.832V345.66H75.8624V344.832H68.2424ZM71.5904 340.98V345.264H72.4784V340.98H71.5904ZM73.2704 345.48V350.868C73.2704 351.036 73.2104 351.084 73.0184 351.096C72.8264 351.108 72.1664 351.108 71.4464 351.084C71.5664 351.336 71.6984 351.696 71.7464 351.948C72.6824 351.948 73.2824 351.936 73.6784 351.804C74.0504 351.66 74.1584 351.408 74.1584 350.88V345.48H73.2704ZM69.2984 348.564C69.8504 349.212 70.4624 350.112 70.7144 350.688L71.4824 350.244C71.2184 349.656 70.5944 348.792 70.0304 348.168L69.2984 348.564ZM67.5704 343.596C66.8864 344.844 65.7464 346.08 64.6544 346.872C64.8104 347.076 65.0624 347.556 65.1464 347.748C66.3104 346.8 67.5704 345.348 68.3744 343.92L67.5704 343.596ZM67.3784 340.956C66.8504 341.808 65.7824 342.804 64.8344 343.428C64.9784 343.608 65.2064 343.956 65.3024 344.16C66.3704 343.452 67.5104 342.324 68.2184 341.292L67.3784 340.956ZM66.5264 345.72V351.96H67.3904V344.892L67.3664 344.868L66.5264 345.72ZM78.8504 344.628V345.492H85.8464V344.628H78.8504ZM82.3064 347.46V348.312H86.3504V347.46H82.3064ZM81.8264 345.036V350.988L82.7624 351.108V345.036H81.8264ZM79.0064 346.464C78.7424 348.648 78.0944 350.364 76.7504 351.396C76.9664 351.54 77.3384 351.84 77.4824 351.996C78.8384 350.808 79.5824 348.984 79.9184 346.56L79.0064 346.464ZM79.5704 348L78.8384 348.288C79.8704 351.216 81.8264 351.768 84.6824 351.768H87.4904C87.5384 351.504 87.6944 351.084 87.8384 350.856C87.2504 350.88 85.1744 350.88 84.7304 350.88C82.2944 350.868 80.4224 350.448 79.5704 348ZM77.3024 342.276V344.904H78.1904V343.14H86.4104V344.904H87.3344V342.276H77.3024ZM81.4184 341.1C81.7064 341.58 81.9824 342.216 82.0904 342.612L83.0264 342.324C82.9064 341.916 82.5944 341.304 82.3064 340.848L81.4184 341.1ZM96.6584 346.44C96.6584 348.792 97.6064 350.688 99.0464 352.152L99.7664 351.78C98.3744 350.352 97.5224 348.588 97.5224 346.44C97.5224 344.304 98.3744 342.54 99.7664 341.112L99.0464 340.74C97.6064 342.204 96.6584 344.1 96.6584 346.44ZM101.374 351H106.198V350.088H104.422V342.204H103.582C103.114 342.492 102.55 342.696 101.758 342.828V343.536H103.33V350.088H101.374V351ZM110.311 351.168C111.967 351.168 113.035 349.644 113.035 346.572C113.035 343.524 111.967 342.048 110.311 342.048C108.631 342.048 107.563 343.524 107.563 346.572C107.563 349.644 108.631 351.168 110.311 351.168ZM110.311 350.28C109.303 350.28 108.619 349.164 108.619 346.572C108.619 344.016 109.303 342.924 110.311 342.924C111.307 342.924 111.979 344.016 111.979 346.572C111.979 349.164 111.307 350.28 110.311 350.28ZM116.091 347.592C117.303 347.592 118.095 346.584 118.095 344.808C118.095 343.044 117.303 342.048 116.091 342.048C114.879 342.048 114.087 343.044 114.087 344.808C114.087 346.584 114.879 347.592 116.091 347.592ZM116.091 346.92C115.395 346.92 114.915 346.2 114.915 344.808C114.915 343.404 115.395 342.72 116.091 342.72C116.787 342.72 117.255 343.404 117.255 344.808C117.255 346.2 116.787 346.92 116.091 346.92ZM116.343 351.168H117.087L121.935 342.048H121.191L116.343 351.168ZM122.223 351.168C123.411 351.168 124.215 350.16 124.215 348.372C124.215 346.62 123.411 345.612 122.223 345.612C121.011 345.612 120.219 346.62 120.219 348.372C120.219 350.16 121.011 351.168 122.223 351.168ZM122.223 350.496C121.527 350.496 121.047 349.776 121.047 348.372C121.047 346.968 121.527 346.296 122.223 346.296C122.907 346.296 123.387 346.968 123.387 348.372C123.387 349.776 122.907 350.496 122.223 350.496ZM128.33 346.44C128.33 344.1 127.382 342.204 125.942 340.74L125.222 341.112C126.614 342.54 127.466 344.304 127.466 346.44C127.466 348.588 126.614 350.352 125.222 351.78L125.942 352.152C127.382 350.688 128.33 348.792 128.33 346.44Z" fill="#8F95B2"/>
<rect x="157" y="331.946" width="12" height="11.7089" rx="4" fill="url(#paint7_linear_37_5361)"/>
<path d="M196.004 343.752V349.776C196.004 351.276 196.616 351.624 198.572 351.624C199.016 351.624 202.592 351.624 203.084 351.624C205.064 351.624 205.448 350.976 205.688 348.756C205.412 348.708 205.016 348.552 204.764 348.384C204.608 350.328 204.404 350.736 203.084 350.736C202.28 350.736 199.148 350.736 198.512 350.736C197.192 350.736 196.928 350.556 196.928 349.8V343.752H196.004ZM196.508 345.72V346.62H203.588V345.72H196.508ZM195.38 341.676V342.564H203.228V347.208H204.152V341.676H195.38ZM209.792 346.176V346.932H214.676V346.176H209.792ZM208.256 341.988V342.732H211.976V341.988H208.256ZM212.852 341.988V342.732H217.52V341.988H212.852ZM208.484 340.872C208.1 342.06 207.452 343.236 206.696 344.016C206.912 344.124 207.284 344.364 207.44 344.508C208.16 343.656 208.88 342.372 209.324 341.088L208.484 340.872ZM213.152 340.872C212.828 341.736 212.288 342.588 211.64 343.164C211.856 343.284 212.216 343.512 212.384 343.656C213.008 343.032 213.632 342.06 213.992 341.076L213.152 340.872ZM209.072 342.576C209.384 343.116 209.72 343.848 209.852 344.304L210.656 344.064C210.524 343.608 210.176 342.9 209.852 342.372L209.072 342.576ZM214.112 342.552C214.544 343.092 215 343.848 215.192 344.316L216.032 344.1C215.84 343.608 215.36 342.888 214.904 342.36L214.112 342.552ZM212.648 343.872L212 344.196C213.224 345.432 215.408 346.632 217.244 347.172C217.376 346.944 217.628 346.608 217.832 346.428C215.984 345.972 213.776 344.916 212.648 343.872ZM212.288 343.32C211.076 344.76 208.784 345.948 206.684 346.572C206.888 346.752 207.092 347.064 207.224 347.28C209.384 346.56 211.652 345.264 213.02 343.68L212.288 343.32ZM207.02 350.844V351.648H217.472V350.844H207.02ZM215.36 347.448C214.82 348.696 214.04 350.136 213.296 351.072C213.512 351.168 213.872 351.384 214.052 351.516C214.748 350.532 215.576 349.008 216.176 347.676L215.36 347.448ZM211.34 347.652C211.772 348.432 212.24 349.464 212.408 350.1L213.164 349.788C212.984 349.164 212.504 348.144 212.06 347.388L211.34 347.652ZM208.364 347.988C208.892 348.72 209.456 349.704 209.684 350.328L210.44 349.944C210.2 349.332 209.612 348.384 209.096 347.664L208.364 347.988ZM226.064 342.06H228.092V343.224H226.064V342.06ZM223.232 342.06H225.224V343.224H223.232V342.06ZM220.484 342.06H222.404V343.224H220.484V342.06ZM219.62 341.4V343.884H228.98V341.4H219.62ZM218.936 346.356V347.1H229.616V346.356H218.936ZM220.136 344.724V345.444H227.048V344.724H220.136ZM221.912 349.38V350.004H227.996V349.38H221.912ZM221.888 350.88V351.564H227.984V350.88H221.888ZM228.272 344.292C226.124 346.44 222.332 347.94 218.672 348.732C218.816 348.912 219.044 349.308 219.128 349.5C222.788 348.6 226.64 347.064 228.992 344.748L228.272 344.292ZM223.46 343.884V346.704H224.336V343.884H223.46ZM222.296 347.916H221.972L221.456 348.432V351.948H222.296V348.588H228.068V347.916H222.296ZM227.636 347.916V351.924H228.5V347.916H227.636ZM233.24 344.844V345.684H239.3V344.844H233.24ZM233.024 350.424V351.276H239.456V350.424H233.024ZM232.616 347.124V351.936H233.516V347.94H239.12V351.9H240.068V347.124H232.616ZM236.456 340.896C235.232 342.756 233.024 344.352 230.732 345.252C230.984 345.468 231.236 345.804 231.392 346.044C233.708 345.024 235.916 343.296 237.248 341.292L236.456 340.896ZM236.636 341.592L235.868 341.988C237.464 343.812 239.204 344.952 241.256 345.936C241.388 345.66 241.652 345.324 241.88 345.12C239.864 344.268 238.1 343.212 236.636 341.592ZM245.228 343.656V344.448H251.336V343.656H245.228ZM245.84 345.708V350.4H246.68V345.708H245.84ZM246.296 345.708V346.464H249.848V348.744H246.296V349.524H250.688V345.708H246.296ZM243.308 341.544V351.984H244.184V342.408H252.896V341.544H243.308ZM252.344 341.544V350.82C252.344 351.024 252.272 351.096 252.056 351.108C251.852 351.12 251.144 351.12 250.388 351.096C250.532 351.336 250.676 351.732 250.712 351.972C251.756 351.984 252.356 351.96 252.716 351.804C253.088 351.66 253.232 351.384 253.232 350.82V341.544H252.344ZM257.132 353.364L257.804 353.052C256.772 351.348 256.268 349.32 256.268 347.28C256.268 345.24 256.772 343.212 257.804 341.508L257.132 341.184C256.016 342.984 255.356 344.928 255.356 347.28C255.356 349.644 256.016 351.564 257.132 353.364ZM260.682 351H261.822C261.966 347.568 262.338 345.516 264.402 342.864V342.204H258.906V343.14H263.166C261.438 345.54 260.838 347.676 260.682 351ZM268.311 351.168C269.967 351.168 271.035 349.644 271.035 346.572C271.035 343.524 269.967 342.048 268.311 342.048C266.631 342.048 265.563 343.524 265.563 346.572C265.563 349.644 266.631 351.168 268.311 351.168ZM268.311 350.28C267.303 350.28 266.619 349.164 266.619 346.572C266.619 344.016 267.303 342.924 268.311 342.924C269.307 342.924 269.979 344.016 269.979 346.572C269.979 349.164 269.307 350.28 268.311 350.28ZM274.091 347.592C275.303 347.592 276.095 346.584 276.095 344.808C276.095 343.044 275.303 342.048 274.091 342.048C272.879 342.048 272.087 343.044 272.087 344.808C272.087 346.584 272.879 347.592 274.091 347.592ZM274.091 346.92C273.395 346.92 272.915 346.2 272.915 344.808C272.915 343.404 273.395 342.72 274.091 342.72C274.787 342.72 275.255 343.404 275.255 344.808C275.255 346.2 274.787 346.92 274.091 346.92ZM274.343 351.168H275.087L279.935 342.048H279.191L274.343 351.168ZM280.223 351.168C281.411 351.168 282.215 350.16 282.215 348.372C282.215 346.62 281.411 345.612 280.223 345.612C279.011 345.612 278.219 346.62 278.219 348.372C278.219 350.16 279.011 351.168 280.223 351.168ZM280.223 350.496C279.527 350.496 279.047 349.776 279.047 348.372C279.047 346.968 279.527 346.296 280.223 346.296C280.907 346.296 281.387 346.968 281.387 348.372C281.387 349.776 280.907 350.496 280.223 350.496ZM283.87 353.364C284.974 351.564 285.634 349.644 285.634 347.28C285.634 344.928 284.974 342.984 283.87 341.184L283.186 341.508C284.218 343.212 284.722 345.24 284.722 347.28C284.722 349.32 284.218 351.348 283.186 353.052L283.87 353.364Z" fill="#8F95B2"/>
<rect x="320" y="331.946" width="12" height="11.7089" rx="4" fill="url(#paint8_linear_37_5361)"/>
<path d="M352.294 344.844V345.684H358.354V344.844H352.294ZM352.078 350.424V351.276H358.51V350.424H352.078ZM351.67 347.124V351.936H352.57V347.94H358.174V351.9H359.122V347.124H351.67ZM355.51 340.896C354.286 342.756 352.078 344.352 349.786 345.252C350.038 345.468 350.29 345.804 350.446 346.044C352.762 345.024 354.97 343.296 356.302 341.292L355.51 340.896ZM355.69 341.592L354.922 341.988C356.518 343.812 358.258 344.952 360.31 345.936C360.442 345.66 360.706 345.324 360.934 345.12C358.918 344.268 357.154 343.212 355.69 341.592ZM364.282 343.656V344.448H370.39V343.656H364.282ZM364.894 345.708V350.4H365.734V345.708H364.894ZM365.35 345.708V346.464H368.902V348.744H365.35V349.524H369.742V345.708H365.35ZM362.362 341.544V351.984H363.238V342.408H371.95V341.544H362.362ZM371.398 341.544V350.82C371.398 351.024 371.326 351.096 371.11 351.108C370.906 351.12 370.198 351.12 369.442 351.096C369.586 351.336 369.73 351.732 369.766 351.972C370.81 351.984 371.41 351.96 371.77 351.804C372.142 351.66 372.286 351.384 372.286 350.82V341.544H371.398ZM373.666 347.46L373.834 348.324C374.926 347.976 376.354 347.52 377.71 347.076L377.59 346.26C376.138 346.728 374.65 347.196 373.666 347.46ZM373.81 343.344V344.184H377.59V343.344H373.81ZM375.334 340.932V350.808C375.334 350.988 375.262 351.036 375.118 351.036C374.974 351.048 374.482 351.048 373.954 351.024C374.074 351.288 374.194 351.684 374.23 351.924C375.01 351.924 375.502 351.888 375.802 351.744C376.114 351.6 376.222 351.336 376.222 350.82V340.932H375.334ZM379.402 342.072H382.75V343.62H379.402V342.072ZM378.514 341.388V344.304H383.662V341.388H378.514ZM380.662 346.764V347.952C380.662 348.9 380.386 350.256 377.134 351.144C377.338 351.336 377.578 351.684 377.686 351.9C381.094 350.82 381.538 349.224 381.538 347.964V346.764H380.662ZM381.538 350.124C382.462 350.7 383.698 351.516 384.322 352.008L384.886 351.348C384.25 350.868 382.99 350.088 382.078 349.548L381.538 350.124ZM378.19 345.192V349.548H379.042V345.936H383.17V349.512H384.046V345.192H378.19ZM385.954 346.32V347.232H396.682V346.32H385.954ZM388.15 341.088C387.706 342.732 386.962 344.328 386.026 345.348C386.254 345.456 386.698 345.684 386.89 345.828C387.79 344.736 388.582 343.056 389.086 341.292L388.15 341.088ZM388.03 343.032L387.598 343.932H395.674V343.032H388.03ZM391.846 346.512L391.018 346.716C391.87 349.476 393.538 351.228 396.358 351.972C396.502 351.72 396.766 351.336 396.97 351.144C394.246 350.544 392.578 348.924 391.846 346.512ZM390.79 340.92V344.652C390.79 347.1 390.298 349.68 385.81 351.204C386.002 351.384 386.278 351.756 386.374 351.984C391.162 350.328 391.726 347.424 391.726 344.664V340.92H390.79ZM405.658 346.44C405.658 348.792 406.606 350.688 408.046 352.152L408.766 351.78C407.374 350.352 406.522 348.588 406.522 346.44C406.522 344.304 407.374 342.54 408.766 341.112L408.046 340.74C406.606 342.204 405.658 344.1 405.658 346.44ZM409.846 351H415.366V350.064H412.93C412.486 350.064 411.958 350.1 411.49 350.148C413.566 348.192 414.946 346.404 414.946 344.64C414.946 343.068 413.962 342.048 412.39 342.048C411.274 342.048 410.506 342.564 409.786 343.344L410.422 343.956C410.914 343.38 411.538 342.936 412.258 342.936C413.35 342.936 413.866 343.68 413.866 344.688C413.866 346.188 412.606 347.952 409.846 350.364V351ZM419.311 351.168C420.967 351.168 422.035 349.644 422.035 346.572C422.035 343.524 420.967 342.048 419.311 342.048C417.631 342.048 416.563 343.524 416.563 346.572C416.563 349.644 417.631 351.168 419.311 351.168ZM419.311 350.28C418.303 350.28 417.619 349.164 417.619 346.572C417.619 344.016 418.303 342.924 419.311 342.924C420.307 342.924 420.979 344.016 420.979 346.572C420.979 349.164 420.307 350.28 419.311 350.28ZM425.091 347.592C426.303 347.592 427.095 346.584 427.095 344.808C427.095 343.044 426.303 342.048 425.091 342.048C423.879 342.048 423.087 343.044 423.087 344.808C423.087 346.584 423.879 347.592 425.091 347.592ZM425.091 346.92C424.395 346.92 423.915 346.2 423.915 344.808C423.915 343.404 424.395 342.72 425.091 342.72C425.787 342.72 426.255 343.404 426.255 344.808C426.255 346.2 425.787 346.92 425.091 346.92ZM425.343 351.168H426.087L430.935 342.048H430.191L425.343 351.168ZM431.223 351.168C432.411 351.168 433.215 350.16 433.215 348.372C433.215 346.62 432.411 345.612 431.223 345.612C430.011 345.612 429.219 346.62 429.219 348.372C429.219 350.16 430.011 351.168 431.223 351.168ZM431.223 350.496C430.527 350.496 430.047 349.776 430.047 348.372C430.047 346.968 430.527 346.296 431.223 346.296C431.907 346.296 432.387 346.968 432.387 348.372C432.387 349.776 431.907 350.496 431.223 350.496ZM437.33 346.44C437.33 344.1 436.382 342.204 434.942 340.74L434.222 341.112C435.614 342.54 436.466 344.304 436.466 346.44C436.466 348.588 435.614 350.352 434.222 351.78L434.942 352.152C436.382 350.688 437.33 348.792 437.33 346.44Z" fill="#8F95B2"/>
<g filter="url(#filter1_d_37_5361)">
<g clip-path="url(#clip0_37_5361)">
<rect x="332" y="55" width="150" height="116" rx="8" fill="white"/>
<path d="M357 79.25C358.243 79.25 359.25 78.2426 359.25 77C359.25 75.7574 358.243 74.75 357 74.75C355.757 74.75 354.75 75.7574 354.75 77C354.75 78.2426 355.757 79.25 357 79.25Z" fill="#8F95B2"/>
<path d="M365.404 76.8088C364.742 75.0974 363.594 73.6175 362.1 72.5518C360.607 71.4861 358.833 70.8814 357 70.8125C355.167 70.8814 353.393 71.4861 351.9 72.5518C350.406 73.6175 349.258 75.0974 348.596 76.8088C348.552 76.9323 348.552 77.0677 348.596 77.1912C349.258 78.9026 350.406 80.3825 351.9 81.4482C353.393 82.5139 355.167 83.1186 357 83.1875C358.833 83.1186 360.607 82.5139 362.1 81.4482C363.594 80.3825 364.742 78.9026 365.404 77.1912C365.448 77.0677 365.448 76.9323 365.404 76.8088ZM357 80.6562C356.277 80.6562 355.57 80.4418 354.969 80.0401C354.367 79.6383 353.899 79.0673 353.622 78.3992C353.345 77.7311 353.273 76.9959 353.414 76.2867C353.555 75.5775 353.903 74.926 354.415 74.4146C354.926 73.9033 355.577 73.5551 356.287 73.414C356.996 73.2729 357.731 73.3453 358.399 73.6221C359.067 73.8988 359.638 74.3674 360.04 74.9687C360.442 75.57 360.656 76.2769 360.656 77C360.655 77.9692 360.269 78.8984 359.584 79.5837C358.898 80.2691 357.969 80.6548 357 80.6562Z" fill="#8F95B2"/>
<path d="M382.13 79.962H387.8V81.124H382.13V79.962ZM382.13 78.072H387.8V79.22H382.13V78.072ZM381.094 77.316V81.88H388.878V77.316H381.094ZM378.798 73.032V73.956H391.216V73.032H378.798ZM384.426 71.24V76.882H385.476V71.24H384.426ZM383.824 73.298C382.704 74.866 380.506 76.378 378.49 77.064C378.714 77.274 379.022 77.652 379.176 77.904C381.234 77.092 383.446 75.454 384.706 73.648L383.824 73.298ZM386.05 73.312L385.196 73.648C386.47 75.412 388.71 77.022 390.796 77.806C390.95 77.526 391.258 77.134 391.496 76.938C389.424 76.28 387.184 74.838 386.05 73.312ZM379.022 82.734V83.672H391.02V82.734H379.022ZM395.626 77.47V84.162H396.634V78.31H402.738V84.162H403.788V77.47H395.626ZM392.812 75.622V76.49H405.174V75.622H392.812ZM393.834 73.746V74.586H404.362V73.746H393.834ZM396.312 79.262V80.004H403.186V79.262H396.312ZM396.312 80.998V81.726H403.186V80.998H396.312ZM396.214 82.762V83.602H403.186V82.762H396.214ZM403.55 71.352C401.324 71.814 397.054 72.01 393.638 72.038C393.736 72.262 393.834 72.626 393.862 72.864C397.32 72.85 401.618 72.64 404.222 72.122L403.55 71.352ZM397.81 72.318C397.068 75.412 395.43 78.478 392.462 80.186C392.672 80.382 392.98 80.774 393.12 80.998C396.256 79.136 397.964 75.93 398.902 72.542L397.81 72.318Z" fill="#8F95B2"/>
<path d="M356.25 116H357.75V109.25H360L357 105.5L354 109.25H356.25V116Z" fill="#8F95B2"/>
<path d="M351.75 120.5H362.25C363.077 120.5 363.75 119.827 363.75 119V112.25C363.75 111.423 363.077 110.75 362.25 110.75H359.25V112.25H362.25V119H351.75V112.25H354.75V110.75H351.75C350.923 110.75 350.25 111.423 350.25 112.25V119C350.25 119.827 350.923 120.5 351.75 120.5Z" fill="#8F95B2"/>
<path d="M378.854 114.926V115.92H391.216V114.926H378.854ZM387.058 113.848V118.86C387.058 119.07 386.974 119.14 386.708 119.14C386.442 119.154 385.434 119.168 384.398 119.126C384.538 119.406 384.72 119.798 384.762 120.078C386.12 120.078 386.96 120.078 387.464 119.924C387.968 119.784 388.136 119.49 388.136 118.874V113.848H387.058ZM380.954 116.452C381.822 117.194 382.816 118.258 383.236 118.986L384.02 118.286C383.558 117.572 382.564 116.55 381.682 115.836L380.954 116.452ZM379.89 108.234V111.902C379.89 113.204 380.576 113.498 382.886 113.498C383.418 113.498 387.912 113.498 388.486 113.498C390.25 113.498 390.698 113.148 390.88 111.72C390.572 111.664 390.138 111.538 389.872 111.384C389.746 112.42 389.55 112.616 388.402 112.616C387.422 112.616 383.544 112.616 382.816 112.616C381.262 112.616 380.982 112.476 380.982 111.888V108.234H379.89ZM380.254 110.194V111.132H389.55V107.8H379.89V108.724H388.528V110.194H380.254ZM398.398 107.254V118.748H399.546V107.254H398.398ZM403.382 114.24V120.092H404.53V114.24H403.382ZM394.086 108.514V113.344H403.97V108.514H402.836V112.322H395.178V108.514H394.086ZM393.456 114.24V119.308H403.942V118.258H394.604V114.24H393.456Z" fill="#8F95B2"/>
<path d="M350.25 144.5H363.75" stroke="#FF754C" stroke-width="1.5" stroke-linecap="round" stroke-linejoin="round"/>
<path d="M354 144.5V143C354 142.602 354.158 142.221 354.439 141.939C354.721 141.658 355.102 141.5 355.5 141.5H358.5C358.898 141.5 359.279 141.658 359.561 141.939C359.842 142.221 360 142.602 360 143V144.5M362.25 144.5V155C362.25 155.398 362.092 155.779 361.811 156.061C361.529 156.342 361.148 156.5 360.75 156.5H353.25C352.852 156.5 352.471 156.342 352.189 156.061C351.908 155.779 351.75 155.398 351.75 155V144.5H362.25Z" stroke="#FF754C" stroke-width="1.5" stroke-linecap="round" stroke-linejoin="round"/>
<path d="M355.5 148.25V152.75" stroke="#FF754C" stroke-width="1.5" stroke-linecap="round" stroke-linejoin="round"/>
<path d="M358.5 148.25V152.75" stroke="#FF754C" stroke-width="1.5" stroke-linecap="round" stroke-linejoin="round"/>
<path d="M387.912 144.794V152.704H388.766V144.794H387.912ZM389.956 143.478V154.93C389.956 155.14 389.886 155.196 389.69 155.21C389.508 155.21 388.92 155.21 388.248 155.196C388.388 155.462 388.528 155.882 388.57 156.12C389.466 156.134 390.04 156.106 390.39 155.938C390.726 155.798 390.866 155.504 390.866 154.944V143.478H389.956ZM379.848 143.702V144.626H382.312V143.702H379.848ZM379.498 143.702V150.366C379.498 152.102 379.428 154.188 378.546 155.602C378.756 155.714 379.148 155.98 379.302 156.134C380.254 154.636 380.38 152.228 380.38 150.366V143.702H379.498ZM381.682 143.702V154.832C381.682 155 381.626 155.042 381.486 155.056C381.346 155.056 380.884 155.07 380.394 155.042C380.506 155.294 380.632 155.714 380.66 155.966C381.402 155.966 381.864 155.952 382.172 155.784C382.48 155.63 382.578 155.336 382.578 154.846V143.702H381.682ZM383.88 143.702V144.64H386.344V143.702H383.88ZM383.558 143.702V149.764C383.558 151.612 383.502 154.02 382.704 155.658C382.928 155.742 383.32 155.966 383.474 156.12C384.314 154.398 384.426 151.71 384.426 149.764V143.702H383.558ZM385.728 143.702V154.846C385.728 155 385.686 155.056 385.546 155.056C385.392 155.056 384.944 155.07 384.44 155.042C384.566 155.294 384.678 155.714 384.706 155.966C385.448 155.966 385.91 155.952 386.218 155.784C386.526 155.63 386.624 155.336 386.624 154.846V143.702H385.728ZM378.602 148.7V149.666H387.338V148.7H378.602ZM393.078 143.814V156.092H394.016V144.766H396.34V143.814H393.078ZM396.06 143.814V144.094C395.724 145.046 395.178 146.67 394.632 147.93C395.71 149.05 395.976 150.002 395.99 150.772C395.99 151.206 395.906 151.584 395.668 151.738C395.556 151.836 395.388 151.878 395.206 151.878C394.968 151.892 394.66 151.892 394.324 151.864C394.492 152.13 394.576 152.536 394.576 152.788C394.912 152.802 395.304 152.802 395.584 152.774C395.892 152.732 396.144 152.662 396.354 152.508C396.76 152.214 396.928 151.64 396.928 150.87C396.914 149.988 396.662 148.98 395.57 147.818C396.074 146.712 396.634 145.34 397.068 144.178L396.382 143.772L396.228 143.814H396.06ZM398.496 147.538V148.476H404.026V147.538H398.496ZM397.194 150.184V151.15H405.342V150.184H397.194ZM398.622 151.92C398.16 152.914 397.432 153.978 396.704 154.706C396.928 154.832 397.334 155.126 397.502 155.28C398.216 154.496 399.028 153.306 399.56 152.186L398.622 151.92ZM402.682 152.2C403.438 153.096 404.306 154.342 404.698 155.154L405.524 154.664C405.132 153.88 404.264 152.676 403.48 151.794L402.682 152.2ZM400.862 147.762V154.902C400.862 155.084 400.806 155.154 400.596 155.168C400.386 155.168 399.714 155.168 398.93 155.14C399.084 155.42 399.238 155.84 399.294 156.12C400.302 156.12 400.946 156.106 401.338 155.938C401.744 155.77 401.884 155.49 401.884 154.902V147.762H400.862ZM401.254 143.156C400.316 144.836 398.566 146.446 396.816 147.356C397.068 147.552 397.348 147.874 397.516 148.126C399.336 147.076 401.086 145.368 402.15 143.506L401.254 143.156ZM401.716 143.898L400.89 144.248C402.22 146.04 403.55 147.118 404.922 147.986C405.076 147.706 405.384 147.356 405.636 147.16C404.306 146.418 402.948 145.466 401.716 143.898Z" fill="#FF754C"/>
</g>
<rect x="332.5" y="55.5" width="149" height="115" rx="7.5" stroke="#E6E8F0"/>
</g>
</g>
<defs>
<filter id="filter0_d_37_5361" x="0" y="0" width="520" height="394" filterUnits="userSpaceOnUse" color-interpolation-filters="sRGB">
<feFlood flood-opacity="0" result="BackgroundImageFix"/>
<feColorMatrix in="SourceAlpha" type="matrix" values="0 0 0 0 0 0 0 0 0 0 0 0 0 0 0 0 0 0 127 0" result="hardAlpha"/>
<feOffset dy="8"/>
<feGaussianBlur stdDeviation="8"/>
<feComposite in2="hardAlpha" operator="out"/>
<feColorMatrix type="matrix" values="0 0 0 0 0.560784 0 0 0 0 0.584314 0 0 0 0 0.698039 0 0 0 0.15 0"/>
<feBlend mode="normal" in2="BackgroundImageFix" result="effect1_dropShadow_37_5361"/>
<feBlend mode="normal" in="SourceGraphic" in2="effect1_dropShadow_37_5361" result="shape"/>
</filter>
<filter id="filter1_d_37_5361" x="316" y="47" width="182" height="148" filterUnits="userSpaceOnUse" color-interpolation-filters="sRGB">
<feFlood flood-opacity="0" result="BackgroundImageFix"/>
<feColorMatrix in="SourceAlpha" type="matrix" values="0 0 0 0 0 0 0 0 0 0 0 0 0 0 0 0 0 0 127 0" result="hardAlpha"/>
<feOffset dy="8"/>
<feGaussianBlur stdDeviation="8"/>
<feComposite in2="hardAlpha" operator="out"/>
<feColorMatrix type="matrix" values="0 0 0 0 0.560784 0 0 0 0 0.584314 0 0 0 0 0.698039 0 0 0 0.15 0"/>
<feBlend mode="normal" in2="BackgroundImageFix" result="effect1_dropShadow_37_5361"/>
<feBlend mode="normal" in="SourceGraphic" in2="effect1_dropShadow_37_5361" result="shape"/>
</filter>
<linearGradient id="paint0_linear_37_5361" x1="146.496" y1="216.161" x2="107.036" y2="212.576" gradientUnits="userSpaceOnUse">
<stop stop-color="#0049C6"/>
<stop offset="1" stop-color="#CDF4FF"/>
</linearGradient>
<linearGradient id="paint1_linear_37_5361" x1="223.553" y1="182.206" x2="267.102" y2="191.897" gradientUnits="userSpaceOnUse">
<stop stop-color="#FFB7F5"/>
<stop offset="1" stop-color="#6C5DD3"/>
</linearGradient>
<linearGradient id="paint2_linear_37_5361" x1="381.299" y1="328.469" x2="285.46" y2="268.27" gradientUnits="userSpaceOnUse">
<stop stop-color="#FF754C"/>
<stop offset="1" stop-color="#FFB7F5"/>
</linearGradient>
<linearGradient id="paint3_linear_37_5361" x1="231" y1="159.24" x2="239" y2="167.24" gradientUnits="userSpaceOnUse">
<stop stop-color="#FFB7F5"/>
<stop offset="1" stop-color="#6C5DD3"/>
</linearGradient>
<linearGradient id="paint4_linear_37_5361" x1="379" y1="203.344" x2="369.363" y2="184.423" gradientUnits="userSpaceOnUse">
<stop stop-color="#FF754C"/>
<stop offset="1" stop-color="#FFB7F5"/>
</linearGradient>
<linearGradient id="paint5_linear_37_5361" x1="132.441" y1="194.545" x2="119.323" y2="191.286" gradientUnits="userSpaceOnUse">
<stop stop-color="#0049C6"/>
<stop offset="1" stop-color="#CDF4FF"/>
</linearGradient>
<linearGradient id="paint6_linear_37_5361" x1="57.1618" y1="330.78" x2="37.5424" y2="325.784" gradientUnits="userSpaceOnUse">
<stop stop-color="#0049C6"/>
<stop offset="1" stop-color="#CDF4FF"/>
</linearGradient>
<linearGradient id="paint7_linear_37_5361" x1="157" y1="331.946" x2="168.705" y2="343.942" gradientUnits="userSpaceOnUse">
<stop stop-color="#FFB7F5"/>
<stop offset="1" stop-color="#6C5DD3"/>
</linearGradient>
<linearGradient id="paint8_linear_37_5361" x1="326" y1="350.797" x2="312.101" y2="322.828" gradientUnits="userSpaceOnUse">
<stop stop-color="#FF754C"/>
<stop offset="1" stop-color="#FFB7F5"/>
</linearGradient>
<clipPath id="clip0_37_5361">
<rect x="332" y="55" width="150" height="116" rx="8" fill="white"/>
</clipPath>
</defs>
</svg>
