<svg width="519" height="394" viewBox="0 0 519 394" fill="none" xmlns="http://www.w3.org/2000/svg">
<g filter="url(#filter0_d_37_5361)">
<rect x="16" y="8" width="487" height="362" rx="24" fill="white" shape-rendering="crispEdges"/>
<path d="M51.3268 42.7858L53.5048 43.4158C52.8208 45.0238 51.9268 46.3858 50.8228 47.5018C49.7188 48.6178 48.4288 49.5418 46.9528 50.2738C45.4768 50.9938 43.8448 51.5758 42.0568 52.0198C41.9728 51.8518 41.8528 51.6478 41.6968 51.4078C41.5408 51.1678 41.3788 50.9278 41.2108 50.6878C41.0428 50.4478 40.8868 50.2498 40.7428 50.0938C42.4948 49.7578 44.0668 49.2838 45.4588 48.6718C46.8508 48.0598 48.0448 47.2738 49.0408 46.3138C50.0368 45.3538 50.7988 44.1778 51.3268 42.7858ZM45.2788 39.6718L47.4028 40.4818C46.9828 41.0098 46.4968 41.5318 45.9448 42.0478C45.4048 42.5638 44.8408 43.0498 44.2528 43.5058C43.6768 43.9618 43.1248 44.3578 42.5968 44.6938C42.4648 44.5498 42.2968 44.3758 42.0928 44.1718C41.8888 43.9678 41.6728 43.7698 41.4448 43.5778C41.2288 43.3858 41.0368 43.2298 40.8688 43.1098C41.4208 42.8338 41.9668 42.5158 42.5068 42.1558C43.0588 41.7838 43.5748 41.3878 44.0548 40.9678C44.5348 40.5358 44.9428 40.1038 45.2788 39.6718ZM46.6648 42.8758C47.4568 44.8078 48.7288 46.3738 50.4808 47.5738C52.2448 48.7738 54.4888 49.5778 57.2128 49.9858C57.0688 50.1418 56.9068 50.3338 56.7268 50.5618C56.5588 50.7898 56.4028 51.0238 56.2588 51.2638C56.1148 51.5158 55.9948 51.7378 55.8988 51.9298C53.9788 51.5698 52.3048 51.0238 50.8768 50.2918C49.4608 49.5598 48.2488 48.6298 47.2408 47.5018C46.2448 46.3618 45.4048 45.0178 44.7208 43.4698L46.6648 42.8758ZM41.0128 37.4038H56.8888V39.5098H41.0128V37.4038ZM50.6788 40.7878L52.3708 39.5638C52.8988 39.9238 53.4568 40.3258 54.0448 40.7698C54.6448 41.2138 55.2088 41.6638 55.7368 42.1198C56.2648 42.5638 56.6968 42.9778 57.0328 43.3618L55.1788 44.7838C54.8908 44.4118 54.4948 43.9918 53.9908 43.5238C53.4868 43.0438 52.9408 42.5638 52.3528 42.0838C51.7768 41.6038 51.2188 41.1718 50.6788 40.7878ZM47.1688 35.6218L49.2208 34.9018C49.4608 35.2858 49.7068 35.7118 49.9588 36.1798C50.2228 36.6478 50.4148 37.0498 50.5348 37.3858L48.3568 38.1958C48.2608 37.8598 48.0988 37.4458 47.8708 36.9538C47.6428 36.4618 47.4088 36.0178 47.1688 35.6218ZM63.2248 40.3558V41.4898H70.8028V40.3558H63.2248ZM63.2248 37.6198V38.7358H70.8028V37.6198H63.2248ZM61.1188 35.8918H73.0168V43.2178H61.1188V35.8918ZM62.2168 44.2978H72.7648V46.1878H62.2168V44.2978ZM72.2608 44.2978H74.4568C74.4568 44.2978 74.4508 44.3518 74.4388 44.4598C74.4388 44.5558 74.4328 44.6758 74.4208 44.8198C74.4208 44.9518 74.4088 45.0658 74.3848 45.1618C74.2648 46.4698 74.1328 47.5438 73.9888 48.3838C73.8448 49.2118 73.6948 49.8598 73.5388 50.3278C73.3828 50.7958 73.2028 51.1318 72.9988 51.3358C72.7828 51.5758 72.5548 51.7438 72.3148 51.8398C72.0748 51.9358 71.8108 51.9958 71.5228 52.0198C71.2708 52.0558 70.9408 52.0738 70.5328 52.0738C70.1368 52.0738 69.7168 52.0618 69.2728 52.0378C69.2608 51.7738 69.2008 51.4678 69.0928 51.1198C68.9968 50.7718 68.8708 50.4718 68.7148 50.2198C69.0868 50.2558 69.4348 50.2798 69.7588 50.2918C70.0948 50.2918 70.3408 50.2918 70.4968 50.2918C70.6528 50.2918 70.7788 50.2798 70.8748 50.2558C70.9708 50.2318 71.0668 50.1718 71.1628 50.0758C71.2948 49.9438 71.4268 49.6798 71.5588 49.2838C71.7028 48.8758 71.8288 48.2938 71.9368 47.5378C72.0568 46.7818 72.1648 45.8038 72.2608 44.6038V44.2978ZM63.3328 42.2638L65.4028 42.9298C64.9708 43.6738 64.4548 44.3818 63.8548 45.0538C63.2668 45.7258 62.6428 46.3498 61.9828 46.9258C61.3228 47.4898 60.6568 47.9818 59.9848 48.4018C59.8648 48.2578 59.7028 48.0898 59.4988 47.8978C59.3068 47.6938 59.1088 47.4958 58.9048 47.3038C58.7008 47.1118 58.5148 46.9618 58.3468 46.8538C59.3548 46.3378 60.3028 45.6778 61.1908 44.8738C62.0788 44.0578 62.7928 43.1878 63.3328 42.2638ZM65.0968 44.9638L67.1308 45.5938C66.6988 46.4218 66.1708 47.2138 65.5468 47.9698C64.9348 48.7138 64.2748 49.3978 63.5668 50.0218C62.8588 50.6458 62.1328 51.1858 61.3888 51.6418C61.2808 51.4978 61.1308 51.3238 60.9388 51.1198C60.7468 50.9278 60.5428 50.7358 60.3268 50.5438C60.1228 50.3518 59.9428 50.2018 59.7868 50.0938C60.9028 49.5298 61.9288 48.8038 62.8648 47.9158C63.8128 47.0158 64.5568 46.0318 65.0968 44.9638ZM68.7688 45.0898L70.8208 45.5758C70.3408 46.9318 69.7108 48.1858 68.9308 49.3378C68.1628 50.4778 67.3288 51.4198 66.4288 52.1638C66.3088 52.0438 66.1408 51.8998 65.9248 51.7318C65.7208 51.5638 65.5108 51.3958 65.2948 51.2278C65.0788 51.0598 64.8868 50.9278 64.7188 50.8318C65.6308 50.1958 66.4348 49.3738 67.1308 48.3658C67.8388 47.3458 68.3848 46.2538 68.7688 45.0898ZM76.8328 35.8918H82.5928V37.7638H76.8328V35.8918ZM76.4188 41.8138H83.2588V43.7218H76.4188V41.8138ZM79.1008 42.7138H81.1888V49.7158C81.1888 50.2198 81.1288 50.6218 81.0088 50.9218C80.9008 51.2218 80.6788 51.4558 80.3428 51.6238C80.0068 51.7798 79.6108 51.8818 79.1548 51.9298C78.6988 51.9778 78.1708 52.0018 77.5708 52.0018C77.5228 51.6898 77.4328 51.3358 77.3008 50.9398C77.1808 50.5438 77.0548 50.2078 76.9228 49.9318C77.3068 49.9438 77.6788 49.9498 78.0388 49.9498C78.4108 49.9498 78.6568 49.9498 78.7768 49.9498C78.9088 49.9378 78.9928 49.9138 79.0288 49.8778C79.0768 49.8418 79.1008 49.7758 79.1008 49.6798V42.7138ZM81.9268 35.8918H82.3948L82.7728 35.7838L84.0688 36.6838C83.7808 37.1638 83.4508 37.6558 83.0788 38.1598C82.7068 38.6518 82.3228 39.1258 81.9268 39.5818C81.5308 40.0378 81.1408 40.4338 80.7568 40.7698C80.6248 40.5778 80.4388 40.3558 80.1988 40.1038C79.9588 39.8518 79.7548 39.6598 79.5868 39.5278C79.8748 39.2398 80.1688 38.9038 80.4688 38.5198C80.7808 38.1358 81.0688 37.7458 81.3328 37.3498C81.5968 36.9418 81.7948 36.5818 81.9268 36.2698V35.8918ZM82.6288 41.8138H82.9168L83.2048 41.7598L84.5368 42.0478C84.3448 42.8038 84.1288 43.5718 83.8888 44.3518C83.6608 45.1318 83.4448 45.7918 83.2408 46.3318L81.6388 45.9898C81.7588 45.6658 81.8728 45.2818 81.9808 44.8378C82.1008 44.3818 82.2208 43.9138 82.3408 43.4338C82.4608 42.9538 82.5568 42.4978 82.6288 42.0658V41.8138ZM77.1568 39.9598L78.2908 38.5738C78.7228 38.8138 79.2028 39.0958 79.7308 39.4198C80.2708 39.7318 80.7928 40.0498 81.2968 40.3738C81.8128 40.6858 82.2328 40.9558 82.5568 41.1838L81.3688 42.7858C81.0688 42.5338 80.6728 42.2458 80.1808 41.9218C79.6888 41.5858 79.1728 41.2438 78.6328 40.8958C78.1048 40.5478 77.6128 40.2358 77.1568 39.9598ZM84.1588 35.8198H93.4288V37.7098H84.1588V35.8198ZM87.7588 36.8098L90.1528 37.0978C89.9728 37.6498 89.7928 38.1958 89.6128 38.7358C89.4328 39.2758 89.2648 39.7378 89.1088 40.1218L87.2728 39.7798C87.3808 39.3478 87.4828 38.8558 87.5788 38.3038C87.6748 37.7518 87.7348 37.2538 87.7588 36.8098ZM87.6688 41.8318H89.6848V45.1438C89.6848 45.7318 89.6188 46.3378 89.4868 46.9618C89.3668 47.5858 89.1268 48.1978 88.7668 48.7978C88.4068 49.3858 87.8848 49.9438 87.2008 50.4718C86.5288 51.0118 85.6288 51.4978 84.5008 51.9298C84.3688 51.7138 84.1708 51.4558 83.9068 51.1558C83.6548 50.8558 83.4028 50.6098 83.1508 50.4178C84.1588 50.0818 84.9568 49.6978 85.5448 49.2658C86.1448 48.8338 86.5948 48.3778 86.8948 47.8978C87.2068 47.4178 87.4108 46.9438 87.5068 46.4758C87.6148 45.9958 87.6688 45.5458 87.6688 45.1258V41.8318ZM88.9828 49.2298L90.3688 47.9338C90.7048 48.1978 91.0708 48.4978 91.4668 48.8338C91.8628 49.1578 92.2468 49.4818 92.6188 49.8058C92.9908 50.1178 93.2968 50.3998 93.5368 50.6518L92.0428 52.1098C91.8388 51.8458 91.5568 51.5458 91.1968 51.2098C90.8368 50.8738 90.4588 50.5318 90.0628 50.1838C89.6788 49.8358 89.3188 49.5178 88.9828 49.2298ZM84.7348 39.0058H92.7268V47.6278H90.6208V40.9318H86.7328V47.6998H84.7348V39.0058ZM48.6448 73.0138L49.9408 72.2398C50.2168 72.5158 50.4988 72.8278 50.7868 73.1758C51.0868 73.5118 51.3628 73.8418 51.6148 74.1658C51.8788 74.4898 52.0888 74.7778 52.2448 75.0298L50.8768 75.9118C50.7328 75.6478 50.5348 75.3418 50.2828 74.9938C50.0308 74.6578 49.7608 74.3158 49.4728 73.9678C49.1968 73.6198 48.9208 73.3018 48.6448 73.0138ZM45.4408 60.0718H51.8668V71.8078H50.1748V61.6198H47.0608V71.9158H45.4408V60.0718ZM55.1788 59.4238H56.8708V73.8598C56.8708 74.3398 56.8168 74.7178 56.7088 74.9938C56.6008 75.2698 56.4028 75.4798 56.1148 75.6238C55.8388 75.7678 55.4728 75.8638 55.0168 75.9118C54.5728 75.9598 54.0208 75.9778 53.3608 75.9658C53.3248 75.7258 53.2528 75.4318 53.1448 75.0838C53.0368 74.7478 52.9288 74.4538 52.8208 74.2018C53.2528 74.2138 53.6548 74.2198 54.0268 74.2198C54.4108 74.2198 54.6748 74.2198 54.8188 74.2198C55.0588 74.2198 55.1788 74.0998 55.1788 73.8598V59.4238ZM52.7128 60.7738H54.3508V71.8798H52.7128V60.7738ZM47.7988 62.6098H49.3648V69.5218C49.3648 70.1218 49.3168 70.7278 49.2208 71.3398C49.1248 71.9518 48.9448 72.5518 48.6808 73.1398C48.4288 73.7158 48.0568 74.2498 47.5648 74.7418C47.0728 75.2338 46.4188 75.6658 45.6028 76.0378C45.5548 75.9178 45.4708 75.7678 45.3508 75.5878C45.2428 75.4198 45.1288 75.2518 45.0088 75.0838C44.8888 74.9278 44.7808 74.8078 44.6848 74.7238C45.3928 74.3998 45.9568 74.0458 46.3768 73.6618C46.7968 73.2658 47.1088 72.8458 47.3128 72.4018C47.5168 71.9458 47.6488 71.4718 47.7088 70.9798C47.7688 70.4878 47.7988 69.9958 47.7988 69.5038V62.6098ZM41.1388 60.8458L42.4168 59.2798C42.7288 59.4238 43.0708 59.6038 43.4428 59.8198C43.8268 60.0358 44.1988 60.2518 44.5588 60.4678C44.9188 60.6718 45.2068 60.8638 45.4228 61.0438L44.1088 62.7898C43.9048 62.6098 43.6288 62.4058 43.2808 62.1778C42.9448 61.9378 42.5848 61.7038 42.2008 61.4758C41.8288 61.2478 41.4748 61.0378 41.1388 60.8458ZM40.4548 65.6698L41.6788 64.1038C41.9908 64.2478 42.3328 64.4218 42.7048 64.6258C43.0888 64.8298 43.4548 65.0338 43.8028 65.2378C44.1628 65.4418 44.4628 65.6278 44.7028 65.7958L43.4068 67.5238C43.2028 67.3438 42.9268 67.1458 42.5788 66.9298C42.2308 66.7138 41.8708 66.4918 41.4988 66.2638C41.1268 66.0358 40.7788 65.8378 40.4548 65.6698ZM40.7608 74.7238C40.9888 74.2558 41.2348 73.7038 41.4988 73.0678C41.7748 72.4318 42.0508 71.7598 42.3268 71.0518C42.6028 70.3318 42.8548 69.6238 43.0828 68.9278L44.8288 70.0438C44.6368 70.6918 44.4208 71.3518 44.1808 72.0238C43.9408 72.6838 43.6948 73.3378 43.4428 73.9858C43.2028 74.6218 42.9568 75.2398 42.7048 75.8398L40.7608 74.7238Z" fill="#081735"/>
<ellipse cx="464.679" cy="44.6879" rx="1.59672" ry="1.56119" fill="#8F95B2"/>
<ellipse cx="471.066" cy="44.6879" rx="1.59672" ry="1.56119" fill="#8F95B2"/>
<ellipse cx="477.452" cy="44.6879" rx="1.59672" ry="1.56119" fill="#8F95B2"/>
<line x1="16.998" y1="69.9474" x2="503" y2="69.9474" stroke="#E6E8F0"/>
<path d="M48.8468 123.313C48.0575 123.313 47.2148 123.196 46.3188 122.961C45.4228 122.727 44.5481 122.407 43.6948 122.001C42.8628 121.575 42.1268 121.063 41.4868 120.465L43.5668 117.265C44.4415 117.969 45.3055 118.513 46.1588 118.897C47.0335 119.281 47.9295 119.473 48.8468 119.473C49.9775 119.473 50.7988 119.239 51.3108 118.769C51.8441 118.279 52.1108 117.575 52.1108 116.657C52.1108 116.039 51.9401 115.505 51.5988 115.057C51.2575 114.609 50.7881 114.204 50.1908 113.841C49.6148 113.479 48.9855 113.127 48.3028 112.785C47.6201 112.423 46.9268 112.049 46.2228 111.665C45.5401 111.281 44.9001 110.833 44.3028 110.321C43.7268 109.809 43.2681 109.212 42.9268 108.529C42.5855 107.825 42.4148 106.993 42.4148 106.033C42.4148 104.689 42.7028 103.516 43.2788 102.513C43.8761 101.511 44.7081 100.732 45.7748 100.177C46.8628 99.6226 48.1428 99.3452 49.6148 99.3452C51.1508 99.3452 52.4415 99.6226 53.4868 100.177C54.5535 100.732 55.4921 101.447 56.3028 102.321L53.9348 105.041C53.2735 104.423 52.6335 103.964 52.0148 103.665C51.3961 103.345 50.6708 103.185 49.8388 103.185C48.9001 103.185 48.1748 103.409 47.6628 103.857C47.1508 104.284 46.8948 104.945 46.8948 105.841C46.8948 106.396 47.0655 106.876 47.4068 107.281C47.7695 107.687 48.2388 108.049 48.8148 108.369C49.3908 108.689 50.0201 109.02 50.7028 109.361C51.4068 109.681 52.1001 110.033 52.7828 110.417C53.4868 110.801 54.1268 111.26 54.7028 111.793C55.2788 112.305 55.7375 112.935 56.0788 113.681C56.4415 114.407 56.6228 115.281 56.6228 116.305C56.6228 117.671 56.3241 118.887 55.7268 119.953C55.1508 120.999 54.2761 121.82 53.1028 122.417C51.9508 123.015 50.5321 123.313 48.8468 123.313ZM47.8228 126.833V121.425H50.9908V126.833H47.8228ZM47.8228 100.849V95.7932H50.9908V100.849H47.8228ZM61.4498 122.865V119.025H66.5698V104.081H62.2498V101.137C63.4445 100.924 64.4685 100.668 65.3218 100.369C66.1965 100.049 67.0071 99.6439 67.7538 99.1532H71.2418V119.025H75.6898V122.865H61.4498ZM80.3248 122.865V119.025H85.4448V104.081H81.1248V101.137C82.3195 100.924 83.3435 100.668 84.1968 100.369C85.0715 100.049 85.8821 99.6439 86.6288 99.1532H90.1168V119.025H94.5648V122.865H80.3248ZM97.9518 122.865V120.145C100.106 118.225 101.941 116.444 103.456 114.801C104.992 113.159 106.165 111.633 106.976 110.225C107.786 108.796 108.192 107.473 108.192 106.257C108.192 105.489 108.053 104.817 107.776 104.241C107.498 103.665 107.093 103.228 106.56 102.929C106.048 102.609 105.408 102.449 104.64 102.449C103.786 102.449 102.997 102.695 102.272 103.185C101.568 103.655 100.917 104.22 100.32 104.881L97.6958 102.353C98.8051 101.159 99.9358 100.263 101.088 99.6652C102.261 99.0466 103.648 98.7372 105.248 98.7372C106.741 98.7372 108.042 99.0466 109.152 99.6652C110.282 100.263 111.157 101.105 111.776 102.193C112.394 103.281 112.704 104.561 112.704 106.033C112.704 107.463 112.341 108.924 111.616 110.417C110.912 111.889 109.962 113.361 108.768 114.833C107.573 116.305 106.25 117.756 104.8 119.185C105.418 119.1 106.08 119.036 106.784 118.993C107.509 118.929 108.149 118.897 108.704 118.897H113.824V122.865H97.9518ZM118.139 129.713L117.147 127.153C118.384 126.663 119.333 126.023 119.995 125.233C120.677 124.444 121.019 123.58 121.019 122.641L120.859 119.281L122.523 122.065C122.267 122.3 121.979 122.471 121.659 122.577C121.36 122.684 121.04 122.737 120.699 122.737C119.931 122.737 119.248 122.503 118.651 122.033C118.053 121.543 117.755 120.849 117.755 119.953C117.755 119.121 118.053 118.449 118.651 117.937C119.248 117.425 119.973 117.169 120.827 117.169C121.893 117.169 122.715 117.585 123.291 118.417C123.888 119.228 124.187 120.359 124.187 121.809C124.187 123.687 123.664 125.308 122.619 126.673C121.573 128.039 120.08 129.052 118.139 129.713ZM134.593 123.313C133.356 123.313 132.246 123.164 131.265 122.865C130.284 122.588 129.409 122.204 128.641 121.713C127.894 121.201 127.244 120.636 126.689 120.017L128.897 117.041C129.622 117.703 130.412 118.279 131.265 118.769C132.14 119.239 133.11 119.473 134.177 119.473C134.988 119.473 135.692 119.345 136.289 119.089C136.908 118.833 137.377 118.46 137.697 117.969C138.038 117.479 138.209 116.881 138.209 116.177C138.209 115.388 138.017 114.716 137.633 114.161C137.27 113.585 136.62 113.148 135.681 112.849C134.742 112.551 133.42 112.401 131.713 112.401V109.009C133.164 109.009 134.305 108.86 135.137 108.561C135.969 108.241 136.556 107.815 136.897 107.281C137.26 106.727 137.441 106.097 137.441 105.393C137.441 104.476 137.164 103.761 136.609 103.249C136.054 102.716 135.276 102.449 134.273 102.449C133.441 102.449 132.662 102.641 131.937 103.025C131.233 103.388 130.529 103.889 129.825 104.529L127.393 101.617C128.438 100.743 129.537 100.049 130.689 99.5372C131.841 99.0039 133.11 98.7372 134.497 98.7372C136.012 98.7372 137.345 98.9826 138.497 99.4732C139.67 99.9639 140.577 100.679 141.217 101.617C141.857 102.556 142.177 103.697 142.177 105.041C142.177 106.321 141.836 107.42 141.153 108.337C140.47 109.255 139.5 109.959 138.241 110.449V110.609C139.116 110.844 139.905 111.228 140.609 111.761C141.334 112.273 141.9 112.924 142.305 113.713C142.732 114.503 142.945 115.42 142.945 116.465C142.945 117.895 142.561 119.121 141.793 120.145C141.046 121.169 140.033 121.959 138.753 122.513C137.494 123.047 136.108 123.313 134.593 123.313ZM155.516 122.865V108.305C155.516 107.623 155.537 106.812 155.58 105.873C155.623 104.913 155.665 104.081 155.708 103.377H155.548C155.271 104.017 154.972 104.657 154.652 105.297C154.332 105.937 154.001 106.588 153.66 107.249L149.98 113.137H162.716V116.721H145.404V113.521L154.236 99.1532H159.9V122.865H155.516ZM173.047 123.313C171.447 123.313 170.039 122.855 168.823 121.937C167.628 120.999 166.69 119.612 166.007 117.777C165.346 115.921 165.015 113.628 165.015 110.897C165.015 108.188 165.346 105.937 166.007 104.145C166.69 102.332 167.628 100.977 168.823 100.081C170.039 99.1852 171.447 98.7372 173.047 98.7372C174.668 98.7372 176.076 99.1959 177.271 100.113C178.466 101.009 179.394 102.353 180.055 104.145C180.738 105.937 181.079 108.188 181.079 110.897C181.079 113.628 180.738 115.921 180.055 117.777C179.394 119.612 178.466 120.999 177.271 121.937C176.076 122.855 174.668 123.313 173.047 123.313ZM173.047 119.633C173.751 119.633 174.37 119.367 174.903 118.833C175.436 118.3 175.852 117.404 176.151 116.145C176.45 114.865 176.599 113.116 176.599 110.897C176.599 108.7 176.45 106.983 176.151 105.745C175.852 104.487 175.436 103.612 174.903 103.121C174.37 102.609 173.751 102.353 173.047 102.353C172.386 102.353 171.778 102.609 171.223 103.121C170.69 103.612 170.263 104.487 169.943 105.745C169.623 106.983 169.463 108.7 169.463 110.897C169.463 113.116 169.623 114.865 169.943 116.145C170.263 117.404 170.69 118.3 171.223 118.833C171.778 119.367 172.386 119.633 173.047 119.633Z" fill="#081735"/>
<rect x="40.6031" y="247.9" width="22.8059" height="36.9932" rx="5.22937" fill="#E6E8F0"/>
<rect x="77.1081" y="194.324" width="22.8059" height="90.5696" rx="5.22937" fill="#E6E8F0"/>
<rect x="113.613" y="222.388" width="22.8059" height="62.5057" rx="5.22937" fill="url(#paint0_linear_37_5361)"/>
<rect x="149.725" y="242.178" width="22.9529" height="42.9326" rx="5.22937" fill="#E6E8F0"/>
<rect x="186.623" y="227.49" width="22.8059" height="57.4032" rx="5.22937" fill="#E6E8F0"/>
<rect x="223.128" y="182.206" width="22.8059" height="102.688" rx="5.22937" fill="url(#paint1_linear_37_5361)"/>
<rect x="259.633" y="235.144" width="22.8059" height="49.7495" rx="5.22937" fill="#E6E8F0"/>
<rect x="296.138" y="194.324" width="22.8059" height="90.5696" rx="5.22937" fill="#E6E8F0"/>
<rect x="332.642" y="260.019" width="22.8059" height="24.8747" rx="5.22937" fill="#E6E8F0"/>
<rect x="369.147" y="213.458" width="22.8059" height="71.4352" rx="5.22937" fill="url(#paint2_linear_37_5361)"/>
<rect x="405.652" y="244.711" width="22.8059" height="40.1823" rx="5.22937" fill="#E6E8F0"/>
<rect x="442.157" y="222.388" width="22.8059" height="62.5057" rx="5.22937" fill="#E6E8F0"/>
<path d="M44.2099 305.741C43.6499 305.741 43.1699 305.625 42.7699 305.393C42.3779 305.153 42.0499 304.805 41.7859 304.349L42.5779 303.773C42.7779 304.133 43.0019 304.389 43.2499 304.541C43.5059 304.693 43.7899 304.769 44.1019 304.769C44.5819 304.769 44.9379 304.625 45.1699 304.337C45.4019 304.041 45.5179 303.561 45.5179 302.897V296.789H46.6339V303.005C46.6339 303.509 46.5499 303.969 46.3819 304.385C46.2139 304.801 45.9499 305.133 45.5899 305.381C45.2379 305.621 44.7779 305.741 44.2099 305.741ZM50.3918 305.741C50.0318 305.741 49.7078 305.669 49.4198 305.525C49.1318 305.381 48.9038 305.173 48.7358 304.901C48.5758 304.621 48.4958 304.285 48.4958 303.893C48.4958 303.181 48.8118 302.637 49.4438 302.261C50.0838 301.877 51.0998 301.609 52.4918 301.457C52.4918 301.177 52.4518 300.913 52.3718 300.665C52.2998 300.409 52.1678 300.205 51.9758 300.053C51.7838 299.893 51.5078 299.813 51.1478 299.813C50.7718 299.813 50.4158 299.889 50.0798 300.041C49.7518 300.185 49.4558 300.341 49.1918 300.509L48.7718 299.753C48.9718 299.625 49.2038 299.497 49.4678 299.369C49.7318 299.233 50.0198 299.121 50.3318 299.033C50.6438 298.945 50.9758 298.901 51.3278 298.901C51.8558 298.901 52.2838 299.013 52.6118 299.237C52.9478 299.461 53.1918 299.773 53.3438 300.173C53.5038 300.565 53.5838 301.033 53.5838 301.577V305.585H52.6838L52.5878 304.805H52.5518C52.2478 305.061 51.9118 305.281 51.5438 305.465C51.1838 305.649 50.7998 305.741 50.3918 305.741ZM50.7038 304.853C51.0158 304.853 51.3118 304.781 51.5918 304.637C51.8798 304.493 52.1798 304.281 52.4918 304.001V302.189C51.7638 302.269 51.1838 302.385 50.7518 302.537C50.3198 302.681 50.0118 302.861 49.8278 303.077C49.6438 303.285 49.5518 303.533 49.5518 303.821C49.5518 304.197 49.6638 304.465 49.8878 304.625C50.1118 304.777 50.3838 304.853 50.7038 304.853ZM55.6535 305.585V299.069H56.5535L56.6615 300.017H56.6855C56.9975 299.705 57.3255 299.441 57.6695 299.225C58.0215 299.009 58.4215 298.901 58.8695 298.901C59.5575 298.901 60.0615 299.121 60.3815 299.561C60.7015 299.993 60.8615 300.625 60.8615 301.457V305.585H59.7695V301.601C59.7695 300.985 59.6695 300.541 59.4695 300.269C59.2775 299.997 58.9655 299.861 58.5335 299.861C58.1975 299.861 57.8975 299.945 57.6335 300.113C57.3695 300.281 57.0775 300.529 56.7575 300.857V305.585H55.6535Z" fill="#8F95B2"/>
<path d="M79.1261 305.585V296.789H84.1901V297.725H80.2301V300.701H83.5901V301.637H80.2301V305.585H79.1261ZM88.0683 305.741C87.4843 305.741 86.9563 305.605 86.4843 305.333C86.0123 305.061 85.6363 304.673 85.3563 304.169C85.0843 303.657 84.9483 303.045 84.9483 302.333C84.9483 301.797 85.0283 301.321 85.1883 300.905C85.3483 300.481 85.5643 300.121 85.8363 299.825C86.1163 299.521 86.4323 299.293 86.7843 299.141C87.1363 298.981 87.4963 298.901 87.8643 298.901C88.4243 298.901 88.8963 299.025 89.2803 299.273C89.6643 299.521 89.9563 299.877 90.1563 300.341C90.3643 300.797 90.4683 301.337 90.4683 301.961C90.4683 302.081 90.4643 302.193 90.4563 302.297C90.4483 302.401 90.4363 302.497 90.4203 302.585H86.0283C86.0523 303.049 86.1563 303.453 86.3403 303.797C86.5323 304.133 86.7843 304.397 87.0963 304.589C87.4083 304.773 87.7723 304.865 88.1883 304.865C88.5083 304.865 88.7963 304.821 89.0523 304.733C89.3163 304.637 89.5723 304.509 89.8203 304.349L90.2043 305.081C89.9243 305.265 89.6083 305.421 89.2563 305.549C88.9043 305.677 88.5083 305.741 88.0683 305.741ZM86.0163 301.805H89.5083C89.5083 301.149 89.3643 300.649 89.0763 300.305C88.7963 299.953 88.4003 299.777 87.8883 299.777C87.5843 299.777 87.2963 299.857 87.0243 300.017C86.7603 300.177 86.5363 300.405 86.3523 300.701C86.1763 300.997 86.0643 301.365 86.0163 301.805ZM94.9408 305.741C94.6448 305.741 94.3328 305.669 94.0048 305.525C93.6768 305.381 93.3728 305.177 93.0928 304.913H93.0448L92.9488 305.585H92.0728V296.033H93.1768V298.649L93.1288 299.813C93.4248 299.557 93.7488 299.341 94.1008 299.165C94.4528 298.989 94.8128 298.901 95.1808 298.901C95.7408 298.901 96.2128 299.041 96.5968 299.321C96.9808 299.593 97.2728 299.977 97.4728 300.473C97.6728 300.969 97.7728 301.553 97.7728 302.225C97.7728 302.961 97.6368 303.593 97.3648 304.121C97.1008 304.649 96.7528 305.053 96.3208 305.333C95.8968 305.605 95.4368 305.741 94.9408 305.741ZM94.7608 304.817C95.1208 304.817 95.4408 304.717 95.7208 304.517C96.0088 304.309 96.2328 304.013 96.3928 303.629C96.5528 303.237 96.6328 302.773 96.6328 302.237C96.6328 301.757 96.5728 301.337 96.4528 300.977C96.3408 300.609 96.1608 300.325 95.9128 300.125C95.6648 299.925 95.3288 299.825 94.9048 299.825C94.6328 299.825 94.3528 299.901 94.0648 300.053C93.7768 300.205 93.4808 300.425 93.1768 300.713V304.145C93.4568 304.393 93.7368 304.569 94.0168 304.673C94.3048 304.769 94.5528 304.817 94.7608 304.817Z" fill="#8F95B2"/>
<path d="M115.317 305.585V296.789H116.649L118.329 301.493C118.441 301.789 118.549 302.093 118.653 302.405C118.757 302.717 118.861 303.025 118.965 303.329H119.013C119.125 303.025 119.229 302.717 119.325 302.405C119.429 302.093 119.529 301.789 119.625 301.493L121.305 296.789H122.637V305.585H121.605V300.713C121.605 300.457 121.613 300.181 121.629 299.885C121.645 299.581 121.665 299.277 121.689 298.973C121.713 298.661 121.733 298.377 121.749 298.121H121.701L120.993 300.125L119.337 304.697H118.593L116.925 300.125L116.217 298.121H116.169C116.201 298.377 116.225 298.661 116.241 298.973C116.265 299.277 116.281 299.581 116.289 299.885C116.305 300.181 116.313 300.457 116.313 300.713V305.585H115.317ZM126.447 305.741C126.087 305.741 125.763 305.669 125.475 305.525C125.187 305.381 124.959 305.173 124.791 304.901C124.631 304.621 124.551 304.285 124.551 303.893C124.551 303.181 124.867 302.637 125.499 302.261C126.139 301.877 127.155 301.609 128.547 301.457C128.547 301.177 128.507 300.913 128.427 300.665C128.355 300.409 128.223 300.205 128.031 300.053C127.839 299.893 127.563 299.813 127.203 299.813C126.827 299.813 126.471 299.889 126.135 300.041C125.807 300.185 125.511 300.341 125.247 300.509L124.827 299.753C125.027 299.625 125.259 299.497 125.523 299.369C125.787 299.233 126.075 299.121 126.387 299.033C126.699 298.945 127.031 298.901 127.383 298.901C127.911 298.901 128.339 299.013 128.667 299.237C129.003 299.461 129.247 299.773 129.399 300.173C129.559 300.565 129.639 301.033 129.639 301.577V305.585H128.739L128.643 304.805H128.607C128.303 305.061 127.967 305.281 127.599 305.465C127.239 305.649 126.855 305.741 126.447 305.741ZM126.759 304.853C127.071 304.853 127.367 304.781 127.647 304.637C127.935 304.493 128.235 304.281 128.547 304.001V302.189C127.819 302.269 127.239 302.385 126.807 302.537C126.375 302.681 126.067 302.861 125.883 303.077C125.699 303.285 125.607 303.533 125.607 303.821C125.607 304.197 125.719 304.465 125.943 304.625C126.167 304.777 126.439 304.853 126.759 304.853ZM131.709 305.585V299.069H132.609L132.717 300.257H132.741C132.965 299.841 133.237 299.513 133.557 299.273C133.885 299.025 134.229 298.901 134.589 298.901C134.741 298.901 134.869 298.913 134.973 298.937C135.085 298.953 135.189 298.989 135.285 299.045L135.081 299.993C134.969 299.961 134.869 299.937 134.781 299.921C134.693 299.897 134.581 299.885 134.445 299.885C134.181 299.885 133.897 300.001 133.593 300.233C133.289 300.457 133.029 300.845 132.813 301.397V305.585H131.709Z" fill="#8F95B2"/>
<path d="M151.562 305.585L154.538 296.789H155.774L158.762 305.585H157.586L156.05 300.665C155.89 300.161 155.738 299.669 155.594 299.189C155.45 298.701 155.306 298.201 155.162 297.689H155.114C154.978 298.201 154.834 298.701 154.682 299.189C154.538 299.669 154.39 300.161 154.238 300.665L152.678 305.585H151.562ZM153.11 302.897V302.021H157.166V302.897H153.11ZM159.919 308.333V299.069H160.819L160.927 299.825H160.951C161.247 299.577 161.571 299.361 161.923 299.177C162.283 298.993 162.651 298.901 163.027 298.901C163.587 298.901 164.059 299.041 164.443 299.321C164.835 299.593 165.127 299.977 165.319 300.473C165.519 300.969 165.619 301.553 165.619 302.225C165.619 302.969 165.483 303.605 165.211 304.133C164.947 304.653 164.599 305.053 164.167 305.333C163.743 305.605 163.283 305.741 162.787 305.741C162.491 305.741 162.191 305.677 161.887 305.549C161.583 305.413 161.283 305.225 160.987 304.985L161.023 306.125V308.333H159.919ZM162.607 304.817C162.967 304.817 163.287 304.717 163.567 304.517C163.855 304.309 164.079 304.013 164.239 303.629C164.399 303.237 164.479 302.773 164.479 302.237C164.479 301.757 164.419 301.337 164.299 300.977C164.187 300.609 164.007 300.325 163.759 300.125C163.511 299.925 163.175 299.825 162.751 299.825C162.479 299.825 162.199 299.901 161.911 300.053C161.631 300.205 161.335 300.425 161.023 300.713V304.145C161.311 304.393 161.595 304.569 161.875 304.673C162.155 304.769 162.399 304.817 162.607 304.817ZM167.36 305.585V299.069H168.26L168.368 300.257H168.392C168.616 299.841 168.888 299.513 169.208 299.273C169.536 299.025 169.88 298.901 170.24 298.901C170.392 298.901 170.52 298.913 170.624 298.937C170.736 298.953 170.84 298.989 170.936 299.045L170.732 299.993C170.62 299.961 170.52 299.937 170.432 299.921C170.344 299.897 170.232 299.885 170.096 299.885C169.832 299.885 169.548 300.001 169.244 300.233C168.94 300.457 168.68 300.845 168.464 301.397V305.585H167.36Z" fill="#8F95B2"/>
<path d="M187.575 305.585V296.789H188.907L190.587 301.493C190.699 301.789 190.807 302.093 190.911 302.405C191.015 302.717 191.119 303.025 191.223 303.329H191.271C191.383 303.025 191.487 302.717 191.583 302.405C191.687 302.093 191.787 301.789 191.883 301.493L193.563 296.789H194.895V305.585H193.863V300.713C193.863 300.457 193.871 300.181 193.887 299.885C193.903 299.581 193.923 299.277 193.947 298.973C193.971 298.661 193.991 298.377 194.007 298.121H193.959L193.251 300.125L191.595 304.697H190.851L189.183 300.125L188.475 298.121H188.427C188.459 298.377 188.483 298.661 188.499 298.973C188.523 299.277 188.539 299.581 188.547 299.885C188.563 300.181 188.571 300.457 188.571 300.713V305.585H187.575ZM198.705 305.741C198.345 305.741 198.021 305.669 197.733 305.525C197.445 305.381 197.217 305.173 197.049 304.901C196.889 304.621 196.809 304.285 196.809 303.893C196.809 303.181 197.125 302.637 197.757 302.261C198.397 301.877 199.413 301.609 200.805 301.457C200.805 301.177 200.765 300.913 200.685 300.665C200.613 300.409 200.481 300.205 200.289 300.053C200.097 299.893 199.821 299.813 199.461 299.813C199.085 299.813 198.729 299.889 198.393 300.041C198.065 300.185 197.769 300.341 197.505 300.509L197.085 299.753C197.285 299.625 197.517 299.497 197.781 299.369C198.045 299.233 198.333 299.121 198.645 299.033C198.957 298.945 199.289 298.901 199.641 298.901C200.169 298.901 200.597 299.013 200.925 299.237C201.261 299.461 201.505 299.773 201.657 300.173C201.817 300.565 201.897 301.033 201.897 301.577V305.585H200.997L200.901 304.805H200.865C200.561 305.061 200.225 305.281 199.857 305.465C199.497 305.649 199.113 305.741 198.705 305.741ZM199.017 304.853C199.329 304.853 199.625 304.781 199.905 304.637C200.193 304.493 200.493 304.281 200.805 304.001V302.189C200.077 302.269 199.497 302.385 199.065 302.537C198.633 302.681 198.325 302.861 198.141 303.077C197.957 303.285 197.865 303.533 197.865 303.821C197.865 304.197 197.977 304.465 198.201 304.625C198.425 304.777 198.697 304.853 199.017 304.853ZM204.075 308.393C203.923 308.393 203.783 308.381 203.655 308.357C203.527 308.333 203.411 308.301 203.307 308.261L203.523 307.385C203.587 307.409 203.663 307.433 203.751 307.457C203.839 307.481 203.931 307.493 204.027 307.493C204.395 307.493 204.695 307.357 204.927 307.085C205.167 306.821 205.355 306.489 205.491 306.089L205.635 305.597L203.019 299.069H204.159L205.479 302.681C205.583 302.969 205.687 303.273 205.791 303.593C205.903 303.913 206.015 304.225 206.127 304.529H206.187C206.275 304.225 206.363 303.917 206.451 303.605C206.547 303.285 206.635 302.977 206.715 302.681L207.891 299.069H208.959L206.511 306.137C206.359 306.561 206.175 306.941 205.959 307.277C205.743 307.621 205.483 307.893 205.179 308.093C204.875 308.293 204.507 308.393 204.075 308.393Z" fill="#8F95B2"/>
<path d="M265.087 305.741C264.527 305.741 264.047 305.625 263.647 305.393C263.255 305.153 262.927 304.805 262.663 304.349L263.455 303.773C263.655 304.133 263.879 304.389 264.127 304.541C264.383 304.693 264.667 304.769 264.979 304.769C265.459 304.769 265.815 304.625 266.047 304.337C266.279 304.041 266.395 303.561 266.395 302.897V296.789H267.511V303.005C267.511 303.509 267.427 303.969 267.259 304.385C267.091 304.801 266.827 305.133 266.467 305.381C266.115 305.621 265.655 305.741 265.087 305.741ZM271.677 305.741C270.989 305.741 270.481 305.525 270.153 305.093C269.833 304.661 269.673 304.029 269.673 303.197V299.069H270.777V303.065C270.777 303.665 270.873 304.105 271.065 304.385C271.257 304.657 271.569 304.793 272.001 304.793C272.337 304.793 272.637 304.705 272.901 304.529C273.165 304.353 273.453 304.073 273.765 303.689V299.069H274.857V305.585H273.945L273.861 304.565H273.825C273.521 304.917 273.197 305.201 272.853 305.417C272.517 305.633 272.125 305.741 271.677 305.741ZM278.21 305.741C277.938 305.741 277.718 305.685 277.55 305.573C277.382 305.461 277.258 305.297 277.178 305.081C277.098 304.857 277.058 304.593 277.058 304.289V296.033H278.162V304.361C278.162 304.529 278.19 304.649 278.246 304.721C278.31 304.793 278.382 304.829 278.462 304.829C278.494 304.829 278.526 304.829 278.558 304.829C278.59 304.821 278.634 304.813 278.69 304.805L278.846 305.645C278.766 305.669 278.678 305.689 278.582 305.705C278.486 305.729 278.362 305.741 278.21 305.741Z" fill="#8F95B2"/>
<path d="M296.753 305.585L299.729 296.789H300.965L303.953 305.585H302.777L301.241 300.665C301.081 300.161 300.929 299.669 300.785 299.189C300.641 298.701 300.497 298.201 300.353 297.689H300.305C300.169 298.201 300.025 298.701 299.873 299.189C299.729 299.669 299.581 300.161 299.429 300.665L297.869 305.585H296.753ZM298.301 302.897V302.021H302.357V302.897H298.301ZM306.912 305.741C306.224 305.741 305.716 305.525 305.388 305.093C305.068 304.661 304.908 304.029 304.908 303.197V299.069H306.012V303.065C306.012 303.665 306.108 304.105 306.3 304.385C306.492 304.657 306.804 304.793 307.236 304.793C307.572 304.793 307.872 304.705 308.136 304.529C308.4 304.353 308.688 304.073 309 303.689V299.069H310.092V305.585H309.18L309.096 304.565H309.06C308.756 304.917 308.432 305.201 308.088 305.417C307.752 305.633 307.36 305.741 306.912 305.741ZM314.489 308.585C313.961 308.585 313.493 308.517 313.085 308.381C312.677 308.245 312.361 308.045 312.137 307.781C311.913 307.525 311.801 307.213 311.801 306.845C311.801 306.565 311.885 306.293 312.053 306.029C312.221 305.773 312.457 305.553 312.761 305.369V305.309C312.593 305.205 312.453 305.065 312.341 304.889C312.229 304.713 312.173 304.497 312.173 304.241C312.173 303.969 312.249 303.729 312.401 303.521C312.561 303.313 312.725 303.149 312.893 303.029V302.981C312.677 302.813 312.481 302.577 312.305 302.273C312.129 301.969 312.041 301.621 312.041 301.229C312.041 300.749 312.153 300.337 312.377 299.993C312.601 299.641 312.897 299.373 313.265 299.189C313.641 298.997 314.045 298.901 314.477 298.901C314.669 298.901 314.841 298.917 314.993 298.949C315.153 298.981 315.289 299.021 315.401 299.069H317.669V299.909H316.337C316.497 300.061 316.625 300.253 316.721 300.485C316.817 300.717 316.865 300.973 316.865 301.253C316.865 301.717 316.757 302.121 316.541 302.465C316.333 302.801 316.049 303.061 315.689 303.245C315.329 303.429 314.925 303.521 314.477 303.521C314.325 303.521 314.161 303.501 313.985 303.461C313.817 303.421 313.661 303.365 313.517 303.293C313.397 303.389 313.297 303.497 313.217 303.617C313.137 303.737 313.097 303.889 313.097 304.073C313.097 304.273 313.177 304.441 313.337 304.577C313.497 304.713 313.797 304.781 314.237 304.781H315.521C316.273 304.781 316.837 304.905 317.213 305.153C317.597 305.401 317.789 305.793 317.789 306.329C317.789 306.729 317.653 307.101 317.381 307.445C317.109 307.789 316.725 308.065 316.229 308.273C315.741 308.481 315.161 308.585 314.489 308.585ZM314.477 302.777C314.733 302.777 314.965 302.713 315.173 302.585C315.389 302.457 315.557 302.277 315.677 302.045C315.805 301.813 315.869 301.541 315.869 301.229C315.869 300.909 315.805 300.637 315.677 300.413C315.557 300.181 315.393 300.005 315.185 299.885C314.977 299.765 314.741 299.705 314.477 299.705C314.229 299.705 313.997 299.765 313.781 299.885C313.573 300.005 313.405 300.177 313.277 300.401C313.157 300.625 313.097 300.901 313.097 301.229C313.097 301.541 313.161 301.813 313.289 302.045C313.417 302.277 313.585 302.457 313.793 302.585C314.001 302.713 314.229 302.777 314.477 302.777ZM314.645 307.829C315.061 307.829 315.421 307.765 315.725 307.637C316.037 307.509 316.277 307.341 316.445 307.133C316.621 306.933 316.709 306.725 316.709 306.509C316.709 306.197 316.597 305.981 316.373 305.861C316.149 305.741 315.821 305.681 315.389 305.681H314.261C314.141 305.681 314.005 305.673 313.853 305.657C313.709 305.649 313.565 305.625 313.421 305.585C313.189 305.745 313.021 305.921 312.917 306.113C312.813 306.313 312.761 306.505 312.761 306.689C312.761 307.033 312.925 307.309 313.253 307.517C313.589 307.725 314.053 307.829 314.645 307.829Z" fill="#8F95B2"/>
<path d="M336.895 305.741C336.271 305.741 335.695 305.625 335.167 305.393C334.647 305.161 334.199 304.845 333.823 304.445L334.483 303.677C334.795 304.005 335.163 304.269 335.587 304.469C336.011 304.669 336.451 304.769 336.907 304.769C337.491 304.769 337.943 304.637 338.263 304.373C338.591 304.109 338.755 303.765 338.755 303.341C338.755 303.029 338.687 302.781 338.551 302.597C338.423 302.413 338.247 302.261 338.023 302.141C337.807 302.013 337.559 301.889 337.279 301.769L336.019 301.217C335.747 301.097 335.471 300.945 335.191 300.761C334.919 300.577 334.691 300.337 334.507 300.041C334.323 299.745 334.231 299.385 334.231 298.961C334.231 298.505 334.351 298.105 334.591 297.761C334.831 297.409 335.159 297.133 335.575 296.933C335.991 296.733 336.467 296.633 337.003 296.633C337.531 296.633 338.015 296.733 338.455 296.933C338.903 297.133 339.279 297.393 339.583 297.713L339.007 298.421C338.735 298.173 338.435 297.977 338.107 297.833C337.787 297.681 337.419 297.605 337.003 297.605C336.507 297.605 336.107 297.721 335.803 297.953C335.507 298.177 335.359 298.485 335.359 298.877C335.359 299.165 335.431 299.401 335.575 299.585C335.727 299.769 335.915 299.917 336.139 300.029C336.363 300.141 336.591 300.249 336.823 300.353L338.071 300.893C338.407 301.037 338.711 301.209 338.983 301.409C339.263 301.609 339.483 301.857 339.643 302.153C339.803 302.449 339.883 302.813 339.883 303.245C339.883 303.709 339.763 304.133 339.523 304.517C339.283 304.893 338.939 305.193 338.491 305.417C338.043 305.633 337.511 305.741 336.895 305.741ZM344.14 305.741C343.556 305.741 343.028 305.605 342.556 305.333C342.084 305.061 341.708 304.673 341.428 304.169C341.156 303.657 341.02 303.045 341.02 302.333C341.02 301.797 341.1 301.321 341.26 300.905C341.42 300.481 341.636 300.121 341.908 299.825C342.188 299.521 342.504 299.293 342.856 299.141C343.208 298.981 343.568 298.901 343.936 298.901C344.496 298.901 344.968 299.025 345.352 299.273C345.736 299.521 346.028 299.877 346.228 300.341C346.436 300.797 346.54 301.337 346.54 301.961C346.54 302.081 346.536 302.193 346.528 302.297C346.52 302.401 346.508 302.497 346.492 302.585H342.1C342.124 303.049 342.228 303.453 342.412 303.797C342.604 304.133 342.856 304.397 343.168 304.589C343.48 304.773 343.844 304.865 344.26 304.865C344.58 304.865 344.868 304.821 345.124 304.733C345.388 304.637 345.644 304.509 345.892 304.349L346.276 305.081C345.996 305.265 345.68 305.421 345.328 305.549C344.976 305.677 344.58 305.741 344.14 305.741ZM342.088 301.805H345.58C345.58 301.149 345.436 300.649 345.148 300.305C344.868 299.953 344.472 299.777 343.96 299.777C343.656 299.777 343.368 299.857 343.096 300.017C342.832 300.177 342.608 300.405 342.424 300.701C342.248 300.997 342.136 301.365 342.088 301.805ZM348.144 308.333V299.069H349.044L349.152 299.825H349.176C349.472 299.577 349.796 299.361 350.148 299.177C350.508 298.993 350.876 298.901 351.252 298.901C351.812 298.901 352.284 299.041 352.668 299.321C353.06 299.593 353.352 299.977 353.544 300.473C353.744 300.969 353.844 301.553 353.844 302.225C353.844 302.969 353.708 303.605 353.436 304.133C353.172 304.653 352.824 305.053 352.392 305.333C351.968 305.605 351.508 305.741 351.012 305.741C350.716 305.741 350.416 305.677 350.112 305.549C349.808 305.413 349.508 305.225 349.212 304.985L349.248 306.125V308.333H348.144ZM350.832 304.817C351.192 304.817 351.512 304.717 351.792 304.517C352.08 304.309 352.304 304.013 352.464 303.629C352.624 303.237 352.704 302.773 352.704 302.237C352.704 301.757 352.644 301.337 352.524 300.977C352.412 300.609 352.232 300.325 351.984 300.125C351.736 299.925 351.4 299.825 350.976 299.825C350.704 299.825 350.424 299.901 350.136 300.053C349.856 300.205 349.56 300.425 349.248 300.713V304.145C349.536 304.393 349.82 304.569 350.1 304.673C350.38 304.769 350.624 304.817 350.832 304.817Z" fill="#8F95B2"/>
<path d="M375.156 305.741C374.42 305.741 373.768 305.557 373.2 305.189C372.64 304.813 372.2 304.281 371.88 303.593C371.56 302.905 371.4 302.093 371.4 301.157C371.4 300.213 371.56 299.405 371.88 298.733C372.2 298.053 372.64 297.533 373.2 297.173C373.768 296.813 374.42 296.633 375.156 296.633C375.892 296.633 376.54 296.817 377.1 297.185C377.668 297.545 378.112 298.061 378.432 298.733C378.752 299.405 378.912 300.213 378.912 301.157C378.912 302.093 378.752 302.905 378.432 303.593C378.112 304.281 377.668 304.813 377.1 305.189C376.54 305.557 375.892 305.741 375.156 305.741ZM375.156 304.769C375.684 304.769 376.144 304.621 376.536 304.325C376.928 304.029 377.232 303.609 377.448 303.065C377.664 302.521 377.772 301.885 377.772 301.157C377.772 300.421 377.664 299.789 377.448 299.261C377.232 298.725 376.928 298.317 376.536 298.037C376.144 297.749 375.684 297.605 375.156 297.605C374.636 297.605 374.176 297.749 373.776 298.037C373.384 298.317 373.08 298.725 372.864 299.261C372.648 299.789 372.54 300.421 372.54 301.157C372.54 301.885 372.648 302.521 372.864 303.065C373.08 303.609 373.384 304.029 373.776 304.325C374.176 304.621 374.636 304.769 375.156 304.769ZM383.282 305.741C382.706 305.741 382.186 305.609 381.722 305.345C381.266 305.073 380.902 304.685 380.63 304.181C380.366 303.669 380.234 303.053 380.234 302.333C380.234 301.605 380.378 300.989 380.666 300.485C380.954 299.973 381.338 299.581 381.818 299.309C382.298 299.037 382.814 298.901 383.366 298.901C383.79 298.901 384.154 298.977 384.458 299.129C384.77 299.281 385.038 299.461 385.262 299.669L384.71 300.389C384.526 300.221 384.326 300.085 384.11 299.981C383.902 299.877 383.67 299.825 383.414 299.825C383.022 299.825 382.67 299.929 382.358 300.137C382.046 300.345 381.802 300.637 381.626 301.013C381.45 301.389 381.362 301.829 381.362 302.333C381.362 302.829 381.446 303.265 381.614 303.641C381.79 304.017 382.026 304.309 382.322 304.517C382.626 304.725 382.978 304.829 383.378 304.829C383.682 304.829 383.962 304.769 384.218 304.649C384.474 304.521 384.706 304.365 384.914 304.181L385.394 304.925C385.098 305.181 384.77 305.381 384.41 305.525C384.05 305.669 383.674 305.741 383.282 305.741ZM388.707 305.741C388.251 305.741 387.887 305.653 387.615 305.477C387.343 305.293 387.147 305.037 387.027 304.709C386.915 304.381 386.859 304.001 386.859 303.569V299.957H385.887V299.129L386.919 299.069L387.039 297.233H387.951V299.069H389.727V299.957H387.951V303.605C387.951 303.997 388.023 304.305 388.167 304.529C388.319 304.745 388.583 304.853 388.959 304.853C389.079 304.853 389.207 304.837 389.343 304.805C389.479 304.765 389.599 304.721 389.703 304.673L389.919 305.501C389.735 305.565 389.539 305.621 389.331 305.669C389.123 305.717 388.915 305.741 388.707 305.741Z" fill="#8F95B2"/>
<path d="M407.075 305.585V296.789H408.203L411.419 302.333L412.367 304.145H412.427C412.387 303.705 412.351 303.245 412.319 302.765C412.287 302.285 412.271 301.817 412.271 301.361V296.789H413.327V305.585H412.187L408.983 300.029L408.035 298.229H407.987C408.011 298.669 408.039 299.121 408.071 299.585C408.103 300.041 408.119 300.501 408.119 300.965V305.585H407.075ZM418.171 305.741C417.643 305.741 417.147 305.609 416.683 305.345C416.219 305.073 415.847 304.685 415.567 304.181C415.295 303.669 415.159 303.053 415.159 302.333C415.159 301.605 415.295 300.989 415.567 300.485C415.847 299.973 416.219 299.581 416.683 299.309C417.147 299.037 417.643 298.901 418.171 298.901C418.571 298.901 418.951 298.977 419.311 299.129C419.679 299.281 420.003 299.505 420.283 299.801C420.563 300.097 420.783 300.457 420.943 300.881C421.103 301.305 421.183 301.789 421.183 302.333C421.183 303.053 421.043 303.669 420.763 304.181C420.483 304.685 420.115 305.073 419.659 305.345C419.203 305.609 418.707 305.741 418.171 305.741ZM418.171 304.829C418.547 304.829 418.875 304.725 419.155 304.517C419.443 304.309 419.667 304.017 419.827 303.641C419.987 303.265 420.067 302.829 420.067 302.333C420.067 301.829 419.987 301.389 419.827 301.013C419.667 300.637 419.443 300.345 419.155 300.137C418.875 299.929 418.547 299.825 418.171 299.825C417.795 299.825 417.463 299.929 417.175 300.137C416.895 300.345 416.675 300.637 416.515 301.013C416.363 301.389 416.287 301.829 416.287 302.333C416.287 302.829 416.363 303.265 416.515 303.641C416.675 304.017 416.895 304.309 417.175 304.517C417.463 304.725 417.795 304.829 418.171 304.829ZM424.238 305.585L421.886 299.069H423.026L424.25 302.777C424.354 303.097 424.454 303.421 424.55 303.749C424.654 304.069 424.754 304.385 424.85 304.697H424.91C425.014 304.385 425.114 304.069 425.21 303.749C425.314 303.421 425.414 303.097 425.51 302.777L426.746 299.069H427.826L425.522 305.585H424.238Z" fill="#8F95B2"/>
<path d="M444.156 305.585V296.789H446.352C447.256 296.789 448.016 296.961 448.632 297.305C449.248 297.641 449.712 298.133 450.024 298.781C450.336 299.429 450.492 300.221 450.492 301.157C450.492 302.085 450.336 302.881 450.024 303.545C449.712 304.209 449.252 304.717 448.644 305.069C448.036 305.413 447.288 305.585 446.4 305.585H444.156ZM445.26 304.673H446.256C446.944 304.673 447.516 304.537 447.972 304.265C448.436 303.985 448.78 303.581 449.004 303.053C449.236 302.525 449.352 301.893 449.352 301.157C449.352 300.405 449.236 299.773 449.004 299.261C448.78 298.749 448.436 298.361 447.972 298.097C447.516 297.825 446.944 297.689 446.256 297.689H445.26V304.673ZM454.95 305.741C454.366 305.741 453.838 305.605 453.366 305.333C452.894 305.061 452.518 304.673 452.238 304.169C451.966 303.657 451.83 303.045 451.83 302.333C451.83 301.797 451.91 301.321 452.07 300.905C452.23 300.481 452.446 300.121 452.718 299.825C452.998 299.521 453.314 299.293 453.666 299.141C454.018 298.981 454.378 298.901 454.746 298.901C455.306 298.901 455.778 299.025 456.162 299.273C456.546 299.521 456.838 299.877 457.038 300.341C457.246 300.797 457.35 301.337 457.35 301.961C457.35 302.081 457.346 302.193 457.338 302.297C457.33 302.401 457.318 302.497 457.302 302.585H452.91C452.934 303.049 453.038 303.453 453.222 303.797C453.414 304.133 453.666 304.397 453.978 304.589C454.29 304.773 454.654 304.865 455.07 304.865C455.39 304.865 455.678 304.821 455.934 304.733C456.198 304.637 456.454 304.509 456.702 304.349L457.086 305.081C456.806 305.265 456.49 305.421 456.138 305.549C455.786 305.677 455.39 305.741 454.95 305.741ZM452.898 301.805H456.39C456.39 301.149 456.246 300.649 455.958 300.305C455.678 299.953 455.282 299.777 454.77 299.777C454.466 299.777 454.178 299.857 453.906 300.017C453.642 300.177 453.418 300.405 453.234 300.701C453.058 300.997 452.946 301.365 452.898 301.805ZM461.523 305.741C460.947 305.741 460.427 305.609 459.963 305.345C459.507 305.073 459.143 304.685 458.871 304.181C458.607 303.669 458.475 303.053 458.475 302.333C458.475 301.605 458.619 300.989 458.907 300.485C459.195 299.973 459.579 299.581 460.059 299.309C460.539 299.037 461.055 298.901 461.607 298.901C462.031 298.901 462.395 298.977 462.699 299.129C463.011 299.281 463.279 299.461 463.503 299.669L462.951 300.389C462.767 300.221 462.567 300.085 462.351 299.981C462.143 299.877 461.911 299.825 461.655 299.825C461.263 299.825 460.911 299.929 460.599 300.137C460.287 300.345 460.043 300.637 459.867 301.013C459.691 301.389 459.603 301.829 459.603 302.333C459.603 302.829 459.687 303.265 459.855 303.641C460.031 304.017 460.267 304.309 460.563 304.517C460.867 304.725 461.219 304.829 461.619 304.829C461.923 304.829 462.203 304.769 462.459 304.649C462.715 304.521 462.947 304.365 463.155 304.181L463.635 304.925C463.339 305.181 463.011 305.381 462.651 305.525C462.291 305.669 461.915 305.741 461.523 305.741Z" fill="#8F95B2"/>
<path d="M226.599 305.741C226.039 305.741 225.559 305.625 225.159 305.393C224.767 305.153 224.439 304.805 224.175 304.349L224.967 303.773C225.167 304.133 225.391 304.389 225.639 304.541C225.895 304.693 226.179 304.769 226.491 304.769C226.971 304.769 227.327 304.625 227.559 304.337C227.791 304.041 227.907 303.561 227.907 302.897V296.789H229.023V303.005C229.023 303.509 228.939 303.969 228.771 304.385C228.603 304.801 228.339 305.133 227.979 305.381C227.627 305.621 227.167 305.741 226.599 305.741ZM233.189 305.741C232.501 305.741 231.993 305.525 231.665 305.093C231.345 304.661 231.185 304.029 231.185 303.197V299.069H232.289V303.065C232.289 303.665 232.385 304.105 232.577 304.385C232.769 304.657 233.081 304.793 233.513 304.793C233.849 304.793 234.149 304.705 234.413 304.529C234.677 304.353 234.965 304.073 235.277 303.689V299.069H236.369V305.585H235.457L235.373 304.565H235.337C235.033 304.917 234.709 305.201 234.365 305.417C234.029 305.633 233.637 305.741 233.189 305.741ZM238.57 305.585V299.069H239.47L239.578 300.017H239.602C239.914 299.705 240.242 299.441 240.586 299.225C240.938 299.009 241.338 298.901 241.786 298.901C242.474 298.901 242.978 299.121 243.298 299.561C243.618 299.993 243.778 300.625 243.778 301.457V305.585H242.686V301.601C242.686 300.985 242.586 300.541 242.386 300.269C242.194 299.997 241.882 299.861 241.45 299.861C241.114 299.861 240.814 299.945 240.55 300.113C240.286 300.281 239.994 300.529 239.674 300.857V305.585H238.57Z" fill="#8F95B2"/>
<circle cx="234.559" cy="163.24" r="4" fill="url(#paint3_linear_37_5361)"/>
<circle cx="234.559" cy="163.24" r="2" fill="white"/>
<path d="M247.533 159.507L244.947 162.093C244.166 162.874 244.166 164.14 244.947 164.921L247.533 167.507V159.507Z" fill="#081735"/>
<rect x="247.533" y="148.507" width="62" height="30" rx="6" fill="#081735"/>
<path d="M265.813 169.703C268.011 169.703 269.215 168.443 269.215 166.651C269.215 163.515 264.945 163.781 264.945 162.059C264.945 161.289 265.421 160.897 266.247 160.897C266.961 160.897 267.451 161.177 268.025 161.723L269.061 160.533C268.347 159.763 267.479 159.231 266.135 159.231C264.217 159.231 262.985 160.365 262.985 162.157C262.985 165.083 267.241 164.901 267.241 166.805C267.241 167.589 266.779 168.037 265.813 168.037C265.001 168.037 264.273 167.673 263.503 167.071L262.579 168.457C263.433 169.241 264.777 169.703 265.813 169.703ZM265.365 171.257H266.751V168.877H265.365V171.257ZM265.365 159.889H266.751V157.663H265.365V159.889ZM274.883 169.507H276.801V159.413H274.323L270.473 165.587V167.001H278.033V165.419H272.475L274.071 162.885C274.365 162.311 274.645 161.793 274.911 161.247H274.967C274.939 161.849 274.883 162.815 274.883 163.417V169.507ZM281.027 169.507H283.113C283.295 165.573 283.659 163.557 286.011 160.687V159.413H279.137V161.149H283.799C281.867 163.823 281.223 166.035 281.027 169.507ZM287.801 169.507H289.817V167.533L290.923 166.259L292.827 169.507H295.053L292.127 164.901L294.815 161.681H292.547L289.887 165.041H289.817V158.349H287.801V169.507Z" fill="white"/>
<circle cx="378.264" cy="194.464" r="4" fill="url(#paint4_linear_37_5361)"/>
<circle cx="378.264" cy="194.464" r="2" fill="white"/>
<path d="M391.238 190.73L388.652 193.316C387.871 194.097 387.871 195.364 388.652 196.145L391.238 198.73V190.73Z" fill="#081735"/>
<rect x="391.238" y="179.73" width="62" height="30" rx="6" fill="#081735"/>
<path d="M409.518 200.926C411.716 200.926 412.92 199.666 412.92 197.874C412.92 194.738 408.65 195.004 408.65 193.282C408.65 192.512 409.126 192.12 409.952 192.12C410.666 192.12 411.156 192.4 411.73 192.946L412.766 191.756C412.052 190.986 411.184 190.454 409.84 190.454C407.922 190.454 406.69 191.588 406.69 193.38C406.69 196.306 410.946 196.124 410.946 198.028C410.946 198.812 410.484 199.26 409.518 199.26C408.706 199.26 407.978 198.896 407.208 198.294L406.284 199.68C407.138 200.464 408.482 200.926 409.518 200.926ZM409.07 202.48H410.456V200.1H409.07V202.48ZM409.07 191.112H410.456V188.886H409.07V191.112ZM414.472 200.73H421.416V198.994H419.148C418.658 198.994 417.972 199.064 417.454 199.12C419.302 197.188 420.94 195.354 420.94 193.604C420.94 191.686 419.624 190.454 417.678 190.454C416.264 190.454 415.326 191 414.374 192.022L415.508 193.142C416.04 192.582 416.642 192.064 417.412 192.064C418.406 192.064 418.952 192.68 418.952 193.702C418.952 195.214 417.174 196.964 414.472 199.554V200.73ZM424.732 200.73H426.818C427 196.796 427.364 194.78 429.716 191.91V190.636H422.842V192.372H427.504C425.572 195.046 424.928 197.258 424.732 200.73ZM431.506 200.73H433.522V198.756L434.628 197.482L436.532 200.73H438.758L435.832 196.124L438.52 192.904H436.252L433.592 196.264H433.522V189.572H431.506V200.73Z" fill="white"/>
<circle cx="124.785" cy="199.342" r="4" fill="url(#paint5_linear_37_5361)"/>
<circle cx="124.785" cy="199.342" r="2" fill="white"/>
<path d="M137.758 195.609L135.172 198.195C134.391 198.976 134.391 200.242 135.172 201.023L137.758 203.609V195.609Z" fill="#081735"/>
<rect x="137.758" y="184.609" width="62" height="30" rx="6" fill="#081735"/>
<path d="M156.039 205.805C158.237 205.805 159.441 204.545 159.441 202.753C159.441 199.617 155.171 199.883 155.171 198.161C155.171 197.391 155.647 196.999 156.473 196.999C157.187 196.999 157.677 197.279 158.251 197.825L159.287 196.635C158.573 195.865 157.705 195.333 156.361 195.333C154.443 195.333 153.211 196.467 153.211 198.259C153.211 201.185 157.467 201.003 157.467 202.907C157.467 203.691 157.005 204.139 156.039 204.139C155.227 204.139 154.499 203.775 153.729 203.173L152.805 204.559C153.659 205.343 155.003 205.805 156.039 205.805ZM155.591 207.359H156.977V204.979H155.591V207.359ZM155.591 195.991H156.977V193.765H155.591V195.991ZM161.539 205.609H167.783V203.943H165.837V195.515H164.311C163.639 195.921 162.939 196.187 161.889 196.397V197.671H163.779V203.943H161.539V205.609ZM169.251 205.609H176.195V203.873H173.927C173.437 203.873 172.751 203.943 172.233 203.999C174.081 202.067 175.719 200.233 175.719 198.483C175.719 196.565 174.403 195.333 172.457 195.333C171.043 195.333 170.105 195.879 169.153 196.901L170.287 198.021C170.819 197.461 171.421 196.943 172.191 196.943C173.185 196.943 173.731 197.559 173.731 198.581C173.731 200.093 171.953 201.843 169.251 204.433V205.609ZM178.026 205.609H180.042V203.635L181.148 202.361L183.052 205.609H185.278L182.352 201.003L185.04 197.783H182.772L180.112 201.143H180.042V194.451H178.026V205.609Z" fill="white"/>
<rect x="40" y="331.946" width="12" height="11.7089" rx="4" fill="url(#paint6_linear_37_5361)"/>
<path d="M68.9504 342.48V343.308H75.2384V342.48H68.9504ZM68.3864 346.992V347.832H75.7784V346.992H68.3864ZM68.2424 344.832V345.66H75.8624V344.832H68.2424ZM71.5904 340.98V345.264H72.4784V340.98H71.5904ZM73.2704 345.48V350.868C73.2704 351.036 73.2104 351.084 73.0184 351.096C72.8264 351.108 72.1664 351.108 71.4464 351.084C71.5664 351.336 71.6984 351.696 71.7464 351.948C72.6824 351.948 73.2824 351.936 73.6784 351.804C74.0504 351.66 74.1584 351.408 74.1584 350.88V345.48H73.2704ZM69.2984 348.564C69.8504 349.212 70.4624 350.112 70.7144 350.688L71.4824 350.244C71.2184 349.656 70.5944 348.792 70.0304 348.168L69.2984 348.564ZM67.5704 343.596C66.8864 344.844 65.7464 346.08 64.6544 346.872C64.8104 347.076 65.0624 347.556 65.1464 347.748C66.3104 346.8 67.5704 345.348 68.3744 343.92L67.5704 343.596ZM67.3784 340.956C66.8504 341.808 65.7824 342.804 64.8344 343.428C64.9784 343.608 65.2064 343.956 65.3024 344.16C66.3704 343.452 67.5104 342.324 68.2184 341.292L67.3784 340.956ZM66.5264 345.72V351.96H67.3904V344.892L67.3664 344.868L66.5264 345.72ZM78.8504 344.628V345.492H85.8464V344.628H78.8504ZM82.3064 347.46V348.312H86.3504V347.46H82.3064ZM81.8264 345.036V350.988L82.7624 351.108V345.036H81.8264ZM79.0064 346.464C78.7424 348.648 78.0944 350.364 76.7504 351.396C76.9664 351.54 77.3384 351.84 77.4824 351.996C78.8384 350.808 79.5824 348.984 79.9184 346.56L79.0064 346.464ZM79.5704 348L78.8384 348.288C79.8704 351.216 81.8264 351.768 84.6824 351.768H87.4904C87.5384 351.504 87.6944 351.084 87.8384 350.856C87.2504 350.88 85.1744 350.88 84.7304 350.88C82.2944 350.868 80.4224 350.448 79.5704 348ZM77.3024 342.276V344.904H78.1904V343.14H86.4104V344.904H87.3344V342.276H77.3024ZM81.4184 341.1C81.7064 341.58 81.9824 342.216 82.0904 342.612L83.0264 342.324C82.9064 341.916 82.5944 341.304 82.3064 340.848L81.4184 341.1ZM96.6584 346.44C96.6584 348.792 97.6064 350.688 99.0464 352.152L99.7664 351.78C98.3744 350.352 97.5224 348.588 97.5224 346.44C97.5224 344.304 98.3744 342.54 99.7664 341.112L99.0464 340.74C97.6064 342.204 96.6584 344.1 96.6584 346.44ZM101.374 351H106.198V350.088H104.422V342.204H103.582C103.114 342.492 102.55 342.696 101.758 342.828V343.536H103.33V350.088H101.374V351ZM110.311 351.168C111.967 351.168 113.035 349.644 113.035 346.572C113.035 343.524 111.967 342.048 110.311 342.048C108.631 342.048 107.563 343.524 107.563 346.572C107.563 349.644 108.631 351.168 110.311 351.168ZM110.311 350.28C109.303 350.28 108.619 349.164 108.619 346.572C108.619 344.016 109.303 342.924 110.311 342.924C111.307 342.924 111.979 344.016 111.979 346.572C111.979 349.164 111.307 350.28 110.311 350.28ZM116.091 347.592C117.303 347.592 118.095 346.584 118.095 344.808C118.095 343.044 117.303 342.048 116.091 342.048C114.879 342.048 114.087 343.044 114.087 344.808C114.087 346.584 114.879 347.592 116.091 347.592ZM116.091 346.92C115.395 346.92 114.915 346.2 114.915 344.808C114.915 343.404 115.395 342.72 116.091 342.72C116.787 342.72 117.255 343.404 117.255 344.808C117.255 346.2 116.787 346.92 116.091 346.92ZM116.343 351.168H117.087L121.935 342.048H121.191L116.343 351.168ZM122.223 351.168C123.411 351.168 124.215 350.16 124.215 348.372C124.215 346.62 123.411 345.612 122.223 345.612C121.011 345.612 120.219 346.62 120.219 348.372C120.219 350.16 121.011 351.168 122.223 351.168ZM122.223 350.496C121.527 350.496 121.047 349.776 121.047 348.372C121.047 346.968 121.527 346.296 122.223 346.296C122.907 346.296 123.387 346.968 123.387 348.372C123.387 349.776 122.907 350.496 122.223 350.496ZM128.33 346.44C128.33 344.1 127.382 342.204 125.942 340.74L125.222 341.112C126.614 342.54 127.466 344.304 127.466 346.44C127.466 348.588 126.614 350.352 125.222 351.78L125.942 352.152C127.382 350.688 128.33 348.792 128.33 346.44Z" fill="#8F95B2"/>
<rect x="157" y="331.946" width="12" height="11.7089" rx="4" fill="url(#paint7_linear_37_5361)"/>
<path d="M196.004 343.752V349.776C196.004 351.276 196.616 351.624 198.572 351.624C199.016 351.624 202.592 351.624 203.084 351.624C205.064 351.624 205.448 350.976 205.688 348.756C205.412 348.708 205.016 348.552 204.764 348.384C204.608 350.328 204.404 350.736 203.084 350.736C202.28 350.736 199.148 350.736 198.512 350.736C197.192 350.736 196.928 350.556 196.928 349.8V343.752H196.004ZM196.508 345.72V346.62H203.588V345.72H196.508ZM195.38 341.676V342.564H203.228V347.208H204.152V341.676H195.38ZM209.792 346.176V346.932H214.676V346.176H209.792ZM208.256 341.988V342.732H211.976V341.988H208.256ZM212.852 341.988V342.732H217.52V341.988H212.852ZM208.484 340.872C208.1 342.06 207.452 343.236 206.696 344.016C206.912 344.124 207.284 344.364 207.44 344.508C208.16 343.656 208.88 342.372 209.324 341.088L208.484 340.872ZM213.152 340.872C212.828 341.736 212.288 342.588 211.64 343.164C211.856 343.284 212.216 343.512 212.384 343.656C213.008 343.032 213.632 342.06 213.992 341.076L213.152 340.872ZM209.072 342.576C209.384 343.116 209.72 343.848 209.852 344.304L210.656 344.064C210.524 343.608 210.176 342.9 209.852 342.372L209.072 342.576ZM214.112 342.552C214.544 343.092 215 343.848 215.192 344.316L216.032 344.1C215.84 343.608 215.36 342.888 214.904 342.36L214.112 342.552ZM212.648 343.872L212 344.196C213.224 345.432 215.408 346.632 217.244 347.172C217.376 346.944 217.628 346.608 217.832 346.428C215.984 345.972 213.776 344.916 212.648 343.872ZM212.288 343.32C211.076 344.76 208.784 345.948 206.684 346.572C206.888 346.752 207.092 347.064 207.224 347.28C209.384 346.56 211.652 345.264 213.02 343.68L212.288 343.32ZM207.02 350.844V351.648H217.472V350.844H207.02ZM215.36 347.448C214.82 348.696 214.04 350.136 213.296 351.072C213.512 351.168 213.872 351.384 214.052 351.516C214.748 350.532 215.576 349.008 216.176 347.676L215.36 347.448ZM211.34 347.652C211.772 348.432 212.24 349.464 212.408 350.1L213.164 349.788C212.984 349.164 212.504 348.144 212.06 347.388L211.34 347.652ZM208.364 347.988C208.892 348.72 209.456 349.704 209.684 350.328L210.44 349.944C210.2 349.332 209.612 348.384 209.096 347.664L208.364 347.988ZM226.064 342.06H228.092V343.224H226.064V342.06ZM223.232 342.06H225.224V343.224H223.232V342.06ZM220.484 342.06H222.404V343.224H220.484V342.06ZM219.62 341.4V343.884H228.98V341.4H219.62ZM218.936 346.356V347.1H229.616V346.356H218.936ZM220.136 344.724V345.444H227.048V344.724H220.136ZM221.912 349.38V350.004H227.996V349.38H221.912ZM221.888 350.88V351.564H227.984V350.88H221.888ZM228.272 344.292C226.124 346.44 222.332 347.94 218.672 348.732C218.816 348.912 219.044 349.308 219.128 349.5C222.788 348.6 226.64 347.064 228.992 344.748L228.272 344.292ZM223.46 343.884V346.704H224.336V343.884H223.46ZM222.296 347.916H221.972L221.456 348.432V351.948H222.296V348.588H228.068V347.916H222.296ZM227.636 347.916V351.924H228.5V347.916H227.636ZM233.24 344.844V345.684H239.3V344.844H233.24ZM233.024 350.424V351.276H239.456V350.424H233.024ZM232.616 347.124V351.936H233.516V347.94H239.12V351.9H240.068V347.124H232.616ZM236.456 340.896C235.232 342.756 233.024 344.352 230.732 345.252C230.984 345.468 231.236 345.804 231.392 346.044C233.708 345.024 235.916 343.296 237.248 341.292L236.456 340.896ZM236.636 341.592L235.868 341.988C237.464 343.812 239.204 344.952 241.256 345.936C241.388 345.66 241.652 345.324 241.88 345.12C239.864 344.268 238.1 343.212 236.636 341.592ZM245.228 343.656V344.448H251.336V343.656H245.228ZM245.84 345.708V350.4H246.68V345.708H245.84ZM246.296 345.708V346.464H249.848V348.744H246.296V349.524H250.688V345.708H246.296ZM243.308 341.544V351.984H244.184V342.408H252.896V341.544H243.308ZM252.344 341.544V350.82C252.344 351.024 252.272 351.096 252.056 351.108C251.852 351.12 251.144 351.12 250.388 351.096C250.532 351.336 250.676 351.732 250.712 351.972C251.756 351.984 252.356 351.96 252.716 351.804C253.088 351.66 253.232 351.384 253.232 350.82V341.544H252.344ZM257.132 353.364L257.804 353.052C256.772 351.348 256.268 349.32 256.268 347.28C256.268 345.24 256.772 343.212 257.804 341.508L257.132 341.184C256.016 342.984 255.356 344.928 255.356 347.28C255.356 349.644 256.016 351.564 257.132 353.364ZM260.682 351H261.822C261.966 347.568 262.338 345.516 264.402 342.864V342.204H258.906V343.14H263.166C261.438 345.54 260.838 347.676 260.682 351ZM268.311 351.168C269.967 351.168 271.035 349.644 271.035 346.572C271.035 343.524 269.967 342.048 268.311 342.048C266.631 342.048 265.563 343.524 265.563 346.572C265.563 349.644 266.631 351.168 268.311 351.168ZM268.311 350.28C267.303 350.28 266.619 349.164 266.619 346.572C266.619 344.016 267.303 342.924 268.311 342.924C269.307 342.924 269.979 344.016 269.979 346.572C269.979 349.164 269.307 350.28 268.311 350.28ZM274.091 347.592C275.303 347.592 276.095 346.584 276.095 344.808C276.095 343.044 275.303 342.048 274.091 342.048C272.879 342.048 272.087 343.044 272.087 344.808C272.087 346.584 272.879 347.592 274.091 347.592ZM274.091 346.92C273.395 346.92 272.915 346.2 272.915 344.808C272.915 343.404 273.395 342.72 274.091 342.72C274.787 342.72 275.255 343.404 275.255 344.808C275.255 346.2 274.787 346.92 274.091 346.92ZM274.343 351.168H275.087L279.935 342.048H279.191L274.343 351.168ZM280.223 351.168C281.411 351.168 282.215 350.16 282.215 348.372C282.215 346.62 281.411 345.612 280.223 345.612C279.011 345.612 278.219 346.62 278.219 348.372C278.219 350.16 279.011 351.168 280.223 351.168ZM280.223 350.496C279.527 350.496 279.047 349.776 279.047 348.372C279.047 346.968 279.527 346.296 280.223 346.296C280.907 346.296 281.387 346.968 281.387 348.372C281.387 349.776 280.907 350.496 280.223 350.496ZM283.87 353.364C284.974 351.564 285.634 349.644 285.634 347.28C285.634 344.928 284.974 342.984 283.87 341.184L283.186 341.508C284.218 343.212 284.722 345.24 284.722 347.28C284.722 349.32 284.218 351.348 283.186 353.052L283.87 353.364Z" fill="#8F95B2"/>
<rect x="320" y="331.946" width="12" height="11.7089" rx="4" fill="url(#paint8_linear_37_5361)"/>
<path d="M352.294 344.844V345.684H358.354V344.844H352.294ZM352.078 350.424V351.276H358.51V350.424H352.078ZM351.67 347.124V351.936H352.57V347.94H358.174V351.9H359.122V347.124H351.67ZM355.51 340.896C354.286 342.756 352.078 344.352 349.786 345.252C350.038 345.468 350.29 345.804 350.446 346.044C352.762 345.024 354.97 343.296 356.302 341.292L355.51 340.896ZM355.69 341.592L354.922 341.988C356.518 343.812 358.258 344.952 360.31 345.936C360.442 345.66 360.706 345.324 360.934 345.12C358.918 344.268 357.154 343.212 355.69 341.592ZM364.282 343.656V344.448H370.39V343.656H364.282ZM364.894 345.708V350.4H365.734V345.708H364.894ZM365.35 345.708V346.464H368.902V348.744H365.35V349.524H369.742V345.708H365.35ZM362.362 341.544V351.984H363.238V342.408H371.95V341.544H362.362ZM371.398 341.544V350.82C371.398 351.024 371.326 351.096 371.11 351.108C370.906 351.12 370.198 351.12 369.442 351.096C369.586 351.336 369.73 351.732 369.766 351.972C370.81 351.984 371.41 351.96 371.77 351.804C372.142 351.66 372.286 351.384 372.286 350.82V341.544H371.398ZM373.666 347.46L373.834 348.324C374.926 347.976 376.354 347.52 377.71 347.076L377.59 346.26C376.138 346.728 374.65 347.196 373.666 347.46ZM373.81 343.344V344.184H377.59V343.344H373.81ZM375.334 340.932V350.808C375.334 350.988 375.262 351.036 375.118 351.036C374.974 351.048 374.482 351.048 373.954 351.024C374.074 351.288 374.194 351.684 374.23 351.924C375.01 351.924 375.502 351.888 375.802 351.744C376.114 351.6 376.222 351.336 376.222 350.82V340.932H375.334ZM379.402 342.072H382.75V343.62H379.402V342.072ZM378.514 341.388V344.304H383.662V341.388H378.514ZM380.662 346.764V347.952C380.662 348.9 380.386 350.256 377.134 351.144C377.338 351.336 377.578 351.684 377.686 351.9C381.094 350.82 381.538 349.224 381.538 347.964V346.764H380.662ZM381.538 350.124C382.462 350.7 383.698 351.516 384.322 352.008L384.886 351.348C384.25 350.868 382.99 350.088 382.078 349.548L381.538 350.124ZM378.19 345.192V349.548H379.042V345.936H383.17V349.512H384.046V345.192H378.19ZM385.954 346.32V347.232H396.682V346.32H385.954ZM388.15 341.088C387.706 342.732 386.962 344.328 386.026 345.348C386.254 345.456 386.698 345.684 386.89 345.828C387.79 344.736 388.582 343.056 389.086 341.292L388.15 341.088ZM388.03 343.032L387.598 343.932H395.674V343.032H388.03ZM391.846 346.512L391.018 346.716C391.87 349.476 393.538 351.228 396.358 351.972C396.502 351.72 396.766 351.336 396.97 351.144C394.246 350.544 392.578 348.924 391.846 346.512ZM390.79 340.92V344.652C390.79 347.1 390.298 349.68 385.81 351.204C386.002 351.384 386.278 351.756 386.374 351.984C391.162 350.328 391.726 347.424 391.726 344.664V340.92H390.79ZM405.658 346.44C405.658 348.792 406.606 350.688 408.046 352.152L408.766 351.78C407.374 350.352 406.522 348.588 406.522 346.44C406.522 344.304 407.374 342.54 408.766 341.112L408.046 340.74C406.606 342.204 405.658 344.1 405.658 346.44ZM409.846 351H415.366V350.064H412.93C412.486 350.064 411.958 350.1 411.49 350.148C413.566 348.192 414.946 346.404 414.946 344.64C414.946 343.068 413.962 342.048 412.39 342.048C411.274 342.048 410.506 342.564 409.786 343.344L410.422 343.956C410.914 343.38 411.538 342.936 412.258 342.936C413.35 342.936 413.866 343.68 413.866 344.688C413.866 346.188 412.606 347.952 409.846 350.364V351ZM419.311 351.168C420.967 351.168 422.035 349.644 422.035 346.572C422.035 343.524 420.967 342.048 419.311 342.048C417.631 342.048 416.563 343.524 416.563 346.572C416.563 349.644 417.631 351.168 419.311 351.168ZM419.311 350.28C418.303 350.28 417.619 349.164 417.619 346.572C417.619 344.016 418.303 342.924 419.311 342.924C420.307 342.924 420.979 344.016 420.979 346.572C420.979 349.164 420.307 350.28 419.311 350.28ZM425.091 347.592C426.303 347.592 427.095 346.584 427.095 344.808C427.095 343.044 426.303 342.048 425.091 342.048C423.879 342.048 423.087 343.044 423.087 344.808C423.087 346.584 423.879 347.592 425.091 347.592ZM425.091 346.92C424.395 346.92 423.915 346.2 423.915 344.808C423.915 343.404 424.395 342.72 425.091 342.72C425.787 342.72 426.255 343.404 426.255 344.808C426.255 346.2 425.787 346.92 425.091 346.92ZM425.343 351.168H426.087L430.935 342.048H430.191L425.343 351.168ZM431.223 351.168C432.411 351.168 433.215 350.16 433.215 348.372C433.215 346.62 432.411 345.612 431.223 345.612C430.011 345.612 429.219 346.62 429.219 348.372C429.219 350.16 430.011 351.168 431.223 351.168ZM431.223 350.496C430.527 350.496 430.047 349.776 430.047 348.372C430.047 346.968 430.527 346.296 431.223 346.296C431.907 346.296 432.387 346.968 432.387 348.372C432.387 349.776 431.907 350.496 431.223 350.496ZM437.33 346.44C437.33 344.1 436.382 342.204 434.942 340.74L434.222 341.112C435.614 342.54 436.466 344.304 436.466 346.44C436.466 348.588 435.614 350.352 434.222 351.78L434.942 352.152C436.382 350.688 437.33 348.792 437.33 346.44Z" fill="#8F95B2"/>
<g filter="url(#filter1_d_37_5361)">
<g clip-path="url(#clip0_37_5361)">
<rect x="331" y="55" width="150" height="116" rx="8" fill="white"/>
<path d="M356 79.25C357.243 79.25 358.25 78.2426 358.25 77C358.25 75.7574 357.243 74.75 356 74.75C354.757 74.75 353.75 75.7574 353.75 77C353.75 78.2426 354.757 79.25 356 79.25Z" fill="#8F95B2"/>
<path d="M364.404 76.8088C363.742 75.0974 362.594 73.6175 361.1 72.5518C359.607 71.4861 357.833 70.8814 356 70.8125C354.167 70.8814 352.393 71.4861 350.9 72.5518C349.406 73.6175 348.258 75.0974 347.596 76.8088C347.552 76.9323 347.552 77.0677 347.596 77.1912C348.258 78.9026 349.406 80.3825 350.9 81.4482C352.393 82.5139 354.167 83.1186 356 83.1875C357.833 83.1186 359.607 82.5139 361.1 81.4482C362.594 80.3825 363.742 78.9026 364.404 77.1912C364.448 77.0677 364.448 76.9323 364.404 76.8088ZM356 80.6562C355.277 80.6562 354.57 80.4418 353.969 80.0401C353.367 79.6383 352.899 79.0673 352.622 78.3992C352.345 77.7311 352.273 76.9959 352.414 76.2867C352.555 75.5775 352.903 74.926 353.415 74.4146C353.926 73.9033 354.577 73.5551 355.287 73.414C355.996 73.2729 356.731 73.3453 357.399 73.6221C358.067 73.8988 358.638 74.3674 359.04 74.9687C359.442 75.57 359.656 76.2769 359.656 77C359.655 77.9692 359.269 78.8984 358.584 79.5837C357.898 80.2691 356.969 80.6548 356 80.6562Z" fill="#8F95B2"/>
<path d="M381.13 79.962H386.8V81.124H381.13V79.962ZM381.13 78.072H386.8V79.22H381.13V78.072ZM380.094 77.316V81.88H387.878V77.316H380.094ZM377.798 73.032V73.956H390.216V73.032H377.798ZM383.426 71.24V76.882H384.476V71.24H383.426ZM382.824 73.298C381.704 74.866 379.506 76.378 377.49 77.064C377.714 77.274 378.022 77.652 378.176 77.904C380.234 77.092 382.446 75.454 383.706 73.648L382.824 73.298ZM385.05 73.312L384.196 73.648C385.47 75.412 387.71 77.022 389.796 77.806C389.95 77.526 390.258 77.134 390.496 76.938C388.424 76.28 386.184 74.838 385.05 73.312ZM378.022 82.734V83.672H390.02V82.734H378.022ZM394.626 77.47V84.162H395.634V78.31H401.738V84.162H402.788V77.47H394.626ZM391.812 75.622V76.49H404.174V75.622H391.812ZM392.834 73.746V74.586H403.362V73.746H392.834ZM395.312 79.262V80.004H402.186V79.262H395.312ZM395.312 80.998V81.726H402.186V80.998H395.312ZM395.214 82.762V83.602H402.186V82.762H395.214ZM402.55 71.352C400.324 71.814 396.054 72.01 392.638 72.038C392.736 72.262 392.834 72.626 392.862 72.864C396.32 72.85 400.618 72.64 403.222 72.122L402.55 71.352ZM396.81 72.318C396.068 75.412 394.43 78.478 391.462 80.186C391.672 80.382 391.98 80.774 392.12 80.998C395.256 79.136 396.964 75.93 397.902 72.542L396.81 72.318Z" fill="#8F95B2"/>
<path d="M355.25 116H356.75V109.25H359L356 105.5L353 109.25H355.25V116Z" fill="#8F95B2"/>
<path d="M350.75 120.5H361.25C362.077 120.5 362.75 119.827 362.75 119V112.25C362.75 111.423 362.077 110.75 361.25 110.75H358.25V112.25H361.25V119H350.75V112.25H353.75V110.75H350.75C349.923 110.75 349.25 111.423 349.25 112.25V119C349.25 119.827 349.923 120.5 350.75 120.5Z" fill="#8F95B2"/>
<path d="M377.854 114.926V115.92H390.216V114.926H377.854ZM386.058 113.848V118.86C386.058 119.07 385.974 119.14 385.708 119.14C385.442 119.154 384.434 119.168 383.398 119.126C383.538 119.406 383.72 119.798 383.762 120.078C385.12 120.078 385.96 120.078 386.464 119.924C386.968 119.784 387.136 119.49 387.136 118.874V113.848H386.058ZM379.954 116.452C380.822 117.194 381.816 118.258 382.236 118.986L383.02 118.286C382.558 117.572 381.564 116.55 380.682 115.836L379.954 116.452ZM378.89 108.234V111.902C378.89 113.204 379.576 113.498 381.886 113.498C382.418 113.498 386.912 113.498 387.486 113.498C389.25 113.498 389.698 113.148 389.88 111.72C389.572 111.664 389.138 111.538 388.872 111.384C388.746 112.42 388.55 112.616 387.402 112.616C386.422 112.616 382.544 112.616 381.816 112.616C380.262 112.616 379.982 112.476 379.982 111.888V108.234H378.89ZM379.254 110.194V111.132H388.55V107.8H378.89V108.724H387.528V110.194H379.254ZM397.398 107.254V118.748H398.546V107.254H397.398ZM402.382 114.24V120.092H403.53V114.24H402.382ZM393.086 108.514V113.344H402.97V108.514H401.836V112.322H394.178V108.514H393.086ZM392.456 114.24V119.308H402.942V118.258H393.604V114.24H392.456Z" fill="#8F95B2"/>
<path d="M349.25 144.5H362.75" stroke="#FF754C" stroke-width="1.5" stroke-linecap="round" stroke-linejoin="round"/>
<path d="M353 144.5V143C353 142.602 353.158 142.221 353.439 141.939C353.721 141.658 354.102 141.5 354.5 141.5H357.5C357.898 141.5 358.279 141.658 358.561 141.939C358.842 142.221 359 142.602 359 143V144.5M361.25 144.5V155C361.25 155.398 361.092 155.779 360.811 156.061C360.529 156.342 360.148 156.5 359.75 156.5H352.25C351.852 156.5 351.471 156.342 351.189 156.061C350.908 155.779 350.75 155.398 350.75 155V144.5H361.25Z" stroke="#FF754C" stroke-width="1.5" stroke-linecap="round" stroke-linejoin="round"/>
<path d="M354.5 148.25V152.75" stroke="#FF754C" stroke-width="1.5" stroke-linecap="round" stroke-linejoin="round"/>
<path d="M357.5 148.25V152.75" stroke="#FF754C" stroke-width="1.5" stroke-linecap="round" stroke-linejoin="round"/>
<path d="M386.912 144.794V152.704H387.766V144.794H386.912ZM388.956 143.478V154.93C388.956 155.14 388.886 155.196 388.69 155.21C388.508 155.21 387.92 155.21 387.248 155.196C387.388 155.462 387.528 155.882 387.57 156.12C388.466 156.134 389.04 156.106 389.39 155.938C389.726 155.798 389.866 155.504 389.866 154.944V143.478H388.956ZM378.848 143.702V144.626H381.312V143.702H378.848ZM378.498 143.702V150.366C378.498 152.102 378.428 154.188 377.546 155.602C377.756 155.714 378.148 155.98 378.302 156.134C379.254 154.636 379.38 152.228 379.38 150.366V143.702H378.498ZM380.682 143.702V154.832C380.682 155 380.626 155.042 380.486 155.056C380.346 155.056 379.884 155.07 379.394 155.042C379.506 155.294 379.632 155.714 379.66 155.966C380.402 155.966 380.864 155.952 381.172 155.784C381.48 155.63 381.578 155.336 381.578 154.846V143.702H380.682ZM382.88 143.702V144.64H385.344V143.702H382.88ZM382.558 143.702V149.764C382.558 151.612 382.502 154.02 381.704 155.658C381.928 155.742 382.32 155.966 382.474 156.12C383.314 154.398 383.426 151.71 383.426 149.764V143.702H382.558ZM384.728 143.702V154.846C384.728 155 384.686 155.056 384.546 155.056C384.392 155.056 383.944 155.07 383.44 155.042C383.566 155.294 383.678 155.714 383.706 155.966C384.448 155.966 384.91 155.952 385.218 155.784C385.526 155.63 385.624 155.336 385.624 154.846V143.702H384.728ZM377.602 148.7V149.666H386.338V148.7H377.602ZM392.078 143.814V156.092H393.016V144.766H395.34V143.814H392.078ZM395.06 143.814V144.094C394.724 145.046 394.178 146.67 393.632 147.93C394.71 149.05 394.976 150.002 394.99 150.772C394.99 151.206 394.906 151.584 394.668 151.738C394.556 151.836 394.388 151.878 394.206 151.878C393.968 151.892 393.66 151.892 393.324 151.864C393.492 152.13 393.576 152.536 393.576 152.788C393.912 152.802 394.304 152.802 394.584 152.774C394.892 152.732 395.144 152.662 395.354 152.508C395.76 152.214 395.928 151.64 395.928 150.87C395.914 149.988 395.662 148.98 394.57 147.818C395.074 146.712 395.634 145.34 396.068 144.178L395.382 143.772L395.228 143.814H395.06ZM397.496 147.538V148.476H403.026V147.538H397.496ZM396.194 150.184V151.15H404.342V150.184H396.194ZM397.622 151.92C397.16 152.914 396.432 153.978 395.704 154.706C395.928 154.832 396.334 155.126 396.502 155.28C397.216 154.496 398.028 153.306 398.56 152.186L397.622 151.92ZM401.682 152.2C402.438 153.096 403.306 154.342 403.698 155.154L404.524 154.664C404.132 153.88 403.264 152.676 402.48 151.794L401.682 152.2ZM399.862 147.762V154.902C399.862 155.084 399.806 155.154 399.596 155.168C399.386 155.168 398.714 155.168 397.93 155.14C398.084 155.42 398.238 155.84 398.294 156.12C399.302 156.12 399.946 156.106 400.338 155.938C400.744 155.77 400.884 155.49 400.884 154.902V147.762H399.862ZM400.254 143.156C399.316 144.836 397.566 146.446 395.816 147.356C396.068 147.552 396.348 147.874 396.516 148.126C398.336 147.076 400.086 145.368 401.15 143.506L400.254 143.156ZM400.716 143.898L399.89 144.248C401.22 146.04 402.55 147.118 403.922 147.986C404.076 147.706 404.384 147.356 404.636 147.16C403.306 146.418 401.948 145.466 400.716 143.898Z" fill="#FF754C"/>
</g>
<rect x="331.5" y="55.5" width="149" height="115" rx="7.5" stroke="#E6E8F0"/>
</g>
</g>
<defs>
<filter id="filter0_d_37_5361" x="0" y="0" width="519" height="394" filterUnits="userSpaceOnUse" color-interpolation-filters="sRGB">
<feFlood flood-opacity="0" result="BackgroundImageFix"/>
<feColorMatrix in="SourceAlpha" type="matrix" values="0 0 0 0 0 0 0 0 0 0 0 0 0 0 0 0 0 0 127 0" result="hardAlpha"/>
<feOffset dy="8"/>
<feGaussianBlur stdDeviation="8"/>
<feComposite in2="hardAlpha" operator="out"/>
<feColorMatrix type="matrix" values="0 0 0 0 0.560784 0 0 0 0 0.584314 0 0 0 0 0.698039 0 0 0 0.15 0"/>
<feBlend mode="normal" in2="BackgroundImageFix" result="effect1_dropShadow_37_5361"/>
<feBlend mode="normal" in="SourceGraphic" in2="effect1_dropShadow_37_5361" result="shape"/>
</filter>
<filter id="filter1_d_37_5361" x="315" y="47" width="182" height="148" filterUnits="userSpaceOnUse" color-interpolation-filters="sRGB">
<feFlood flood-opacity="0" result="BackgroundImageFix"/>
<feColorMatrix in="SourceAlpha" type="matrix" values="0 0 0 0 0 0 0 0 0 0 0 0 0 0 0 0 0 0 127 0" result="hardAlpha"/>
<feOffset dy="8"/>
<feGaussianBlur stdDeviation="8"/>
<feComposite in2="hardAlpha" operator="out"/>
<feColorMatrix type="matrix" values="0 0 0 0 0.560784 0 0 0 0 0.584314 0 0 0 0 0.698039 0 0 0 0.15 0"/>
<feBlend mode="normal" in2="BackgroundImageFix" result="effect1_dropShadow_37_5361"/>
<feBlend mode="normal" in="SourceGraphic" in2="effect1_dropShadow_37_5361" result="shape"/>
</filter>
<linearGradient id="paint0_linear_37_5361" x1="146.229" y1="216.161" x2="106.848" y2="212.591" gradientUnits="userSpaceOnUse">
<stop stop-color="#0049C6"/>
<stop offset="1" stop-color="#CDF4FF"/>
</linearGradient>
<linearGradient id="paint1_linear_37_5361" x1="223.128" y1="182.206" x2="266.595" y2="191.859" gradientUnits="userSpaceOnUse">
<stop stop-color="#FFB7F5"/>
<stop offset="1" stop-color="#6C5DD3"/>
</linearGradient>
<linearGradient id="paint2_linear_37_5361" x1="380.55" y1="328.469" x2="284.797" y2="268.447" gradientUnits="userSpaceOnUse">
<stop stop-color="#FF754C"/>
<stop offset="1" stop-color="#FFB7F5"/>
</linearGradient>
<linearGradient id="paint3_linear_37_5361" x1="230.559" y1="159.24" x2="238.559" y2="167.24" gradientUnits="userSpaceOnUse">
<stop stop-color="#FFB7F5"/>
<stop offset="1" stop-color="#6C5DD3"/>
</linearGradient>
<linearGradient id="paint4_linear_37_5361" x1="378.264" y1="203.344" x2="368.628" y2="184.423" gradientUnits="userSpaceOnUse">
<stop stop-color="#FF754C"/>
<stop offset="1" stop-color="#FFB7F5"/>
</linearGradient>
<linearGradient id="paint5_linear_37_5361" x1="132.226" y1="194.545" x2="119.108" y2="191.286" gradientUnits="userSpaceOnUse">
<stop stop-color="#0049C6"/>
<stop offset="1" stop-color="#CDF4FF"/>
</linearGradient>
<linearGradient id="paint6_linear_37_5361" x1="57.1618" y1="330.78" x2="37.5424" y2="325.784" gradientUnits="userSpaceOnUse">
<stop stop-color="#0049C6"/>
<stop offset="1" stop-color="#CDF4FF"/>
</linearGradient>
<linearGradient id="paint7_linear_37_5361" x1="157" y1="331.946" x2="168.705" y2="343.942" gradientUnits="userSpaceOnUse">
<stop stop-color="#FFB7F5"/>
<stop offset="1" stop-color="#6C5DD3"/>
</linearGradient>
<linearGradient id="paint8_linear_37_5361" x1="326" y1="350.797" x2="312.101" y2="322.828" gradientUnits="userSpaceOnUse">
<stop stop-color="#FF754C"/>
<stop offset="1" stop-color="#FFB7F5"/>
</linearGradient>
<clipPath id="clip0_37_5361">
<rect x="331" y="55" width="150" height="116" rx="8" fill="white"/>
</clipPath>
</defs>
</svg>
