<svg width="519" height="401" viewBox="0 0 519 401" fill="none" xmlns="http://www.w3.org/2000/svg">
<g filter="url(#filter0_d_37_5361)">
<rect x="16" y="8" width="487" height="369" rx="24" fill="white" shape-rendering="crispEdges"/>
<path d="M51.3268 43.2386L53.5048 43.8686C52.8208 45.4766 51.9268 46.8386 50.8228 47.9546C49.7188 49.0706 48.4288 49.9946 46.9528 50.7266C45.4768 51.4466 43.8448 52.0286 42.0568 52.4726C41.9728 52.3046 41.8528 52.1006 41.6968 51.8606C41.5408 51.6206 41.3788 51.3806 41.2108 51.1406C41.0428 50.9006 40.8868 50.7026 40.7428 50.5466C42.4948 50.2106 44.0668 49.7366 45.4588 49.1246C46.8508 48.5126 48.0448 47.7266 49.0408 46.7666C50.0368 45.8066 50.7988 44.6306 51.3268 43.2386ZM45.2788 40.1246L47.4028 40.9346C46.9828 41.4626 46.4968 41.9846 45.9448 42.5006C45.4048 43.0166 44.8408 43.5026 44.2528 43.9586C43.6768 44.4146 43.1248 44.8106 42.5968 45.1466C42.4648 45.0026 42.2968 44.8286 42.0928 44.6246C41.8888 44.4206 41.6728 44.2226 41.4448 44.0306C41.2288 43.8386 41.0368 43.6826 40.8688 43.5626C41.4208 43.2866 41.9668 42.9686 42.5068 42.6086C43.0588 42.2366 43.5748 41.8406 44.0548 41.4206C44.5348 40.9886 44.9428 40.5566 45.2788 40.1246ZM46.6648 43.3286C47.4568 45.2606 48.7288 46.8266 50.4808 48.0266C52.2448 49.2266 54.4888 50.0306 57.2128 50.4386C57.0688 50.5946 56.9068 50.7866 56.7268 51.0146C56.5588 51.2426 56.4028 51.4766 56.2588 51.7166C56.1148 51.9686 55.9948 52.1906 55.8988 52.3826C53.9788 52.0226 52.3048 51.4766 50.8768 50.7446C49.4608 50.0126 48.2488 49.0826 47.2408 47.9546C46.2448 46.8146 45.4048 45.4706 44.7208 43.9226L46.6648 43.3286ZM41.0128 37.8566H56.8888V39.9626H41.0128V37.8566ZM50.6788 41.2406L52.3708 40.0166C52.8988 40.3766 53.4568 40.7786 54.0448 41.2226C54.6448 41.6666 55.2088 42.1166 55.7368 42.5726C56.2648 43.0166 56.6968 43.4306 57.0328 43.8146L55.1788 45.2366C54.8908 44.8646 54.4948 44.4446 53.9908 43.9766C53.4868 43.4966 52.9408 43.0166 52.3528 42.5366C51.7768 42.0566 51.2188 41.6246 50.6788 41.2406ZM47.1688 36.0746L49.2208 35.3546C49.4608 35.7386 49.7068 36.1646 49.9588 36.6326C50.2228 37.1006 50.4148 37.5026 50.5348 37.8386L48.3568 38.6486C48.2608 38.3126 48.0988 37.8986 47.8708 37.4066C47.6428 36.9146 47.4088 36.4706 47.1688 36.0746ZM63.2248 40.8086V41.9426H70.8028V40.8086H63.2248ZM63.2248 38.0726V39.1886H70.8028V38.0726H63.2248ZM61.1188 36.3446H73.0168V43.6706H61.1188V36.3446ZM62.2168 44.7506H72.7648V46.6406H62.2168V44.7506ZM72.2608 44.7506H74.4568C74.4568 44.7506 74.4508 44.8046 74.4388 44.9126C74.4388 45.0086 74.4328 45.1286 74.4208 45.2726C74.4208 45.4046 74.4088 45.5186 74.3848 45.6146C74.2648 46.9226 74.1328 47.9966 73.9888 48.8366C73.8448 49.6646 73.6948 50.3126 73.5388 50.7806C73.3828 51.2486 73.2028 51.5846 72.9988 51.7886C72.7828 52.0286 72.5548 52.1966 72.3148 52.2926C72.0748 52.3886 71.8108 52.4486 71.5228 52.4726C71.2708 52.5086 70.9408 52.5266 70.5328 52.5266C70.1368 52.5266 69.7168 52.5146 69.2728 52.4906C69.2608 52.2266 69.2008 51.9206 69.0928 51.5726C68.9968 51.2246 68.8708 50.9246 68.7148 50.6726C69.0868 50.7086 69.4348 50.7326 69.7588 50.7446C70.0948 50.7446 70.3408 50.7446 70.4968 50.7446C70.6528 50.7446 70.7788 50.7326 70.8748 50.7086C70.9708 50.6846 71.0668 50.6246 71.1628 50.5286C71.2948 50.3966 71.4268 50.1326 71.5588 49.7366C71.7028 49.3286 71.8288 48.7466 71.9368 47.9906C72.0568 47.2346 72.1648 46.2566 72.2608 45.0566V44.7506ZM63.3328 42.7166L65.4028 43.3826C64.9708 44.1266 64.4548 44.8346 63.8548 45.5066C63.2668 46.1786 62.6428 46.8026 61.9828 47.3786C61.3228 47.9426 60.6568 48.4346 59.9848 48.8546C59.8648 48.7106 59.7028 48.5426 59.4988 48.3506C59.3068 48.1466 59.1088 47.9486 58.9048 47.7566C58.7008 47.5646 58.5148 47.4146 58.3468 47.3066C59.3548 46.7906 60.3028 46.1306 61.1908 45.3266C62.0788 44.5106 62.7928 43.6406 63.3328 42.7166ZM65.0968 45.4166L67.1308 46.0466C66.6988 46.8746 66.1708 47.6666 65.5468 48.4226C64.9348 49.1666 64.2748 49.8506 63.5668 50.4746C62.8588 51.0986 62.1328 51.6386 61.3888 52.0946C61.2808 51.9506 61.1308 51.7766 60.9388 51.5726C60.7468 51.3806 60.5428 51.1886 60.3268 50.9966C60.1228 50.8046 59.9428 50.6546 59.7868 50.5466C60.9028 49.9826 61.9288 49.2566 62.8648 48.3686C63.8128 47.4686 64.5568 46.4846 65.0968 45.4166ZM68.7688 45.5426L70.8208 46.0286C70.3408 47.3846 69.7108 48.6386 68.9308 49.7906C68.1628 50.9306 67.3288 51.8726 66.4288 52.6166C66.3088 52.4966 66.1408 52.3526 65.9248 52.1846C65.7208 52.0166 65.5108 51.8486 65.2948 51.6806C65.0788 51.5126 64.8868 51.3806 64.7188 51.2846C65.6308 50.6486 66.4348 49.8266 67.1308 48.8186C67.8388 47.7986 68.3848 46.7066 68.7688 45.5426ZM76.8328 36.3446H82.5928V38.2166H76.8328V36.3446ZM76.4188 42.2666H83.2588V44.1746H76.4188V42.2666ZM79.1008 43.1666H81.1888V50.1686C81.1888 50.6726 81.1288 51.0746 81.0088 51.3746C80.9008 51.6746 80.6788 51.9086 80.3428 52.0766C80.0068 52.2326 79.6108 52.3346 79.1548 52.3826C78.6988 52.4306 78.1708 52.4546 77.5708 52.4546C77.5228 52.1426 77.4328 51.7886 77.3008 51.3926C77.1808 50.9966 77.0548 50.6606 76.9228 50.3846C77.3068 50.3966 77.6788 50.4026 78.0388 50.4026C78.4108 50.4026 78.6568 50.4026 78.7768 50.4026C78.9088 50.3906 78.9928 50.3666 79.0288 50.3306C79.0768 50.2946 79.1008 50.2286 79.1008 50.1326V43.1666ZM81.9268 36.3446H82.3948L82.7728 36.2366L84.0688 37.1366C83.7808 37.6166 83.4508 38.1086 83.0788 38.6126C82.7068 39.1046 82.3228 39.5786 81.9268 40.0346C81.5308 40.4906 81.1408 40.8866 80.7568 41.2226C80.6248 41.0306 80.4388 40.8086 80.1988 40.5566C79.9588 40.3046 79.7548 40.1126 79.5868 39.9806C79.8748 39.6926 80.1688 39.3566 80.4688 38.9726C80.7808 38.5886 81.0688 38.1986 81.3328 37.8026C81.5968 37.3946 81.7948 37.0346 81.9268 36.7226V36.3446ZM82.6288 42.2666H82.9168L83.2048 42.2126L84.5368 42.5006C84.3448 43.2566 84.1288 44.0246 83.8888 44.8046C83.6608 45.5846 83.4448 46.2446 83.2408 46.7846L81.6388 46.4426C81.7588 46.1186 81.8728 45.7346 81.9808 45.2906C82.1008 44.8346 82.2208 44.3666 82.3408 43.8866C82.4608 43.4066 82.5568 42.9506 82.6288 42.5186V42.2666ZM77.1568 40.4126L78.2908 39.0266C78.7228 39.2666 79.2028 39.5486 79.7308 39.8726C80.2708 40.1846 80.7928 40.5026 81.2968 40.8266C81.8128 41.1386 82.2328 41.4086 82.5568 41.6366L81.3688 43.2386C81.0688 42.9866 80.6728 42.6986 80.1808 42.3746C79.6888 42.0386 79.1728 41.6966 78.6328 41.3486C78.1048 41.0006 77.6128 40.6886 77.1568 40.4126ZM84.1588 36.2726H93.4288V38.1626H84.1588V36.2726ZM87.7588 37.2626L90.1528 37.5506C89.9728 38.1026 89.7928 38.6486 89.6128 39.1886C89.4328 39.7286 89.2648 40.1906 89.1088 40.5746L87.2728 40.2326C87.3808 39.8006 87.4828 39.3086 87.5788 38.7566C87.6748 38.2046 87.7348 37.7066 87.7588 37.2626ZM87.6688 42.2846H89.6848V45.5966C89.6848 46.1846 89.6188 46.7906 89.4868 47.4146C89.3668 48.0386 89.1268 48.6506 88.7668 49.2506C88.4068 49.8386 87.8848 50.3966 87.2008 50.9246C86.5288 51.4646 85.6288 51.9506 84.5008 52.3826C84.3688 52.1666 84.1708 51.9086 83.9068 51.6086C83.6548 51.3086 83.4028 51.0626 83.1508 50.8706C84.1588 50.5346 84.9568 50.1506 85.5448 49.7186C86.1448 49.2866 86.5948 48.8306 86.8948 48.3506C87.2068 47.8706 87.4108 47.3966 87.5068 46.9286C87.6148 46.4486 87.6688 45.9986 87.6688 45.5786V42.2846ZM88.9828 49.6826L90.3688 48.3866C90.7048 48.6506 91.0708 48.9506 91.4668 49.2866C91.8628 49.6106 92.2468 49.9346 92.6188 50.2586C92.9908 50.5706 93.2968 50.8526 93.5368 51.1046L92.0428 52.5626C91.8388 52.2986 91.5568 51.9986 91.1968 51.6626C90.8368 51.3266 90.4588 50.9846 90.0628 50.6366C89.6788 50.2886 89.3188 49.9706 88.9828 49.6826ZM84.7348 39.4586H92.7268V48.0806H90.6208V41.3846H86.7328V48.1526H84.7348V39.4586ZM48.6448 73.4666L49.9408 72.6926C50.2168 72.9686 50.4988 73.2806 50.7868 73.6286C51.0868 73.9646 51.3628 74.2946 51.6148 74.6186C51.8788 74.9426 52.0888 75.2306 52.2448 75.4826L50.8768 76.3646C50.7328 76.1006 50.5348 75.7946 50.2828 75.4466C50.0308 75.1106 49.7608 74.7686 49.4728 74.4206C49.1968 74.0726 48.9208 73.7546 48.6448 73.4666ZM45.4408 60.5246H51.8668V72.2606H50.1748V62.0726H47.0608V72.3686H45.4408V60.5246ZM55.1788 59.8766H56.8708V74.3126C56.8708 74.7926 56.8168 75.1706 56.7088 75.4466C56.6008 75.7226 56.4028 75.9326 56.1148 76.0766C55.8388 76.2206 55.4728 76.3166 55.0168 76.3646C54.5728 76.4126 54.0208 76.4306 53.3608 76.4186C53.3248 76.1786 53.2528 75.8846 53.1448 75.5366C53.0368 75.2006 52.9288 74.9066 52.8208 74.6546C53.2528 74.6666 53.6548 74.6726 54.0268 74.6726C54.4108 74.6726 54.6748 74.6726 54.8188 74.6726C55.0588 74.6726 55.1788 74.5526 55.1788 74.3126V59.8766ZM52.7128 61.2266H54.3508V72.3326H52.7128V61.2266ZM47.7988 63.0626H49.3648V69.9746C49.3648 70.5746 49.3168 71.1806 49.2208 71.7926C49.1248 72.4046 48.9448 73.0046 48.6808 73.5926C48.4288 74.1686 48.0568 74.7026 47.5648 75.1946C47.0728 75.6866 46.4188 76.1186 45.6028 76.4906C45.5548 76.3706 45.4708 76.2206 45.3508 76.0406C45.2428 75.8726 45.1288 75.7046 45.0088 75.5366C44.8888 75.3806 44.7808 75.2606 44.6848 75.1766C45.3928 74.8526 45.9568 74.4986 46.3768 74.1146C46.7968 73.7186 47.1088 73.2986 47.3128 72.8546C47.5168 72.3986 47.6488 71.9246 47.7088 71.4326C47.7688 70.9406 47.7988 70.4486 47.7988 69.9566V63.0626ZM41.1388 61.2986L42.4168 59.7326C42.7288 59.8766 43.0708 60.0566 43.4428 60.2726C43.8268 60.4886 44.1988 60.7046 44.5588 60.9206C44.9188 61.1246 45.2068 61.3166 45.4228 61.4966L44.1088 63.2426C43.9048 63.0626 43.6288 62.8586 43.2808 62.6306C42.9448 62.3906 42.5848 62.1566 42.2008 61.9286C41.8288 61.7006 41.4748 61.4906 41.1388 61.2986ZM40.4548 66.1226L41.6788 64.5566C41.9908 64.7006 42.3328 64.8746 42.7048 65.0786C43.0888 65.2826 43.4548 65.4866 43.8028 65.6906C44.1628 65.8946 44.4628 66.0806 44.7028 66.2486L43.4068 67.9766C43.2028 67.7966 42.9268 67.5986 42.5788 67.3826C42.2308 67.1666 41.8708 66.9446 41.4988 66.7166C41.1268 66.4886 40.7788 66.2906 40.4548 66.1226ZM40.7608 75.1766C40.9888 74.7086 41.2348 74.1566 41.4988 73.5206C41.7748 72.8846 42.0508 72.2126 42.3268 71.5046C42.6028 70.7846 42.8548 70.0766 43.0828 69.3806L44.8288 70.4966C44.6368 71.1446 44.4208 71.8046 44.1808 72.4766C43.9408 73.1366 43.6948 73.7906 43.4428 74.4386C43.2028 75.0746 42.9568 75.6926 42.7048 76.2926L40.7608 75.1766Z" fill="#081735"/>
<ellipse cx="464.679" cy="45.3973" rx="1.59672" ry="1.59137" fill="#8F95B2"/>
<ellipse cx="471.066" cy="45.3973" rx="1.59672" ry="1.59137" fill="#8F95B2"/>
<ellipse cx="477.452" cy="45.3973" rx="1.59672" ry="1.59137" fill="#8F95B2"/>
<line x1="16.998" y1="71.155" x2="503" y2="71.1551" stroke="#E6E8F0"/>
<path d="M48.8468 124.974C48.0575 124.974 47.2148 124.856 46.3188 124.622C45.4228 124.387 44.5481 124.067 43.6948 123.662C42.8628 123.235 42.1268 122.723 41.4868 122.126L43.5668 118.926C44.4415 119.63 45.3055 120.174 46.1588 120.558C47.0335 120.942 47.9295 121.134 48.8468 121.134C49.9775 121.134 50.7988 120.899 51.3108 120.43C51.8441 119.939 52.1108 119.235 52.1108 118.318C52.1108 117.699 51.9401 117.166 51.5988 116.718C51.2575 116.27 50.7881 115.864 50.1908 115.502C49.6148 115.139 48.9855 114.787 48.3028 114.446C47.6201 114.083 46.9268 113.71 46.2228 113.326C45.5401 112.942 44.9001 112.494 44.3028 111.982C43.7268 111.47 43.2681 110.872 42.9268 110.19C42.5855 109.486 42.4148 108.654 42.4148 107.694C42.4148 106.35 42.7028 105.176 43.2788 104.174C43.8761 103.171 44.7081 102.392 45.7748 101.838C46.8628 101.283 48.1428 101.006 49.6148 101.006C51.1508 101.006 52.4415 101.283 53.4868 101.838C54.5535 102.392 55.4921 103.107 56.3028 103.982L53.9348 106.702C53.2735 106.083 52.6335 105.624 52.0148 105.326C51.3961 105.006 50.6708 104.846 49.8388 104.846C48.9001 104.846 48.1748 105.07 47.6628 105.518C47.1508 105.944 46.8948 106.606 46.8948 107.502C46.8948 108.056 47.0655 108.536 47.4068 108.942C47.7695 109.347 48.2388 109.71 48.8148 110.03C49.3908 110.35 50.0201 110.68 50.7028 111.022C51.4068 111.342 52.1001 111.694 52.7828 112.078C53.4868 112.462 54.1268 112.92 54.7028 113.454C55.2788 113.966 55.7375 114.595 56.0788 115.342C56.4415 116.067 56.6228 116.942 56.6228 117.966C56.6228 119.331 56.3241 120.547 55.7268 121.614C55.1508 122.659 54.2761 123.48 53.1028 124.078C51.9508 124.675 50.5321 124.974 48.8468 124.974ZM47.8228 128.494V123.086H50.9908V128.494H47.8228ZM47.8228 102.51V97.4536H50.9908V102.51H47.8228ZM61.4498 124.526V120.686H66.5698V105.742H62.2498V102.798C63.4445 102.584 64.4685 102.328 65.3218 102.03C66.1965 101.71 67.0071 101.304 67.7538 100.814H71.2418V120.686H75.6898V124.526H61.4498ZM80.3248 124.526V120.686H85.4448V105.742H81.1248V102.798C82.3195 102.584 83.3435 102.328 84.1968 102.03C85.0715 101.71 85.8821 101.304 86.6288 100.814H90.1168V120.686H94.5648V124.526H80.3248ZM97.9518 124.526V121.806C100.106 119.886 101.941 118.104 103.456 116.462C104.992 114.819 106.165 113.294 106.976 111.886C107.786 110.456 108.192 109.134 108.192 107.918C108.192 107.15 108.053 106.478 107.776 105.902C107.498 105.326 107.093 104.888 106.56 104.59C106.048 104.27 105.408 104.11 104.64 104.11C103.786 104.11 102.997 104.355 102.272 104.846C101.568 105.315 100.917 105.88 100.32 106.542L97.6958 104.014C98.8051 102.819 99.9358 101.923 101.088 101.326C102.261 100.707 103.648 100.398 105.248 100.398C106.741 100.398 108.042 100.707 109.152 101.326C110.282 101.923 111.157 102.766 111.776 103.854C112.394 104.942 112.704 106.222 112.704 107.694C112.704 109.123 112.341 110.584 111.616 112.078C110.912 113.55 109.962 115.022 108.768 116.494C107.573 117.966 106.25 119.416 104.8 120.846C105.418 120.76 106.08 120.696 106.784 120.654C107.509 120.59 108.149 120.558 108.704 120.558H113.824V124.526H97.9518ZM118.139 131.374L117.147 128.814C118.384 128.323 119.333 127.683 119.995 126.894C120.677 126.104 121.019 125.24 121.019 124.302L120.859 120.942L122.523 123.726C122.267 123.96 121.979 124.131 121.659 124.238C121.36 124.344 121.04 124.398 120.699 124.398C119.931 124.398 119.248 124.163 118.651 123.694C118.053 123.203 117.755 122.51 117.755 121.614C117.755 120.782 118.053 120.11 118.651 119.598C119.248 119.086 119.973 118.83 120.827 118.83C121.893 118.83 122.715 119.246 123.291 120.078C123.888 120.888 124.187 122.019 124.187 123.47C124.187 125.347 123.664 126.968 122.619 128.334C121.573 129.699 120.08 130.712 118.139 131.374ZM134.593 124.974C133.356 124.974 132.246 124.824 131.265 124.526C130.284 124.248 129.409 123.864 128.641 123.374C127.894 122.862 127.244 122.296 126.689 121.678L128.897 118.702C129.622 119.363 130.412 119.939 131.265 120.43C132.14 120.899 133.11 121.134 134.177 121.134C134.988 121.134 135.692 121.006 136.289 120.75C136.908 120.494 137.377 120.12 137.697 119.63C138.038 119.139 138.209 118.542 138.209 117.838C138.209 117.048 138.017 116.376 137.633 115.822C137.27 115.246 136.62 114.808 135.681 114.51C134.742 114.211 133.42 114.062 131.713 114.062V110.67C133.164 110.67 134.305 110.52 135.137 110.222C135.969 109.902 136.556 109.475 136.897 108.942C137.26 108.387 137.441 107.758 137.441 107.054C137.441 106.136 137.164 105.422 136.609 104.91C136.054 104.376 135.276 104.11 134.273 104.11C133.441 104.11 132.662 104.302 131.937 104.686C131.233 105.048 130.529 105.55 129.825 106.19L127.393 103.278C128.438 102.403 129.537 101.71 130.689 101.198C131.841 100.664 133.11 100.398 134.497 100.398C136.012 100.398 137.345 100.643 138.497 101.134C139.67 101.624 140.577 102.339 141.217 103.278C141.857 104.216 142.177 105.358 142.177 106.702C142.177 107.982 141.836 109.08 141.153 109.998C140.47 110.915 139.5 111.619 138.241 112.11V112.27C139.116 112.504 139.905 112.888 140.609 113.422C141.334 113.934 141.9 114.584 142.305 115.374C142.732 116.163 142.945 117.08 142.945 118.126C142.945 119.555 142.561 120.782 141.793 121.806C141.046 122.83 140.033 123.619 138.753 124.174C137.494 124.707 136.108 124.974 134.593 124.974ZM155.516 124.526V109.966C155.516 109.283 155.537 108.472 155.58 107.534C155.623 106.574 155.665 105.742 155.708 105.038H155.548C155.271 105.678 154.972 106.318 154.652 106.958C154.332 107.598 154.001 108.248 153.66 108.91L149.98 114.798H162.716V118.382H145.404V115.182L154.236 100.814H159.9V124.526H155.516ZM173.047 124.974C171.447 124.974 170.039 124.515 168.823 123.598C167.628 122.659 166.69 121.272 166.007 119.438C165.346 117.582 165.015 115.288 165.015 112.558C165.015 109.848 165.346 107.598 166.007 105.806C166.69 103.992 167.628 102.638 168.823 101.742C170.039 100.846 171.447 100.398 173.047 100.398C174.668 100.398 176.076 100.856 177.271 101.774C178.466 102.67 179.394 104.014 180.055 105.806C180.738 107.598 181.079 109.848 181.079 112.558C181.079 115.288 180.738 117.582 180.055 119.438C179.394 121.272 178.466 122.659 177.271 123.598C176.076 124.515 174.668 124.974 173.047 124.974ZM173.047 121.294C173.751 121.294 174.37 121.027 174.903 120.494C175.436 119.96 175.852 119.064 176.151 117.806C176.45 116.526 176.599 114.776 176.599 112.558C176.599 110.36 176.45 108.643 176.151 107.406C175.852 106.147 175.436 105.272 174.903 104.782C174.37 104.27 173.751 104.014 173.047 104.014C172.386 104.014 171.778 104.27 171.223 104.782C170.69 105.272 170.263 106.147 169.943 107.406C169.623 108.643 169.463 110.36 169.463 112.558C169.463 114.776 169.623 116.526 169.943 117.806C170.263 119.064 170.69 119.96 171.223 120.494C171.778 121.027 172.386 121.294 173.047 121.294Z" fill="#081735"/>
<rect x="40.6031" y="252.539" width="22.8059" height="37.7085" rx="5.22937" fill="#E6E8F0"/>
<rect x="77.1081" y="197.927" width="22.8059" height="92.3209" rx="5.22937" fill="#E6E8F0"/>
<rect x="113.613" y="226.533" width="22.8059" height="63.7144" rx="5.22937" fill="url(#paint0_linear_37_5361)"/>
<rect x="149.725" y="246.706" width="22.9529" height="43.7628" rx="5.22937" fill="#E6E8F0"/>
<rect x="186.623" y="231.735" width="22.8059" height="58.5132" rx="5.22937" fill="#E6E8F0"/>
<rect x="223.128" y="185.574" width="22.8059" height="104.674" rx="5.22937" fill="url(#paint1_linear_37_5361)"/>
<rect x="259.633" y="239.536" width="22.8059" height="50.7115" rx="5.22937" fill="#E6E8F0"/>
<rect x="296.138" y="197.927" width="22.8059" height="92.3209" rx="5.22937" fill="#E6E8F0"/>
<rect x="332.642" y="264.892" width="22.8059" height="25.3557" rx="5.22937" fill="#E6E8F0"/>
<rect x="369.147" y="217.431" width="22.8059" height="72.8165" rx="5.22937" fill="url(#paint2_linear_37_5361)"/>
<rect x="405.652" y="249.289" width="22.8059" height="40.9593" rx="5.22937" fill="#E6E8F0"/>
<rect x="442.157" y="226.533" width="22.8059" height="63.7144" rx="5.22937" fill="#E6E8F0"/>
<path d="M44.2099 311.244C43.6499 311.244 43.1699 311.128 42.7699 310.896C42.3779 310.656 42.0499 310.308 41.7859 309.852L42.5779 309.276C42.7779 309.636 43.0019 309.892 43.2499 310.044C43.5059 310.196 43.7899 310.272 44.1019 310.272C44.5819 310.272 44.9379 310.128 45.1699 309.84C45.4019 309.544 45.5179 309.064 45.5179 308.4V302.292H46.6339V308.508C46.6339 309.012 46.5499 309.472 46.3819 309.888C46.2139 310.304 45.9499 310.636 45.5899 310.884C45.2379 311.124 44.7779 311.244 44.2099 311.244ZM50.3918 311.244C50.0318 311.244 49.7078 311.172 49.4198 311.028C49.1318 310.884 48.9038 310.676 48.7358 310.404C48.5758 310.124 48.4958 309.788 48.4958 309.396C48.4958 308.684 48.8118 308.14 49.4438 307.764C50.0838 307.38 51.0998 307.112 52.4918 306.96C52.4918 306.68 52.4518 306.416 52.3718 306.168C52.2998 305.912 52.1678 305.708 51.9758 305.556C51.7838 305.396 51.5078 305.316 51.1478 305.316C50.7718 305.316 50.4158 305.392 50.0798 305.544C49.7518 305.688 49.4558 305.844 49.1918 306.012L48.7718 305.256C48.9718 305.128 49.2038 305 49.4678 304.872C49.7318 304.736 50.0198 304.624 50.3318 304.536C50.6438 304.448 50.9758 304.404 51.3278 304.404C51.8558 304.404 52.2838 304.516 52.6118 304.74C52.9478 304.964 53.1918 305.276 53.3438 305.676C53.5038 306.068 53.5838 306.536 53.5838 307.08V311.088H52.6838L52.5878 310.308H52.5518C52.2478 310.564 51.9118 310.784 51.5438 310.968C51.1838 311.152 50.7998 311.244 50.3918 311.244ZM50.7038 310.356C51.0158 310.356 51.3118 310.284 51.5918 310.14C51.8798 309.996 52.1798 309.784 52.4918 309.504V307.692C51.7638 307.772 51.1838 307.888 50.7518 308.04C50.3198 308.184 50.0118 308.364 49.8278 308.58C49.6438 308.788 49.5518 309.036 49.5518 309.324C49.5518 309.7 49.6638 309.968 49.8878 310.128C50.1118 310.28 50.3838 310.356 50.7038 310.356ZM55.6535 311.088V304.572H56.5535L56.6615 305.52H56.6855C56.9975 305.208 57.3255 304.944 57.6695 304.728C58.0215 304.512 58.4215 304.404 58.8695 304.404C59.5575 304.404 60.0615 304.624 60.3815 305.064C60.7015 305.496 60.8615 306.128 60.8615 306.96V311.088H59.7695V307.104C59.7695 306.488 59.6695 306.044 59.4695 305.772C59.2775 305.5 58.9655 305.364 58.5335 305.364C58.1975 305.364 57.8975 305.448 57.6335 305.616C57.3695 305.784 57.0775 306.032 56.7575 306.36V311.088H55.6535Z" fill="#8F95B2"/>
<path d="M79.1261 311.088V302.292H84.1901V303.228H80.2301V306.204H83.5901V307.14H80.2301V311.088H79.1261ZM88.0683 311.244C87.4843 311.244 86.9563 311.108 86.4843 310.836C86.0123 310.564 85.6363 310.176 85.3563 309.672C85.0843 309.16 84.9483 308.548 84.9483 307.836C84.9483 307.3 85.0283 306.824 85.1883 306.408C85.3483 305.984 85.5643 305.624 85.8363 305.328C86.1163 305.024 86.4323 304.796 86.7843 304.644C87.1363 304.484 87.4963 304.404 87.8643 304.404C88.4243 304.404 88.8963 304.528 89.2803 304.776C89.6643 305.024 89.9563 305.38 90.1563 305.844C90.3643 306.3 90.4683 306.84 90.4683 307.464C90.4683 307.584 90.4643 307.696 90.4563 307.8C90.4483 307.904 90.4363 308 90.4203 308.088H86.0283C86.0523 308.552 86.1563 308.956 86.3403 309.3C86.5323 309.636 86.7843 309.9 87.0963 310.092C87.4083 310.276 87.7723 310.368 88.1883 310.368C88.5083 310.368 88.7963 310.324 89.0523 310.236C89.3163 310.14 89.5723 310.012 89.8203 309.852L90.2043 310.584C89.9243 310.768 89.6083 310.924 89.2563 311.052C88.9043 311.18 88.5083 311.244 88.0683 311.244ZM86.0163 307.308H89.5083C89.5083 306.652 89.3643 306.152 89.0763 305.808C88.7963 305.456 88.4003 305.28 87.8883 305.28C87.5843 305.28 87.2963 305.36 87.0243 305.52C86.7603 305.68 86.5363 305.908 86.3523 306.204C86.1763 306.5 86.0643 306.868 86.0163 307.308ZM94.9408 311.244C94.6448 311.244 94.3328 311.172 94.0048 311.028C93.6768 310.884 93.3728 310.68 93.0928 310.416H93.0448L92.9488 311.088H92.0728V301.536H93.1768V304.152L93.1288 305.316C93.4248 305.06 93.7488 304.844 94.1008 304.668C94.4528 304.492 94.8128 304.404 95.1808 304.404C95.7408 304.404 96.2128 304.544 96.5968 304.824C96.9808 305.096 97.2728 305.48 97.4728 305.976C97.6728 306.472 97.7728 307.056 97.7728 307.728C97.7728 308.464 97.6368 309.096 97.3648 309.624C97.1008 310.152 96.7528 310.556 96.3208 310.836C95.8968 311.108 95.4368 311.244 94.9408 311.244ZM94.7608 310.32C95.1208 310.32 95.4408 310.22 95.7208 310.02C96.0088 309.812 96.2328 309.516 96.3928 309.132C96.5528 308.74 96.6328 308.276 96.6328 307.74C96.6328 307.26 96.5728 306.84 96.4528 306.48C96.3408 306.112 96.1608 305.828 95.9128 305.628C95.6648 305.428 95.3288 305.328 94.9048 305.328C94.6328 305.328 94.3528 305.404 94.0648 305.556C93.7768 305.708 93.4808 305.928 93.1768 306.216V309.648C93.4568 309.896 93.7368 310.072 94.0168 310.176C94.3048 310.272 94.5528 310.32 94.7608 310.32Z" fill="#8F95B2"/>
<path d="M115.317 311.088V302.292H116.649L118.329 306.996C118.441 307.292 118.549 307.596 118.653 307.908C118.757 308.22 118.861 308.528 118.965 308.832H119.013C119.125 308.528 119.229 308.22 119.325 307.908C119.429 307.596 119.529 307.292 119.625 306.996L121.305 302.292H122.637V311.088H121.605V306.216C121.605 305.96 121.613 305.684 121.629 305.388C121.645 305.084 121.665 304.78 121.689 304.476C121.713 304.164 121.733 303.88 121.749 303.624H121.701L120.993 305.628L119.337 310.2H118.593L116.925 305.628L116.217 303.624H116.169C116.201 303.88 116.225 304.164 116.241 304.476C116.265 304.78 116.281 305.084 116.289 305.388C116.305 305.684 116.313 305.96 116.313 306.216V311.088H115.317ZM126.447 311.244C126.087 311.244 125.763 311.172 125.475 311.028C125.187 310.884 124.959 310.676 124.791 310.404C124.631 310.124 124.551 309.788 124.551 309.396C124.551 308.684 124.867 308.14 125.499 307.764C126.139 307.38 127.155 307.112 128.547 306.96C128.547 306.68 128.507 306.416 128.427 306.168C128.355 305.912 128.223 305.708 128.031 305.556C127.839 305.396 127.563 305.316 127.203 305.316C126.827 305.316 126.471 305.392 126.135 305.544C125.807 305.688 125.511 305.844 125.247 306.012L124.827 305.256C125.027 305.128 125.259 305 125.523 304.872C125.787 304.736 126.075 304.624 126.387 304.536C126.699 304.448 127.031 304.404 127.383 304.404C127.911 304.404 128.339 304.516 128.667 304.74C129.003 304.964 129.247 305.276 129.399 305.676C129.559 306.068 129.639 306.536 129.639 307.08V311.088H128.739L128.643 310.308H128.607C128.303 310.564 127.967 310.784 127.599 310.968C127.239 311.152 126.855 311.244 126.447 311.244ZM126.759 310.356C127.071 310.356 127.367 310.284 127.647 310.14C127.935 309.996 128.235 309.784 128.547 309.504V307.692C127.819 307.772 127.239 307.888 126.807 308.04C126.375 308.184 126.067 308.364 125.883 308.58C125.699 308.788 125.607 309.036 125.607 309.324C125.607 309.7 125.719 309.968 125.943 310.128C126.167 310.28 126.439 310.356 126.759 310.356ZM131.709 311.088V304.572H132.609L132.717 305.76H132.741C132.965 305.344 133.237 305.016 133.557 304.776C133.885 304.528 134.229 304.404 134.589 304.404C134.741 304.404 134.869 304.416 134.973 304.44C135.085 304.456 135.189 304.492 135.285 304.548L135.081 305.496C134.969 305.464 134.869 305.44 134.781 305.424C134.693 305.4 134.581 305.388 134.445 305.388C134.181 305.388 133.897 305.504 133.593 305.736C133.289 305.96 133.029 306.348 132.813 306.9V311.088H131.709Z" fill="#8F95B2"/>
<path d="M151.562 311.088L154.538 302.292H155.774L158.762 311.088H157.586L156.05 306.168C155.89 305.664 155.738 305.172 155.594 304.692C155.45 304.204 155.306 303.704 155.162 303.192H155.114C154.978 303.704 154.834 304.204 154.682 304.692C154.538 305.172 154.39 305.664 154.238 306.168L152.678 311.088H151.562ZM153.11 308.4V307.524H157.166V308.4H153.11ZM159.919 313.836V304.572H160.819L160.927 305.328H160.951C161.247 305.08 161.571 304.864 161.923 304.68C162.283 304.496 162.651 304.404 163.027 304.404C163.587 304.404 164.059 304.544 164.443 304.824C164.835 305.096 165.127 305.48 165.319 305.976C165.519 306.472 165.619 307.056 165.619 307.728C165.619 308.472 165.483 309.108 165.211 309.636C164.947 310.156 164.599 310.556 164.167 310.836C163.743 311.108 163.283 311.244 162.787 311.244C162.491 311.244 162.191 311.18 161.887 311.052C161.583 310.916 161.283 310.728 160.987 310.488L161.023 311.628V313.836H159.919ZM162.607 310.32C162.967 310.32 163.287 310.22 163.567 310.02C163.855 309.812 164.079 309.516 164.239 309.132C164.399 308.74 164.479 308.276 164.479 307.74C164.479 307.26 164.419 306.84 164.299 306.48C164.187 306.112 164.007 305.828 163.759 305.628C163.511 305.428 163.175 305.328 162.751 305.328C162.479 305.328 162.199 305.404 161.911 305.556C161.631 305.708 161.335 305.928 161.023 306.216V309.648C161.311 309.896 161.595 310.072 161.875 310.176C162.155 310.272 162.399 310.32 162.607 310.32ZM167.36 311.088V304.572H168.26L168.368 305.76H168.392C168.616 305.344 168.888 305.016 169.208 304.776C169.536 304.528 169.88 304.404 170.24 304.404C170.392 304.404 170.52 304.416 170.624 304.44C170.736 304.456 170.84 304.492 170.936 304.548L170.732 305.496C170.62 305.464 170.52 305.44 170.432 305.424C170.344 305.4 170.232 305.388 170.096 305.388C169.832 305.388 169.548 305.504 169.244 305.736C168.94 305.96 168.68 306.348 168.464 306.9V311.088H167.36Z" fill="#8F95B2"/>
<path d="M187.575 311.088V302.292H188.907L190.587 306.996C190.699 307.292 190.807 307.596 190.911 307.908C191.015 308.22 191.119 308.528 191.223 308.832H191.271C191.383 308.528 191.487 308.22 191.583 307.908C191.687 307.596 191.787 307.292 191.883 306.996L193.563 302.292H194.895V311.088H193.863V306.216C193.863 305.96 193.871 305.684 193.887 305.388C193.903 305.084 193.923 304.78 193.947 304.476C193.971 304.164 193.991 303.88 194.007 303.624H193.959L193.251 305.628L191.595 310.2H190.851L189.183 305.628L188.475 303.624H188.427C188.459 303.88 188.483 304.164 188.499 304.476C188.523 304.78 188.539 305.084 188.547 305.388C188.563 305.684 188.571 305.96 188.571 306.216V311.088H187.575ZM198.705 311.244C198.345 311.244 198.021 311.172 197.733 311.028C197.445 310.884 197.217 310.676 197.049 310.404C196.889 310.124 196.809 309.788 196.809 309.396C196.809 308.684 197.125 308.14 197.757 307.764C198.397 307.38 199.413 307.112 200.805 306.96C200.805 306.68 200.765 306.416 200.685 306.168C200.613 305.912 200.481 305.708 200.289 305.556C200.097 305.396 199.821 305.316 199.461 305.316C199.085 305.316 198.729 305.392 198.393 305.544C198.065 305.688 197.769 305.844 197.505 306.012L197.085 305.256C197.285 305.128 197.517 305 197.781 304.872C198.045 304.736 198.333 304.624 198.645 304.536C198.957 304.448 199.289 304.404 199.641 304.404C200.169 304.404 200.597 304.516 200.925 304.74C201.261 304.964 201.505 305.276 201.657 305.676C201.817 306.068 201.897 306.536 201.897 307.08V311.088H200.997L200.901 310.308H200.865C200.561 310.564 200.225 310.784 199.857 310.968C199.497 311.152 199.113 311.244 198.705 311.244ZM199.017 310.356C199.329 310.356 199.625 310.284 199.905 310.14C200.193 309.996 200.493 309.784 200.805 309.504V307.692C200.077 307.772 199.497 307.888 199.065 308.04C198.633 308.184 198.325 308.364 198.141 308.58C197.957 308.788 197.865 309.036 197.865 309.324C197.865 309.7 197.977 309.968 198.201 310.128C198.425 310.28 198.697 310.356 199.017 310.356ZM204.075 313.896C203.923 313.896 203.783 313.884 203.655 313.86C203.527 313.836 203.411 313.804 203.307 313.764L203.523 312.888C203.587 312.912 203.663 312.936 203.751 312.96C203.839 312.984 203.931 312.996 204.027 312.996C204.395 312.996 204.695 312.86 204.927 312.588C205.167 312.324 205.355 311.992 205.491 311.592L205.635 311.1L203.019 304.572H204.159L205.479 308.184C205.583 308.472 205.687 308.776 205.791 309.096C205.903 309.416 206.015 309.728 206.127 310.032H206.187C206.275 309.728 206.363 309.42 206.451 309.108C206.547 308.788 206.635 308.48 206.715 308.184L207.891 304.572H208.959L206.511 311.64C206.359 312.064 206.175 312.444 205.959 312.78C205.743 313.124 205.483 313.396 205.179 313.596C204.875 313.796 204.507 313.896 204.075 313.896Z" fill="#8F95B2"/>
<path d="M265.087 311.244C264.527 311.244 264.047 311.128 263.647 310.896C263.255 310.656 262.927 310.308 262.663 309.852L263.455 309.276C263.655 309.636 263.879 309.892 264.127 310.044C264.383 310.196 264.667 310.272 264.979 310.272C265.459 310.272 265.815 310.128 266.047 309.84C266.279 309.544 266.395 309.064 266.395 308.4V302.292H267.511V308.508C267.511 309.012 267.427 309.472 267.259 309.888C267.091 310.304 266.827 310.636 266.467 310.884C266.115 311.124 265.655 311.244 265.087 311.244ZM271.677 311.244C270.989 311.244 270.481 311.028 270.153 310.596C269.833 310.164 269.673 309.532 269.673 308.7V304.572H270.777V308.568C270.777 309.168 270.873 309.608 271.065 309.888C271.257 310.16 271.569 310.296 272.001 310.296C272.337 310.296 272.637 310.208 272.901 310.032C273.165 309.856 273.453 309.576 273.765 309.192V304.572H274.857V311.088H273.945L273.861 310.068H273.825C273.521 310.42 273.197 310.704 272.853 310.92C272.517 311.136 272.125 311.244 271.677 311.244ZM278.21 311.244C277.938 311.244 277.718 311.188 277.55 311.076C277.382 310.964 277.258 310.8 277.178 310.584C277.098 310.36 277.058 310.096 277.058 309.792V301.536H278.162V309.864C278.162 310.032 278.19 310.152 278.246 310.224C278.31 310.296 278.382 310.332 278.462 310.332C278.494 310.332 278.526 310.332 278.558 310.332C278.59 310.324 278.634 310.316 278.69 310.308L278.846 311.148C278.766 311.172 278.678 311.192 278.582 311.208C278.486 311.232 278.362 311.244 278.21 311.244Z" fill="#8F95B2"/>
<path d="M296.753 311.088L299.729 302.292H300.965L303.953 311.088H302.777L301.241 306.168C301.081 305.664 300.929 305.172 300.785 304.692C300.641 304.204 300.497 303.704 300.353 303.192H300.305C300.169 303.704 300.025 304.204 299.873 304.692C299.729 305.172 299.581 305.664 299.429 306.168L297.869 311.088H296.753ZM298.301 308.4V307.524H302.357V308.4H298.301ZM306.912 311.244C306.224 311.244 305.716 311.028 305.388 310.596C305.068 310.164 304.908 309.532 304.908 308.7V304.572H306.012V308.568C306.012 309.168 306.108 309.608 306.3 309.888C306.492 310.16 306.804 310.296 307.236 310.296C307.572 310.296 307.872 310.208 308.136 310.032C308.4 309.856 308.688 309.576 309 309.192V304.572H310.092V311.088H309.18L309.096 310.068H309.06C308.756 310.42 308.432 310.704 308.088 310.92C307.752 311.136 307.36 311.244 306.912 311.244ZM314.489 314.088C313.961 314.088 313.493 314.02 313.085 313.884C312.677 313.748 312.361 313.548 312.137 313.284C311.913 313.028 311.801 312.716 311.801 312.348C311.801 312.068 311.885 311.796 312.053 311.532C312.221 311.276 312.457 311.056 312.761 310.872V310.812C312.593 310.708 312.453 310.568 312.341 310.392C312.229 310.216 312.173 310 312.173 309.744C312.173 309.472 312.249 309.232 312.401 309.024C312.561 308.816 312.725 308.652 312.893 308.532V308.484C312.677 308.316 312.481 308.08 312.305 307.776C312.129 307.472 312.041 307.124 312.041 306.732C312.041 306.252 312.153 305.84 312.377 305.496C312.601 305.144 312.897 304.876 313.265 304.692C313.641 304.5 314.045 304.404 314.477 304.404C314.669 304.404 314.841 304.42 314.993 304.452C315.153 304.484 315.289 304.524 315.401 304.572H317.669V305.412H316.337C316.497 305.564 316.625 305.756 316.721 305.988C316.817 306.22 316.865 306.476 316.865 306.756C316.865 307.22 316.757 307.624 316.541 307.968C316.333 308.304 316.049 308.564 315.689 308.748C315.329 308.932 314.925 309.024 314.477 309.024C314.325 309.024 314.161 309.004 313.985 308.964C313.817 308.924 313.661 308.868 313.517 308.796C313.397 308.892 313.297 309 313.217 309.12C313.137 309.24 313.097 309.392 313.097 309.576C313.097 309.776 313.177 309.944 313.337 310.08C313.497 310.216 313.797 310.284 314.237 310.284H315.521C316.273 310.284 316.837 310.408 317.213 310.656C317.597 310.904 317.789 311.296 317.789 311.832C317.789 312.232 317.653 312.604 317.381 312.948C317.109 313.292 316.725 313.568 316.229 313.776C315.741 313.984 315.161 314.088 314.489 314.088ZM314.477 308.28C314.733 308.28 314.965 308.216 315.173 308.088C315.389 307.96 315.557 307.78 315.677 307.548C315.805 307.316 315.869 307.044 315.869 306.732C315.869 306.412 315.805 306.14 315.677 305.916C315.557 305.684 315.393 305.508 315.185 305.388C314.977 305.268 314.741 305.208 314.477 305.208C314.229 305.208 313.997 305.268 313.781 305.388C313.573 305.508 313.405 305.68 313.277 305.904C313.157 306.128 313.097 306.404 313.097 306.732C313.097 307.044 313.161 307.316 313.289 307.548C313.417 307.78 313.585 307.96 313.793 308.088C314.001 308.216 314.229 308.28 314.477 308.28ZM314.645 313.332C315.061 313.332 315.421 313.268 315.725 313.14C316.037 313.012 316.277 312.844 316.445 312.636C316.621 312.436 316.709 312.228 316.709 312.012C316.709 311.7 316.597 311.484 316.373 311.364C316.149 311.244 315.821 311.184 315.389 311.184H314.261C314.141 311.184 314.005 311.176 313.853 311.16C313.709 311.152 313.565 311.128 313.421 311.088C313.189 311.248 313.021 311.424 312.917 311.616C312.813 311.816 312.761 312.008 312.761 312.192C312.761 312.536 312.925 312.812 313.253 313.02C313.589 313.228 314.053 313.332 314.645 313.332Z" fill="#8F95B2"/>
<path d="M336.895 311.244C336.271 311.244 335.695 311.128 335.167 310.896C334.647 310.664 334.199 310.348 333.823 309.948L334.483 309.18C334.795 309.508 335.163 309.772 335.587 309.972C336.011 310.172 336.451 310.272 336.907 310.272C337.491 310.272 337.943 310.14 338.263 309.876C338.591 309.612 338.755 309.268 338.755 308.844C338.755 308.532 338.687 308.284 338.551 308.1C338.423 307.916 338.247 307.764 338.023 307.644C337.807 307.516 337.559 307.392 337.279 307.272L336.019 306.72C335.747 306.6 335.471 306.448 335.191 306.264C334.919 306.08 334.691 305.84 334.507 305.544C334.323 305.248 334.231 304.888 334.231 304.464C334.231 304.008 334.351 303.608 334.591 303.264C334.831 302.912 335.159 302.636 335.575 302.436C335.991 302.236 336.467 302.136 337.003 302.136C337.531 302.136 338.015 302.236 338.455 302.436C338.903 302.636 339.279 302.896 339.583 303.216L339.007 303.924C338.735 303.676 338.435 303.48 338.107 303.336C337.787 303.184 337.419 303.108 337.003 303.108C336.507 303.108 336.107 303.224 335.803 303.456C335.507 303.68 335.359 303.988 335.359 304.38C335.359 304.668 335.431 304.904 335.575 305.088C335.727 305.272 335.915 305.42 336.139 305.532C336.363 305.644 336.591 305.752 336.823 305.856L338.071 306.396C338.407 306.54 338.711 306.712 338.983 306.912C339.263 307.112 339.483 307.36 339.643 307.656C339.803 307.952 339.883 308.316 339.883 308.748C339.883 309.212 339.763 309.636 339.523 310.02C339.283 310.396 338.939 310.696 338.491 310.92C338.043 311.136 337.511 311.244 336.895 311.244ZM344.14 311.244C343.556 311.244 343.028 311.108 342.556 310.836C342.084 310.564 341.708 310.176 341.428 309.672C341.156 309.16 341.02 308.548 341.02 307.836C341.02 307.3 341.1 306.824 341.26 306.408C341.42 305.984 341.636 305.624 341.908 305.328C342.188 305.024 342.504 304.796 342.856 304.644C343.208 304.484 343.568 304.404 343.936 304.404C344.496 304.404 344.968 304.528 345.352 304.776C345.736 305.024 346.028 305.38 346.228 305.844C346.436 306.3 346.54 306.84 346.54 307.464C346.54 307.584 346.536 307.696 346.528 307.8C346.52 307.904 346.508 308 346.492 308.088H342.1C342.124 308.552 342.228 308.956 342.412 309.3C342.604 309.636 342.856 309.9 343.168 310.092C343.48 310.276 343.844 310.368 344.26 310.368C344.58 310.368 344.868 310.324 345.124 310.236C345.388 310.14 345.644 310.012 345.892 309.852L346.276 310.584C345.996 310.768 345.68 310.924 345.328 311.052C344.976 311.18 344.58 311.244 344.14 311.244ZM342.088 307.308H345.58C345.58 306.652 345.436 306.152 345.148 305.808C344.868 305.456 344.472 305.28 343.96 305.28C343.656 305.28 343.368 305.36 343.096 305.52C342.832 305.68 342.608 305.908 342.424 306.204C342.248 306.5 342.136 306.868 342.088 307.308ZM348.144 313.836V304.572H349.044L349.152 305.328H349.176C349.472 305.08 349.796 304.864 350.148 304.68C350.508 304.496 350.876 304.404 351.252 304.404C351.812 304.404 352.284 304.544 352.668 304.824C353.06 305.096 353.352 305.48 353.544 305.976C353.744 306.472 353.844 307.056 353.844 307.728C353.844 308.472 353.708 309.108 353.436 309.636C353.172 310.156 352.824 310.556 352.392 310.836C351.968 311.108 351.508 311.244 351.012 311.244C350.716 311.244 350.416 311.18 350.112 311.052C349.808 310.916 349.508 310.728 349.212 310.488L349.248 311.628V313.836H348.144ZM350.832 310.32C351.192 310.32 351.512 310.22 351.792 310.02C352.08 309.812 352.304 309.516 352.464 309.132C352.624 308.74 352.704 308.276 352.704 307.74C352.704 307.26 352.644 306.84 352.524 306.48C352.412 306.112 352.232 305.828 351.984 305.628C351.736 305.428 351.4 305.328 350.976 305.328C350.704 305.328 350.424 305.404 350.136 305.556C349.856 305.708 349.56 305.928 349.248 306.216V309.648C349.536 309.896 349.82 310.072 350.1 310.176C350.38 310.272 350.624 310.32 350.832 310.32Z" fill="#8F95B2"/>
<path d="M375.156 311.244C374.42 311.244 373.768 311.06 373.2 310.692C372.64 310.316 372.2 309.784 371.88 309.096C371.56 308.408 371.4 307.596 371.4 306.66C371.4 305.716 371.56 304.908 371.88 304.236C372.2 303.556 372.64 303.036 373.2 302.676C373.768 302.316 374.42 302.136 375.156 302.136C375.892 302.136 376.54 302.32 377.1 302.688C377.668 303.048 378.112 303.564 378.432 304.236C378.752 304.908 378.912 305.716 378.912 306.66C378.912 307.596 378.752 308.408 378.432 309.096C378.112 309.784 377.668 310.316 377.1 310.692C376.54 311.06 375.892 311.244 375.156 311.244ZM375.156 310.272C375.684 310.272 376.144 310.124 376.536 309.828C376.928 309.532 377.232 309.112 377.448 308.568C377.664 308.024 377.772 307.388 377.772 306.66C377.772 305.924 377.664 305.292 377.448 304.764C377.232 304.228 376.928 303.82 376.536 303.54C376.144 303.252 375.684 303.108 375.156 303.108C374.636 303.108 374.176 303.252 373.776 303.54C373.384 303.82 373.08 304.228 372.864 304.764C372.648 305.292 372.54 305.924 372.54 306.66C372.54 307.388 372.648 308.024 372.864 308.568C373.08 309.112 373.384 309.532 373.776 309.828C374.176 310.124 374.636 310.272 375.156 310.272ZM383.282 311.244C382.706 311.244 382.186 311.112 381.722 310.848C381.266 310.576 380.902 310.188 380.63 309.684C380.366 309.172 380.234 308.556 380.234 307.836C380.234 307.108 380.378 306.492 380.666 305.988C380.954 305.476 381.338 305.084 381.818 304.812C382.298 304.54 382.814 304.404 383.366 304.404C383.79 304.404 384.154 304.48 384.458 304.632C384.77 304.784 385.038 304.964 385.262 305.172L384.71 305.892C384.526 305.724 384.326 305.588 384.11 305.484C383.902 305.38 383.67 305.328 383.414 305.328C383.022 305.328 382.67 305.432 382.358 305.64C382.046 305.848 381.802 306.14 381.626 306.516C381.45 306.892 381.362 307.332 381.362 307.836C381.362 308.332 381.446 308.768 381.614 309.144C381.79 309.52 382.026 309.812 382.322 310.02C382.626 310.228 382.978 310.332 383.378 310.332C383.682 310.332 383.962 310.272 384.218 310.152C384.474 310.024 384.706 309.868 384.914 309.684L385.394 310.428C385.098 310.684 384.77 310.884 384.41 311.028C384.05 311.172 383.674 311.244 383.282 311.244ZM388.707 311.244C388.251 311.244 387.887 311.156 387.615 310.98C387.343 310.796 387.147 310.54 387.027 310.212C386.915 309.884 386.859 309.504 386.859 309.072V305.46H385.887V304.632L386.919 304.572L387.039 302.736H387.951V304.572H389.727V305.46H387.951V309.108C387.951 309.5 388.023 309.808 388.167 310.032C388.319 310.248 388.583 310.356 388.959 310.356C389.079 310.356 389.207 310.34 389.343 310.308C389.479 310.268 389.599 310.224 389.703 310.176L389.919 311.004C389.735 311.068 389.539 311.124 389.331 311.172C389.123 311.22 388.915 311.244 388.707 311.244Z" fill="#8F95B2"/>
<path d="M407.075 311.088V302.292H408.203L411.419 307.836L412.367 309.648H412.427C412.387 309.208 412.351 308.748 412.319 308.268C412.287 307.788 412.271 307.32 412.271 306.864V302.292H413.327V311.088H412.187L408.983 305.532L408.035 303.732H407.987C408.011 304.172 408.039 304.624 408.071 305.088C408.103 305.544 408.119 306.004 408.119 306.468V311.088H407.075ZM418.171 311.244C417.643 311.244 417.147 311.112 416.683 310.848C416.219 310.576 415.847 310.188 415.567 309.684C415.295 309.172 415.159 308.556 415.159 307.836C415.159 307.108 415.295 306.492 415.567 305.988C415.847 305.476 416.219 305.084 416.683 304.812C417.147 304.54 417.643 304.404 418.171 304.404C418.571 304.404 418.951 304.48 419.311 304.632C419.679 304.784 420.003 305.008 420.283 305.304C420.563 305.6 420.783 305.96 420.943 306.384C421.103 306.808 421.183 307.292 421.183 307.836C421.183 308.556 421.043 309.172 420.763 309.684C420.483 310.188 420.115 310.576 419.659 310.848C419.203 311.112 418.707 311.244 418.171 311.244ZM418.171 310.332C418.547 310.332 418.875 310.228 419.155 310.02C419.443 309.812 419.667 309.52 419.827 309.144C419.987 308.768 420.067 308.332 420.067 307.836C420.067 307.332 419.987 306.892 419.827 306.516C419.667 306.14 419.443 305.848 419.155 305.64C418.875 305.432 418.547 305.328 418.171 305.328C417.795 305.328 417.463 305.432 417.175 305.64C416.895 305.848 416.675 306.14 416.515 306.516C416.363 306.892 416.287 307.332 416.287 307.836C416.287 308.332 416.363 308.768 416.515 309.144C416.675 309.52 416.895 309.812 417.175 310.02C417.463 310.228 417.795 310.332 418.171 310.332ZM424.238 311.088L421.886 304.572H423.026L424.25 308.28C424.354 308.6 424.454 308.924 424.55 309.252C424.654 309.572 424.754 309.888 424.85 310.2H424.91C425.014 309.888 425.114 309.572 425.21 309.252C425.314 308.924 425.414 308.6 425.51 308.28L426.746 304.572H427.826L425.522 311.088H424.238Z" fill="#8F95B2"/>
<path d="M444.156 311.088V302.292H446.352C447.256 302.292 448.016 302.464 448.632 302.808C449.248 303.144 449.712 303.636 450.024 304.284C450.336 304.932 450.492 305.724 450.492 306.66C450.492 307.588 450.336 308.384 450.024 309.048C449.712 309.712 449.252 310.22 448.644 310.572C448.036 310.916 447.288 311.088 446.4 311.088H444.156ZM445.26 310.176H446.256C446.944 310.176 447.516 310.04 447.972 309.768C448.436 309.488 448.78 309.084 449.004 308.556C449.236 308.028 449.352 307.396 449.352 306.66C449.352 305.908 449.236 305.276 449.004 304.764C448.78 304.252 448.436 303.864 447.972 303.6C447.516 303.328 446.944 303.192 446.256 303.192H445.26V310.176ZM454.95 311.244C454.366 311.244 453.838 311.108 453.366 310.836C452.894 310.564 452.518 310.176 452.238 309.672C451.966 309.16 451.83 308.548 451.83 307.836C451.83 307.3 451.91 306.824 452.07 306.408C452.23 305.984 452.446 305.624 452.718 305.328C452.998 305.024 453.314 304.796 453.666 304.644C454.018 304.484 454.378 304.404 454.746 304.404C455.306 304.404 455.778 304.528 456.162 304.776C456.546 305.024 456.838 305.38 457.038 305.844C457.246 306.3 457.35 306.84 457.35 307.464C457.35 307.584 457.346 307.696 457.338 307.8C457.33 307.904 457.318 308 457.302 308.088H452.91C452.934 308.552 453.038 308.956 453.222 309.3C453.414 309.636 453.666 309.9 453.978 310.092C454.29 310.276 454.654 310.368 455.07 310.368C455.39 310.368 455.678 310.324 455.934 310.236C456.198 310.14 456.454 310.012 456.702 309.852L457.086 310.584C456.806 310.768 456.49 310.924 456.138 311.052C455.786 311.18 455.39 311.244 454.95 311.244ZM452.898 307.308H456.39C456.39 306.652 456.246 306.152 455.958 305.808C455.678 305.456 455.282 305.28 454.77 305.28C454.466 305.28 454.178 305.36 453.906 305.52C453.642 305.68 453.418 305.908 453.234 306.204C453.058 306.5 452.946 306.868 452.898 307.308ZM461.523 311.244C460.947 311.244 460.427 311.112 459.963 310.848C459.507 310.576 459.143 310.188 458.871 309.684C458.607 309.172 458.475 308.556 458.475 307.836C458.475 307.108 458.619 306.492 458.907 305.988C459.195 305.476 459.579 305.084 460.059 304.812C460.539 304.54 461.055 304.404 461.607 304.404C462.031 304.404 462.395 304.48 462.699 304.632C463.011 304.784 463.279 304.964 463.503 305.172L462.951 305.892C462.767 305.724 462.567 305.588 462.351 305.484C462.143 305.38 461.911 305.328 461.655 305.328C461.263 305.328 460.911 305.432 460.599 305.64C460.287 305.848 460.043 306.14 459.867 306.516C459.691 306.892 459.603 307.332 459.603 307.836C459.603 308.332 459.687 308.768 459.855 309.144C460.031 309.52 460.267 309.812 460.563 310.02C460.867 310.228 461.219 310.332 461.619 310.332C461.923 310.332 462.203 310.272 462.459 310.152C462.715 310.024 462.947 309.868 463.155 309.684L463.635 310.428C463.339 310.684 463.011 310.884 462.651 311.028C462.291 311.172 461.915 311.244 461.523 311.244Z" fill="#8F95B2"/>
<path d="M226.599 311.244C226.039 311.244 225.559 311.128 225.159 310.896C224.767 310.656 224.439 310.308 224.175 309.852L224.967 309.276C225.167 309.636 225.391 309.892 225.639 310.044C225.895 310.196 226.179 310.272 226.491 310.272C226.971 310.272 227.327 310.128 227.559 309.84C227.791 309.544 227.907 309.064 227.907 308.4V302.292H229.023V308.508C229.023 309.012 228.939 309.472 228.771 309.888C228.603 310.304 228.339 310.636 227.979 310.884C227.627 311.124 227.167 311.244 226.599 311.244ZM233.189 311.244C232.501 311.244 231.993 311.028 231.665 310.596C231.345 310.164 231.185 309.532 231.185 308.7V304.572H232.289V308.568C232.289 309.168 232.385 309.608 232.577 309.888C232.769 310.16 233.081 310.296 233.513 310.296C233.849 310.296 234.149 310.208 234.413 310.032C234.677 309.856 234.965 309.576 235.277 309.192V304.572H236.369V311.088H235.457L235.373 310.068H235.337C235.033 310.42 234.709 310.704 234.365 310.92C234.029 311.136 233.637 311.244 233.189 311.244ZM238.57 311.088V304.572H239.47L239.578 305.52H239.602C239.914 305.208 240.242 304.944 240.586 304.728C240.938 304.512 241.338 304.404 241.786 304.404C242.474 304.404 242.978 304.624 243.298 305.064C243.618 305.496 243.778 306.128 243.778 306.96V311.088H242.686V307.104C242.686 306.488 242.586 306.044 242.386 305.772C242.194 305.5 241.882 305.364 241.45 305.364C241.114 305.364 240.814 305.448 240.55 305.616C240.286 305.784 239.994 306.032 239.674 306.36V311.088H238.57Z" fill="#8F95B2"/>
<circle cx="234.559" cy="166.164" r="4" fill="url(#paint3_linear_37_5361)"/>
<circle cx="234.559" cy="166.164" r="2" fill="white"/>
<path d="M247.533 162.224L244.947 164.81C244.166 165.591 244.166 166.857 244.947 167.638L247.533 170.224V162.224Z" fill="#081735"/>
<rect x="247.533" y="151.224" width="62" height="30" rx="6" fill="#081735"/>
<path d="M265.813 172.42C268.011 172.42 269.215 171.16 269.215 169.368C269.215 166.232 264.945 166.498 264.945 164.776C264.945 164.006 265.421 163.614 266.247 163.614C266.961 163.614 267.451 163.894 268.025 164.44L269.061 163.25C268.347 162.48 267.479 161.948 266.135 161.948C264.217 161.948 262.985 163.082 262.985 164.874C262.985 167.8 267.241 167.618 267.241 169.522C267.241 170.306 266.779 170.754 265.813 170.754C265.001 170.754 264.273 170.39 263.503 169.788L262.579 171.174C263.433 171.958 264.777 172.42 265.813 172.42ZM265.365 173.974H266.751V171.594H265.365V173.974ZM265.365 162.606H266.751V160.38H265.365V162.606ZM274.883 172.224H276.801V162.13H274.323L270.473 168.304V169.718H278.033V168.136H272.475L274.071 165.602C274.365 165.028 274.645 164.51 274.911 163.964H274.967C274.939 164.566 274.883 165.532 274.883 166.134V172.224ZM281.027 172.224H283.113C283.295 168.29 283.659 166.274 286.011 163.404V162.13H279.137V163.866H283.799C281.867 166.54 281.223 168.752 281.027 172.224ZM287.801 172.224H289.817V170.25L290.923 168.976L292.827 172.224H295.053L292.127 167.618L294.815 164.398H292.547L289.887 167.758H289.817V161.066H287.801V172.224Z" fill="white"/>
<circle cx="378.264" cy="197.992" r="4" fill="url(#paint4_linear_37_5361)"/>
<circle cx="378.264" cy="197.992" r="2" fill="white"/>
<path d="M391.238 194.051L388.652 196.637C387.871 197.418 387.871 198.684 388.652 199.465L391.238 202.051V194.051Z" fill="#081735"/>
<rect x="391.238" y="183.051" width="62" height="30" rx="6" fill="#081735"/>
<path d="M409.518 204.247C411.716 204.247 412.92 202.987 412.92 201.195C412.92 198.059 408.65 198.325 408.65 196.603C408.65 195.833 409.126 195.441 409.952 195.441C410.666 195.441 411.156 195.721 411.73 196.267L412.766 195.077C412.052 194.307 411.184 193.775 409.84 193.775C407.922 193.775 406.69 194.909 406.69 196.701C406.69 199.627 410.946 199.445 410.946 201.349C410.946 202.133 410.484 202.581 409.518 202.581C408.706 202.581 407.978 202.217 407.208 201.615L406.284 203.001C407.138 203.785 408.482 204.247 409.518 204.247ZM409.07 205.801H410.456V203.421H409.07V205.801ZM409.07 194.433H410.456V192.207H409.07V194.433ZM414.472 204.051H421.416V202.315H419.148C418.658 202.315 417.972 202.385 417.454 202.441C419.302 200.509 420.94 198.675 420.94 196.925C420.94 195.007 419.624 193.775 417.678 193.775C416.264 193.775 415.326 194.321 414.374 195.343L415.508 196.463C416.04 195.903 416.642 195.385 417.412 195.385C418.406 195.385 418.952 196.001 418.952 197.023C418.952 198.535 417.174 200.285 414.472 202.875V204.051ZM424.732 204.051H426.818C427 200.117 427.364 198.101 429.716 195.231V193.957H422.842V195.693H427.504C425.572 198.367 424.928 200.579 424.732 204.051ZM431.506 204.051H433.522V202.077L434.628 200.803L436.532 204.051H438.758L435.832 199.445L438.52 196.225H436.252L433.592 199.585H433.522V192.893H431.506V204.051Z" fill="white"/>
<circle cx="124.785" cy="202.965" r="4" fill="url(#paint5_linear_37_5361)"/>
<circle cx="124.785" cy="202.965" r="2" fill="white"/>
<path d="M137.758 199.024L135.172 201.61C134.391 202.391 134.391 203.657 135.172 204.438L137.758 207.024V199.024Z" fill="#081735"/>
<rect x="137.758" y="188.024" width="62" height="30" rx="6" fill="#081735"/>
<path d="M156.039 209.22C158.237 209.22 159.441 207.96 159.441 206.168C159.441 203.032 155.171 203.298 155.171 201.576C155.171 200.806 155.647 200.414 156.473 200.414C157.187 200.414 157.677 200.694 158.251 201.24L159.287 200.05C158.573 199.28 157.705 198.748 156.361 198.748C154.443 198.748 153.211 199.882 153.211 201.674C153.211 204.6 157.467 204.418 157.467 206.322C157.467 207.106 157.005 207.554 156.039 207.554C155.227 207.554 154.499 207.19 153.729 206.588L152.805 207.974C153.659 208.758 155.003 209.22 156.039 209.22ZM155.591 210.774H156.977V208.394H155.591V210.774ZM155.591 199.406H156.977V197.18H155.591V199.406ZM161.539 209.024H167.783V207.358H165.837V198.93H164.311C163.639 199.336 162.939 199.602 161.889 199.812V201.086H163.779V207.358H161.539V209.024ZM169.251 209.024H176.195V207.288H173.927C173.437 207.288 172.751 207.358 172.233 207.414C174.081 205.482 175.719 203.648 175.719 201.898C175.719 199.98 174.403 198.748 172.457 198.748C171.043 198.748 170.105 199.294 169.153 200.316L170.287 201.436C170.819 200.876 171.421 200.358 172.191 200.358C173.185 200.358 173.731 200.974 173.731 201.996C173.731 203.508 171.953 205.258 169.251 207.848V209.024ZM178.026 209.024H180.042V207.05L181.148 205.776L183.052 209.024H185.278L182.352 204.418L185.04 201.198H182.772L180.112 204.558H180.042V197.866H178.026V209.024Z" fill="white"/>
<rect x="40" y="338.21" width="12" height="11.9353" rx="4" fill="url(#paint6_linear_37_5361)"/>
<path d="M68.9504 342.48V343.308H75.2384V342.48H68.9504ZM68.3864 346.992V347.832H75.7784V346.992H68.3864ZM68.2424 344.832V345.66H75.8624V344.832H68.2424ZM71.5904 340.98V345.264H72.4784V340.98H71.5904ZM73.2704 345.48V350.868C73.2704 351.036 73.2104 351.084 73.0184 351.096C72.8264 351.108 72.1664 351.108 71.4464 351.084C71.5664 351.336 71.6984 351.696 71.7464 351.948C72.6824 351.948 73.2824 351.936 73.6784 351.804C74.0504 351.66 74.1584 351.408 74.1584 350.88V345.48H73.2704ZM69.2984 348.564C69.8504 349.212 70.4624 350.112 70.7144 350.688L71.4824 350.244C71.2184 349.656 70.5944 348.792 70.0304 348.168L69.2984 348.564ZM67.5704 343.596C66.8864 344.844 65.7464 346.08 64.6544 346.872C64.8104 347.076 65.0624 347.556 65.1464 347.748C66.3104 346.8 67.5704 345.348 68.3744 343.92L67.5704 343.596ZM67.3784 340.956C66.8504 341.808 65.7824 342.804 64.8344 343.428C64.9784 343.608 65.2064 343.956 65.3024 344.16C66.3704 343.452 67.5104 342.324 68.2184 341.292L67.3784 340.956ZM66.5264 345.72V351.96H67.3904V344.892L67.3664 344.868L66.5264 345.72ZM78.8504 344.628V345.492H85.8464V344.628H78.8504ZM82.3064 347.46V348.312H86.3504V347.46H82.3064ZM81.8264 345.036V350.988L82.7624 351.108V345.036H81.8264ZM79.0064 346.464C78.7424 348.648 78.0944 350.364 76.7504 351.396C76.9664 351.54 77.3384 351.84 77.4824 351.996C78.8384 350.808 79.5824 348.984 79.9184 346.56L79.0064 346.464ZM79.5704 348L78.8384 348.288C79.8704 351.216 81.8264 351.768 84.6824 351.768H87.4904C87.5384 351.504 87.6944 351.084 87.8384 350.856C87.2504 350.88 85.1744 350.88 84.7304 350.88C82.2944 350.868 80.4224 350.448 79.5704 348ZM77.3024 342.276V344.904H78.1904V343.14H86.4104V344.904H87.3344V342.276H77.3024ZM81.4184 341.1C81.7064 341.58 81.9824 342.216 82.0904 342.612L83.0264 342.324C82.9064 341.916 82.5944 341.304 82.3064 340.848L81.4184 341.1ZM96.6584 346.44C96.6584 348.792 97.6064 350.688 99.0464 352.152L99.7664 351.78C98.3744 350.352 97.5224 348.588 97.5224 346.44C97.5224 344.304 98.3744 342.54 99.7664 341.112L99.0464 340.74C97.6064 342.204 96.6584 344.1 96.6584 346.44ZM101.374 351H106.198V350.088H104.422V342.204H103.582C103.114 342.492 102.55 342.696 101.758 342.828V343.536H103.33V350.088H101.374V351ZM110.311 351.168C111.967 351.168 113.035 349.644 113.035 346.572C113.035 343.524 111.967 342.048 110.311 342.048C108.631 342.048 107.563 343.524 107.563 346.572C107.563 349.644 108.631 351.168 110.311 351.168ZM110.311 350.28C109.303 350.28 108.619 349.164 108.619 346.572C108.619 344.016 109.303 342.924 110.311 342.924C111.307 342.924 111.979 344.016 111.979 346.572C111.979 349.164 111.307 350.28 110.311 350.28ZM116.091 347.592C117.303 347.592 118.095 346.584 118.095 344.808C118.095 343.044 117.303 342.048 116.091 342.048C114.879 342.048 114.087 343.044 114.087 344.808C114.087 346.584 114.879 347.592 116.091 347.592ZM116.091 346.92C115.395 346.92 114.915 346.2 114.915 344.808C114.915 343.404 115.395 342.72 116.091 342.72C116.787 342.72 117.255 343.404 117.255 344.808C117.255 346.2 116.787 346.92 116.091 346.92ZM116.343 351.168H117.087L121.935 342.048H121.191L116.343 351.168ZM122.223 351.168C123.411 351.168 124.215 350.16 124.215 348.372C124.215 346.62 123.411 345.612 122.223 345.612C121.011 345.612 120.219 346.62 120.219 348.372C120.219 350.16 121.011 351.168 122.223 351.168ZM122.223 350.496C121.527 350.496 121.047 349.776 121.047 348.372C121.047 346.968 121.527 346.296 122.223 346.296C122.907 346.296 123.387 346.968 123.387 348.372C123.387 349.776 122.907 350.496 122.223 350.496ZM128.33 346.44C128.33 344.1 127.382 342.204 125.942 340.74L125.222 341.112C126.614 342.54 127.466 344.304 127.466 346.44C127.466 348.588 126.614 350.352 125.222 351.78L125.942 352.152C127.382 350.688 128.33 348.792 128.33 346.44Z" fill="#8F95B2"/>
<rect x="157" y="338.21" width="12" height="11.9353" rx="4" fill="url(#paint7_linear_37_5361)"/>
<path d="M196.004 343.752V349.776C196.004 351.276 196.616 351.624 198.572 351.624C199.016 351.624 202.592 351.624 203.084 351.624C205.064 351.624 205.448 350.976 205.688 348.756C205.412 348.708 205.016 348.552 204.764 348.384C204.608 350.328 204.404 350.736 203.084 350.736C202.28 350.736 199.148 350.736 198.512 350.736C197.192 350.736 196.928 350.556 196.928 349.8V343.752H196.004ZM196.508 345.72V346.62H203.588V345.72H196.508ZM195.38 341.676V342.564H203.228V347.208H204.152V341.676H195.38ZM209.792 346.176V346.932H214.676V346.176H209.792ZM208.256 341.988V342.732H211.976V341.988H208.256ZM212.852 341.988V342.732H217.52V341.988H212.852ZM208.484 340.872C208.1 342.06 207.452 343.236 206.696 344.016C206.912 344.124 207.284 344.364 207.44 344.508C208.16 343.656 208.88 342.372 209.324 341.088L208.484 340.872ZM213.152 340.872C212.828 341.736 212.288 342.588 211.64 343.164C211.856 343.284 212.216 343.512 212.384 343.656C213.008 343.032 213.632 342.06 213.992 341.076L213.152 340.872ZM209.072 342.576C209.384 343.116 209.72 343.848 209.852 344.304L210.656 344.064C210.524 343.608 210.176 342.9 209.852 342.372L209.072 342.576ZM214.112 342.552C214.544 343.092 215 343.848 215.192 344.316L216.032 344.1C215.84 343.608 215.36 342.888 214.904 342.36L214.112 342.552ZM212.648 343.872L212 344.196C213.224 345.432 215.408 346.632 217.244 347.172C217.376 346.944 217.628 346.608 217.832 346.428C215.984 345.972 213.776 344.916 212.648 343.872ZM212.288 343.32C211.076 344.76 208.784 345.948 206.684 346.572C206.888 346.752 207.092 347.064 207.224 347.28C209.384 346.56 211.652 345.264 213.02 343.68L212.288 343.32ZM207.02 350.844V351.648H217.472V350.844H207.02ZM215.36 347.448C214.82 348.696 214.04 350.136 213.296 351.072C213.512 351.168 213.872 351.384 214.052 351.516C214.748 350.532 215.576 349.008 216.176 347.676L215.36 347.448ZM211.34 347.652C211.772 348.432 212.24 349.464 212.408 350.1L213.164 349.788C212.984 349.164 212.504 348.144 212.06 347.388L211.34 347.652ZM208.364 347.988C208.892 348.72 209.456 349.704 209.684 350.328L210.44 349.944C210.2 349.332 209.612 348.384 209.096 347.664L208.364 347.988ZM226.064 342.06H228.092V343.224H226.064V342.06ZM223.232 342.06H225.224V343.224H223.232V342.06ZM220.484 342.06H222.404V343.224H220.484V342.06ZM219.62 341.4V343.884H228.98V341.4H219.62ZM218.936 346.356V347.1H229.616V346.356H218.936ZM220.136 344.724V345.444H227.048V344.724H220.136ZM221.912 349.38V350.004H227.996V349.38H221.912ZM221.888 350.88V351.564H227.984V350.88H221.888ZM228.272 344.292C226.124 346.44 222.332 347.94 218.672 348.732C218.816 348.912 219.044 349.308 219.128 349.5C222.788 348.6 226.64 347.064 228.992 344.748L228.272 344.292ZM223.46 343.884V346.704H224.336V343.884H223.46ZM222.296 347.916H221.972L221.456 348.432V351.948H222.296V348.588H228.068V347.916H222.296ZM227.636 347.916V351.924H228.5V347.916H227.636ZM233.24 344.844V345.684H239.3V344.844H233.24ZM233.024 350.424V351.276H239.456V350.424H233.024ZM232.616 347.124V351.936H233.516V347.94H239.12V351.9H240.068V347.124H232.616ZM236.456 340.896C235.232 342.756 233.024 344.352 230.732 345.252C230.984 345.468 231.236 345.804 231.392 346.044C233.708 345.024 235.916 343.296 237.248 341.292L236.456 340.896ZM236.636 341.592L235.868 341.988C237.464 343.812 239.204 344.952 241.256 345.936C241.388 345.66 241.652 345.324 241.88 345.12C239.864 344.268 238.1 343.212 236.636 341.592ZM245.228 343.656V344.448H251.336V343.656H245.228ZM245.84 345.708V350.4H246.68V345.708H245.84ZM246.296 345.708V346.464H249.848V348.744H246.296V349.524H250.688V345.708H246.296ZM243.308 341.544V351.984H244.184V342.408H252.896V341.544H243.308ZM252.344 341.544V350.82C252.344 351.024 252.272 351.096 252.056 351.108C251.852 351.12 251.144 351.12 250.388 351.096C250.532 351.336 250.676 351.732 250.712 351.972C251.756 351.984 252.356 351.96 252.716 351.804C253.088 351.66 253.232 351.384 253.232 350.82V341.544H252.344ZM257.132 353.364L257.804 353.052C256.772 351.348 256.268 349.32 256.268 347.28C256.268 345.24 256.772 343.212 257.804 341.508L257.132 341.184C256.016 342.984 255.356 344.928 255.356 347.28C255.356 349.644 256.016 351.564 257.132 353.364ZM260.682 351H261.822C261.966 347.568 262.338 345.516 264.402 342.864V342.204H258.906V343.14H263.166C261.438 345.54 260.838 347.676 260.682 351ZM268.311 351.168C269.967 351.168 271.035 349.644 271.035 346.572C271.035 343.524 269.967 342.048 268.311 342.048C266.631 342.048 265.563 343.524 265.563 346.572C265.563 349.644 266.631 351.168 268.311 351.168ZM268.311 350.28C267.303 350.28 266.619 349.164 266.619 346.572C266.619 344.016 267.303 342.924 268.311 342.924C269.307 342.924 269.979 344.016 269.979 346.572C269.979 349.164 269.307 350.28 268.311 350.28ZM274.091 347.592C275.303 347.592 276.095 346.584 276.095 344.808C276.095 343.044 275.303 342.048 274.091 342.048C272.879 342.048 272.087 343.044 272.087 344.808C272.087 346.584 272.879 347.592 274.091 347.592ZM274.091 346.92C273.395 346.92 272.915 346.2 272.915 344.808C272.915 343.404 273.395 342.72 274.091 342.72C274.787 342.72 275.255 343.404 275.255 344.808C275.255 346.2 274.787 346.92 274.091 346.92ZM274.343 351.168H275.087L279.935 342.048H279.191L274.343 351.168ZM280.223 351.168C281.411 351.168 282.215 350.16 282.215 348.372C282.215 346.62 281.411 345.612 280.223 345.612C279.011 345.612 278.219 346.62 278.219 348.372C278.219 350.16 279.011 351.168 280.223 351.168ZM280.223 350.496C279.527 350.496 279.047 349.776 279.047 348.372C279.047 346.968 279.527 346.296 280.223 346.296C280.907 346.296 281.387 346.968 281.387 348.372C281.387 349.776 280.907 350.496 280.223 350.496ZM283.87 353.364C284.974 351.564 285.634 349.644 285.634 347.28C285.634 344.928 284.974 342.984 283.87 341.184L283.186 341.508C284.218 343.212 284.722 345.24 284.722 347.28C284.722 349.32 284.218 351.348 283.186 353.052L283.87 353.364Z" fill="#8F95B2"/>
<rect x="320" y="338.21" width="12" height="11.9353" rx="4" fill="url(#paint8_linear_37_5361)"/>
<path d="M352.294 344.844V345.684H358.354V344.844H352.294ZM352.078 350.424V351.276H358.51V350.424H352.078ZM351.67 347.124V351.936H352.57V347.94H358.174V351.9H359.122V347.124H351.67ZM355.51 340.896C354.286 342.756 352.078 344.352 349.786 345.252C350.038 345.468 350.29 345.804 350.446 346.044C352.762 345.024 354.97 343.296 356.302 341.292L355.51 340.896ZM355.69 341.592L354.922 341.988C356.518 343.812 358.258 344.952 360.31 345.936C360.442 345.66 360.706 345.324 360.934 345.12C358.918 344.268 357.154 343.212 355.69 341.592ZM364.282 343.656V344.448H370.39V343.656H364.282ZM364.894 345.708V350.4H365.734V345.708H364.894ZM365.35 345.708V346.464H368.902V348.744H365.35V349.524H369.742V345.708H365.35ZM362.362 341.544V351.984H363.238V342.408H371.95V341.544H362.362ZM371.398 341.544V350.82C371.398 351.024 371.326 351.096 371.11 351.108C370.906 351.12 370.198 351.12 369.442 351.096C369.586 351.336 369.73 351.732 369.766 351.972C370.81 351.984 371.41 351.96 371.77 351.804C372.142 351.66 372.286 351.384 372.286 350.82V341.544H371.398ZM373.666 347.46L373.834 348.324C374.926 347.976 376.354 347.52 377.71 347.076L377.59 346.26C376.138 346.728 374.65 347.196 373.666 347.46ZM373.81 343.344V344.184H377.59V343.344H373.81ZM375.334 340.932V350.808C375.334 350.988 375.262 351.036 375.118 351.036C374.974 351.048 374.482 351.048 373.954 351.024C374.074 351.288 374.194 351.684 374.23 351.924C375.01 351.924 375.502 351.888 375.802 351.744C376.114 351.6 376.222 351.336 376.222 350.82V340.932H375.334ZM379.402 342.072H382.75V343.62H379.402V342.072ZM378.514 341.388V344.304H383.662V341.388H378.514ZM380.662 346.764V347.952C380.662 348.9 380.386 350.256 377.134 351.144C377.338 351.336 377.578 351.684 377.686 351.9C381.094 350.82 381.538 349.224 381.538 347.964V346.764H380.662ZM381.538 350.124C382.462 350.7 383.698 351.516 384.322 352.008L384.886 351.348C384.25 350.868 382.99 350.088 382.078 349.548L381.538 350.124ZM378.19 345.192V349.548H379.042V345.936H383.17V349.512H384.046V345.192H378.19ZM385.954 346.32V347.232H396.682V346.32H385.954ZM388.15 341.088C387.706 342.732 386.962 344.328 386.026 345.348C386.254 345.456 386.698 345.684 386.89 345.828C387.79 344.736 388.582 343.056 389.086 341.292L388.15 341.088ZM388.03 343.032L387.598 343.932H395.674V343.032H388.03ZM391.846 346.512L391.018 346.716C391.87 349.476 393.538 351.228 396.358 351.972C396.502 351.72 396.766 351.336 396.97 351.144C394.246 350.544 392.578 348.924 391.846 346.512ZM390.79 340.92V344.652C390.79 347.1 390.298 349.68 385.81 351.204C386.002 351.384 386.278 351.756 386.374 351.984C391.162 350.328 391.726 347.424 391.726 344.664V340.92H390.79ZM405.658 346.44C405.658 348.792 406.606 350.688 408.046 352.152L408.766 351.78C407.374 350.352 406.522 348.588 406.522 346.44C406.522 344.304 407.374 342.54 408.766 341.112L408.046 340.74C406.606 342.204 405.658 344.1 405.658 346.44ZM409.846 351H415.366V350.064H412.93C412.486 350.064 411.958 350.1 411.49 350.148C413.566 348.192 414.946 346.404 414.946 344.64C414.946 343.068 413.962 342.048 412.39 342.048C411.274 342.048 410.506 342.564 409.786 343.344L410.422 343.956C410.914 343.38 411.538 342.936 412.258 342.936C413.35 342.936 413.866 343.68 413.866 344.688C413.866 346.188 412.606 347.952 409.846 350.364V351ZM419.311 351.168C420.967 351.168 422.035 349.644 422.035 346.572C422.035 343.524 420.967 342.048 419.311 342.048C417.631 342.048 416.563 343.524 416.563 346.572C416.563 349.644 417.631 351.168 419.311 351.168ZM419.311 350.28C418.303 350.28 417.619 349.164 417.619 346.572C417.619 344.016 418.303 342.924 419.311 342.924C420.307 342.924 420.979 344.016 420.979 346.572C420.979 349.164 420.307 350.28 419.311 350.28ZM425.091 347.592C426.303 347.592 427.095 346.584 427.095 344.808C427.095 343.044 426.303 342.048 425.091 342.048C423.879 342.048 423.087 343.044 423.087 344.808C423.087 346.584 423.879 347.592 425.091 347.592ZM425.091 346.92C424.395 346.92 423.915 346.2 423.915 344.808C423.915 343.404 424.395 342.72 425.091 342.72C425.787 342.72 426.255 343.404 426.255 344.808C426.255 346.2 425.787 346.92 425.091 346.92ZM425.343 351.168H426.087L430.935 342.048H430.191L425.343 351.168ZM431.223 351.168C432.411 351.168 433.215 350.16 433.215 348.372C433.215 346.62 432.411 345.612 431.223 345.612C430.011 345.612 429.219 346.62 429.219 348.372C429.219 350.16 430.011 351.168 431.223 351.168ZM431.223 350.496C430.527 350.496 430.047 349.776 430.047 348.372C430.047 346.968 430.527 346.296 431.223 346.296C431.907 346.296 432.387 346.968 432.387 348.372C432.387 349.776 431.907 350.496 431.223 350.496ZM437.33 346.44C437.33 344.1 436.382 342.204 434.942 340.74L434.222 341.112C435.614 342.54 436.466 344.304 436.466 346.44C436.466 348.588 435.614 350.352 434.222 351.78L434.942 352.152C436.382 350.688 437.33 348.792 437.33 346.44Z" fill="#8F95B2"/>
<g filter="url(#filter1_d_37_5361)">
<g clip-path="url(#clip0_37_5361)">
<rect x="331" y="55" width="150" height="116" rx="8" fill="white"/>
<path d="M356 79.25C357.243 79.25 358.25 78.2426 358.25 77C358.25 75.7574 357.243 74.75 356 74.75C354.757 74.75 353.75 75.7574 353.75 77C353.75 78.2426 354.757 79.25 356 79.25Z" fill="#8F95B2"/>
<path d="M364.404 76.8088C363.742 75.0974 362.594 73.6175 361.1 72.5518C359.607 71.4861 357.833 70.8814 356 70.8125C354.167 70.8814 352.393 71.4861 350.9 72.5518C349.406 73.6175 348.258 75.0974 347.596 76.8088C347.552 76.9323 347.552 77.0677 347.596 77.1912C348.258 78.9026 349.406 80.3825 350.9 81.4482C352.393 82.5139 354.167 83.1186 356 83.1875C357.833 83.1186 359.607 82.5139 361.1 81.4482C362.594 80.3825 363.742 78.9026 364.404 77.1912C364.448 77.0677 364.448 76.9323 364.404 76.8088ZM356 80.6562C355.277 80.6562 354.57 80.4418 353.969 80.0401C353.367 79.6383 352.899 79.0673 352.622 78.3992C352.345 77.7311 352.273 76.9959 352.414 76.2867C352.555 75.5775 352.903 74.926 353.415 74.4146C353.926 73.9033 354.577 73.5551 355.287 73.414C355.996 73.2729 356.731 73.3453 357.399 73.6221C358.067 73.8988 358.638 74.3674 359.04 74.9687C359.442 75.57 359.656 76.2769 359.656 77C359.655 77.9692 359.269 78.8984 358.584 79.5837C357.898 80.2691 356.969 80.6548 356 80.6562Z" fill="#8F95B2"/>
<path d="M381.13 79.962H386.8V81.124H381.13V79.962ZM381.13 78.072H386.8V79.22H381.13V78.072ZM380.094 77.316V81.88H387.878V77.316H380.094ZM377.798 73.032V73.956H390.216V73.032H377.798ZM383.426 71.24V76.882H384.476V71.24H383.426ZM382.824 73.298C381.704 74.866 379.506 76.378 377.49 77.064C377.714 77.274 378.022 77.652 378.176 77.904C380.234 77.092 382.446 75.454 383.706 73.648L382.824 73.298ZM385.05 73.312L384.196 73.648C385.47 75.412 387.71 77.022 389.796 77.806C389.95 77.526 390.258 77.134 390.496 76.938C388.424 76.28 386.184 74.838 385.05 73.312ZM378.022 82.734V83.672H390.02V82.734H378.022ZM394.626 77.47V84.162H395.634V78.31H401.738V84.162H402.788V77.47H394.626ZM391.812 75.622V76.49H404.174V75.622H391.812ZM392.834 73.746V74.586H403.362V73.746H392.834ZM395.312 79.262V80.004H402.186V79.262H395.312ZM395.312 80.998V81.726H402.186V80.998H395.312ZM395.214 82.762V83.602H402.186V82.762H395.214ZM402.55 71.352C400.324 71.814 396.054 72.01 392.638 72.038C392.736 72.262 392.834 72.626 392.862 72.864C396.32 72.85 400.618 72.64 403.222 72.122L402.55 71.352ZM396.81 72.318C396.068 75.412 394.43 78.478 391.462 80.186C391.672 80.382 391.98 80.774 392.12 80.998C395.256 79.136 396.964 75.93 397.902 72.542L396.81 72.318Z" fill="#8F95B2"/>
<path d="M355.25 116H356.75V109.25H359L356 105.5L353 109.25H355.25V116Z" fill="#8F95B2"/>
<path d="M350.75 120.5H361.25C362.077 120.5 362.75 119.827 362.75 119V112.25C362.75 111.423 362.077 110.75 361.25 110.75H358.25V112.25H361.25V119H350.75V112.25H353.75V110.75H350.75C349.923 110.75 349.25 111.423 349.25 112.25V119C349.25 119.827 349.923 120.5 350.75 120.5Z" fill="#8F95B2"/>
<path d="M377.854 114.926V115.92H390.216V114.926H377.854ZM386.058 113.848V118.86C386.058 119.07 385.974 119.14 385.708 119.14C385.442 119.154 384.434 119.168 383.398 119.126C383.538 119.406 383.72 119.798 383.762 120.078C385.12 120.078 385.96 120.078 386.464 119.924C386.968 119.784 387.136 119.49 387.136 118.874V113.848H386.058ZM379.954 116.452C380.822 117.194 381.816 118.258 382.236 118.986L383.02 118.286C382.558 117.572 381.564 116.55 380.682 115.836L379.954 116.452ZM378.89 108.234V111.902C378.89 113.204 379.576 113.498 381.886 113.498C382.418 113.498 386.912 113.498 387.486 113.498C389.25 113.498 389.698 113.148 389.88 111.72C389.572 111.664 389.138 111.538 388.872 111.384C388.746 112.42 388.55 112.616 387.402 112.616C386.422 112.616 382.544 112.616 381.816 112.616C380.262 112.616 379.982 112.476 379.982 111.888V108.234H378.89ZM379.254 110.194V111.132H388.55V107.8H378.89V108.724H387.528V110.194H379.254ZM397.398 107.254V118.748H398.546V107.254H397.398ZM402.382 114.24V120.092H403.53V114.24H402.382ZM393.086 108.514V113.344H402.97V108.514H401.836V112.322H394.178V108.514H393.086ZM392.456 114.24V119.308H402.942V118.258H393.604V114.24H392.456Z" fill="#8F95B2"/>
<path d="M349.25 144.5H362.75" stroke="#FF754C" stroke-width="1.5" stroke-linecap="round" stroke-linejoin="round"/>
<path d="M353 144.5V143C353 142.602 353.158 142.221 353.439 141.939C353.721 141.658 354.102 141.5 354.5 141.5H357.5C357.898 141.5 358.279 141.658 358.561 141.939C358.842 142.221 359 142.602 359 143V144.5M361.25 144.5V155C361.25 155.398 361.092 155.779 360.811 156.061C360.529 156.342 360.148 156.5 359.75 156.5H352.25C351.852 156.5 351.471 156.342 351.189 156.061C350.908 155.779 350.75 155.398 350.75 155V144.5H361.25Z" stroke="#FF754C" stroke-width="1.5" stroke-linecap="round" stroke-linejoin="round"/>
<path d="M354.5 148.25V152.75" stroke="#FF754C" stroke-width="1.5" stroke-linecap="round" stroke-linejoin="round"/>
<path d="M357.5 148.25V152.75" stroke="#FF754C" stroke-width="1.5" stroke-linecap="round" stroke-linejoin="round"/>
<path d="M386.912 144.794V152.704H387.766V144.794H386.912ZM388.956 143.478V154.93C388.956 155.14 388.886 155.196 388.69 155.21C388.508 155.21 387.92 155.21 387.248 155.196C387.388 155.462 387.528 155.882 387.57 156.12C388.466 156.134 389.04 156.106 389.39 155.938C389.726 155.798 389.866 155.504 389.866 154.944V143.478H388.956ZM378.848 143.702V144.626H381.312V143.702H378.848ZM378.498 143.702V150.366C378.498 152.102 378.428 154.188 377.546 155.602C377.756 155.714 378.148 155.98 378.302 156.134C379.254 154.636 379.38 152.228 379.38 150.366V143.702H378.498ZM380.682 143.702V154.832C380.682 155 380.626 155.042 380.486 155.056C380.346 155.056 379.884 155.07 379.394 155.042C379.506 155.294 379.632 155.714 379.66 155.966C380.402 155.966 380.864 155.952 381.172 155.784C381.48 155.63 381.578 155.336 381.578 154.846V143.702H380.682ZM382.88 143.702V144.64H385.344V143.702H382.88ZM382.558 143.702V149.764C382.558 151.612 382.502 154.02 381.704 155.658C381.928 155.742 382.32 155.966 382.474 156.12C383.314 154.398 383.426 151.71 383.426 149.764V143.702H382.558ZM384.728 143.702V154.846C384.728 155 384.686 155.056 384.546 155.056C384.392 155.056 383.944 155.07 383.44 155.042C383.566 155.294 383.678 155.714 383.706 155.966C384.448 155.966 384.91 155.952 385.218 155.784C385.526 155.63 385.624 155.336 385.624 154.846V143.702H384.728ZM377.602 148.7V149.666H386.338V148.7H377.602ZM392.078 143.814V156.092H393.016V144.766H395.34V143.814H392.078ZM395.06 143.814V144.094C394.724 145.046 394.178 146.67 393.632 147.93C394.71 149.05 394.976 150.002 394.99 150.772C394.99 151.206 394.906 151.584 394.668 151.738C394.556 151.836 394.388 151.878 394.206 151.878C393.968 151.892 393.66 151.892 393.324 151.864C393.492 152.13 393.576 152.536 393.576 152.788C393.912 152.802 394.304 152.802 394.584 152.774C394.892 152.732 395.144 152.662 395.354 152.508C395.76 152.214 395.928 151.64 395.928 150.87C395.914 149.988 395.662 148.98 394.57 147.818C395.074 146.712 395.634 145.34 396.068 144.178L395.382 143.772L395.228 143.814H395.06ZM397.496 147.538V148.476H403.026V147.538H397.496ZM396.194 150.184V151.15H404.342V150.184H396.194ZM397.622 151.92C397.16 152.914 396.432 153.978 395.704 154.706C395.928 154.832 396.334 155.126 396.502 155.28C397.216 154.496 398.028 153.306 398.56 152.186L397.622 151.92ZM401.682 152.2C402.438 153.096 403.306 154.342 403.698 155.154L404.524 154.664C404.132 153.88 403.264 152.676 402.48 151.794L401.682 152.2ZM399.862 147.762V154.902C399.862 155.084 399.806 155.154 399.596 155.168C399.386 155.168 398.714 155.168 397.93 155.14C398.084 155.42 398.238 155.84 398.294 156.12C399.302 156.12 399.946 156.106 400.338 155.938C400.744 155.77 400.884 155.49 400.884 154.902V147.762H399.862ZM400.254 143.156C399.316 144.836 397.566 146.446 395.816 147.356C396.068 147.552 396.348 147.874 396.516 148.126C398.336 147.076 400.086 145.368 401.15 143.506L400.254 143.156ZM400.716 143.898L399.89 144.248C401.22 146.04 402.55 147.118 403.922 147.986C404.076 147.706 404.384 147.356 404.636 147.16C403.306 146.418 401.948 145.466 400.716 143.898Z" fill="#FF754C"/>
</g>
<rect x="331.5" y="55.5" width="149" height="115" rx="7.5" stroke="#E6E8F0"/>
</g>
</g>
<defs>
<filter id="filter0_d_37_5361" x="0" y="0" width="519" height="401" filterUnits="userSpaceOnUse" color-interpolation-filters="sRGB">
<feFlood flood-opacity="0" result="BackgroundImageFix"/>
<feColorMatrix in="SourceAlpha" type="matrix" values="0 0 0 0 0 0 0 0 0 0 0 0 0 0 0 0 0 0 127 0" result="hardAlpha"/>
<feOffset dy="8"/>
<feGaussianBlur stdDeviation="8"/>
<feComposite in2="hardAlpha" operator="out"/>
<feColorMatrix type="matrix" values="0 0 0 0 0.560784 0 0 0 0 0.584314 0 0 0 0 0.698039 0 0 0 0.15 0"/>
<feBlend mode="normal" in2="BackgroundImageFix" result="effect1_dropShadow_37_5361"/>
<feBlend mode="normal" in="SourceGraphic" in2="effect1_dropShadow_37_5361" result="shape"/>
</filter>
<filter id="filter1_d_37_5361" x="315" y="47" width="182" height="148" filterUnits="userSpaceOnUse" color-interpolation-filters="sRGB">
<feFlood flood-opacity="0" result="BackgroundImageFix"/>
<feColorMatrix in="SourceAlpha" type="matrix" values="0 0 0 0 0 0 0 0 0 0 0 0 0 0 0 0 0 0 127 0" result="hardAlpha"/>
<feOffset dy="8"/>
<feGaussianBlur stdDeviation="8"/>
<feComposite in2="hardAlpha" operator="out"/>
<feColorMatrix type="matrix" values="0 0 0 0 0.560784 0 0 0 0 0.584314 0 0 0 0 0.698039 0 0 0 0.15 0"/>
<feBlend mode="normal" in2="BackgroundImageFix" result="effect1_dropShadow_37_5361"/>
<feBlend mode="normal" in="SourceGraphic" in2="effect1_dropShadow_37_5361" result="shape"/>
</filter>
<linearGradient id="paint0_linear_37_5361" x1="146.229" y1="220.186" x2="106.836" y2="216.682" gradientUnits="userSpaceOnUse">
<stop stop-color="#0049C6"/>
<stop offset="1" stop-color="#CDF4FF"/>
</linearGradient>
<linearGradient id="paint1_linear_37_5361" x1="223.128" y1="185.574" x2="266.672" y2="195.062" gradientUnits="userSpaceOnUse">
<stop stop-color="#FFB7F5"/>
<stop offset="1" stop-color="#6C5DD3"/>
</linearGradient>
<linearGradient id="paint2_linear_37_5361" x1="380.55" y1="334.666" x2="283.771" y2="275.151" gradientUnits="userSpaceOnUse">
<stop stop-color="#FF754C"/>
<stop offset="1" stop-color="#FFB7F5"/>
</linearGradient>
<linearGradient id="paint3_linear_37_5361" x1="230.559" y1="162.164" x2="238.559" y2="170.164" gradientUnits="userSpaceOnUse">
<stop stop-color="#FFB7F5"/>
<stop offset="1" stop-color="#6C5DD3"/>
</linearGradient>
<linearGradient id="paint4_linear_37_5361" x1="378.264" y1="206.872" x2="368.628" y2="187.951" gradientUnits="userSpaceOnUse">
<stop stop-color="#FF754C"/>
<stop offset="1" stop-color="#FFB7F5"/>
</linearGradient>
<linearGradient id="paint5_linear_37_5361" x1="132.226" y1="198.168" x2="119.108" y2="194.908" gradientUnits="userSpaceOnUse">
<stop stop-color="#0049C6"/>
<stop offset="1" stop-color="#CDF4FF"/>
</linearGradient>
<linearGradient id="paint6_linear_37_5361" x1="57.1618" y1="337.021" x2="37.4974" y2="332.109" gradientUnits="userSpaceOnUse">
<stop stop-color="#0049C6"/>
<stop offset="1" stop-color="#CDF4FF"/>
</linearGradient>
<linearGradient id="paint7_linear_37_5361" x1="157" y1="338.21" x2="168.935" y2="350.21" gradientUnits="userSpaceOnUse">
<stop stop-color="#FFB7F5"/>
<stop offset="1" stop-color="#6C5DD3"/>
</linearGradient>
<linearGradient id="paint8_linear_37_5361" x1="326" y1="357.426" x2="311.669" y2="329.135" gradientUnits="userSpaceOnUse">
<stop stop-color="#FF754C"/>
<stop offset="1" stop-color="#FFB7F5"/>
</linearGradient>
<clipPath id="clip0_37_5361">
<rect x="331" y="55" width="150" height="116" rx="8" fill="white"/>
</clipPath>
</defs>
</svg>
