<svg width="532" height="278" viewBox="0 0 532 278" fill="none" xmlns="http://www.w3.org/2000/svg">
<g clip-path="url(#clip0_73_994)">
<path fill-rule="evenodd" clip-rule="evenodd" d="M0 16C0 7.16344 7.16344 0 16 0H516C524.837 0 532 7.16344 532 16V262C532 270.837 524.837 278 516 278H16C7.16345 278 0 270.837 0 262V16Z" fill="white"/>
<g clip-path="url(#clip1_73_994)">
<path fill-rule="evenodd" clip-rule="evenodd" d="M24 80C24 75.5817 27.5817 72 32 72H166C170.418 72 174 75.5817 174 80V151C174 155.418 170.418 159 166 159H32C27.5817 159 24 155.418 24 151V80Z" fill="#FAFAFA"/>
<path d="M41.85 88.98V89.68H45.58V88.98H41.85ZM36.61 86.65V87.29H41.02V86.65H36.61ZM36.5 90.62V91.27H41.07V90.62H36.5ZM36.45 88.94V89.58H41.18V88.94H36.45ZM43.75 89.28V94.76H44.48V89.28H43.75ZM37.26 87.49C37.46 87.95 37.61 88.55 37.65 88.93L38.29 88.76C38.25 88.38 38.07 87.79 37.87 87.35L37.26 87.49ZM39.77 87.34C39.63 87.84 39.38 88.59 39.17 89.05L39.79 89.2C40 88.76 40.25 88.08 40.46 87.49L39.77 87.34ZM44.65 85.78C43.94 86.09 42.64 86.38 41.52 86.57C41.62 86.73 41.73 86.98 41.76 87.14C42.93 86.97 44.3 86.69 45.26 86.34L44.65 85.78ZM38.14 85.74C38.37 86.16 38.62 86.72 38.73 87.07L39.43 86.86C39.32 86.52 39.05 85.97 38.81 85.57L38.14 85.74ZM38.51 89.32V93.83C38.51 93.93 38.48 93.96 38.38 93.96C38.27 93.96 37.97 93.96 37.62 93.95C37.72 94.14 37.81 94.41 37.84 94.59C38.32 94.59 38.67 94.58 38.9 94.47C39.12 94.36 39.19 94.18 39.19 93.83V89.32H38.51ZM41.52 86.57V90.01C41.52 91.33 41.44 93.05 40.6 94.25C40.76 94.34 41.06 94.57 41.18 94.71C42.1 93.41 42.22 91.44 42.22 90.01V86.57H41.52ZM39.59 91.87C39.9 92.37 40.25 93.06 40.41 93.49L40.95 93.18C40.79 92.75 40.44 92.1 40.11 91.6L39.59 91.87ZM37.35 91.65C37.14 92.27 36.81 92.89 36.41 93.33C36.56 93.41 36.81 93.6 36.93 93.7C37.33 93.23 37.72 92.5 37.96 91.81L37.35 91.65ZM47.95 86.31V87.03H54.42V86.31H47.95ZM47.95 88.64V89.35H54.41V88.64H47.95ZM47.9 91.03V91.74H54.43V91.03H47.9ZM47.53 86.31V89.93C47.53 91.34 47.42 93.12 46.32 94.36C46.48 94.46 46.78 94.71 46.9 94.86C48.09 93.53 48.27 91.46 48.27 89.94V86.31H47.53ZM54.12 86.31V93.78C54.12 93.97 54.05 94.03 53.86 94.04C53.67 94.04 52.99 94.05 52.28 94.02C52.39 94.22 52.51 94.55 52.54 94.75C53.49 94.76 54.07 94.75 54.41 94.63C54.74 94.5 54.86 94.27 54.86 93.78V86.31H54.12ZM50.67 86.58V94.71H51.43V86.58H50.67ZM57.69 87.15V89.33C57.69 90.84 57.56 92.93 56.33 94.41C56.52 94.49 56.85 94.72 56.98 94.86C58.26 93.31 58.47 90.97 58.47 89.33V87.15H57.69ZM60.4 85.74C60.61 86.21 60.87 86.84 60.98 87.24L61.74 87.01C61.62 86.62 61.36 86.02 61.13 85.55L60.4 85.74ZM58.18 87.15V87.86H63.69V91.23H64.45V87.15H58.18ZM58.18 89.87V90.57H64.1V89.87H58.18Z" fill="#718096"/>
<mask id="mask0_73_994" style="mask-type:luminance" maskUnits="userSpaceOnUse" x="148" y="84" width="14" height="14">
<path fill-rule="evenodd" clip-rule="evenodd" d="M148 84H162V98H148V84Z" fill="white"/>
</mask>
<g mask="url(#mask0_73_994)">
<path fill-rule="evenodd" clip-rule="evenodd" d="M155 85.75C152.101 85.75 149.75 88.1008 149.75 91C149.75 93.8992 152.101 96.25 155 96.25C157.899 96.25 160.25 93.8992 160.25 91C160.25 88.1008 157.899 85.75 155 85.75Z" stroke="#A0AEC0" stroke-linejoin="round"/>
<path d="M155 88.6666V91" stroke="#A0AEC0" stroke-linecap="round" stroke-linejoin="round"/>
<path fill-rule="evenodd" clip-rule="evenodd" d="M155 93.3334H155.006H155Z" fill="#A0AEC0"/>
<path d="M155 93.3334H155.006" stroke="#A0AEC0" stroke-width="1.5" stroke-linecap="round" stroke-linejoin="round"/>
</g>
<path d="M40.104 112.494V114.294C40.416 114.294 40.74 114.306 41.076 114.33C41.424 114.342 41.742 114.408 42.03 114.528C42.318 114.636 42.552 114.816 42.732 115.068C42.924 115.32 43.02 115.686 43.02 116.166C43.02 116.778 42.822 117.264 42.426 117.624C42.03 117.972 41.544 118.146 40.968 118.146C40.596 118.146 40.272 118.08 39.996 117.948C39.732 117.816 39.51 117.642 39.33 117.426C39.15 117.198 39.012 116.934 38.916 116.634C38.82 116.322 38.766 115.998 38.754 115.662H36.324C36.312 116.394 36.414 117.042 36.63 117.606C36.858 118.17 37.176 118.65 37.584 119.046C37.992 119.43 38.484 119.724 39.06 119.928C39.648 120.132 40.296 120.234 41.004 120.234C41.616 120.234 42.204 120.144 42.768 119.964C43.332 119.784 43.83 119.52 44.262 119.172C44.694 118.824 45.036 118.392 45.288 117.876C45.552 117.36 45.684 116.772 45.684 116.112C45.684 115.392 45.486 114.774 45.09 114.258C44.694 113.742 44.148 113.406 43.452 113.25V113.214C44.04 113.046 44.478 112.728 44.766 112.26C45.066 111.792 45.216 111.252 45.216 110.64C45.216 110.076 45.09 109.578 44.838 109.146C44.586 108.714 44.256 108.348 43.848 108.048C43.452 107.748 43.002 107.526 42.498 107.382C41.994 107.226 41.49 107.148 40.986 107.148C40.338 107.148 39.75 107.256 39.222 107.472C38.694 107.676 38.238 107.97 37.854 108.354C37.482 108.738 37.188 109.2 36.972 109.74C36.768 110.268 36.654 110.856 36.63 111.504H39.06C39.048 110.856 39.204 110.322 39.528 109.902C39.864 109.47 40.356 109.254 41.004 109.254C41.472 109.254 41.886 109.398 42.246 109.686C42.606 109.974 42.786 110.388 42.786 110.928C42.786 111.288 42.696 111.576 42.516 111.792C42.348 112.008 42.126 112.176 41.85 112.296C41.586 112.404 41.298 112.47 40.986 112.494C40.674 112.518 40.38 112.518 40.104 112.494ZM49.098 110.82C49.098 110.532 49.146 110.28 49.242 110.064C49.35 109.848 49.494 109.668 49.674 109.524C49.854 109.38 50.058 109.272 50.286 109.2C50.526 109.116 50.772 109.074 51.024 109.074C51.42 109.074 51.738 109.134 51.978 109.254C52.23 109.374 52.422 109.524 52.554 109.704C52.698 109.884 52.794 110.076 52.842 110.28C52.89 110.472 52.914 110.652 52.914 110.82C52.914 111.36 52.734 111.774 52.374 112.062C52.014 112.338 51.564 112.476 51.024 112.476C50.508 112.476 50.058 112.338 49.674 112.062C49.29 111.774 49.098 111.36 49.098 110.82ZM46.776 110.586C46.776 111.21 46.932 111.756 47.244 112.224C47.556 112.692 48.018 113.01 48.63 113.178V113.214C47.874 113.394 47.286 113.754 46.866 114.294C46.458 114.834 46.254 115.506 46.254 116.31C46.254 116.994 46.386 117.582 46.65 118.074C46.926 118.566 47.286 118.974 47.73 119.298C48.186 119.622 48.696 119.856 49.26 120C49.836 120.156 50.43 120.234 51.042 120.234C51.63 120.234 52.206 120.156 52.77 120C53.334 119.832 53.838 119.586 54.282 119.262C54.726 118.938 55.08 118.53 55.344 118.038C55.62 117.546 55.758 116.964 55.758 116.292C55.758 115.5 55.554 114.834 55.146 114.294C54.738 113.742 54.156 113.382 53.4 113.214V113.178C54.012 112.974 54.468 112.638 54.768 112.17C55.08 111.702 55.236 111.156 55.236 110.532C55.236 110.22 55.164 109.872 55.02 109.488C54.876 109.092 54.636 108.726 54.3 108.39C53.976 108.042 53.544 107.748 53.004 107.508C52.464 107.268 51.804 107.148 51.024 107.148C50.508 107.148 49.998 107.22 49.494 107.364C48.99 107.508 48.534 107.724 48.126 108.012C47.73 108.3 47.406 108.66 47.154 109.092C46.902 109.524 46.776 110.022 46.776 110.586ZM48.81 116.184C48.81 115.536 49.026 115.044 49.458 114.708C49.89 114.36 50.418 114.186 51.042 114.186C51.342 114.186 51.618 114.234 51.87 114.33C52.134 114.426 52.362 114.564 52.554 114.744C52.758 114.924 52.914 115.14 53.022 115.392C53.142 115.632 53.202 115.902 53.202 116.202C53.202 116.514 53.148 116.802 53.04 117.066C52.932 117.33 52.776 117.558 52.572 117.75C52.38 117.93 52.152 118.074 51.888 118.182C51.636 118.278 51.354 118.326 51.042 118.326C50.742 118.326 50.454 118.278 50.178 118.182C49.902 118.074 49.662 117.93 49.458 117.75C49.266 117.558 49.11 117.33 48.99 117.066C48.87 116.802 48.81 116.508 48.81 116.184ZM57.1019 117.228V120H58.3979C58.4099 120.192 58.3859 120.378 58.3259 120.558C58.2659 120.75 58.1759 120.918 58.0559 121.062C57.9359 121.218 57.7919 121.35 57.6239 121.458C57.4679 121.566 57.2999 121.638 57.1199 121.674V122.97C57.5039 122.91 57.8639 122.796 58.1999 122.628C58.5479 122.472 58.8479 122.268 59.0999 122.016C59.3519 121.764 59.5499 121.464 59.6939 121.116C59.8499 120.78 59.9279 120.408 59.9279 120V117.228H57.1019ZM66.6297 110.604V114.978H63.3177L66.5757 110.604H66.6297ZM66.6297 117.084V120H69.0597V117.084H70.7337V114.978H69.0597V107.4H66.7737L61.3017 114.744V117.084H66.6297ZM80.0156 109.506V107.4H72.9776L71.7356 114.366H74.0396C74.2916 114.018 74.5616 113.766 74.8496 113.61C75.1376 113.442 75.5096 113.358 75.9656 113.358C76.3136 113.358 76.6196 113.418 76.8836 113.538C77.1476 113.658 77.3756 113.826 77.5676 114.042C77.7596 114.258 77.9036 114.51 77.9996 114.798C78.0956 115.086 78.1436 115.392 78.1436 115.716C78.1436 116.028 78.0896 116.334 77.9816 116.634C77.8856 116.922 77.7416 117.18 77.5496 117.408C77.3696 117.624 77.1416 117.804 76.8656 117.948C76.6016 118.08 76.3016 118.146 75.9656 118.146C75.3896 118.146 74.9156 117.978 74.5436 117.642C74.1716 117.294 73.9556 116.832 73.8956 116.256H71.3396C71.3516 116.916 71.4836 117.498 71.7356 118.002C71.9996 118.494 72.3476 118.908 72.7796 119.244C73.2116 119.58 73.7036 119.832 74.2556 120C74.8196 120.156 75.4076 120.234 76.0196 120.234C76.6556 120.246 77.2556 120.144 77.8196 119.928C78.3836 119.7 78.8756 119.382 79.2956 118.974C79.7276 118.566 80.0696 118.086 80.3216 117.534C80.5736 116.97 80.6996 116.364 80.6996 115.716C80.6996 115.128 80.6096 114.576 80.4296 114.06C80.2616 113.532 80.0096 113.076 79.6736 112.692C79.3496 112.308 78.9476 112.002 78.4676 111.774C77.9876 111.546 77.4356 111.432 76.8116 111.432C76.3076 111.432 75.8576 111.51 75.4616 111.666C75.0656 111.81 74.6936 112.056 74.3456 112.404L74.3096 112.368L74.8136 109.506H80.0156ZM86.1656 113.466C86.4896 113.466 86.7716 113.538 87.0116 113.682C87.2636 113.814 87.4676 113.994 87.6236 114.222C87.7796 114.438 87.8936 114.69 87.9656 114.978C88.0496 115.254 88.0916 115.542 88.0916 115.842C88.0916 116.13 88.0496 116.412 87.9656 116.688C87.8816 116.964 87.7556 117.21 87.5876 117.426C87.4196 117.642 87.2156 117.816 86.9756 117.948C86.7476 118.08 86.4776 118.146 86.1656 118.146C85.8416 118.146 85.5536 118.08 85.3016 117.948C85.0496 117.816 84.8336 117.642 84.6536 117.426C84.4856 117.198 84.3536 116.946 84.2576 116.67C84.1736 116.382 84.1316 116.094 84.1316 115.806C84.1316 115.494 84.1736 115.2 84.2576 114.924C84.3416 114.636 84.4676 114.384 84.6356 114.168C84.8036 113.952 85.0136 113.784 85.2656 113.664C85.5296 113.532 85.8296 113.466 86.1656 113.466ZM88.0016 110.64H90.4316C90.3596 110.076 90.2096 109.578 89.9816 109.146C89.7536 108.714 89.4596 108.354 89.0996 108.066C88.7396 107.766 88.3256 107.538 87.8576 107.382C87.3896 107.226 86.8856 107.148 86.3456 107.148C85.4456 107.148 84.6836 107.346 84.0596 107.742C83.4356 108.138 82.9256 108.654 82.5296 109.29C82.1336 109.914 81.8456 110.616 81.6656 111.396C81.4856 112.176 81.3956 112.956 81.3956 113.736C81.3956 114.54 81.4676 115.332 81.6116 116.112C81.7556 116.88 82.0136 117.57 82.3856 118.182C82.7576 118.794 83.2556 119.292 83.8796 119.676C84.5036 120.048 85.2896 120.234 86.2376 120.234C86.8976 120.234 87.4976 120.12 88.0376 119.892C88.5776 119.652 89.0396 119.328 89.4236 118.92C89.8196 118.5 90.1196 118.014 90.3236 117.462C90.5396 116.898 90.6476 116.292 90.6476 115.644C90.6476 115.14 90.5696 114.642 90.4136 114.15C90.2576 113.658 90.0116 113.22 89.6756 112.836C89.3156 112.44 88.8776 112.128 88.3616 111.9C87.8456 111.66 87.3176 111.54 86.7776 111.54C86.1656 111.54 85.6256 111.648 85.1576 111.864C84.6896 112.08 84.2816 112.44 83.9336 112.944L83.8976 112.908C83.9096 112.56 83.9576 112.164 84.0416 111.72C84.1256 111.276 84.2576 110.862 84.4376 110.478C84.6176 110.082 84.8576 109.752 85.1576 109.488C85.4696 109.212 85.8536 109.074 86.3096 109.074C86.7536 109.074 87.1256 109.23 87.4256 109.542C87.7256 109.854 87.9176 110.22 88.0016 110.64Z" fill="#111827"/>
<path d="M37.75 141.917L41.25 138.417L43.5833 140.75L48.25 136.083" stroke="#9747FF" stroke-linecap="round" stroke-linejoin="round"/>
<path d="M44.1667 136.083H48.2501V140.167" stroke="#9747FF" stroke-linecap="round" stroke-linejoin="round"/>
<path d="M54.44 137.42H55.29C55.2833 137.207 55.3033 136.997 55.35 136.79C55.4033 136.577 55.4867 136.387 55.6 136.22C55.7133 136.053 55.8567 135.92 56.03 135.82C56.21 135.713 56.4233 135.66 56.67 135.66C56.8567 135.66 57.0333 135.69 57.2 135.75C57.3667 135.81 57.51 135.897 57.63 136.01C57.7567 136.123 57.8567 136.26 57.93 136.42C58.0033 136.573 58.04 136.747 58.04 136.94C58.04 137.187 58 137.403 57.92 137.59C57.8467 137.777 57.7333 137.95 57.58 138.11C57.4333 138.27 57.2467 138.43 57.02 138.59C56.7933 138.743 56.53 138.913 56.23 139.1C55.9833 139.247 55.7467 139.403 55.52 139.57C55.2933 139.737 55.09 139.93 54.91 140.15C54.73 140.37 54.58 140.63 54.46 140.93C54.3467 141.223 54.2733 141.58 54.24 142H58.87V141.25H55.23C55.27 141.03 55.3533 140.837 55.48 140.67C55.6133 140.497 55.77 140.337 55.95 140.19C56.1367 140.043 56.34 139.907 56.56 139.78C56.78 139.647 57 139.513 57.22 139.38C57.44 139.24 57.6533 139.093 57.86 138.94C58.0667 138.787 58.25 138.617 58.41 138.43C58.57 138.237 58.6967 138.02 58.79 137.78C58.89 137.54 58.94 137.263 58.94 136.95C58.94 136.617 58.88 136.323 58.76 136.07C58.6467 135.817 58.49 135.607 58.29 135.44C58.09 135.267 57.8533 135.137 57.58 135.05C57.3133 134.957 57.0267 134.91 56.72 134.91C56.3467 134.91 56.0133 134.973 55.72 135.1C55.4267 135.227 55.18 135.403 54.98 135.63C54.7867 135.85 54.6433 136.113 54.55 136.42C54.4567 136.727 54.42 137.06 54.44 137.42ZM61.7366 137.95V138.67C61.8966 138.65 62.0666 138.64 62.2466 138.64C62.46 138.64 62.6566 138.67 62.8366 138.73C63.0233 138.783 63.1833 138.87 63.3166 138.99C63.45 139.103 63.5566 139.247 63.6366 139.42C63.7166 139.587 63.7566 139.78 63.7566 140C63.7566 140.213 63.7133 140.407 63.6266 140.58C63.5466 140.747 63.4366 140.89 63.2966 141.01C63.1566 141.123 62.9933 141.213 62.8066 141.28C62.62 141.34 62.4233 141.37 62.2166 141.37C61.73 141.37 61.36 141.227 61.1066 140.94C60.8533 140.647 60.72 140.27 60.7066 139.81H59.8566C59.85 140.177 59.9 140.503 60.0066 140.79C60.12 141.077 60.28 141.32 60.4866 141.52C60.6933 141.713 60.9433 141.86 61.2366 141.96C61.53 142.06 61.8566 142.11 62.2166 142.11C62.55 142.11 62.8633 142.067 63.1566 141.98C63.4566 141.887 63.7166 141.75 63.9366 141.57C64.1566 141.39 64.33 141.167 64.4566 140.9C64.59 140.627 64.6566 140.313 64.6566 139.96C64.6566 139.533 64.55 139.163 64.3366 138.85C64.13 138.537 63.81 138.333 63.3766 138.24V138.22C63.6566 138.093 63.89 137.907 64.0766 137.66C64.2633 137.413 64.3566 137.13 64.3566 136.81C64.3566 136.483 64.3 136.2 64.1866 135.96C64.08 135.72 63.93 135.523 63.7366 135.37C63.5433 135.217 63.3133 135.103 63.0466 135.03C62.7866 134.95 62.5033 134.91 62.1966 134.91C61.8433 134.91 61.53 134.967 61.2566 135.08C60.99 135.193 60.7666 135.35 60.5866 135.55C60.4066 135.75 60.2666 135.99 60.1666 136.27C60.0733 136.55 60.02 136.86 60.0066 137.2H60.8566C60.8566 136.993 60.8833 136.797 60.9366 136.61C60.99 136.423 61.07 136.26 61.1766 136.12C61.29 135.98 61.43 135.87 61.5966 135.79C61.77 135.703 61.97 135.66 62.1966 135.66C62.5566 135.66 62.8566 135.757 63.0966 135.95C63.3366 136.137 63.4566 136.42 63.4566 136.8C63.4566 136.987 63.42 137.153 63.3466 137.3C63.2733 137.447 63.1733 137.57 63.0466 137.67C62.9266 137.763 62.7833 137.837 62.6166 137.89C62.4566 137.937 62.2866 137.96 62.1066 137.96H61.9266C61.8933 137.96 61.86 137.96 61.8266 137.96C61.8 137.96 61.77 137.957 61.7366 137.95ZM65.9433 140.89V142H66.5333C66.5399 142.08 66.5333 142.167 66.5133 142.26C66.4999 142.353 66.4699 142.443 66.4233 142.53C66.3766 142.623 66.3133 142.707 66.2333 142.78C66.1599 142.86 66.0666 142.92 65.9533 142.96V143.46C66.3399 143.347 66.6199 143.153 66.7933 142.88C66.9666 142.607 67.0533 142.28 67.0533 141.9V140.89H65.9433ZM72.5965 135.78V135.03H69.0965L68.4365 138.71L69.1665 138.75C69.3332 138.55 69.5232 138.39 69.7365 138.27C69.9565 138.143 70.2065 138.08 70.4865 138.08C70.7265 138.08 70.9432 138.12 71.1365 138.2C71.3365 138.28 71.5065 138.393 71.6465 138.54C71.7865 138.68 71.8932 138.85 71.9665 139.05C72.0465 139.243 72.0865 139.457 72.0865 139.69C72.0865 139.97 72.0465 140.217 71.9665 140.43C71.8865 140.637 71.7765 140.81 71.6365 140.95C71.5032 141.09 71.3432 141.197 71.1565 141.27C70.9765 141.337 70.7865 141.37 70.5865 141.37C70.3732 141.37 70.1765 141.34 69.9965 141.28C69.8232 141.213 69.6698 141.123 69.5365 141.01C69.4098 140.89 69.3065 140.753 69.2265 140.6C69.1532 140.44 69.1098 140.27 69.0965 140.09H68.2465C68.2532 140.41 68.3165 140.697 68.4365 140.95C68.5565 141.203 68.7198 141.417 68.9265 141.59C69.1332 141.757 69.3698 141.887 69.6365 141.98C69.9098 142.067 70.1998 142.11 70.5065 142.11C70.9198 142.11 71.2798 142.047 71.5865 141.92C71.8998 141.787 72.1598 141.61 72.3665 141.39C72.5732 141.17 72.7265 140.92 72.8265 140.64C72.9332 140.353 72.9865 140.06 72.9865 139.76C72.9865 139.353 72.9265 139 72.8065 138.7C72.6865 138.393 72.5232 138.14 72.3165 137.94C72.1098 137.733 71.8665 137.58 71.5865 137.48C71.3065 137.38 71.0098 137.33 70.6965 137.33C70.4565 137.33 70.2132 137.373 69.9665 137.46C69.7265 137.54 69.5298 137.667 69.3765 137.84L69.3565 137.82L69.7365 135.78H72.5965ZM75.1231 136.92C75.1231 136.767 75.1331 136.607 75.1531 136.44C75.1731 136.267 75.2131 136.11 75.2731 135.97C75.3398 135.823 75.4298 135.703 75.5431 135.61C75.6565 135.51 75.8065 135.46 75.9931 135.46C76.1865 135.46 76.3365 135.51 76.4431 135.61C76.5565 135.703 76.6431 135.823 76.7031 135.97C76.7631 136.11 76.7998 136.267 76.8131 136.44C76.8331 136.607 76.8431 136.763 76.8431 136.91C76.8431 137.063 76.8331 137.227 76.8131 137.4C76.7931 137.573 76.7498 137.733 76.6831 137.88C76.6231 138.02 76.5365 138.137 76.4231 138.23C76.3098 138.323 76.1565 138.37 75.9631 138.37C75.7765 138.37 75.6265 138.323 75.5131 138.23C75.4065 138.13 75.3231 138.01 75.2631 137.87C75.2031 137.723 75.1631 137.567 75.1431 137.4C75.1298 137.227 75.1231 137.067 75.1231 136.92ZM74.3731 136.94C74.3731 137.213 74.3998 137.47 74.4531 137.71C74.5131 137.95 74.6065 138.16 74.7331 138.34C74.8598 138.52 75.0265 138.663 75.2331 138.77C75.4398 138.87 75.6931 138.92 75.9931 138.92C76.2865 138.92 76.5331 138.863 76.7331 138.75C76.9331 138.637 77.0965 138.49 77.2231 138.31C77.3565 138.123 77.4498 137.91 77.5031 137.67C77.5631 137.423 77.5931 137.17 77.5931 136.91C77.5931 136.637 77.5665 136.38 77.5131 136.14C77.4665 135.893 77.3798 135.68 77.2531 135.5C77.1331 135.32 76.9698 135.177 76.7631 135.07C76.5631 134.963 76.3065 134.91 75.9931 134.91C75.6865 134.91 75.4298 134.967 75.2231 135.08C75.0165 135.187 74.8498 135.333 74.7231 135.52C74.5965 135.707 74.5065 135.923 74.4531 136.17C74.3998 136.41 74.3731 136.667 74.3731 136.94ZM80.0631 140.12C80.0631 139.967 80.0731 139.807 80.0931 139.64C80.1131 139.467 80.1531 139.31 80.2131 139.17C80.2798 139.023 80.3698 138.903 80.4831 138.81C80.5965 138.71 80.7465 138.66 80.9331 138.66C81.1265 138.66 81.2765 138.71 81.3831 138.81C81.4965 138.903 81.5831 139.023 81.6431 139.17C81.7031 139.31 81.7398 139.467 81.7531 139.64C81.7731 139.807 81.7831 139.963 81.7831 140.11C81.7831 140.263 81.7731 140.427 81.7531 140.6C81.7331 140.773 81.6898 140.933 81.6231 141.08C81.5631 141.22 81.4765 141.337 81.3631 141.43C81.2498 141.523 81.0965 141.57 80.9031 141.57C80.7165 141.57 80.5665 141.523 80.4531 141.43C80.3465 141.33 80.2631 141.21 80.2031 141.07C80.1431 140.923 80.1031 140.767 80.0831 140.6C80.0698 140.427 80.0631 140.267 80.0631 140.12ZM79.3131 140.14C79.3131 140.413 79.3398 140.67 79.3931 140.91C79.4531 141.15 79.5465 141.36 79.6731 141.54C79.7998 141.713 79.9665 141.853 80.1731 141.96C80.3798 142.06 80.6331 142.11 80.9331 142.11C81.2265 142.11 81.4731 142.057 81.6731 141.95C81.8731 141.837 82.0365 141.69 82.1631 141.51C82.2965 141.323 82.3898 141.11 82.4431 140.87C82.5031 140.623 82.5331 140.37 82.5331 140.11C82.5331 139.837 82.5065 139.58 82.4531 139.34C82.4065 139.093 82.3198 138.88 82.1931 138.7C82.0731 138.52 81.9098 138.377 81.7031 138.27C81.5031 138.163 81.2465 138.11 80.9331 138.11C80.6265 138.11 80.3698 138.167 80.1631 138.28C79.9565 138.387 79.7898 138.533 79.6631 138.72C79.5365 138.907 79.4465 139.123 79.3931 139.37C79.3398 139.61 79.3131 139.867 79.3131 140.14ZM80.7131 134.78L75.3331 142.21H76.1931L81.5631 134.78H80.7131ZM88.2763 143.97H88.9263C88.453 143.203 88.113 142.443 87.9063 141.69C87.7063 140.937 87.6063 140.14 87.6063 139.3C87.6063 138.48 87.7063 137.697 87.9063 136.95C88.1063 136.203 88.4463 135.45 88.9263 134.69H88.2763C87.7563 135.377 87.363 136.12 87.0963 136.92C86.8363 137.72 86.7063 138.513 86.7063 139.3C86.7063 139.74 86.743 140.16 86.8163 140.56C86.8897 140.96 86.993 141.35 87.1263 141.73C87.2663 142.11 87.433 142.483 87.6263 142.85C87.8197 143.223 88.0363 143.597 88.2763 143.97ZM92.1642 139.13V136.94H91.4842V139.13H89.3042V139.81H91.4842V142H92.1642V139.81H94.3442V139.13H92.1642ZM98.3803 142V134.91H97.7303C97.6836 135.177 97.597 135.397 97.4703 135.57C97.3436 135.743 97.187 135.88 97.0003 135.98C96.8203 136.08 96.617 136.15 96.3903 136.19C96.1636 136.223 95.9303 136.24 95.6903 136.24V136.92H97.5303V142H98.3803ZM101.697 138.51C101.697 138.337 101.697 138.147 101.697 137.94C101.704 137.727 101.72 137.517 101.747 137.31C101.78 137.097 101.824 136.89 101.877 136.69C101.937 136.49 102.02 136.317 102.127 136.17C102.24 136.017 102.38 135.893 102.547 135.8C102.714 135.707 102.917 135.66 103.157 135.66C103.397 135.66 103.6 135.707 103.767 135.8C103.934 135.893 104.07 136.017 104.177 136.17C104.29 136.317 104.374 136.49 104.427 136.69C104.487 136.89 104.53 137.097 104.557 137.31C104.59 137.517 104.607 137.727 104.607 137.94C104.614 138.147 104.617 138.337 104.617 138.51C104.617 138.777 104.607 139.077 104.587 139.41C104.574 139.737 104.52 140.047 104.427 140.34C104.34 140.627 104.197 140.87 103.997 141.07C103.797 141.27 103.517 141.37 103.157 141.37C102.797 141.37 102.517 141.27 102.317 141.07C102.117 140.87 101.97 140.627 101.877 140.34C101.79 140.047 101.737 139.737 101.717 139.41C101.704 139.077 101.697 138.777 101.697 138.51ZM100.797 138.52C100.797 138.78 100.804 139.05 100.817 139.33C100.83 139.61 100.864 139.883 100.917 140.15C100.97 140.417 101.047 140.67 101.147 140.91C101.247 141.143 101.384 141.35 101.557 141.53C101.73 141.71 101.947 141.853 102.207 141.96C102.474 142.06 102.79 142.11 103.157 142.11C103.53 142.11 103.847 142.06 104.107 141.96C104.367 141.853 104.584 141.71 104.757 141.53C104.93 141.35 105.067 141.143 105.167 140.91C105.267 140.67 105.344 140.417 105.397 140.15C105.45 139.883 105.484 139.61 105.497 139.33C105.51 139.05 105.517 138.78 105.517 138.52C105.517 138.26 105.51 137.99 105.497 137.71C105.484 137.43 105.45 137.157 105.397 136.89C105.344 136.623 105.267 136.37 105.167 136.13C105.067 135.89 104.93 135.68 104.757 135.5C104.584 135.32 104.364 135.177 104.097 135.07C103.837 134.963 103.524 134.91 103.157 134.91C102.79 134.91 102.474 134.963 102.207 135.07C101.947 135.177 101.73 135.32 101.557 135.5C101.384 135.68 101.247 135.89 101.147 136.13C101.047 136.37 100.97 136.623 100.917 136.89C100.864 137.157 100.83 137.43 100.817 137.71C100.804 137.99 100.797 138.26 100.797 138.52ZM105.844 143.97H106.484C107.004 143.283 107.394 142.543 107.654 141.75C107.92 140.95 108.054 140.157 108.054 139.37C108.054 138.93 108.017 138.51 107.944 138.11C107.87 137.71 107.764 137.32 107.624 136.94C107.49 136.553 107.327 136.177 107.134 135.81C106.94 135.437 106.724 135.063 106.484 134.69H105.844C106.31 135.457 106.644 136.22 106.844 136.98C107.05 137.733 107.154 138.53 107.154 139.37C107.154 140.183 107.054 140.967 106.854 141.72C106.654 142.467 106.317 143.217 105.844 143.97Z" fill="#9747FF"/>
</g>
<g clip-path="url(#clip2_73_994)">
<path fill-rule="evenodd" clip-rule="evenodd" d="M24 175C24 170.582 27.5817 167 32 167H166C170.418 167 174 170.582 174 175V246C174 250.418 170.418 254 166 254H32C27.5817 254 24 250.418 24 246V175Z" fill="#FAFAFA"/>
<path d="M36.52 184.02H45.49V184.73H36.52V184.02ZM37.39 181.96H43.19V182.66H37.39V181.96ZM39.94 180.6H40.71V184.4H39.94V180.6ZM43.59 185.7L44.25 186.25C43.8433 186.437 43.3833 186.617 42.87 186.79C42.3633 186.963 41.8367 187.127 41.29 187.28C40.75 187.427 40.22 187.563 39.7 187.69C39.68 187.61 39.6433 187.513 39.59 187.4C39.5433 187.28 39.4967 187.183 39.45 187.11C39.9567 186.983 40.4667 186.843 40.98 186.69C41.4933 186.537 41.9767 186.377 42.43 186.21C42.89 186.037 43.2767 185.867 43.59 185.7ZM44.37 180.99L45.05 181.34C44.3833 182.26 43.6167 183.107 42.75 183.88C41.89 184.653 40.96 185.347 39.96 185.96C38.96 186.567 37.9267 187.09 36.86 187.53C36.8267 187.477 36.7767 187.41 36.71 187.33C36.6433 187.25 36.5767 187.17 36.51 187.09C36.4433 187.01 36.3833 186.947 36.33 186.9C37.41 186.493 38.4467 185.997 39.44 185.41C40.4333 184.823 41.3467 184.157 42.18 183.41C43.02 182.663 43.75 181.857 44.37 180.99ZM39.21 185.59H39.98V188.51C39.98 188.637 40 188.733 40.04 188.8C40.0867 188.867 40.1767 188.913 40.31 188.94C40.4433 188.96 40.64 188.97 40.9 188.97C40.9733 188.97 41.0933 188.97 41.26 188.97C41.4333 188.97 41.63 188.97 41.85 188.97C42.0767 188.97 42.3033 188.97 42.53 188.97C42.7567 188.97 42.9633 188.97 43.15 188.97C43.3433 188.97 43.4867 188.97 43.58 188.97C43.8067 188.97 43.9767 188.937 44.09 188.87C44.2033 188.803 44.28 188.67 44.32 188.47C44.3667 188.27 44.4033 187.973 44.43 187.58C44.49 187.62 44.5633 187.66 44.65 187.7C44.7367 187.74 44.8233 187.777 44.91 187.81C44.9967 187.837 45.0767 187.857 45.15 187.87C45.11 188.343 45.0433 188.71 44.95 188.97C44.8567 189.223 44.7067 189.4 44.5 189.5C44.2933 189.6 44 189.65 43.62 189.65C43.56 189.65 43.4367 189.65 43.25 189.65C43.0633 189.65 42.8467 189.65 42.6 189.65C42.36 189.65 42.1167 189.65 41.87 189.65C41.63 189.65 41.4167 189.65 41.23 189.65C41.05 189.65 40.9333 189.65 40.88 189.65C40.4467 189.65 40.1067 189.62 39.86 189.56C39.62 189.5 39.45 189.387 39.35 189.22C39.2567 189.053 39.21 188.82 39.21 188.52V185.59ZM47.96 181.3H54.43V182.02H47.96V181.3ZM47.96 183.63H54.41V184.34H47.96V183.63ZM47.9 186.02H54.43V186.73H47.9V186.02ZM47.53 181.3H48.27V184.93C48.27 185.31 48.2533 185.717 48.22 186.15C48.1867 186.583 48.1233 187.023 48.03 187.47C47.9433 187.91 47.8067 188.333 47.62 188.74C47.44 189.147 47.2 189.517 46.9 189.85C46.8667 189.797 46.8133 189.737 46.74 189.67C46.6667 189.61 46.5933 189.55 46.52 189.49C46.4467 189.43 46.38 189.387 46.32 189.36C46.6 189.047 46.82 188.707 46.98 188.34C47.14 187.973 47.26 187.597 47.34 187.21C47.42 186.817 47.47 186.427 47.49 186.04C47.5167 185.653 47.53 185.283 47.53 184.93V181.3ZM54.13 181.3H54.87V188.78C54.87 189.02 54.8333 189.203 54.76 189.33C54.6933 189.457 54.5767 189.553 54.41 189.62C54.2433 189.68 54.01 189.717 53.71 189.73C53.41 189.743 53.0233 189.747 52.55 189.74C52.53 189.647 52.4933 189.527 52.44 189.38C52.3933 189.24 52.3433 189.12 52.29 189.02C52.5233 189.027 52.7467 189.03 52.96 189.03C53.18 189.037 53.37 189.037 53.53 189.03C53.69 189.03 53.8 189.03 53.86 189.03C53.96 189.023 54.03 189.003 54.07 188.97C54.11 188.937 54.13 188.873 54.13 188.78V181.3ZM50.67 181.57H51.43V189.71H50.67V181.57ZM57.69 182.15H58.47V184.33C58.47 184.737 58.45 185.18 58.41 185.66C58.3767 186.14 58.3067 186.63 58.2 187.13C58.1 187.623 57.95 188.103 57.75 188.57C57.5567 189.037 57.3033 189.467 56.99 189.86C56.9433 189.807 56.88 189.75 56.8 189.69C56.72 189.63 56.6367 189.573 56.55 189.52C56.47 189.467 56.4 189.43 56.34 189.41C56.6467 189.037 56.89 188.637 57.07 188.21C57.25 187.777 57.3833 187.333 57.47 186.88C57.5633 186.427 57.6233 185.983 57.65 185.55C57.6767 185.11 57.69 184.703 57.69 184.33V182.15ZM60.41 180.74L61.13 180.55C61.25 180.783 61.3667 181.037 61.48 181.31C61.5933 181.577 61.68 181.81 61.74 182.01L60.98 182.24C60.9267 182.033 60.8433 181.79 60.73 181.51C60.6167 181.23 60.51 180.973 60.41 180.74ZM58.18 182.15H64.45V186.22H63.69V182.85H58.18V182.15ZM58.18 184.86H64.11V185.56H58.18V184.86Z" fill="#718096"/>
<path d="M43.056 215V202.4H41.022C40.95 202.88 40.8 203.282 40.572 203.606C40.344 203.93 40.062 204.194 39.726 204.398C39.402 204.59 39.03 204.728 38.61 204.812C38.202 204.884 37.776 204.914 37.332 204.902V206.828H40.5V215H43.056ZM47.1 212.228V215H48.396C48.408 215.192 48.384 215.378 48.324 215.558C48.264 215.75 48.174 215.918 48.054 216.062C47.934 216.218 47.79 216.35 47.622 216.458C47.466 216.566 47.298 216.638 47.118 216.674V217.97C47.502 217.91 47.862 217.796 48.198 217.628C48.546 217.472 48.846 217.268 49.098 217.016C49.35 216.764 49.548 216.464 49.692 216.116C49.848 215.78 49.926 215.408 49.926 215V212.228H47.1ZM51.6777 207.242H54.1257C54.1257 206.906 54.1557 206.57 54.2157 206.234C54.2877 205.886 54.4017 205.574 54.5577 205.298C54.7137 205.01 54.9177 204.782 55.1697 204.614C55.4337 204.434 55.7517 204.344 56.1237 204.344C56.6757 204.344 57.1257 204.518 57.4737 204.866C57.8337 205.202 58.0137 205.676 58.0137 206.288C58.0137 206.672 57.9237 207.014 57.7437 207.314C57.5757 207.614 57.3597 207.884 57.0957 208.124C56.8437 208.364 56.5617 208.586 56.2497 208.79C55.9377 208.982 55.6437 209.174 55.3677 209.366C54.8277 209.738 54.3117 210.104 53.8197 210.464C53.3397 210.824 52.9197 211.22 52.5597 211.652C52.1997 212.072 51.9117 212.552 51.6957 213.092C51.4917 213.632 51.3897 214.268 51.3897 215H60.6417V212.804H54.6837C54.9957 212.372 55.3557 211.994 55.7637 211.67C56.1717 211.346 56.5917 211.046 57.0237 210.77C57.4557 210.482 57.8817 210.194 58.3017 209.906C58.7337 209.618 59.1177 209.3 59.4537 208.952C59.7897 208.592 60.0597 208.184 60.2637 207.728C60.4677 207.272 60.5697 206.726 60.5697 206.09C60.5697 205.478 60.4497 204.926 60.2097 204.434C59.9817 203.942 59.6697 203.528 59.2737 203.192C58.8777 202.856 58.4157 202.598 57.8877 202.418C57.3717 202.238 56.8257 202.148 56.2497 202.148C55.4937 202.148 54.8217 202.28 54.2337 202.544C53.6577 202.796 53.1777 203.156 52.7937 203.624C52.4097 204.08 52.1217 204.62 51.9297 205.244C51.7377 205.856 51.6537 206.522 51.6777 207.242ZM70.0137 204.506V202.4H62.9757L61.7337 209.366H64.0377C64.2897 209.018 64.5597 208.766 64.8477 208.61C65.1357 208.442 65.5077 208.358 65.9637 208.358C66.3117 208.358 66.6177 208.418 66.8817 208.538C67.1457 208.658 67.3737 208.826 67.5657 209.042C67.7577 209.258 67.9017 209.51 67.9977 209.798C68.0937 210.086 68.1417 210.392 68.1417 210.716C68.1417 211.028 68.0877 211.334 67.9797 211.634C67.8837 211.922 67.7397 212.18 67.5477 212.408C67.3677 212.624 67.1397 212.804 66.8637 212.948C66.5997 213.08 66.2997 213.146 65.9637 213.146C65.3877 213.146 64.9137 212.978 64.5417 212.642C64.1697 212.294 63.9537 211.832 63.8937 211.256H61.3377C61.3497 211.916 61.4817 212.498 61.7337 213.002C61.9977 213.494 62.3457 213.908 62.7777 214.244C63.2097 214.58 63.7017 214.832 64.2537 215C64.8177 215.156 65.4057 215.234 66.0177 215.234C66.6537 215.246 67.2537 215.144 67.8177 214.928C68.3817 214.7 68.8737 214.382 69.2937 213.974C69.7257 213.566 70.0677 213.086 70.3197 212.534C70.5717 211.97 70.6977 211.364 70.6977 210.716C70.6977 210.128 70.6077 209.576 70.4277 209.06C70.2597 208.532 70.0077 208.076 69.6717 207.692C69.3477 207.308 68.9457 207.002 68.4657 206.774C67.9857 206.546 67.4337 206.432 66.8097 206.432C66.3057 206.432 65.8557 206.51 65.4597 206.666C65.0637 206.81 64.6917 207.056 64.3437 207.404L64.3077 207.368L64.8117 204.506H70.0137ZM76.1636 208.466C76.4876 208.466 76.7696 208.538 77.0096 208.682C77.2616 208.814 77.4656 208.994 77.6216 209.222C77.7776 209.438 77.8916 209.69 77.9636 209.978C78.0476 210.254 78.0896 210.542 78.0896 210.842C78.0896 211.13 78.0476 211.412 77.9636 211.688C77.8796 211.964 77.7536 212.21 77.5856 212.426C77.4176 212.642 77.2136 212.816 76.9736 212.948C76.7456 213.08 76.4756 213.146 76.1636 213.146C75.8396 213.146 75.5516 213.08 75.2996 212.948C75.0476 212.816 74.8316 212.642 74.6516 212.426C74.4836 212.198 74.3516 211.946 74.2556 211.67C74.1716 211.382 74.1296 211.094 74.1296 210.806C74.1296 210.494 74.1716 210.2 74.2556 209.924C74.3396 209.636 74.4656 209.384 74.6336 209.168C74.8016 208.952 75.0116 208.784 75.2636 208.664C75.5276 208.532 75.8276 208.466 76.1636 208.466ZM77.9996 205.64H80.4296C80.3576 205.076 80.2076 204.578 79.9796 204.146C79.7516 203.714 79.4576 203.354 79.0976 203.066C78.7376 202.766 78.3236 202.538 77.8556 202.382C77.3876 202.226 76.8836 202.148 76.3436 202.148C75.4436 202.148 74.6816 202.346 74.0576 202.742C73.4336 203.138 72.9236 203.654 72.5276 204.29C72.1316 204.914 71.8436 205.616 71.6636 206.396C71.4836 207.176 71.3936 207.956 71.3936 208.736C71.3936 209.54 71.4656 210.332 71.6096 211.112C71.7536 211.88 72.0116 212.57 72.3836 213.182C72.7556 213.794 73.2536 214.292 73.8776 214.676C74.5016 215.048 75.2876 215.234 76.2356 215.234C76.8956 215.234 77.4956 215.12 78.0356 214.892C78.5756 214.652 79.0376 214.328 79.4216 213.92C79.8176 213.5 80.1176 213.014 80.3216 212.462C80.5376 211.898 80.6456 211.292 80.6456 210.644C80.6456 210.14 80.5676 209.642 80.4116 209.15C80.2556 208.658 80.0096 208.22 79.6736 207.836C79.3136 207.44 78.8756 207.128 78.3596 206.9C77.8436 206.66 77.3156 206.54 76.7756 206.54C76.1636 206.54 75.6236 206.648 75.1556 206.864C74.6876 207.08 74.2796 207.44 73.9316 207.944L73.8956 207.908C73.9076 207.56 73.9556 207.164 74.0396 206.72C74.1236 206.276 74.2556 205.862 74.4356 205.478C74.6156 205.082 74.8556 204.752 75.1556 204.488C75.4676 204.212 75.8516 204.074 76.3076 204.074C76.7516 204.074 77.1236 204.23 77.4236 204.542C77.7236 204.854 77.9156 205.22 77.9996 205.64Z" fill="#111827"/>
<path d="M37.75 231.083L41.25 234.583L43.5833 232.25L48.25 236.917" stroke="#168AFF" stroke-linecap="round" stroke-linejoin="round"/>
<path d="M44.1667 236.917H48.2501V232.833" stroke="#168AFF" stroke-linecap="round" stroke-linejoin="round"/>
<path d="M58.7 230.78V230.03H55.2L54.54 233.71L55.27 233.75C55.4367 233.55 55.6267 233.39 55.84 233.27C56.06 233.143 56.31 233.08 56.59 233.08C56.83 233.08 57.0467 233.12 57.24 233.2C57.44 233.28 57.61 233.393 57.75 233.54C57.89 233.68 57.9967 233.85 58.07 234.05C58.15 234.243 58.19 234.457 58.19 234.69C58.19 234.97 58.15 235.217 58.07 235.43C57.99 235.637 57.88 235.81 57.74 235.95C57.6067 236.09 57.4467 236.197 57.26 236.27C57.08 236.337 56.89 236.37 56.69 236.37C56.4767 236.37 56.28 236.34 56.1 236.28C55.9267 236.213 55.7733 236.123 55.64 236.01C55.5133 235.89 55.41 235.753 55.33 235.6C55.2567 235.44 55.2133 235.27 55.2 235.09H54.35C54.3567 235.41 54.42 235.697 54.54 235.95C54.66 236.203 54.8233 236.417 55.03 236.59C55.2367 236.757 55.4733 236.887 55.74 236.98C56.0133 237.067 56.3033 237.11 56.61 237.11C57.0233 237.11 57.3833 237.047 57.69 236.92C58.0033 236.787 58.2633 236.61 58.47 236.39C58.6767 236.17 58.83 235.92 58.93 235.64C59.0367 235.353 59.09 235.06 59.09 234.76C59.09 234.353 59.03 234 58.91 233.7C58.79 233.393 58.6267 233.14 58.42 232.94C58.2133 232.733 57.97 232.58 57.69 232.48C57.41 232.38 57.1133 232.33 56.8 232.33C56.56 232.33 56.3167 232.373 56.07 232.46C55.83 232.54 55.6333 232.667 55.48 232.84L55.46 232.82L55.84 230.78H58.7ZM60.3866 235.89V237H60.9766C60.9833 237.08 60.9766 237.167 60.9566 237.26C60.9433 237.353 60.9133 237.443 60.8666 237.53C60.82 237.623 60.7566 237.707 60.6766 237.78C60.6033 237.86 60.51 237.92 60.3966 237.96V238.46C60.7833 238.347 61.0633 238.153 61.2366 237.88C61.41 237.607 61.4966 237.28 61.4966 236.9V235.89H60.3866ZM67.0398 230.78V230.03H63.5398L62.8798 233.71L63.6098 233.75C63.7765 233.55 63.9665 233.39 64.1798 233.27C64.3998 233.143 64.6498 233.08 64.9298 233.08C65.1698 233.08 65.3865 233.12 65.5798 233.2C65.7798 233.28 65.9498 233.393 66.0898 233.54C66.2298 233.68 66.3365 233.85 66.4098 234.05C66.4898 234.243 66.5298 234.457 66.5298 234.69C66.5298 234.97 66.4898 235.217 66.4098 235.43C66.3298 235.637 66.2198 235.81 66.0798 235.95C65.9465 236.09 65.7865 236.197 65.5998 236.27C65.4198 236.337 65.2298 236.37 65.0298 236.37C64.8165 236.37 64.6198 236.34 64.4398 236.28C64.2665 236.213 64.1132 236.123 63.9798 236.01C63.8532 235.89 63.7498 235.753 63.6698 235.6C63.5965 235.44 63.5532 235.27 63.5398 235.09H62.6898C62.6965 235.41 62.7598 235.697 62.8798 235.95C62.9998 236.203 63.1632 236.417 63.3698 236.59C63.5765 236.757 63.8132 236.887 64.0798 236.98C64.3532 237.067 64.6432 237.11 64.9498 237.11C65.3632 237.11 65.7232 237.047 66.0298 236.92C66.3432 236.787 66.6032 236.61 66.8098 236.39C67.0165 236.17 67.1698 235.92 67.2698 235.64C67.3765 235.353 67.4298 235.06 67.4298 234.76C67.4298 234.353 67.3698 234 67.2498 233.7C67.1298 233.393 66.9665 233.14 66.7598 232.94C66.5532 232.733 66.3098 232.58 66.0298 232.48C65.7498 232.38 65.4532 232.33 65.1398 232.33C64.8998 232.33 64.6565 232.373 64.4098 232.46C64.1698 232.54 63.9732 232.667 63.8198 232.84L63.7998 232.82L64.1798 230.78H67.0398ZM69.5665 231.92C69.5665 231.767 69.5765 231.607 69.5965 231.44C69.6165 231.267 69.6565 231.11 69.7165 230.97C69.7832 230.823 69.8732 230.703 69.9865 230.61C70.0998 230.51 70.2498 230.46 70.4365 230.46C70.6298 230.46 70.7798 230.51 70.8865 230.61C70.9998 230.703 71.0865 230.823 71.1465 230.97C71.2065 231.11 71.2432 231.267 71.2565 231.44C71.2765 231.607 71.2865 231.763 71.2865 231.91C71.2865 232.063 71.2765 232.227 71.2565 232.4C71.2365 232.573 71.1932 232.733 71.1265 232.88C71.0665 233.02 70.9798 233.137 70.8665 233.23C70.7532 233.323 70.5998 233.37 70.4065 233.37C70.2198 233.37 70.0698 233.323 69.9565 233.23C69.8498 233.13 69.7665 233.01 69.7065 232.87C69.6465 232.723 69.6065 232.567 69.5865 232.4C69.5732 232.227 69.5665 232.067 69.5665 231.92ZM68.8165 231.94C68.8165 232.213 68.8432 232.47 68.8965 232.71C68.9565 232.95 69.0498 233.16 69.1765 233.34C69.3032 233.52 69.4698 233.663 69.6765 233.77C69.8832 233.87 70.1365 233.92 70.4365 233.92C70.7298 233.92 70.9765 233.863 71.1765 233.75C71.3765 233.637 71.5398 233.49 71.6665 233.31C71.7998 233.123 71.8932 232.91 71.9465 232.67C72.0065 232.423 72.0365 232.17 72.0365 231.91C72.0365 231.637 72.0098 231.38 71.9565 231.14C71.9098 230.893 71.8232 230.68 71.6965 230.5C71.5765 230.32 71.4132 230.177 71.2065 230.07C71.0065 229.963 70.7498 229.91 70.4365 229.91C70.1298 229.91 69.8732 229.967 69.6665 230.08C69.4598 230.187 69.2932 230.333 69.1665 230.52C69.0398 230.707 68.9498 230.923 68.8965 231.17C68.8432 231.41 68.8165 231.667 68.8165 231.94ZM74.5065 235.12C74.5065 234.967 74.5165 234.807 74.5365 234.64C74.5565 234.467 74.5965 234.31 74.6565 234.17C74.7232 234.023 74.8132 233.903 74.9265 233.81C75.0398 233.71 75.1898 233.66 75.3765 233.66C75.5698 233.66 75.7198 233.71 75.8265 233.81C75.9398 233.903 76.0265 234.023 76.0865 234.17C76.1465 234.31 76.1832 234.467 76.1965 234.64C76.2165 234.807 76.2265 234.963 76.2265 235.11C76.2265 235.263 76.2165 235.427 76.1965 235.6C76.1765 235.773 76.1332 235.933 76.0665 236.08C76.0065 236.22 75.9198 236.337 75.8065 236.43C75.6932 236.523 75.5398 236.57 75.3465 236.57C75.1598 236.57 75.0098 236.523 74.8965 236.43C74.7898 236.33 74.7065 236.21 74.6465 236.07C74.5865 235.923 74.5465 235.767 74.5265 235.6C74.5132 235.427 74.5065 235.267 74.5065 235.12ZM73.7565 235.14C73.7565 235.413 73.7832 235.67 73.8365 235.91C73.8965 236.15 73.9898 236.36 74.1165 236.54C74.2432 236.713 74.4098 236.853 74.6165 236.96C74.8232 237.06 75.0765 237.11 75.3765 237.11C75.6698 237.11 75.9165 237.057 76.1165 236.95C76.3165 236.837 76.4798 236.69 76.6065 236.51C76.7398 236.323 76.8332 236.11 76.8865 235.87C76.9465 235.623 76.9765 235.37 76.9765 235.11C76.9765 234.837 76.9498 234.58 76.8965 234.34C76.8498 234.093 76.7632 233.88 76.6365 233.7C76.5165 233.52 76.3532 233.377 76.1465 233.27C75.9465 233.163 75.6898 233.11 75.3765 233.11C75.0698 233.11 74.8132 233.167 74.6065 233.28C74.3998 233.387 74.2332 233.533 74.1065 233.72C73.9798 233.907 73.8898 234.123 73.8365 234.37C73.7832 234.61 73.7565 234.867 73.7565 235.14ZM75.1565 229.78L69.7765 237.21H70.6365L76.0065 229.78H75.1565ZM82.7197 238.97H83.3697C82.8964 238.203 82.5564 237.443 82.3497 236.69C82.1497 235.937 82.0497 235.14 82.0497 234.3C82.0497 233.48 82.1497 232.697 82.3497 231.95C82.5497 231.203 82.8897 230.45 83.3697 229.69H82.7197C82.1997 230.377 81.8064 231.12 81.5397 231.92C81.2797 232.72 81.1497 233.513 81.1497 234.3C81.1497 234.74 81.1864 235.16 81.2597 235.56C81.333 235.96 81.4364 236.35 81.5697 236.73C81.7097 237.11 81.8764 237.483 82.0697 237.85C82.263 238.223 82.4797 238.597 82.7197 238.97ZM83.7676 233.82V234.62H86.6576V233.82H83.7676ZM90.7143 237V229.91H90.0643C90.0176 230.177 89.931 230.397 89.8043 230.57C89.6776 230.743 89.521 230.88 89.3343 230.98C89.1543 231.08 88.951 231.15 88.7243 231.19C88.4976 231.223 88.2643 231.24 88.0243 231.24V231.92H89.8643V237H90.7143ZM97.4109 230.78V230.03H93.9109L93.2509 233.71L93.9809 233.75C94.1476 233.55 94.3376 233.39 94.5509 233.27C94.7709 233.143 95.0209 233.08 95.3009 233.08C95.5409 233.08 95.7576 233.12 95.9509 233.2C96.1509 233.28 96.3209 233.393 96.4609 233.54C96.6009 233.68 96.7076 233.85 96.7809 234.05C96.8609 234.243 96.9009 234.457 96.9009 234.69C96.9009 234.97 96.8609 235.217 96.7809 235.43C96.7009 235.637 96.5909 235.81 96.4509 235.95C96.3176 236.09 96.1576 236.197 95.9709 236.27C95.7909 236.337 95.6009 236.37 95.4009 236.37C95.1876 236.37 94.9909 236.34 94.8109 236.28C94.6376 236.213 94.4843 236.123 94.3509 236.01C94.2243 235.89 94.1209 235.753 94.0409 235.6C93.9676 235.44 93.9243 235.27 93.9109 235.09H93.0609C93.0676 235.41 93.1309 235.697 93.2509 235.95C93.3709 236.203 93.5343 236.417 93.7409 236.59C93.9476 236.757 94.1843 236.887 94.4509 236.98C94.7243 237.067 95.0143 237.11 95.3209 237.11C95.7343 237.11 96.0943 237.047 96.4009 236.92C96.7143 236.787 96.9743 236.61 97.1809 236.39C97.3876 236.17 97.5409 235.92 97.6409 235.64C97.7476 235.353 97.8009 235.06 97.8009 234.76C97.8009 234.353 97.7409 234 97.6209 233.7C97.5009 233.393 97.3376 233.14 97.1309 232.94C96.9243 232.733 96.6809 232.58 96.4009 232.48C96.1209 232.38 95.8243 232.33 95.5109 232.33C95.2709 232.33 95.0276 232.373 94.7809 232.46C94.5409 232.54 94.3443 232.667 94.1909 232.84L94.1709 232.82L94.5509 230.78H97.4109ZM98.1776 238.97H98.8176C99.3376 238.283 99.7276 237.543 99.9876 236.75C100.254 235.95 100.388 235.157 100.388 234.37C100.388 233.93 100.351 233.51 100.278 233.11C100.204 232.71 100.098 232.32 99.9576 231.94C99.8242 231.553 99.6609 231.177 99.4676 230.81C99.2742 230.437 99.0576 230.063 98.8176 229.69H98.1776C98.6442 230.457 98.9776 231.22 99.1776 231.98C99.3842 232.733 99.4876 233.53 99.4876 234.37C99.4876 235.183 99.3876 235.967 99.1876 236.72C98.9876 237.467 98.6509 238.217 98.1776 238.97Z" fill="#168AFF"/>
<mask id="mask1_73_994" style="mask-type:luminance" maskUnits="userSpaceOnUse" x="148" y="179" width="14" height="14">
<path fill-rule="evenodd" clip-rule="evenodd" d="M148 179H162V193H148V179Z" fill="white"/>
</mask>
<g mask="url(#mask1_73_994)">
<path fill-rule="evenodd" clip-rule="evenodd" d="M155 180.75C152.101 180.75 149.75 183.101 149.75 186C149.75 188.899 152.101 191.25 155 191.25C157.899 191.25 160.25 188.899 160.25 186C160.25 183.101 157.899 180.75 155 180.75Z" stroke="#A0AEC0" stroke-linejoin="round"/>
<path d="M155 183.667V186" stroke="#A0AEC0" stroke-linecap="round" stroke-linejoin="round"/>
<path fill-rule="evenodd" clip-rule="evenodd" d="M155 188.333H155.006H155Z" fill="#A0AEC0"/>
<path d="M155 188.333H155.006" stroke="#A0AEC0" stroke-width="1.5" stroke-linecap="round" stroke-linejoin="round"/>
</g>
</g>
<path d="M27.232 29.6H37.36V31.04H27.232V29.6ZM27.232 33.312H37.36V34.72H27.232V33.312ZM27.168 37.104H37.408V38.544H27.168V37.104ZM26.368 29.6H27.872V35.376C27.872 35.9947 27.84 36.6613 27.776 37.376C27.7227 38.0907 27.6213 38.816 27.472 39.552C27.3227 40.2773 27.0987 40.976 26.8 41.648C26.512 42.3093 26.1227 42.9067 25.632 43.44C25.5573 43.3333 25.4453 43.216 25.296 43.088C25.1573 42.96 25.008 42.8373 24.848 42.72C24.6987 42.6027 24.5653 42.512 24.448 42.448C24.896 41.9467 25.248 41.408 25.504 40.832C25.76 40.2453 25.9467 39.6427 26.064 39.024C26.192 38.3947 26.272 37.7707 26.304 37.152C26.3467 36.5227 26.368 35.9253 26.368 35.36V29.6ZM36.784 29.6H38.288V41.44C38.288 41.8773 38.2293 42.2133 38.112 42.448C37.9947 42.6933 37.792 42.88 37.504 43.008C37.216 43.1253 36.8267 43.1947 36.336 43.216C35.8453 43.248 35.2213 43.2587 34.464 43.248C34.4427 43.056 34.3787 42.816 34.272 42.528C34.176 42.24 34.0747 41.9947 33.968 41.792C34.3093 41.8133 34.6453 41.8293 34.976 41.84C35.3067 41.84 35.5947 41.84 35.84 41.84C36.096 41.8293 36.272 41.824 36.368 41.824C36.528 41.824 36.6347 41.7973 36.688 41.744C36.752 41.68 36.784 41.5733 36.784 41.424V29.6ZM31.36 30.16H32.88V43.184H31.36V30.16ZM42.828 30.944H44.412V34.496C44.412 35.1573 44.3853 35.8773 44.332 36.656C44.2787 37.4347 44.1667 38.2293 43.996 39.04C43.836 39.84 43.6013 40.6187 43.292 41.376C42.9933 42.1333 42.5987 42.8267 42.108 43.456C42.012 43.36 41.884 43.248 41.724 43.12C41.564 43.0027 41.3987 42.8853 41.228 42.768C41.0573 42.6613 40.908 42.5813 40.78 42.528C41.2493 41.952 41.6173 41.3227 41.884 40.64C42.1613 39.9573 42.364 39.2587 42.492 38.544C42.6307 37.8187 42.7213 37.1147 42.764 36.432C42.8067 35.7387 42.828 35.0933 42.828 34.496V30.944ZM47.196 28.784L48.684 28.4C48.876 28.7627 49.0573 29.1573 49.228 29.584C49.4093 30.0107 49.548 30.3787 49.644 30.688L48.092 31.152C48.0067 30.832 47.8787 30.4533 47.708 30.016C47.5373 29.568 47.3667 29.1573 47.196 28.784ZM43.82 30.944H53.98V37.632H52.428V32.352H43.82V30.944ZM43.852 35.264H53.228V36.672H43.852V35.264ZM57.576 31.072H63.272V32.464H57.576V31.072ZM57.224 34.768H63.464V36.208H57.224V34.768ZM59.752 28.656H61.192V33.808C61.192 34.5333 61.16 35.3067 61.096 36.128C61.0427 36.9493 60.9147 37.7867 60.712 38.64C60.52 39.4827 60.2213 40.2933 59.816 41.072C59.4107 41.8507 58.8667 42.5547 58.184 43.184C58.1093 43.0773 58.008 42.96 57.88 42.832C57.7627 42.704 57.6347 42.576 57.496 42.448C57.3573 42.32 57.224 42.2133 57.096 42.128C57.736 41.5947 58.232 40.9813 58.584 40.288C58.9467 39.584 59.208 38.8533 59.368 38.096C59.5387 37.328 59.6453 36.576 59.688 35.84C59.7307 35.104 59.752 34.4267 59.752 33.808V28.656ZM60.92 36.72C61.0373 36.816 61.1867 36.9707 61.368 37.184C61.56 37.3973 61.768 37.6373 61.992 37.904C62.2267 38.16 62.456 38.4213 62.68 38.688C62.904 38.9547 63.1013 39.1947 63.272 39.408C63.4533 39.6107 63.5813 39.76 63.656 39.856L62.616 40.976C62.4773 40.7413 62.2907 40.464 62.056 40.144C61.832 39.824 61.592 39.4933 61.336 39.152C61.08 38.8 60.8293 38.4747 60.584 38.176C60.3493 37.8667 60.1573 37.6213 60.008 37.44L60.92 36.72ZM64.136 29.248H71.192V37.76H69.688V30.56H65.576V37.76H64.136V29.248ZM67.432 37.28H68.776V41.296C68.776 41.4987 68.8133 41.6373 68.888 41.712C68.9627 41.7867 69.0853 41.824 69.256 41.824H70.232C70.392 41.824 70.5093 41.76 70.584 41.632C70.6693 41.504 70.728 41.2587 70.76 40.896C70.8027 40.5227 70.8293 39.9893 70.84 39.296C71.0107 39.424 71.208 39.5413 71.432 39.648C71.6667 39.744 71.8693 39.808 72.04 39.84C71.9973 40.672 71.9227 41.3173 71.816 41.776C71.72 42.224 71.5493 42.5387 71.304 42.72C71.0693 42.9013 70.712 42.992 70.232 42.992H69.032C68.456 42.992 68.0453 42.8853 67.8 42.672C67.5547 42.4587 67.432 42.0533 67.432 41.456V37.28ZM66.936 31.776H68.344V34.624C68.344 35.3173 68.28 36.0587 68.152 36.848C68.024 37.6267 67.784 38.4107 67.432 39.2C67.0907 39.9787 66.5893 40.7253 65.928 41.44C65.2667 42.144 64.4027 42.7733 63.336 43.328C63.2827 43.232 63.1973 43.1093 63.08 42.96C62.9733 42.8213 62.856 42.6827 62.728 42.544C62.6107 42.416 62.4987 42.3147 62.392 42.24C63.4053 41.7173 64.216 41.1413 64.824 40.512C65.432 39.8827 65.8853 39.232 66.184 38.56C66.4933 37.888 66.696 37.216 66.792 36.544C66.888 35.8613 66.936 35.2107 66.936 34.592V31.776ZM78.756 29.712H88.052V30.976H78.756V29.712ZM78.436 38.624H88.052V39.872H78.436V38.624ZM80.9 28.496H82.324V32.064H80.9V28.496ZM84.532 28.496H85.988V32.064H84.532V28.496ZM80.724 35.424V36.368H85.796V35.424H80.724ZM80.724 33.44V34.384H85.796V33.44H80.724ZM79.316 32.352H87.252V37.456H79.316V32.352ZM82.516 37.296H84.004C83.9187 38.0747 83.7853 38.784 83.604 39.424C83.4333 40.0533 83.1613 40.6187 82.788 41.12C82.4147 41.6213 81.8973 42.0533 81.236 42.416C80.5853 42.7893 79.7427 43.0987 78.708 43.344C78.644 43.1733 78.532 42.9653 78.372 42.72C78.2227 42.4747 78.0733 42.2827 77.924 42.144C78.852 41.952 79.604 41.712 80.18 41.424C80.756 41.1253 81.1987 40.7787 81.508 40.384C81.828 39.9787 82.0573 39.52 82.196 39.008C82.3453 38.496 82.452 37.9253 82.516 37.296ZM84.34 39.056C84.66 39.824 85.172 40.4693 85.876 40.992C86.58 41.504 87.4387 41.8667 88.452 42.08C88.3453 42.176 88.2333 42.2987 88.116 42.448C87.9987 42.5973 87.8867 42.7467 87.78 42.896C87.6733 43.056 87.588 43.2 87.524 43.328C86.404 43.0293 85.476 42.5387 84.74 41.856C84.004 41.1733 83.4493 40.3253 83.076 39.312L84.34 39.056ZM73.652 31.536H78.532V32.944H73.652V31.536ZM75.524 28.496H76.964V43.328H75.524V28.496ZM75.652 32.512L76.532 32.832C76.4147 33.4827 76.2707 34.16 76.1 34.864C75.9293 35.5573 75.7373 36.24 75.524 36.912C75.3213 37.5733 75.0973 38.192 74.852 38.768C74.6067 39.344 74.3507 39.8347 74.084 40.24C74.0307 40.1013 73.9613 39.9413 73.876 39.76C73.7907 39.568 73.6947 39.3867 73.588 39.216C73.492 39.0347 73.4013 38.88 73.316 38.752C73.572 38.4 73.8173 37.984 74.052 37.504C74.2867 37.0133 74.5053 36.4853 74.708 35.92C74.9213 35.3547 75.108 34.7787 75.268 34.192C75.428 33.6053 75.556 33.0453 75.652 32.512ZM76.9 33.456C76.9853 33.5733 77.124 33.776 77.316 34.064C77.508 34.352 77.7107 34.6667 77.924 35.008C78.1373 35.3493 78.3347 35.6693 78.516 35.968C78.6973 36.256 78.8253 36.4693 78.9 36.608L77.972 37.68C77.8867 37.4453 77.764 37.1627 77.604 36.832C77.4547 36.4907 77.2893 36.144 77.108 35.792C76.9267 35.4293 76.7507 35.0933 76.58 34.784C76.42 34.464 76.2867 34.2133 76.18 34.032L76.9 33.456Z" fill="#111827"/>
<g clip-path="url(#clip3_73_994)">
<path fill-rule="evenodd" clip-rule="evenodd" d="M415 28C415 25.7909 416.791 24 419 24H504C506.209 24 508 25.7909 508 28V44C508 46.2091 506.209 48 504 48H419C416.791 48 415 46.2091 415 44V28Z" fill="#F9FAFB"/>
<g clip-path="url(#clip4_73_994)">
<path d="M435.157 34.47V35.32H441.257V34.47H435.157ZM439.307 35C438.977 37.41 437.727 38.53 435.177 39.05C435.347 39.25 435.557 39.65 435.627 39.87C438.437 39.17 439.827 37.88 440.327 35.06L439.307 35ZM435.747 36.97C437.397 37.78 439.537 39.04 440.557 39.87L441.237 39.14C440.147 38.31 437.967 37.11 436.367 36.35L435.747 36.97ZM437.497 30.66C437.657 31.15 437.847 31.81 437.907 32.23L438.897 32.05C438.807 31.63 438.627 30.99 438.447 30.51L437.497 30.66ZM435.747 36.97L436.647 37.33C437.227 36.24 437.957 34.55 438.367 33.12L437.407 32.98C437.057 34.29 436.337 35.94 435.747 36.97ZM435.467 31.79V33.82H436.357V32.62H440.207V33.81H441.127V31.79H435.467ZM431.897 36.12L432.107 37.03C433.057 36.75 434.277 36.38 435.417 36.02L435.287 35.17C434.057 35.53 432.767 35.9 431.897 36.12ZM432.027 32.52V33.4H435.237V32.52H432.027ZM433.307 30.56V38.81C433.307 38.95 433.247 39 433.117 39C432.987 39 432.577 39 432.147 38.99C432.267 39.23 432.397 39.61 432.417 39.84C433.097 39.85 433.537 39.82 433.827 39.68C434.117 39.54 434.217 39.29 434.217 38.81V30.56H433.307ZM444.237 31.07V31.99H449.357V31.07H444.237ZM444.247 33.47V34.37H449.407V33.47H444.247ZM444.177 35.86V36.78H449.347V35.86H444.177ZM443.617 31.07V34.25C443.617 35.82 443.467 37.81 441.887 39.17C442.097 39.3 442.477 39.65 442.617 39.85C444.327 38.39 444.587 35.99 444.587 34.25V31.07H443.617ZM448.927 31.07V38.54C448.927 38.76 448.857 38.83 448.617 38.84C448.387 38.84 447.567 38.85 446.787 38.82C446.947 39.08 447.127 39.53 447.187 39.81C448.247 39.81 448.927 39.8 449.357 39.63C449.767 39.47 449.927 39.17 449.927 38.56V31.07H448.927Z" fill="#718096"/>
</g>
<g clip-path="url(#clip5_73_994)" filter="url(#filter0_d_73_994)">
<g filter="url(#filter1_d_73_994)">
<path fill-rule="evenodd" clip-rule="evenodd" d="M464 30C464 27.7909 465.791 26 468 26H502C504.209 26 506 27.7909 506 30V42C506 44.2091 504.209 46 502 46H468C465.791 46 464 44.2091 464 42V30Z" fill="white"/>
</g>
<path d="M479.752 34.47V35.32H485.852V34.47H479.752ZM483.902 35C483.572 37.41 482.322 38.53 479.772 39.05C479.942 39.25 480.152 39.65 480.222 39.87C483.032 39.17 484.422 37.88 484.922 35.06L483.902 35ZM480.342 36.97C481.992 37.78 484.132 39.04 485.152 39.87L485.832 39.14C484.742 38.31 482.562 37.11 480.962 36.35L480.342 36.97ZM482.092 30.66C482.252 31.15 482.442 31.81 482.502 32.23L483.492 32.05C483.402 31.63 483.222 30.99 483.042 30.51L482.092 30.66ZM480.342 36.97L481.242 37.33C481.822 36.24 482.552 34.55 482.962 33.12L482.002 32.98C481.652 34.29 480.932 35.94 480.342 36.97ZM480.062 31.79V33.82H480.952V32.62H484.802V33.81H485.722V31.79H480.062ZM476.492 36.12L476.702 37.03C477.652 36.75 478.872 36.38 480.012 36.02L479.882 35.17C478.652 35.53 477.362 35.9 476.492 36.12ZM476.622 32.52V33.4H479.832V32.52H476.622ZM477.902 30.56V38.81C477.902 38.95 477.842 39 477.712 39C477.582 39 477.172 39 476.742 38.99C476.862 39.23 476.992 39.61 477.012 39.84C477.692 39.85 478.132 39.82 478.422 39.68C478.712 39.54 478.812 39.29 478.812 38.81V30.56H477.902ZM488.182 31.04V31.92H494.542V31.04H488.182ZM489.152 32.88V33.62H493.472V32.88H489.152ZM488.922 34.44V35.21H493.702V34.44H488.922ZM487.612 31.04V34.39C487.612 35.9 487.522 37.9 486.512 39.29C486.722 39.41 487.122 39.72 487.272 39.9C488.392 38.39 488.552 36.04 488.552 34.39V31.04H487.612ZM494.172 31.04V38.73C494.172 38.9 494.112 38.96 493.932 38.96C493.762 38.97 493.152 38.98 492.562 38.95C492.692 39.19 492.832 39.59 492.862 39.83C493.752 39.83 494.302 39.82 494.652 39.68C495.002 39.52 495.122 39.27 495.122 38.73V31.04H494.172ZM490.822 32.1V34.87H491.722V32.1H490.822ZM489.852 35.93V36.67H492.362V37.87H489.852V38.6H493.242V35.93H489.852ZM489.362 35.93V39.16H490.222V35.93H489.362Z" fill="#168AFF"/>
</g>
</g>
<path d="M197 221H475" stroke="#323B49"/>
<path d="M204 220V72" stroke="#F1F2F4"/>
<path d="M302 220V82" stroke="#CEEFDF" stroke-width="0.5"/>
<path d="M204 82H475" stroke="#F1F2F4" stroke-dasharray="12 6"/>
<path d="M204 128H475" stroke="#F1F2F4" stroke-dasharray="12 6"/>
<path d="M204 174H475" stroke="#F1F2F4" stroke-dasharray="12 6"/>
<path fill-rule="evenodd" clip-rule="evenodd" d="M205 173V219.5H474V112C451 112 430.5 192.5 413.5 191.5C401.5 191.5 387.97 136 373.5 137C359 138 345 156 333 152C321.13 148.04 308 116.5 299 121C288 126.5 273 166.21 261.5 164C248.5 161.5 238 133.85 228.5 137.5C222 140 213.5 165.5 205 173Z" fill="url(#paint0_linear_73_994)"/>
<path d="M205 173C213.5 165.5 222 140 228.5 137.5C238 133.85 248.5 161.5 261.5 164C273 166.21 288 126.5 299 121C308 116.5 321.13 148.04 333 152C345 156 359 138 373.5 137C387.97 136 401.5 191.5 413.5 191.5C430.5 192.5 451 112 474 112" stroke="#168AFF" stroke-width="1.5"/>
<path d="M205 177C221.5 177 245 143.5 262 143.5C274.5 143.5 291 168 301.5 168C315.5 168 328.5 157.14 340 156.5C351.5 155.86 370 160.66 380.5 161.5C391 162.34 403.5 155.15 417 156.5C429 157.7 456 183 474 183" stroke="#FFDE65" stroke-dasharray="8 4"/>
<g filter="url(#filter2_d_73_994)">
<path fill-rule="evenodd" clip-rule="evenodd" d="M302 164C299.79 164 298 165.79 298 168C298 170.21 299.79 172 302 172C304.21 172 306 170.21 306 168C306 165.79 304.21 164 302 164Z" fill="#FFD023"/>
<path d="M302 164.75C303.796 164.75 305.25 166.204 305.25 168C305.25 169.796 303.796 171.25 302 171.25C300.204 171.25 298.75 169.796 298.75 168C298.75 166.204 300.204 164.75 302 164.75Z" stroke="white" stroke-width="1.5"/>
</g>
<g filter="url(#filter3_d_73_994)">
<path fill-rule="evenodd" clip-rule="evenodd" d="M302 117C299.79 117 298 118.79 298 121C298 123.21 299.79 125 302 125C304.21 125 306 123.21 306 121C306 118.79 304.21 117 302 117Z" fill="#168AFF"/>
<path d="M302 117.75C303.796 117.75 305.25 119.204 305.25 121C305.25 122.796 303.796 124.25 302 124.25C300.204 124.25 298.75 122.796 298.75 121C298.75 119.204 300.204 117.75 302 117.75Z" stroke="white" stroke-width="1.5"/>
</g>
<g clip-path="url(#clip6_73_994)" filter="url(#filter4_d_73_994)">
<g filter="url(#filter5_d_73_994)">
<path fill-rule="evenodd" clip-rule="evenodd" d="M310 115C310 111.686 312.686 109 316 109H359C362.314 109 365 111.686 365 115V127C365 130.314 362.314 133 359 133H316C312.686 133 310 130.314 310 127V115Z" fill="white"/>
</g>
<mask id="mask2_73_994" style="mask-type:luminance" maskUnits="userSpaceOnUse" x="316" y="116" width="10" height="10">
<path fill-rule="evenodd" clip-rule="evenodd" d="M316 116H326V126H316V116Z" fill="white"/>
</mask>
<g mask="url(#mask2_73_994)">
<path fill-rule="evenodd" clip-rule="evenodd" d="M320.983 117.25C320.072 117.25 319.333 117.988 319.333 118.9C319.333 119.812 320.072 120.55 320.983 120.55C321.895 120.55 322.633 119.812 322.633 118.9C322.633 117.988 321.895 117.25 320.983 117.25Z" fill="#168AFF" stroke="#168AFF" stroke-width="0.5" stroke-linejoin="round"/>
<path fill-rule="evenodd" clip-rule="evenodd" d="M318.5 124.75V123.917C318.5 123.475 318.675 123.05 318.988 122.738C319.3 122.425 319.725 122.25 320.167 122.25H321.833C322.275 122.25 322.7 122.425 323.012 122.738C323.325 123.05 323.5 123.475 323.5 123.917V124.75" fill="#168AFF"/>
<path d="M318.5 124.75V123.917C318.5 123.475 318.675 123.05 318.988 122.738C319.3 122.425 319.725 122.25 320.167 122.25H321.833C322.275 122.25 322.7 122.425 323.012 122.738C323.325 123.05 323.5 123.475 323.5 123.917V124.75" stroke="#168AFF" stroke-width="0.5" stroke-linejoin="round"/>
</g>
<path d="M330.497 119.9C330.683 119.907 330.87 119.893 331.057 119.86C331.243 119.827 331.41 119.77 331.557 119.69C331.703 119.603 331.82 119.487 331.907 119.34C332 119.193 332.047 119.013 332.047 118.8C332.047 118.5 331.943 118.26 331.737 118.08C331.537 117.9 331.277 117.81 330.957 117.81C330.757 117.81 330.583 117.85 330.437 117.93C330.29 118.01 330.167 118.12 330.067 118.26C329.973 118.393 329.903 118.547 329.857 118.72C329.81 118.887 329.79 119.06 329.797 119.24H328.657C328.67 118.9 328.733 118.587 328.847 118.3C328.96 118.007 329.113 117.753 329.307 117.54C329.507 117.327 329.747 117.16 330.027 117.04C330.307 116.92 330.623 116.86 330.977 116.86C331.25 116.86 331.517 116.9 331.777 116.98C332.043 117.06 332.28 117.177 332.487 117.33C332.7 117.483 332.87 117.68 332.997 117.92C333.123 118.153 333.187 118.423 333.187 118.73C333.187 119.083 333.107 119.393 332.947 119.66C332.787 119.92 332.537 120.11 332.197 120.23V120.25C332.597 120.33 332.907 120.53 333.127 120.85C333.353 121.163 333.467 121.547 333.467 122C333.467 122.333 333.4 122.633 333.267 122.9C333.133 123.16 332.953 123.383 332.727 123.57C332.5 123.75 332.237 123.89 331.937 123.99C331.637 124.09 331.32 124.14 330.987 124.14C330.58 124.14 330.223 124.083 329.917 123.97C329.617 123.85 329.363 123.683 329.157 123.47C328.957 123.257 328.803 123 328.697 122.7C328.59 122.4 328.533 122.067 328.527 121.7H329.667C329.653 122.127 329.757 122.483 329.977 122.77C330.203 123.05 330.54 123.19 330.987 123.19C331.367 123.19 331.683 123.083 331.937 122.87C332.197 122.65 332.327 122.34 332.327 121.94C332.327 121.667 332.273 121.45 332.167 121.29C332.06 121.13 331.92 121.01 331.747 120.93C331.573 120.843 331.377 120.79 331.157 120.77C330.943 120.75 330.723 120.743 330.497 120.75V119.9ZM338.943 124H334.163C334.17 123.42 334.31 122.913 334.583 122.48C334.857 122.047 335.23 121.67 335.703 121.35C335.93 121.183 336.167 121.023 336.413 120.87C336.66 120.71 336.887 120.54 337.093 120.36C337.3 120.18 337.47 119.987 337.603 119.78C337.737 119.567 337.807 119.323 337.813 119.05C337.813 118.923 337.797 118.79 337.763 118.65C337.737 118.503 337.68 118.37 337.593 118.25C337.507 118.123 337.387 118.02 337.233 117.94C337.08 117.853 336.88 117.81 336.633 117.81C336.407 117.81 336.217 117.857 336.063 117.95C335.917 118.037 335.797 118.16 335.703 118.32C335.617 118.473 335.55 118.657 335.503 118.87C335.463 119.083 335.44 119.313 335.433 119.56H334.293C334.293 119.173 334.343 118.817 334.443 118.49C334.55 118.157 334.707 117.87 334.913 117.63C335.12 117.39 335.37 117.203 335.663 117.07C335.963 116.93 336.31 116.86 336.703 116.86C337.13 116.86 337.487 116.93 337.773 117.07C338.06 117.21 338.29 117.387 338.463 117.6C338.643 117.813 338.77 118.047 338.843 118.3C338.917 118.547 338.953 118.783 338.953 119.01C338.953 119.29 338.91 119.543 338.823 119.77C338.737 119.997 338.62 120.207 338.473 120.4C338.327 120.587 338.16 120.76 337.973 120.92C337.787 121.08 337.593 121.23 337.393 121.37C337.193 121.51 336.993 121.643 336.793 121.77C336.593 121.897 336.407 122.023 336.233 122.15C336.067 122.277 335.92 122.41 335.793 122.55C335.667 122.683 335.58 122.827 335.533 122.98H338.943V124ZM340.02 122.65H341.41V124C341.403 124.413 341.277 124.76 341.03 125.04C340.783 125.32 340.46 125.5 340.06 125.58V124.97C340.28 124.917 340.443 124.793 340.55 124.6C340.663 124.413 340.717 124.213 340.71 124H340.02V122.65ZM342.463 117H347.253V117.95C346.887 118.363 346.553 118.793 346.253 119.24C345.953 119.68 345.69 120.15 345.463 120.65C345.243 121.143 345.063 121.667 344.923 122.22C344.783 122.773 344.69 123.367 344.643 124H343.393C343.433 123.447 343.527 122.9 343.673 122.36C343.827 121.82 344.02 121.297 344.253 120.79C344.493 120.283 344.77 119.797 345.083 119.33C345.397 118.863 345.733 118.427 346.093 118.02H342.463V117ZM350.45 117.76C350.143 117.76 349.883 117.853 349.67 118.04C349.457 118.22 349.35 118.483 349.35 118.83C349.35 119.163 349.453 119.42 349.66 119.6C349.867 119.773 350.13 119.86 350.45 119.86C350.77 119.86 351.033 119.773 351.24 119.6C351.447 119.42 351.55 119.163 351.55 118.83C351.55 118.483 351.443 118.22 351.23 118.04C351.017 117.853 350.757 117.76 350.45 117.76ZM350.45 124.14C350.097 124.14 349.767 124.09 349.46 123.99C349.16 123.89 348.9 123.747 348.68 123.56C348.46 123.367 348.287 123.133 348.16 122.86C348.04 122.587 347.98 122.28 347.98 121.94C347.98 121.5 348.093 121.13 348.32 120.83C348.553 120.53 348.867 120.33 349.26 120.23V120.21C348.94 120.09 348.693 119.907 348.52 119.66C348.353 119.407 348.27 119.11 348.27 118.77C348.27 118.17 348.457 117.703 348.83 117.37C349.21 117.03 349.75 116.86 350.45 116.86C351.15 116.86 351.687 117.03 352.06 117.37C352.44 117.703 352.63 118.17 352.63 118.77C352.63 119.11 352.543 119.407 352.37 119.66C352.203 119.907 351.96 120.09 351.64 120.21V120.23C352.033 120.33 352.343 120.53 352.57 120.83C352.803 121.13 352.92 121.5 352.92 121.94C352.92 122.28 352.857 122.587 352.73 122.86C352.61 123.133 352.44 123.367 352.22 123.56C352 123.747 351.737 123.89 351.43 123.99C351.13 124.09 350.803 124.14 350.45 124.14ZM350.45 123.24C350.83 123.24 351.147 123.127 351.4 122.9C351.653 122.673 351.78 122.353 351.78 121.94C351.78 121.553 351.653 121.253 351.4 121.04C351.147 120.82 350.83 120.71 350.45 120.71C350.07 120.71 349.753 120.82 349.5 121.04C349.247 121.253 349.12 121.553 349.12 121.94C349.12 122.353 349.247 122.673 349.5 122.9C349.753 123.127 350.07 123.24 350.45 123.24ZM354.837 122.23C354.863 122.517 354.963 122.75 355.137 122.93C355.317 123.103 355.557 123.19 355.857 123.19C356.163 123.19 356.407 123.11 356.587 122.95C356.773 122.783 356.917 122.58 357.017 122.34C357.117 122.093 357.183 121.833 357.217 121.56C357.257 121.28 357.287 121.023 357.307 120.79L357.287 120.77C357.133 121.043 356.923 121.253 356.657 121.4C356.39 121.54 356.097 121.61 355.777 121.61C355.443 121.61 355.14 121.553 354.867 121.44C354.6 121.327 354.37 121.17 354.177 120.97C353.983 120.763 353.833 120.517 353.727 120.23C353.62 119.937 353.567 119.61 353.567 119.25C353.567 118.91 353.62 118.597 353.727 118.31C353.833 118.017 353.99 117.763 354.197 117.55C354.403 117.33 354.657 117.16 354.957 117.04C355.257 116.92 355.597 116.86 355.977 116.86C356.47 116.86 356.877 116.957 357.197 117.15C357.517 117.337 357.767 117.597 357.947 117.93C358.133 118.257 358.263 118.643 358.337 119.09C358.41 119.537 358.447 120.013 358.447 120.52C358.447 120.94 358.4 121.363 358.307 121.79C358.22 122.217 358.073 122.607 357.867 122.96C357.66 123.307 357.387 123.59 357.047 123.81C356.713 124.03 356.3 124.14 355.807 124.14C355.527 124.14 355.263 124.093 355.017 124C354.77 123.907 354.55 123.777 354.357 123.61C354.17 123.443 354.017 123.243 353.897 123.01C353.777 122.777 353.71 122.517 353.697 122.23H354.837ZM355.927 117.81C355.72 117.81 355.54 117.85 355.387 117.93C355.233 118.003 355.107 118.107 355.007 118.24C354.907 118.373 354.83 118.527 354.777 118.7C354.73 118.873 354.707 119.053 354.707 119.24C354.707 119.433 354.73 119.62 354.777 119.8C354.83 119.973 354.907 120.127 355.007 120.26C355.107 120.393 355.233 120.503 355.387 120.59C355.54 120.67 355.72 120.71 355.927 120.71C356.14 120.71 356.327 120.67 356.487 120.59C356.647 120.51 356.777 120.403 356.877 120.27C356.983 120.13 357.063 119.973 357.117 119.8C357.17 119.62 357.197 119.433 357.197 119.24C357.197 119.053 357.17 118.873 357.117 118.7C357.063 118.527 356.983 118.377 356.877 118.25C356.777 118.117 356.647 118.01 356.487 117.93C356.327 117.85 356.14 117.81 355.927 117.81Z" fill="#A0AEC0"/>
</g>
<path d="M216.528 242.328V243.312H227.508V242.328H216.528Z" fill="#A0AEC0"/>
<path d="M259.499 239.148V240.108H268.115V239.148H259.499ZM258.479 246.264V247.272H269.135V246.264H258.479Z" fill="#A0AEC0"/>
<path d="M297.927 238.596V239.496H306.999V238.596H297.927ZM298.695 242.52V243.42H306.051V242.52H298.695ZM297.231 246.684V247.596H307.647V246.684H297.231Z" fill="#A0AEC0"/>
<path d="M339.976 238.476V248.064H340.876V239.34H348.892V247.968H349.828V238.476H339.976ZM340.456 246.288V247.164H349.42V246.288H340.456ZM343.132 239.016C343.096 242.184 342.94 243.78 341.02 244.692C341.212 244.848 341.476 245.172 341.572 245.388C343.72 244.344 343.96 242.46 344.02 239.016H343.132ZM345.7 239.172V243.096C345.7 244.032 345.892 244.416 346.732 244.416C346.924 244.416 347.812 244.416 348.04 244.416C348.328 244.416 348.628 244.416 348.784 244.368C348.748 244.14 348.724 243.84 348.712 243.6C348.544 243.636 348.208 243.648 348.016 243.648C347.824 243.648 347.044 243.648 346.852 243.648C346.6 243.648 346.552 243.516 346.552 243.12V239.172H345.7Z" fill="#A0AEC0"/>
<path d="M378.339 238.596V239.484H387.411V238.596H378.339ZM377.583 246.912V247.812H388.263V246.912H377.583ZM381.855 238.908C381.519 241.572 380.895 245.28 380.415 247.428H381.399C381.843 245.34 382.455 241.644 382.851 238.908H381.855ZM378.999 242.088V242.964H385.635V242.088H378.999ZM385.287 242.088V242.208C385.215 243.396 385.011 245.772 384.807 247.44L385.731 247.512C385.947 245.844 386.163 243.612 386.247 242.112L385.551 242.052L385.395 242.088H385.287Z" fill="#A0AEC0"/>
<path d="M415.751 240.6V241.524H426.407V240.6H415.751ZM418.763 242.916C417.971 244.668 416.735 246.564 415.583 247.764C415.835 247.92 416.279 248.22 416.483 248.388C417.599 247.092 418.859 245.1 419.747 243.24L418.763 242.916ZM422.315 243.228C423.443 244.848 424.883 247.044 425.543 248.316L426.467 247.8C425.759 246.528 424.283 244.404 423.155 242.832L422.315 243.228ZM419.939 237.78C420.347 238.608 420.839 239.7 421.055 240.336L422.039 239.952C421.787 239.328 421.271 238.272 420.863 237.48L419.939 237.78Z" fill="#A0AEC0"/>
<path d="M455.993 238.236V248.328H456.917V239.148H462.905V248.28H463.853V238.236H455.993ZM456.605 242.4V243.288H463.301V242.4H456.605ZM456.593 246.648V247.548H463.325V246.648H456.593Z" fill="#A0AEC0"/>
<path d="M491.068 85.6H492.1V77.056H490.888L487.228 82.516V83.236H493.276V82.372H488.38L490.384 79.432C490.624 79.012 490.864 78.628 491.08 78.232H491.14C491.104 78.676 491.068 79.42 491.068 79.864V85.6ZM496.992 85.768C498.684 85.768 499.716 84.172 499.716 81.304C499.716 78.436 498.684 76.9 496.992 76.9C495.276 76.9 494.244 78.436 494.244 81.304C494.244 84.172 495.276 85.768 496.992 85.768ZM496.992 84.88C495.984 84.88 495.3 83.812 495.3 81.304C495.3 78.784 495.984 77.776 496.992 77.776C497.988 77.776 498.66 78.784 498.66 81.304C498.66 83.812 497.988 84.88 496.992 84.88ZM501.417 85.6H502.497V83.884L503.709 82.456L505.617 85.6H506.805L504.357 81.712L506.529 79.084H505.305L502.533 82.528H502.497V76.06H501.417V85.6Z" fill="#A0AEC0"/>
<path d="M490.156 132.035C491.728 132.035 492.988 131.111 492.988 129.587C492.988 128.423 492.148 127.655 491.116 127.415V127.367C492.052 127.019 492.676 126.359 492.676 125.327C492.676 123.947 491.596 123.167 490.12 123.167C489.112 123.167 488.332 123.611 487.672 124.223L488.26 124.919C488.752 124.415 489.376 124.043 490.084 124.043C490.996 124.043 491.56 124.571 491.56 125.399C491.56 126.299 490.948 127.007 489.136 127.007V127.847C491.164 127.847 491.872 128.531 491.872 129.551C491.872 130.511 491.128 131.123 490.084 131.123C489.076 131.123 488.416 130.643 487.9 130.103L487.348 130.823C487.924 131.459 488.776 132.035 490.156 132.035ZM496.992 132.035C498.684 132.035 499.716 130.439 499.716 127.571C499.716 124.703 498.684 123.167 496.992 123.167C495.276 123.167 494.244 124.703 494.244 127.571C494.244 130.439 495.276 132.035 496.992 132.035ZM496.992 131.147C495.984 131.147 495.3 130.079 495.3 127.571C495.3 125.051 495.984 124.043 496.992 124.043C497.988 124.043 498.66 125.051 498.66 127.571C498.66 130.079 497.988 131.147 496.992 131.147ZM501.417 131.867H502.497V130.151L503.709 128.723L505.617 131.867H506.805L504.357 127.979L506.529 125.351H505.305L502.533 128.795H502.497V122.327H501.417V131.867Z" fill="#A0AEC0"/>
<path d="M487.528 178.133H493.048V177.197H490.564C490.12 177.197 489.58 177.233 489.124 177.281C491.152 175.145 492.628 173.549 492.628 171.941C492.628 170.417 491.644 169.433 490.072 169.433C488.956 169.433 488.188 169.937 487.468 170.717L488.104 171.341C488.596 170.765 489.22 170.309 489.94 170.309C491.032 170.309 491.548 171.005 491.548 171.977C491.548 173.381 490.108 174.929 487.528 177.497V178.133ZM496.992 178.301C498.684 178.301 499.716 176.705 499.716 173.837C499.716 170.969 498.684 169.433 496.992 169.433C495.276 169.433 494.244 170.969 494.244 173.837C494.244 176.705 495.276 178.301 496.992 178.301ZM496.992 177.413C495.984 177.413 495.3 176.345 495.3 173.837C495.3 171.317 495.984 170.309 496.992 170.309C497.988 170.309 498.66 171.317 498.66 173.837C498.66 176.345 497.988 177.413 496.992 177.413ZM501.417 178.133H502.497V176.417L503.709 174.989L505.617 178.133H506.805L504.357 174.245L506.529 171.617H505.305L502.533 175.061H502.497V168.593H501.417V178.133Z" fill="#A0AEC0"/>
<path d="M488.056 224.4H492.88V223.488H491.104V215.856H490.264C489.796 216.132 489.232 216.336 488.44 216.48V217.188H490.012V223.488H488.056V224.4ZM496.992 224.568C498.684 224.568 499.716 222.972 499.716 220.104C499.716 217.236 498.684 215.7 496.992 215.7C495.276 215.7 494.244 217.236 494.244 220.104C494.244 222.972 495.276 224.568 496.992 224.568ZM496.992 223.68C495.984 223.68 495.3 222.612 495.3 220.104C495.3 217.584 495.984 216.576 496.992 216.576C497.988 216.576 498.66 217.584 498.66 220.104C498.66 222.612 497.988 223.68 496.992 223.68ZM501.417 224.4H502.497V222.684L503.709 221.256L505.617 224.4H506.805L504.357 220.512L506.529 217.884H505.305L502.533 221.328H502.497V214.86H501.417V224.4Z" fill="#A0AEC0"/>
</g>
<defs>
<filter id="filter0_d_73_994" x="460" y="24" width="50" height="28" filterUnits="userSpaceOnUse" color-interpolation-filters="sRGB">
<feFlood flood-opacity="0" result="BackgroundImageFix"/>
<feColorMatrix in="SourceAlpha" type="matrix" values="0 0 0 0 0 0 0 0 0 0 0 0 0 0 0 0 0 0 127 0" result="hardAlpha"/>
<feOffset dy="2"/>
<feGaussianBlur stdDeviation="2"/>
<feColorMatrix type="matrix" values="0 0 0 0 0.0666667 0 0 0 0 0.0941176 0 0 0 0 0.152941 0 0 0 0.04 0"/>
<feBlend mode="normal" in2="BackgroundImageFix" result="effect1_dropShadow_73_994"/>
<feBlend mode="normal" in="SourceGraphic" in2="effect1_dropShadow_73_994" result="shape"/>
</filter>
<filter id="filter1_d_73_994" x="460" y="24" width="50" height="28" filterUnits="userSpaceOnUse" color-interpolation-filters="sRGB">
<feFlood flood-opacity="0" result="BackgroundImageFix"/>
<feColorMatrix in="SourceAlpha" type="matrix" values="0 0 0 0 0 0 0 0 0 0 0 0 0 0 0 0 0 0 127 0" result="hardAlpha"/>
<feOffset dy="2"/>
<feGaussianBlur stdDeviation="2"/>
<feColorMatrix type="matrix" values="0 0 0 0 0.0666667 0 0 0 0 0.0941176 0 0 0 0 0.152941 0 0 0 0.04 0"/>
<feBlend mode="normal" in2="BackgroundImageFix" result="effect1_dropShadow_73_994"/>
<feBlend mode="normal" in="SourceGraphic" in2="effect1_dropShadow_73_994" result="shape"/>
</filter>
<filter id="filter2_d_73_994" x="294" y="162" width="16" height="16" filterUnits="userSpaceOnUse" color-interpolation-filters="sRGB">
<feFlood flood-opacity="0" result="BackgroundImageFix"/>
<feColorMatrix in="SourceAlpha" type="matrix" values="0 0 0 0 0 0 0 0 0 0 0 0 0 0 0 0 0 0 127 0" result="hardAlpha"/>
<feOffset dy="2"/>
<feGaussianBlur stdDeviation="2"/>
<feColorMatrix type="matrix" values="0 0 0 0 0.101961 0 0 0 0 0.12549 0 0 0 0 0.172549 0 0 0 0.05 0"/>
<feBlend mode="normal" in2="BackgroundImageFix" result="effect1_dropShadow_73_994"/>
<feBlend mode="normal" in="SourceGraphic" in2="effect1_dropShadow_73_994" result="shape"/>
</filter>
<filter id="filter3_d_73_994" x="294" y="115" width="16" height="16" filterUnits="userSpaceOnUse" color-interpolation-filters="sRGB">
<feFlood flood-opacity="0" result="BackgroundImageFix"/>
<feColorMatrix in="SourceAlpha" type="matrix" values="0 0 0 0 0 0 0 0 0 0 0 0 0 0 0 0 0 0 127 0" result="hardAlpha"/>
<feOffset dy="2"/>
<feGaussianBlur stdDeviation="2"/>
<feColorMatrix type="matrix" values="0 0 0 0 0.101961 0 0 0 0 0.12549 0 0 0 0 0.172549 0 0 0 0.05 0"/>
<feBlend mode="normal" in2="BackgroundImageFix" result="effect1_dropShadow_73_994"/>
<feBlend mode="normal" in="SourceGraphic" in2="effect1_dropShadow_73_994" result="shape"/>
</filter>
<filter id="filter4_d_73_994" x="272" y="77" width="135" height="104" filterUnits="userSpaceOnUse" color-interpolation-filters="sRGB">
<feFlood flood-opacity="0" result="BackgroundImageFix"/>
<feColorMatrix in="SourceAlpha" type="matrix" values="0 0 0 0 0 0 0 0 0 0 0 0 0 0 0 0 0 0 127 0" result="hardAlpha"/>
<feOffset dx="2" dy="8"/>
<feGaussianBlur stdDeviation="20"/>
<feColorMatrix type="matrix" values="0 0 0 0 0.101961 0 0 0 0 0.12549 0 0 0 0 0.172549 0 0 0 0.1 0"/>
<feBlend mode="normal" in2="BackgroundImageFix" result="effect1_dropShadow_73_994"/>
<feBlend mode="normal" in="SourceGraphic" in2="effect1_dropShadow_73_994" result="shape"/>
</filter>
<filter id="filter5_d_73_994" x="272" y="77" width="135" height="104" filterUnits="userSpaceOnUse" color-interpolation-filters="sRGB">
<feFlood flood-opacity="0" result="BackgroundImageFix"/>
<feColorMatrix in="SourceAlpha" type="matrix" values="0 0 0 0 0 0 0 0 0 0 0 0 0 0 0 0 0 0 127 0" result="hardAlpha"/>
<feOffset dx="2" dy="8"/>
<feGaussianBlur stdDeviation="20"/>
<feColorMatrix type="matrix" values="0 0 0 0 0.101961 0 0 0 0 0.12549 0 0 0 0 0.172549 0 0 0 0.1 0"/>
<feBlend mode="normal" in2="BackgroundImageFix" result="effect1_dropShadow_73_994"/>
<feBlend mode="normal" in="SourceGraphic" in2="effect1_dropShadow_73_994" result="shape"/>
</filter>
<linearGradient id="paint0_linear_73_994" x1="32.9651" y1="-8.99999" x2="32.9651" y2="236" gradientUnits="userSpaceOnUse">
<stop stop-color="#0BA259" stop-opacity="0.15"/>
<stop offset="1" stop-color="#0BA259" stop-opacity="0.01"/>
</linearGradient>
<clipPath id="clip0_73_994">
<rect width="532" height="278" fill="white"/>
</clipPath>
<clipPath id="clip1_73_994">
<rect width="150" height="87" fill="white" transform="translate(24 72)"/>
</clipPath>
<clipPath id="clip2_73_994">
<rect width="150" height="87" fill="white" transform="translate(24 167)"/>
</clipPath>
<clipPath id="clip3_73_994">
<rect width="93" height="24" fill="white" transform="translate(415 24)"/>
</clipPath>
<clipPath id="clip4_73_994">
<rect width="47" height="20" fill="white" transform="translate(417 26)"/>
</clipPath>
<clipPath id="clip5_73_994">
<rect width="42" height="20" fill="white" transform="translate(464 26)"/>
</clipPath>
<clipPath id="clip6_73_994">
<rect width="55" height="24" fill="white" transform="translate(310 109)"/>
</clipPath>
</defs>
</svg>
