<svg width="347" height="240" viewBox="0 0 347 240" fill="none" xmlns="http://www.w3.org/2000/svg">
<g clip-path="url(#clip0_73_1115)">
<path fill-rule="evenodd" clip-rule="evenodd" d="M0 16C0 7.16344 7.16344 0 16 0H331C339.837 0 347 7.16344 347 16V224C347 232.837 339.837 240 331 240H16C7.16344 240 0 232.837 0 224V16Z" fill="white"/>
<path d="M27.336 209.668C28.992 209.668 30.06 208.144 30.06 205.072C30.06 202.024 28.992 200.548 27.336 200.548C25.656 200.548 24.588 202.024 24.588 205.072C24.588 208.144 25.656 209.668 27.336 209.668ZM27.336 208.78C26.328 208.78 25.644 207.664 25.644 205.072C25.644 202.516 26.328 201.424 27.336 201.424C28.332 201.424 29.004 202.516 29.004 205.072C29.004 207.664 28.332 208.78 27.336 208.78ZM33.0203 209.5H34.1603C34.3043 206.068 34.6763 204.016 36.7403 201.364V200.704H31.2443V201.64H35.5043C33.7763 204.04 33.1763 206.176 33.0203 209.5ZM38.9685 204.82C39.4125 204.82 39.7725 204.484 39.7725 203.992C39.7725 203.488 39.4125 203.152 38.9685 203.152C38.5365 203.152 38.1885 203.488 38.1885 203.992C38.1885 204.484 38.5365 204.82 38.9685 204.82ZM38.9685 209.668C39.4125 209.668 39.7725 209.32 39.7725 208.828C39.7725 208.324 39.4125 207.988 38.9685 207.988C38.5365 207.988 38.1885 208.324 38.1885 208.828C38.1885 209.32 38.5365 209.668 38.9685 209.668ZM43.9883 209.668C45.6443 209.668 46.7123 208.144 46.7123 205.072C46.7123 202.024 45.6443 200.548 43.9883 200.548C42.3083 200.548 41.2403 202.024 41.2403 205.072C41.2403 208.144 42.3083 209.668 43.9883 209.668ZM43.9883 208.78C42.9803 208.78 42.2963 207.664 42.2963 205.072C42.2963 202.516 42.9803 201.424 43.9883 201.424C44.9843 201.424 45.6563 202.516 45.6563 205.072C45.6563 207.664 44.9843 208.78 43.9883 208.78ZM50.6446 209.668C52.3006 209.668 53.3686 208.144 53.3686 205.072C53.3686 202.024 52.3006 200.548 50.6446 200.548C48.9646 200.548 47.8966 202.024 47.8966 205.072C47.8966 208.144 48.9646 209.668 50.6446 209.668ZM50.6446 208.78C49.6366 208.78 48.9526 207.664 48.9526 205.072C48.9526 202.516 49.6366 201.424 50.6446 201.424C51.6406 201.424 52.3126 202.516 52.3126 205.072C52.3126 207.664 51.6406 208.78 50.6446 208.78Z" fill="#A0AEC0"/>
<path d="M94.6212 209.668C96.2772 209.668 97.3452 208.144 97.3452 205.072C97.3452 202.024 96.2772 200.548 94.6212 200.548C92.9412 200.548 91.8732 202.024 91.8732 205.072C91.8732 208.144 92.9412 209.668 94.6212 209.668ZM94.6212 208.78C93.6132 208.78 92.9292 207.664 92.9292 205.072C92.9292 202.516 93.6132 201.424 94.6212 201.424C95.6172 201.424 96.2892 202.516 96.2892 205.072C96.2892 207.664 95.6172 208.78 94.6212 208.78ZM100.749 209.668C102.405 209.668 103.941 208.3 103.941 204.724C103.941 201.928 102.681 200.548 100.989 200.548C99.6214 200.548 98.4694 201.7 98.4694 203.404C98.4694 205.228 99.4174 206.164 100.893 206.164C101.649 206.164 102.429 205.708 102.981 205.012L102.921 204.136C102.345 205.012 101.661 205.36 101.073 205.36C100.029 205.36 99.5014 204.58 99.5014 203.404C99.5014 202.192 100.149 201.4 100.989 201.4C102.225 201.4 102.909 202.564 102.909 204.724C102.909 207.736 101.889 208.756 100.713 208.756C100.149 208.756 99.6094 208.504 99.2374 208.072L98.6254 208.768C99.1174 209.284 99.7894 209.668 100.749 209.668ZM106.254 204.82C106.698 204.82 107.058 204.484 107.058 203.992C107.058 203.488 106.698 203.152 106.254 203.152C105.822 203.152 105.474 203.488 105.474 203.992C105.474 204.484 105.822 204.82 106.254 204.82ZM106.254 209.668C106.698 209.668 107.058 209.32 107.058 208.828C107.058 208.324 106.698 207.988 106.254 207.988C105.822 207.988 105.474 208.324 105.474 208.828C105.474 209.32 105.822 209.668 106.254 209.668ZM111.274 209.668C112.93 209.668 113.997 208.144 113.997 205.072C113.997 202.024 112.93 200.548 111.274 200.548C109.594 200.548 108.526 202.024 108.526 205.072C108.526 208.144 109.594 209.668 111.274 209.668ZM111.274 208.78C110.266 208.78 109.582 207.664 109.582 205.072C109.582 202.516 110.266 201.424 111.274 201.424C112.27 201.424 112.942 202.516 112.942 205.072C112.942 207.664 112.27 208.78 111.274 208.78ZM117.93 209.668C119.586 209.668 120.654 208.144 120.654 205.072C120.654 202.024 119.586 200.548 117.93 200.548C116.25 200.548 115.182 202.024 115.182 205.072C115.182 208.144 116.25 209.668 117.93 209.668ZM117.93 208.78C116.922 208.78 116.238 207.664 116.238 205.072C116.238 202.516 116.922 201.424 117.93 201.424C118.926 201.424 119.598 202.516 119.598 205.072C119.598 207.664 118.926 208.78 117.93 208.78Z" fill="#A0AEC0"/>
<path d="M159.626 209.5H164.45V208.588H162.674V200.704H161.834C161.366 200.992 160.802 201.196 160.01 201.328V202.036H161.582V208.588H159.626V209.5ZM168.563 209.668C170.219 209.668 171.287 208.144 171.287 205.072C171.287 202.024 170.219 200.548 168.563 200.548C166.883 200.548 165.815 202.024 165.815 205.072C165.815 208.144 166.883 209.668 168.563 209.668ZM168.563 208.78C167.555 208.78 166.871 207.664 166.871 205.072C166.871 202.516 167.555 201.424 168.563 201.424C169.559 201.424 170.231 202.516 170.231 205.072C170.231 207.664 169.559 208.78 168.563 208.78ZM173.539 204.82C173.983 204.82 174.343 204.484 174.343 203.992C174.343 203.488 173.983 203.152 173.539 203.152C173.107 203.152 172.759 203.488 172.759 203.992C172.759 204.484 173.107 204.82 173.539 204.82ZM173.539 209.668C173.983 209.668 174.343 209.32 174.343 208.828C174.343 208.324 173.983 207.988 173.539 207.988C173.107 207.988 172.759 208.324 172.759 208.828C172.759 209.32 173.107 209.668 173.539 209.668ZM178.559 209.668C180.215 209.668 181.283 208.144 181.283 205.072C181.283 202.024 180.215 200.548 178.559 200.548C176.879 200.548 175.811 202.024 175.811 205.072C175.811 208.144 176.879 209.668 178.559 209.668ZM178.559 208.78C177.551 208.78 176.867 207.664 176.867 205.072C176.867 202.516 177.551 201.424 178.559 201.424C179.555 201.424 180.227 202.516 180.227 205.072C180.227 207.664 179.555 208.78 178.559 208.78ZM185.215 209.668C186.871 209.668 187.939 208.144 187.939 205.072C187.939 202.024 186.871 200.548 185.215 200.548C183.535 200.548 182.467 202.024 182.467 205.072C182.467 208.144 183.535 209.668 185.215 209.668ZM185.215 208.78C184.207 208.78 183.523 207.664 183.523 205.072C183.523 202.516 184.207 201.424 185.215 201.424C186.211 201.424 186.883 202.516 186.883 205.072C186.883 207.664 186.211 208.78 185.215 208.78Z" fill="#A0AEC0"/>
<path d="M226.911 209.5H231.735V208.588H229.959V200.704H229.119C228.651 200.992 228.087 201.196 227.295 201.328V202.036H228.867V208.588H226.911V209.5ZM233.568 209.5H238.392V208.588H236.616V200.704H235.776C235.308 200.992 234.744 201.196 233.952 201.328V202.036H235.524V208.588H233.568V209.5ZM240.824 204.82C241.268 204.82 241.628 204.484 241.628 203.992C241.628 203.488 241.268 203.152 240.824 203.152C240.392 203.152 240.044 203.488 240.044 203.992C240.044 204.484 240.392 204.82 240.824 204.82ZM240.824 209.668C241.268 209.668 241.628 209.32 241.628 208.828C241.628 208.324 241.268 207.988 240.824 207.988C240.392 207.988 240.044 208.324 240.044 208.828C240.044 209.32 240.392 209.668 240.824 209.668ZM245.844 209.668C247.5 209.668 248.568 208.144 248.568 205.072C248.568 202.024 247.5 200.548 245.844 200.548C244.164 200.548 243.096 202.024 243.096 205.072C243.096 208.144 244.164 209.668 245.844 209.668ZM245.844 208.78C244.836 208.78 244.152 207.664 244.152 205.072C244.152 202.516 244.836 201.424 245.844 201.424C246.84 201.424 247.512 202.516 247.512 205.072C247.512 207.664 246.84 208.78 245.844 208.78ZM252.5 209.668C254.156 209.668 255.224 208.144 255.224 205.072C255.224 202.024 254.156 200.548 252.5 200.548C250.82 200.548 249.752 202.024 249.752 205.072C249.752 208.144 250.82 209.668 252.5 209.668ZM252.5 208.78C251.492 208.78 250.808 207.664 250.808 205.072C250.808 202.516 251.492 201.424 252.5 201.424C253.496 201.424 254.168 202.516 254.168 205.072C254.168 207.664 253.496 208.78 252.5 208.78Z" fill="#A0AEC0"/>
<path d="M294.197 209.5H299.021V208.588H297.245V200.704H296.405C295.937 200.992 295.373 201.196 294.581 201.328V202.036H296.153V208.588H294.197V209.5ZM300.325 209.5H305.845V208.564H303.409C302.965 208.564 302.437 208.6 301.969 208.648C304.045 206.692 305.425 204.904 305.425 203.14C305.425 201.568 304.441 200.548 302.869 200.548C301.753 200.548 300.985 201.064 300.265 201.844L300.901 202.456C301.393 201.88 302.017 201.436 302.737 201.436C303.829 201.436 304.345 202.18 304.345 203.188C304.345 204.688 303.085 206.452 300.325 208.864V209.5ZM308.109 204.82C308.553 204.82 308.913 204.484 308.913 203.992C308.913 203.488 308.553 203.152 308.109 203.152C307.677 203.152 307.329 203.488 307.329 203.992C307.329 204.484 307.677 204.82 308.109 204.82ZM308.109 209.668C308.553 209.668 308.913 209.32 308.913 208.828C308.913 208.324 308.553 207.988 308.109 207.988C307.677 207.988 307.329 208.324 307.329 208.828C307.329 209.32 307.677 209.668 308.109 209.668ZM313.129 209.668C314.785 209.668 315.853 208.144 315.853 205.072C315.853 202.024 314.785 200.548 313.129 200.548C311.449 200.548 310.381 202.024 310.381 205.072C310.381 208.144 311.449 209.668 313.129 209.668ZM313.129 208.78C312.121 208.78 311.437 207.664 311.437 205.072C311.437 202.516 312.121 201.424 313.129 201.424C314.125 201.424 314.797 202.516 314.797 205.072C314.797 207.664 314.125 208.78 313.129 208.78ZM319.785 209.668C321.441 209.668 322.509 208.144 322.509 205.072C322.509 202.024 321.441 200.548 319.785 200.548C318.105 200.548 317.037 202.024 317.037 205.072C317.037 208.144 318.105 209.668 319.785 209.668ZM319.785 208.78C318.777 208.78 318.093 207.664 318.093 205.072C318.093 202.516 318.777 201.424 319.785 201.424C320.781 201.424 321.453 202.516 321.453 205.072C321.453 207.664 320.781 208.78 319.785 208.78Z" fill="#A0AEC0"/>
<path d="M27.232 29.6H37.36V31.04H27.232V29.6ZM27.232 33.312H37.36V34.72H27.232V33.312ZM27.168 37.104H37.408V38.544H27.168V37.104ZM26.368 29.6H27.872V35.376C27.872 35.9947 27.84 36.6613 27.776 37.376C27.7227 38.0907 27.6213 38.816 27.472 39.552C27.3227 40.2773 27.0987 40.976 26.8 41.648C26.512 42.3093 26.1227 42.9067 25.632 43.44C25.5573 43.3333 25.4453 43.216 25.296 43.088C25.1573 42.96 25.008 42.8373 24.848 42.72C24.6987 42.6027 24.5653 42.512 24.448 42.448C24.896 41.9467 25.248 41.408 25.504 40.832C25.76 40.2453 25.9467 39.6427 26.064 39.024C26.192 38.3947 26.272 37.7707 26.304 37.152C26.3467 36.5227 26.368 35.9253 26.368 35.36V29.6ZM36.784 29.6H38.288V41.44C38.288 41.8773 38.2293 42.2133 38.112 42.448C37.9947 42.6933 37.792 42.88 37.504 43.008C37.216 43.1253 36.8267 43.1947 36.336 43.216C35.8453 43.248 35.2213 43.2587 34.464 43.248C34.4427 43.056 34.3787 42.816 34.272 42.528C34.176 42.24 34.0747 41.9947 33.968 41.792C34.3093 41.8133 34.6453 41.8293 34.976 41.84C35.3067 41.84 35.5947 41.84 35.84 41.84C36.096 41.8293 36.272 41.824 36.368 41.824C36.528 41.824 36.6347 41.7973 36.688 41.744C36.752 41.68 36.784 41.5733 36.784 41.424V29.6ZM31.36 30.16H32.88V43.184H31.36V30.16ZM42.828 30.944H44.412V34.496C44.412 35.1573 44.3853 35.8773 44.332 36.656C44.2787 37.4347 44.1667 38.2293 43.996 39.04C43.836 39.84 43.6013 40.6187 43.292 41.376C42.9933 42.1333 42.5987 42.8267 42.108 43.456C42.012 43.36 41.884 43.248 41.724 43.12C41.564 43.0027 41.3987 42.8853 41.228 42.768C41.0573 42.6613 40.908 42.5813 40.78 42.528C41.2493 41.952 41.6173 41.3227 41.884 40.64C42.1613 39.9573 42.364 39.2587 42.492 38.544C42.6307 37.8187 42.7213 37.1147 42.764 36.432C42.8067 35.7387 42.828 35.0933 42.828 34.496V30.944ZM47.196 28.784L48.684 28.4C48.876 28.7627 49.0573 29.1573 49.228 29.584C49.4093 30.0107 49.548 30.3787 49.644 30.688L48.092 31.152C48.0067 30.832 47.8787 30.4533 47.708 30.016C47.5373 29.568 47.3667 29.1573 47.196 28.784ZM43.82 30.944H53.98V37.632H52.428V32.352H43.82V30.944ZM43.852 35.264H53.228V36.672H43.852V35.264Z" fill="#111827"/>
<mask id="mask0_73_1115" style="mask-type:luminance" maskUnits="userSpaceOnUse" x="67" y="31" width="14" height="14">
<path fill-rule="evenodd" clip-rule="evenodd" d="M67 31H81V45H67V31Z" fill="white"/>
</mask>
<g mask="url(#mask0_73_1115)">
<path fill-rule="evenodd" clip-rule="evenodd" d="M73.7273 32C70.5645 32 68 34.5645 68 37.7273C68 40.89 70.5645 43.4545 73.7273 43.4545C76.89 43.4545 79.4545 40.89 79.4545 37.7273C79.4545 34.5645 76.89 32 73.7273 32Z" stroke="#A0AEC0" stroke-linejoin="round"/>
<path d="M73.7273 35.1818L73.8273 37.7272" stroke="#A0AEC0" stroke-linecap="round" stroke-linejoin="round"/>
<path fill-rule="evenodd" clip-rule="evenodd" d="M73.7273 40.2727L73.8273 40.3727L73.7273 40.2727Z" fill="#A0AEC0"/>
<path d="M73.7273 40.2727L73.8273 40.3727" stroke="#A0AEC0" stroke-width="1.5" stroke-linecap="round" stroke-linejoin="round"/>
</g>
<mask id="mask1_73_1115" style="mask-type:luminance" maskUnits="userSpaceOnUse" x="299" y="24" width="24" height="24">
<path fill-rule="evenodd" clip-rule="evenodd" d="M323 24V48H299V24L323 24Z" fill="white"/>
</mask>
<g mask="url(#mask1_73_1115)">
<path fill-rule="evenodd" clip-rule="evenodd" d="M312 36C312 35.45 311.55 35 311 35C310.45 35 310 35.45 310 36C310 36.55 310.45 37 311 37C311.55 37 312 36.55 312 36Z" stroke="#A0AEC0" stroke-width="2" stroke-linejoin="round"/>
<path fill-rule="evenodd" clip-rule="evenodd" d="M305 36C305 35.45 304.55 35 304 35C303.45 35 303 35.45 303 36C303 36.55 303.45 37 304 37C304.55 37 305 36.55 305 36Z" stroke="#A0AEC0" stroke-width="2" stroke-linejoin="round"/>
<path fill-rule="evenodd" clip-rule="evenodd" d="M319 36C319 35.45 318.55 35 318 35C317.45 35 317 35.45 317 36C317 36.55 317.45 37 318 37C318.55 37 319 36.55 319 36Z" stroke="#A0AEC0" stroke-width="2" stroke-linejoin="round"/>
</g>
<path fill-rule="evenodd" clip-rule="evenodd" d="M39.5 64V76H40.5V64H39.5ZM39.5 82V94H40.5V82H39.5ZM39.5 112V100H40.5V112H39.5ZM39.5 118V130H40.5V118H39.5ZM39.5 148V136H40.5V148H39.5ZM39.5 154V166H40.5V154H39.5ZM39.5 184V172H40.5V184H39.5Z" fill="#F1F2F4"/>
<path fill-rule="evenodd" clip-rule="evenodd" d="M110.5 64V76H111.5V64H110.5ZM110.5 82V94H111.5V82H110.5ZM110.5 112V100H111.5V112H110.5ZM110.5 118V130H111.5V118H110.5ZM110.5 148V136H111.5V148H110.5ZM110.5 154V166H111.5V154H110.5ZM110.5 184V172H111.5V184H110.5Z" fill="#F1F2F4"/>
<path fill-rule="evenodd" clip-rule="evenodd" d="M177.5 64V76H178.5V64H177.5ZM177.5 82V94H178.5V82H177.5ZM177.5 112V100H178.5V112H177.5ZM177.5 118V130H178.5V118H177.5ZM177.5 148V136H178.5V148H177.5ZM177.5 154V166H178.5V154H177.5ZM177.5 184V172H178.5V184H177.5Z" fill="#F1F2F4"/>
<path fill-rule="evenodd" clip-rule="evenodd" d="M244.5 64V76H245.5V64H244.5ZM244.5 82V94H245.5V82H244.5ZM244.5 112V100H245.5V112H244.5ZM244.5 118V130H245.5V118H244.5ZM244.5 148V136H245.5V148H244.5ZM244.5 154V166H245.5V154H244.5ZM244.5 184V172H245.5V184H244.5Z" fill="#F1F2F4"/>
<path fill-rule="evenodd" clip-rule="evenodd" d="M309.5 64V76H310.5V64H309.5ZM309.5 82V94H310.5V82H309.5ZM309.5 112V100H310.5V112H309.5ZM309.5 118V130H310.5V118H309.5ZM309.5 148V136H310.5V148H309.5ZM309.5 154V166H310.5V154H309.5ZM309.5 184V172H310.5V184H309.5Z" fill="#F1F2F4"/>
<path d="M25.58 62.45V63.42H31.73V62.45H25.58ZM27.86 60.78C28.51 61.28 29.37 62 29.76 62.45L30.44 61.77C30.01 61.33 29.12 60.66 28.49 60.2L27.86 60.78ZM29.39 57.94L28.57 58.35C29.66 59.72 31.46 61.16 32.95 61.92C33.12 61.66 33.44 61.26 33.69 61.06C32.18 60.41 30.35 59.12 29.39 57.94ZM28.88 57.47C27.88 59.01 26.09 60.36 24.3 61.15C24.58 61.38 24.87 61.74 25.03 62C26.86 61.07 28.66 59.62 29.81 57.91L28.88 57.47ZM31.62 62.45V62.56C30.95 63.47 29.6 65.18 28.51 66.44L29.49 66.89C30.56 65.58 31.85 63.94 32.7 62.76L31.96 62.4L31.79 62.45H31.62ZM39.5 61.83L38.62 62.06C39.4 64.42 40.78 66.05 43.07 66.8C43.21 66.53 43.49 66.13 43.72 65.93C41.54 65.33 40.15 63.85 39.5 61.83ZM35.01 58.29V59.26H42.95V58.29H35.01ZM34.65 61.34V62.31H43.36V61.34H34.65ZM38.43 58.62V60.37C38.43 62.13 38.07 64.59 34.36 66.01C34.56 66.2 34.85 66.58 34.98 66.81C38.99 65.23 39.42 62.45 39.42 60.38V58.62H38.43Z" fill="#718096"/>
<g clip-path="url(#clip1_73_1115)">
<path d="M31.056 88V75.4H29.022C28.95 75.88 28.8 76.282 28.572 76.606C28.344 76.93 28.062 77.194 27.726 77.398C27.402 77.59 27.03 77.728 26.61 77.812C26.202 77.884 25.776 77.914 25.332 77.902V79.828H28.5V88H31.056ZM35.1 85.228V88H36.396C36.408 88.192 36.384 88.378 36.324 88.558C36.264 88.75 36.174 88.918 36.054 89.062C35.934 89.218 35.79 89.35 35.622 89.458C35.466 89.566 35.298 89.638 35.118 89.674V90.97C35.502 90.91 35.862 90.796 36.198 90.628C36.546 90.472 36.846 90.268 37.098 90.016C37.35 89.764 37.548 89.464 37.692 89.116C37.848 88.78 37.926 88.408 37.926 88V85.228H35.1ZM39.6777 80.242H42.1257C42.1257 79.906 42.1557 79.57 42.2157 79.234C42.2877 78.886 42.4017 78.574 42.5577 78.298C42.7137 78.01 42.9177 77.782 43.1697 77.614C43.4337 77.434 43.7517 77.344 44.1237 77.344C44.6757 77.344 45.1257 77.518 45.4737 77.866C45.8337 78.202 46.0137 78.676 46.0137 79.288C46.0137 79.672 45.9237 80.014 45.7437 80.314C45.5757 80.614 45.3597 80.884 45.0957 81.124C44.8437 81.364 44.5617 81.586 44.2497 81.79C43.9377 81.982 43.6437 82.174 43.3677 82.366C42.8277 82.738 42.3117 83.104 41.8197 83.464C41.3397 83.824 40.9197 84.22 40.5597 84.652C40.1997 85.072 39.9117 85.552 39.6957 86.092C39.4917 86.632 39.3897 87.268 39.3897 88H48.6417V85.804H42.6837C42.9957 85.372 43.3557 84.994 43.7637 84.67C44.1717 84.346 44.5917 84.046 45.0237 83.77C45.4557 83.482 45.8817 83.194 46.3017 82.906C46.7337 82.618 47.1177 82.3 47.4537 81.952C47.7897 81.592 48.0597 81.184 48.2637 80.728C48.4677 80.272 48.5697 79.726 48.5697 79.09C48.5697 78.478 48.4497 77.926 48.2097 77.434C47.9817 76.942 47.6697 76.528 47.2737 76.192C46.8777 75.856 46.4157 75.598 45.8877 75.418C45.3717 75.238 44.8257 75.148 44.2497 75.148C43.4937 75.148 42.8217 75.28 42.2337 75.544C41.6577 75.796 41.1777 76.156 40.7937 76.624C40.4097 77.08 40.1217 77.62 39.9297 78.244C39.7377 78.856 39.6537 79.522 39.6777 80.242ZM58.0137 77.506V75.4H50.9757L49.7337 82.366H52.0377C52.2897 82.018 52.5597 81.766 52.8477 81.61C53.1357 81.442 53.5077 81.358 53.9637 81.358C54.3117 81.358 54.6177 81.418 54.8817 81.538C55.1457 81.658 55.3737 81.826 55.5657 82.042C55.7577 82.258 55.9017 82.51 55.9977 82.798C56.0937 83.086 56.1417 83.392 56.1417 83.716C56.1417 84.028 56.0877 84.334 55.9797 84.634C55.8837 84.922 55.7397 85.18 55.5477 85.408C55.3677 85.624 55.1397 85.804 54.8637 85.948C54.5997 86.08 54.2997 86.146 53.9637 86.146C53.3877 86.146 52.9137 85.978 52.5417 85.642C52.1697 85.294 51.9537 84.832 51.8937 84.256H49.3377C49.3497 84.916 49.4817 85.498 49.7337 86.002C49.9977 86.494 50.3457 86.908 50.7777 87.244C51.2097 87.58 51.7017 87.832 52.2537 88C52.8177 88.156 53.4057 88.234 54.0177 88.234C54.6537 88.246 55.2537 88.144 55.8177 87.928C56.3817 87.7 56.8737 87.382 57.2937 86.974C57.7257 86.566 58.0677 86.086 58.3197 85.534C58.5717 84.97 58.6977 84.364 58.6977 83.716C58.6977 83.128 58.6077 82.576 58.4277 82.06C58.2597 81.532 58.0077 81.076 57.6717 80.692C57.3477 80.308 56.9457 80.002 56.4657 79.774C55.9857 79.546 55.4337 79.432 54.8097 79.432C54.3057 79.432 53.8557 79.51 53.4597 79.666C53.0637 79.81 52.6917 80.056 52.3437 80.404L52.3077 80.368L52.8117 77.506H58.0137ZM64.1636 81.466C64.4876 81.466 64.7696 81.538 65.0096 81.682C65.2616 81.814 65.4656 81.994 65.6216 82.222C65.7776 82.438 65.8916 82.69 65.9636 82.978C66.0476 83.254 66.0896 83.542 66.0896 83.842C66.0896 84.13 66.0476 84.412 65.9636 84.688C65.8796 84.964 65.7536 85.21 65.5856 85.426C65.4176 85.642 65.2136 85.816 64.9736 85.948C64.7456 86.08 64.4756 86.146 64.1636 86.146C63.8396 86.146 63.5516 86.08 63.2996 85.948C63.0476 85.816 62.8316 85.642 62.6516 85.426C62.4836 85.198 62.3516 84.946 62.2556 84.67C62.1716 84.382 62.1296 84.094 62.1296 83.806C62.1296 83.494 62.1716 83.2 62.2556 82.924C62.3396 82.636 62.4656 82.384 62.6336 82.168C62.8016 81.952 63.0116 81.784 63.2636 81.664C63.5276 81.532 63.8276 81.466 64.1636 81.466ZM65.9996 78.64H68.4296C68.3576 78.076 68.2076 77.578 67.9796 77.146C67.7516 76.714 67.4576 76.354 67.0976 76.066C66.7376 75.766 66.3236 75.538 65.8556 75.382C65.3876 75.226 64.8836 75.148 64.3436 75.148C63.4436 75.148 62.6816 75.346 62.0576 75.742C61.4336 76.138 60.9236 76.654 60.5276 77.29C60.1316 77.914 59.8436 78.616 59.6636 79.396C59.4836 80.176 59.3936 80.956 59.3936 81.736C59.3936 82.54 59.4656 83.332 59.6096 84.112C59.7536 84.88 60.0116 85.57 60.3836 86.182C60.7556 86.794 61.2536 87.292 61.8776 87.676C62.5016 88.048 63.2876 88.234 64.2356 88.234C64.8956 88.234 65.4956 88.12 66.0356 87.892C66.5756 87.652 67.0376 87.328 67.4216 86.92C67.8176 86.5 68.1176 86.014 68.3216 85.462C68.5376 84.898 68.6456 84.292 68.6456 83.644C68.6456 83.14 68.5676 82.642 68.4116 82.15C68.2556 81.658 68.0096 81.22 67.6736 80.836C67.3136 80.44 66.8756 80.128 66.3596 79.9C65.8436 79.66 65.3156 79.54 64.7756 79.54C64.1636 79.54 63.6236 79.648 63.1556 79.864C62.6876 80.08 62.2796 80.44 61.9316 80.944L61.8956 80.908C61.9076 80.56 61.9556 80.164 62.0396 79.72C62.1236 79.276 62.2556 78.862 62.4356 78.478C62.6156 78.082 62.8556 77.752 63.1556 77.488C63.4676 77.212 63.8516 77.074 64.3076 77.074C64.7516 77.074 65.1236 77.23 65.4236 77.542C65.7236 77.854 65.9156 78.22 65.9996 78.64Z" fill="#111827"/>
<path d="M25.75 110.917L29.25 107.417L31.5833 109.75L36.25 105.083" stroke="#9747FF" stroke-linecap="round" stroke-linejoin="round"/>
<path d="M32.1667 105.083H36.2501V109.167" stroke="#9747FF" stroke-linecap="round" stroke-linejoin="round"/>
<path d="M42.44 106.42H43.29C43.2833 106.207 43.3033 105.997 43.35 105.79C43.4033 105.577 43.4867 105.387 43.6 105.22C43.7133 105.053 43.8567 104.92 44.03 104.82C44.21 104.713 44.4233 104.66 44.67 104.66C44.8567 104.66 45.0333 104.69 45.2 104.75C45.3667 104.81 45.51 104.897 45.63 105.01C45.7567 105.123 45.8567 105.26 45.93 105.42C46.0033 105.573 46.04 105.747 46.04 105.94C46.04 106.187 46 106.403 45.92 106.59C45.8467 106.777 45.7333 106.95 45.58 107.11C45.4333 107.27 45.2467 107.43 45.02 107.59C44.7933 107.743 44.53 107.913 44.23 108.1C43.9833 108.247 43.7467 108.403 43.52 108.57C43.2933 108.737 43.09 108.93 42.91 109.15C42.73 109.37 42.58 109.63 42.46 109.93C42.3467 110.223 42.2733 110.58 42.24 111H46.87V110.25H43.23C43.27 110.03 43.3533 109.837 43.48 109.67C43.6133 109.497 43.77 109.337 43.95 109.19C44.1367 109.043 44.34 108.907 44.56 108.78C44.78 108.647 45 108.513 45.22 108.38C45.44 108.24 45.6533 108.093 45.86 107.94C46.0667 107.787 46.25 107.617 46.41 107.43C46.57 107.237 46.6967 107.02 46.79 106.78C46.89 106.54 46.94 106.263 46.94 105.95C46.94 105.617 46.88 105.323 46.76 105.07C46.6467 104.817 46.49 104.607 46.29 104.44C46.09 104.267 45.8533 104.137 45.58 104.05C45.3133 103.957 45.0267 103.91 44.72 103.91C44.3467 103.91 44.0133 103.973 43.72 104.1C43.4267 104.227 43.18 104.403 42.98 104.63C42.7867 104.85 42.6433 105.113 42.55 105.42C42.4567 105.727 42.42 106.06 42.44 106.42ZM49.7366 106.95V107.67C49.8966 107.65 50.0666 107.64 50.2466 107.64C50.46 107.64 50.6566 107.67 50.8366 107.73C51.0233 107.783 51.1833 107.87 51.3166 107.99C51.45 108.103 51.5566 108.247 51.6366 108.42C51.7166 108.587 51.7566 108.78 51.7566 109C51.7566 109.213 51.7133 109.407 51.6266 109.58C51.5466 109.747 51.4366 109.89 51.2966 110.01C51.1566 110.123 50.9933 110.213 50.8066 110.28C50.62 110.34 50.4233 110.37 50.2166 110.37C49.73 110.37 49.36 110.227 49.1066 109.94C48.8533 109.647 48.72 109.27 48.7066 108.81H47.8566C47.85 109.177 47.9 109.503 48.0066 109.79C48.12 110.077 48.28 110.32 48.4866 110.52C48.6933 110.713 48.9433 110.86 49.2366 110.96C49.53 111.06 49.8566 111.11 50.2166 111.11C50.55 111.11 50.8633 111.067 51.1566 110.98C51.4566 110.887 51.7166 110.75 51.9366 110.57C52.1566 110.39 52.33 110.167 52.4566 109.9C52.59 109.627 52.6566 109.313 52.6566 108.96C52.6566 108.533 52.55 108.163 52.3366 107.85C52.13 107.537 51.81 107.333 51.3766 107.24V107.22C51.6566 107.093 51.89 106.907 52.0766 106.66C52.2633 106.413 52.3566 106.13 52.3566 105.81C52.3566 105.483 52.3 105.2 52.1866 104.96C52.08 104.72 51.93 104.523 51.7366 104.37C51.5433 104.217 51.3133 104.103 51.0466 104.03C50.7866 103.95 50.5033 103.91 50.1966 103.91C49.8433 103.91 49.53 103.967 49.2566 104.08C48.99 104.193 48.7666 104.35 48.5866 104.55C48.4066 104.75 48.2666 104.99 48.1666 105.27C48.0733 105.55 48.02 105.86 48.0066 106.2H48.8566C48.8566 105.993 48.8833 105.797 48.9366 105.61C48.99 105.423 49.07 105.26 49.1766 105.12C49.29 104.98 49.43 104.87 49.5966 104.79C49.77 104.703 49.97 104.66 50.1966 104.66C50.5566 104.66 50.8566 104.757 51.0966 104.95C51.3366 105.137 51.4566 105.42 51.4566 105.8C51.4566 105.987 51.42 106.153 51.3466 106.3C51.2733 106.447 51.1733 106.57 51.0466 106.67C50.9266 106.763 50.7833 106.837 50.6166 106.89C50.4566 106.937 50.2866 106.96 50.1066 106.96H49.9266C49.8933 106.96 49.86 106.96 49.8266 106.96C49.8 106.96 49.77 106.957 49.7366 106.95ZM53.9433 109.89V111H54.5333C54.5399 111.08 54.5333 111.167 54.5133 111.26C54.4999 111.353 54.4699 111.443 54.4233 111.53C54.3766 111.623 54.3133 111.707 54.2333 111.78C54.1599 111.86 54.0666 111.92 53.9533 111.96V112.46C54.3399 112.347 54.6199 112.153 54.7933 111.88C54.9666 111.607 55.0533 111.28 55.0533 110.9V109.89H53.9433ZM60.5965 104.78V104.03H57.0965L56.4365 107.71L57.1665 107.75C57.3332 107.55 57.5232 107.39 57.7365 107.27C57.9565 107.143 58.2065 107.08 58.4865 107.08C58.7265 107.08 58.9432 107.12 59.1365 107.2C59.3365 107.28 59.5065 107.393 59.6465 107.54C59.7865 107.68 59.8932 107.85 59.9665 108.05C60.0465 108.243 60.0865 108.457 60.0865 108.69C60.0865 108.97 60.0465 109.217 59.9665 109.43C59.8865 109.637 59.7765 109.81 59.6365 109.95C59.5032 110.09 59.3432 110.197 59.1565 110.27C58.9765 110.337 58.7865 110.37 58.5865 110.37C58.3732 110.37 58.1765 110.34 57.9965 110.28C57.8232 110.213 57.6698 110.123 57.5365 110.01C57.4098 109.89 57.3065 109.753 57.2265 109.6C57.1532 109.44 57.1098 109.27 57.0965 109.09H56.2465C56.2532 109.41 56.3165 109.697 56.4365 109.95C56.5565 110.203 56.7198 110.417 56.9265 110.59C57.1332 110.757 57.3698 110.887 57.6365 110.98C57.9098 111.067 58.1998 111.11 58.5065 111.11C58.9198 111.11 59.2798 111.047 59.5865 110.92C59.8998 110.787 60.1598 110.61 60.3665 110.39C60.5732 110.17 60.7265 109.92 60.8265 109.64C60.9332 109.353 60.9865 109.06 60.9865 108.76C60.9865 108.353 60.9265 108 60.8065 107.7C60.6865 107.393 60.5232 107.14 60.3165 106.94C60.1098 106.733 59.8665 106.58 59.5865 106.48C59.3065 106.38 59.0098 106.33 58.6965 106.33C58.4565 106.33 58.2132 106.373 57.9665 106.46C57.7265 106.54 57.5298 106.667 57.3765 106.84L57.3565 106.82L57.7365 104.78H60.5965ZM63.1231 105.92C63.1231 105.767 63.1331 105.607 63.1531 105.44C63.1731 105.267 63.2131 105.11 63.2731 104.97C63.3398 104.823 63.4298 104.703 63.5431 104.61C63.6565 104.51 63.8065 104.46 63.9931 104.46C64.1865 104.46 64.3365 104.51 64.4431 104.61C64.5565 104.703 64.6431 104.823 64.7031 104.97C64.7631 105.11 64.7998 105.267 64.8131 105.44C64.8331 105.607 64.8431 105.763 64.8431 105.91C64.8431 106.063 64.8331 106.227 64.8131 106.4C64.7931 106.573 64.7498 106.733 64.6831 106.88C64.6231 107.02 64.5365 107.137 64.4231 107.23C64.3098 107.323 64.1565 107.37 63.9631 107.37C63.7765 107.37 63.6265 107.323 63.5131 107.23C63.4065 107.13 63.3231 107.01 63.2631 106.87C63.2031 106.723 63.1631 106.567 63.1431 106.4C63.1298 106.227 63.1231 106.067 63.1231 105.92ZM62.3731 105.94C62.3731 106.213 62.3998 106.47 62.4531 106.71C62.5131 106.95 62.6065 107.16 62.7331 107.34C62.8598 107.52 63.0265 107.663 63.2331 107.77C63.4398 107.87 63.6931 107.92 63.9931 107.92C64.2865 107.92 64.5331 107.863 64.7331 107.75C64.9331 107.637 65.0965 107.49 65.2231 107.31C65.3565 107.123 65.4498 106.91 65.5031 106.67C65.5631 106.423 65.5931 106.17 65.5931 105.91C65.5931 105.637 65.5665 105.38 65.5131 105.14C65.4665 104.893 65.3798 104.68 65.2531 104.5C65.1331 104.32 64.9698 104.177 64.7631 104.07C64.5631 103.963 64.3065 103.91 63.9931 103.91C63.6865 103.91 63.4298 103.967 63.2231 104.08C63.0165 104.187 62.8498 104.333 62.7231 104.52C62.5965 104.707 62.5065 104.923 62.4531 105.17C62.3998 105.41 62.3731 105.667 62.3731 105.94ZM68.0631 109.12C68.0631 108.967 68.0731 108.807 68.0931 108.64C68.1131 108.467 68.1531 108.31 68.2131 108.17C68.2798 108.023 68.3698 107.903 68.4831 107.81C68.5965 107.71 68.7465 107.66 68.9331 107.66C69.1265 107.66 69.2765 107.71 69.3831 107.81C69.4965 107.903 69.5831 108.023 69.6431 108.17C69.7031 108.31 69.7398 108.467 69.7531 108.64C69.7731 108.807 69.7831 108.963 69.7831 109.11C69.7831 109.263 69.7731 109.427 69.7531 109.6C69.7331 109.773 69.6898 109.933 69.6231 110.08C69.5631 110.22 69.4765 110.337 69.3631 110.43C69.2498 110.523 69.0965 110.57 68.9031 110.57C68.7165 110.57 68.5665 110.523 68.4531 110.43C68.3465 110.33 68.2631 110.21 68.2031 110.07C68.1431 109.923 68.1031 109.767 68.0831 109.6C68.0698 109.427 68.0631 109.267 68.0631 109.12ZM67.3131 109.14C67.3131 109.413 67.3398 109.67 67.3931 109.91C67.4531 110.15 67.5465 110.36 67.6731 110.54C67.7998 110.713 67.9665 110.853 68.1731 110.96C68.3798 111.06 68.6331 111.11 68.9331 111.11C69.2265 111.11 69.4731 111.057 69.6731 110.95C69.8731 110.837 70.0365 110.69 70.1631 110.51C70.2965 110.323 70.3898 110.11 70.4431 109.87C70.5031 109.623 70.5331 109.37 70.5331 109.11C70.5331 108.837 70.5065 108.58 70.4531 108.34C70.4065 108.093 70.3198 107.88 70.1931 107.7C70.0731 107.52 69.9098 107.377 69.7031 107.27C69.5031 107.163 69.2465 107.11 68.9331 107.11C68.6265 107.11 68.3698 107.167 68.1631 107.28C67.9565 107.387 67.7898 107.533 67.6631 107.72C67.5365 107.907 67.4465 108.123 67.3931 108.37C67.3398 108.61 67.3131 108.867 67.3131 109.14ZM68.7131 103.78L63.3331 111.21H64.1931L69.5631 103.78H68.7131ZM76.2763 112.97H76.9263C76.453 112.203 76.113 111.443 75.9063 110.69C75.7063 109.937 75.6063 109.14 75.6063 108.3C75.6063 107.48 75.7063 106.697 75.9063 105.95C76.1063 105.203 76.4463 104.45 76.9263 103.69H76.2763C75.7563 104.377 75.363 105.12 75.0963 105.92C74.8363 106.72 74.7063 107.513 74.7063 108.3C74.7063 108.74 74.743 109.16 74.8163 109.56C74.8897 109.96 74.993 110.35 75.1263 110.73C75.2663 111.11 75.433 111.483 75.6263 111.85C75.8197 112.223 76.0363 112.597 76.2763 112.97ZM80.1642 108.13V105.94H79.4842V108.13H77.3042V108.81H79.4842V111H80.1642V108.81H82.3442V108.13H80.1642ZM86.3803 111V103.91H85.7303C85.6836 104.177 85.597 104.397 85.4703 104.57C85.3436 104.743 85.187 104.88 85.0003 104.98C84.8203 105.08 84.617 105.15 84.3903 105.19C84.1636 105.223 83.9303 105.24 83.6903 105.24V105.92H85.5303V111H86.3803ZM89.697 107.51C89.697 107.337 89.697 107.147 89.697 106.94C89.7036 106.727 89.7203 106.517 89.747 106.31C89.7803 106.097 89.8236 105.89 89.877 105.69C89.937 105.49 90.0203 105.317 90.127 105.17C90.2403 105.017 90.3803 104.893 90.547 104.8C90.7136 104.707 90.917 104.66 91.157 104.66C91.397 104.66 91.6003 104.707 91.767 104.8C91.9336 104.893 92.0703 105.017 92.177 105.17C92.2903 105.317 92.3736 105.49 92.427 105.69C92.487 105.89 92.5303 106.097 92.557 106.31C92.5903 106.517 92.607 106.727 92.607 106.94C92.6136 107.147 92.617 107.337 92.617 107.51C92.617 107.777 92.607 108.077 92.587 108.41C92.5736 108.737 92.5203 109.047 92.427 109.34C92.3403 109.627 92.197 109.87 91.997 110.07C91.797 110.27 91.517 110.37 91.157 110.37C90.797 110.37 90.517 110.27 90.317 110.07C90.117 109.87 89.9703 109.627 89.877 109.34C89.7903 109.047 89.737 108.737 89.717 108.41C89.7036 108.077 89.697 107.777 89.697 107.51ZM88.797 107.52C88.797 107.78 88.8036 108.05 88.817 108.33C88.8303 108.61 88.8636 108.883 88.917 109.15C88.9703 109.417 89.047 109.67 89.147 109.91C89.247 110.143 89.3836 110.35 89.557 110.53C89.7303 110.71 89.947 110.853 90.207 110.96C90.4736 111.06 90.7903 111.11 91.157 111.11C91.5303 111.11 91.847 111.06 92.107 110.96C92.367 110.853 92.5836 110.71 92.757 110.53C92.9303 110.35 93.067 110.143 93.167 109.91C93.267 109.67 93.3436 109.417 93.397 109.15C93.4503 108.883 93.4836 108.61 93.497 108.33C93.5103 108.05 93.517 107.78 93.517 107.52C93.517 107.26 93.5103 106.99 93.497 106.71C93.4836 106.43 93.4503 106.157 93.397 105.89C93.3436 105.623 93.267 105.37 93.167 105.13C93.067 104.89 92.9303 104.68 92.757 104.5C92.5836 104.32 92.3636 104.177 92.097 104.07C91.837 103.963 91.5236 103.91 91.157 103.91C90.7903 103.91 90.4736 103.963 90.207 104.07C89.947 104.177 89.7303 104.32 89.557 104.5C89.3836 104.68 89.247 104.89 89.147 105.13C89.047 105.37 88.9703 105.623 88.917 105.89C88.8636 106.157 88.8303 106.43 88.817 106.71C88.8036 106.99 88.797 107.26 88.797 107.52ZM93.8436 112.97H94.4836C95.0036 112.283 95.3936 111.543 95.6536 110.75C95.9203 109.95 96.0536 109.157 96.0536 108.37C96.0536 107.93 96.0169 107.51 95.9436 107.11C95.8703 106.71 95.7636 106.32 95.6236 105.94C95.4903 105.553 95.3269 105.177 95.1336 104.81C94.9403 104.437 94.7236 104.063 94.4836 103.69H93.8436C94.3103 104.457 94.6436 105.22 94.8436 105.98C95.0503 106.733 95.1536 107.53 95.1536 108.37C95.1536 109.183 95.0536 109.967 94.8536 110.72C94.6536 111.467 94.3169 112.217 93.8436 112.97Z" fill="#9747FF"/>
</g>
<path fill-rule="evenodd" clip-rule="evenodd" d="M309 90.5C299.5 91.5 295 150 277.5 150C263.5 150 250.53 126.69 244 125.5C237.47 124.31 231.5 126.98 227 125.5C222.5 124.02 218.5 110.5 210 109C192 107 158 156.5 142 156.5C128 155 125.63 137.54 111.5 137C99 136.53 89 175.5 74.5 175.5C64.5 175.5 50.5 152 40 152C33.5 152 27.5 156.5 23 162V189H309V90.5Z" fill="url(#paint0_linear_73_1115)"/>
<path d="M23 162C27.5 156.5 33.5 152 40 152C50.5 152 64.5 175.5 74.5 175.5C89 175.5 99 136.52 111.5 137C125.63 137.54 128 155 142 156.5C158 156.5 192 107 210 109C218.5 110.5 222.5 124.02 227 125.5C231.5 126.98 237.47 124.31 244 125.5C250.53 126.69 263.5 150 277.5 150C295 150 299.5 91.5 309 90.5" stroke="#168AFF" stroke-width="1.5"/>
</g>
<defs>
<linearGradient id="paint0_linear_73_1115" x1="-53.9441" y1="37.5" x2="-53.9441" y2="189" gradientUnits="userSpaceOnUse">
<stop stop-color="#0BA259" stop-opacity="0.15"/>
<stop offset="1" stop-color="#0BA259" stop-opacity="0.01"/>
</linearGradient>
<clipPath id="clip0_73_1115">
<rect width="347" height="240" fill="white"/>
</clipPath>
<clipPath id="clip1_73_1115">
<rect width="87" height="47" fill="white" transform="translate(24 68)"/>
</clipPath>
</defs>
</svg>
