<svg width="347" height="240" viewBox="0 0 347 240" fill="none" xmlns="http://www.w3.org/2000/svg">
<g clip-path="url(#clip0_73_1193)">
<path fill-rule="evenodd" clip-rule="evenodd" d="M0 16C0 7.16344 7.16344 0 16 0H331C339.837 0 347 7.16344 347 16V224C347 232.837 339.837 240 331 240H16C7.16344 240 0 232.837 0 224V16Z" fill="white"/>
<path d="M27.232 29.6H37.36V31.04H27.232V29.6ZM27.232 33.312H37.36V34.72H27.232V33.312ZM27.168 37.104H37.408V38.544H27.168V37.104ZM26.368 29.6H27.872V35.376C27.872 35.9947 27.84 36.6613 27.776 37.376C27.7227 38.0907 27.6213 38.816 27.472 39.552C27.3227 40.2773 27.0987 40.976 26.8 41.648C26.512 42.3093 26.1227 42.9067 25.632 43.44C25.5573 43.3333 25.4453 43.216 25.296 43.088C25.1573 42.96 25.008 42.8373 24.848 42.72C24.6987 42.6027 24.5653 42.512 24.448 42.448C24.896 41.9467 25.248 41.408 25.504 40.832C25.76 40.2453 25.9467 39.6427 26.064 39.024C26.192 38.3947 26.272 37.7707 26.304 37.152C26.3467 36.5227 26.368 35.9253 26.368 35.36V29.6ZM36.784 29.6H38.288V41.44C38.288 41.8773 38.2293 42.2133 38.112 42.448C37.9947 42.6933 37.792 42.88 37.504 43.008C37.216 43.1253 36.8267 43.1947 36.336 43.216C35.8453 43.248 35.2213 43.2587 34.464 43.248C34.4427 43.056 34.3787 42.816 34.272 42.528C34.176 42.24 34.0747 41.9947 33.968 41.792C34.3093 41.8133 34.6453 41.8293 34.976 41.84C35.3067 41.84 35.5947 41.84 35.84 41.84C36.096 41.8293 36.272 41.824 36.368 41.824C36.528 41.824 36.6347 41.7973 36.688 41.744C36.752 41.68 36.784 41.5733 36.784 41.424V29.6ZM31.36 30.16H32.88V43.184H31.36V30.16ZM42.828 30.944H44.412V34.496C44.412 35.1573 44.3853 35.8773 44.332 36.656C44.2787 37.4347 44.1667 38.2293 43.996 39.04C43.836 39.84 43.6013 40.6187 43.292 41.376C42.9933 42.1333 42.5987 42.8267 42.108 43.456C42.012 43.36 41.884 43.248 41.724 43.12C41.564 43.0027 41.3987 42.8853 41.228 42.768C41.0573 42.6613 40.908 42.5813 40.78 42.528C41.2493 41.952 41.6173 41.3227 41.884 40.64C42.1613 39.9573 42.364 39.2587 42.492 38.544C42.6307 37.8187 42.7213 37.1147 42.764 36.432C42.8067 35.7387 42.828 35.0933 42.828 34.496V30.944ZM47.196 28.784L48.684 28.4C48.876 28.7627 49.0573 29.1573 49.228 29.584C49.4093 30.0107 49.548 30.3787 49.644 30.688L48.092 31.152C48.0067 30.832 47.8787 30.4533 47.708 30.016C47.5373 29.568 47.3667 29.1573 47.196 28.784ZM43.82 30.944H53.98V37.632H52.428V32.352H43.82V30.944ZM43.852 35.264H53.228V36.672H43.852V35.264ZM59.192 28.496H60.712V43.328H59.192V28.496ZM57.768 31.552L58.888 31.712C58.856 32.1493 58.8027 32.6347 58.728 33.168C58.664 33.7013 58.5787 34.224 58.472 34.736C58.376 35.248 58.2587 35.7067 58.12 36.112L56.968 35.712C57.1067 35.3493 57.2293 34.928 57.336 34.448C57.4427 33.968 57.5333 33.4773 57.608 32.976C57.6827 32.464 57.736 31.9893 57.768 31.552ZM60.616 31.552L61.656 31.104C61.8907 31.52 62.1147 31.9787 62.328 32.48C62.5413 32.9813 62.6907 33.4027 62.776 33.744L61.656 34.272C61.6027 34.0373 61.5227 33.7653 61.416 33.456C61.3093 33.1467 61.1813 32.8213 61.032 32.48C60.8933 32.1387 60.7547 31.8293 60.616 31.552ZM63.768 29.232L65.256 29.456C65.128 30.2453 64.968 31.0187 64.776 31.776C64.584 32.5333 64.3653 33.2427 64.12 33.904C63.8853 34.5547 63.6187 35.1307 63.32 35.632C63.224 35.568 63.0907 35.4933 62.92 35.408C62.76 35.312 62.5947 35.2267 62.424 35.152C62.2533 35.0667 62.104 34.9973 61.976 34.944C62.2747 34.4853 62.536 33.952 62.76 33.344C62.9947 32.7253 63.1973 32.064 63.368 31.36C63.5387 30.656 63.672 29.9467 63.768 29.232ZM64.024 31.824H71.448V33.248H63.576L64.024 31.824ZM66.44 28.56H67.96V42.176H66.44V28.56ZM63.176 36.288H71.096V37.696H63.176V36.288ZM61.976 41.36H71.88V42.8H61.976V41.36ZM82.724 30.432H84.196V39.376H82.724V30.432ZM86.1 28.8H87.604V41.456C87.604 41.9147 87.5453 42.2667 87.428 42.512C87.3213 42.7573 87.1347 42.944 86.868 43.072C86.58 43.1893 86.2067 43.264 85.748 43.296C85.2893 43.3387 84.708 43.36 84.004 43.36C83.972 43.1467 83.9027 42.8907 83.796 42.592C83.7 42.2933 83.5987 42.032 83.492 41.808C83.9933 41.8293 84.452 41.84 84.868 41.84C85.2947 41.84 85.5773 41.84 85.716 41.84C85.8653 41.8293 85.9667 41.7973 86.02 41.744C86.0733 41.6907 86.1 41.5947 86.1 41.456V28.8ZM75.684 30.544V33.232H79.348V30.544H75.684ZM74.308 29.2H80.804V34.592H74.308V29.2ZM73.78 36.192H80.26V37.568H73.78V36.192ZM79.652 36.192H81.14C81.14 36.192 81.1347 36.2293 81.124 36.304C81.124 36.368 81.124 36.448 81.124 36.544C81.124 36.64 81.1187 36.7253 81.108 36.8C81.0653 38.0693 81.012 39.0987 80.948 39.888C80.8947 40.6773 80.82 41.2853 80.724 41.712C80.6387 42.128 80.5267 42.4213 80.388 42.592C80.2387 42.7733 80.084 42.9013 79.924 42.976C79.764 43.0613 79.5667 43.12 79.332 43.152C79.1507 43.184 78.9 43.2 78.58 43.2C78.26 43.2 77.9187 43.1947 77.556 43.184C77.5453 42.9493 77.5027 42.6987 77.428 42.432C77.364 42.1653 77.268 41.936 77.14 41.744C77.46 41.7653 77.7533 41.7813 78.02 41.792C78.2867 41.8027 78.4787 41.808 78.596 41.808C78.724 41.808 78.82 41.7973 78.884 41.776C78.9587 41.744 79.0333 41.6907 79.108 41.616C79.1933 41.5093 79.268 41.2747 79.332 40.912C79.396 40.5493 79.4547 40.0107 79.508 39.296C79.572 38.5707 79.62 37.616 79.652 36.432V36.192ZM76.452 34.96H77.876C77.8333 35.92 77.7587 36.8213 77.652 37.664C77.556 38.496 77.3853 39.2693 77.14 39.984C76.8947 40.6987 76.5427 41.344 76.084 41.92C75.6253 42.496 75.0173 42.992 74.26 43.408C74.1747 43.2267 74.0413 43.024 73.86 42.8C73.6787 42.5867 73.508 42.416 73.348 42.288C74.02 41.936 74.5533 41.5147 74.948 41.024C75.3427 40.5333 75.6413 39.9787 75.844 39.36C76.0573 38.7307 76.2013 38.048 76.276 37.312C76.3613 36.576 76.42 35.792 76.452 34.96ZM92.256 34.464H101.184V35.968H92.256V34.464ZM100.688 34.464H102.272C102.272 34.464 102.267 34.512 102.256 34.608C102.256 34.6933 102.256 34.7893 102.256 34.896C102.256 35.0027 102.251 35.088 102.24 35.152C102.187 36.368 102.128 37.408 102.064 38.272C102.011 39.1253 101.947 39.84 101.872 40.416C101.808 40.9813 101.728 41.4293 101.632 41.76C101.536 42.0907 101.413 42.336 101.264 42.496C101.083 42.72 100.885 42.8747 100.672 42.96C100.469 43.056 100.224 43.12 99.936 43.152C99.6587 43.1733 99.296 43.184 98.848 43.184C98.4 43.184 97.9307 43.1733 97.44 43.152C97.4293 42.928 97.376 42.672 97.28 42.384C97.1947 42.096 97.0827 41.8453 96.944 41.632C97.4347 41.6747 97.888 41.7013 98.304 41.712C98.7307 41.712 99.04 41.712 99.232 41.712C99.5307 41.712 99.7493 41.648 99.888 41.52C100.027 41.3707 100.144 41.056 100.24 40.576C100.336 40.096 100.416 39.3867 100.48 38.448C100.555 37.4987 100.624 36.2613 100.688 34.736V34.464ZM94.272 28.768L95.888 29.216C95.5253 30.1227 95.088 30.9973 94.576 31.84C94.0747 32.672 93.5307 33.44 92.944 34.144C92.3573 34.848 91.7493 35.4613 91.12 35.984C91.024 35.8667 90.896 35.7387 90.736 35.6C90.576 35.4507 90.4107 35.3013 90.24 35.152C90.08 35.0027 89.9413 34.8853 89.824 34.8C90.4533 34.3413 91.0453 33.7973 91.6 33.168C92.1653 32.5387 92.6773 31.8507 93.136 31.104C93.5947 30.3467 93.9733 29.568 94.272 28.768ZM100.08 28.736C100.325 29.2587 100.624 29.7973 100.976 30.352C101.328 30.896 101.707 31.4293 102.112 31.952C102.517 32.4747 102.939 32.96 103.376 33.408C103.813 33.8453 104.24 34.2293 104.656 34.56C104.539 34.656 104.4 34.7787 104.24 34.928C104.08 35.0773 103.931 35.232 103.792 35.392C103.653 35.552 103.536 35.7013 103.44 35.84C103.013 35.4453 102.581 35.0027 102.144 34.512C101.707 34.0107 101.275 33.472 100.848 32.896C100.432 32.3093 100.037 31.712 99.664 31.104C99.2907 30.496 98.96 29.888 98.672 29.28L100.08 28.736ZM95.232 34.896H96.832C96.736 35.7813 96.5973 36.64 96.416 37.472C96.2347 38.304 95.9467 39.0933 95.552 39.84C95.1573 40.5867 94.608 41.264 93.904 41.872C93.2 42.4693 92.2773 42.976 91.136 43.392C91.072 43.2533 90.9867 43.104 90.88 42.944C90.7733 42.784 90.656 42.624 90.528 42.464C90.4107 42.3147 90.2933 42.1867 90.176 42.08C91.232 41.728 92.08 41.296 92.72 40.784C93.36 40.272 93.8453 39.7013 94.176 39.072C94.5173 38.432 94.7573 37.76 94.896 37.056C95.0453 36.352 95.1573 35.632 95.232 34.896ZM106.412 30.864H120.62V32.32H106.412V30.864ZM113.532 33.024H115.052V43.344H113.532V33.024ZM108.988 35.04H118.924V36.464H110.508V41.888H108.988V35.04ZM118.252 35.04H119.788V40.128C119.788 40.5013 119.735 40.7947 119.628 41.008C119.532 41.2213 119.345 41.392 119.068 41.52C118.791 41.6267 118.433 41.696 117.996 41.728C117.559 41.7493 117.015 41.7547 116.364 41.744C116.332 41.5413 116.268 41.312 116.172 41.056C116.076 40.7893 115.975 40.56 115.868 40.368C116.167 40.3787 116.455 40.3893 116.732 40.4C117.02 40.4 117.271 40.4 117.484 40.4C117.697 40.3893 117.841 40.384 117.916 40.384C118.044 40.384 118.129 40.368 118.172 40.336C118.225 40.2933 118.252 40.2187 118.252 40.112V35.04ZM111.708 28.464L113.276 28.832C112.892 30.1013 112.407 31.3547 111.82 32.592C111.233 33.8293 110.524 34.9867 109.692 36.064C108.86 37.1307 107.889 38.0533 106.78 38.832C106.716 38.704 106.631 38.5653 106.524 38.416C106.417 38.256 106.311 38.096 106.204 37.936C106.097 37.7653 105.996 37.6267 105.9 37.52C106.657 37.0187 107.345 36.4267 107.964 35.744C108.583 35.0507 109.132 34.304 109.612 33.504C110.092 32.6933 110.508 31.8613 110.86 31.008C111.212 30.1547 111.495 29.3067 111.708 28.464Z" fill="#111827"/>
<mask id="mask0_73_1193" style="mask-type:luminance" maskUnits="userSpaceOnUse" x="132" y="30" width="14" height="14">
<path fill-rule="evenodd" clip-rule="evenodd" d="M132 30H146V44H132V30Z" fill="white"/>
</mask>
<g mask="url(#mask0_73_1193)">
<path fill-rule="evenodd" clip-rule="evenodd" d="M138.727 31C135.565 31 133 33.5645 133 36.7273C133 39.89 135.565 42.4545 138.727 42.4545C141.89 42.4545 144.455 39.89 144.455 36.7273C144.455 33.5645 141.89 31 138.727 31Z" stroke="#A0AEC0" stroke-linejoin="round"/>
<path d="M138.727 34.1818L138.827 36.7272" stroke="#A0AEC0" stroke-linecap="round" stroke-linejoin="round"/>
<path fill-rule="evenodd" clip-rule="evenodd" d="M138.727 39.2727L138.827 39.3727L138.727 39.2727Z" fill="#A0AEC0"/>
<path d="M138.727 39.2727L138.827 39.3727" stroke="#A0AEC0" stroke-width="1.5" stroke-linecap="round" stroke-linejoin="round"/>
</g>
<mask id="mask1_73_1193" style="mask-type:luminance" maskUnits="userSpaceOnUse" x="299" y="24" width="24" height="24">
<path fill-rule="evenodd" clip-rule="evenodd" d="M323 24V48H299V24L323 24Z" fill="white"/>
</mask>
<g mask="url(#mask1_73_1193)">
<path fill-rule="evenodd" clip-rule="evenodd" d="M312 36C312 35.45 311.55 35 311 35C310.45 35 310 35.45 310 36C310 36.55 310.45 37 311 37C311.55 37 312 36.55 312 36Z" stroke="#A0AEC0" stroke-width="2" stroke-linejoin="round"/>
<path fill-rule="evenodd" clip-rule="evenodd" d="M305 36C305 35.45 304.55 35 304 35C303.45 35 303 35.45 303 36C303 36.55 303.45 37 304 37C304.55 37 305 36.55 305 36Z" stroke="#A0AEC0" stroke-width="2" stroke-linejoin="round"/>
<path fill-rule="evenodd" clip-rule="evenodd" d="M319 36C319 35.45 318.55 35 318 35C317.45 35 317 35.45 317 36C317 36.55 317.45 37 318 37C318.55 37 319 36.55 319 36Z" stroke="#A0AEC0" stroke-width="2" stroke-linejoin="round"/>
</g>
<g clip-path="url(#clip1_73_1193)">
<g clip-path="url(#clip2_73_1193)">
<path fill-rule="evenodd" clip-rule="evenodd" d="M174 108.5C174 106.291 175.791 104.5 178 104.5C180.209 104.5 182 106.291 182 108.5C182 110.709 180.209 112.5 178 112.5C175.791 112.5 174 110.709 174 108.5Z" fill="#168AFF"/>
<path d="M192.88 107.412H199.06V108.516H192.88V107.412ZM192.88 105.444H199.06V106.524H192.88V105.444ZM191.752 104.496V109.476H200.236V104.496H191.752ZM195.376 104.94V109.008H196.516V104.94H195.376ZM190.852 110.496V111.528H199.984V110.496H190.852ZM199.492 110.496L199.48 110.652C199.312 112.704 199.108 113.616 198.808 113.856C198.688 113.964 198.544 113.976 198.28 113.976C197.992 113.976 197.2 113.964 196.444 113.904C196.636 114.192 196.78 114.624 196.804 114.948C197.572 114.972 198.316 114.984 198.712 114.96C199.168 114.924 199.48 114.852 199.768 114.564C200.164 114.18 200.392 113.22 200.608 110.964C200.632 110.82 200.644 110.496 200.644 110.496H199.492ZM195.184 109.272C194.908 111.54 194.38 113.244 190.432 114.024C190.66 114.264 190.936 114.72 191.032 115.008C195.28 114.072 196.048 112.008 196.372 109.272H195.184ZM203.26 113.268V114.396H212.788V113.268H203.26ZM202.6 107.604V108.72H213.436V107.604H202.6ZM207.364 103.908V114.084H208.576V103.908H207.364Z" fill="#718096"/>
<path d="M292.856 105.004V103.6H288.164L287.336 108.244H288.872C289.04 108.012 289.22 107.844 289.412 107.74C289.604 107.628 289.852 107.572 290.156 107.572C290.388 107.572 290.592 107.612 290.768 107.692C290.944 107.772 291.096 107.884 291.224 108.028C291.352 108.172 291.448 108.34 291.512 108.532C291.576 108.724 291.608 108.928 291.608 109.144C291.608 109.352 291.572 109.556 291.5 109.756C291.436 109.948 291.34 110.12 291.212 110.272C291.092 110.416 290.94 110.536 290.756 110.632C290.58 110.72 290.38 110.764 290.156 110.764C289.772 110.764 289.456 110.652 289.208 110.428C288.96 110.196 288.816 109.888 288.776 109.504H287.072C287.08 109.944 287.168 110.332 287.336 110.668C287.512 110.996 287.744 111.272 288.032 111.496C288.32 111.72 288.648 111.888 289.016 112C289.392 112.104 289.784 112.156 290.192 112.156C290.616 112.164 291.016 112.096 291.392 111.952C291.768 111.8 292.096 111.588 292.376 111.316C292.664 111.044 292.892 110.724 293.06 110.356C293.228 109.98 293.312 109.576 293.312 109.144C293.312 108.752 293.252 108.384 293.132 108.04C293.02 107.688 292.852 107.384 292.628 107.128C292.412 106.872 292.144 106.668 291.824 106.516C291.504 106.364 291.136 106.288 290.72 106.288C290.384 106.288 290.084 106.34 289.82 106.444C289.556 106.54 289.308 106.704 289.076 106.936L289.052 106.912L289.388 105.004H292.856ZM295.68 107.764C295.68 107.62 295.68 107.448 295.68 107.248C295.688 107.04 295.704 106.828 295.728 106.612C295.752 106.396 295.792 106.184 295.848 105.976C295.904 105.76 295.98 105.568 296.076 105.4C296.18 105.232 296.308 105.096 296.46 104.992C296.62 104.888 296.816 104.836 297.048 104.836C297.28 104.836 297.476 104.888 297.636 104.992C297.796 105.096 297.928 105.232 298.032 105.4C298.136 105.568 298.212 105.76 298.26 105.976C298.316 106.184 298.356 106.396 298.38 106.612C298.412 106.828 298.428 107.04 298.428 107.248C298.436 107.448 298.44 107.62 298.44 107.764C298.44 108.004 298.432 108.296 298.416 108.64C298.4 108.976 298.348 109.304 298.26 109.624C298.18 109.936 298.044 110.204 297.852 110.428C297.668 110.652 297.4 110.764 297.048 110.764C296.704 110.764 296.44 110.652 296.256 110.428C296.072 110.204 295.936 109.936 295.848 109.624C295.768 109.304 295.72 108.976 295.704 108.64C295.688 108.296 295.68 108.004 295.68 107.764ZM293.976 107.764C293.976 108.604 294.056 109.308 294.216 109.876C294.384 110.436 294.608 110.884 294.888 111.22C295.168 111.556 295.492 111.796 295.86 111.94C296.236 112.084 296.632 112.156 297.048 112.156C297.472 112.156 297.868 112.084 298.236 111.94C298.612 111.796 298.94 111.556 299.22 111.22C299.508 110.884 299.732 110.436 299.892 109.876C300.06 109.308 300.144 108.604 300.144 107.764C300.144 106.948 300.06 106.264 299.892 105.712C299.732 105.152 299.508 104.704 299.22 104.368C298.94 104.032 298.612 103.792 298.236 103.648C297.868 103.504 297.472 103.432 297.048 103.432C296.632 103.432 296.236 103.504 295.86 103.648C295.492 103.792 295.168 104.032 294.888 104.368C294.608 104.704 294.384 105.152 294.216 105.712C294.056 106.264 293.976 106.948 293.976 107.764ZM301.324 110.152V112H302.188C302.196 112.128 302.18 112.252 302.14 112.372C302.1 112.5 302.04 112.612 301.96 112.708C301.88 112.812 301.784 112.9 301.672 112.972C301.568 113.044 301.456 113.092 301.336 113.116V113.98C301.592 113.94 301.832 113.864 302.056 113.752C302.288 113.648 302.488 113.512 302.656 113.344C302.824 113.176 302.956 112.976 303.052 112.744C303.156 112.52 303.208 112.272 303.208 112V110.152H301.324ZM306.196 105.88C306.196 105.688 306.228 105.52 306.292 105.376C306.364 105.232 306.46 105.112 306.58 105.016C306.7 104.92 306.836 104.848 306.988 104.8C307.148 104.744 307.312 104.716 307.48 104.716C307.744 104.716 307.956 104.756 308.116 104.836C308.284 104.916 308.412 105.016 308.5 105.136C308.596 105.256 308.66 105.384 308.692 105.52C308.724 105.648 308.74 105.768 308.74 105.88C308.74 106.24 308.62 106.516 308.38 106.708C308.14 106.892 307.84 106.984 307.48 106.984C307.136 106.984 306.836 106.892 306.58 106.708C306.324 106.516 306.196 106.24 306.196 105.88ZM304.648 105.724C304.648 106.14 304.752 106.504 304.96 106.816C305.168 107.128 305.476 107.34 305.884 107.452V107.476C305.38 107.596 304.988 107.836 304.708 108.196C304.436 108.556 304.3 109.004 304.3 109.54C304.3 109.996 304.388 110.388 304.564 110.716C304.748 111.044 304.988 111.316 305.284 111.532C305.588 111.748 305.928 111.904 306.304 112C306.688 112.104 307.084 112.156 307.492 112.156C307.884 112.156 308.268 112.104 308.644 112C309.02 111.888 309.356 111.724 309.652 111.508C309.948 111.292 310.184 111.02 310.36 110.692C310.544 110.364 310.636 109.976 310.636 109.528C310.636 109 310.5 108.556 310.228 108.196C309.956 107.828 309.568 107.588 309.064 107.476V107.452C309.472 107.316 309.776 107.092 309.976 106.78C310.184 106.468 310.288 106.104 310.288 105.688C310.288 105.48 310.24 105.248 310.144 104.992C310.048 104.728 309.888 104.484 309.664 104.26C309.448 104.028 309.16 103.832 308.8 103.672C308.44 103.512 308 103.432 307.48 103.432C307.136 103.432 306.796 103.48 306.46 103.576C306.124 103.672 305.82 103.816 305.548 104.008C305.284 104.2 305.068 104.44 304.9 104.728C304.732 105.016 304.648 105.348 304.648 105.724ZM306.004 109.456C306.004 109.024 306.148 108.696 306.436 108.472C306.724 108.24 307.076 108.124 307.492 108.124C307.692 108.124 307.876 108.156 308.044 108.22C308.22 108.284 308.372 108.376 308.5 108.496C308.636 108.616 308.74 108.76 308.812 108.928C308.892 109.088 308.932 109.268 308.932 109.468C308.932 109.676 308.896 109.868 308.824 110.044C308.752 110.22 308.648 110.372 308.512 110.5C308.384 110.62 308.232 110.716 308.056 110.788C307.888 110.852 307.7 110.884 307.492 110.884C307.292 110.884 307.1 110.852 306.916 110.788C306.732 110.716 306.572 110.62 306.436 110.5C306.308 110.372 306.204 110.22 306.124 110.044C306.044 109.868 306.004 109.672 306.004 109.456ZM319.316 109.816C319.316 109.68 319.32 109.528 319.328 109.36C319.344 109.192 319.38 109.036 319.436 108.892C319.492 108.748 319.572 108.628 319.676 108.532C319.788 108.436 319.94 108.388 320.132 108.388C320.308 108.388 320.444 108.444 320.54 108.556C320.644 108.66 320.72 108.788 320.768 108.94C320.816 109.084 320.844 109.24 320.852 109.408C320.868 109.568 320.876 109.708 320.876 109.828C320.876 109.956 320.868 110.104 320.852 110.272C320.844 110.432 320.812 110.588 320.756 110.74C320.708 110.884 320.628 111.008 320.516 111.112C320.412 111.216 320.268 111.268 320.084 111.268C319.892 111.268 319.744 111.216 319.64 111.112C319.536 111.008 319.46 110.884 319.412 110.74C319.364 110.588 319.336 110.428 319.328 110.26C319.32 110.092 319.316 109.944 319.316 109.816ZM318.092 109.804C318.092 110.132 318.124 110.44 318.188 110.728C318.26 111.016 318.372 111.268 318.524 111.484C318.684 111.692 318.888 111.856 319.136 111.976C319.392 112.096 319.704 112.156 320.072 112.156C320.424 112.156 320.728 112.1 320.984 111.988C321.24 111.868 321.448 111.704 321.608 111.496C321.776 111.288 321.9 111.044 321.98 110.764C322.06 110.484 322.1 110.18 322.1 109.852C322.1 109.524 322.068 109.216 322.004 108.928C321.94 108.64 321.828 108.392 321.668 108.184C321.516 107.968 321.316 107.8 321.068 107.68C320.82 107.552 320.508 107.488 320.132 107.488C319.78 107.488 319.476 107.548 319.22 107.668C318.964 107.788 318.752 107.952 318.584 108.16C318.416 108.368 318.292 108.612 318.212 108.892C318.132 109.172 318.092 109.476 318.092 109.804ZM319.016 103.336L314.048 112.252H315.092L320.036 103.336H319.016ZM313.124 105.832C313.124 105.696 313.128 105.54 313.136 105.364C313.152 105.188 313.188 105.024 313.244 104.872C313.3 104.72 313.38 104.592 313.484 104.488C313.596 104.384 313.748 104.332 313.94 104.332C314.116 104.332 314.252 104.388 314.348 104.5C314.452 104.612 314.528 104.748 314.576 104.908C314.624 105.068 314.652 105.236 314.66 105.412C314.676 105.58 314.684 105.724 314.684 105.844C314.684 105.972 314.676 106.116 314.66 106.276C314.652 106.428 314.62 106.576 314.564 106.72C314.516 106.856 314.436 106.972 314.324 107.068C314.22 107.164 314.076 107.212 313.892 107.212C313.7 107.212 313.552 107.164 313.448 107.068C313.344 106.972 313.268 106.856 313.22 106.72C313.172 106.576 313.144 106.424 313.136 106.264C313.128 106.104 313.124 105.96 313.124 105.832ZM311.9 105.808C311.9 106.136 311.932 106.444 311.996 106.732C312.068 107.012 312.18 107.256 312.332 107.464C312.492 107.664 312.696 107.824 312.944 107.944C313.2 108.056 313.512 108.112 313.88 108.112C314.232 108.112 314.536 108.056 314.792 107.944C315.048 107.832 315.256 107.676 315.416 107.476C315.584 107.276 315.708 107.04 315.788 106.768C315.868 106.488 315.908 106.184 315.908 105.856C315.908 105.528 315.876 105.216 315.812 104.92C315.748 104.624 315.636 104.368 315.476 104.152C315.324 103.928 315.124 103.752 314.876 103.624C314.628 103.496 314.316 103.432 313.94 103.432C313.588 103.432 313.284 103.496 313.028 103.624C312.772 103.744 312.56 103.912 312.392 104.128C312.224 104.344 312.1 104.596 312.02 104.884C311.94 105.172 311.9 105.48 311.9 105.808Z" fill="#111827"/>
</g>
<path fill-rule="evenodd" clip-rule="evenodd" d="M174 139.5C174 137.291 175.791 135.5 178 135.5C180.209 135.5 182 137.291 182 139.5C182 141.709 180.209 143.5 178 143.5C175.791 143.5 174 141.709 174 139.5Z" fill="#FFD023"/>
<path d="M190.684 137.656V138.88H201.352V137.656H190.684ZM198.004 138.328C197.176 142.468 195.232 144.16 190.504 144.784C190.756 145.084 191.008 145.576 191.128 145.936C196.12 145.096 198.28 143.188 199.228 138.616L198.004 138.328ZM191.992 141.808L193.408 141.916C194.272 140.2 195.484 137.32 196.096 134.944L194.872 134.776C194.26 137.08 193.012 140.02 191.992 141.808ZM191.992 141.808C195.196 143.056 198.4 144.736 200.272 146.02L201.184 144.964C199.252 143.728 195.904 142.096 192.76 140.896L191.992 141.808ZM203.26 144.268V145.396H212.788V144.268H203.26ZM202.6 138.604V139.72H213.436V138.604H202.6ZM207.364 134.908V145.084H208.576V134.908H207.364Z" fill="#718096"/>
<path d="M289.592 137.996V139.196C289.8 139.196 290.016 139.204 290.24 139.22C290.472 139.228 290.684 139.272 290.876 139.352C291.068 139.424 291.224 139.544 291.344 139.712C291.472 139.88 291.536 140.124 291.536 140.444C291.536 140.852 291.404 141.176 291.14 141.416C290.876 141.648 290.552 141.764 290.168 141.764C289.92 141.764 289.704 141.72 289.52 141.632C289.344 141.544 289.196 141.428 289.076 141.284C288.956 141.132 288.864 140.956 288.8 140.756C288.736 140.548 288.7 140.332 288.692 140.108H287.072C287.064 140.596 287.132 141.028 287.276 141.404C287.428 141.78 287.64 142.1 287.912 142.364C288.184 142.62 288.512 142.816 288.896 142.952C289.288 143.088 289.72 143.156 290.192 143.156C290.6 143.156 290.992 143.096 291.368 142.976C291.744 142.856 292.076 142.68 292.364 142.448C292.652 142.216 292.88 141.928 293.048 141.584C293.224 141.24 293.312 140.848 293.312 140.408C293.312 139.928 293.18 139.516 292.916 139.172C292.652 138.828 292.288 138.604 291.824 138.5V138.476C292.216 138.364 292.508 138.152 292.7 137.84C292.9 137.528 293 137.168 293 136.76C293 136.384 292.916 136.052 292.748 135.764C292.58 135.476 292.36 135.232 292.088 135.032C291.824 134.832 291.524 134.684 291.188 134.588C290.852 134.484 290.516 134.432 290.18 134.432C289.748 134.432 289.356 134.504 289.004 134.648C288.652 134.784 288.348 134.98 288.092 135.236C287.844 135.492 287.648 135.8 287.504 136.16C287.368 136.512 287.292 136.904 287.276 137.336H288.896C288.888 136.904 288.992 136.548 289.208 136.268C289.432 135.98 289.76 135.836 290.192 135.836C290.504 135.836 290.78 135.932 291.02 136.124C291.26 136.316 291.38 136.592 291.38 136.952C291.38 137.192 291.32 137.384 291.2 137.528C291.088 137.672 290.94 137.784 290.756 137.864C290.58 137.936 290.388 137.98 290.18 137.996C289.972 138.012 289.776 138.012 289.592 137.996ZM299.724 136.004V134.6H295.032L294.204 139.244H295.74C295.908 139.012 296.088 138.844 296.28 138.74C296.472 138.628 296.72 138.572 297.024 138.572C297.256 138.572 297.46 138.612 297.636 138.692C297.812 138.772 297.964 138.884 298.092 139.028C298.22 139.172 298.316 139.34 298.38 139.532C298.444 139.724 298.476 139.928 298.476 140.144C298.476 140.352 298.44 140.556 298.368 140.756C298.304 140.948 298.208 141.12 298.08 141.272C297.96 141.416 297.808 141.536 297.624 141.632C297.448 141.72 297.248 141.764 297.024 141.764C296.64 141.764 296.324 141.652 296.076 141.428C295.828 141.196 295.684 140.888 295.644 140.504H293.94C293.948 140.944 294.036 141.332 294.204 141.668C294.38 141.996 294.612 142.272 294.9 142.496C295.188 142.72 295.516 142.888 295.884 143C296.26 143.104 296.652 143.156 297.06 143.156C297.484 143.164 297.884 143.096 298.26 142.952C298.636 142.8 298.964 142.588 299.244 142.316C299.532 142.044 299.76 141.724 299.928 141.356C300.096 140.98 300.18 140.576 300.18 140.144C300.18 139.752 300.12 139.384 300 139.04C299.888 138.688 299.72 138.384 299.496 138.128C299.28 137.872 299.012 137.668 298.692 137.516C298.372 137.364 298.004 137.288 297.588 137.288C297.252 137.288 296.952 137.34 296.688 137.444C296.424 137.54 296.176 137.704 295.944 137.936L295.92 137.912L296.256 136.004H299.724ZM301.324 141.152V143H302.188C302.196 143.128 302.18 143.252 302.14 143.372C302.1 143.5 302.04 143.612 301.96 143.708C301.88 143.812 301.784 143.9 301.672 143.972C301.568 144.044 301.456 144.092 301.336 144.116V144.98C301.592 144.94 301.832 144.864 302.056 144.752C302.288 144.648 302.488 144.512 302.656 144.344C302.824 144.176 302.956 143.976 303.052 143.744C303.156 143.52 303.208 143.272 303.208 143V141.152H301.324ZM310.336 136.064V134.6H304.6V136.184H308.584C307.784 137.152 307.136 138.216 306.64 139.376C306.152 140.536 305.86 141.744 305.764 143H307.588C307.596 142.44 307.66 141.836 307.78 141.188C307.908 140.54 308.084 139.9 308.308 139.268C308.54 138.636 308.824 138.04 309.16 137.48C309.504 136.92 309.896 136.448 310.336 136.064ZM319.316 140.816C319.316 140.68 319.32 140.528 319.328 140.36C319.344 140.192 319.38 140.036 319.436 139.892C319.492 139.748 319.572 139.628 319.676 139.532C319.788 139.436 319.94 139.388 320.132 139.388C320.308 139.388 320.444 139.444 320.54 139.556C320.644 139.66 320.72 139.788 320.768 139.94C320.816 140.084 320.844 140.24 320.852 140.408C320.868 140.568 320.876 140.708 320.876 140.828C320.876 140.956 320.868 141.104 320.852 141.272C320.844 141.432 320.812 141.588 320.756 141.74C320.708 141.884 320.628 142.008 320.516 142.112C320.412 142.216 320.268 142.268 320.084 142.268C319.892 142.268 319.744 142.216 319.64 142.112C319.536 142.008 319.46 141.884 319.412 141.74C319.364 141.588 319.336 141.428 319.328 141.26C319.32 141.092 319.316 140.944 319.316 140.816ZM318.092 140.804C318.092 141.132 318.124 141.44 318.188 141.728C318.26 142.016 318.372 142.268 318.524 142.484C318.684 142.692 318.888 142.856 319.136 142.976C319.392 143.096 319.704 143.156 320.072 143.156C320.424 143.156 320.728 143.1 320.984 142.988C321.24 142.868 321.448 142.704 321.608 142.496C321.776 142.288 321.9 142.044 321.98 141.764C322.06 141.484 322.1 141.18 322.1 140.852C322.1 140.524 322.068 140.216 322.004 139.928C321.94 139.64 321.828 139.392 321.668 139.184C321.516 138.968 321.316 138.8 321.068 138.68C320.82 138.552 320.508 138.488 320.132 138.488C319.78 138.488 319.476 138.548 319.22 138.668C318.964 138.788 318.752 138.952 318.584 139.16C318.416 139.368 318.292 139.612 318.212 139.892C318.132 140.172 318.092 140.476 318.092 140.804ZM319.016 134.336L314.048 143.252H315.092L320.036 134.336H319.016ZM313.124 136.832C313.124 136.696 313.128 136.54 313.136 136.364C313.152 136.188 313.188 136.024 313.244 135.872C313.3 135.72 313.38 135.592 313.484 135.488C313.596 135.384 313.748 135.332 313.94 135.332C314.116 135.332 314.252 135.388 314.348 135.5C314.452 135.612 314.528 135.748 314.576 135.908C314.624 136.068 314.652 136.236 314.66 136.412C314.676 136.58 314.684 136.724 314.684 136.844C314.684 136.972 314.676 137.116 314.66 137.276C314.652 137.428 314.62 137.576 314.564 137.72C314.516 137.856 314.436 137.972 314.324 138.068C314.22 138.164 314.076 138.212 313.892 138.212C313.7 138.212 313.552 138.164 313.448 138.068C313.344 137.972 313.268 137.856 313.22 137.72C313.172 137.576 313.144 137.424 313.136 137.264C313.128 137.104 313.124 136.96 313.124 136.832ZM311.9 136.808C311.9 137.136 311.932 137.444 311.996 137.732C312.068 138.012 312.18 138.256 312.332 138.464C312.492 138.664 312.696 138.824 312.944 138.944C313.2 139.056 313.512 139.112 313.88 139.112C314.232 139.112 314.536 139.056 314.792 138.944C315.048 138.832 315.256 138.676 315.416 138.476C315.584 138.276 315.708 138.04 315.788 137.768C315.868 137.488 315.908 137.184 315.908 136.856C315.908 136.528 315.876 136.216 315.812 135.92C315.748 135.624 315.636 135.368 315.476 135.152C315.324 134.928 315.124 134.752 314.876 134.624C314.628 134.496 314.316 134.432 313.94 134.432C313.588 134.432 313.284 134.496 313.028 134.624C312.772 134.744 312.56 134.912 312.392 135.128C312.224 135.344 312.1 135.596 312.02 135.884C311.94 136.172 311.9 136.48 311.9 136.808Z" fill="#111827"/>
<path fill-rule="evenodd" clip-rule="evenodd" d="M174 170.5C174 168.291 175.791 166.5 178 166.5C180.209 166.5 182 168.291 182 170.5C182 172.709 180.209 174.5 178 174.5C175.791 174.5 174 172.709 174 170.5Z" fill="#FD6A6A"/>
<path d="M190.696 170.732V171.86H201.34V170.732H190.696ZM191.572 167.768V168.896H200.5V167.768H191.572ZM195.376 165.884V177.008H196.576V165.884H195.376ZM195.136 171.356C194.128 172.988 192.172 174.632 190.324 175.436C190.6 175.676 190.972 176.12 191.164 176.408C193.036 175.448 194.98 173.672 196.12 171.764L195.136 171.356ZM196.828 171.356L195.88 171.764C197.032 173.648 198.952 175.46 200.812 176.42C201.004 176.12 201.376 175.664 201.64 175.436C199.804 174.632 197.836 172.988 196.828 171.356ZM208.996 174.68V175.748H212.428V174.68H208.996ZM208.504 166.916V176.672H209.596V167.984H211.804V176.516H212.944V166.916H208.504ZM204.868 167.96V170.312C204.868 172.136 204.616 174.5 202.336 176.132C202.576 176.3 202.996 176.744 203.14 176.984C205.588 175.22 206.008 172.364 206.008 170.324V167.96H204.868ZM203.74 167.444V168.5H207.82V167.444H203.74ZM202.492 170.684V171.764H208.144V170.684H202.492ZM205.696 172.304L205 172.952C205.576 173.6 206.872 175.172 207.4 175.976L208.168 175.016C207.796 174.572 206.176 172.736 205.696 172.304ZM203.74 165.872C203.476 167.3 202.996 168.716 202.312 169.616C202.564 169.76 203.032 170.084 203.236 170.264C203.932 169.244 204.508 167.684 204.832 166.088L203.74 165.872Z" fill="#718096"/>
<path d="M291.56 174V165.6H290.204C290.156 165.92 290.056 166.188 289.904 166.404C289.752 166.62 289.564 166.796 289.34 166.932C289.124 167.06 288.876 167.152 288.596 167.208C288.324 167.256 288.04 167.276 287.744 167.268V168.552H289.856V174H291.56ZM299.724 167.004V165.6H295.032L294.204 170.244H295.74C295.908 170.012 296.088 169.844 296.28 169.74C296.472 169.628 296.72 169.572 297.024 169.572C297.256 169.572 297.46 169.612 297.636 169.692C297.812 169.772 297.964 169.884 298.092 170.028C298.22 170.172 298.316 170.34 298.38 170.532C298.444 170.724 298.476 170.928 298.476 171.144C298.476 171.352 298.44 171.556 298.368 171.756C298.304 171.948 298.208 172.12 298.08 172.272C297.96 172.416 297.808 172.536 297.624 172.632C297.448 172.72 297.248 172.764 297.024 172.764C296.64 172.764 296.324 172.652 296.076 172.428C295.828 172.196 295.684 171.888 295.644 171.504H293.94C293.948 171.944 294.036 172.332 294.204 172.668C294.38 172.996 294.612 173.272 294.9 173.496C295.188 173.72 295.516 173.888 295.884 174C296.26 174.104 296.652 174.156 297.06 174.156C297.484 174.164 297.884 174.096 298.26 173.952C298.636 173.8 298.964 173.588 299.244 173.316C299.532 173.044 299.76 172.724 299.928 172.356C300.096 171.98 300.18 171.576 300.18 171.144C300.18 170.752 300.12 170.384 300 170.04C299.888 169.688 299.72 169.384 299.496 169.128C299.28 168.872 299.012 168.668 298.692 168.516C298.372 168.364 298.004 168.288 297.588 168.288C297.252 168.288 296.952 168.34 296.688 168.444C296.424 168.54 296.176 168.704 295.944 168.936L295.92 168.912L296.256 167.004H299.724ZM301.324 172.152V174H302.188C302.196 174.128 302.18 174.252 302.14 174.372C302.1 174.5 302.04 174.612 301.96 174.708C301.88 174.812 301.784 174.9 301.672 174.972C301.568 175.044 301.456 175.092 301.336 175.116V175.98C301.592 175.94 301.832 175.864 302.056 175.752C302.288 175.648 302.488 175.512 302.656 175.344C302.824 175.176 302.956 174.976 303.052 174.744C303.156 174.52 303.208 174.272 303.208 174V172.152H301.324ZM307.372 169.956C307.156 169.956 306.964 169.912 306.796 169.824C306.636 169.728 306.504 169.608 306.4 169.464C306.296 169.312 306.216 169.144 306.16 168.96C306.112 168.768 306.088 168.572 306.088 168.372C306.088 168.18 306.116 167.992 306.172 167.808C306.228 167.624 306.312 167.46 306.424 167.316C306.536 167.172 306.672 167.056 306.832 166.968C306.992 166.88 307.172 166.836 307.372 166.836C307.588 166.836 307.78 166.88 307.948 166.968C308.116 167.056 308.256 167.176 308.368 167.328C308.488 167.472 308.576 167.64 308.632 167.832C308.696 168.016 308.728 168.204 308.728 168.396C308.728 168.604 308.7 168.804 308.644 168.996C308.588 169.18 308.504 169.344 308.392 169.488C308.28 169.632 308.14 169.748 307.972 169.836C307.804 169.916 307.604 169.956 307.372 169.956ZM306.148 171.84H304.528C304.576 172.208 304.676 172.536 304.828 172.824C304.98 173.112 305.176 173.356 305.416 173.556C305.656 173.756 305.932 173.904 306.244 174C306.556 174.104 306.892 174.156 307.252 174.156C307.852 174.156 308.36 174.028 308.776 173.772C309.192 173.508 309.532 173.168 309.796 172.752C310.06 172.328 310.252 171.856 310.372 171.336C310.492 170.816 310.552 170.296 310.552 169.776C310.552 169.248 310.504 168.724 310.408 168.204C310.312 167.684 310.14 167.22 309.892 166.812C309.644 166.396 309.312 166.064 308.896 165.816C308.488 165.56 307.964 165.432 307.324 165.432C306.884 165.432 306.484 165.512 306.124 165.672C305.764 165.832 305.452 166.052 305.188 166.332C304.932 166.604 304.732 166.928 304.588 167.304C304.452 167.672 304.384 168.072 304.384 168.504C304.384 168.84 304.436 169.172 304.54 169.5C304.644 169.828 304.808 170.12 305.032 170.376C305.272 170.64 305.564 170.852 305.908 171.012C306.252 171.164 306.604 171.24 306.964 171.24C307.372 171.24 307.732 171.168 308.044 171.024C308.356 170.88 308.628 170.64 308.86 170.304L308.884 170.328C308.868 170.56 308.832 170.824 308.776 171.12C308.728 171.416 308.644 171.696 308.524 171.96C308.404 172.216 308.244 172.436 308.044 172.62C307.844 172.796 307.588 172.884 307.276 172.884C306.98 172.884 306.732 172.78 306.532 172.572C306.332 172.364 306.204 172.12 306.148 171.84ZM319.316 171.816C319.316 171.68 319.32 171.528 319.328 171.36C319.344 171.192 319.38 171.036 319.436 170.892C319.492 170.748 319.572 170.628 319.676 170.532C319.788 170.436 319.94 170.388 320.132 170.388C320.308 170.388 320.444 170.444 320.54 170.556C320.644 170.66 320.72 170.788 320.768 170.94C320.816 171.084 320.844 171.24 320.852 171.408C320.868 171.568 320.876 171.708 320.876 171.828C320.876 171.956 320.868 172.104 320.852 172.272C320.844 172.432 320.812 172.588 320.756 172.74C320.708 172.884 320.628 173.008 320.516 173.112C320.412 173.216 320.268 173.268 320.084 173.268C319.892 173.268 319.744 173.216 319.64 173.112C319.536 173.008 319.46 172.884 319.412 172.74C319.364 172.588 319.336 172.428 319.328 172.26C319.32 172.092 319.316 171.944 319.316 171.816ZM318.092 171.804C318.092 172.132 318.124 172.44 318.188 172.728C318.26 173.016 318.372 173.268 318.524 173.484C318.684 173.692 318.888 173.856 319.136 173.976C319.392 174.096 319.704 174.156 320.072 174.156C320.424 174.156 320.728 174.1 320.984 173.988C321.24 173.868 321.448 173.704 321.608 173.496C321.776 173.288 321.9 173.044 321.98 172.764C322.06 172.484 322.1 172.18 322.1 171.852C322.1 171.524 322.068 171.216 322.004 170.928C321.94 170.64 321.828 170.392 321.668 170.184C321.516 169.968 321.316 169.8 321.068 169.68C320.82 169.552 320.508 169.488 320.132 169.488C319.78 169.488 319.476 169.548 319.22 169.668C318.964 169.788 318.752 169.952 318.584 170.16C318.416 170.368 318.292 170.612 318.212 170.892C318.132 171.172 318.092 171.476 318.092 171.804ZM319.016 165.336L314.048 174.252H315.092L320.036 165.336H319.016ZM313.124 167.832C313.124 167.696 313.128 167.54 313.136 167.364C313.152 167.188 313.188 167.024 313.244 166.872C313.3 166.72 313.38 166.592 313.484 166.488C313.596 166.384 313.748 166.332 313.94 166.332C314.116 166.332 314.252 166.388 314.348 166.5C314.452 166.612 314.528 166.748 314.576 166.908C314.624 167.068 314.652 167.236 314.66 167.412C314.676 167.58 314.684 167.724 314.684 167.844C314.684 167.972 314.676 168.116 314.66 168.276C314.652 168.428 314.62 168.576 314.564 168.72C314.516 168.856 314.436 168.972 314.324 169.068C314.22 169.164 314.076 169.212 313.892 169.212C313.7 169.212 313.552 169.164 313.448 169.068C313.344 168.972 313.268 168.856 313.22 168.72C313.172 168.576 313.144 168.424 313.136 168.264C313.128 168.104 313.124 167.96 313.124 167.832ZM311.9 167.808C311.9 168.136 311.932 168.444 311.996 168.732C312.068 169.012 312.18 169.256 312.332 169.464C312.492 169.664 312.696 169.824 312.944 169.944C313.2 170.056 313.512 170.112 313.88 170.112C314.232 170.112 314.536 170.056 314.792 169.944C315.048 169.832 315.256 169.676 315.416 169.476C315.584 169.276 315.708 169.04 315.788 168.768C315.868 168.488 315.908 168.184 315.908 167.856C315.908 167.528 315.876 167.216 315.812 166.92C315.748 166.624 315.636 166.368 315.476 166.152C315.324 165.928 315.124 165.752 314.876 165.624C314.628 165.496 314.316 165.432 313.94 165.432C313.588 165.432 313.284 165.496 313.028 165.624C312.772 165.744 312.56 165.912 312.392 166.128C312.224 166.344 312.1 166.596 312.02 166.884C311.94 167.172 311.9 167.48 311.9 167.808Z" fill="#111827"/>
</g>
<path fill-rule="evenodd" clip-rule="evenodd" d="M24 139C24 174.9 53.1 204 89 204C124.9 204 154 174.9 154 139H119.88C119.88 156.06 106.06 169.88 89 169.88C71.94 169.88 58.12 156.06 58.12 139C58.12 121.94 71.94 108.12 89 108.12C106.06 108.12 119.88 121.94 119.88 139H154C154 103.1 124.9 74 89 74C53.1 74 24 103.1 24 139Z" fill="#F1F2F4"/>
<path fill-rule="evenodd" clip-rule="evenodd" d="M124.45 124.31C126.38 128.97 127.37 133.96 127.37 139C127.37 144.04 126.38 149.03 124.45 153.69C122.53 158.34 119.7 162.57 116.14 166.14L129.31 179.31C134.6 174.01 138.8 167.73 141.66 160.81C144.53 153.9 146 146.49 146 139C146 131.51 144.53 124.1 141.66 117.19C138.8 110.27 134.6 103.99 129.31 98.69C124.01 93.4 117.73 89.2 110.81 86.34C103.9 83.47 96.4899 82 88.9999 82C81.5099 82 74.0999 83.47 67.1899 86.34C60.2699 89.2 53.9899 93.4 48.6899 98.69L61.8599 111.86C65.4299 108.3 69.6599 105.47 74.3099 103.55C78.9699 101.62 83.9599 100.63 88.9999 100.63C94.0399 100.63 99.0299 101.62 103.69 103.55C108.34 105.47 112.57 108.3 116.14 111.86C119.7 115.43 122.53 119.66 124.45 124.31Z" fill="#168AFF"/>
<path fill-rule="evenodd" clip-rule="evenodd" d="M79.07 176.07L74.25 194.06C83.91 196.65 94.09 196.65 103.75 194.06C113.42 191.47 122.23 186.38 129.31 179.31L116.14 166.14C111.37 170.9 105.44 174.32 98.93 176.07C92.43 177.81 85.57 177.81 79.07 176.07Z" fill="#FD6A6A"/>
<path fill-rule="evenodd" clip-rule="evenodd" d="M79.0701 176.07C72.5601 174.32 66.6301 170.9 61.8601 166.14C57.1001 161.37 53.6801 155.44 51.9301 148.93C50.1901 142.43 50.1901 135.57 51.9301 129.07C53.6801 122.56 57.1001 116.63 61.8601 111.86L48.6901 98.6899C41.6201 105.77 36.5301 114.58 33.9401 124.25C31.3501 133.91 31.3501 144.09 33.9401 153.75C36.5301 163.42 41.6201 172.23 48.6901 179.31C55.7701 186.38 64.5801 191.47 74.2501 194.06L79.0701 176.07Z" fill="#FFD023"/>
</g>
<defs>
<clipPath id="clip0_73_1193">
<rect width="347" height="240" fill="white"/>
</clipPath>
<clipPath id="clip1_73_1193">
<rect width="149" height="82" fill="white" transform="translate(174 98)"/>
</clipPath>
<clipPath id="clip2_73_1193">
<rect width="149" height="20" fill="white" transform="translate(174 98)"/>
</clipPath>
</defs>
</svg>
